<svg width="96" height="96" viewBox="0 0 96 96" fill="none" xmlns="http://www.w3.org/2000/svg">
<path fill-rule="evenodd" clip-rule="evenodd" d="M54.2822 36.7794C50.4754 37.0585 47.4996 38.78 45.6222 41.7893C45.1645 42.5228 44.7467 43.3823 44.3716 44.3621L44.1784 44.8666L44.1773 41.2508C44.1763 37.8279 44.1734 37.635 44.1227 37.6351C43.9657 37.6356 43.1573 37.7737 42.785 37.8637C40.9772 38.3005 39.3666 39.2534 37.8921 40.7586C36.8413 41.8312 36.0384 42.929 35.156 44.4997C34.7156 45.2838 34.0234 46.7907 33.6848 47.7027C33.6114 47.9003 33.5438 48.062 33.5345 48.062C33.5252 48.062 33.3955 47.7696 33.2463 47.4122C31.8665 44.1085 30.4536 41.899 28.6874 40.283C27.2429 38.9613 25.7165 38.15 24.0254 37.805C23.6556 37.7296 22.9998 37.635 22.8466 37.635H22.7717V48.0467V58.4585H25.2791H27.7865V52.8256C27.7865 48.1045 27.7932 47.2 27.8276 47.2375C27.9538 47.3748 28.5898 48.477 28.8996 49.0953C30.246 51.7823 31.0345 55.0086 31.1281 58.2138L31.1348 58.4432L33.4908 58.451L35.8469 58.4588L35.8845 57.656C36.0734 53.622 37.0132 50.3571 38.7208 47.8021C38.8782 47.5666 39.0412 47.3327 39.0831 47.2823L39.1593 47.1905L39.1604 52.8245L39.1615 58.4585H41.6689H44.1762L44.1794 54.8426C44.1823 51.631 44.1876 51.2439 44.2269 51.3797C44.5694 52.5609 45.0083 53.595 45.5374 54.4676C46.5766 56.1814 48.1165 57.5395 49.9048 58.3193C50.8988 58.7529 51.945 59.0294 53.1661 59.1815C53.7233 59.2508 55.5894 59.2618 56.1016 59.1986C58.7633 58.8707 60.9351 57.8488 62.6763 56.1051C64.1093 54.6701 65.0894 52.9646 65.6115 50.9975L65.7292 50.5541L65.7314 54.5063L65.7336 58.4585H71.1H76.4665V55.9665V53.4746L73.6609 53.4668L70.8554 53.459L70.8475 51.9836L70.8395 50.5082H73.6532H76.4668L76.459 48.0238L76.4512 45.5393L73.6456 45.5315L70.8401 45.5237V44.0867V42.6497H73.6533H76.4665V40.1423V37.635H71.1H65.7336V41.5795V45.524H60.0156H54.2975V48.0161V50.5082H57.3706C59.2956 50.5082 60.4437 50.5191 60.4437 50.5373C60.4437 50.6 60.0772 51.3717 59.8974 51.6879C59.6333 52.1521 59.3694 52.4946 59.0099 52.8397C58.2103 53.6072 57.1979 54.0985 55.9946 54.303C55.5095 54.3855 54.6423 54.4127 54.1236 54.3617C51.9613 54.1491 50.2203 52.9838 49.3028 51.1351C48.5029 49.5233 48.3629 47.5077 48.9334 45.8145C49.2265 44.9447 49.699 44.187 50.3659 43.5174C51.7662 42.1115 53.7682 41.4872 55.9334 41.7814C57.5171 41.9965 58.759 42.7156 59.5258 43.8613C59.6398 44.0316 59.7863 44.2819 59.8514 44.4175L59.9697 44.6642L62.6563 44.666L65.3429 44.6679L65.3223 44.5532C65.0846 43.2318 64.418 41.8158 63.4831 40.6469C63.1393 40.217 62.4505 39.5293 62.0184 39.1845C60.4129 37.9035 58.5304 37.1017 56.5105 36.8385C55.9526 36.7658 54.8625 36.7369 54.2822 36.7794ZM20.6007 37.5636C16.7055 37.8374 13.5345 39.5354 10.8434 42.7882C9.27954 44.6784 8.00662 47.0133 6.53451 50.6917C5.79302 52.5444 5.38628 53.7491 4.62455 56.3486C4.31162 57.4165 4.04305 58.3282 4.0278 58.3746L4 58.4588L6.5135 58.451L9.027 58.4432L9.33519 57.2201C9.70182 55.7649 9.84697 55.2474 10.1818 54.201L10.4336 53.414L13.6519 53.4136L16.8702 53.4131V55.9358V58.4585H19.4082H21.9461V48.0008V37.5432L21.3422 37.5486C21.0101 37.5515 20.6764 37.5583 20.6007 37.5636ZM77.2921 48.044V58.4585H79.7994H82.3068V53.459C82.3068 50.7093 82.3156 48.4595 82.3264 48.4595C82.373 48.4595 82.8071 48.8407 83.1494 49.1823C83.6203 49.6523 84.0831 50.2274 84.5239 50.8905C85.0556 51.6901 85.4803 52.4734 85.9082 53.4437C86.5145 54.8184 87.1189 56.7412 87.4003 58.1909L87.4523 58.4585H89.7261H92V48.0467V37.635H89.4926H86.9852V41.5642C86.9852 43.7253 86.9749 45.4934 86.9623 45.4933C86.9497 45.4932 86.8729 45.3626 86.7917 45.203C85.6099 42.8802 81.4603 39.265 78.561 38.0322C78.2069 37.8816 77.6104 37.682 77.422 37.651L77.2921 37.6296V48.044ZM16.8702 46.0744V48.4595H14.8062C13.266 48.4595 12.7422 48.4506 12.7422 48.4242C12.7422 48.3698 13.3489 47.2032 13.5825 46.8083C14.4267 45.3815 15.3806 44.4386 16.6103 43.8153C16.7448 43.7471 16.8584 43.6909 16.8626 43.6903C16.8668 43.6898 16.8702 44.7627 16.8702 46.0744Z" fill="#2162A5"/>
</svg>
