<svg width="96" height="96" viewBox="0 0 96 96" fill="none" xmlns="http://www.w3.org/2000/svg">
<path d="M87.9822 87.9644H8.01782V8H87.9822V87.9644Z" fill="white"/>
<path d="M87.9822 51.3127V8.03577H8.01782V88.0001H87.9822V64.6698C87.8041 64.6698 87.9822 51.3127 87.9822 51.3127Z" fill="#006FCF"/>
<path d="M78.187 46.8602H84.2422V32.7908H77.6527V34.7498L76.406 32.7908H70.707V35.2841L69.6385 32.7908H59.1309C58.7747 32.7908 58.4185 32.9689 58.0623 32.9689C57.7061 32.9689 57.528 33.147 57.1719 33.3251C56.8157 33.5031 56.6376 33.5031 56.2814 33.6812V32.7908H26.1834L25.293 35.106L24.4025 32.7908H17.2787V35.2841L16.2102 32.7908H10.5111L8.01782 38.846V46.8602H12.114L12.8264 44.9012H14.2511L14.9635 46.8602H46.3081V45.0793L47.5548 46.8602H56.2814V45.7917C56.4595 45.9698 56.8157 45.9697 56.9938 46.1478C57.1719 46.3259 57.528 46.3259 57.7061 46.504C58.0623 46.6821 58.4185 46.6821 58.7747 46.6821H65.1861L65.8985 44.7231H67.3232L68.0356 46.6821H76.7622V44.9012L78.187 46.8602ZM87.9822 64.6697V51.4907H39.0062L37.7596 53.2716L36.5129 51.4907H22.2654V65.5601H36.5129L37.7596 63.7792L39.0062 65.5601H47.911V62.5325H47.5548C48.8014 62.5325 49.87 62.3544 50.7605 61.9982V65.7382H57.1719V63.9573L58.4185 65.7382H84.9546C86.0231 65.382 87.0917 65.2039 87.9822 64.6697Z" fill="white"/>
<path d="M84.9546 61.2857H80.146V63.2447H84.7765C86.7355 63.2447 87.9822 61.9981 87.9822 60.2171C87.9822 58.4362 86.9136 57.5457 85.1327 57.5457H82.9955C82.4612 57.5457 82.1051 57.1895 82.1051 56.6552C82.1051 56.121 82.4612 55.7648 82.9955 55.7648H87.0917L87.9822 53.8057H83.1736C81.2146 53.8057 79.9679 55.0524 79.9679 56.6552C79.9679 58.4362 81.0365 59.3267 82.8174 59.3267H84.9546C85.4889 59.3267 85.845 59.6829 85.845 60.2171C86.0231 60.9295 85.667 61.2857 84.9546 61.2857ZM76.2279 61.2857H71.4194V63.2447H76.0499C78.0089 63.2447 79.2556 61.9981 79.2556 60.2171C79.2556 58.4362 78.187 57.5457 76.406 57.5457H74.2689C73.7346 57.5457 73.3784 57.1895 73.3784 56.6552C73.3784 56.121 73.7346 55.7648 74.2689 55.7648H78.3651L79.2556 53.8057H74.447C72.488 53.8057 71.2413 55.0524 71.2413 56.6552C71.2413 58.4362 72.3099 59.3267 74.0908 59.3267H76.2279C76.7622 59.3267 77.1184 59.6829 77.1184 60.2171C77.2965 60.9295 76.7622 61.2857 76.2279 61.2857ZM69.9946 55.5867V53.6276H62.5147V63.0666H69.9946V61.1076H64.6518V59.1486H69.8166V57.1895H64.6518V55.4086H69.9946V55.5867ZM57.8842 55.5867C58.7747 55.5867 59.1309 56.121 59.1309 56.6552C59.1309 57.1895 58.7747 57.7238 57.8842 57.7238H55.2128V55.4086L57.8842 55.5867ZM55.2128 59.6829H56.2814L59.1309 63.0666H61.8023L58.5966 59.5048C60.1995 59.1486 61.0899 58.08 61.0899 56.6552C61.0899 54.8743 59.8433 53.6276 57.8842 53.6276H52.8976V63.0666H55.0347L55.2128 59.6829ZM49.5138 56.8333C49.5138 57.5457 49.1576 58.08 48.2671 58.08H45.4176V55.5867H48.089C48.9795 55.5867 49.5138 56.121 49.5138 56.8333ZM43.2805 53.6276V63.0666H45.4176V59.8609H48.2671C50.2262 59.8609 51.6509 58.6143 51.6509 56.6552C51.6509 54.8743 50.4043 53.4495 48.4452 53.4495L43.2805 53.6276ZM40.0748 63.0666H42.7462L39.0062 58.2581L42.7462 53.6276H40.0748L37.7596 56.6552L35.4443 53.6276H32.7729L36.5129 58.2581L32.7729 62.8886H35.4443L37.7596 59.8609L40.0748 63.0666ZM32.0606 55.5867V53.6276H24.5806V63.0666H32.0606V61.1076H26.7177V59.1486H31.8825V57.1895H26.7177V55.4086H32.0606V55.5867ZM75.3375 38.8458L79.0775 44.5448H81.7489V35.1058H79.6117V41.3391L79.0775 40.4487L75.6937 35.1058H72.8442V44.5448H74.9813V38.1334L75.3375 38.8458ZM66.0766 38.6677L66.789 36.7087L67.5013 38.6677L68.3918 40.8049H65.1861L66.0766 38.6677ZM69.8166 44.5448H72.1318L68.0356 35.1058H65.1861L61.0899 44.5448H63.4052L64.2956 42.5858H68.9261L69.8166 44.5448ZM59.8433 44.5448L60.7337 42.5858H60.1995C58.5966 42.5858 57.7061 41.5172 57.7061 39.9144V39.7363C57.7061 38.1334 58.5966 37.0649 60.1995 37.0649H62.5147V35.1058H60.0214C57.1719 35.1058 55.569 37.0649 55.569 39.7363V39.9144C55.569 42.7639 57.1719 44.5448 59.8433 44.5448ZM51.829 44.5448H53.9662V35.2839H51.829V44.5448ZM47.1986 37.0649C48.089 37.0649 48.4452 37.5992 48.4452 38.1334C48.4452 38.6677 48.089 39.202 47.1986 39.202H44.5272V36.8868L47.1986 37.0649ZM44.5272 41.161H45.5957L48.4452 44.5448H51.1167L47.911 40.9829C49.5138 40.6268 50.4043 39.5582 50.4043 38.1334C50.4043 36.3525 49.1576 35.1058 47.1986 35.1058H42.2119V44.5448H44.3491L44.5272 41.161ZM40.6091 37.0649V35.1058H33.1291V44.5448H40.6091V42.5858H35.2663V40.6268H40.431V38.6677H35.2663V36.8868H40.6091V37.0649ZM24.4025 44.5448H26.3615L29.033 36.8868V44.5448H31.1701V35.1058H27.6082L25.4711 41.5172L23.3339 35.1058H19.772V44.5448H21.9092V36.8868L24.4025 44.5448ZM12.8264 38.6677L13.5387 36.7087L14.2511 38.6677L15.1416 40.8049H11.9359L12.8264 38.6677ZM16.5664 44.5448H18.8816L14.7854 35.1058H12.114L8.01782 44.5448H10.333L11.2235 42.5858H15.854L16.5664 44.5448Z" fill="#006FCF"/>
</svg>
