<svg width="96" height="96" viewBox="0 0 96 96" fill="none" xmlns="http://www.w3.org/2000/svg">
<path d="M51.6574 54.7362C53.8666 49.9899 54.3011 44.6082 52.8819 39.5686C51.4628 34.5291 48.2841 30.166 43.9234 27.272C47.4271 23.6693 51.2214 20.099 55.2257 16.6902C50.554 19.4691 46.1202 22.6302 41.9698 26.1411C37.4644 23.7904 32.2814 23.0834 27.3116 24.1416C22.3417 25.1997 17.8955 27.957 14.737 31.9394C11.5785 35.9219 9.905 40.8808 10.0042 45.9639C10.1033 51.047 11.9689 55.9367 15.2804 59.7928C11.0985 68.856 10.4366 76.1259 14.0533 78.5816C18.009 81.2149 26.5987 76.4329 31.8139 68.6621C31.8139 68.6621 23.8378 75.8513 19.4622 74.2034C16.7658 73.1856 16.7658 69.0499 18.9778 63.137C23.1688 66.2134 28.3183 67.6951 33.5024 67.3161C38.6865 66.9371 43.566 64.7224 47.2657 61.0691L48.0407 62.5231C57.5668 61.7476 86 60.9883 86 60.9883C85.9354 59.6474 67.1091 60.9398 51.6574 54.7362ZM12.6163 45.5114C12.6197 42.2914 13.4301 39.1236 14.9732 36.2979C16.5164 33.4722 18.743 31.0788 21.4495 29.3366C24.156 27.5945 27.2559 26.5592 30.4656 26.3255C33.6753 26.0918 36.8923 26.6672 39.8223 27.999C30.3842 36.2591 22.5039 46.1467 16.5559 57.1918C13.9926 53.8389 12.6077 49.7328 12.6163 45.5114V45.5114ZM31.8462 64.7525C27.5289 64.7608 23.3356 63.309 19.9466 60.6329C23.757 52.0382 31.5071 40.5033 42.0828 29.2268C46.0554 31.7297 48.9757 35.6002 50.2932 40.1087C51.6108 44.6171 51.2345 49.4521 49.2355 53.7022C45.8976 52.2033 42.8143 50.192 40.0968 47.7409L45.8932 58.6296C44.0986 60.5621 41.9249 62.1032 39.5078 63.1568C37.0908 64.2103 34.4826 64.7535 31.8462 64.7525V64.7525Z" fill="#0033A1"/>
</svg>
