<svg width="96" height="96" viewBox="0 0 96 96" fill="none" xmlns="http://www.w3.org/2000/svg">
<path d="M92 39.1907C92 38.1258 91.1434 37.2923 90.1015 37.2923C89.0366 37.2923 88.18 38.1489 88.18 39.1907V43.196C88.18 44.261 89.0366 45.1176 90.1015 45.1176C91.1434 45.1176 92 44.261 92 43.196V39.1907ZM81.4891 33.9121C81.4891 32.8703 80.6325 32.0137 79.5675 32.0137C78.5025 32.0137 77.669 32.8703 77.669 33.9121V43.196C77.669 44.261 78.5256 45.1176 79.5675 45.1176C80.6556 45.1176 81.4891 44.261 81.4891 43.196V33.9121ZM70.955 26.7119C70.955 25.6469 70.0984 24.8135 69.0566 24.8135C67.9916 24.8135 67.1581 25.6701 67.1581 26.7119V47.0161C67.1581 48.081 68.0147 48.9377 69.0566 48.9377C70.1215 48.9377 70.955 48.081 70.955 47.0161V26.7119ZM60.4441 33.9121C60.4441 32.8703 59.5875 32.0137 58.5456 32.0137C57.5038 32.0137 56.6472 32.8703 56.6472 33.9121V43.196C56.6472 44.261 57.5038 45.1176 58.5456 45.1176C59.6106 45.1176 60.4441 44.261 60.4441 43.196V33.9121ZM49.91 39.1907C49.91 38.1258 49.0534 37.2923 48.0116 37.2923C46.9466 37.2923 46.09 38.1489 46.09 39.1907V43.196C46.09 44.261 46.9466 45.1176 48.0116 45.1176C49.0534 45.1176 49.91 44.261 49.91 43.196V39.1907ZM39.3991 33.9121C39.3991 32.8703 38.5425 32.0137 37.4775 32.0137C36.4125 32.0137 35.5559 32.8703 35.5559 33.9121V43.196C35.5559 44.261 36.4125 45.1176 37.4775 45.1176C38.5425 45.1176 39.3991 44.261 39.3991 43.196V33.9121ZM28.8882 26.7119C28.8882 25.6469 28.0316 24.8135 26.9666 24.8135C25.9016 24.8135 25.045 25.6701 25.045 26.7119V47.0161C25.045 48.081 25.9016 48.9377 26.9666 48.9377C28.0316 48.9377 28.8882 48.081 28.8882 47.0161V26.7119ZM18.3541 33.9121C18.3541 32.8703 17.4975 32.0137 16.4325 32.0137C15.3675 32.0137 14.5109 32.8703 14.5109 33.9121V43.196C14.5109 44.261 15.3675 45.1176 16.4325 45.1176C17.4975 45.1176 18.3541 44.261 18.3541 43.196V33.9121ZM7.8432 39.1907C7.8432 38.1258 6.98659 37.2923 5.9216 37.2923C4.85662 37.2923 4 38.1489 4 39.1907V43.196C4 44.261 4.85662 45.1176 5.9216 45.1176C6.98659 45.1176 7.8432 44.261 7.8432 43.196V39.1907ZM47.3865 55.8137C47.2707 55.7906 45.5112 55.3275 43.6359 55.3275C40.0705 55.3275 37.9405 57.2492 37.9405 60.0968C37.9405 62.6204 39.7232 63.8937 41.8764 64.5651C42.1079 64.6346 42.4551 64.7503 42.7098 64.8198C43.659 65.1208 44.4231 65.5607 44.4231 66.3478C44.4231 67.2044 43.5433 67.7832 41.6217 67.7832C39.9316 67.7832 38.311 67.297 37.9868 67.2044V70.7235C38.1721 70.7698 40.0937 71.1402 42.1542 71.1402C45.1176 71.1402 48.4746 69.8437 48.4746 66.0005C48.4746 64.1484 47.3402 62.412 44.8398 61.6248L43.7748 61.2776C43.1497 61.0692 42.0153 60.7451 42.0153 59.819C42.0153 59.0781 42.8487 58.5688 44.3999 58.5688C45.7427 58.5688 47.3633 59.0087 47.4096 59.0318V55.8137H47.3865ZM79.9842 63.2455C79.9842 65.468 78.271 67.2739 76.0021 67.2739C73.7101 67.2739 72.02 65.468 72.02 63.2455C72.02 61.0229 73.7101 59.217 76.0021 59.217C78.271 59.2402 79.9842 61.046 79.9842 63.2455ZM76.0021 55.3507C71.3023 55.3507 67.9221 58.8929 67.9221 63.2686C67.9221 67.6443 71.3023 71.1865 76.0021 71.1865C80.7019 71.1865 84.0821 67.6443 84.0821 63.2686C84.0821 58.8929 80.7019 55.3507 76.0021 55.3507ZM23.5864 55.8832C23.216 55.7674 21.8732 55.3275 20.0674 55.3275C15.3675 55.3275 11.9179 58.6846 11.9179 63.2455C11.9179 68.1768 15.7148 71.1634 20.0674 71.1634C21.7806 71.1634 23.1002 70.7466 23.5864 70.6077V66.5099C23.4244 66.6025 22.151 67.3202 20.3452 67.3202C17.7753 67.3202 16.1084 65.5143 16.1084 63.2455C16.1084 60.9071 17.8448 59.1708 20.3452 59.1708C22.1973 59.1708 23.4244 59.9116 23.5864 59.9811V55.8832ZM63.8474 55.8832C63.477 55.7674 62.1342 55.3275 60.3283 55.3275C55.6285 55.3275 52.1789 58.6846 52.1789 63.2455C52.1789 68.1768 55.9989 71.1634 60.3283 71.1634C62.0416 71.1634 63.3612 70.7466 63.8474 70.6077V66.5099C63.6853 66.6025 62.412 67.3202 60.6062 67.3202C58.0363 67.3202 56.3925 65.5143 56.3925 63.2455C56.3925 60.9071 58.1289 59.1708 60.6062 59.1708C62.4583 59.1708 63.6853 59.9116 63.8474 59.9811V55.8832ZM32.7545 70.9087H28.8882V55.6285H32.7545V70.9087Z" fill="#049FD9"/>
</svg>
