<svg width="97" height="96" viewBox="0 0 97 96" fill="none" xmlns="http://www.w3.org/2000/svg">
<path d="M40.6314 37.9458C40.6314 37.9458 40.9706 37.437 41.2553 37.0498C41.7745 36.3458 42.7128 35.3697 43.4184 34.7649C43.636 34.5809 43.8896 34.3705 43.8896 34.3705C43.8896 34.3705 43.4904 34.4121 43.2656 34.4585C42.7297 34.5633 41.9433 35.0857 41.5497 35.4233C40.9018 35.977 40.1898 36.8794 40.5106 37.6794C40.5586 37.7946 40.6314 37.9458 40.6314 37.9458ZM44.2344 38.9098C45.2583 38.841 46.2182 38.5442 47.1102 38.0506C47.9861 37.561 49.2732 36.6058 49.142 35.4809C49.0996 35.1185 48.8628 34.8433 48.5621 34.7145C48.1701 34.5441 47.9669 34.5745 47.4669 34.7209C47.1054 34.8281 46.943 34.8921 46.6014 35.0881C45.5951 35.6721 44.172 36.921 43.3984 37.9186C43.2192 38.1522 43.0384 38.4154 42.8984 38.5946C42.8073 38.7042 42.7393 38.8074 42.7473 38.8354C42.7776 38.9498 43.8336 38.9386 44.2344 38.9098ZM41.6257 40.8259C41.5209 40.9355 41.4097 41.2075 41.2929 41.4035C41.2314 41.5075 41.1162 41.6419 41.041 41.6947C40.7746 41.8907 40.5498 41.8995 40.2906 41.6731C39.9306 41.3563 39.7226 40.8611 39.7074 40.3811C39.6994 40.1707 39.7338 39.9411 39.6962 39.7618C39.6299 39.4642 39.3307 39.1586 39.1707 38.873C38.9819 38.5346 38.8291 37.9498 38.8107 37.5722C38.7443 36.393 39.3667 35.3081 40.1746 34.4505C40.9874 33.5841 42.0505 32.8641 43.208 32.3753C44.3007 31.9128 45.9038 31.5992 47.1046 32.0161C47.4941 32.1505 48.0397 32.4833 48.3133 32.8297C48.3709 32.9033 48.4189 32.9833 48.4789 33.0209C48.5309 33.0545 48.6709 33.0681 48.782 33.0881C49.166 33.1545 49.718 33.4441 49.9428 33.6369C50.3931 34.0281 50.6427 34.4017 50.7571 34.9433C50.9875 36.0322 50.3603 37.2282 49.646 37.9546C48.4213 39.2082 47.2126 40.0875 45.6463 40.7019C44.9599 40.9707 43.8888 41.2211 43.108 41.1507C42.8664 41.1307 42.6161 41.0675 42.3809 41.0499C42.2617 41.0395 41.8209 40.9283 41.7745 40.8931C41.7161 40.8507 41.6417 40.8107 41.6257 40.8259ZM43.0248 43.2419C43.072 43.2507 43.1464 43.2723 43.2096 43.2947C43.7584 43.5043 43.984 44.0132 44.1192 44.57C44.4327 45.866 44.5671 48.7309 44.6183 49.8549C44.6567 50.6949 44.6775 51.5261 44.7127 52.3574C44.7423 53.0622 44.7983 53.9998 44.6527 54.6614C44.5991 54.899 44.4407 55.1726 44.2128 55.3158C43.9512 55.4822 43.3584 55.495 43.0328 55.4278C42.2289 55.2614 41.9673 54.7446 41.8537 53.9502C41.5809 52.0534 41.7113 48.3309 41.8729 46.7596C41.9249 46.2436 42.1217 44.5812 42.3929 43.8851C42.4841 43.6483 42.6817 43.1747 43.0248 43.2419ZM18.2649 46.0884C18.2649 46.0884 17.0745 46.1724 16.257 46.2636C15.2147 46.3748 13.2572 46.7132 12.1293 47.1188C11.7893 47.2372 11.1005 47.526 11.0405 47.8732C10.9797 48.2365 11.2021 48.5173 11.4525 48.8109C11.5965 48.9797 12.4124 49.7645 12.6404 49.9557C13.5996 50.7549 15.5434 51.991 16.9777 52.591C17.4673 52.795 18.2817 53.0862 18.2817 53.0862C18.2817 53.0862 18.2209 50.7685 18.2329 48.4861C18.2377 47.2796 18.2649 46.0884 18.2649 46.0884ZM40.0722 47.0108C40.141 47.6332 39.9794 48.8109 39.953 48.9661C39.9018 49.3237 39.6315 50.1485 39.5883 50.2501C39.3699 50.7501 39.1563 51.1637 38.9275 51.5725C38.5371 52.275 37.6108 53.3878 37.0588 53.8638C35.0126 55.6334 31.8432 56.6415 29.1233 56.9735C27.2795 57.1967 25.1596 57.1623 23.2037 56.8015C22.5318 56.6775 21.5319 56.4487 21.5319 56.4487C21.5319 56.4487 21.5343 56.8487 21.5015 57.1311C21.4863 57.2575 21.3887 57.5967 21.3351 57.7063C21.1919 57.9999 20.9591 58.1511 20.6207 58.2151C20.2111 58.2935 19.7768 58.3167 19.3976 58.1567C18.7768 57.8935 18.5528 57.3111 18.4457 56.6439C18.3577 56.1063 18.2657 55.1726 18.2657 55.1726C18.2657 55.1726 17.8017 54.9534 17.4137 54.7598C16.2234 54.1726 15.0915 53.4638 14.1035 52.731C13.83 52.5286 12.6524 51.5413 12.3917 51.2949C11.6629 50.6061 11.0077 49.9165 10.5086 49.0333C10.1206 48.3437 10.0094 47.73 10.3038 46.9996C10.7118 45.9812 12.1717 45.2124 13.1716 44.7748C13.9067 44.4508 16.1874 43.7059 17.1361 43.5683C17.5833 43.5043 18.2777 43.3811 18.3201 43.3523C18.3377 43.3395 18.3505 43.3283 18.3625 43.3131C18.3841 43.2819 18.4209 42.2723 18.4137 41.9043C18.4057 41.5411 18.6824 39.1594 18.7712 38.6562C18.8192 38.3818 19.0256 37.333 19.2368 37.0586C19.3736 36.873 19.6176 36.8858 19.816 37.0098C20.9031 37.6842 21.2327 40.0299 21.3135 41.2235C21.3623 41.9499 21.3863 43.0435 21.3863 43.0435C21.3863 43.0435 22.6334 43.0075 23.4013 43.0275C24.1461 43.0459 24.9676 43.1643 25.742 43.2875C26.7331 43.4443 28.6642 43.8659 29.7713 44.4284C30.684 44.89 31.5368 45.67 31.8128 46.4948C32.0704 47.2508 32.0312 47.7724 31.64 48.4549C31.2008 49.2261 30.3681 49.7973 29.5241 49.8445C29.2721 49.8613 28.3274 49.7349 28.037 49.5101C27.9218 49.4189 27.9282 49.2573 28.0114 49.1477C28.0426 49.1077 28.4834 48.8765 28.745 48.7373C28.8754 48.6661 28.9841 48.5901 29.0849 48.4973C29.3025 48.3045 29.4969 48.0949 29.4753 47.85C29.4449 47.53 29.1081 47.3324 28.785 47.206C27.2731 46.606 24.2541 46.106 22.7934 46.0196C22.2222 45.986 21.4111 45.9572 21.4111 45.9572L21.5822 54.015C21.5822 54.015 22.2542 54.1438 22.783 54.2302C23.0877 54.275 24.3741 54.391 24.7156 54.3998C27.3195 54.4686 30.2257 54.2366 32.6151 53.1062C33.6638 52.6126 34.6262 51.999 35.3541 51.1677C36.3157 50.0645 36.8188 48.5589 36.6852 46.986C36.5389 45.2644 35.3285 43.2259 34.3638 41.9835C31.8112 38.6994 27.4363 36.001 23.5885 34.4185C19.6584 32.8033 15.7754 31.872 11.6037 31.7168C10.5294 31.6784 8.18393 31.7328 7.0008 32.0609C6.82962 32.1081 6.66003 32.1657 6.50244 32.1993C6.37764 32.2297 6.18406 32.3121 6.12966 32.3545C6.10086 32.3809 6.06966 32.4121 6.06966 32.4121C6.06966 32.4121 6.14326 32.4521 6.21285 32.4833C6.33845 32.5385 6.86721 32.5697 7.1408 32.6193C7.38398 32.6657 7.64076 32.7961 7.73995 32.9761C7.83595 33.1457 7.84955 33.2793 7.73356 33.4209C7.46477 33.7497 6.45364 33.6921 6.00967 33.6233C5.5473 33.5481 4.97214 33.4081 4.86575 33.0049C4.74416 32.5305 4.96734 32.0657 5.21132 31.6352C5.70089 30.7752 6.40004 30.3272 7.42718 30.048C8.88308 29.648 10.7222 29.3672 12.0981 29.3144C15.2123 29.1984 18.1585 29.7408 21.1743 30.6584C22.9006 31.1792 25.1628 32.0553 26.8163 32.8529C28.0018 33.4241 29.8737 34.4785 30.9248 35.1673C31.256 35.3857 33.1959 36.8106 33.4967 37.061C34.1254 37.5746 34.9486 38.313 35.5421 38.9042C36.694 40.0459 38.1268 41.7947 38.8243 43.1819C38.9899 43.5163 39.1211 43.8435 39.3355 44.2284C39.4099 44.3596 39.729 45.15 39.7818 45.3788C39.8338 45.6044 39.9106 45.9364 39.9218 45.9484C39.9378 46.0708 40.0834 46.7476 40.0722 47.0108ZM53.4873 47.5964C53.5457 47.602 53.5601 47.6044 53.6137 47.6124C54.5673 47.742 55.5016 47.9132 56.216 48.2333C56.8791 48.5277 57.2695 48.8973 57.6239 49.5589C58.1638 50.5613 58.1998 51.9638 57.7119 53.0262C57.3463 53.8158 56.5463 54.479 55.8168 54.831C55.056 55.199 54.3113 55.3734 53.4538 55.471C51.9578 55.635 50.3371 55.3262 48.9884 54.6734C48.1909 54.2838 47.2166 53.6134 46.7246 52.7486C46.363 52.1134 46.3742 51.2901 46.815 50.6885C47.5149 49.7301 49.0148 49.5189 50.1468 49.5589C51.0091 49.5909 52.5594 49.8589 53.3794 50.1485C53.6073 50.2309 54.4433 50.5573 54.5889 50.7045C54.6913 50.8101 54.7593 50.9597 54.7129 51.1013C54.5241 51.6733 53.1362 51.9749 52.7354 52.035C51.6595 52.199 51.1027 51.7933 49.8812 51.3109C49.578 51.1925 49.174 51.0613 48.8637 51.0325C48.3101 50.9797 47.6405 51.1325 47.5357 51.7397C47.4813 52.0526 47.8477 52.3438 48.1269 52.4646C48.7821 52.7486 49.3148 52.8486 49.9612 52.859C51.8642 52.8878 54.0041 52.575 55.5632 51.4709C55.7784 51.3197 55.9864 51.0957 55.9896 50.8149C55.9896 50.7789 55.9384 50.4765 55.8408 50.4453C55.8264 50.4389 55.8112 50.4461 55.8 50.4437C55.764 50.4333 55.704 50.3349 55.6536 50.2701C55.5416 50.1333 55.0896 49.9389 55.0008 49.9013C53.9513 49.4637 52.0122 49.2509 51.0115 49.1685C49.9636 49.0789 48.3149 48.9397 47.9181 48.8821C47.5109 48.8245 47.0678 48.7437 46.7134 48.5845C46.3606 48.4245 46.0134 48.0661 45.9094 47.67C45.7271 46.9548 45.9614 46.0764 46.3582 45.5036C47.3997 44.0059 49.8364 43.4387 51.6595 43.2131C53.4233 42.9931 56.2744 42.9955 58.0062 43.9163C58.2742 44.0588 58.4118 44.1924 58.3542 44.4788C58.2422 45.0156 57.8359 45.3612 57.3487 45.5132C56.8367 45.6764 55.7752 45.7396 55.3096 45.7684C53.221 45.886 50.6971 45.8244 48.7093 46.3676C48.5533 46.4124 48.2845 46.482 48.1957 46.5812C47.8845 46.9188 48.7741 47.0148 48.9652 47.0564C49.0212 47.0676 49.0332 47.07 49.0916 47.0756L53.4873 47.5964ZM60.0029 55.4086C59.1598 55.099 58.9686 53.7374 58.9294 53.0486C58.7958 50.8061 59.3886 47.686 60.1413 45.5844C60.3565 44.986 60.6661 44.0084 61.3356 44.0636C61.7964 44.1044 62.1252 44.4596 62.3835 44.8244C63.0443 45.7564 63.9131 47.0196 64.489 47.8988C65.133 48.8845 65.7513 49.8773 66.3593 50.7757C66.4337 50.8845 66.5041 50.9901 66.5857 51.0573C66.6961 51.1461 66.7953 51.1509 66.8401 51.0685C66.8609 51.0365 66.8209 49.9037 66.7929 49.6765C66.7457 49.3149 66.7241 49.0221 66.6833 48.7101C66.5713 47.8036 66.2825 46.5284 66.0561 45.666C65.8065 44.7012 65.5018 43.6955 65.2738 42.7619C65.201 42.4587 65.133 42.1523 65.1354 41.8635C65.1378 41.4459 65.4058 41.2147 65.8409 41.3707C66.6985 41.6731 67.8352 43.5347 68.1664 44.1812C68.2792 44.3996 68.7255 45.51 68.8255 45.8212C69.1815 46.8876 69.3967 47.8988 69.4951 49.0613C69.5895 50.1909 69.5103 51.8365 69.0327 52.9502C68.8575 53.3598 68.4975 53.911 68.1984 54.1886C67.7288 54.6238 66.7929 54.9638 66.1481 54.5958C65.4426 54.1958 64.2834 52.1878 64.0858 51.8445C63.4131 50.6701 62.2556 48.3733 62.0764 48.1157C62.0372 48.0589 61.986 48.0045 61.8964 47.9773C61.8284 47.9573 61.8012 48.0989 61.7836 48.1909C61.6684 48.8597 61.5892 51.9878 61.5876 52.075C61.5684 52.6014 61.5428 53.8926 61.3908 54.5286C61.2916 54.9438 61.1908 55.2846 60.8093 55.459C60.5381 55.5814 60.3317 55.5302 60.0029 55.4086ZM71.6261 55.2086C71.535 55.139 71.3878 54.9886 71.2806 54.8678C71.2638 54.851 70.9606 54.3966 70.9006 54.2566C70.8478 54.1358 70.8078 54.0486 70.7694 53.9478C70.4934 53.235 70.5006 52.5334 70.6534 51.7677C70.795 51.0533 70.9294 51.0221 71.2958 50.0413C71.319 49.9877 71.3302 49.9413 71.3382 49.8821C71.3534 49.7477 71.1358 48.8437 71.123 48.5533C71.1078 48.1101 71.4518 47.7956 72.0277 47.7348C72.0805 47.73 72.1197 47.7308 72.1581 47.7196C72.3877 47.6636 72.5349 47.2236 72.6605 46.8708C72.8357 46.3748 73.1093 45.6188 73.1093 45.6188C73.1093 45.6188 72.3813 45.4508 71.9917 45.3036C71.5566 45.1396 71.2278 44.9276 71.031 44.5284C70.795 44.0612 70.9502 43.8019 71.4382 43.6507C71.6173 43.5931 73.0301 43.3219 73.4764 43.2587C74.0332 43.1771 74.5572 43.1075 75.0867 43.0419C75.5475 42.9859 77.661 42.7411 78.3337 42.7587C79.3592 42.7883 80.0248 43.2107 80.624 44.0788C80.9463 44.542 81.1663 45.0924 80.68 45.3908C79.9328 45.8444 77.5122 45.8788 77.0682 45.8836C76.3618 45.8908 75.3851 45.8788 75.3851 45.8788L74.8923 47.526C74.8923 47.526 76.6266 47.5076 77.601 47.5036C77.8377 47.5036 78.0745 47.5164 78.2073 47.5444C78.7049 47.6548 78.8769 48.0373 78.8969 48.5885C78.9241 49.2333 78.8025 49.5301 78.2889 49.6165C78.0233 49.6589 75.0443 49.6765 74.6404 49.7237C74.3884 49.7509 74.122 49.7909 74.122 49.7909C74.122 49.7909 73.9068 50.3525 73.7196 50.9197C73.5308 51.5109 73.3692 52.1134 73.3692 52.1134C73.3692 52.1134 73.5204 52.1198 73.646 52.1198C73.8556 52.1214 74.0684 52.091 74.2348 52.0622C75.1435 51.8957 76.4946 51.6957 77.6034 51.5213C78.1993 51.4261 78.4993 51.3837 78.8129 51.7789C79.0841 52.1286 79.2249 52.4214 79.2441 52.8438C79.2609 53.2414 78.9577 53.5046 78.5873 53.7878C77.4154 54.6838 75.4123 55.655 73.9196 55.8214C73.23 55.899 73.0621 55.8222 72.4581 55.6646C72.3429 55.635 71.9253 55.4398 71.9293 55.419C71.9293 55.419 71.7029 55.2686 71.6261 55.2086ZM90.4601 46.93C89.6922 47.5732 88.7002 48.8845 88.2267 49.5653C87.5939 50.4677 86.9987 51.5013 86.4292 52.3022C86.3068 52.4822 85.9396 53.1262 85.9524 53.1478C85.978 53.1934 86.3476 53.179 86.7276 53.115C87.5363 52.979 88.6362 52.411 89.2234 51.9422C90.1185 51.2245 90.7417 50.2389 91.0361 49.0861C91.1665 48.5621 91.2329 47.4636 90.8617 46.9748C90.7889 46.8812 90.6033 46.8076 90.4601 46.93ZM84.3613 56.3479C84.3613 56.3479 84.1181 57.0615 83.9397 57.6215C83.6318 58.5879 82.9542 61.1904 82.7974 61.9992C82.5614 63.1992 81.8895 66.3441 81.8551 66.4113C81.8079 66.5025 81.7767 66.5313 81.6631 66.6041C81.3863 66.7665 81.2751 66.7129 80.9399 66.5337C80.5048 66.3049 80.1224 66.0713 79.796 65.6401C79.14 64.7881 79.2968 63.1848 79.4248 62.244C79.8752 58.9535 80.3304 57.5063 81.5823 54.231C81.6031 54.175 81.6031 54.1622 81.5775 54.1126C81.1871 53.2814 80.9767 52.2774 80.9767 51.4661C80.9799 48.8989 82.455 46.3588 84.1093 44.3188C84.2341 44.1636 85.0461 43.1907 85.4148 43.2099C85.7844 43.2275 85.8444 43.6587 85.7892 44.0188C85.6036 45.2044 84.7693 46.4124 84.1989 47.4124C83.5574 48.5301 83.4182 48.9901 83.1046 50.0149C83.0542 50.1749 82.9286 50.9237 82.9342 51.0197C82.947 51.2949 83.007 51.6421 83.007 51.6421C83.007 51.6421 84.0501 50.1813 84.7389 49.2797C85.1148 48.7845 85.3852 48.4573 85.6988 48.1045C86.0164 47.746 87.2395 46.4748 87.5915 46.1396C88.3314 45.4332 88.6594 45.1396 89.4594 44.7244C90.0937 44.3964 90.6633 44.3148 91.2816 44.7236C92.2624 45.3676 92.6896 46.73 92.7999 47.8348C92.9287 49.1549 92.6592 50.6397 92.0768 51.7701C91.3864 53.119 90.4433 54.0902 89.161 54.9398C87.8499 55.8086 86.3116 56.3999 84.8029 56.3647C84.5989 56.3599 84.3613 56.3479 84.3613 56.3479Z" fill="black"/>
</svg>
