<svg width="97" height="96" viewBox="0 0 97 96" fill="none" xmlns="http://www.w3.org/2000/svg">
<path d="M72.7782 58.8013H72.0331L72.0262 58.3638H72.7201C72.8158 58.3615 72.9047 58.3444 72.9867 58.3125C73.071 58.2806 73.1382 58.235 73.1884 58.1758C73.2408 58.1143 73.267 58.0391 73.267 57.9502C73.267 57.8363 73.2476 57.7463 73.2089 57.6802C73.1701 57.6141 73.1052 57.5662 73.014 57.5366C72.9252 57.507 72.8033 57.4922 72.6483 57.4922H72.1835V59.9565H71.7015V57.0581H72.6483C72.8739 57.0581 73.0687 57.09 73.2328 57.1538C73.3969 57.2176 73.5233 57.3145 73.6122 57.4443C73.701 57.5719 73.7455 57.7337 73.7455 57.9297C73.7455 58.0527 73.717 58.1632 73.66 58.2612C73.6031 58.3592 73.5199 58.4435 73.4105 58.5142C73.3011 58.5848 73.1678 58.6418 73.0106 58.6851C73.0038 58.6851 72.9958 58.693 72.9867 58.709C72.9799 58.7227 72.973 58.7295 72.9662 58.7295C72.9274 58.7523 72.9024 58.7694 72.891 58.7808C72.8819 58.7899 72.8716 58.7956 72.8602 58.7979C72.8511 58.8001 72.8238 58.8013 72.7782 58.8013ZM72.744 58.8013L72.8124 58.4937C73.1656 58.4937 73.406 58.5688 73.5336 58.7192C73.6635 58.8674 73.7284 59.0553 73.7284 59.2832V59.4678C73.7284 59.5521 73.733 59.633 73.7421 59.7104C73.7512 59.7856 73.766 59.8494 73.7865 59.9019V59.9565H73.2909C73.2681 59.8973 73.2544 59.813 73.2499 59.7036C73.2476 59.5942 73.2465 59.5145 73.2465 59.4644V59.2866C73.2465 59.1203 73.2077 58.9984 73.1302 58.9209C73.0551 58.8411 72.9263 58.8013 72.744 58.8013ZM70.6556 58.5483C70.6556 58.8514 70.708 59.134 70.8129 59.396C70.9177 59.658 71.0635 59.887 71.2504 60.083C71.4372 60.279 71.6537 60.4316 71.8998 60.541C72.1459 60.6504 72.4091 60.7051 72.6893 60.7051C72.9696 60.7051 73.2316 60.6504 73.4755 60.541C73.7216 60.4316 73.9369 60.279 74.1215 60.083C74.3083 59.887 74.4541 59.658 74.559 59.396C74.6638 59.134 74.7162 58.8514 74.7162 58.5483C74.7162 58.243 74.6638 57.9604 74.559 57.7007C74.4541 57.4409 74.3083 57.2142 74.1215 57.0205C73.9369 56.8245 73.7216 56.673 73.4755 56.5659C73.2316 56.4565 72.9696 56.4019 72.6893 56.4019C72.4091 56.4019 72.1459 56.4565 71.8998 56.5659C71.6537 56.673 71.4372 56.8245 71.2504 57.0205C71.0635 57.2142 70.9177 57.4409 70.8129 57.7007C70.708 57.9604 70.6556 58.243 70.6556 58.5483ZM70.2626 58.5483C70.2626 58.186 70.3252 57.8499 70.4506 57.54C70.5759 57.2301 70.7502 56.9601 70.9735 56.73C71.1968 56.4976 71.4543 56.3175 71.746 56.1899C72.0399 56.0601 72.3544 55.9951 72.6893 55.9951C73.0243 55.9951 73.3376 56.0601 73.6293 56.1899C73.9232 56.3175 74.1807 56.4976 74.4017 56.73C74.625 56.9601 74.7994 57.2301 74.9247 57.54C75.05 57.8499 75.1127 58.186 75.1127 58.5483C75.1127 58.9106 75.05 59.2467 74.9247 59.5566C74.7994 59.8665 74.625 60.1388 74.4017 60.3735C74.1807 60.606 73.9232 60.7871 73.6293 60.917C73.3376 61.0469 73.0243 61.1118 72.6893 61.1118C72.3544 61.1118 72.0399 61.0469 71.746 60.917C71.4543 60.7871 71.1968 60.606 70.9735 60.3735C70.7502 60.1388 70.5759 59.8665 70.4506 59.5566C70.3252 59.2467 70.2626 58.9106 70.2626 58.5483Z" fill="#EB192E"/>
<path d="M4.83154 48L48.8315 33.04L92.8315 48L48.8315 62.96" fill="#EB192E"/>
<path d="M27.5867 52.9366H27.5524C27.5524 53.1698 26.9901 53.3546 26.2958 53.3616V54.0164C26.2958 54.0164 33.2539 54.0164 35.3492 54.0164C37.2984 54.0164 40.3151 51.6184 40.3151 48.0614C40.3151 44.7728 37.6451 41.919 35.3492 41.919C33.2715 41.919 26.2958 41.919 26.2958 41.919V42.506C26.2984 42.506 26.3011 42.506 26.3072 42.506C26.9769 42.506 27.5102 42.6776 27.5779 42.8923H27.5867V42.909C27.5894 42.9187 27.5999 42.9248 27.5999 42.9363C27.5999 42.9407 27.5894 42.946 27.5867 42.9565V52.9366V52.9366ZM30.3579 44.4719C30.3579 44.4719 33.0181 44.4719 35.0949 44.4719C36.0242 44.4719 37.7446 45.7153 37.7481 48.0112C37.7516 50.2227 36.2706 51.3561 35.0949 51.3561C33.0031 51.3561 30.3579 51.3561 30.3579 51.3561V44.4719ZM55.0163 49.0496C55.0163 46.048 52.4863 43.6139 48.6293 43.6139C44.7494 43.6139 42.2405 46.0568 42.2405 49.0496C42.2405 52.1376 44.4203 54.1721 47.8109 54.4528H49.4486C52.8392 54.1721 55.0163 52.1376 55.0163 49.0496ZM45.0424 49.1948C45.0424 47.5088 46.4601 46.1492 48.639 46.1492C50.8196 46.1492 52.2347 47.5088 52.2347 49.1948C52.2347 50.8774 50.8196 52.2405 48.639 52.2405C46.461 52.2405 45.0424 50.8774 45.0424 49.1948ZM69.7053 53.0501C69.7053 53.0501 73.1496 45.344 73.1567 45.336C73.2623 45.1908 73.4418 45.0606 73.7111 45.0043C73.7999 44.9876 74.1959 44.9893 74.1959 44.9893V44.2378L69.3674 44.2572V44.9867C69.3911 44.9867 69.5064 44.9867 69.524 44.9884C70.118 44.999 70.1963 45.175 70.1963 45.3906L68.3131 50.3283L66.18 44.5643L64.5863 44.5731H62.9135L60.9396 50.1012L59.3354 45.3695H59.3591C59.3591 44.999 59.5967 44.9682 59.9619 44.9682V44.2607H55.2575V44.9682C56.0019 44.9682 55.9535 45.1372 56.0803 45.3695C56.0838 45.373 56.0741 45.3792 56.0741 45.3827L58.9403 52.794C58.9684 52.8653 58.9684 52.9392 58.9684 53.022C58.9684 53.432 58.6138 53.5033 58.1931 53.5139V54.2073L63.3341 54.2267V53.5394C63.3315 53.5394 63.3315 53.5394 63.3315 53.5394C62.7894 53.5394 62.5861 53.4382 62.5861 53.0484C62.5861 52.9868 62.5967 52.9313 62.6424 52.8812L64.5863 48.6448C64.5863 48.6448 66.2478 52.89 66.2478 53.0378C66.2478 53.4083 66.1202 53.5394 65.6582 53.5394V54.2267L70.4243 54.1906V53.5174C69.7 53.5174 69.6939 53.3634 69.7053 53.0501Z" fill="white"/>
</svg>
