<svg width="96" height="96" viewBox="0 0 96 96" fill="none" xmlns="http://www.w3.org/2000/svg">
<path fill-rule="evenodd" clip-rule="evenodd" d="M10.4163 29.2772C7.2396 29.8818 5.24844 31.7474 4.37447 34.9376C3.69072 37.4334 3.97352 41.5006 4.97676 43.603C6.45401 46.6982 10.1702 47.8474 15.5375 46.8689L16.5896 46.677V42.3185V37.9599H13.8963C11.2147 37.9599 11.2031 37.9616 11.2061 38.3387C11.2083 38.6058 11.4564 38.8792 12.0477 39.2658L12.8864 39.8141V43.0761V46.3382L12.171 46.4437C10.7461 46.6538 9.67279 46.0779 9.08146 44.7862C8.55055 43.6267 8.3531 42.0099 8.3467 38.7716C8.33727 33.9768 8.8766 31.6375 10.2746 30.4101C10.7553 29.9879 11.0283 29.8802 11.6168 29.8802C12.9207 29.8802 13.6551 30.7809 14.5671 33.4992C15.0147 34.8327 15.025 34.8464 15.636 34.898L16.2529 34.9504V32.1837V29.4173L15.7833 29.3233C14.5861 29.084 11.5683 29.058 10.4163 29.2772ZM32.677 30.0736C31.7579 30.1545 30.9664 30.2601 30.9184 30.3082C30.8705 30.3562 30.9597 30.6132 31.1169 30.8792C31.3736 31.314 31.4025 32.0942 31.4025 38.585C31.4025 44.6744 31.3638 45.8583 31.1554 46.1338C30.6284 46.8307 30.7708 46.8814 33.2542 46.8814C34.5503 46.8814 35.6108 46.8201 35.6108 46.7452C35.6108 46.6703 35.4995 46.4621 35.3637 46.2823C35.1546 46.0059 35.1157 44.7187 35.1112 37.9179L35.1058 29.8802L34.727 29.9032C34.5186 29.916 33.5962 29.9926 32.677 30.0736ZM45.6383 30.0736C44.7192 30.1545 43.9252 30.2628 43.874 30.3139C43.8229 30.3649 43.9122 30.6355 44.0725 30.9147C44.2991 31.3093 44.3637 31.8222 44.3632 33.2183L44.3627 35.0142L44.0466 34.4957C43.6072 33.7753 42.9149 33.5322 41.5269 33.6107C40.5958 33.6632 40.2326 33.7694 39.6855 34.1485C38.4365 35.014 37.748 36.4329 37.4503 38.7553C37.1163 41.3585 37.627 44.0472 38.7489 45.5932C40.2171 47.6163 43.1928 47.7823 44.1454 45.8941C44.5406 45.1109 44.6014 45.1604 44.7376 46.3764C44.7842 46.7928 44.8034 46.7977 46.5942 46.845C48.238 46.8884 48.4033 46.8652 48.3984 46.5925C48.3955 46.4274 48.2819 46.1451 48.1459 45.9655C47.9368 45.6889 47.8988 44.4268 47.8988 37.7595C47.8988 30.3587 47.8809 29.8815 47.6042 29.9032C47.4423 29.916 46.5575 29.9926 45.6383 30.0736ZM21.8748 33.9781C19.755 34.9861 18.6159 37.2013 18.6116 40.3233C18.606 44.2479 20.4972 46.9017 23.4926 47.1734C25.0471 47.3143 26.2158 46.8783 27.3527 45.733C28.6416 44.4347 29.0618 43.3384 29.1717 40.9867C29.3005 38.2284 28.7372 36.3046 27.4137 34.981C26.4437 34.0111 25.6469 33.6866 24.0802 33.6238C22.9332 33.5777 22.6062 33.6302 21.8748 33.9781ZM55.886 33.8113C55.6037 33.9392 55.1682 34.2868 54.9181 34.5839L54.4636 35.1241V34.5321C54.4636 34.2064 54.4069 33.9066 54.3374 33.866C54.2247 33.8 53.4732 33.8744 51.1391 34.1828C50.3714 34.2843 50.1714 34.6794 50.6762 35.0984C51.0489 35.4077 51.0539 45.4733 50.6816 45.9655C50.5456 46.1451 50.432 46.4247 50.4291 46.5868C50.4242 46.8531 50.642 46.8814 52.6961 46.8814C55.1016 46.8814 55.2573 46.8225 54.7215 46.114C54.3517 45.6251 54.3486 36.7094 54.7179 35.8255C55.0379 35.0595 55.411 34.7738 56.1004 34.7671C57.101 34.7572 57.1575 35.0803 57.1515 40.771C57.1471 44.915 57.1032 45.8441 56.899 46.114C56.3632 46.8225 56.5189 46.8814 58.9243 46.8814C61.3297 46.8814 61.4854 46.8225 60.9497 46.114C60.7468 45.8458 60.7017 44.9729 60.698 41.2424C60.6956 38.7349 60.7685 36.4278 60.8608 36.0959C61.1003 35.2339 61.6992 34.7247 62.3949 34.7917C63.3448 34.8832 63.3805 35.0984 63.3771 40.7374C63.3748 44.9138 63.3315 45.8438 63.1272 46.114C62.5914 46.8225 62.7471 46.8814 65.1525 46.8814C67.5214 46.8814 67.6119 46.8494 67.2145 46.1549C67.0645 45.893 66.9799 44.3272 66.9199 40.7093L66.8358 35.6315L66.3266 34.9019C65.5937 33.8524 64.9207 33.5538 63.4357 33.6196C62.0963 33.6788 61.54 33.9638 60.9443 34.8955C60.7591 35.185 60.5697 35.4221 60.5234 35.4221C60.4772 35.4221 60.2878 35.185 60.1026 34.8955C59.5044 33.9598 58.9518 33.6782 57.6112 33.6261C56.8451 33.5964 56.2105 33.6645 55.886 33.8113ZM72.054 33.7596C71.6837 33.8458 71.0586 34.0027 70.6653 34.1084L69.9499 34.3005V36.3928V38.4853L70.5717 38.433C71.1903 38.3811 71.1968 38.3725 71.8548 36.7352C72.6152 34.8432 73.2117 34.0884 73.947 34.0884C74.8508 34.0884 75.0767 34.5642 75.1401 36.601L75.1963 38.4059L73.7236 38.9751C70.9733 40.0385 69.4812 41.2868 69.1097 42.8351C68.6921 44.5758 69.302 46.1072 70.6875 46.7977C72.1137 47.5086 73.9393 47.2199 74.7802 46.1508C75.1739 45.6501 75.3364 45.7241 75.3364 46.4045V46.8814H77.3563C78.4673 46.8814 79.3763 46.8201 79.3763 46.7452C79.3763 46.6703 79.265 46.4621 79.1292 46.2823C78.9272 46.0153 78.8802 45.1558 78.8725 41.579C78.8625 36.9426 78.7592 36.0545 78.1167 35.0766C77.4622 34.081 76.4152 33.6738 74.4106 33.6352C73.4848 33.6174 72.4243 33.6733 72.054 33.7596ZM86.5218 33.8202C86.2396 33.9431 85.8041 34.2868 85.554 34.5839L85.0995 35.1241V34.5321C85.0995 34.2064 85.0427 33.9079 84.9732 33.8687C84.8088 33.776 81.2092 34.2192 81.0804 34.3481C81.0261 34.4023 81.1129 34.6753 81.2732 34.9546C81.5324 35.4064 81.5639 36.0311 81.5592 40.6248C81.5548 44.8973 81.5112 45.8436 81.3067 46.114C80.7709 46.8225 80.9266 46.8814 83.332 46.8814C85.7374 46.8814 85.8931 46.8225 85.3573 46.114C85.1545 45.8458 85.1092 44.9717 85.1048 41.2412C85.1018 38.741 85.1734 36.4374 85.2638 36.1223C85.6248 34.8634 86.8432 34.3284 87.5562 35.1157C87.854 35.4444 87.8806 35.8308 87.9282 40.5175C87.9725 44.8599 87.943 45.6213 87.7178 45.965C87.1502 46.8314 87.26 46.8814 89.7285 46.8814C92.138 46.8814 92.2674 46.8317 91.7581 46.1044C91.5626 45.8256 91.5049 44.786 91.4635 40.8067C91.4121 35.8819 91.4096 35.852 90.9905 35.1034C90.3975 34.0443 89.5329 33.5878 88.1294 33.5928C87.5276 33.5948 86.8043 33.6972 86.5218 33.8202ZM24.6239 34.4671C25.1818 35.0709 25.3506 36.0016 25.4562 39.0541C25.5703 42.3484 25.3308 45.1516 24.8677 45.9446C24.6122 46.3821 24.4655 46.4606 23.9025 46.4606C23.3058 46.4606 23.2083 46.3984 22.9383 45.8465C22.5079 44.966 22.2572 41.7346 22.3921 38.8016C22.5319 35.755 22.7104 34.8706 23.2749 34.4266C23.8318 33.9884 24.1917 33.9993 24.6239 34.4671ZM43.7281 35.0359C44.2008 35.8486 44.4162 38.2074 44.3103 41.4107C44.2077 44.5174 44.0449 45.3641 43.4318 45.9771C42.6745 46.7344 41.8697 46.3316 41.4733 44.9966C41.2281 44.1711 41.1606 37.3868 41.3846 36.078C41.5802 34.9347 42.0588 34.3939 42.8179 34.458C43.2894 34.4981 43.4887 34.6245 43.7281 35.0359ZM74.9309 44.9348C74.5123 45.9369 73.4247 45.9882 72.9264 45.0293C72.6795 44.5542 72.6344 44.1639 72.6926 43.0068C72.7924 41.022 73.2836 40.0898 74.5789 39.4269L75.0839 39.1685L75.1302 41.7576C75.1655 43.7309 75.1181 44.4867 74.9309 44.9348ZM9.76908 48.9683C8.31489 49.3023 7.634 49.623 6.8181 50.3579C4.75204 52.2191 4.95538 55.6131 7.24734 57.5211C7.52509 57.7524 8.6741 58.4469 9.80073 59.0647C10.9425 59.6909 12.0745 60.4448 12.3585 60.7682C14.2731 62.9487 12.682 66.6105 10.06 66.0588C8.96076 65.8275 8.36353 64.8794 7.25744 61.6102L6.57403 59.5902H5.98488H5.39573L5.35028 62.9797L5.30466 66.3693L5.68693 66.4651C5.89701 66.5178 6.95647 66.6509 8.04101 66.7609C12.1519 67.1775 14.8748 66.1372 15.9757 63.7292C16.5026 62.5769 16.478 60.074 15.9286 58.949C15.3295 57.7226 14.3247 56.8414 12.0887 55.582C9.78053 54.282 8.9441 53.5585 8.66248 52.6187C7.82488 49.8231 11.5017 48.147 12.971 50.6546C13.1966 51.0393 13.6193 52.09 13.9103 52.9894L14.4397 54.6245H15.0938H15.748V51.8668V49.1089L15.285 49.0097C14.1502 48.7667 10.7575 48.7412 9.76908 48.9683ZM41.95 49.7536C41.1316 49.8261 40.4223 49.9251 40.3738 49.9737C40.3253 50.0222 40.4457 50.321 40.6414 50.6376C40.9889 51.2 40.9973 51.3795 40.9961 58.2634C40.9951 64.9528 40.9784 65.3386 40.669 65.8079C40.4898 66.0798 40.3812 66.3639 40.4277 66.4392C40.4741 66.5143 41.5302 66.5759 42.7747 66.5759C45.1697 66.5759 45.3255 66.5164 44.7901 65.8085C44.4329 65.3363 44.4157 56.239 44.7704 55.3901C45.1766 54.4181 46.4474 54.0936 46.9634 54.8304C47.3411 55.3697 47.3556 65.1627 46.9797 65.8896C46.8445 66.151 46.7814 66.4122 46.8395 66.4703C46.8974 66.5284 47.9548 66.5759 49.1894 66.5759C51.5673 66.5759 51.6991 66.5249 51.1928 65.8019C51.0004 65.527 50.9412 64.463 50.8982 60.5042C50.8467 55.7577 50.8289 55.521 50.4697 54.8491C50.2635 54.4634 49.8839 53.9978 49.6263 53.8145C48.2235 52.8155 46.0717 53.0124 44.93 54.2446L44.5322 54.6737V52.1242V49.5746L43.9851 49.598C43.6842 49.611 42.7684 49.681 41.95 49.7536ZM21.7302 53.2875C21.1782 53.373 20.3262 53.5595 19.8365 53.7017L18.9462 53.9606V56.06V58.1594H19.5396C20.0245 58.1594 20.1634 58.079 20.3002 57.7191C21.471 54.64 22.035 53.7829 22.8908 53.7829C23.8569 53.7829 24.0718 54.2214 24.1371 56.325C24.1753 57.5536 24.1346 58.1594 24.0137 58.1594C23.6156 58.1594 20.6721 59.5367 19.8289 60.1174C16.4942 62.4141 17.9541 67.3951 21.7958 66.8282C22.6637 66.7001 23.5774 66.2018 23.8383 65.7145C24.0725 65.2769 24.3327 65.4698 24.3327 66.0808V66.5759H26.3527C28.482 66.5759 28.632 66.5122 28.1147 65.8283C27.9126 65.561 27.8676 64.7276 27.8676 61.2496C27.8676 56.7697 27.7444 55.6708 27.1396 54.757C26.3431 53.5534 24.0437 52.9288 21.7302 53.2875ZM34.0936 53.3312C31.7123 53.861 30.3052 55.6697 29.8765 58.7518C29.6821 60.1497 29.8682 62.1364 30.3188 63.4725C31.0556 65.6568 32.6733 66.8287 34.9364 66.8179C35.7772 66.8139 36.3746 66.7188 36.7221 66.5341C37.8214 65.9493 39.1038 63.9279 38.6478 63.4983C38.5136 63.3719 38.405 63.3579 38.3643 63.4618C37.6156 65.3696 35.8671 66.2974 34.7205 65.3954C33.8792 64.7337 33.6745 63.6582 33.6794 59.9269C33.6831 57.172 33.7393 56.3768 33.9884 55.5503C34.3355 54.3996 34.8215 53.7829 35.381 53.7829C36.0043 53.7829 36.3947 54.3851 37.0028 56.2854L37.5758 58.0753L38.1973 58.1278L38.8189 58.1803L38.7718 55.9467L38.7248 53.713L38.0433 53.5159C36.9247 53.1925 35.1009 53.1072 34.0936 53.3312ZM56.8202 53.2747C54.5545 53.6911 53.2967 54.9519 53.29 56.8128C53.2829 58.7407 53.9906 59.6299 56.7019 61.1001C58.6745 62.1695 59.2704 62.724 59.4445 63.6513C59.7096 65.0646 58.8122 66.2372 57.4644 66.2385C56.3337 66.2397 55.513 65.2336 54.7186 62.8726C54.3779 61.8601 54.3106 61.7746 53.8179 61.7258L53.2853 61.6729V64.0223C53.2853 65.9207 53.3323 66.3895 53.5297 66.4653C53.6642 66.5169 54.5791 66.6498 55.563 66.7604C58.7223 67.1159 60.7438 66.4447 61.6955 64.7242C62.0394 64.1026 62.1138 63.7402 62.1098 62.7043C62.1015 60.5914 61.4065 59.67 58.6718 58.1468C56.576 56.9796 55.9786 56.3916 55.9786 55.4968C55.9786 54.585 56.1026 54.3193 56.664 54.0291C57.9517 53.3632 59.0193 54.0559 59.7813 56.0521C60.2481 57.2743 60.2837 57.3178 60.8204 57.3178H61.3762L61.3286 55.4306L61.2809 53.5437L60.7015 53.4253C59.6592 53.2127 57.5935 53.1324 56.8202 53.2747ZM24.1334 61.6812C24.0819 64.4435 24.0676 64.5431 23.6646 64.9715C23.06 65.6145 22.3268 65.5098 21.9344 64.7242C21.5666 63.9883 21.5442 62.2448 21.8874 61.089C22.1769 60.1137 23.3781 58.8629 24.0493 58.8378C24.1248 58.8351 24.1627 60.1146 24.1334 61.6812Z" fill="black"/>
</svg>
