<svg width="96" height="96" viewBox="0 0 96 96" fill="none" xmlns="http://www.w3.org/2000/svg">
<path d="M10 32.8V34.8799H24.7932V32.8H10ZM26.8892 32.8V34.8799H47.9703C47.9703 34.8799 45.817 32.8 42.965 32.8H26.8892ZM52.1057 32.8V34.8799H64.8595L64.1025 32.8H52.1057ZM74.0032 32.8L73.2462 34.8799H85.8842V32.8H74.0032ZM10 36.8449V38.9248H24.7932V36.8449H10ZM26.8892 36.8478V38.9248H50.4165C50.4165 38.9248 50.1418 37.324 49.6624 36.8478H26.8892ZM52.1057 36.8478V38.9248H66.2578L65.5571 36.8478H52.1057ZM72.4892 36.8478L71.7885 38.9248H85.8842V36.8478H72.4892V36.8478ZM14.2512 40.8897V42.9726H20.6578V40.8897H14.2512V40.8897ZM31.1405 40.8897V42.9726H37.547V40.8897H31.1405V40.8897ZM43.7784 40.8897V42.9726H50.185C50.185 42.9726 50.5917 41.8726 50.5917 40.8897H43.7784V40.8897ZM56.357 40.8897V42.9726H67.7155L66.9584 40.8897H56.357V40.8897ZM71.0939 40.8897L70.3339 42.9726H81.7487V40.8897H71.0939V40.8897ZM14.2512 44.9376V47.0175H20.6578V44.9376H14.2512V44.9376ZM31.1405 44.9376V47.0175H47.5042C47.5042 47.0175 48.8731 45.9503 49.3092 44.9376H31.1405ZM56.357 44.9376V47.0175H62.7636V45.8598L63.1704 47.0175H74.9058L75.3422 45.8598V47.0175H81.7488V44.9376H69.7223L69.0841 46.6993L68.4428 44.9376H56.357ZM14.2512 48.9825V51.0624H20.6578V48.9825H14.2512ZM31.1405 48.9825V51.0624H49.3092C48.873 50.0531 47.5042 48.9825 47.5042 48.9825H31.1405ZM56.357 48.9825V51.0624H62.7636V48.9825H56.357ZM63.9273 48.9825L64.7021 51.0624H73.5015L74.2378 48.9825H63.9273ZM75.3421 48.9825V51.0624H81.7487V48.9825H75.3421ZM14.2512 53.0274V55.1072H20.6578V53.0274H14.2512ZM31.1405 53.0274V55.1072H37.547V53.0274H31.1405ZM43.7784 53.0274V55.1072H50.5917C50.5917 54.1257 50.1849 53.0274 50.1849 53.0274H43.7784V53.0274ZM56.357 53.0274V55.1072H62.7636V53.0274H56.357ZM65.382 53.0274L66.1331 55.1072H72.032L72.7891 53.0274H65.382ZM75.3421 53.0274V55.1072H81.7487V53.0274H75.3421ZM10.1157 57.0723V59.1551H24.909V57.0723H10.1157ZM26.8892 57.0723V59.1551H49.6624C50.1418 58.6782 50.4165 57.0723 50.4165 57.0723H26.8892V57.0723ZM52.2216 57.0723V59.1551H62.7636V57.0723H52.2216ZM66.8396 57.0723L67.6115 59.1551H70.6129L71.3372 57.0723H66.8396ZM75.3421 57.0723V59.1551H86V57.0723H75.3421ZM10.1157 61.1201V63.2H24.909V61.1201H10.1157ZM26.8892 61.1201V63.197H42.965C45.817 63.197 47.9703 61.1201 47.9703 61.1201H26.8892ZM52.2216 61.1201V63.2H62.7636V61.1201H52.2216ZM68.3032 61.1201L69.0455 63.1941L69.1731 63.197L69.9272 61.1201H68.3032V61.1201ZM75.3421 61.1201V63.2H86V61.1201H75.3421Z" fill="#1F70C1"/>
</svg>
