<svg width="96" height="96" viewBox="0 0 96 96" fill="none" xmlns="http://www.w3.org/2000/svg">
<path d="M15.982 32.4172H10V38.3992H15.982V32.4172Z" fill="#00C7FD"/>
<path d="M15.8335 63.5831V42.0393H10.1708V63.5831H15.8335ZM53.4714 63.796V58.5165C52.6411 58.5165 51.9386 58.4739 51.4277 58.3887C50.8316 58.3036 50.3846 58.0907 50.0865 57.7927C49.7885 57.4946 49.5969 57.0689 49.4904 56.5154C49.4053 55.9832 49.3627 55.2806 49.3627 54.4291V46.893H53.4714V42.0393H49.3627V33.6303H43.6787V54.4717C43.6787 56.2386 43.8277 57.7288 44.1258 58.921C44.4238 60.0918 44.9347 61.0498 45.6372 61.7736C46.3398 62.4974 47.2764 63.0083 48.4047 63.3277C49.5543 63.647 51.0019 63.796 52.7263 63.796H53.4714ZM86 63.5831V31.9698H80.316V63.5831H86ZM38.2076 44.1468C36.6322 42.4437 34.4183 41.5922 31.6082 41.5922C30.2457 41.5922 29.011 41.869 27.8827 42.4225C26.7757 42.9759 25.8177 43.7423 25.0727 44.7216L24.7533 45.1261V44.7642V42.0393H19.1545V63.5831H24.7959V52.1087V52.8963C24.7959 52.7686 24.7959 52.6409 24.7959 52.5131C24.8598 50.4908 25.3494 49.0006 26.2861 48.0426C27.2866 47.0207 28.5001 46.5098 29.8838 46.5098C31.523 46.5098 32.779 47.0207 33.6093 48C34.4183 48.9793 34.844 50.363 34.844 52.13V52.1725V63.5618H40.5706V51.3423C40.5919 48.2768 39.7829 45.8499 38.2076 44.1468ZM77.3782 52.7686C77.3782 51.2146 77.1015 49.7669 76.5693 48.4045C76.0158 47.0633 75.2494 45.8712 74.2914 44.8493C73.3122 43.8275 72.1413 43.0398 70.7788 42.465C69.4164 41.8902 67.9049 41.6135 66.2657 41.6135C64.7116 41.6135 63.2427 41.9115 61.8803 42.4863C60.5178 43.0824 59.3257 43.8701 58.3251 44.8706C57.3246 45.8712 56.5156 47.0633 55.9408 48.4258C55.3447 49.7882 55.068 51.2571 55.068 52.8112C55.068 54.3652 55.3447 55.8341 55.8982 57.1966C56.4517 58.5591 57.2394 59.7512 58.2187 60.7518C59.1979 61.7523 60.4114 62.5613 61.8164 63.1361C63.2215 63.7321 64.7755 64.0302 66.436 64.0302C71.2472 64.0302 74.2276 61.8375 76.0158 59.7938L71.9284 56.6857C71.0769 57.7075 69.0332 59.0913 66.4786 59.0913C64.8819 59.0913 63.5621 58.7294 62.5615 57.9843C61.561 57.2605 60.8797 56.2386 60.5178 54.9826L60.454 54.791H77.3782V52.7686ZM60.4965 50.7888C60.4965 49.2134 62.3061 46.4672 66.2018 46.446C70.0976 46.446 71.9284 49.1922 71.9284 50.7675L60.4965 50.7888Z" fill="#0068B5"/>
</svg>
