<svg width="96" height="96" viewBox="0 0 96 96" fill="none" xmlns="http://www.w3.org/2000/svg">
<path fill-rule="evenodd" clip-rule="evenodd" d="M84.648 38.5665C84.3465 38.7855 84.0756 39.0437 83.8423 39.3342L82.1853 40.8772C81.4252 41.5993 80.6651 42.3214 79.9583 43.0966C79.8138 43.2411 77.298 45.5517 77.298 45.5517C76.9176 42.32 76.6665 39.0744 76.5455 35.8226C76.3654 32.3034 76.2564 28.781 76.2186 25.2574C76.1654 21.7914 76.2186 18.3254 76.7811 14.8594C76.9711 13.5064 79.0614 8.93071 75.9298 10.2761C69.2486 13.1644 59.3979 21.647 59.2079 35.283C59.1623 38.1713 59.5423 41.0672 60.4392 43.8643C60.6292 44.4876 60.8649 45.0653 61.1005 45.6886C61.2905 46.1294 61.9594 47.0415 61.9594 47.528C61.9594 48.5389 59.3523 49.2154 58.4478 49.4054C57.672 49.5904 56.8806 49.7024 56.0839 49.7398C55.1794 49.8386 54.3737 50.1275 54.0925 49.261C53.7124 48.0068 53.6212 46.4638 52.9068 44.8753C51.2042 41.2116 48.2702 38.4677 44.2874 37.8825C40.7378 37.4036 37.1805 38.8022 34.0566 40.4439C32.0652 41.5081 30.1193 42.709 28.2799 44.0088C27.9455 40.9684 27.611 37.7912 27.3754 34.2264C26.851 26.3747 26.6153 18.9031 28.5611 11.287C28.6524 10.9525 28.7056 10.5649 28.5155 10.2761C28.2267 9.84282 27.5654 9.98723 27.0942 10.1849C21.5349 12.4731 16.8768 16.5172 13.8307 21.7002C10.7721 26.9525 9.49244 33.0524 10.1822 39.091C10.9879 46.0306 14.6819 52.7726 20.7474 56.0029C17.7941 60.5567 15.5395 65.527 14.0587 70.7486C13.1162 74.0778 12.5461 77.5438 13.1162 80.9186C13.4962 83.0849 14.6363 85.4943 16.7646 85.9352C18.566 86.3152 20.3674 85.1143 21.69 83.8069C25.9084 79.6645 27.9911 73.789 28.7512 67.9591C29.3592 63.0946 29.5113 58.23 29.1312 53.3122L28.8424 49.9374C28.5611 47.1403 30.5526 45.5061 32.5896 43.9632C34.011 42.899 35.4247 41.8881 37.0361 41.2116C38.6475 40.5428 40.4033 40.1019 42.1515 40.3451C44.6598 40.6872 47.4645 42.4202 48.5971 44.7764C48.8327 45.3085 49.7372 47.1859 48.5058 47.0947C48.217 47.0947 47.9358 46.8971 47.7002 46.7527C45.3543 45.4234 42.6666 44.8202 39.9777 45.0197C38.8474 45.1086 37.7563 45.4741 36.8005 46.0838C35.858 46.7527 35.1891 47.8624 35.3335 49.0177C35.3791 49.7018 35.7136 50.3175 36.0936 50.9028C36.6833 51.8968 37.5148 52.7257 38.5107 53.3122C40.7834 54.5588 43.4817 53.9811 45.9443 53.8899C47.1608 53.8024 48.3801 54.0165 49.494 54.5132C49.9701 54.6992 50.3949 54.9962 50.7329 55.3797C51.2042 55.9573 51.493 57.3103 52.1011 57.2571C52.9068 57.2115 53.1956 55.3797 53.3324 54.8476C53.568 54.0343 53.6212 52.8258 54.7082 52.4913C56.3195 52.0049 57.9765 51.5792 59.6335 51.1916C60.4392 50.994 61.2905 50.8495 62.1418 50.7051C62.7119 50.6139 63.3276 50.4163 63.8976 50.6595C64.7489 51.0396 65.2278 52.0049 65.8434 52.6814C66.6035 53.5479 67.5004 54.2775 68.4429 54.8476C68.633 54.9464 70.1075 55.7141 70.0087 55.9117C69.8643 56.2006 69.6743 56.4438 69.5375 56.7326C65.2734 63.9079 64.1408 67.6703 63.0463 71.9572C61.4349 78.2203 61.9594 84.9167 65.889 85.7376C71.2857 86.8929 76.8343 77.2094 78.0656 67.8603C78.8713 61.5516 78.0656 54.0267 77.9136 47.6724C77.9136 47.6724 79.4338 46.175 79.8595 45.7418C80.954 44.6776 82.0409 43.5755 83.0822 42.4734C83.6523 41.8881 84.1691 41.3104 84.7392 40.7784C85.1649 40.3451 85.7805 39.8663 85.9706 39.2354C86.0694 38.8554 85.925 38.2777 85.4537 38.2245C85.1704 38.3002 84.8992 38.4154 84.648 38.5665V38.5665ZM25.1484 72.056C24.2515 81.4963 20.033 82.3172 18.1403 81.6407C15.9589 80.8198 15.3432 73.979 18.7104 65.352C20.3142 61.2095 22.3588 57.5459 24.1982 54.5588C25.0571 60.9207 25.6196 67.1382 25.1484 72.056V72.056ZM26.2353 13.6965C25.0039 16.5392 22.5869 21.9358 22.26 30.9504C22.07 36.8791 22.9669 44.1 23.8714 51.2372C23.1569 52.3013 22.4044 53.3578 21.7432 54.4676C17.6159 51.526 15.5865 45.3541 15.2976 35.815C14.8188 21.5558 21.69 14.5174 25.4296 12.7388C26.3797 12.2523 26.851 12.3511 26.2353 13.6965V13.6965ZM47.9814 51.3436C47.8902 51.488 47.7002 51.5792 47.4645 51.678C46.8704 51.7902 46.2621 51.8056 45.6631 51.7236C44.5483 51.6863 43.4523 51.4252 42.4403 50.956C41.7791 50.6578 41.2077 50.1913 40.7834 49.603C40.5933 49.223 40.4033 48.7897 40.5933 48.4021C40.6845 48.1588 40.9202 48.022 41.1634 47.87C41.7267 47.6087 42.3401 47.4734 42.961 47.4734C43.5819 47.4734 44.1954 47.6087 44.7586 47.87C45.8987 48.3565 46.8413 49.223 47.7002 50.1351C48.0802 50.5151 48.217 51.0016 47.9814 51.3436V51.3436ZM74.4172 72.0636C73.5127 81.5039 69.3018 82.3248 67.4472 81.6483C65.2734 80.8274 64.6577 73.9866 68.0173 65.3596C69.6287 61.2171 71.6657 57.5535 73.5127 54.5664C74.2728 60.9283 74.8885 67.1458 74.4172 72.0636V72.0636ZM75.5042 13.7041C74.2728 16.5468 71.8101 21.9434 71.5213 30.958C71.3389 36.8867 72.2358 44.1076 73.1327 51.2448C72.3726 52.3089 71.6657 53.3654 70.9588 54.4752C66.8315 51.5336 64.8021 45.3617 64.5133 35.8226C64.0876 21.5634 70.9056 14.525 74.6985 12.7464C75.603 12.2599 76.0666 12.3587 75.5042 13.7041V13.7041Z" fill="#DE2106"/>
</svg>
