<svg width="96" height="96" viewBox="0 0 96 96" fill="none" xmlns="http://www.w3.org/2000/svg">
<path d="M65.6466 36.317C65.6466 36.317 63.9967 36.9744 62.0788 39.0882C60.1532 41.2098 59.0421 43.5814 59.8696 44.2104C60.1867 44.4502 60.9188 44.4914 62.249 43.2953C63.2878 42.3647 64.3448 41.1428 65.0614 39.395C65.9198 37.3018 65.6466 36.3402 65.6466 36.317ZM76.1462 40.1219C74.0143 39.0289 72.4573 37.6936 70.8358 36.861C69.2891 36.067 68.2889 35.7344 67.0386 35.902C66.8324 35.9303 66.5231 36.0309 66.5231 36.0309C66.5231 36.0309 67.1675 38.2298 64.6051 41.9264C62.0092 45.6695 59.6556 45.6489 58.9854 44.6151C58.2842 43.5299 59.1891 41.3155 60.6997 39.346C62.2825 37.2863 65.064 35.5772 65.064 35.5772C65.064 35.5772 64.1772 35.0358 61.9989 36.2706C59.8773 37.4693 56.2142 40.3307 52.8269 45.1565C49.4422 49.9822 48.7616 52.6374 48.2744 54.7281C47.7846 56.8187 48.2306 59.0563 50.5481 59.0563C52.8681 59.0589 55.5646 55.5221 56.3251 54.2924C57.7403 52.0033 58.6632 48.4922 56.7375 48.9743C55.7889 49.2115 55.0207 50.2632 54.536 51.2737C54.0385 52.3126 53.8374 53.3051 53.8374 53.3051C53.8374 53.3051 53.0357 53.5912 51.9582 54.3981C50.8806 55.2024 50.1769 55.9732 50.1769 55.9732C50.1769 55.9732 50.1846 54.3027 51.5173 51.5986C52.8501 48.8944 55.2939 47.6596 56.6782 47.5436C57.9259 47.4431 59.5499 48.5026 58.1734 52.4132C56.7994 56.3238 52.7392 61.067 48.4729 61.1263C44.5365 61.1804 41.9612 56.1562 47.4392 47.3941C53.4997 37.7013 60.6146 34.7291 62.9244 34.3991C65.2341 34.0691 65.9843 35.0874 65.9843 35.0874C65.9843 35.0874 67.9202 34.1954 70.3744 34.363C73.1945 34.5538 75.3754 36.549 78.2523 37.9514C77.5047 38.6706 76.7906 39.4182 76.1462 40.1219ZM88.8138 36.861C86.8598 38.1138 84.1556 39.2506 81.5571 39.0006C80.8997 39.6811 80.196 40.4674 79.4897 41.3258C83.9958 42.2177 87.9425 39.4259 90.0408 37.0491C91.353 35.5669 92 34.2418 92 34.2418C92 34.2418 90.7472 35.6184 88.8138 36.861ZM82.8151 49.5543C82.8718 49.4538 82.8976 49.3661 82.8976 49.3661C82.8976 49.3661 82.846 48.9872 82.4851 48.9717C82.0572 48.9511 81.4695 49.0336 79.9356 50.7324C78.407 52.4235 77.4789 53.8928 76.6721 55.3622C75.793 56.9682 75.4373 58.1644 75.9425 58.4737C76.0843 58.5613 76.2983 58.5717 76.4736 58.5278C76.8164 58.4453 77.2031 58.1257 77.7934 57.4426C78.0693 57.1229 78.376 56.6692 78.7421 56.1665C79.7578 54.7848 82.3098 50.4334 82.8151 49.5543ZM66.8685 51.4026C67.1237 50.7324 67.4511 49.4177 66.7731 48.9021C66.0436 48.353 64.1875 49.6394 64.1772 50.9592C64.1643 52.31 65.4842 52.921 65.8012 53.0061C65.9817 53.055 66.0436 53.0473 66.1312 52.903C66.1853 52.8076 66.6107 52.0755 66.8685 51.4026ZM65.4635 53.8593C65.4146 53.8439 64.8139 53.568 64.1875 53.0447C63.5637 52.524 63.2492 51.9285 63.226 51.8821C63.2002 51.8383 63.1744 51.8718 63.1461 51.9105C63.1177 51.9491 63.0069 52.0471 62.0118 53.5036C61.0193 54.9601 59.501 57.9607 60.8775 58.4737C61.7592 58.8011 63.226 57.257 64.0303 56.2335C64.7727 55.2823 65.4687 54.0733 65.5074 53.9857C65.5486 53.898 65.5125 53.8774 65.4635 53.8593ZM81.075 57.3317C80.7013 57.9298 80.2759 59.0769 81.5107 58.3629C83.0136 57.4941 85.1558 54.246 85.1558 54.246H86.1251C86.1251 54.246 84.8465 56.2645 83.1812 58.1076C81.6576 59.7961 79.799 61.33 78.4895 61.1779C76.9608 61 77.4403 58.9918 77.4403 58.9918C77.4403 58.9918 75.2439 61.3222 73.7359 61.1547C71.6916 60.9278 72.3155 58.4015 72.3155 58.4015C72.3155 58.4015 70.0032 61.2449 68.4281 61.1521C65.9585 61.0103 66.5798 57.9968 67.2655 55.8881C67.6341 54.7564 67.9744 53.8671 67.9744 53.8671C67.9744 53.8671 67.7295 53.9315 67.2036 54.0089C66.9278 54.0475 66.4277 54.0759 66.4277 54.0759C66.4277 54.0759 65.3991 55.8907 64.5768 56.9811C63.7544 58.0741 60.2563 61.8301 58.1992 61.0773C56.2967 60.3813 56.9257 57.4683 58.0342 55.1534C59.6505 51.779 64.1978 46.9301 66.8195 47.5668C69.5391 48.2267 66.8814 53.1865 66.8814 53.1865C66.8814 53.1865 66.8814 53.2046 66.9097 53.2175C66.9639 53.2381 67.1056 53.2535 67.433 53.1891C67.9563 53.0886 68.4281 52.8926 68.4281 52.8926C68.4281 52.8926 71.1606 47.1698 74.1793 43.4268C77.1979 39.6837 83.2198 33.2391 85.5837 34.7987C86.1612 35.1828 85.8982 36.5026 85.1197 38.1061C84.7743 38.2143 84.4185 38.3097 84.0525 38.3845C84.5732 37.4384 84.9186 36.6418 85.0217 36.085C85.3775 34.1516 80.8611 38.2272 77.6336 42.6147C74.4061 47.0022 72.4676 50.9747 72.4676 50.9747C72.4676 50.9747 73.1172 50.6061 74.1329 49.7889C75.1924 48.9356 76.6514 47.5977 78.2317 45.9634C79.2963 44.8626 80.5492 43.4809 81.7195 41.9367C82.0701 41.9187 82.413 41.8852 82.7455 41.8311C81.4385 43.5892 80.0645 45.1952 78.8968 46.3784C77.613 47.6802 76.2158 49.08 75.0042 50.1008C73.076 51.7197 71.5911 52.6374 71.5911 52.6374C71.5911 52.6374 68.7684 58.3293 70.3048 58.6954C71.207 58.9119 72.9909 56.1665 72.9909 56.1665C72.9909 56.1665 75.3161 52.6168 76.7185 51.0211C78.6312 48.8454 80.2785 47.59 81.9232 47.5642C82.8821 47.5462 83.4467 48.5696 83.4467 48.5696L83.8978 47.871L86.6741 47.8736C86.6741 47.8736 81.4901 56.6692 81.075 57.3317ZM88.8138 36.861C86.8598 38.1138 84.1556 39.2506 81.5571 39.0006C80.8997 39.6811 80.196 40.4674 79.4897 41.3258C83.9958 42.2177 87.9425 39.4259 90.0408 37.0491C91.353 35.5669 92 34.2418 92 34.2418C92 34.2418 90.7472 35.6184 88.8138 36.861ZM49.834 41.1763L47.1943 41.1737L45.7017 43.5866L48.3414 43.5892L49.834 41.1763ZM37.334 49.5234C38.4579 47.9844 41.5565 42.5889 41.5565 42.5889C41.5565 42.5889 41.505 42.21 41.1441 42.1945C40.7161 42.1739 40.0046 42.3183 38.5791 44.097C37.1535 45.8731 36.0554 47.291 35.2511 48.7629C34.3694 50.3689 33.9853 51.5032 34.4906 51.8099C34.6324 51.895 34.8463 51.9079 35.0216 51.8641C35.3516 51.7816 35.7821 51.4516 36.3724 50.7711C36.6508 50.454 36.9653 50.0261 37.334 49.5234ZM23.1687 42.228C22.4391 41.6764 20.5831 42.9653 20.5728 44.2826C20.5624 45.6334 22.2484 46.0201 22.4675 46.0304C22.4675 46.0304 22.6582 46.0819 22.733 45.9221C22.7794 45.8216 23.0088 45.3988 23.2666 44.7286C23.5218 44.0583 23.8466 42.7436 23.1687 42.228ZM22.0679 46.8811C22.0189 46.863 21.3203 46.662 20.6372 46.2237C19.9541 45.7881 19.6396 45.1384 19.6164 45.092C19.5906 45.0482 19.5622 45.0817 19.5365 45.1204C19.5081 45.1591 19.3612 45.3447 18.3687 46.8012C17.3762 48.2551 15.9043 51.2377 17.2834 51.7481C18.165 52.0755 19.6473 50.5262 20.449 49.5028C21.1914 48.5515 22.0782 47.0899 22.1169 47.0048C22.1504 46.9172 22.1143 46.8965 22.0679 46.8811ZM43.6368 47.7782H44.6035C44.6035 47.7782 39.7572 54.7822 37.0169 54.4626C35.4882 54.2847 35.9419 52.3977 35.9419 52.3977C35.9419 52.3977 33.7894 54.9111 31.8251 54.4084C30.0361 53.9496 31.1909 50.9773 31.1909 50.9773C30.9873 51.0598 27.1179 55.4215 24.3983 54.3749C21.5523 53.2767 23.0295 49.6239 23.5708 48.5258C24.0297 47.6003 24.5375 46.6981 24.5375 46.6981C24.5375 46.6981 24.1018 46.8218 23.8286 46.8837C23.5579 46.9455 23.1455 47.0254 23.1455 47.0254C23.1455 47.0254 21.7998 49.214 20.9775 50.3045C20.1551 51.3975 16.657 55.1483 14.5973 54.4007C12.5376 53.6505 13.048 50.7711 14.2055 48.4819C16.0821 44.7698 20.5367 40.207 23.2176 40.8927C25.927 41.5836 23.6842 45.9788 23.6842 45.9788C23.6842 45.9788 24.223 46.0484 25.5145 45.1668C27.3783 43.8985 29.8298 40.4854 32.4876 40.885C33.7353 41.0732 34.8979 42.3544 33.3074 44.7853C32.797 45.5664 31.9437 46.265 31.2889 45.5741C30.8816 45.1488 31.2374 44.3625 31.6653 43.8263C32.2685 43.0659 33.1011 43.1715 33.1011 43.1715C33.1011 43.1715 33.5394 42.1636 32.4232 42.1842C31.5183 42.2023 29.2292 44.3084 27.9377 46.4377C26.7519 48.3917 24.9577 51.7223 26.7596 52.4492C28.412 53.1169 31.557 49.3842 33.0135 47.4276C34.47 45.4736 37.7851 41.0371 40.5692 40.8592C41.5282 40.7973 42.0979 41.6712 42.0979 41.6712L42.4201 41.1608L45.199 41.1634C45.199 41.1634 39.9557 49.9126 39.5458 50.5751C39.2236 51.0933 38.7956 52.2585 39.9814 51.6063C41.1724 50.9515 43.6368 47.7782 43.6368 47.7782ZM42.1211 61.8017C40.0175 60.3194 37.4526 59.6672 35.1248 59.76C32.7686 59.8529 31.7117 61.611 31.7117 61.611C30.6496 59.7575 28.5512 58.6206 25.3057 58.6464C20.0623 58.7057 14.8577 61.1237 10.7408 61.1212C6.78638 61.1186 3.90692 58.6361 4.0023 54.2254C4.17244 46.4918 10.7099 39.5265 15.5949 36.3918C18.4022 34.5899 20.7532 34.0562 22.2922 34.229C23.4136 34.3527 24.7618 35.6494 23.9111 37.5595C22.6608 40.3565 20.9337 40.1219 20.9981 38.7866C21.0342 37.9179 21.6116 37.3714 22.0473 37.0723C22.3231 36.8816 22.8103 36.8274 23.0655 36.8223C23.313 36.6135 23.5012 35.0848 21.4905 35.5875C19.4772 36.0902 17.0566 38.0648 14.7468 40.6117C12.437 43.1561 8.84351 47.9844 7.95415 53.0473C7.53912 55.3957 7.81495 59.6776 13.378 59.6312C18.0929 59.5925 25.0582 56.4888 31.4539 56.548C33.9364 56.5712 36.0966 57.2415 37.78 58.2804C39.4349 59.2986 41.4173 60.786 42.1211 61.8017Z" fill="#F40008"/>
</svg>
