<svg width="96" height="96" viewBox="0 0 96 96" fill="none" xmlns="http://www.w3.org/2000/svg">
<path d="M69.9603 28.9951L64.5025 51.2333L59.0293 28.9951H43.2211V37.207C41.3002 30.0209 34.2533 28.2186 27.9567 28.1162C20.2791 28.0158 11.7723 31.348 11.4773 41.5167H22.0958C22.0958 38.4471 24.9018 36.6892 27.5517 36.7337C30.8051 36.7066 32.3017 38.0975 32.3769 40.263C32.265 42.1425 31.158 43.4503 27.5787 43.4503H24.007V50.8296H27.2489C29.0906 50.8296 31.6537 51.834 31.754 54.4612C31.8774 57.5926 29.7039 58.9679 27.029 58.995C22.254 58.8173 21.0216 55.1431 21.0216 51.9828H10C10.0463 54.1116 9.97686 67.9872 27.2508 67.8848C35.5262 67.9602 41.549 64.4753 43.2481 59.6711V67.0349H53.8782V43.0427L59.7564 67.0349H69.2545L75.1539 43.0698V67.0561H86V28.9951H69.9603ZM43.2558 51.1811C41.9019 48.3762 39.9965 47.1496 38.9243 46.7613C41.1749 45.7587 42.3532 44.3988 43.2558 41.6886V51.1811Z" fill="#FF0000"/>
</svg>
