<svg width="96" height="96" viewBox="0 0 96 96" fill="none" xmlns="http://www.w3.org/2000/svg">
<path d="M72.1326 48.0514C72.8103 48.0514 73.0811 47.745 73.0811 47.1593C73.0811 46.5396 72.7673 46.2502 72.1486 46.2502H71.2459V50.7968C71.2459 50.9378 71.1299 51.0558 70.9873 51.0558H70.4304C70.29 51.0558 70.1729 50.9377 70.1729 50.7968V45.8816C70.1729 45.7401 70.29 45.6156 70.4304 45.6156H72.2576C73.3785 45.6156 74.0759 46.1247 74.0759 47.1593C74.0759 47.9743 73.5593 48.3663 72.963 48.5238L74.1391 50.726C74.1631 50.7739 74.186 50.8213 74.186 50.875C74.186 50.9697 74.1243 51.0558 74.037 51.0558H73.355C73.2763 51.0558 73.1901 50.9925 73.1513 50.9064L71.8948 48.452C71.8635 48.3913 71.8071 48.2924 71.8071 48.1993C71.8071 48.1168 71.8475 48.0514 71.9917 48.0514L72.1326 48.0514Z" fill="#003C72"/>
<path d="M77.3381 46.112C76.2115 46.112 76.0173 47.1259 76.0173 48.3361C76.0173 49.5574 76.2232 50.5602 77.3222 50.5602C78.3999 50.5602 78.6584 49.5995 78.6584 48.3361C78.6584 47.1259 78.4478 46.112 77.3381 46.112ZM77.3381 51.1708C76.2891 51.1708 74.9507 50.8102 74.9507 48.3361C74.9507 45.8774 76.279 45.5008 77.3381 45.5008C78.3962 45.5008 79.7245 45.8774 79.7245 48.3361C79.7245 50.7634 78.426 51.1708 77.3381 51.1708Z" fill="#003C72"/>
<path d="M82.8048 51.1707C81.3462 51.1707 80.7504 50.3478 80.7504 49.352V45.8816C80.7504 45.7401 80.868 45.6156 81.0084 45.6156H81.5568C81.6989 45.6156 81.817 45.7401 81.817 45.8816V49.4142C81.817 50.3154 82.25 50.5601 82.8553 50.5601C83.6517 50.5601 83.8942 50.0909 83.8942 49.4142V45.8816C83.8942 45.7401 84.0118 45.6156 84.1522 45.6156H84.5996C84.7406 45.6156 84.8587 45.7401 84.8587 45.8816V49.352C84.8587 50.5042 84.1357 51.1707 82.8048 51.1707Z" fill="#003C72"/>
<path d="M87.7106 48.335H87.9798C88.5304 48.335 88.9607 48.0547 88.9607 47.3163C88.9607 46.5077 88.5437 46.2428 87.9537 46.2428H87.1106V50.7969C87.1106 50.9373 87.0079 51.0554 86.8675 51.0554H86.326C86.185 51.0554 86.0685 50.9373 86.0685 50.7969V45.8816C86.0685 45.7401 86.185 45.6151 86.326 45.6151H88.2857C89.34 45.6151 89.9555 46.2583 89.9555 47.3163C89.9555 48.2728 89.3948 48.9164 88.2835 48.9164C88.0724 48.9164 87.8644 48.8957 87.7351 48.8739C87.5112 48.8361 87.409 48.7138 87.409 48.5871C87.409 48.4584 87.5101 48.335 87.7106 48.335Z" fill="#003C72"/>
<path d="M61.4829 51.0867H60.9653C60.8163 51.0867 60.6982 50.9686 60.6982 50.8197V48.6509H58.5992V50.8197C58.5992 50.9686 58.4816 51.0867 58.3321 51.0867H57.8151C57.6661 51.0867 57.5486 50.9686 57.5486 50.8197V45.9124C57.5486 45.7715 57.6661 45.6465 57.8076 45.6465H58.3401C58.4816 45.6465 58.5992 45.7715 58.5992 45.9124V47.8849H60.6982V45.9124C60.6982 45.7715 60.8163 45.6465 60.9573 45.6465H61.4903C61.6318 45.6465 61.7499 45.7715 61.7499 45.9124V50.8197C61.7499 50.9686 61.6318 51.0867 61.4829 51.0867Z" fill="#003C72"/>
<path d="M6.26453 51.181C4.59581 51.181 4.00002 50.2405 4.00002 49.1229V45.2381C4.00002 45.0796 4.13461 44.9333 4.29632 44.9333H4.76816C4.92934 44.9333 5.06445 45.0796 5.06445 45.2381V49.2336C5.06445 50.2448 5.62354 50.5166 6.28794 50.5166C7.16726 50.5166 7.51142 50.0687 7.51142 49.2336V45.2381C7.51142 45.0796 7.64654 44.9333 7.80772 44.9333H8.22264C8.38435 44.9333 8.51841 45.0796 8.51841 45.2381V49.1229C8.51841 50.4155 7.73271 51.181 6.26453 51.181Z" fill="#003C72"/>
<path d="M29.4364 46.2774H28.5055V50.4563H29.4364C30.6636 50.4563 30.9626 49.5249 30.9626 48.3977C30.9626 47.271 30.6743 46.2774 29.4364 46.2774ZM29.6864 51.0867H27.723C27.5821 51.0867 27.464 50.9644 27.464 50.8239V45.9172C27.464 45.7762 27.5821 45.6465 27.723 45.6465H29.6864C30.978 45.6465 32.0036 46.3396 32.0036 48.3977C32.0036 50.4872 30.8998 51.0867 29.6864 51.0867Z" fill="#003C72"/>
<path d="M37.5997 51.0877H37.1347C36.9672 51.0877 36.8347 50.9563 36.8347 50.7893V48.304H34.3388V50.7893C34.3388 50.9563 34.2069 51.0877 34.0383 51.0877H33.5733C33.4058 51.0877 33.2749 50.9563 33.2749 50.7893V45.274C33.2749 45.1155 33.4058 44.9746 33.5648 44.9746H34.0484C34.2069 44.9746 34.3388 45.1155 34.3388 45.274V47.5205H36.8347V45.274C36.8347 45.1155 36.9672 44.9746 37.1262 44.9746H37.6082C37.7662 44.9746 37.8991 45.1155 37.8991 45.274V50.7893C37.8991 50.9563 37.7661 51.0877 37.5997 51.0877Z" fill="#003C72"/>
<path d="M52.2299 51.0875H49.6031C49.4547 51.0875 49.3366 50.9694 49.3366 50.8199V45.9127C49.3366 45.7717 49.4547 45.6467 49.5957 45.6467H50.1441C50.2856 45.6467 50.4032 45.7717 50.4032 45.9127V50.3199H52.2299C52.3708 50.3199 52.4884 50.446 52.4884 50.5864V50.8279C52.4884 50.9694 52.3708 51.0875 52.2299 51.0875Z" fill="#003C72"/>
<path d="M16.7155 51.0875H16.1841C16.0346 51.0875 15.9176 50.9646 15.9176 50.8162V45.9175C15.9176 45.7765 16.0346 45.6467 16.1767 45.6467H16.7235C16.8645 45.6467 16.982 45.7765 16.982 45.9175V50.8162C16.982 50.9646 16.8645 51.0875 16.7155 51.0875Z" fill="#003C72"/>
<path d="M21.7489 46.4143H20.5127V50.8162C20.5127 50.9646 20.3946 51.0875 20.2461 51.0875H19.7137C19.5658 51.0875 19.4477 50.9646 19.4477 50.8162V46.4143H18.2019C18.0609 46.4143 17.9433 46.2978 17.9433 46.1569V45.9143C17.9433 45.7739 18.0609 45.6467 18.2019 45.6467H21.7489C21.8899 45.6467 22.0069 45.7739 22.0069 45.9143V46.1569C22.0069 46.2978 21.8899 46.4143 21.7489 46.4143Z" fill="#003C72"/>
<path d="M56.3214 46.4143H54.9995V50.8162C54.9995 50.9646 54.8825 51.0875 54.7341 51.0875H54.2016C54.0537 51.0875 53.9356 50.9646 53.9356 50.8162V46.4143H52.6052C52.4637 46.4143 52.3467 46.2978 52.3467 46.1569V45.9143C52.3467 45.7739 52.4637 45.6467 52.6052 45.6467H56.3214C56.4624 45.6467 56.5789 45.7739 56.5789 45.9143V46.1569C56.5789 46.2978 56.4624 46.4143 56.3214 46.4143Z" fill="#003C72"/>
<path d="M26.2602 51.0875H23.1919C23.051 51.0875 22.9339 50.9965 22.9339 50.8561V45.9143C22.9339 45.7739 23.051 45.6467 23.1919 45.6467H26.1496C26.2911 45.6467 26.4086 45.7739 26.4086 45.9143V46.1308C26.4086 46.2718 26.2911 46.3883 26.1496 46.3883H23.9978V47.8963H25.9309C26.0719 47.8963 26.1895 48.0219 26.1895 48.1629V48.3794C26.1895 48.5198 26.0719 48.6379 25.9309 48.6379H23.9978V50.3422L26.2602 50.345C26.4012 50.345 26.5182 50.47 26.5182 50.6104V50.8562C26.5182 50.9966 26.4012 51.0875 26.2602 51.0875Z" fill="#003C72"/>
<path d="M42.6476 51.0875H39.5799C39.4389 51.0875 39.3203 50.9965 39.3203 50.8561V45.9143C39.3203 45.7739 39.4389 45.6467 39.5799 45.6467H42.537C42.6774 45.6467 42.795 45.7739 42.795 45.9143V46.1308C42.795 46.2718 42.6774 46.3883 42.537 46.3883H40.3852V47.8963H42.3178C42.4593 47.8963 42.5763 48.0219 42.5763 48.1629V48.3794C42.5763 48.5198 42.4593 48.6379 42.3178 48.6379H40.3852V50.3422L42.6476 50.345C42.788 50.345 42.9051 50.47 42.9051 50.6104V50.8562C42.9051 50.9966 42.788 51.0875 42.6476 51.0875Z" fill="#003C72"/>
<path d="M14.0213 51.0875H13.2181C12.9691 51.0875 12.8526 50.9731 12.7893 50.8316C12.3904 49.9848 10.8456 46.5197 10.8456 46.5197V50.8242C10.8456 50.9646 10.728 51.0875 10.5871 51.0875H10.2264C10.0849 51.0875 9.96787 50.9646 9.96787 50.8242V45.9084C9.96787 45.7669 10.0849 45.6467 10.2264 45.6467H11.0116C11.244 45.6467 11.3866 45.7271 11.4653 45.901C11.8808 46.8096 13.4005 50.1885 13.4005 50.1885V45.9084C13.4005 45.7669 13.5186 45.6467 13.6601 45.6467H14.0213C14.1618 45.6467 14.2799 45.767 14.2799 45.9084V50.8242C14.2799 50.9646 14.1618 51.0875 14.0213 51.0875Z" fill="#003C72"/>
<path d="M68.7255 50.8792C68.4394 51.0058 67.9909 51.1909 67.0515 51.1909C65.5179 51.1909 64.1444 50.5468 64.1444 47.9998C64.1444 46.0007 64.9902 44.8091 67.0515 44.8091C68.0021 44.8091 68.5277 45.0624 68.6516 45.1145C68.8405 45.1948 68.8532 45.2336 68.8532 45.3214C68.8532 45.3634 68.8293 45.4932 68.824 45.5251C68.7931 45.6805 68.75 45.9342 68.7256 46.0709C68.7123 46.1465 68.7022 46.2513 68.5862 46.2513C68.4915 46.2513 68.4096 46.1411 68.358 46.0885C68.2771 46.0055 67.8207 45.5326 67.0515 45.5326C65.5897 45.5326 65.3418 46.9343 65.3418 47.9998C65.3418 49.4706 65.819 50.4675 67.0515 50.4675C67.5223 50.4675 67.7691 50.3914 67.8452 50.3707V48.354C67.8452 48.2317 67.917 48.1934 68.0425 48.1934H68.7186C68.8612 48.1934 68.9107 48.2508 68.9107 48.3642V50.5696C68.9107 50.7792 68.8978 50.8032 68.7255 50.8792Z" fill="#003C72"/>
<path d="M45.1423 49.1481L45.9525 46.4522L46.7158 49.1481H45.1423ZM48.3213 50.7418L46.7584 45.8968C46.7031 45.7325 46.5711 45.6463 46.3759 45.6463H45.6849C45.4844 45.6463 45.3743 45.7325 45.3179 45.8968L43.7587 50.7727C43.7428 50.82 43.7263 50.8519 43.7263 50.8988C43.7263 51.0083 43.8215 51.0871 43.9151 51.0871H44.2667C44.4535 51.0871 44.5902 51.0004 44.645 50.8354L44.9524 49.8168H46.9345L47.2558 50.8354C47.3015 50.9769 47.4052 51.0871 47.6441 51.0871H48.1558C48.2745 51.0871 48.3516 51.0083 48.3516 50.8902C48.3516 50.8354 48.3362 50.7971 48.3213 50.7418Z" fill="#003C72"/>
<path d="M91.0681 46.2184H91.2463C91.3612 46.2184 91.4346 46.1939 91.4346 46.0753C91.4346 45.971 91.3421 45.9412 91.2463 45.9412H91.0681V46.2184ZM90.9192 45.8237H91.2697C91.4804 45.8237 91.5846 45.9083 91.5846 46.0817C91.5846 46.229 91.491 46.3349 91.3479 46.3349L91.6086 46.7408H91.45L91.1942 46.3349H91.0681V46.7408H90.9191L90.9192 45.8237ZM91.2202 46.9488C91.5804 46.9488 91.8511 46.6583 91.8511 46.2833C91.8511 45.9083 91.5804 45.6178 91.2202 45.6178C90.8558 45.6178 90.5851 45.9083 90.5851 46.2833C90.5851 46.6583 90.8558 46.9488 91.2202 46.9488ZM91.2175 45.5008C91.6495 45.5008 92 45.8519 92 46.2833C92 46.7147 91.6495 47.0658 91.2175 47.0658C90.7872 47.0658 90.4356 46.7147 90.4356 46.2833C90.4356 45.8519 90.7872 45.5008 91.2175 45.5008Z" fill="#003C72"/>
</svg>
