<svg width="96" height="96" viewBox="0 0 96 96" fill="none" xmlns="http://www.w3.org/2000/svg">
<path d="M68.946 82.9395C64.8982 86.9401 60.4322 86.3165 56.1753 84.4302C51.6496 82.506 47.5122 82.3843 42.7325 84.4302C36.7803 87.0466 33.6213 86.286 30.0365 82.9395C9.79759 61.7194 12.7849 29.3948 35.787 28.1778C41.3658 28.4821 45.2717 31.319 48.5577 31.5548C53.4419 30.5432 58.1171 27.6454 63.3448 28.0257C69.6256 28.5429 74.3231 31.068 77.4598 35.6087C64.5397 43.5187 67.6017 60.8599 79.4687 65.7276C77.0938 72.0784 74.0468 78.3532 68.9385 82.9927L68.946 82.9395ZM48.1096 27.9497C47.5047 18.5185 55.0103 10.7606 63.6436 10C64.831 20.8763 53.9349 29.0145 48.1096 27.9497Z" fill="black"/>
</svg>
