<svg width="96" height="96" viewBox="0 0 96 96" fill="none" xmlns="http://www.w3.org/2000/svg">
<path d="M76.9559 61.4855C76.6348 60.7167 76.3138 59.8839 75.9928 59.1792C75.4791 58.026 74.9655 56.9369 74.516 55.9119L74.4518 55.8478C70.0216 46.2382 65.2703 36.5005 60.2623 26.8909L60.0696 26.5065C59.556 25.5455 59.0423 24.5205 58.5287 23.4955C57.8866 22.3423 57.2446 21.1251 56.2173 19.972C54.1627 17.4094 51.2092 16 48.0631 16C44.8528 16 41.9635 17.4094 39.8447 19.8438C38.8816 20.997 38.1753 22.2142 37.5333 23.3674C37.0196 24.3924 36.506 25.4174 35.9923 26.3784L35.7997 26.7628C30.8558 36.3724 26.0404 46.1101 21.6101 55.7197L21.5459 55.8478C21.0965 56.8729 20.5828 57.962 20.0692 59.1151C19.7481 59.8198 19.4271 60.5886 19.1061 61.4214C18.2714 63.7918 18.0146 66.034 18.3356 68.3403C19.0419 73.1451 22.2522 77.1812 26.6824 78.975C28.3518 79.6797 30.0853 80 31.8831 80C32.3968 80 33.0388 79.9359 33.5525 79.8719C35.6713 79.6156 37.8543 78.9109 39.9731 77.6937C42.6056 76.2202 45.1096 74.1061 47.9347 71.031C50.7597 74.1061 53.328 76.2202 55.8962 77.6937C58.015 78.9109 60.198 79.6156 62.3169 79.8719C62.8305 79.9359 63.4726 80 63.9862 80C65.784 80 67.5818 79.6797 69.1869 78.975C73.6814 77.1812 76.8275 73.0811 77.5337 68.3403C78.0474 66.0981 77.7906 63.8559 76.9559 61.4855ZM47.9989 64.8168C44.5317 60.4605 42.2845 56.3604 41.514 52.9009C41.193 51.4274 41.1288 50.1461 41.3214 48.993C41.4498 47.968 41.8351 47.0711 42.3487 46.3023C43.5686 44.5726 45.6232 43.4835 47.9989 43.4835C50.3745 43.4835 52.4933 44.5085 53.649 46.3023C54.1627 47.0711 54.5479 47.968 54.6763 48.993C54.8689 50.1461 54.8047 51.4915 54.4837 52.9009C53.7132 56.2963 51.466 60.3964 47.9989 64.8168ZM73.6172 67.8278C73.1677 71.1592 70.9205 74.042 67.7744 75.3233C66.2334 75.964 64.5641 76.1562 62.8947 75.964C61.2896 75.7718 59.6844 75.2593 58.015 74.2983C55.7036 73.017 53.3922 71.031 50.6955 68.0841C54.9331 62.8949 57.5014 58.1542 58.4645 53.9259C58.9139 51.9399 58.9781 50.1461 58.7855 48.4805C58.5287 46.8789 57.9508 45.4054 57.052 44.1241C55.0616 41.2412 51.7228 39.5756 47.9989 39.5756C44.2749 39.5756 40.9362 41.3053 38.9458 44.1241C38.0469 45.4054 37.4691 46.8789 37.2122 48.4805C36.9554 50.1461 37.0196 52.004 37.5333 53.9259C38.4964 58.1542 41.1288 62.959 45.3022 68.1481C42.6698 71.0951 40.2941 73.0811 37.9827 74.3624C36.3133 75.3233 34.7082 75.8358 33.103 76.028C31.3695 76.2202 29.7001 75.964 28.2234 75.3874C25.0773 74.1061 22.83 71.2232 22.3806 67.8919C22.188 66.2903 22.3164 64.6887 22.9585 62.8949C23.1511 62.2543 23.4721 61.6136 23.7931 60.8448C24.2426 59.8198 24.7562 58.7307 25.2699 57.6416L25.3341 57.5135C29.7643 47.968 34.5156 38.2302 39.4594 28.7487L39.6521 28.3644C40.1657 27.4034 40.6794 26.3784 41.193 25.4174C41.7067 24.3924 42.2845 23.4314 42.9908 22.5986C44.3391 21.0611 46.1369 20.2282 48.1273 20.2282C50.1177 20.2282 51.9155 21.0611 53.2638 22.5986C53.9701 23.4314 54.5479 24.3924 55.0616 25.4174C55.5752 26.3784 56.0889 27.4034 56.6025 28.3644L56.7951 28.7487C61.6748 38.2943 66.4261 48.032 70.8563 57.5776V57.6416C71.3699 58.6667 71.8194 59.8198 72.333 60.8448C72.6541 61.6136 72.9751 62.2543 73.1677 62.8949C73.6814 64.5606 73.874 66.1622 73.6172 67.8278Z" fill="#FF5A5F"/>
<path d="M76.9559 61.4855C76.6348 60.7167 76.3138 59.8839 75.9928 59.1792C75.4791 58.026 74.9655 56.9369 74.516 55.9119L74.4518 55.8478C70.0216 46.2382 65.2703 36.5005 60.2623 26.8909L60.0696 26.5065C59.556 25.5455 59.0423 24.5205 58.5287 23.4955C57.8866 22.3423 57.2446 21.1251 56.2173 19.972C54.1627 17.4094 51.2092 16 48.0631 16C44.8528 16 41.9635 17.4094 39.8447 19.8438C38.8816 20.997 38.1753 22.2142 37.5333 23.3674C37.0196 24.3924 36.506 25.4174 35.9923 26.3784L35.7997 26.7628C30.8558 36.3724 26.0404 46.1101 21.6101 55.7197L21.5459 55.8478C21.0965 56.8729 20.5828 57.962 20.0692 59.1151C19.7481 59.8198 19.4271 60.5886 19.1061 61.4214C18.2714 63.7918 18.0146 66.034 18.3356 68.3403C19.0419 73.1451 22.2522 77.1812 26.6824 78.975C28.3518 79.6797 30.0853 80 31.8831 80C32.3968 80 33.0388 79.9359 33.5525 79.8719C35.6713 79.6156 37.8543 78.9109 39.9731 77.6937C42.6056 76.2202 45.1096 74.1061 47.9347 71.031C50.7597 74.1061 53.328 76.2202 55.8962 77.6937C58.015 78.9109 60.198 79.6156 62.3169 79.8719C62.8305 79.9359 63.4726 80 63.9862 80C65.784 80 67.5818 79.6797 69.1869 78.975C73.6814 77.1812 76.8275 73.0811 77.5337 68.3403C78.0474 66.0981 77.7906 63.8559 76.9559 61.4855ZM47.9989 64.8168C44.5317 60.4605 42.2845 56.3604 41.514 52.9009C41.193 51.4274 41.1288 50.1461 41.3214 48.993C41.4498 47.968 41.8351 47.0711 42.3487 46.3023C43.5686 44.5726 45.6232 43.4835 47.9989 43.4835C50.3745 43.4835 52.4933 44.5085 53.649 46.3023C54.1627 47.0711 54.5479 47.968 54.6763 48.993C54.8689 50.1461 54.8047 51.4915 54.4837 52.9009C53.7132 56.2963 51.466 60.3964 47.9989 64.8168ZM73.6172 67.8278C73.1677 71.1592 70.9205 74.042 67.7744 75.3233C66.2334 75.964 64.5641 76.1562 62.8947 75.964C61.2896 75.7718 59.6844 75.2593 58.015 74.2983C55.7036 73.017 53.3922 71.031 50.6955 68.0841C54.9331 62.8949 57.5014 58.1542 58.4645 53.9259C58.9139 51.9399 58.9781 50.1461 58.7855 48.4805C58.5287 46.8789 57.9508 45.4054 57.052 44.1241C55.0616 41.2412 51.7228 39.5756 47.9989 39.5756C44.2749 39.5756 40.9362 41.3053 38.9458 44.1241C38.0469 45.4054 37.4691 46.8789 37.2122 48.4805C36.9554 50.1461 37.0196 52.004 37.5333 53.9259C38.4964 58.1542 41.1288 62.959 45.3022 68.1481C42.6698 71.0951 40.2941 73.0811 37.9827 74.3624C36.3133 75.3233 34.7082 75.8358 33.103 76.028C31.3695 76.2202 29.7001 75.964 28.2234 75.3874C25.0773 74.1061 22.83 71.2232 22.3806 67.8919C22.188 66.2903 22.3164 64.6887 22.9585 62.8949C23.1511 62.2543 23.4721 61.6136 23.7931 60.8448C24.2426 59.8198 24.7562 58.7307 25.2699 57.6416L25.3341 57.5135C29.7643 47.968 34.5156 38.2302 39.4594 28.7487L39.6521 28.3644C40.1657 27.4034 40.6794 26.3784 41.193 25.4174C41.7067 24.3924 42.2845 23.4314 42.9908 22.5986C44.3391 21.0611 46.1369 20.2282 48.1273 20.2282C50.1177 20.2282 51.9155 21.0611 53.2638 22.5986C53.9701 23.4314 54.5479 24.3924 55.0616 25.4174C55.5752 26.3784 56.0889 27.4034 56.6025 28.3644L56.7951 28.7487C61.6748 38.2943 66.4261 48.032 70.8563 57.5776V57.6416C71.3699 58.6667 71.8194 59.8198 72.333 60.8448C72.6541 61.6136 72.9751 62.2543 73.1677 62.8949C73.6814 64.5606 73.874 66.1622 73.6172 67.8278Z" fill="#FF385C"/>
</svg>
