<svg width="96" height="96" viewBox="0 0 96 96" fill="none" xmlns="http://www.w3.org/2000/svg">
<path d="M4 35.7799H28.5589V60.4556H4V35.7799ZM9.05444 39.6211V57.325L24.4532 48.276L9.05444 39.6211ZM36.8247 60.1936H32.5868V49.1963H36.8504C40.0096 49.1963 41.9046 51.6952 41.9046 54.8781C41.9046 58.0621 40.2206 60.1936 36.8247 60.1936V60.1936ZM40.5883 46.6985L39.7475 44.2516H35.6927L34.9551 46.6985H32.7445L36.4559 35.6757H38.6932L42.8523 46.6985H40.5883ZM36.6404 51.0646H34.9028V58.4828H36.7726C39.2464 58.4828 39.6153 56.3779 39.5886 54.7737C39.5886 53.5105 38.9831 51.0646 36.6404 51.0646V51.0646ZM38.9831 42.0413L37.5879 37.9902L36.3516 42.0159L36.2715 42.6986H39.0098C39.0098 42.3312 39.0364 42.2522 38.9831 42.0413V42.0413ZM42.6955 60.1936V49.1963H50.8026V51.0382H44.9052V53.3794H50.1172V55.3789H44.9319V58.3253H50.987V60.1936H42.6955ZM50.3283 46.6985L45.485 39.2525V46.6985H43.2744V35.6757H45.5384L50.1961 43.0149V35.6757H52.4078V46.6985H50.3283ZM57.251 60.167H55.145L51.5137 49.7758V49.1963H53.7232L56.198 57.246L58.6198 49.2229H60.778V49.8014L57.251 60.167ZM60.7528 46.6985L59.9094 44.2516H55.856L55.1196 46.6985H52.9078L56.6193 35.6757H58.8574L63.0155 46.6985H60.7528ZM59.1721 42.0934L57.7775 37.9381L56.3813 42.0934V42.6986H59.2252C59.2252 42.3312 59.2252 42.2778 59.1721 42.0934ZM61.4627 49.2229H63.8053V60.167H61.4627V49.2229ZM63.4889 46.6985V35.6757H65.6749V44.8301H70.596V46.6985H63.4889ZM69.6228 60.4556C63.5956 60.5877 62.541 48.9599 69.6486 49.0387C73.5975 49.0387 74.2817 52.327 74.4394 52.8266H72.2544C71.9123 52.1439 71.0169 50.8283 69.9129 50.7483C66.017 50.4863 66.017 58.7193 69.9129 58.7193C71.7815 58.7193 72.2292 56.852 72.3332 56.6421H74.4662C74.4662 56.6678 74.2018 60.4035 69.6228 60.4556V60.4556ZM75.6769 46.8817C68.5955 46.8817 68.8598 35.4646 75.7557 35.5179C82.4156 35.57 82.6 46.8817 75.6769 46.8817ZM75.598 45.041C79.6773 45.0664 79.6773 37.4374 75.6769 37.3853C71.7027 37.3586 71.5702 45.0143 75.598 45.041V45.041ZM74.8608 60.1936V49.1963H82.6778V51.197H76.9669V53.4582H82.0199V55.431H76.9921V58.3253H82.9421V60.1936H74.8608ZM89.7071 46.4343V45.383C89.4707 45.5926 88.4165 46.9349 86.4423 46.8817C79.7052 46.724 79.6773 35.6757 86.7592 35.5436C88.4686 35.5436 89.8905 36.6226 90.4438 37.3853C91.1023 38.2534 91.1548 38.9905 91.1811 39.1749H89.312C88.8905 38.4897 88.2321 37.333 86.6804 37.333C82.5732 37.2809 82.311 45.041 86.6536 45.1188C88.5752 45.1709 89.5484 43.1726 89.5484 43.147V42.5675H86.9168V40.8579H91.4433V46.4343H89.7071ZM87.653 60.4823C82.9941 60.4823 83.0467 56.9043 83.0467 56.9043H85.1528C85.1528 56.9043 84.9941 58.6406 87.3388 58.7983C87.9179 58.8248 89.8127 58.5885 89.8127 57.2727C89.8127 55.7475 87.89 55.8251 86.6804 55.4843C85.4681 55.1678 83.1786 54.6416 83.1786 52.5113C83.1786 50.6439 84.7051 49.0387 87.653 49.0387C91.6025 49.0654 91.5757 52.1172 91.6025 52.3014H89.5763C89.4428 51.853 89.312 50.775 87.549 50.7229C86.6804 50.7229 85.3635 51.0125 85.3635 52.0372C85.3635 53.3273 86.837 53.5105 88.3908 53.7468C90.7339 54.1954 92.0765 54.9061 91.9966 57.0618C91.9446 58.9559 90.2594 60.4823 87.653 60.4823" fill="#0070B9"/>
</svg>
