<svg width="96" height="96" viewBox="0 0 96 96" fill="none" xmlns="http://www.w3.org/2000/svg">
<path d="M25.5665 41.4022H22.1671L26.4354 32.2961H29.9873L31.9537 41.4022H28.5543L28.4019 40.2738H25.9781L25.5665 41.4022ZM28.1275 38.1109L27.9598 36.5122C27.9141 36.1204 27.9141 35.7285 27.8988 35.3367H27.7769L26.8317 38.1109H28.1275Z" fill="#70726F"/>
<path d="M34.4233 32.2961H37.7312L38.3257 37.0764H38.402C38.5087 36.6689 38.6306 36.2614 38.7831 35.8696L40.2465 32.2961H43.524L43.7831 41.4022H40.6581L40.8715 36.4182H40.8105C40.7191 36.7316 40.6124 37.0294 40.4752 37.3272L38.6611 41.4022H36.8166L36.1763 37.5466C36.1306 37.1705 36.1154 36.7943 36.1306 36.4182H36.0239C35.9477 36.7786 35.8867 37.1548 35.7952 37.5153L34.9111 41.4022H31.8013L34.4233 32.2961ZM45.8258 32.2961H51.771L51.4509 34.7882H48.7374L48.6307 35.6659H51.1003L50.7954 38.0325H48.3106L48.1886 38.9259H50.9935L50.6734 41.4179H44.6215L45.8258 32.2961ZM52.8076 32.2961H56.6948C58.6918 32.2961 60.2619 33.1582 59.9723 35.4621C59.7894 36.8413 59.1948 37.4212 57.9448 37.8287L57.9296 37.9071C58.1125 38.0482 58.2802 38.2362 58.4021 38.4557L59.9418 41.4179H56.2375L55.2161 38.5027H55.1552L54.7741 41.4179H51.6338L52.8076 32.2961ZM55.4296 36.3398H55.6582C56.1918 36.3398 56.7253 36.2614 56.8168 35.5718C56.9082 34.8665 56.4357 34.7882 55.8869 34.7882H55.643L55.4296 36.3398ZM61.7101 32.2961H64.9266L63.7376 41.4022H60.5211L61.7101 32.2961ZM72.076 35.995C71.6187 35.5091 71.0395 35.0703 70.3077 35.0703C69.3169 35.0859 68.4785 35.8383 68.326 36.8413C68.1888 37.8444 68.9205 38.6124 69.8961 38.6124C70.6279 38.6124 71.2681 38.2833 71.8474 37.7661L71.3138 41.1671C70.7651 41.4179 69.5455 41.5276 68.9815 41.5276C66.451 41.5276 64.7437 39.5058 65.0943 36.9197C65.4449 34.2709 67.7467 32.1394 70.3535 32.1394C71.0699 32.1394 71.7864 32.2648 72.4571 32.5156L72.076 35.995ZM75.0029 41.4022H71.6035L75.8718 32.2961H79.4237L81.3902 41.4022H77.9907L77.8383 40.2738H75.4145L75.0029 41.4022ZM77.5639 38.1109L77.3962 36.5122C77.3505 36.1204 77.3505 35.7285 77.3352 35.3367H77.2133L76.2682 38.1109H77.5639ZM83.1127 32.2961H86.2073L88.4329 37.3429H88.5244C88.4634 36.5749 88.4786 35.7912 88.5549 35.0233L88.9055 32.2961H92L90.811 41.4022H87.7317L85.5213 36.6219H85.4298C85.4603 37.2332 85.4603 37.8444 85.3841 38.44L84.9877 41.4022H81.9237L83.1127 32.2961ZM22.2585 43.3457H28.2189L27.8988 45.8377H25.1854L25.0634 46.6997H27.5482L27.2433 49.0664H24.7585L24.6366 49.9597H27.4415L27.1214 52.4518H21.0695L22.2585 43.3457ZM29.1793 43.3457H32.3958L31.5879 49.5209H34.2861L33.905 52.4361H27.9903L29.1793 43.3457ZM35.9477 43.3457H41.9081L41.588 45.8377H38.8745L38.7526 46.6997H41.2374L40.9325 49.0664H38.4477L38.3257 49.9597H41.1306L40.8105 52.4518H34.7586L35.9477 43.3457ZM48.8136 47.0445C48.3563 46.543 47.7771 46.1198 47.0453 46.1198C46.0545 46.1355 45.2161 46.8878 45.0636 47.8909C44.9264 48.894 45.6734 49.6619 46.6337 49.6619C47.3807 49.6619 48.0057 49.3328 48.585 48.8156L48.0514 52.2167C47.5027 52.4674 46.2831 52.5771 45.7191 52.5771C43.1886 52.5771 41.4813 50.5553 41.8319 47.9692C42.1825 45.3205 44.4843 43.1889 47.0911 43.1889C47.8075 43.1889 48.524 43.3143 49.21 43.5651L48.8136 47.0445ZM49.9417 43.3457H56.7101L56.329 46.3079L54.5606 46.2295L53.7375 52.4518H50.521L51.3442 46.2295L49.5606 46.3079L49.9417 43.3457ZM57.4113 43.3457H61.2985C63.2955 43.3457 64.8656 44.2234 64.576 46.5116C64.3931 47.8909 63.7985 48.4708 62.5485 48.8783L62.5333 48.9567C62.7162 49.0977 62.8839 49.2858 63.0058 49.5052L64.5455 52.4674H60.8412L59.8198 49.5522H59.7589L59.3778 52.4674H56.2375L57.4113 43.3457ZM60.0333 47.3737H60.2619C60.7955 47.3737 61.329 47.2953 61.4205 46.6057C61.5119 45.9161 61.0394 45.822 60.4906 45.822H60.2467L60.0333 47.3737ZM66.2986 43.3457H69.515L68.326 52.4518H65.1095L66.2986 43.3457ZM76.6797 47.0445C76.2224 46.543 75.6432 46.1198 74.9114 46.1198C73.9206 46.1355 73.0822 46.8878 72.9297 47.8909C72.8078 48.894 73.5395 49.6619 74.4999 49.6619C75.2468 49.6619 75.8718 49.3328 76.4511 48.8156L75.9175 52.2167C75.3688 52.4674 74.1645 52.5771 73.5852 52.5771C71.0547 52.5771 69.3474 50.5553 69.698 47.9692C70.0486 45.3205 72.3504 43.1889 74.9572 43.1889C75.6736 43.1889 76.3901 43.3143 77.0608 43.5651L76.6797 47.0445ZM20.8256 54.3952H24.8957C26.9689 54.3952 28.3409 55.4767 28.0513 57.7336C27.8074 59.5987 26.5269 60.7428 24.7281 60.7428H23.0817L22.7158 63.4856H19.6213L20.8256 54.3952ZM23.3866 58.4702H23.7067C24.2707 58.4702 24.8957 58.3762 24.9872 57.6396C25.0787 56.9343 24.4232 56.8872 23.9049 56.8872H23.6L23.3866 58.4702ZM38.0056 58.9718C37.6245 61.887 35.2007 63.6424 32.5025 63.6424C29.8043 63.6424 27.8378 61.9026 28.2189 58.9718C28.6 56.1193 31.0391 54.2542 33.7373 54.2542C36.4355 54.2542 38.3867 56.1193 38.0056 58.9718ZM31.4507 59.0188C31.3135 60.0532 31.908 60.7742 32.8836 60.7742C33.8592 60.7742 34.6367 60.0689 34.7739 59.0188C34.8958 58.0471 34.3775 57.2477 33.3562 57.2477C32.3348 57.2477 31.5726 58.0627 31.4507 59.0188ZM41.2983 54.3952L41.7099 59.8181H41.7861C41.9081 59.2539 42.0758 58.6897 42.274 58.1411L43.6916 54.3952H46.1612L46.6642 59.8181H46.7405C46.8472 59.2696 46.9996 58.7367 47.1673 58.2195L48.5545 54.3952H51.9082L47.5941 63.5013H44.7892L44.4234 58.5486H44.3167C44.2404 59.0188 44.1185 59.4733 43.966 59.9278L42.6093 63.5013H39.8806L37.9751 54.3952H41.2983ZM52.4265 54.3952H58.3717L58.0515 56.8872H55.3381L55.2161 57.7493H57.7009L57.396 60.1159H54.9113L54.7893 61.0093H57.5942L57.2741 63.5013H51.2222L52.4265 54.3952ZM59.4235 54.3952H63.3107C65.3077 54.3952 66.8778 55.2572 66.5882 57.5612C66.4053 58.9404 65.8107 59.5203 64.5607 59.9278L64.5455 60.0062C64.7284 60.1473 64.8961 60.3353 65.0181 60.5548L66.5577 63.517H62.8534L61.8321 60.6018H61.7711L61.39 63.517H58.2497L59.4235 54.3952ZM62.0455 58.4389H62.2741C62.8077 58.4389 63.3412 58.3605 63.4327 57.6709C63.5241 56.9813 63.0516 56.8872 62.5028 56.8872H62.2589L62.0455 58.4389Z" fill="#70726F"/>
<path d="M49.9559 66.0042L49.5793 68.797H6.69867L12.3 27.2186H55.1806L54.8041 29.9958H57.1733L57.8636 24.8495H10.2289L4 71.1505H51.6504L52.3408 66.0042H49.9559Z" fill="#E41F17"/>
</svg>
