<svg width="96" height="96" viewBox="0 0 96 96" fill="none" xmlns="http://www.w3.org/2000/svg">
<path d="M42.4758 28.1282C40.8435 28.1282 39.5206 29.4512 39.5206 31.0834C39.5206 32.7152 40.8435 34.0382 42.4758 34.0382C44.1076 34.0382 45.4305 32.7152 45.4305 31.0834V31.0777C45.4336 29.452 44.1182 28.1313 42.4921 28.1282H42.4758Z" fill="#009ACE"/>
<path d="M69.1307 56.2231C69.1307 64.9686 64.0137 67.8695 57.9895 67.8695C55.465 67.9119 52.9661 67.3533 50.6997 66.2399L51.8677 62.1983C53.7242 63.2441 55.8206 63.7904 57.9515 63.7847C61.4552 63.7847 64.432 61.5355 64.432 57.4886V56.0872C62.8029 57.8743 60.4778 58.8654 58.0601 58.8032C52.5738 58.8032 48.4236 54.3869 48.4236 48.0371C48.4236 41.9528 52.3293 37.2758 58.0817 37.2758C60.4888 37.1955 62.8064 38.191 64.4047 39.9918L64.4647 37.8464H69.1307V56.2231ZM64.6928 48.075C64.6928 43.8269 62.0148 41.5566 58.9673 41.5566C55.3277 41.5566 53.2255 44.517 53.2255 48.075C53.2255 51.8285 55.491 54.5935 58.9673 54.5935C62.167 54.5935 64.6928 52.2141 64.6928 48.075ZM8.81294 48.075C8.81294 51.986 11.2086 54.5935 14.5437 54.5935C17.5801 54.5935 20.2961 52.3664 20.2961 48.075C20.2961 43.8869 17.6944 41.5566 14.5601 41.5566C11.0617 41.5566 8.81294 44.2995 8.81294 48.075ZM20.0627 37.8574H24.7181V58.2384H20.0627L19.9868 56.1035C18.3162 57.7958 16.052 58.7701 13.6744 58.8195C8.1175 58.8142 4 54.3437 4 48.075C4 41.3933 8.45992 37.2868 13.6744 37.2868C16.0763 37.2171 18.3859 38.2113 19.9868 40.0028L20.0627 37.8574ZM44.8383 58.2384H40.1233V37.8574H44.8383V58.2384ZM34.7729 58.2384H30.0743V28.6119H34.7835L34.7729 58.2384ZM74.4868 37.8574H79.0227L79.0933 39.7473C80.3685 38.1817 82.2837 37.2771 84.3029 37.2868C89.284 37.2868 92 40.3669 92 45.7336V58.2273H87.2961V45.9022C87.2961 43.1425 85.6064 41.5566 83.2381 41.5566C80.8694 41.5566 79.1912 43.1425 79.1912 45.9022V58.2384H74.4868V37.8574Z" fill="#3D3935"/>
</svg>
