<svg width="97" height="96" viewBox="0 0 97 96" fill="none" xmlns="http://www.w3.org/2000/svg">
<path d="M58.2959 24.9401L29.8066 24.9158L25.4 29.3695L58.2959 29.3866C63.3244 29.3866 67.3872 33.3752 67.3872 38.2896V80H71.9478L71.9621 38.2896C71.9621 30.9158 65.8422 24.9401 58.2959 24.9401ZM81.0819 80L81.0776 38.2896C81.0776 26.0043 70.8765 16.0029 58.2944 16.0029L38.6183 16L34.2131 20.4536L58.2959 20.4593C68.3586 20.4593 76.5156 28.4593 76.5156 38.2896V80H81.0819V80ZM58.2959 33.8388L21.0006 33.8302L16.5812 38.281H16.6411L16.5812 38.2896L16.5826 57.7204C16.5826 69.0528 25.2188 78.4351 36.4457 79.8317L40.6554 75.5564L39.3672 75.5492C29.3001 75.5492 21.1404 67.5464 21.1404 57.7204V38.2825H25.7081L25.6967 57.7204C25.6967 65.087 31.8166 71.0656 39.3672 71.0656H45.0905L49.4899 66.6163H39.3672C34.3358 66.6163 30.2745 62.6305 30.2745 57.7204V38.2825H34.7952L34.7994 57.7204C34.8137 60.1769 36.8479 62.1612 39.3658 62.1612H53.8865L58.2802 57.7247L39.3658 57.7204V38.2853L58.2944 38.2896V80H62.8636L62.8622 38.2896C62.8479 35.8288 60.8123 33.8388 58.2959 33.8388Z" fill="#569BBE"/>
</svg>
