<svg width="96" height="96" viewBox="0 0 96 96" fill="none" xmlns="http://www.w3.org/2000/svg">
<path d="M36.1602 26.7398H39.1928V38.3073H36.1602V26.7398Z" fill="black"/>
<path d="M80.5309 33.3756V38.2631L77.4799 38.2521V26.3828L82.9747 31.1121V26.7398H86V38.7342L80.5309 33.3756Z" fill="black"/>
<path d="M20.9087 32.4923C20.9087 29.2094 23.5733 26.5448 26.8562 26.5448C28.3357 26.5448 29.6901 27.0895 30.7316 27.9838L28.7663 30.2141C28.251 29.7798 27.5849 29.5185 26.8562 29.5185C25.2147 29.5185 23.8824 30.8508 23.8824 32.4923C23.8824 34.1337 25.2147 35.466 26.8562 35.466C27.5959 35.466 28.2731 35.1937 28.7957 34.7447L30.7574 36.9787C29.7158 37.8877 28.3504 38.4361 26.8562 38.4361C23.5733 38.4361 20.9087 35.7752 20.9087 32.4923Z" fill="black"/>
<path d="M44.9674 40.9535L39.2296 25.7093H34.4341V38.3514H31.2947V25.7093H24.3461L25.9582 22.673H41.471L44.9674 31.8077L48.4674 22.673H63.4871L65.1432 25.7093H50.7088L44.9674 40.9535Z" fill="black"/>
<path d="M54.6615 38.2631V35.7089H56.7446C57.0832 35.7089 57.7273 35.6832 57.8892 35.1458C58.2241 34.027 54.794 32.2126 54.794 29.4302C54.794 27.325 56.3177 26.6957 57.3519 26.6957H60.5096V29.2057H58.559C58.559 29.2057 57.9996 29.2057 57.845 29.4302C56.9985 30.641 60.9807 32.4113 60.9807 35.6648C60.9807 37.3651 59.5233 38.2631 58.0695 38.2631H54.6615Z" fill="black"/>
<path d="M50.7529 26.6957H53.7892V38.2631H50.7529V26.6957Z" fill="black"/>
<path d="M61.4739 26.6957H64.5102V38.2631H61.4739V26.6957Z" fill="black"/>
<path d="M18.6047 38.3073L17.7987 36.1543H14.0337L13.2277 38.3073H10L15.9181 21.3628L21.8361 38.3073H18.6047ZM14.9538 33.0627H16.7461L15.8481 30.1037L14.9538 33.0627Z" fill="black"/>
<path d="M65.0623 32.4886C65.0623 29.202 67.7306 26.5337 71.0208 26.5337C74.3074 26.5337 76.9757 29.202 76.9757 32.4886C76.9757 35.7788 74.3074 38.4471 71.0208 38.4471C67.7306 38.4471 65.0623 35.7788 65.0623 32.4886ZM68.0618 32.4886C68.0618 34.1227 69.3867 35.4476 71.0208 35.4476C72.6512 35.4476 73.9762 34.1227 73.9762 32.4886C73.9762 30.8582 72.6512 29.5332 71.0208 29.5332C69.3867 29.5332 68.0618 30.8582 68.0618 32.4886Z" fill="black"/>
<path d="M22.9975 40.0018C23.2603 40.1667 23.5217 40.3341 23.7817 40.5041C24.4203 40.5171 25.0593 40.5259 25.6985 40.5326C26.6935 40.9666 27.4903 41.6946 28.132 42.559C28.1735 43.6059 28.058 44.6455 27.9181 45.68C28.0472 45.8464 28.3054 46.1791 28.4344 46.3454C28.3851 46.8269 28.3149 47.3073 28.1784 47.7731C28.0494 49.6985 28.1484 51.6298 28.1165 53.5579C28.3065 53.7462 28.497 53.9345 28.688 54.1228C28.9275 56.1762 28.7998 58.2622 28.5318 60.3053C28.2079 61.5316 28.6784 62.7563 28.7016 63.987C28.5065 64.319 28.1027 64.6154 28.2263 65.0489C28.3376 65.8206 28.1629 66.5874 28.0223 67.3425C27.855 68.53 27.4721 69.7623 27.8359 70.9489C28.9654 71.1433 30.2266 71.2524 31.057 70.2845C32.0743 70.6458 33.1502 70.7328 34.2227 70.6808C34.5229 70.4947 34.8239 70.3098 35.1258 70.1262C38.1263 69.7961 41.1451 70.0855 44.153 69.975C44.3979 71.4439 43.8784 73.0565 44.6645 74.4038C43.0731 74.3685 41.4227 74.5569 39.9214 73.9013C39.8028 73.8484 39.5657 73.7424 39.4472 73.6894C38.4221 73.4701 37.3695 73.5359 36.3304 73.4724C34.0507 72.8477 31.657 73.3179 29.3377 73.078C28.5306 72.8419 27.7126 72.6375 26.8653 72.6331C26.2834 73.1288 25.6846 73.6042 25.1 74.0969C24.1751 74.0998 23.2504 74.1012 22.3258 74.0997C22.4592 73.8573 22.5934 73.6157 22.7285 73.3751C23.2874 73.0322 23.826 72.6582 24.3701 72.2928C24.7608 70.4827 24.1059 68.6272 24.7772 66.8564C24.8692 66.521 24.9579 66.185 25.0435 65.8486C24.8303 65.6426 24.6175 65.4369 24.4051 65.2315C24.4026 64.1693 24.3807 63.1055 24.4678 62.0461C24.8171 61.0725 24.5659 60.0053 24.9197 59.0334C24.9802 58.0058 24.9223 56.9639 25.163 55.9549C25.324 55.4308 25.0884 54.9132 25.0294 54.3941C24.8156 53 25.2315 51.5444 24.7517 50.1873C24.7042 49.5395 24.6888 48.8903 24.676 48.2414C24.8255 48.113 25.1245 47.8561 25.2739 47.7276C25.3312 46.9006 25.3285 46.0659 25.121 45.258C25.6938 44.2336 25.4361 43.0905 24.8455 42.1371C24.7039 42.1311 24.4205 42.1192 24.2789 42.1132C23.8686 41.6603 23.4436 41.221 22.9945 40.8068C22.9952 40.6055 22.9968 40.2031 22.9975 40.0018Z" fill="black"/>
<path d="M46.674 40.575C49.3434 40.5488 52.0124 40.6209 54.6818 40.5908C55.2876 40.561 55.8773 40.7073 56.4478 40.8987C56.0967 41.6852 55.7365 42.4709 55.2637 43.1934C55.2512 43.5522 55.241 43.9111 55.2323 44.2702C54.9482 44.5949 54.6658 44.9204 54.3825 45.2451C54.3811 45.592 54.3804 45.9391 54.3803 46.2864C54.2501 46.4143 53.9895 46.6703 53.8593 46.7982C53.7537 47.5605 53.593 48.3132 53.4324 49.0654C52.7235 50.5077 53.2509 52.1778 52.7577 53.6774C52.5554 54.7029 51.7865 55.5878 51.893 56.6676C51.5926 57.1741 51.2349 57.6518 51.0126 58.2006C50.7946 59.5048 51.1911 60.8767 50.7404 62.1472C50.0823 63.7747 50.4809 65.6784 49.3377 67.1382C49.1484 67.8075 48.902 68.4587 48.626 69.097C49.3938 69.0589 50.1704 69.0407 50.9233 68.8695C51.2829 68.4168 51.4276 67.7207 52.0551 67.5521C53.2062 67.074 54.378 66.5768 55.2953 65.7052C55.9579 65.8284 56.749 65.6816 57.258 66.216C57.2079 66.5532 57.1268 66.8835 57.0146 67.207C57.2096 68.4065 57.3556 69.6336 57.193 70.8461C57.1037 70.9349 56.925 71.1127 56.8357 71.2016C55.4836 71.2955 54.1017 71.3451 52.7653 71.0788C52.3255 70.9722 51.8857 70.8715 51.4469 70.7664C51.1368 71.022 50.8255 71.2759 50.5159 71.5316C49.1872 71.4496 47.8418 71.5002 46.6332 72.1152C46.1289 71.3936 46.3922 70.4001 46.5892 69.6057C46.6265 69.3356 46.6626 69.0656 46.6977 68.7959C46.8211 68.6681 47.068 68.4123 47.1914 68.2844C47.4247 66.5877 48.0024 64.9219 47.792 63.1876C47.0106 62.2285 47.2475 60.9548 47.2401 59.8151C47.2565 58.013 48.2319 56.43 48.7747 54.7587C49.0572 54.0276 48.8543 53.2206 49.0996 52.4784C49.323 51.3654 50.0508 50.4125 50.1216 49.2644C50.2779 47.2319 52.1246 45.8692 52.3464 43.856C52.2082 43.8009 51.9316 43.6907 51.7933 43.6355C51.1465 43.6953 50.5151 43.5817 49.9906 43.1788C49.4337 43.2718 48.7256 43.2623 48.4611 43.8704C47.9136 45.0015 47.8766 46.2942 47.5044 47.4844C47.1069 47.6112 46.7113 47.7429 46.3167 47.8757C46.3287 47.3262 46.3322 46.7768 46.3252 46.2275C47.0177 44.4284 46.5313 42.452 46.674 40.575Z" fill="black"/>
<path d="M28.8839 41.0298C30.7933 40.9431 32.7054 41.0042 34.6161 40.9866C34.7194 41.2066 34.8232 41.4267 34.9275 41.6468C34.2175 41.9713 33.5627 42.4227 33.2317 43.1564C33.7272 44.2975 33.0892 45.5089 33.2445 46.6965C33.3833 49.2321 32.9575 51.8208 33.5852 54.3109C33.4583 54.463 33.2047 54.7672 33.0779 54.9193C33.1198 56.084 33.2504 57.2423 33.345 58.4033C33.4401 58.9781 32.9704 59.4065 32.729 59.8781C32.9691 60.9108 33.1782 61.9549 33.5517 62.9508C33.4407 64.1669 32.6749 65.3621 33.2318 66.5737C33.8196 66.9091 34.3933 67.269 34.9715 67.6216C34.9715 67.8177 34.9714 68.2099 34.9713 68.406C33.5775 68.3011 32.1807 68.3164 30.7872 68.4127C30.4449 68.6428 30.1002 68.8693 29.7507 69.0883C29.6416 68.2182 30.4313 67.7432 30.9516 67.206C30.891 65.4208 31.4803 63.6487 31.1522 61.8799C31.8769 59.7443 31.4045 57.4651 31.4149 55.2629C31.4462 53.1408 31.3331 51.0145 31.5 48.8963C31.0813 46.7871 31.3148 44.6101 30.9591 42.4859C30.2292 42.0573 29.517 41.5947 28.8839 41.0298Z" fill="black"/>
<path fill-rule="evenodd" clip-rule="evenodd" d="M69.4173 40.8542C68.301 40.5389 67.1854 40.2239 66.0099 40.2827C64.7705 40.4448 63.5193 40.4465 62.2728 40.4039C63.3142 41.0508 64.4106 41.7568 64.8646 42.9596C65.4888 42.6132 66.1543 42.7781 66.7779 43.0208C66.2049 43.6296 65.5651 44.1643 64.9253 44.699C64.5702 44.9959 64.215 45.2927 63.8712 45.6023C63.8138 46.7279 63.9459 47.8419 64.4297 48.8687C64.5663 49.6775 64.6564 50.4944 64.7464 51.3113C64.9037 52.7383 65.0609 54.1651 65.4664 55.5485C65.6134 57.1576 65.5707 58.7746 65.5279 60.3926C65.4963 61.5852 65.4648 62.7783 65.5092 63.9691L66.0414 64.5165C65.9038 65.3512 65.6134 66.1425 65.3229 66.9341C65.008 67.7921 64.6929 68.6506 64.5722 69.5652C66.1957 70.5807 67.7414 71.9148 68.2725 73.8345C68.5555 72.4197 68.8072 70.9762 68.6487 69.5293C68.5628 68.8177 68.6001 68.1047 68.6373 67.3923C68.6808 66.5604 68.7243 65.7292 68.5716 64.9018C68.617 63.5919 68.4531 62.2928 68.2891 60.9929C68.1668 60.0235 68.0445 59.0536 68.0089 58.0784C67.9306 57.3497 68.1785 56.6717 68.4255 55.9962C68.534 55.6996 68.6422 55.4035 68.7226 55.1038C69.3756 55.8083 69.8791 56.6279 70.3675 57.4506C70.3685 57.7151 70.3542 57.981 70.3398 58.247C70.3132 58.7403 70.2866 59.2342 70.3573 59.7204C70.8408 60.7206 71.2137 61.7674 71.4332 62.8584C71.8421 64.6792 71.915 66.5757 71.5874 68.4154C71.4386 69.0363 71.2189 69.6352 70.9991 70.2343C70.8509 70.6384 70.7027 71.0425 70.5761 71.4536C71.6382 71.3454 72.3918 71.9366 73.1551 72.5355C73.6771 72.945 74.2036 73.358 74.8364 73.5537C74.9037 72.8662 75.0354 72.1867 75.167 71.5077C75.3668 70.4767 75.5664 69.4466 75.5404 68.3909C75.5317 68.1182 75.5417 67.8396 75.5517 67.5596C75.5794 66.7815 75.6075 65.9932 75.2384 65.2921C74.9599 64.7508 74.9698 64.1551 74.9797 63.557C74.9864 63.153 74.9931 62.7479 74.9111 62.3576C74.8806 61.7676 74.6304 61.2434 74.3805 60.7199C74.1107 60.1545 73.8413 59.5901 73.8493 58.9444C73.8439 57.499 73.7139 56.0052 72.8553 54.7866C72.4589 54.3738 72.0649 53.9593 71.6738 53.5428C71.3322 53.5441 70.9914 53.5456 70.6513 53.5474C70.6504 53.2009 70.6504 52.8546 70.6513 52.5086C72.297 52.4541 73.1608 50.9766 73.7875 49.6635C73.8313 49.0857 73.871 48.5076 73.8957 47.9288L73.9054 47.8963C74.1788 46.981 74.4823 45.9647 74.0774 45.0405C74.0383 44.9467 73.9991 44.8515 73.9596 44.7555C73.3768 43.3405 72.7137 41.7308 71.1082 41.2822C70.5392 41.1711 69.9781 41.0126 69.4173 40.8542ZM70.361 45.7147C69.7368 44.9084 69.0877 44.0697 68.108 43.6905C68.0659 46.0456 68.0765 48.4014 68.0872 50.757C68.0894 51.2455 68.0916 51.7339 68.0933 52.2224C68.164 52.206 68.236 52.1901 68.3087 52.1741C68.9006 52.0437 69.5399 51.9028 69.9007 51.3724C70.3291 50.7282 70.4975 49.9812 70.6658 49.2344C70.7564 48.8327 70.8469 48.431 70.9779 48.0455C70.9711 47.9187 70.968 47.7896 70.9649 47.6597C70.9506 47.0547 70.9358 46.4322 70.5365 45.9407C70.4781 45.8659 70.4196 45.7904 70.361 45.7147Z" fill="black"/>
<path d="M36.3942 44.1529C36.3925 43.0444 36.2604 41.885 36.7492 40.8491C39.3776 40.8285 42.002 40.9839 44.6307 40.9621C44.6678 42.2164 44.9999 43.4426 44.9717 44.7007C44.9401 46.1515 45.1968 47.711 44.3592 48.9998C44.4268 49.1436 44.562 49.4312 44.6296 49.575C43.6477 50.9532 42.9764 52.5924 42.9076 54.2959C42.4342 54.6276 41.9262 54.9334 41.5598 55.39C41.3623 55.7971 41.4902 56.2693 41.4629 56.7042C40.2563 58.1639 39.4395 59.9397 39.1082 61.8038C38.921 62.7684 38.5546 63.6861 38.169 64.5861C38.1366 64.7029 38.0719 64.9365 38.0396 65.0533C37.8118 65.6223 37.609 66.2009 37.4303 66.7875C38.5732 66.472 39.7132 66.1157 40.81 65.6678C41.5602 64.7794 42.1119 63.6755 43.2115 63.1445C43.3534 62.863 43.4947 62.5813 43.6353 62.2994C43.801 62.3308 44.1324 62.3935 44.2981 62.4249C44.5947 61.8173 44.8639 61.1542 45.465 60.7803C45.533 61.3103 45.5921 61.8425 45.6567 62.3738C44.5149 63.9296 45.0817 65.9172 44.9648 67.6989C43.5975 68.3884 42.0351 68.1769 40.5865 67.926C40.0539 67.8498 39.6171 68.4036 39.0779 68.288C38.1193 68.1204 37.1452 68.1159 36.1793 68.0265C36.2682 67.2144 36.4004 66.4066 36.4322 65.5891C36.5365 65.4477 36.745 65.1648 36.8493 65.0234C36.6858 64.5994 36.5214 64.1768 36.3576 63.7542C35.864 61.9291 36.3825 60.0877 36.9471 58.3462C37.1853 57.6818 37.6095 57.1096 38.0029 56.5315C38.215 55.6724 38.6703 54.9093 39.2277 54.2308C39.251 53.971 39.2747 53.7114 39.2989 53.4522C39.5772 52.5966 39.8497 51.7379 40.1974 50.9072C40.8314 50.3221 41.4137 49.666 41.8583 48.9248C41.9021 48.3906 41.8448 47.8547 41.831 47.3206C42.5879 46.4696 43.2823 45.5659 43.9629 44.6534C43.9389 44.0023 43.925 43.3509 43.913 42.6996C42.791 42.6994 41.6695 42.7024 40.5479 42.6959C39.7444 43.1858 39.0252 43.827 38.8348 44.7927C38.4915 45.0438 38.1495 45.2963 37.8096 45.5513C37.7965 46.7233 38.059 47.9939 37.3585 49.0358C36.6799 47.7146 36.5251 46.2155 37.0142 44.8045C36.8072 44.5871 36.6006 44.3699 36.3942 44.1529Z" fill="black"/>
<path fill-rule="evenodd" clip-rule="evenodd" d="M75.8929 39.9003C75.1768 39.7497 74.4553 39.6264 73.731 39.5289C74.511 40.5009 75.4455 41.3284 76.3758 42.1521L76.3844 42.1598L76.3836 42.1765C76.3603 42.6615 76.3369 43.1467 76.3049 43.6314C75.6869 45.525 75.7083 47.5156 75.7295 49.4922C75.736 50.0922 75.7424 50.6909 75.7309 51.2852C75.8376 51.8699 75.8504 52.4623 75.8632 53.0538C75.8767 53.6785 75.8902 54.3022 76.0143 54.9145C76.0379 55.2524 76.0456 55.592 76.0532 55.9317C76.0691 56.6354 76.085 57.3394 76.2425 58.0291C76.4048 59.3381 76.8612 60.5861 77.489 61.7413C77.5778 62.6452 77.4698 63.5378 77.3617 64.4307C77.2814 65.0938 77.2011 65.7571 77.2014 66.4252C77.1794 67.4691 77.7417 68.3846 78.2709 69.2464C78.2974 69.2895 78.3238 69.3325 78.35 69.3754C77.9671 69.5722 77.5821 69.7647 77.1962 69.9531C77.4303 71.2945 77.336 72.6857 76.549 73.8396C76.6787 73.8009 76.8086 73.7594 76.939 73.7179C77.5207 73.5325 78.1117 73.3441 78.7269 73.3774C79.5467 73.4966 80.3362 73.2508 81.1129 73.009C81.2718 72.9596 81.4301 72.9103 81.588 72.8644C82.4509 72.6754 83.0349 71.9222 83.3556 71.1441C83.9206 69.6286 84.0601 68.0065 84.1456 66.4054C84.3988 65.0767 84.3756 63.727 84.3523 62.3783C84.3253 60.8105 84.2983 59.2441 84.7057 57.7135C85.5374 56.8944 85.538 55.7541 85.5386 54.6676C85.5386 54.5589 85.5387 54.4507 85.5396 54.3434C86.2392 53.033 85.9923 51.4737 85.7655 50.042C85.7402 49.8824 85.7152 49.7243 85.6918 49.5684C85.4803 48.8861 85.4926 48.1661 85.5048 47.4494C85.5213 46.4814 85.5377 45.5194 85.0025 44.6646C84.5744 43.6986 83.795 42.9747 83.0349 42.2688C82.9997 42.236 82.9644 42.2033 82.9293 42.1707C82.4952 42.1181 82.0627 42.0642 81.6313 42.0054C81.0344 41.9503 80.4407 41.8578 79.8687 41.6787C79.7436 41.6413 79.6184 41.6042 79.4932 41.5672C79.2429 41.4931 78.9927 41.419 78.7447 41.3421L78.2684 41.2178C77.9212 41.0125 77.5645 40.8245 77.2079 40.6366C76.7632 40.4023 76.3186 40.1681 75.8929 39.9003ZM80.6957 47.5797C80.0718 47.5048 79.4493 47.4275 78.8274 47.3494C78.6158 48.3683 78.7168 49.3933 78.8179 50.4196C78.883 51.0803 78.9482 51.7416 78.93 52.4021C78.9051 53.1555 79.0887 53.8777 79.2722 54.5998C79.4453 55.2804 79.6182 55.961 79.6165 56.6675C79.6197 58.0385 79.6152 59.4097 79.6108 60.7808C79.6021 63.4661 79.5934 66.1515 79.6419 68.8361C80.448 67.9302 80.7482 66.807 81.0497 65.6789C81.223 65.0302 81.3968 64.3798 81.6676 63.7681C81.839 62.7618 81.8137 61.717 81.7885 60.672C81.747 58.9547 81.7054 57.2368 82.5365 55.6874C82.6942 55.0742 82.8982 54.4728 83.179 53.9042C83.2681 52.7076 83.2741 51.4725 82.8041 50.3463C82.5764 49.3601 81.8428 48.6683 81.1303 47.9964C80.983 47.8575 80.8366 47.7194 80.6957 47.5797Z" fill="black"/>
<path fill-rule="evenodd" clip-rule="evenodd" d="M59.755 40.7004C59.4749 40.5052 58.6406 40.0396 58.7141 40.7304C58.7993 41.489 58.4463 42.0953 57.8645 42.5536C57.8847 43.5478 57.4358 44.3989 56.9848 45.2539C56.7218 45.7527 56.458 46.2528 56.2863 46.7834L56.3526 47.3439C55.501 48.4765 55.2136 49.8859 55.1936 51.277L54.8854 51.6658C54.7202 52.593 54.3884 53.4759 53.9502 54.3071C53.9355 54.8121 53.9174 55.3174 53.8837 55.8219L54.1765 56.2343C53.6727 57.7529 53.5391 59.3404 53.4092 60.9236C53.5145 61.0862 53.6207 61.2492 53.7276 61.4125C53.3691 61.6713 53.0123 61.9322 52.6575 62.1951C52.66 62.496 52.6631 62.7973 52.6667 63.0989C52.2925 63.4937 51.9229 63.8926 51.5598 64.2974C51.6737 64.6304 51.7868 64.9642 51.8991 65.2989C52.7389 64.9567 53.5925 64.6509 54.4462 64.3452C54.6352 64.2775 54.8242 64.2098 55.013 64.1417C55.1628 64.1514 55.3125 64.1608 55.4624 64.1702C55.9155 64.1986 56.3689 64.227 56.8222 64.2637C57.044 64.0601 57.2667 63.8571 57.4901 63.6545C57.3514 63.527 57.2124 63.3997 57.0735 63.2725C56.8637 63.0804 56.654 62.8883 56.4453 62.6956C56.4574 61.9696 56.4258 61.2444 56.3943 60.5197C56.3905 60.4327 56.3867 60.3458 56.383 60.2588C57.8038 60.9579 59.2157 61.7074 60.454 62.7044C60.2293 64.4335 59.425 65.9901 58.4646 67.4187C58.6188 67.637 58.7869 67.847 58.955 68.057C59.2757 68.4578 59.5968 68.8589 59.8228 69.3198C59.8864 70.0144 60.0695 70.6868 60.2523 71.3577C60.516 72.3262 60.7789 73.2915 60.6804 74.3162L61.2417 74.6372C61.5121 73.6847 61.7283 72.7092 61.752 71.7159L61.9987 71.2935C62.1588 70.7326 62.3274 70.1744 62.5006 69.6178C62.4586 68.5391 62.8728 67.567 63.2876 66.5934C63.6657 65.7058 64.0444 64.817 64.0785 63.8451C64.0807 63.688 64.0832 63.5307 64.0856 63.3735C64.1191 61.2116 64.1528 59.036 63.6988 56.91C63.5507 56.3108 63.5429 55.6988 63.5351 55.0869C63.5282 54.5409 63.5213 53.995 63.4146 53.4586C63.2818 52.9535 63.1513 52.4478 63.0209 51.9422C62.4251 49.6323 61.8296 47.3236 61.0047 45.081C61.1328 44.1988 60.7664 43.464 60.3977 42.7248C60.0791 42.0858 59.7589 41.4437 59.755 40.7004ZM60.1182 52.8969C59.4035 52.6382 58.787 52.1916 58.401 51.5292C58.384 52.4269 57.9535 53.2165 57.4918 53.9579C57.1839 55.3669 57.0721 56.8048 57.2502 58.2406C58.4754 58.1482 59.5512 58.7193 60.5269 59.3908C60.8218 57.2243 60.7238 55.0037 60.1182 52.8969Z" fill="black"/>
<path fill-rule="evenodd" clip-rule="evenodd" d="M12.5011 40.8534C11.8077 40.9353 11.1142 41.0173 10.4141 41.0149L10 41.6122L10.1711 42.3113C10.5843 42.7237 10.9957 43.1379 11.4052 43.5543L12.2231 43.5719C12.1243 44.0209 12.0226 44.4693 11.8981 44.9122C11.8308 46.2639 11.8366 47.6176 11.8424 48.9711C11.8449 49.546 11.8474 50.121 11.8443 50.6957C11.8286 51.0757 11.9009 51.4582 11.973 51.8393C12.0963 52.4918 12.2189 53.1405 11.8983 53.7663C11.7594 54.7411 11.8933 55.706 12.0273 56.6705C12.0808 57.0565 12.1344 57.4424 12.1705 57.8288C11.982 57.9966 11.7939 58.165 11.6061 58.3339C11.616 59.0315 11.597 59.7299 11.5779 60.4283C11.5441 61.667 11.5103 62.9058 11.6386 64.14C11.9155 65.8964 11.8779 67.6777 11.8405 69.4518C11.8336 69.7782 11.8267 70.1044 11.8218 70.4301C11.796 70.5961 11.7734 70.7688 11.7505 70.9446C11.603 72.0741 11.4385 73.3348 10.2802 73.8234C11.1518 74.192 12.0942 74.1478 13.0324 74.1038C13.4775 74.0829 13.9217 74.062 14.3568 74.0853C14.638 73.8623 14.9201 73.6406 15.2046 73.4225L15.6406 74.0345C15.9601 73.8736 16.2798 73.7126 16.5984 73.5504C16.9226 73.5364 17.247 73.5229 17.5715 73.5099C18.3515 72.6334 19.3436 72.0236 20.3319 71.4161C20.5396 71.2884 20.7472 71.1608 20.9526 71.0308C20.8549 69.8806 21.4017 68.8751 21.9621 67.9215C22.4945 67.0273 22.4421 65.9866 22.3915 64.9813C22.3832 64.8168 22.375 64.6532 22.3693 64.4913C22.8892 63.3201 22.8026 62.0706 22.716 60.8194C22.6692 60.1447 22.6225 59.4695 22.6707 58.8058C21.8466 57.8853 21.9412 56.7104 22.0328 55.5726C22.052 55.3338 22.0711 55.0966 22.0816 54.8637C21.9069 54.5527 21.6558 54.3025 21.4051 54.0526C21.2848 53.9328 21.1647 53.8131 21.0531 53.6868C21.0854 53.4132 21.148 53.145 21.2106 52.877C21.2402 52.7501 21.2698 52.6232 21.2962 52.4958C21.2152 52.467 21.1324 52.4395 21.0492 52.4118C20.5265 52.238 19.9846 52.0578 19.7185 51.532C20.788 50.5526 21.4726 49.2655 22.1447 48.002C22.1571 47.9786 22.1696 47.9552 22.182 47.9319C22.5981 47.2297 22.9122 46.3927 22.4663 45.6174C22.4204 44.988 22.4033 44.3572 22.3922 43.7266C22.2983 43.5668 22.2111 43.3961 22.1228 43.2235C21.8134 42.618 21.4923 41.9896 20.8325 41.732C20.2286 41.4995 19.6379 41.2202 19.1983 40.7295C18.2024 40.698 17.2061 40.6978 16.2098 40.6975C15.7045 40.6974 15.1992 40.6972 14.694 40.693C13.9582 40.6812 13.2298 40.7673 12.5011 40.8534ZM17.8242 44.4628C17.3597 44.4059 16.8954 44.349 16.4322 44.2832L16.3081 44.7751C16.0629 45.9617 16.0941 47.1709 16.1252 48.38C16.1426 49.0571 16.16 49.7342 16.1289 50.4073L16.9555 50.406C17.3429 49.6383 17.8952 48.9611 18.7091 48.6252C18.7004 48.2407 18.7412 47.8556 18.782 47.4709C18.8507 46.8216 18.9193 46.1737 18.75 45.5324L19.1231 45.1294C18.7232 44.9204 18.328 44.7033 17.9382 44.4768L17.8242 44.4628ZM18.3869 55.6192C17.5926 55.0425 16.8374 54.4142 16.1285 53.7354C16.1323 54.4038 16.124 55.072 16.1157 55.7403C16.1046 56.6341 16.0935 57.5279 16.1114 58.4218C16.1242 58.9687 15.9439 59.4861 15.7662 59.996C15.7423 60.0644 15.7186 60.1326 15.6953 60.2007C16.0195 62.1019 15.8628 64.0036 15.7059 65.9072C15.5963 67.2374 15.4867 68.5685 15.5409 69.901L15.0975 70.9425C16.1316 70.4738 17.1808 69.9084 17.8702 68.9759C18.3544 68.4188 18.3997 67.7114 18.445 67.0041C18.4685 66.6382 18.4919 66.2722 18.5762 65.9271L18.8178 65.1565L18.8298 65.113C19.1194 64.1782 18.9681 63.2221 18.8185 62.2769C18.778 62.0207 18.7376 61.7653 18.7061 61.5114C19.1423 60.9791 18.8919 60.4073 18.6562 59.8691C18.6132 59.771 18.5707 59.6739 18.533 59.5784C18.9029 58.2772 18.7904 56.8975 18.3869 55.6192Z" fill="black"/>
</svg>
