<svg width="96" height="96" viewBox="0 0 96 96" fill="none" xmlns="http://www.w3.org/2000/svg">
<rect x="16" y="16" width="64" height="64" rx="32" fill="#CC092F"/>
<mask id="mask0_161_3059" style="mask-type:alpha" maskUnits="userSpaceOnUse" x="16" y="16" width="64" height="64">
<path d="M48 79.9962C65.6731 79.9962 80 65.6701 80 47.9981C80 30.326 65.6731 16 48 16C30.3269 16 16 30.326 16 47.9981C16 65.6701 30.3269 79.9962 48 79.9962Z" fill="#CC092F"/>
</mask>
<g mask="url(#mask0_161_3059)">
<path d="M76.1951 56.6423C72.5352 55.1839 69.1847 55.6727 65.8263 57.7086C65.8263 57.7086 64.6024 58.4556 64.2358 58.6861C62.6709 59.6676 61.1947 60.5979 59.7757 60.5979C58.4216 60.5979 57.0893 60.2353 56.5257 57.616C55.6466 53.5303 53.5023 43.4906 52.5661 38.518C52.0163 35.5952 51.7147 34.0205 51.4013 32.9503C50.8495 31.07 49.8404 30.0472 48.4076 29.8836C48.4076 29.8836 48.1829 29.852 47.9996 29.852C47.8183 29.852 47.5699 29.8875 47.5699 29.8875C46.1509 30.057 45.1477 31.0799 44.5998 32.9503C44.2864 34.0205 43.9849 35.5952 43.435 38.518C42.4988 43.4906 40.3545 53.5303 39.4755 57.616C38.9118 60.2353 37.5795 60.5979 36.2255 60.5979C34.8065 60.5979 33.3303 59.6676 31.7654 58.6861C31.3988 58.4556 30.1729 57.7086 30.1729 57.7086C26.8165 55.6727 23.464 55.1839 19.806 56.6423C19.0157 56.9577 18.2373 57.3108 17.4962 57.6676C18.0027 59.2561 18.6333 60.8195 19.3684 62.2878C20.1785 61.8897 21.028 61.4947 21.8952 61.2384C23.1447 60.8699 24.4258 60.8502 25.6674 61.266C26.8736 61.6701 27.9478 62.3855 29.018 63.0576C31.0342 64.3249 33.3184 65.7616 36.2255 65.7616C40.5339 65.7616 43.5572 63.1896 44.5229 58.7039C45.2719 55.2272 46.9314 47.4659 47.9976 42.1129C47.9976 42.1129 50.7293 55.2272 51.4762 58.7039C52.442 63.1896 55.4673 65.7616 59.7757 65.7616C62.6827 65.7616 64.967 64.3249 66.9832 63.0576C68.0534 62.3855 69.1275 61.6701 70.3337 61.266C71.5734 60.8502 72.8564 60.8699 74.106 61.2384C74.9732 61.4947 75.8214 61.8901 76.6315 62.2882C77.3686 60.8199 77.9975 59.2558 78.504 57.6672C77.7629 57.3105 76.9855 56.9577 76.1951 56.6423" fill="white"/>
</g>
</svg>
