<svg width="97" height="96" viewBox="0 0 97 96" fill="none" xmlns="http://www.w3.org/2000/svg">
<path fill-rule="evenodd" clip-rule="evenodd" d="M24.8198 58.7232V41.6432H31.474C32.4194 41.6183 33.363 41.7376 34.2724 41.9969C35.026 42.2322 35.6612 42.7267 36.202 43.4547C36.7488 44.2147 37.0371 45.1303 37.0244 46.0665C37.0371 46.9588 36.7472 47.8292 36.202 48.5356C35.6612 49.2414 34.8853 49.6655 33.9204 49.8767C35.1222 50.0879 36.0372 50.5824 36.6484 51.3345C37.2619 52.1097 37.586 53.0746 37.5652 54.063C37.5652 55.38 37.1428 56.4858 36.2724 57.3804C35.402 58.275 34.0852 58.7215 32.2981 58.7215L24.8198 58.7232ZM27.7126 48.819H31.474C32.25 48.819 32.8389 48.5837 33.2852 48.1321C33.5074 47.9018 33.6804 47.6286 33.7937 47.3293C33.907 47.03 33.9583 46.7107 33.9445 46.391C33.9445 45.6149 33.6852 45.0276 33.1908 44.6516C32.6725 44.2736 32.045 44.0752 31.4036 44.0866H27.7126V48.819ZM27.7126 56.1579H31.6869C32.5333 56.1579 33.1908 55.9466 33.6852 55.5002C34.1797 55.0538 34.4149 54.4699 34.4149 53.7127C34.4209 53.3817 34.3569 53.0531 34.227 52.7486C34.0971 52.4441 33.9043 52.1705 33.6612 51.9458C33.1685 51.4994 32.5092 51.259 31.6869 51.259H27.6885V56.151L27.7126 56.1579Z" fill="#2473BB"/>
<path d="M42.0099 44.6086H39.1652V41.6432H42.0099V44.6086Z" fill="#2473BB"/>
<path d="M42.0099 58.7232H39.1652V46.0905H42.0099V58.7232Z" fill="#2473BB"/>
<path fill-rule="evenodd" clip-rule="evenodd" d="M45.0915 56.9632C46.0786 58.2991 47.5139 58.9859 49.3714 58.9859L49.3663 58.9808C51.0831 58.9808 52.5183 58.3712 53.6222 57.1692C54.7518 55.9695 55.3166 54.3704 55.3166 52.3716C55.3166 50.4193 54.7827 48.8499 53.6994 47.6496C52.6161 46.4494 51.229 45.8381 49.5362 45.8381C47.7491 45.8381 46.3138 46.4734 45.2323 47.696C44.1507 48.9186 43.6099 50.4949 43.6099 52.3528C43.5839 54.0106 44.1046 55.6309 45.0915 56.9632ZM52.3294 52.3476C52.3294 55.1946 51.3886 56.6283 49.4607 56.6283L49.4659 56.6352C49.0567 56.6492 48.6509 56.5569 48.2881 56.3673C47.9252 56.1777 47.6177 55.8973 47.3954 55.5534C46.9027 54.8254 46.6435 53.79 46.6435 52.4026C46.6435 51.1079 46.8787 50.0965 47.3491 49.3204C47.8195 48.5442 48.5628 48.1682 49.5362 48.1682C50.5096 48.1682 51.1912 48.5357 51.6427 49.2895C52.0942 50.0433 52.3294 51.0546 52.3294 52.3476Z" fill="#2473BB"/>
<path fill-rule="evenodd" clip-rule="evenodd" d="M77.2158 54.6932L79.803 55.0469C79.4845 56.1784 78.7976 57.1712 77.851 57.8681C76.8862 58.6288 75.6639 58.9859 74.2012 58.9859C72.4604 58.9859 71.0492 58.3981 69.9676 57.2225C68.9101 56.0462 68.3676 54.4459 68.3676 52.4472C68.3676 50.5412 68.9101 48.9666 69.9916 47.696C71.0732 46.4253 72.5308 45.8072 74.366 45.8072C76.1755 45.8072 77.5644 46.4185 78.5515 47.6651C79.5386 48.9117 80.0382 50.4897 80.0382 52.418L80.0142 52.7477H71.3376C71.3134 53.4457 71.3921 54.1434 71.5711 54.8185C71.7513 55.3515 72.0874 55.8181 72.5359 56.1579C73.0579 56.5467 73.6967 56.7459 74.3471 56.7228C75.7823 56.7468 76.7214 56.0651 77.2158 54.7V54.6932ZM77.0442 50.9224C77.0717 50.0995 76.7766 49.2985 76.2218 48.6902C75.9685 48.4124 75.6594 48.1913 75.3148 48.0413C74.9701 47.8913 74.5976 47.8157 74.2218 47.8196C73.8585 47.8087 73.497 47.8743 73.1607 48.0121C72.8245 48.15 72.5209 48.357 72.2698 48.6198C71.7548 49.1607 71.4475 49.9145 71.353 50.9018L77.0442 50.9259V50.9224Z" fill="#2473BB"/>
<path d="M89.2092 58.7232H92.0557L92.0488 50.5395C92.0488 48.776 91.6728 47.5535 90.8728 46.8477C90.0926 46.1476 89.0761 45.7691 88.0281 45.7883C86.3817 45.7883 85.1113 46.8701 84.1945 48.9873V46.0682H81.5833V58.6974H84.4589V52.2051C84.4589 50.8881 84.7405 49.9008 85.3053 49.2654C85.8701 48.6301 86.5053 48.3004 87.2573 48.3004C87.5212 48.2976 87.7826 48.3531 88.0227 48.4629C88.2627 48.5727 88.4756 48.7342 88.6461 48.9357C89.0221 49.3667 89.2092 50.0003 89.2092 50.8245V58.7232Z" fill="#2473BB"/>
<path fill-rule="evenodd" clip-rule="evenodd" d="M66.3801 47.5038C66.9442 48.1552 67.2208 48.8558 67.2208 49.5968C67.2208 50.7249 66.7504 51.6419 65.8096 52.3957C64.8688 53.1495 63.6224 53.4998 62.0704 53.4998C61.2766 53.4788 60.4877 53.3688 59.7184 53.1718C59.1313 53.4294 58.8498 53.8587 58.8498 54.4184C58.8555 54.5815 58.8961 54.7415 58.969 54.8876C59.0418 55.0336 59.1452 55.1623 59.2721 55.265C59.5536 55.5242 59.9777 55.665 60.5665 55.665H64.328C65.6224 55.665 66.6336 55.9941 67.3615 56.6524C67.715 56.9582 67.9972 57.3377 68.1882 57.7643C68.3792 58.1909 68.4744 58.6542 68.4671 59.1216C68.4671 60.3235 67.904 61.3091 66.7984 62.1093C65.6928 62.9095 64.0516 63.2855 61.8593 63.2855C57.7665 63.2855 55.7218 62.1333 55.7218 59.8513C55.7218 58.7232 56.333 57.8526 57.5793 57.2877C56.8034 56.6283 56.4033 55.914 56.4033 55.1946C56.4033 54.0887 57.0901 53.2182 58.4257 52.5605C57.2497 51.8548 56.6626 50.8658 56.6626 49.6191C56.6626 48.5614 57.0849 47.6668 57.9553 46.9147C58.8257 46.1626 60.1185 45.7849 61.8833 45.7849C62.7047 45.7908 63.5236 45.8777 64.328 46.0441L64.3607 46.0635L67.7856 44.9143L68.1856 47.3371L66.3801 47.5038ZM58.8017 58.0638C58.4017 58.4399 58.1905 58.8159 58.1905 59.1456C58.1905 59.7346 58.5339 60.2274 59.2206 60.6755C59.9073 61.1237 61.0077 61.3332 62.4825 61.3332C64.6919 61.3332 65.7752 60.7683 65.7752 59.6401C65.782 59.4424 65.7296 59.2473 65.6246 59.0796C65.5197 58.9119 65.3671 58.7795 65.1864 58.6992C64.7832 58.4776 64.3296 58.3641 63.8696 58.3695H60.8481C60.1567 58.3438 59.4704 58.2413 58.8017 58.0638ZM61.9297 51.8067C63.4816 51.8067 64.2576 51.0775 64.2576 49.6191C64.2662 49.3556 64.2183 49.0932 64.117 48.8498C64.0157 48.6063 63.8634 48.3873 63.6705 48.2077C63.2705 47.8316 62.7056 47.6204 61.976 47.6204C61.2464 47.6204 60.6369 47.8316 60.2369 48.2317C60.0329 48.4241 59.8727 48.6582 59.7672 48.918C59.6617 49.1779 59.6135 49.4574 59.6257 49.7376C59.6167 50.0172 59.6665 50.2955 59.7717 50.5546C59.877 50.8137 60.0355 51.0478 60.2369 51.2418C60.6369 51.5955 61.2 51.8067 61.9297 51.8067Z" fill="#2473BB"/>
<path d="M6.52192 43.0097C6.93795 44.4595 7.75271 45.7633 8.87339 46.7726C9.99407 47.7819 11.3756 48.4561 12.8607 48.7184C14.3457 48.9808 15.8746 48.8207 17.2732 48.2565C18.6717 47.6922 19.8837 46.7465 20.7712 45.5269C20.5157 45.6213 20.2453 45.669 19.9729 45.6677H19.9248C18.5617 45.6437 16.8913 44.6564 15.2689 43.2209C13.741 44.7748 11.013 46.2327 8.59063 46.4919C7.61681 45.5253 6.9044 44.3271 6.5202 43.0097" fill="url(#paint0_linear_308_3286)"/>
<path d="M21.566 37.3649C19.8919 38.4439 18.1205 39.3637 16.2749 40.1123C16.3245 40.2342 16.3641 40.36 16.3934 40.4883C16.6509 41.2645 16.1582 42.2295 15.2397 43.1705C16.862 44.6042 18.5325 45.5933 19.8973 45.6156H19.9436C20.2168 45.6189 20.4881 45.5711 20.7437 45.4748C21.7415 44.1011 22.2766 42.4456 22.2716 40.7476C22.3046 39.5787 22.0629 38.4183 21.566 37.3598" fill="url(#paint1_linear_308_3286)"/>
<path d="M21.566 37.3649C19.8919 38.4439 18.1205 39.3637 16.2749 40.1123C16.3245 40.2342 16.3641 40.36 16.3934 40.4883C16.6509 41.2645 16.1582 42.2295 15.2397 43.1705C16.862 44.6042 18.5325 45.5933 19.8973 45.6156H19.9436C20.2168 45.6189 20.4881 45.5711 20.7437 45.4748C21.7415 44.1011 22.2766 42.4456 22.2716 40.7476C22.3046 39.5787 22.0629 38.4183 21.566 37.3598" fill="url(#paint2_linear_308_3286)"/>
<path d="M14.2596 32.7145C13.3969 32.7132 12.5394 32.8483 11.7188 33.1146C13.4356 34.2908 15.082 36.6192 16.282 40.1238C18.1234 39.3661 19.894 38.4468 21.5731 37.3764C20.9243 35.9836 19.8914 34.805 18.5958 33.9792C17.3003 33.1533 15.7959 32.7146 14.2596 32.7145" fill="url(#paint3_linear_308_3286)"/>
<mask id="mask0_308_3286" style="mask-type:alpha" maskUnits="userSpaceOnUse" x="6" y="32" width="17" height="17">
<circle cx="14.2375" cy="40.7907" r="8.0516" fill="#C4C4C4"/>
</mask>
<g mask="url(#mask0_308_3286)">
<path d="M16.4006 40.4932C13.1782 30.5667 6.33338 29.5794 4.26466 37.3887C0.079162 53.186 17.6933 44.446 16.4006 40.4932Z" fill="url(#paint4_radial_308_3286)"/>
</g>
<mask id="mask1_308_3286" style="mask-type:alpha" maskUnits="userSpaceOnUse" x="4" y="33" width="9" height="13">
<path d="M5.50514 45.4376C6.47282 45.2871 8.07222 44.8789 9.45751 44.0178C11.5688 42.7054 12.7481 41.412 12.8812 40.5941C13.0144 39.7762 12.9383 39.4148 12.1965 37.5888C11.5238 35.9331 10.1161 33.9645 9.23548 33.0446C6.19736 34.2814 4.05566 37.2637 4.05566 40.7463C4.05566 42.4868 4.59065 44.1024 5.50514 45.4376Z" fill="#C4C4C4"/>
</mask>
<g mask="url(#mask1_308_3286)">
<path d="M2.57211 45.2906L4.07773 31.9779L14.8711 33.1301L13.3672 46.4668L2.57211 45.2906Z" fill="url(#paint5_radial_308_3286)"/>
</g>
<defs>
<linearGradient id="paint0_linear_308_3286" x1="5.88953" y1="46.0831" x2="22.9553" y2="46.0831" gradientUnits="userSpaceOnUse">
<stop stop-color="#D6E6A6"/>
<stop offset="1" stop-color="#D3DEAA"/>
</linearGradient>
<linearGradient id="paint1_linear_308_3286" x1="22.9722" y1="41.8045" x2="13.2904" y2="41.8045" gradientUnits="userSpaceOnUse">
<stop stop-color="#CDD894"/>
<stop offset="0.33" stop-color="#BFCF83"/>
<stop offset="1" stop-color="#9EBA56"/>
</linearGradient>
<linearGradient id="paint2_linear_308_3286" x1="22.9722" y1="41.8045" x2="13.2904" y2="41.8045" gradientUnits="userSpaceOnUse">
<stop stop-color="#CDD894"/>
<stop offset="0.33" stop-color="#BFCF83"/>
<stop offset="1" stop-color="#9EBA56"/>
</linearGradient>
<linearGradient id="paint3_linear_308_3286" x1="22.0376" y1="44.7226" x2="14.2873" y2="32.4845" gradientUnits="userSpaceOnUse">
<stop stop-color="#CFE294"/>
<stop offset="0.17" stop-color="#B9D187"/>
<stop offset="0.52" stop-color="#87B268"/>
<stop offset="1" stop-color="#338D45"/>
</linearGradient>
<radialGradient id="paint4_radial_308_3286" cx="0" cy="0" r="1" gradientUnits="userSpaceOnUse" gradientTransform="translate(10.0433 39.3462) scale(6.79329 6.79456)">
<stop stop-color="#151515"/>
<stop offset="0.09" stop-color="#313539"/>
<stop offset="0.21" stop-color="#454F58"/>
<stop offset="0.34" stop-color="#556677"/>
<stop offset="0.47" stop-color="#607A93"/>
<stop offset="0.59" stop-color="#698AAB"/>
<stop offset="0.73" stop-color="#6D96BE"/>
<stop offset="0.86" stop-color="#719DCA"/>
<stop offset="1" stop-color="#72A1D0"/>
</radialGradient>
<radialGradient id="paint5_radial_308_3286" cx="0" cy="0" r="1" gradientUnits="userSpaceOnUse" gradientTransform="translate(6.79113 38.521) rotate(-83.5332) scale(9.19659 5.44517)">
<stop stop-color="#E7F2F8"/>
<stop offset="0.12" stop-color="#CADBED"/>
<stop offset="0.3" stop-color="#A5C1E1"/>
<stop offset="0.48" stop-color="#89AED7"/>
<stop offset="0.66" stop-color="#76A2D1"/>
<stop offset="0.84" stop-color="#6A9BCD"/>
<stop offset="1" stop-color="#6699CC"/>
</radialGradient>
</defs>
</svg>
