<svg width="96" height="96" viewBox="0 0 96 96" fill="none" xmlns="http://www.w3.org/2000/svg">
<path d="M28.311 33.196C23.094 31.2989 25.9396 23.4395 31.1566 25.3366C28.9885 24.5236 26.6171 24.6591 24.5168 25.6076C22.4164 26.5562 20.7904 28.3177 20.0451 30.4858C19.232 32.6539 19.3675 35.0253 20.3161 37.1257C21.2646 39.226 23.0262 40.8521 25.1943 41.5974L67.9466 57.1806L31.1566 70.7313C26.6171 72.3573 21.6711 70.0537 19.9773 65.5143C18.3512 60.9748 20.6548 56.0288 25.1943 54.335C18.3512 56.8418 14.7603 64.4302 17.2672 71.2733C19.774 78.1164 27.3624 81.7073 34.2055 79.2004L74.3832 64.5657C77.4321 63.4817 79.4647 60.5005 79.4647 57.2484C79.4647 53.9962 77.4321 51.0828 74.3832 49.931L28.311 33.196Z" fill="#018374"/>
<path d="M68.0144 38.8194L31.2244 25.4043C29.0563 24.5913 26.685 24.7268 24.5846 25.6753C22.4843 26.6239 20.8582 28.3855 20.1129 30.5536C19.2999 32.7217 19.4354 35.093 20.3839 37.1934C21.3325 39.2937 23.0941 40.9198 25.2622 41.6651C18.4191 39.1582 14.8282 31.5698 17.335 24.7268C19.8419 17.8837 27.4303 14.2928 34.2733 16.7996L74.451 31.4343C77.4999 32.5184 79.5325 35.4995 79.5325 38.7517C79.5325 42.0038 77.4999 44.9172 74.451 46.069L28.3788 62.8718C23.1618 64.7689 26.0075 72.6283 31.2244 70.7312C29.0563 71.5443 26.685 71.4088 24.5846 70.4602C22.4843 69.5117 20.8582 67.7501 20.1129 65.582C19.2999 63.4139 19.4354 61.0425 20.3839 58.9422C21.3325 56.8418 23.0941 55.2157 25.2622 54.4704L68.0144 38.8194Z" fill="#02BC94"/>
</svg>
