<svg width="96" height="96" viewBox="0 0 96 96" fill="none" xmlns="http://www.w3.org/2000/svg">
<path d="M54.9758 41.5764L49.4586 54.1623H50.6406L52.5725 49.7503H57.3817L59.3268 54.1623H60.4939L54.9758 41.5764ZM54.9691 44.2758L56.9116 48.6818H53.0405L54.9691 44.2758Z" fill="#263D96"/>
<path d="M75.0428 54.1595H76.1104V41.8377H75.0428V54.1595Z" fill="#263D96"/>
<path d="M41.539 47.2771L35.9096 41.6036L35.9158 54.1594H36.9846V44.2067L41.5272 48.8041L46.1545 44.1832V54.1594H47.2221V41.5963L41.539 47.2771Z" fill="#263D96"/>
<path d="M80.4817 43.3355V54.1596H81.5505V44.6065L89.807 54.4235V41.8377H88.7383V51.4355L80.4817 41.6299V43.3355Z" fill="#263D96"/>
<path d="M63.8964 42.917H68V42.9195C69.1974 42.9195 70.1696 43.8797 70.1929 45.0718V45.2754C70.1696 46.4672 69.1974 47.4271 68 47.4271V47.4313H63.8964V42.917ZM70.569 54.1645L71.7758 54.1642L68.8213 48.396C70.1467 48.0528 71.1451 46.9017 71.2584 45.4977H71.2618V45.4297C71.2659 45.3641 71.272 45.2985 71.272 45.2314H71.2618V45.116H71.272C71.272 45.0487 71.2662 44.9833 71.2618 44.9171V44.9138C71.157 43.2011 69.7389 41.8446 68.0001 41.8446H62.8278V54.1629H63.8965V48.4997H67.6655L70.569 54.1645Z" fill="#263D96"/>
<path d="M11.6295 50.8266H11.6195C11.6195 52.0793 10.604 53.0942 9.351 53.0942V53.095H5.06852V48.5068L9.49931 48.5239V48.5272C10.2703 48.5272 10.9406 48.9024 11.332 49.5104C11.4965 49.8541 11.6195 50.2008 11.6195 50.6089L11.6295 50.6097L11.6295 50.8266ZM9.1712 42.917V42.9194C10.3709 42.9194 11.3447 43.8823 11.3655 45.077V45.2698C11.3447 46.4642 10.3709 47.4356 9.1712 47.4356H5.06852V42.9168L9.1712 42.917ZM12.6906 50.5294C12.6753 49.9323 12.5256 49.3985 12.2313 48.9227C11.95 48.4721 11.5704 48.1111 11.1225 47.8568C11.8552 47.3092 12.3525 46.4626 12.4302 45.4977H12.4337V45.4297C12.4378 45.364 12.4437 45.2984 12.4437 45.2313H12.4337V45.116H12.4437C12.4437 45.0486 12.4378 44.9833 12.4337 44.9171V44.9137H12.4334C12.3284 43.2011 10.9103 41.8436 9.17117 41.8436V41.8486L4 41.842V54.1633H9.36921V54.1616C11.1854 54.1516 12.6568 52.6947 12.6933 50.8852H12.6977V50.5297L12.6906 50.5294Z" fill="#263D96"/>
<path d="M26.8785 53.2842C24.2312 53.2842 22.0386 51.3391 21.6529 48.7992H21.6463C21.6075 48.5424 21.5878 48.2878 21.5878 48.0194C21.5878 47.787 21.6007 47.5692 21.6299 47.3447H21.6337C21.9559 44.7336 24.1806 42.7117 26.8784 42.7117C29.5766 42.7117 31.7986 44.7227 32.1205 47.3335C32.1505 47.5618 32.1635 47.7834 32.1635 48.0194C32.1635 48.2907 32.1438 48.5479 32.1041 48.8078C31.718 51.3476 29.5257 53.2842 26.8785 53.2842H26.8785ZM20.5614 48.7992C20.9557 51.9382 23.6324 54.3671 26.8785 54.3671C30.1248 54.3671 32.8032 51.9355 33.1978 48.7966C33.2285 48.5426 33.2464 48.2819 33.2464 48.0194C33.2464 47.7781 33.2367 47.5598 33.2105 47.3247C32.883 44.1142 30.1754 41.6294 26.8785 41.6294C23.5885 41.6294 20.8825 44.1245 20.5455 47.3247H20.5408C20.5147 47.5598 20.5049 47.7781 20.5049 48.0194C20.5049 48.2819 20.5229 48.5426 20.5538 48.7966" fill="#263D96"/>
<path d="M91.1142 42.6128C91.2513 42.6128 91.4514 42.6357 91.4514 42.4395C91.4514 42.2891 91.3287 42.2708 91.2101 42.2708H90.9338V42.6128H91.1142ZM91.5683 43.1516H91.4267L91.151 42.7067H90.9338V43.1516H90.8152V42.1861H91.2378C91.4935 42.1861 91.5791 42.282 91.5791 42.4418C91.5791 42.631 91.447 42.702 91.2763 42.7067L91.5683 43.1516ZM91.8625 42.6678C91.8625 42.2479 91.5571 41.9195 91.1371 41.9195C90.7152 41.9195 90.4068 42.2479 90.4068 42.6678C90.4068 43.0921 90.7152 43.4208 91.1371 43.4208C91.5571 43.4208 91.8625 43.0921 91.8625 42.6678ZM90.2697 42.6678C90.2697 42.1932 90.6575 41.805 91.1371 41.805C91.6136 41.805 91.9999 42.1932 91.9999 42.6678C91.9999 43.1469 91.6136 43.535 91.1371 43.535C90.6575 43.535 90.2697 43.1469 90.2697 42.6678Z" fill="#263D96"/>
<path fill-rule="evenodd" clip-rule="evenodd" d="M15.8612 41.8888L15.6229 42.0257L15.4137 42.1846L15.3486 42.3291L15.2618 42.4518L15.2415 42.4959L15.2344 42.54L15.2477 42.5889L15.3271 42.8055L15.4643 42.8923L15.6229 43.0727L15.7385 43.181L15.9045 43.2604L16.0707 43.311H16.3017L16.4536 43.3399L16.6193 43.3543L16.8432 43.3687L17.0595 43.3832L17.3267 43.3617L17.5291 43.3037L17.7745 43.2025L17.8831 43.08L18.0055 42.9644L18.1068 42.8055L18.0991 42.6395L18.0561 42.4012L17.7963 42.0257L17.5653 41.8524L17.4514 41.7965L17.3658 41.7629L17.2837 41.7514L17.0165 41.7732L16.7496 41.7293L16.6192 41.7081L16.4536 41.744L16.2367 41.7731L16.0995 41.8234L15.8612 41.8888Z" fill="#F15029"/>
<path fill-rule="evenodd" clip-rule="evenodd" d="M15.522 45.8382L16.8071 45.8673L16.9989 45.8273L17.2461 45.8223L17.4924 45.8479L17.6807 45.9009L17.8246 46.0001L17.877 46.0657L17.9103 46.1378L17.9185 46.2146L17.8965 46.2923L17.8385 46.3693L17.7402 46.4423L17.5907 46.4718L17.33 46.4724L16.6249 46.4191L15.5473 46.2967L15.5064 46.2788L15.4823 46.2364L15.4717 46.1046L15.522 45.8382Z" fill="#ED192E"/>
<path fill-rule="evenodd" clip-rule="evenodd" d="M15.7098 47.7152L15.9046 47.7905L16.0029 47.8258L16.0994 47.8233L16.9728 47.7838L17.323 47.8141L17.5976 47.8815L17.7206 47.9142L17.7912 47.9431L17.8489 47.986L17.9107 48.0949L17.9207 48.2017L17.8945 48.2918L17.8468 48.3503V48.4089L16.9928 48.4072L16.7068 48.4105L16.4246 48.3859L16.1403 48.3358L15.8884 48.2952L15.7045 48.2672L15.633 48.2476L15.5833 48.2011L15.5112 48.051L15.4788 47.8889L15.7098 47.7158L15.7098 47.7152ZM15.8828 47.0228L15.9932 47.0914L16.065 47.1332L16.143 47.1544L16.1998 47.1429L16.2642 47.1108L16.3304 47.0791L16.3937 47.0661L16.5064 47.1058L16.6265 47.1471L16.7271 47.1164L16.8289 47.0858L16.9505 47.1309L17.009 47.1544H17.067L17.4413 47.1035L17.7279 47.1494L17.7465 47.1615L17.7532 47.1759L17.7453 47.2112L17.7326 47.2491L17.7441 47.2863L17.8153 47.3283L17.896 47.3598L17.928 47.3839L17.9492 47.4196L17.9551 47.4716L17.9407 47.5443L17.9142 47.5805L17.8639 47.6084L17.7012 47.6434L17.19 47.6635L16.4567 47.5678L15.8196 47.4507L15.7261 47.4113L15.6546 47.3283L15.6098 47.2282L15.5942 47.1382L15.8828 47.0228Z" fill="#EC047C"/>
<path fill-rule="evenodd" clip-rule="evenodd" d="M15.7099 48.6973L16.0995 48.7479L16.2278 48.7612L16.3411 48.7427L16.4903 48.7268L16.726 48.7462L17.0644 48.7512L17.4064 48.7333L17.5217 48.7308L17.6235 48.7717L17.8001 48.92L17.8578 48.9918L17.8925 49.0786L17.901 49.171L17.8793 49.2649L17.776 49.555L17.7165 49.6822L17.6303 49.7843L17.5823 49.8064L17.5217 49.8106L17.3781 49.7835L17.2275 49.7429L17.098 49.7267L17.0062 49.7502L16.9232 49.79L16.8378 49.8262L16.7404 49.837L16.4638 49.7646L16.3088 49.7417L16.1284 49.7732L16.0795 49.7765L16.0351 49.7571L15.9907 49.7336L15.9409 49.7209L15.8312 49.7175L15.79 49.7055L15.7673 49.6796L15.6375 49.4771L15.4945 49.3106L15.4374 49.2347L15.4174 49.1449L15.4518 49.0393L15.5284 48.9272L15.7099 48.6973Z" fill="#AA118E"/>
<path fill-rule="evenodd" clip-rule="evenodd" d="M16.2152 50.7192L16.3582 50.7117L16.5039 50.7258L17.3325 50.8076L17.565 50.8432L17.7863 50.9041L17.8855 50.965L17.9738 51.056L18.0485 51.1863L18.1071 51.3629L18.1506 51.663L18.1362 51.8128L18.08 51.9514L18.0046 52.0406L17.9037 52.1168L17.6368 52.233L16.932 52.3222L16.711 52.2934L16.4939 52.2325L16.2808 52.1727L16.071 52.1486L15.7762 52.113L15.5563 52.0044L15.4083 51.8496L15.3289 51.674L15.3094 51.4771L15.3565 51.3094L15.4525 51.1702L15.5796 51.0563L15.8565 50.9036L16.0457 50.8379L16.0922 50.8144L16.1243 50.7811L16.1596 50.7467L16.2152 50.7192Z" fill="#3A3899"/>
<path fill-rule="evenodd" clip-rule="evenodd" d="M16.8886 52.7494L17.1597 52.774L17.4425 52.8776L17.5249 52.9545L17.5925 53.0171L17.7359 53.0477L17.8021 53.0666L17.8468 53.1074L17.9189 53.43L17.9248 53.6357L17.8918 53.8051L17.8301 53.9131L17.7441 54.0058L17.5119 54.1533L17.22 54.2507L16.894 54.3001L16.5576 54.3051L16.2366 54.2695L15.9553 54.1954L15.7387 54.0856L15.671 54.0212L15.6245 53.945L15.5671 53.7719L15.5471 53.5792L15.5868 53.4114L15.6731 53.2684L15.7934 53.1481L16.0839 52.9803L16.3543 52.905L16.6265 52.8229L16.8886 52.7494Z" fill="#062849"/>
</svg>
