<svg width="96" height="96" viewBox="0 0 96 96" fill="none" xmlns="http://www.w3.org/2000/svg">
<path d="M73.1711 70.9962L50.2256 51.7686L26.4498 70.9962H73.1711Z" fill="#FFC400"/>
<path d="M31.7599 63.4048C33.4956 61.957 33.7939 60.1643 33.7939 58.5557V51.7997H24.3604V60.9659C24.3604 62.2788 23.2993 63.3425 21.9891 63.3425C20.6789 63.3425 19.7033 62.2788 19.7033 60.9659V34.9978C19.7033 33.6876 20.6789 32.6239 21.9891 32.6239C23.2993 32.6239 24.3604 33.6876 24.3604 34.9978V44.2238H33.781V34.6528C33.781 29.3652 30.3251 25.0143 21.9086 25.0039C13.2664 25.0039 10 29.3756 10 34.6631V61.778C10 67.0189 14.1615 70.9832 19.4828 70.9832H22.4042L31.7599 63.4048Z" fill="black"/>
<path d="M68.9491 64.4685V34.6709H62.437V25.8938H86V34.6709H79.4567V70.9287H76.6651L68.9491 64.4685Z" fill="black"/>
<path d="M47.6874 46.5874L50.2274 33.6046L52.7544 46.5874H47.6874ZM56.7706 25.9405H43.627L35.9707 60.2992L50.23 48.7875L65.0963 61.2462L56.7706 25.9405Z" fill="black"/>
</svg>
