<svg width="96" height="96" viewBox="0 0 96 96" fill="none" xmlns="http://www.w3.org/2000/svg">
<path d="M27.6467 39.512C25.9175 39.512 24.4564 40.0899 23.3275 41.1835V34.1336H20.748V54.8155H23.3275V46.2497C23.3275 43.778 25.0649 41.9845 27.4581 41.9845C29.7913 41.9845 31.1851 43.4981 31.1851 46.0349V54.8155H33.7639V45.7924C33.7639 42.0361 31.3056 39.512 27.6467 39.512Z" fill="#1B619A"/>
<path d="M37.521 50.07C37.521 48.4598 38.9747 47.4994 41.4098 47.4994C43.0656 47.4994 44.3928 47.7405 45.4318 47.986V49.0467C45.4318 51.0955 43.4713 52.6397 40.8716 52.6397C39.206 52.6397 37.521 51.7759 37.521 50.1231V50.07ZM41.5977 39.6201C39.4306 39.6201 37.786 40.2482 36.4626 40.862L35.9131 41.118L36.8937 43.4625L37.5001 43.1533C38.8804 42.4474 40.1574 42.1188 41.5176 42.1188C43.2452 42.1188 45.2918 42.7124 45.3966 45.4701C44.3658 45.2365 43.1472 45.0531 41.4899 45.0531C37.4626 45.0531 34.8614 47.0548 34.8614 50.1501V50.2039C34.8614 53.4093 37.9163 55.1384 40.7907 55.1384C42.9293 55.1384 44.416 54.3457 45.4056 53.4991V54.8158H47.9581V45.631C47.9581 41.8665 45.58 39.6201 41.5977 39.6201Z" fill="#1B619A"/>
<path d="M52.029 42.1678V39.8354H49.4494V54.8162H52.029V48.5628C52.029 44.2601 54.6976 42.334 57.3429 42.334H58.1072V39.6243H57.5016C55.4214 39.6243 53.4243 40.5001 52.029 42.1678Z" fill="#1B619A"/>
<path d="M65.3763 52.559C63.9151 52.559 63.2638 51.9332 63.2638 50.5274V42.3345H68.077V39.624H63.2638V35.4508H60.6843V39.624H58.9439V42.3345H60.6843V50.6614C60.6843 53.3734 62.3985 55.0584 65.1607 55.0584C66.0754 55.0584 66.8457 54.8908 67.6571 54.5165L68.0247 54.3466V51.7311L67.1354 52.1301C66.4377 52.443 65.9609 52.559 65.3763 52.559Z" fill="#1B619A"/>
<path d="M74.9975 41.9845C77.6391 41.9845 78.878 43.9779 79.2111 46.0499H70.6768C71.1259 43.662 72.8506 41.9845 74.9975 41.9845ZM75.0506 39.512C71.0473 39.512 67.9109 42.9321 67.9109 47.2985V47.3524C67.9109 51.7905 71.0728 55.1388 75.2654 55.1388C78.4146 55.1388 80.2007 53.6507 81.4044 52.355L81.8438 51.8804L79.9843 50.241L79.5666 50.6887C78.3233 52.0196 76.9744 52.6394 75.3201 52.6394C73.3469 52.6394 71.1447 51.3362 70.6536 48.4947H81.9164L81.9441 47.94L81.9755 47.3793V47.3262C81.9755 42.7255 79.1287 39.512 75.0506 39.512Z" fill="#1B619A"/>
<path d="M91.3952 39.62C89.3014 39.5369 87.3155 40.5003 85.9217 42.168V39.8348H83.3422V54.8156H85.9217V48.5622C85.9217 44.2603 88.5911 42.3342 91.235 42.3342H92V39.6439L91.3952 39.62Z" fill="#1B619A"/>
<path d="M17.5923 50.9145C16.2247 52.0516 14.8773 52.5576 13.2215 52.5576C9.53033 52.5576 6.63866 49.1367 6.63866 44.7681C6.63866 40.3577 9.46894 37.0333 13.2215 37.0333C14.8069 37.0333 16.1026 37.5019 17.4238 38.5529L17.864 38.904L19.7683 36.9996L19.2421 36.5572C18.1627 35.6477 16.3669 34.4381 13.2469 34.4381C7.97483 34.4381 4 38.9032 4 44.8235C4 50.7124 7.94189 55.1528 13.1705 55.1528C16.3557 55.1528 18.2151 53.8002 19.3364 52.7822L19.8267 52.3375L18.0347 50.547L17.5923 50.9145Z" fill="#1B619A"/>
<path d="M5.54031 59.8601V59.8489C5.54031 58.7403 6.37046 57.8315 7.55243 57.8315C8.27104 57.8315 8.70595 58.0823 9.07873 58.4394L8.63858 58.9461C8.32644 58.6564 7.99258 58.4618 7.54644 58.4618C6.80537 58.4618 6.25893 59.0741 6.25893 59.8377V59.8489C6.25893 60.6124 6.79938 61.2307 7.54644 61.2307C8.02552 61.2307 8.33242 61.0413 8.66628 60.7292L9.10718 61.1753C8.69996 61.599 8.25457 61.8662 7.52398 61.8662C6.38768 61.8662 5.54031 60.9807 5.54031 59.8601Z" fill="#8F8B8D"/>
<path d="M14.9093 59.8601V59.8489C14.9093 59.0913 14.3577 58.4618 13.5829 58.4618C12.8082 58.4618 12.2677 59.0801 12.2677 59.8377V59.8489C12.2677 60.6072 12.8194 61.2307 13.5941 61.2307C14.3689 61.2307 14.9093 60.6184 14.9093 59.8601ZM11.5491 59.8601V59.8489C11.5491 58.7515 12.3965 57.8315 13.5941 57.8315C14.7926 57.8315 15.628 58.7403 15.628 59.8377V59.8489C15.628 60.947 14.7813 61.8662 13.5829 61.8662C12.3852 61.8662 11.5491 60.9582 11.5491 59.8601Z" fill="#8F8B8D"/>
<path d="M18.4664 57.8988H19.1962L20.3834 59.7432L21.5706 57.8988H22.3005V61.7995H21.6148V59.0021L20.3834 60.8413H20.3609L19.1408 59.0134V61.7995H18.4664V57.8988Z" fill="#8F8B8D"/>
<path d="M25.3057 57.8988H26.0355L27.2227 59.7432L28.4099 57.8988H29.1398V61.7995H28.4541V59.0021L27.2227 60.8413H27.2003L25.9801 59.0134V61.7995H25.3057V57.8988Z" fill="#8F8B8D"/>
<path d="M32.0836 60.1443V57.8986H32.7693V60.1166C32.7693 60.8412 33.1421 61.2259 33.7551 61.2259C34.363 61.2259 34.7365 60.8636 34.7365 60.1443V57.8986H35.4214V60.1114C35.4214 61.2754 34.7642 61.8607 33.7439 61.8607C32.7304 61.8607 32.0836 61.2754 32.0836 60.1443Z" fill="#8F8B8D"/>
<path d="M38.3654 57.8988H39.0009L41.0902 60.5958V57.8988H41.7646V61.7995H41.1905L39.0399 59.0246V61.7995H38.3654V57.8988Z" fill="#8F8B8D"/>
<path d="M44.8142 57.899H45.4999V61.7997H44.8142V57.899Z" fill="#8F8B8D"/>
<path d="M48.3762 59.8601V59.8489C48.3762 58.7403 49.2063 57.8315 50.3875 57.8315C51.1069 57.8315 51.5418 58.0823 51.9146 58.4394L51.4744 58.9461C51.1623 58.6564 50.8284 58.4618 50.3823 58.4618C49.6412 58.4618 49.0955 59.0741 49.0955 59.8377V59.8489C49.0955 60.6124 49.636 61.2307 50.3823 61.2307C50.8621 61.2307 51.1683 61.0413 51.5029 60.7292L51.943 61.1753C51.5358 61.599 51.0904 61.8662 50.3598 61.8662C49.2235 61.8662 48.3762 60.9807 48.3762 59.8601Z" fill="#8F8B8D"/>
<path d="M57.032 60.2504L56.3575 58.6904L55.6891 60.2504H57.032ZM56.0514 57.8708H56.6862L58.4026 61.7992H57.6787L57.2828 60.8575H55.4383L55.0371 61.7992H54.3349L56.0514 57.8708Z" fill="#8F8B8D"/>
<path d="M61.5361 58.5339H60.2988V57.8984H63.4644V58.5339H62.227V61.7991H61.5361V58.5339Z" fill="#8F8B8D"/>
<path d="M66.2296 57.899H66.9153V61.7997H66.2296V57.899Z" fill="#8F8B8D"/>
<path d="M73.1516 59.8601V59.8489C73.1516 59.0913 72.5999 58.4618 71.8252 58.4618C71.0504 58.4618 70.51 59.0801 70.51 59.8377V59.8489C70.51 60.6072 71.0617 61.2307 71.8364 61.2307C72.6112 61.2307 73.1516 60.6184 73.1516 59.8601ZM69.7914 59.8601V59.8489C69.7914 58.7515 70.6387 57.8315 71.8364 57.8315C73.0349 57.8315 73.8702 58.7403 73.8702 59.8377V59.8489C73.8702 60.947 73.0236 61.8662 71.8252 61.8662C70.6275 61.8662 69.7914 60.9582 69.7914 59.8601Z" fill="#8F8B8D"/>
<path d="M76.7083 57.8988H77.3438L79.4337 60.5958V57.8988H80.1075V61.7995H79.5333L77.3827 59.0246V61.7995H76.7083V57.8988Z" fill="#8F8B8D"/>
<path d="M82.8511 61.231L83.2635 60.7407C83.6371 61.0641 84.0158 61.2475 84.4949 61.2475C84.9186 61.2475 85.1858 61.0477 85.1858 60.7572V60.7467C85.1858 60.4675 85.0301 60.3171 84.3055 60.1501C83.4754 59.9495 83.0068 59.704 83.0068 58.9854V58.9742C83.0068 58.3049 83.5645 57.8431 84.3392 57.8431C84.9074 57.8431 85.3587 58.016 85.7547 58.3334L85.3864 58.8514C85.0354 58.5894 84.6843 58.4502 84.328 58.4502C83.9268 58.4502 83.6925 58.6568 83.6925 58.9128V58.924C83.6925 59.2249 83.8706 59.3589 84.6229 59.5371C85.4478 59.7377 85.8715 60.0334 85.8715 60.6794V60.6906C85.8715 61.4204 85.2974 61.8553 84.4784 61.8553C83.8818 61.8553 83.3189 61.6487 82.8511 61.231Z" fill="#8F8B8D"/>
</svg>
