<svg width="96" height="96" viewBox="0 0 96 96" fill="none" xmlns="http://www.w3.org/2000/svg">
<path d="M47.9926 34.0123C48.3171 33.4825 48.8554 32.9281 49.4351 32.6937C50.4328 32.2397 51.7702 32.4349 52.5842 33.1533C53.372 33.8669 53.7716 34.8451 53.583 35.9386C53.7762 35.903 53.9713 35.7793 54.1758 35.7089C55.3986 35.3638 56.6919 35.738 57.4759 36.7864C58.0648 37.5349 58.2187 38.6977 57.8652 39.6018C57.6898 40.0566 57.3906 40.4655 57.0016 40.8144L57.0408 40.8538C58.1784 40.9091 59.2964 41.7925 59.6415 42.8757C60.0157 43.9683 59.6865 45.1358 58.8875 45.9349C58.2347 46.5802 57.3953 46.8035 56.4623 46.7846H39.5222C38.1313 46.8146 37.0566 46.1984 36.478 44.9616C36.024 43.8999 36.2482 42.5419 37.0959 41.7326C37.6305 41.1736 38.3001 40.9447 39.0223 40.8294C38.2045 40.0707 37.8105 39.0326 38.0403 37.9193C38.2045 37.0172 38.9735 36.1037 39.8569 35.7886C40.6352 35.4791 41.6895 35.5335 42.4023 35.9536L42.4276 35.9226C42.2128 34.695 42.7568 33.5874 43.7751 32.9084C44.6831 32.2942 46.1348 32.3101 47.0238 32.963C47.4234 33.2076 47.7525 33.6278 47.9926 34.0123Z" fill="white"/>
<path d="M52.7886 34.4709C53.1526 35.2053 52.9388 36.1675 52.5589 36.8268L49.6198 43.4394L49.5943 43.4704L48.5319 36.7621C48.4467 36.1179 49.1349 35.8431 49.5401 35.5336C49.5195 35.4389 49.4153 35.4436 49.3498 35.3995L48.3567 35.3891L48.3265 35.3591C48.3321 34.5263 48.7805 33.7573 49.5401 33.3532C50.3336 32.8946 51.4514 33.0193 52.1397 33.6073C52.4192 33.8567 52.6546 34.1464 52.7886 34.4709Z" fill="#645FAA"/>
<path d="M47.3734 34.241C47.6136 34.6855 47.7525 35.1902 47.668 35.749L46.4695 43.4299C46.476 43.4392 46.4648 43.4496 46.4553 43.4541L46.1449 42.8362L43.141 36.1279C42.8615 35.2642 43.1205 34.3611 43.7497 33.742C44.3836 33.0987 45.4265 32.9242 46.2556 33.2732C46.6945 33.4627 47.1137 33.8116 47.3734 34.241Z" fill="#C9234A"/>
<path d="M57.1362 37.4754C57.5404 38.1647 57.4495 39.2076 57.0001 39.8472C56.7217 40.2964 56.2621 40.5206 55.8728 40.8151L49.6486 45.0877H49.6344L49.7039 44.8833L53.0032 37.4361C53.4975 36.5583 54.4409 36.1137 55.4388 36.2478C56.1224 36.3726 56.8061 36.8171 57.1362 37.4754Z" fill="#0089CF"/>
<path d="M42.9967 37.435L46.4301 45.0857H46.3749L39.4528 40.315C38.7484 39.7214 38.4597 38.8323 38.6988 37.9339C38.8779 37.2605 39.4368 36.6313 40.1017 36.3817C41.1905 35.9832 42.417 36.407 42.9967 37.435Z" fill="#F36F21"/>
<path d="M58.9425 42.8753C59.2875 43.604 59.1516 44.6018 58.6583 45.2216C58.1689 45.8154 57.5142 46.1399 56.746 46.1192L49.3654 46.1239L55.5483 41.8222C56.1524 41.433 57.0706 41.3625 57.7299 41.6777C58.239 41.8775 58.7183 42.3764 58.9425 42.8753Z" fill="#0DB14B"/>
<path d="M37.0865 42.8753C36.7424 43.604 36.8774 44.6018 37.3716 45.2216C37.8611 45.8154 38.5138 46.1399 39.2829 46.1192L46.6636 46.1239L40.4805 41.8222C39.8766 41.433 38.9585 41.3625 38.3001 41.6777C37.7907 41.8775 37.3116 42.3764 37.0865 42.8753Z" fill="#FDB913"/>
<path d="M23.8331 50.5421C20.2468 50.5421 17.3322 53.4587 17.3322 57.045C17.3322 60.6303 20.2468 63.5487 23.8331 63.5487C27.4194 63.5487 30.336 60.6303 30.336 57.045C30.336 53.4588 27.4194 50.5421 23.8331 50.5421ZM23.8331 62.2677C20.953 62.2677 18.6094 59.9242 18.6094 57.0451C18.6094 54.1667 20.953 51.8232 23.8331 51.8232C26.7132 51.8232 29.0568 54.1668 29.0568 57.0451C29.0568 59.9242 26.7132 62.2677 23.8331 62.2677Z" fill="black"/>
<path d="M79.9 57.1281C79.5512 56.9451 77.4289 55.8526 77.1241 55.6941C76.0109 55.1248 75.6161 54.6221 75.6161 53.7706C75.6161 52.5871 76.5878 51.8228 78.0946 51.8228C78.9792 51.8228 79.8343 52.212 80.3361 52.4942C80.4272 52.5439 80.535 52.5721 80.6475 52.5721C80.9982 52.5721 81.2862 52.2842 81.2862 51.9334C81.2862 51.6971 81.1566 51.4898 80.9664 51.3791C80.3344 51.0264 79.2566 50.5435 78.0946 50.5435C75.8805 50.5435 74.3359 51.8695 74.3359 53.7706C74.3359 55.4765 75.4575 56.2812 76.5549 56.842C76.8623 56.9986 79.0091 58.1052 79.3307 58.2749C80.1785 58.7185 80.6475 59.3844 80.6475 60.1507C80.6475 61.1776 79.7773 62.2692 78.167 62.2692C76.6008 62.2692 75.3845 61.2188 75.0488 60.8952L74.9483 60.7995L74.0021 61.6623L74.1127 61.773C74.5328 62.1896 76.069 63.5493 78.167 63.5493C80.5191 63.5493 81.9249 61.8209 81.9249 60.1507C81.9249 58.9034 81.1877 57.8013 79.9 57.1281Z" fill="black"/>
<path d="M10.5011 51.8231C11.8975 51.8231 13.2095 52.3671 14.1942 53.3508C14.4286 53.5843 14.8694 53.5843 15.1001 53.3508C15.222 53.2317 15.2867 53.0714 15.2867 52.8998C15.2867 52.73 15.222 52.5677 15.1001 52.4486L15.0214 52.3679C13.804 51.19 12.1975 50.5421 10.5011 50.5421C6.91662 50.5421 4 53.4596 4 57.044C4 60.6304 6.91662 63.5488 10.5011 63.5488C12.3935 63.5488 14.0985 62.7368 15.2867 61.4424L14.3817 60.5365C13.4251 61.5982 12.0409 62.2678 10.501 62.2678C7.62185 62.2678 5.27822 59.9233 5.27822 57.0441C5.27831 54.1677 7.62194 51.8231 10.5011 51.8231Z" fill="black"/>
<path d="M54.5818 51.8231C55.9764 51.8231 57.2902 52.3671 58.2749 53.3508C58.5083 53.5843 58.9493 53.5843 59.18 53.3508C59.3019 53.2317 59.3694 53.0714 59.3694 52.8998C59.3694 52.73 59.3018 52.5677 59.18 52.4486L59.1021 52.3679C57.882 51.19 56.2774 50.5421 54.5818 50.5421C50.9966 50.5421 48.0789 53.4596 48.0789 57.0439C48.0789 60.6303 50.9966 63.5487 54.5818 63.5487C56.4733 63.5487 58.1783 62.7368 59.3684 61.4423L58.4624 60.5364C57.5058 61.5981 56.1197 62.2677 54.5818 62.2677C51.7017 62.2677 49.3571 59.9232 49.3571 57.044C49.3571 54.1677 51.7017 51.8231 54.5818 51.8231Z" fill="black"/>
<path d="M43.5668 50.5421C43.3267 50.5421 43.1372 50.6968 43.034 50.8965C42.929 51.0962 39.2077 60.301 39.2069 60.301C39.2069 60.301 35.4856 51.0961 35.3814 50.8965C35.2773 50.6967 35.088 50.5421 34.8479 50.5421C34.5675 50.5421 34.3565 50.7484 34.2824 51.0082C34.2083 51.2698 32.1086 62.8546 32.1086 62.8546C32.101 62.8923 32.0973 62.9317 32.0973 62.9719C32.0973 63.2907 32.3571 63.5487 32.6741 63.5487C32.9555 63.5487 33.1899 63.3481 33.2405 63.0827L35.0589 53.1708C35.0589 53.1708 38.5673 61.8382 38.6696 62.0444C38.7728 62.2498 38.964 62.4102 39.2079 62.4102C39.4517 62.4102 39.6422 62.2498 39.7443 62.0444C39.8475 61.8381 43.3559 53.1708 43.3559 53.1708L45.2455 63.4774H46.4198C46.4198 63.4774 44.2075 51.2697 44.1334 51.0082C44.0582 50.7484 43.8471 50.5421 43.5668 50.5421Z" fill="black"/>
<path d="M66.6862 50.5434C66.4433 50.5425 66.2549 50.7009 66.1489 50.9072C66.0437 51.1127 61.3332 62.7474 61.3332 62.7474C61.305 62.8157 61.289 62.8918 61.289 62.9724C61.289 63.2912 61.547 63.5501 61.8658 63.5501C62.1087 63.5501 62.3169 63.3982 62.4024 63.1834L64.231 58.6848H69.1423L71.0931 63.4779H72.3394C72.3394 63.4779 67.3258 51.1126 67.2227 50.9071C67.1203 50.7009 66.9299 50.5425 66.6862 50.5434ZM64.7523 57.4044L66.6861 52.6496L68.6217 57.4044H64.7523Z" fill="black"/>
<path d="M91.3585 50.611H84.1186C83.7659 50.611 83.4798 50.8981 83.4798 51.2516C83.4798 51.6032 83.7659 51.8902 84.1186 51.8902H87.1532V63.4761H88.3256V51.8903H91.3585C91.7112 51.8903 92 51.6033 92 51.2517C92 50.8981 91.7112 50.611 91.3585 50.611Z" fill="black"/>
</svg>
