<svg width="96" height="96" viewBox="0 0 96 96" fill="none" xmlns="http://www.w3.org/2000/svg">
<path d="M90.6595 40.9357C89.1565 39.1132 86.5044 38.068 83.3851 38.068C80.0845 38.068 77.1134 39.1903 75.0556 41.0119L75.3911 38.9089L74.4989 38.6435C73.2359 38.2671 71.8336 38.068 70.4431 38.068C68.0536 38.068 65.7685 38.8068 63.9225 40.0242L64.4538 38.2737H50.1656L49.9961 38.8327C48.7266 38.3221 47.3299 38.068 45.7564 38.068C42.8149 38.068 39.631 39.2096 37.9779 41.4076C37.8697 41.2467 37.7563 41.0881 37.6302 40.9357C36.1267 39.1132 33.4751 38.068 30.3553 38.068C27.1526 38.068 24.2563 39.124 22.2074 40.8519L23.005 36.0027L22.0987 35.7406C20.551 35.2931 18.8311 35.0564 17.1244 35.0564C10.8631 35.0564 5.16405 39.0365 4.15046 44.1167C3.71895 46.278 4.22292 48.3715 5.56827 50.0124C6.71503 51.4104 8.40859 52.4071 10.4207 52.9162H4.21727V60.8509H35.8161L35.8651 60.7539L35.8712 60.8509H39.6748L40.1905 60.01L40.031 60.8509H48.6306L48.7567 60.1879C49.5124 60.6773 50.4935 60.9431 51.6234 60.9431C52.6332 60.9431 53.5701 60.7337 54.3776 60.3615L54.2849 60.8509H66.3421L66.3628 60.7431C66.9219 60.8692 67.5091 60.9436 68.0701 60.9436C68.4107 60.9436 68.7618 60.913 69.1109 60.8514H73.7079L74.0491 60.1272H74.3554L74.449 60.8514H88.6271L89.3321 57.1386H89.0732L89.1702 56.6285H89.3556L90.0614 52.9162H89.669C89.989 52.6268 90.2219 52.2551 90.3023 51.8321C90.3974 51.3295 90.2671 50.818 89.9447 50.4293C89.861 50.3286 89.765 50.2401 89.6614 50.1606C90.7861 49.0054 91.5658 47.6073 91.8689 46.0356C92.2392 44.1077 91.8218 42.3441 90.6595 40.9357V40.9357ZM82.4566 56.861H82.0214L82.6783 53.4089C82.8279 53.3896 82.9771 53.368 83.1248 53.3445L82.4566 56.861ZM72.3094 45.6314C72.2642 45.862 72.2331 46.0898 72.2101 46.3142C71.2534 46.9542 70.357 47.2568 69.398 47.2568C68.7491 47.2568 68.1872 47.045 67.895 46.6902C67.7284 46.4888 67.6724 46.2634 67.7242 46.0013C67.895 45.1171 69.0945 44.3416 70.2902 44.3416C71.0384 44.3416 71.7414 44.6061 72.4308 45.1472C72.388 45.3077 72.3404 45.4672 72.3094 45.6314V45.6314ZM73.2778 52.9158L72.811 53.6851L72.4228 53.4677C72.1673 53.3242 71.8929 53.2136 71.6101 53.1176C71.8172 53.0682 72.0106 53.0127 72.179 52.9515L72.7235 52.7539L73.2585 50.4081C73.331 50.5088 73.3997 50.6119 73.4797 50.7088C74.2872 51.6871 75.4504 52.4353 76.855 52.9153L73.2778 52.9158V52.9158ZM78.0131 53.2405L77.8272 54.2169L77.5689 53.1322C77.7152 53.1703 77.862 53.2075 78.0131 53.2405V53.2405ZM82.5625 44.4442C83.1451 44.4442 83.5935 44.599 83.826 44.8799C84.0391 45.1387 84.0316 45.4686 83.986 45.7006C83.8006 46.6573 82.8185 47.3255 81.5946 47.3255C80.9993 47.3255 80.5287 47.1683 80.3028 46.8944C80.1466 46.7048 80.1 46.4389 80.165 46.1034C80.3236 45.279 81.1983 44.4442 82.5625 44.4442ZM55.6542 53.6287C55.4867 53.5153 55.3046 53.415 55.1145 53.3247H55.7126L55.6542 53.6287ZM52.3645 56.86C52.2873 56.9287 52.1617 56.9748 52.0163 56.9833C52.0906 56.9193 52.2073 56.8666 52.3645 56.86ZM51.4295 44.5336L50.7199 46.8695C50.6742 46.2455 50.4799 45.6785 50.1392 45.174C49.9985 44.9675 49.831 44.7792 49.6465 44.6004L51.4295 44.5336ZM30.9557 45.7001C30.7708 46.6572 29.7873 47.3255 28.5643 47.3255C27.9695 47.3255 27.4985 47.1683 27.2726 46.8944C27.1159 46.7048 27.0698 46.4389 27.1347 46.1034C27.2942 45.2785 28.169 44.4442 29.5327 44.4442C30.1153 44.4442 30.5642 44.599 30.7962 44.8799C31.0089 45.1387 31.0004 45.4691 30.9557 45.7001ZM39.1562 53.2955L39.1332 53.3445L39.1285 53.2913C39.1379 53.2922 39.1468 53.2941 39.1562 53.2955V53.2955ZM49.7143 50.1855L48.8856 52.9158H45.7032C47.3299 52.3789 48.7887 51.4787 49.7143 50.1855ZM50.0597 53.3247H50.2371C50.1712 53.3524 50.1072 53.3807 50.0437 53.4103L50.0597 53.3247ZM15.8214 46.1632C14.9132 46.1632 14.1264 45.8648 13.7166 45.3656C13.4794 45.0766 13.3999 44.7566 13.4733 44.3877C13.7104 43.1995 15.2948 42.1958 16.9329 42.1958C18.0387 42.1958 19.0631 42.6109 20.0635 43.4584C19.7991 43.9525 19.5887 44.4701 19.4358 45.0098C18.2137 45.7919 17.0595 46.1632 15.8214 46.1632V46.1632ZM34.5404 51.7888L35.5743 52.2541C36.1456 52.5111 36.7803 52.7308 37.4448 52.9162H35.5216L35.3155 53.3289L35.2891 52.9162H31.9641C32.894 52.6306 33.7574 52.2508 34.5404 51.7888V51.7888ZM59.7373 56.861L60.4874 52.9158H56.8471L59.398 44.5091L60.1759 44.5388C60.0324 44.9228 59.9114 45.3138 59.8328 45.7171C59.47 47.5932 59.9109 49.4039 61.0761 50.8152C61.8436 51.7455 62.8976 52.4523 64.131 52.9153H60.9231L60.1726 56.8605L59.7373 56.861V56.861ZM19.1902 52.6207L19.7384 52.4278L20.2174 50.3921C20.2941 50.4989 20.3656 50.6072 20.4503 50.7093C21.2574 51.6876 22.4206 52.4358 23.8248 52.9158H18.0189C18.458 52.8334 18.8617 52.736 19.1902 52.6207V52.6207ZM84.9944 52.9158C85.4659 52.7704 85.92 52.6019 86.3562 52.4104C86.4202 52.5638 86.4978 52.712 86.6056 52.8424C86.6287 52.8696 86.6588 52.8904 86.6828 52.9158H84.9944V52.9158Z" fill="white"/>
<path d="M49.6798 43.5365L52.8792 43.4165L50.1946 52.2627H55.935L58.6187 43.4165L61.746 43.5365L63.0203 39.3363H50.9532L49.6798 43.5365ZM37.7938 45.8333C36.991 49.9814 32.5931 52.4678 27.7746 52.4678C22.9565 52.4678 19.5199 49.9818 20.3227 45.8333C21.1086 41.77 25.5577 39.1306 30.3551 39.1306C35.1521 39.1306 38.5797 41.7705 37.7938 45.8333ZM26.0909 45.902C25.8062 47.3763 26.8259 48.388 28.5637 48.388C30.3024 48.388 31.7132 47.3768 31.9984 45.902C32.2638 44.5308 31.3546 43.3826 29.5321 43.3826C27.7096 43.3817 26.3563 44.5308 26.0909 45.902Z" fill="#E31837"/>
<path d="M36.0099 51.2848C37.648 52.0213 39.8662 52.4678 41.8562 52.4678C45.2711 52.4678 49.0017 50.9423 49.5984 47.8563C50.0229 45.662 48.4695 44.599 46.1252 44.1534L44.8725 43.9134C44.449 43.8273 43.7502 43.7591 43.8429 43.2786C43.9455 42.7474 44.7088 42.5926 45.2118 42.5926C46.447 42.5926 47.4752 43.0213 48.3533 43.5699L50.5433 40.2614C49.142 39.4901 47.5571 39.1306 45.7553 39.1306C42.3197 39.1306 38.5731 40.8449 37.9797 43.9134C37.5882 45.9364 39.2648 47.0163 41.4431 47.3424L42.562 47.5132C43.0693 47.5998 43.8138 47.6507 43.7008 48.2332C43.5879 48.8158 42.651 49.0045 42.0849 49.0045C40.765 49.0045 39.6319 48.4732 38.7317 47.8219L38.4752 47.6332L36.0099 51.2848ZM74.1939 39.6619C73.0457 39.3188 71.7408 39.1306 70.4416 39.1306C65.8122 39.1306 61.6044 42.1479 60.8745 45.9194C60.1612 49.6054 63.1271 52.4683 67.6314 52.4683C68.6572 52.4683 70.8237 52.314 71.8161 51.954L72.9191 47.1199C71.8538 47.8568 70.7178 48.3198 69.3979 48.3198C67.6808 48.3198 66.4051 47.2224 66.6808 45.8004C66.9528 44.3944 68.5725 43.2805 70.2901 43.2805C71.5888 43.2805 72.6245 43.8805 73.4113 44.584L74.1939 39.6619ZM83.3849 39.1306C78.588 39.1306 74.1388 41.77 73.3525 45.8333C72.5502 49.9814 75.9867 52.4678 80.8053 52.4678C85.623 52.4678 90.0218 49.9818 90.8241 45.8333C91.609 41.7705 88.1814 39.1306 83.3849 39.1306ZM82.5624 43.3817C84.3849 43.3817 85.2945 44.5299 85.0282 45.9011C84.7435 47.3754 83.3322 48.3871 81.5935 48.3871C79.8548 48.3871 78.8355 47.3758 79.1207 45.9011C79.3861 44.5308 80.7399 43.3817 82.5624 43.3817ZM21.8026 36.7609C20.3698 36.3463 18.7435 36.1185 17.1233 36.1185C11.349 36.1185 6.10083 39.7654 5.19123 44.3242C4.30233 48.7795 8.00097 52.2396 13.6181 52.2396C14.8985 52.2396 17.601 52.0533 18.8371 51.6185L20.2126 45.7745C18.8851 46.6658 17.4673 47.2253 15.8208 47.2253C13.6783 47.2253 12.0883 45.8988 12.4313 44.1784C12.7706 42.4796 14.7903 41.1319 16.9323 41.1319C18.552 41.1319 19.8441 41.8575 20.8243 42.7069L21.8026 36.7609Z" fill="#E31837"/>
<path d="M87.2916 51.6339C87.3777 51.1827 87.8808 50.8189 88.4285 50.8189C88.972 50.8189 89.3404 51.1827 89.2548 51.6339C89.1678 52.088 88.6624 52.4518 88.1179 52.4518C87.5706 52.4518 87.206 52.0876 87.2916 51.6339ZM88.9988 51.6339C89.0675 51.2707 88.8068 51.0321 88.3871 51.0321C87.9608 51.0321 87.6163 51.2707 87.5481 51.6339C87.4789 51.9977 87.7321 52.2386 88.1589 52.2386C88.5781 52.2386 88.9296 51.9982 88.9988 51.6339ZM88.6492 52.0607H88.3955L88.236 51.6989H88.0699L88.0012 52.0607H87.7857L87.948 51.2062H88.4454C88.6647 51.2062 88.7833 51.2669 88.7457 51.4678C88.7169 51.6142 88.6026 51.6895 88.4704 51.6998L88.6492 52.0607ZM88.3348 51.5356C88.4426 51.5356 88.5353 51.5356 88.5532 51.4443C88.5673 51.369 88.4741 51.369 88.3664 51.369H88.133L88.1024 51.5356H88.3348Z" fill="#E31837"/>
<path fill-rule="evenodd" clip-rule="evenodd" d="M56.0443 56.8986C55.69 58.7634 53.748 59.8805 51.622 59.8805C49.5758 59.8805 48.0938 58.8467 48.2992 57.1089L47.7901 59.7883H45.3489L45.7324 57.7696H44.1786L43.7951 59.7883H41.3538L42.3747 54.4149L39.0785 59.7883H36.8683L36.6735 56.629H36.5902C36.581 56.6614 36.572 56.6938 36.563 56.7261C36.4887 56.9931 36.4163 57.2531 36.2937 57.5075L35.1573 59.7883H33.0021L31.6653 53.9783H34.2919L34.5112 57.4459H34.5667C34.6801 57.0915 34.8063 56.7217 34.9832 56.3748L36.1784 53.9783H38.1204L38.4141 57.4459H38.4696C38.5708 57.1066 38.6847 56.7518 38.84 56.421L40.0069 53.9783H44.899L44.5273 55.9353H46.0806L46.4528 53.9783H48.8941L48.3782 56.6932C48.8281 54.9838 50.7236 53.8856 52.7607 53.8856C54.8783 53.8856 56.3907 55.0723 56.0443 56.8986ZM50.8785 56.9292C50.7519 57.5917 51.2022 58.0468 51.9697 58.0468C52.7377 58.0468 53.3602 57.5917 53.4868 56.9292C53.6035 56.3123 53.2026 55.7965 52.3979 55.7965C51.5923 55.797 50.9952 56.3127 50.8785 56.9292Z" fill="#005DAA"/>
<path d="M56.5996 53.9783H59.1336L58.3835 57.9235H60.5109L60.1561 59.7878H55.4952L56.5996 53.9783Z" fill="#005DAA"/>
<path fill-rule="evenodd" clip-rule="evenodd" d="M66.6184 57.7926L66.5055 57.7075L65.4963 59.23L65.6918 58.2011H63.4815L63.5898 57.6313H65.5407L65.8273 56.1208H63.8763L63.9822 55.566H66.1186L66.4202 53.9783H61.7315L60.6266 59.7883H65.3902L65.4692 59.3721C66.1866 59.6895 67.1408 59.8805 67.9981 59.8805C69.1097 59.8805 70.2973 59.5076 70.9502 58.7554L70.3231 59.7883H73.0049L73.347 59.0641H75.2607L75.3539 59.7883H78.0357L78.0356 59.7879H82.4848L82.8396 57.9235H80.7122L81.4623 53.9783H78.9283L77.9181 59.2946L76.6522 53.9783H73.8505L71.3206 58.1453C71.362 58.0378 71.3943 57.9253 71.4167 57.8077C71.6035 56.8214 70.917 56.3443 69.8832 56.1433L69.3298 56.0356C69.3095 56.0314 69.2879 56.0273 69.2654 56.0231C69.08 55.9881 68.8387 55.9426 68.8757 55.7504C68.9199 55.5114 69.2573 55.4427 69.4789 55.4427C70.0248 55.4427 70.4784 55.6356 70.8662 55.8822L71.8332 54.3947C71.2153 54.0484 70.5147 53.886 69.7194 53.886C68.2028 53.886 66.5497 54.6568 66.2866 56.036C66.1149 56.9447 66.8537 57.4303 67.816 57.5771L68.3105 57.6538C68.3326 57.6577 68.3558 57.6614 68.3795 57.6652C68.595 57.6998 68.8571 57.7419 68.8122 57.9776C68.7623 58.2392 68.3486 58.3244 68.0988 58.3244C67.5157 58.3244 67.0155 58.0853 66.6184 57.7926ZM75.2109 57.6844L75.1097 56.6595C75.0828 56.4165 75.0842 56.1662 75.0856 55.9225L75.0857 55.9118H74.993L74.1944 57.6844H75.2109Z" fill="#005DAA"/>
<path d="M84.0598 53.9783H88.749L88.4469 55.566H86.31L86.2046 56.1208H88.1556L87.869 57.6313H85.9176L85.8098 58.2011H88.0205L87.718 59.7883H82.9554L84.0598 53.9783Z" fill="#005DAA"/>
<path d="M5.59269 59.7977H32.4586L32.4568 59.7883H32.4346L32.0949 58.3108H5.59269V59.7977Z" fill="#005DAA"/>
<path d="M31.9509 57.6858H5.59269V56.1993H31.6083L31.9509 57.6858Z" fill="#005DAA"/>
<path d="M5.59269 55.565H31.454L31.3377 55.0234L31.1001 53.9896H5.59269V55.565Z" fill="#005DAA"/>
</svg>
