<svg width="96" height="96" viewBox="0 0 96 96" fill="none" xmlns="http://www.w3.org/2000/svg">
<path fill-rule="evenodd" clip-rule="evenodd" d="M40.6176 23.9043C43.4568 20.9488 47.4083 19.1186 51.7737 19.1186C57.5942 19.1186 62.6386 22.3522 65.3549 27.1703C67.766 26.0924 70.3776 25.536 73.0186 25.5373C83.4956 25.5373 92 34.1064 92 44.6804C92 55.2544 83.4956 63.8235 73.0186 63.8235C71.7381 63.8235 70.4899 63.6948 69.2676 63.4516C66.8909 67.6877 62.3476 70.5656 57.1738 70.5656C55.0674 70.5698 52.9879 70.0919 51.0946 69.1687C48.6855 74.8275 43.0752 78.8049 36.5433 78.8049C29.7203 78.8049 23.9321 74.5042 21.7009 68.4573C20.7078 68.6669 19.6956 68.7722 18.6807 68.7716C10.5643 68.7716 4 62.1103 4 53.9292C4 48.4321 6.95554 43.6463 11.3403 41.0594C10.4101 38.9165 9.93128 36.6049 9.93371 34.2688C9.93371 24.8266 17.5974 17.1952 27.0396 17.1952C32.5691 17.1952 37.5166 19.8306 40.6209 23.9211" fill="#00A1E0"/>
<path d="M56.0234 38.7395C56.1937 38.7692 56.362 38.8092 56.5275 38.8592C56.5637 38.8734 56.6614 38.9219 56.6213 39.037L56.2313 40.108C56.1987 40.1885 56.1763 40.2377 56.0101 40.1869C55.9687 40.1746 55.9073 40.1568 55.7492 40.1232C55.6344 40.0993 55.4837 40.0808 55.3301 40.0808C55.1446 40.0783 54.9599 40.1049 54.7826 40.1597C54.621 40.2127 54.4744 40.3039 54.3555 40.4255C54.2281 40.5533 54.0777 40.7392 53.9979 40.9698C53.8351 41.4392 53.7579 41.934 53.7351 42.0796C53.7317 42.1015 53.7295 42.1155 53.7285 42.1203H55.3592C55.4957 42.1196 55.539 42.183 55.5257 42.2845L55.3356 43.3452C55.3062 43.4988 55.1645 43.4936 55.1645 43.4936H53.4843L52.3351 49.9961C52.2145 50.6684 52.0638 51.2453 51.8869 51.7099C51.7081 52.1788 51.5212 52.5225 51.224 52.8508C50.9492 53.155 50.6384 53.3798 50.2814 53.5088C49.9267 53.6369 49.4989 53.7028 49.0294 53.7028C48.8053 53.7028 48.566 53.6986 48.2821 53.6317C48.0777 53.5835 47.9662 53.5492 47.8161 53.4955C47.7521 53.4726 47.7013 53.393 47.7375 53.2921C47.7731 53.19 48.0735 52.3638 48.1159 52.2554C48.1679 52.1229 48.3002 52.1733 48.3002 52.1733L48.3068 52.1761C48.3941 52.2128 48.4571 52.2392 48.5754 52.2626C48.6966 52.2868 48.8609 52.3075 48.9844 52.3075C49.2063 52.3075 49.4087 52.2803 49.5846 52.2212C49.7977 52.1497 49.9212 52.0272 50.0515 51.8606C50.186 51.6886 50.2953 51.4516 50.4072 51.1353C50.5207 50.8149 50.6232 50.3919 50.7128 49.8778L51.8565 43.4936H50.7293C50.5935 43.4942 50.5498 43.4309 50.5631 43.3293L50.7532 42.2687C50.783 42.1145 50.9243 42.1203 50.9243 42.1203H52.0822L52.1447 41.7746C52.3177 40.7505 52.6627 39.9722 53.1697 39.4613C53.6803 38.9465 54.4075 38.6858 55.3301 38.6858C55.5623 38.6833 55.7943 38.7013 56.0234 38.7395Z" fill="#FFFFFE"/>
<path d="M33.5927 50.0462C33.678 50.0462 33.7388 49.9767 33.7388 49.8913V39.0044C33.7388 38.9193 33.678 38.8504 33.5927 38.8504H32.24C32.1544 38.8504 32.0936 38.9193 32.0936 39.0044V49.8913C32.0936 49.9767 32.1544 50.0462 32.24 50.0462H33.5927Z" fill="#FFFFFE"/>
<path d="M16.8423 49.3122C16.8159 49.287 16.7725 49.2458 16.8182 49.1266L16.8169 49.124L17.1726 48.1345C17.2289 47.9651 17.3583 48.0217 17.41 48.053C17.4497 48.0773 17.4852 48.1005 17.5219 48.1244C17.5757 48.1595 17.6319 48.1962 17.7075 48.2402C18.7584 48.9044 19.7282 48.9096 20.0325 48.9096C20.815 48.9096 21.3033 48.4925 21.3033 47.9331V47.9027C21.3033 47.2947 20.5531 47.0632 19.6865 46.7968L19.495 46.7373C18.3051 46.3977 17.031 45.9062 17.031 44.3993V44.3686C17.031 42.9394 18.1854 41.9402 19.8378 41.9402L20.0179 41.9395C20.988 41.9395 21.9258 42.2208 22.6048 42.6347C22.6666 42.6716 22.7267 42.7431 22.6925 42.8378C22.6601 42.9284 22.3584 43.7358 22.3238 43.8273C22.2601 43.9964 22.0849 43.8833 22.0849 43.8833C21.4931 43.5563 20.5683 43.298 19.7922 43.298C19.0937 43.298 18.641 43.6698 18.641 44.1743V44.2044C18.641 44.7929 19.4139 45.0457 20.3096 45.3361L20.4645 45.3862C21.648 45.7581 22.9156 46.2787 22.9156 47.708V47.7384C22.9156 49.2841 21.7935 50.2445 19.9891 50.2445C19.1031 50.2445 18.2559 50.1054 17.357 49.6301C17.3177 49.6073 17.2785 49.5852 17.2393 49.5631C17.1106 49.4905 16.9824 49.4181 16.8557 49.3264C16.8527 49.322 16.8479 49.3174 16.8423 49.3122Z" fill="#FFFFFE"/>
<path d="M43.2604 49.3098C43.2336 49.2847 43.1898 49.2436 43.2357 49.124L43.2318 49.1214L43.5875 48.1319C43.6396 47.9702 43.7919 48.0297 43.8245 48.0504C43.8464 48.0645 43.8671 48.078 43.8875 48.0913C43.9573 48.1369 44.0241 48.1804 44.1224 48.2377C45.1701 48.9018 46.1424 48.907 46.4473 48.907C47.2299 48.907 47.7182 48.4899 47.7182 47.9305V47.9001C47.7182 47.2921 46.9712 47.0606 46.1013 46.7942L45.9102 46.7347C44.7203 46.3951 43.4462 45.9036 43.4462 44.3968V44.366C43.4462 42.9368 44.6006 41.9376 46.253 41.9376L46.4334 41.9369C47.4035 41.9369 48.3413 42.2183 49.0203 42.6322C49.0818 42.669 49.1423 42.7405 49.1076 42.8352C49.0785 42.9258 48.7765 43.7332 48.7422 43.8247C48.6782 43.9938 48.503 43.8807 48.503 43.8807C47.908 43.5537 46.9864 43.2954 46.2103 43.2954C45.5119 43.2954 45.0591 43.6672 45.0591 44.1717V44.2018C45.0591 44.7903 45.832 45.0432 46.7277 45.3335L46.8826 45.3837C48.0693 45.7555 49.3337 46.2761 49.3337 47.7054V47.7358C49.3337 49.2815 48.2116 50.2419 46.4072 50.2419C45.5212 50.2419 44.674 50.1028 43.7751 49.6275C43.7354 49.6045 43.6957 49.5821 43.6561 49.5598C43.5277 49.4874 43.3996 49.4153 43.2739 49.3238C43.2707 49.3195 43.2659 49.315 43.2604 49.3098Z" fill="#FFFFFE"/>
<path fill-rule="evenodd" clip-rule="evenodd" d="M62.0968 43.1683C62.404 43.5369 62.6339 43.9767 62.7823 44.4779H62.7791C62.9259 44.9759 63.0006 45.5224 63.0006 46.098C63.0006 46.6768 62.9259 47.22 62.7791 47.718C62.6304 48.2192 62.4005 48.659 62.0936 49.0276C61.7864 49.3963 61.3951 49.6912 60.9359 49.9007C60.4768 50.1103 59.9335 50.217 59.3224 50.217C58.7112 50.217 58.168 50.1103 57.7055 49.9007C57.2464 49.6905 56.8554 49.3963 56.5479 49.0276C56.2407 48.659 56.0102 48.2192 55.8624 47.718C55.7152 47.22 55.6406 46.6768 55.6406 46.098C55.6406 45.5191 55.7152 44.9759 55.8624 44.4779C56.0111 43.9767 56.2414 43.5369 56.5479 43.1683C56.8551 42.7997 57.2464 42.5035 57.7055 42.2888C58.168 42.0744 58.708 41.9654 59.3224 41.9654C59.9367 41.9654 60.48 42.0737 60.9392 42.2888C61.4016 42.5022 61.7893 42.7997 62.0968 43.1683ZM60.7937 48.1449C61.1125 47.6566 61.2755 46.9678 61.2755 46.0947V46.098C61.2755 45.2249 61.1144 44.5394 60.7937 44.0575C60.4768 43.5812 59.9982 43.3494 59.3256 43.3494C58.653 43.3494 58.177 43.579 57.864 44.0575C57.549 44.5394 57.3887 45.2249 57.3887 46.098C57.3887 46.971 57.5481 47.663 57.864 48.1481C58.1777 48.6286 58.6562 48.8627 59.3256 48.8627C59.995 48.8627 60.4755 48.6267 60.7937 48.1449Z" fill="#FFFFFE"/>
<path d="M74.9715 48.5258C74.9715 48.5258 75.1144 48.4705 75.1639 48.617H75.1652L75.5371 49.6388C75.5843 49.7655 75.4756 49.8179 75.4756 49.8179C74.9065 50.0433 74.1143 50.1995 73.3414 50.1995C72.0351 50.1995 71.0326 49.8244 70.3665 49.0807C69.7004 48.3402 69.3641 47.328 69.3641 46.0799C69.3641 45.501 69.4465 44.9546 69.6098 44.4566C69.7747 43.9554 70.0205 43.5156 70.3439 43.147C70.6672 42.7783 71.0747 42.4818 71.5565 42.2674C72.0383 42.0527 72.6009 41.9444 73.2347 41.9444C73.6616 41.9444 74.0399 41.9702 74.3665 42.02C74.7157 42.0727 75.1768 42.1979 75.3722 42.2742C75.4081 42.2881 75.5064 42.3366 75.4663 42.4514C75.371 42.7205 75.2957 42.927 75.2165 43.1441C75.1776 43.2505 75.1379 43.3595 75.0944 43.4797C75.0378 43.6352 74.9198 43.5838 74.9198 43.5838C74.4218 43.428 73.9465 43.3558 73.3256 43.3558C72.5819 43.3558 72.0192 43.6081 71.6538 44.0931C71.2836 44.5846 71.0773 45.2249 71.075 46.0786C71.0718 47.0163 71.3046 47.7083 71.7217 48.1384C72.1356 48.5681 72.7177 48.7851 73.4452 48.7851C73.7395 48.7851 74.0189 48.7654 74.2698 48.7259C74.5188 48.6871 74.7526 48.6095 74.9715 48.5258Z" fill="#FFFFFE"/>
<path fill-rule="evenodd" clip-rule="evenodd" d="M82.2242 42.9937C82.4312 43.2168 82.749 43.7051 82.8774 44.1869L82.8842 44.1879C83.1915 45.2659 83.0608 46.2077 83.0392 46.3633C83.0378 46.3734 83.0368 46.3802 83.0365 46.3835C83.0226 46.5148 82.8881 46.5161 82.8881 46.5161L77.779 46.5122C77.8081 47.2883 77.9956 47.8347 78.3707 48.2098C78.7393 48.5762 79.3246 48.81 80.1169 48.8113C81.2223 48.8143 81.75 48.6108 82.1115 48.4714C82.1465 48.4579 82.18 48.445 82.2123 48.433C82.2123 48.433 82.3532 48.3825 82.4043 48.5219L82.7374 49.4564C82.804 49.6139 82.7507 49.6685 82.6941 49.7002C82.3772 49.8781 81.6011 50.2063 80.1266 50.2111C79.4119 50.2134 78.7878 50.1103 78.2737 49.9114C77.7563 49.7109 77.3262 49.4263 76.9899 49.0609C76.6537 48.6988 76.4043 48.2622 76.2494 47.7643C76.0962 47.2695 76.0182 46.723 76.0182 46.1345C76.0182 45.5589 76.0933 45.0092 76.242 44.508C76.3908 44.0003 76.6239 43.5573 76.934 43.1822C77.2444 42.8071 77.6389 42.507 78.1078 42.2865C78.5767 42.0676 79.1555 41.9599 79.7925 41.9599C80.2948 41.959 80.792 42.0599 81.2541 42.2564C81.5743 42.3922 81.8944 42.6412 82.2242 42.9937ZM77.8007 45.2533L77.8006 45.254L77.7845 45.2533L77.8007 45.2533ZM77.8007 45.2533L81.4385 45.254C81.4042 44.7851 81.3123 44.3664 81.1022 44.0511C80.7853 43.5738 80.3423 43.3106 79.6729 43.3106C79.0035 43.3106 78.5272 43.5725 78.2145 44.0511C78.0057 44.3646 77.8728 44.7686 77.8007 45.2533Z" fill="#FFFFFE"/>
<path fill-rule="evenodd" clip-rule="evenodd" d="M41.3835 42.9937C41.5904 43.2168 41.9086 43.7051 42.0367 44.1869L42.0402 44.1879C42.3479 45.2659 42.2171 46.2077 42.1955 46.3633C42.1941 46.3734 42.1932 46.3802 42.1929 46.3835C42.179 46.5148 42.0444 46.5161 42.0444 46.5161L36.9353 46.5122C36.9644 47.2883 37.1519 47.8347 37.5271 48.2098C37.8957 48.5762 38.4842 48.81 39.2732 48.8113C40.3787 48.8143 40.9063 48.6108 41.2678 48.4714C41.3028 48.4579 41.3363 48.445 41.3686 48.433C41.3686 48.433 41.5096 48.3825 41.561 48.5219L41.8941 49.4564C41.961 49.6139 41.9073 49.6685 41.8511 49.7002C41.5342 49.8781 40.7581 50.2063 39.2836 50.2111C38.5657 50.2134 37.9448 50.1103 37.4307 49.9114C36.9133 49.7109 36.4832 49.4263 36.1469 49.0609C35.8139 48.6988 35.5642 48.2622 35.4097 47.7643C35.2554 47.2695 35.1781 46.723 35.1781 46.1345C35.1781 45.5589 35.2528 45.0092 35.4013 44.508C35.55 44.0003 35.7838 43.5573 36.0933 43.1822C36.4037 42.8071 36.7982 42.507 37.2671 42.2865C37.7359 42.0676 38.3148 41.9599 38.9518 41.9599C39.454 41.959 39.9512 42.0599 40.4134 42.2564C40.7335 42.3922 41.0536 42.6412 41.3835 42.9937ZM36.96 45.2533L36.9599 45.254L36.9437 45.2533L36.96 45.2533ZM37.3738 44.0511C37.1653 44.3646 37.0321 44.7686 36.96 45.2533L40.5977 45.254C40.5631 44.7851 40.4713 44.3664 40.2614 44.0511C39.9445 43.5738 39.5015 43.3106 38.8321 43.3106C38.1628 43.3106 37.6868 43.5725 37.3738 44.0511Z" fill="#FFFFFE"/>
<path fill-rule="evenodd" clip-rule="evenodd" d="M27.1684 44.9727C27.4886 44.9727 27.757 44.9801 27.9639 44.9953L27.9688 45.0073C27.9688 45.0073 28.373 45.0438 28.8095 45.1072V44.8915C28.8095 44.2124 28.6676 43.8894 28.3891 43.6757C28.1046 43.4574 27.6777 43.3458 27.128 43.3458C27.128 43.3458 25.8863 43.3297 24.9065 43.8632C24.8612 43.89 24.8228 43.9052 24.8228 43.9052C24.8228 43.9052 24.7002 43.9483 24.6553 43.8225L24.2931 42.8524C24.2381 42.7117 24.339 42.6496 24.339 42.6496C24.7982 42.29 25.9106 42.074 25.9106 42.074C26.2792 42 26.8968 41.9482 27.2784 41.9482C28.297 41.9482 29.0828 42.1843 29.6195 42.6532C30.1583 43.1221 30.4312 43.882 30.4312 44.9038L30.4341 49.5602C30.4341 49.5602 30.4438 49.6951 30.3177 49.7271C30.3177 49.7271 30.1288 49.7785 29.9587 49.8176C29.5326 49.9099 29.1046 49.9931 28.675 50.0672C28.1705 50.1523 27.6499 50.1963 27.1261 50.1963C26.6281 50.1963 26.1754 50.15 25.7744 50.0585C25.3702 49.968 25.02 49.8153 24.7364 49.609C24.4514 49.4024 24.2224 49.1279 24.0703 48.8103C23.9151 48.4902 23.8365 48.0989 23.8365 47.6462C23.8365 47.2 23.9287 46.8055 24.1094 46.4692C24.2885 46.1359 24.5419 45.8482 24.8499 45.6284C25.1571 45.4073 25.5161 45.2411 25.9138 45.1337C26.3083 45.027 26.7319 44.9727 27.1684 44.9727ZM25.6389 48.282C25.7052 48.3858 25.733 48.4249 25.9332 48.5846L25.9361 48.5862C25.9329 48.5853 26.392 48.9465 27.43 48.8841C28.1608 48.8401 28.8076 48.7007 28.8076 48.7007H28.8069V46.3822C28.3488 46.3119 27.8864 46.2725 27.4229 46.2642C26.3817 46.2512 25.9387 46.6335 25.9419 46.6328C25.6347 46.8495 25.486 47.1728 25.486 47.6191C25.486 47.9036 25.5377 48.1258 25.6389 48.282Z" fill="#FFFFFE"/>
<path d="M69.0423 42.3124C69.0422 42.3309 69.0384 42.3493 69.031 42.3664L69.0342 42.3453C68.9857 42.4844 68.7371 43.1825 68.6494 43.4157C68.6161 43.5043 68.5615 43.5644 68.4632 43.5534C68.4632 43.5534 68.1705 43.4849 67.9038 43.4849C67.6719 43.4848 67.4411 43.5173 67.2182 43.5812C66.9807 43.6549 66.7645 43.7847 66.5877 43.9596C66.4024 44.1406 66.252 44.3932 66.1414 44.7098C66.0292 45.0299 65.973 45.5376 65.973 46.0485V49.8642C65.973 49.9052 65.9567 49.9445 65.9277 49.9736C65.8987 50.0026 65.8594 50.019 65.8184 50.0191H64.4797C64.4386 50.019 64.3993 50.0026 64.3703 49.9736C64.3412 49.9446 64.3249 49.9052 64.3248 49.8642V42.2651C64.3248 42.1798 64.3862 42.1109 64.471 42.1109H65.7773C65.8634 42.1109 65.9238 42.1798 65.9238 42.2651L65.9245 42.886C66.1185 42.6208 66.4684 42.3916 66.7846 42.249C67.1047 42.1054 67.4604 41.9974 68.1007 42.0375C68.4338 42.0582 68.8674 42.1497 68.9544 42.1827C68.9717 42.1895 68.9874 42.1996 69.0007 42.2126C69.014 42.2256 69.0245 42.2411 69.0316 42.2583C69.0388 42.2754 69.0424 42.2938 69.0423 42.3124Z" fill="#FFFFFE"/>
</svg>
