<svg width="96" height="96" viewBox="0 0 96 96" fill="none" xmlns="http://www.w3.org/2000/svg">
<path fill-rule="evenodd" clip-rule="evenodd" d="M10 18.3104C10 18.6067 10.9803 20.8142 11.546 21.7916C14.8007 27.4154 21.7834 33.2716 32.6652 39.5036C37.2035 42.1028 39.8953 44.1857 41.9604 46.6957C42.4896 47.3391 42.9474 47.8404 42.9779 47.8101C43.1053 47.6827 42.0882 45.6655 41.2252 44.3343C40.0414 42.5078 37.1746 39.6508 34.6031 37.7342C33.5373 36.94 30.8832 35.1341 28.7051 33.7209C21.866 29.2838 17.8774 26.1035 12.9069 21.1246C11.308 19.5231 10 18.2568 10 18.3104ZM22.2288 21.0683C22.4627 21.8962 23.3218 23.6446 24.0371 24.7484C25.7613 27.4087 27.4923 29.0638 32.4967 32.8374C36.7793 36.0666 38.6736 37.6503 40.4255 39.4659C42.1677 41.2715 43.2349 42.7829 44.6349 45.4279C45.919 47.8537 48.8677 52.6041 50.1265 54.2744C51.6912 56.351 54.3442 58.5673 56.3583 59.4807C58.3362 60.3774 59.476 60.5098 65.2235 60.511C68.8655 60.5117 70.8898 60.584 72.014 60.7535C76.4806 61.4267 80.6239 63.5675 84.0995 66.9978C85.2437 68.1272 85.8519 68.6201 85.911 68.4661C85.9599 68.3385 86 67.8334 86 67.3437C86 66.2179 85.2215 64.5976 83.9276 63.0308C83.3478 62.3286 82.9743 61.6983 82.8985 61.2941C82.6154 59.7857 80.6108 58.6273 75.4315 56.9796C71.9127 55.86 71.6763 55.7098 71.6763 54.5946C71.6763 54.2556 71.9518 53.2297 72.2887 52.315C73.5749 48.8211 72.9814 47.3168 69.448 45.1145C67.0101 43.595 62.3116 41.7387 56.5942 40.0362C49.5519 37.9388 48.2676 37.5384 46.237 36.8067C39.391 34.3397 33.7383 31.3358 29.3792 27.8478C27.7122 26.514 24.7384 23.6373 23.0772 21.7517C22.4057 20.9893 22.1477 20.7815 22.2288 21.0683ZM12.9512 29.1663C13.1885 29.9593 14.008 31.4411 14.815 32.5366C17.8685 36.681 23.4935 40.6812 32.4967 45.1108C34.8138 46.2508 37.4299 47.6503 38.3104 48.2209C40.0744 49.3641 42.3942 51.2638 43.1992 52.2243L43.7174 52.8426L43.306 51.9975C42.388 50.1111 40.3998 47.9533 37.8263 46.0501C35.9988 44.6986 33.9794 43.4582 30.2217 41.3789C22.5744 37.1475 18.6531 34.4009 14.4879 30.3587C13.2965 29.2025 12.8609 28.8645 12.9512 29.1663ZM28.9678 53.7256C32.3905 57.0863 36.4355 59.2492 42.102 60.7483C45.5968 61.6729 48.5042 62.6073 50.5407 63.4605C51.5366 63.8777 52.3789 64.1917 52.4124 64.1583C52.5007 64.07 49.5904 61.4326 47.9158 60.0831C44.925 57.6732 41.1184 55.4856 38.2504 54.5281C37.5223 54.2849 36.8932 54.1194 36.8524 54.16C36.8118 54.2008 37.18 54.461 37.6707 54.738C38.7809 55.3651 40.3695 56.7752 40.2263 57.0067C40.0611 57.2742 37.6124 57.0012 35.9632 56.5315C34.0726 55.9931 31.4108 54.7001 29.3028 53.2962C28.3716 52.6761 27.5339 52.1446 27.4413 52.1149C27.3486 52.0853 28.0356 52.8101 28.9678 53.7256ZM49.0111 58.3333C53.6328 62.6137 59.2468 68.4721 58.8154 68.564C58.4268 68.6469 56.8718 67.9568 55.6027 67.1383C54.7578 66.5935 54.5026 66.4835 54.7391 66.7657C56.9038 69.3501 58.5864 70.7986 61.4537 72.547C61.7166 72.7072 61.9062 72.8626 61.875 72.8923C61.8438 72.9219 61.4052 72.8801 60.9005 72.7994C60.3958 72.7189 59.9563 72.6794 59.9239 72.7118C59.7734 72.8623 61.5068 73.6945 62.4612 73.9301C63.4068 74.1635 63.6319 74.1655 64.4425 73.948C64.9455 73.813 65.4777 73.6504 65.6249 73.5864C65.8309 73.497 66.0139 73.716 66.4153 74.5311C67.4616 76.6565 68.7925 77.7055 70.4235 77.691L71.255 77.6836L70.6652 77.3692C69.6919 76.8501 69.1203 76.1289 69.0271 75.3022C68.9566 74.6777 69.0139 74.4824 69.4034 74.0194C69.9642 73.3531 70.5503 73.0373 71.6741 72.7962C73.4555 72.4142 75.0584 73.2942 75.3022 74.788C75.3593 75.1375 75.4256 75.5373 75.4493 75.6763C75.5253 76.1191 76.0577 74.1271 76.0577 73.4002C76.0577 72.1176 75.6023 71.9134 71.7605 71.473C69.9423 71.2646 68.4096 70.5882 67.7268 69.6928C67.4798 69.3691 67.3006 69.103 67.3284 69.1015C70.3794 68.9342 70.877 68.8108 73.5183 67.5674C76.2457 66.2831 77.1618 66.042 79.765 65.9225L82.0399 65.8182L80.439 64.7488C75.1854 61.2393 71.6325 60.5696 63.7561 61.6041C59.8537 62.1168 58.6491 62.0905 56.074 61.4373C54.0778 60.9309 52.1768 60.0135 49.5841 58.3051L47.4945 56.9285L49.0111 58.3333ZM80.4586 60.4448C81.5672 60.7558 82.0692 61.2044 82.2349 62.0322L82.3507 62.6114L81.6897 62.0591C81.3263 61.7555 80.6308 61.2341 80.1441 60.9004C78.9187 60.06 78.9462 60.0203 80.4586 60.4448Z" fill="#FC0001"/>
</svg>
