<svg width="97" height="96" viewBox="0 0 97 96" fill="none" xmlns="http://www.w3.org/2000/svg">
<path d="M76.4907 56.7473C76.6128 56.6862 76.4907 56.551 76.4618 56.4899L73.3184 52.6735L73.2285 52.6301L69.8248 56.609C69.7959 56.6556 69.8409 56.6862 69.873 56.7168H72.6775V62.8902H58.4848V57.7626H58.3723C56.8432 61.2121 53.2484 63.7397 49.4545 63.6046C47.6266 63.6046 46.038 62.8902 44.5394 62.0439L44.4671 62.1807V62.8629L44.3434 62.9079L37.8462 62.8773L37.8157 62.7116L37.7868 53.4474L37.7546 53.4153C37.2696 54.4466 36.8792 55.5503 36.2448 56.535C33.0998 61.9104 27.2354 64.0438 21.2666 63.3938C16.2471 62.9691 11.4717 59.2894 9.43181 54.6445C7.21038 49.6343 7.61836 42.7465 11.0943 38.4329C14.8272 33.5289 20.8586 31.5145 26.768 32.7406C28.31 33.0897 29.7893 33.7091 31.1658 34.4798V34.3752C31.1964 33.9199 31.0598 33.4823 31.1658 33.0575H36.9065V42.8832L29.6239 42.835C27.7494 40.2928 24.8019 39.2647 21.734 39.9292C18.8026 40.4747 16.1266 43.2903 15.6431 46.2266C15.0247 49.5731 16.3852 52.8119 19.164 54.733C21.3565 56.3982 24.8935 56.461 27.1743 54.9614C28.3549 54.2487 29.4279 53.0227 30.1218 51.8739L30.2888 51.8289L39.7801 51.8112L39.9311 51.8289L45.4791 51.8739L45.5401 51.9173C45.781 53.5536 45.72 55.309 46.8379 56.58C47.4435 57.1415 48.3189 57.3072 49.1814 57.1415C50.1195 57.0048 51.0848 56.1874 51.3579 55.2478C51.631 54.2664 51.3579 53.2045 50.6624 52.5078C50.105 51.9495 49.4079 51.676 48.7285 51.3719C45.01 50.0719 40.4451 48.4968 39.0107 44.1832C37.8912 40.4441 39.2067 36.5247 42.2907 34.1934C44.798 32.2852 48.9084 31.7108 51.7354 33.3616L52.5674 33.9054C52.7023 33.8909 52.6429 33.7236 52.6589 33.619L52.7023 32.8162C54.5013 32.8306 56.4963 32.755 58.2647 32.8162L58.2503 42.9267L58.2197 42.9878L51.9763 42.9572C51.6149 41.4738 51.7193 39.5978 50.1195 38.8094C49.2264 38.4764 48.0025 38.4458 47.2909 39.173C46.6114 39.7635 46.34 40.6098 46.491 41.5205C46.6275 42.7465 47.8209 43.5171 48.8955 43.8357C51.2214 44.7126 53.6243 45.3497 55.6482 46.9538C58.6727 49.1033 59.8372 52.7363 58.8703 56.3065C58.8237 56.3982 58.7916 56.5044 58.8092 56.609L58.9586 56.7168H61.0917L65.3836 51.7822L69.0571 47.5282L68.4804 46.772L61.9671 38.9928L60.0717 38.9767V32.932H72.8124V39.0218C72.1009 39.0974 71.4134 38.9607 70.7324 39.0829L70.7934 39.2647C71.6865 40.3234 72.5169 41.3982 73.41 42.4134L73.6509 42.2316C74.5263 41.2003 75.5238 40.1867 76.3558 39.1135C75.5848 39.0057 74.7994 39.1135 74.0284 39.0218L74.0444 32.932H88.0557L88.0091 39.0668L87.9641 39.1135L85.0311 39.1425L77.6553 47.6344L77.6697 47.7872L85.0616 56.7473H87.9256V62.8902H74.0123L73.9995 56.7473H76.4907Z" fill="#0A1064"/>
</svg>
