<svg width="96" height="96" viewBox="0 0 96 96" fill="none" xmlns="http://www.w3.org/2000/svg">
<path d="M82.6786 48.8734C83.3296 49.0798 84.0389 49.3047 84.4003 49.4535C86.1859 50.201 88.2209 51.613 88.2624 55.0599C88.2624 59.9189 84.1926 62.286 80.1642 62.286C76.0945 62.286 72.5229 60.5002 70.6125 55.3921L67.581 47.0449L65.3384 53.6479H68.6192L70.0727 57.8839H64.0095L62.7636 61.8291H51.883V46.2557H49.4743V61.8291H44.1586L34.6899 49.5366V61.8707H29.2497V41.6045H34.6899L43.9925 53.6479V41.6045H61.5177V46.2557H57.2818V60.8739L67.581 33.714L75.6792 54.1878C77.0081 57.0949 79.3336 57.3855 80.2474 57.3855C83.1128 57.3855 83.0713 54.3955 80.9948 53.6895C79.9566 53.3157 79.6659 53.2326 77.9217 52.5681C75.9283 51.8207 74.2256 49.412 74.2256 47.2109C74.2256 44.0963 76.4266 40.9816 80.6627 40.9816C82.2407 40.9816 83.2374 41.1892 85.1477 41.7706V46.588C84.1926 45.9235 83.0713 45.3421 81.6177 45.3421C79.6659 45.3421 78.7107 47.3355 81.3271 48.4152C81.4893 48.4963 82.0574 48.6765 82.6786 48.8734Z" fill="#0B2365"/>
<path d="M24.3908 40.5247C26.0934 40.5247 27.4639 39.1543 27.4639 37.4516C27.4639 35.7489 26.0934 34.3785 24.3908 34.3785C22.6881 34.3785 21.3176 35.7489 21.3176 37.4516C21.3176 39.1543 22.6881 40.5247 24.3908 40.5247Z" fill="#0B2365"/>
<path d="M19.8641 48.0831L19.8483 48.0721C18.114 46.8746 17.1577 46.2143 14.8806 46.2143C12.0566 46.2143 9.81407 48.706 9.81407 51.7791C9.81407 54.8522 12.0982 57.344 14.8806 57.344C17.0816 57.344 17.6215 57.1363 19.9887 55.5583V61.0816C18.4936 61.8291 16.7079 62.286 14.8806 62.286C8.85888 62.2444 4 57.5516 4 51.7791C4 46.0066 8.85888 41.3138 14.8806 41.3138C16.6664 41.3138 18.3691 41.7291 19.8641 42.4767V48.0831Z" fill="#0B2365"/>
<path fill-rule="evenodd" clip-rule="evenodd" d="M89.8821 61.4138V59.6281H90.5465C90.9618 59.6281 91.1694 59.7942 91.1694 60.1265C91.1694 60.4587 90.9618 60.5833 90.7127 60.6248L91.211 61.4138H90.9203L90.4634 60.6248H90.1728V61.4138H89.8821ZM90.4634 60.4172C90.6711 60.4172 90.8787 60.4172 90.8787 60.1265C90.8787 59.9189 90.6711 59.8773 90.505 59.8773H90.1312V60.4172H90.4634Z" fill="#0B2365"/>
<path fill-rule="evenodd" clip-rule="evenodd" d="M88.8853 60.5418C88.8853 59.6696 89.5914 59.0051 90.4634 59.0051C91.294 59.0051 92 59.6696 92 60.5418C92 61.4138 91.294 62.0783 90.4634 62.0783C89.5914 62.0783 88.8853 61.4138 88.8853 60.5418ZM90.4634 61.8291C91.1694 61.8291 91.7093 61.2892 91.7093 60.5418C91.7093 59.7942 91.1694 59.2544 90.4634 59.2544C89.7575 59.2544 89.2176 59.7942 89.2176 60.5418C89.2176 61.2892 89.7575 61.8291 90.4634 61.8291Z" fill="#0B2365"/>
<path d="M21.6914 41.6045H27.1317V61.8707H21.6914V41.6045Z" fill="#0B2365"/>
</svg>
