<svg width="96" height="96" viewBox="0 0 96 96" fill="none" xmlns="http://www.w3.org/2000/svg">
<path d="M54.5142 50.1244L59.7472 45.028H54.5931V42.628H63.409V45.0673L58.1752 50.1443H63.5086V52.544H54.5161L54.5142 50.1244ZM50.7961 39.3665H53.5222V41.8337H50.7961V39.3665ZM50.7591 42.6579H53.4854V52.574H50.7591V42.6579ZM17.785 47.5862C17.7959 44.7518 20.1083 42.462 22.9522 42.4692C25.7961 42.4764 28.097 44.778 28.0932 47.6124C28.0897 50.4465 25.7831 52.7425 22.9392 52.7425C21.568 52.7445 20.253 52.2011 19.2853 51.2331C18.3176 50.265 17.7775 48.9523 17.785 47.5862ZM25.446 47.5862C25.446 46.1781 24.3314 45.0063 22.9391 45.0063C21.5262 45.0063 20.4512 46.1767 20.4512 47.5862C20.4512 48.9956 21.5262 50.1661 22.9391 50.1661C24.3314 50.1639 25.4466 48.9943 25.4466 47.5862H25.446ZM40.3962 42.628H43.1035V43.7387C43.7397 42.9241 44.7146 42.4298 45.8487 42.4298C48.1976 42.4298 49.6105 43.937 49.6105 46.4951V52.5441H46.8442V46.8523C46.8442 45.5236 46.2269 44.7476 45.0135 44.7476C43.9788 44.7476 43.1231 45.4611 43.1231 47.1238V52.5381H40.3983L40.3962 42.628ZM63.6638 47.5862C63.6638 44.0755 66.2525 42.4265 68.5006 42.4265C69.7948 42.4265 70.809 42.9017 71.4652 43.597V42.6281H74.19V52.5442H71.4652V51.4335C70.809 52.2068 69.7539 52.7425 68.461 52.7425C66.3512 52.7425 63.6638 51.0789 63.6638 47.5862ZM71.5435 47.5665C71.5435 46.0986 70.469 44.9086 68.9965 44.9086C67.484 44.9086 66.3302 46.0388 66.3302 47.5665C66.3302 49.0938 67.484 50.2433 68.9965 50.2433C70.4706 50.2433 71.5448 49.0336 71.5448 47.5665H71.5435ZM75.2923 42.628H77.9989V43.7387C78.6359 42.9241 79.6106 42.4298 80.745 42.4298C83.0931 42.4298 84.506 43.937 84.506 46.4951V52.5441H81.7395V46.8523C81.7395 45.5236 81.1264 44.7476 79.9091 44.7476C78.8743 44.7476 78.0186 45.4611 78.0186 47.1238V52.5381H75.2938L75.2923 42.628ZM14.8767 47.4998L14.8392 47.5786C14.0865 49.1598 12.7023 50.0668 11.0414 50.0668C8.63321 50.0668 6.74967 48.1701 6.74967 45.749C6.74967 43.2661 8.62023 41.3945 11.1013 41.3945C12.709 41.3945 13.9304 42.1447 14.7324 43.6254L14.7752 43.7042L17.2018 42.1583L17.161 42.0903C15.9005 39.9512 13.6347 38.6741 11.1013 38.6741C7.05261 38.6741 4 41.7162 4 45.7504C4 49.8509 6.98661 52.8271 11.1013 52.8271C13.7532 52.8271 16.0961 51.3603 17.3687 48.9032L17.4068 48.829L14.8767 47.4998ZM28.78 47.5862C28.78 44.0755 31.3687 42.4265 33.6168 42.4265C34.911 42.4265 35.9248 42.9622 36.5814 43.6954V42.6281H39.3062V52.2686C39.3062 55.0651 37.535 57.3259 34.1718 57.3259C31.6445 57.3259 29.7942 56.0163 28.9946 54.4697L31.4028 53.1214C31.9198 54.1525 32.8334 54.8071 34.1685 54.8071C35.6414 54.8071 36.5761 53.657 36.5761 52.3677V51.4335C35.9192 52.2068 34.8648 52.7425 33.5718 52.7425C31.4662 52.7425 28.78 51.0789 28.78 47.5862ZM36.6597 47.5665C36.6597 46.0986 35.5854 44.9086 34.1125 44.9086C32.6002 44.9086 31.4464 46.0388 31.4464 47.5665C31.4464 49.0938 32.6002 50.2433 34.1125 50.2433C35.5856 50.2433 36.6597 49.0336 36.6597 47.5665ZM91.22 45.0673V42.628H89.3495V39.3571H86.6247V42.628H84.9316V45.0673H86.6211V48.2407C86.6211 51.4737 87.6558 52.5441 90.8202 52.5441H91.218V50.0057C89.5464 50.0057 89.3475 49.7676 89.3475 48.2209V45.0673H91.22ZM91.7985 40.5404C91.6683 40.6711 91.4909 40.7447 91.3059 40.7447C91.121 40.7447 90.9437 40.6711 90.8135 40.5404C90.6804 40.4112 90.6063 40.2332 90.609 40.0482C90.6096 39.7346 90.8216 39.4605 91.1257 39.3798C91.4299 39.2992 91.7504 39.4322 91.9073 39.704C92.0643 39.9759 92.0185 40.3189 91.7958 40.5404H91.7985ZM90.883 39.6273C90.7689 39.738 90.706 39.8909 90.7085 40.0496C90.706 40.2089 90.7685 40.3622 90.8817 40.4747C90.9937 40.5872 91.1462 40.6506 91.3054 40.6506C91.4645 40.6506 91.6171 40.5872 91.7291 40.4747C91.8433 40.3628 91.9062 40.2091 91.9034 40.0496C91.9056 39.8073 91.7599 39.5881 91.5353 39.4952C91.3109 39.4025 91.0523 39.4547 90.8818 39.6273H90.883ZM91.2917 39.6661C91.3624 39.6624 91.433 39.6717 91.5002 39.6932C91.5783 39.7242 91.6265 39.8028 91.6189 39.8861C91.6227 39.9459 91.5946 40.0034 91.5444 40.0369C91.5105 40.0563 91.473 40.0688 91.4342 40.0735C91.4865 40.0787 91.534 40.1058 91.565 40.1482C91.5907 40.1821 91.6051 40.2231 91.6064 40.2656V40.3219C91.6064 40.3389 91.6064 40.358 91.6064 40.3782C91.6067 40.3915 91.6086 40.4049 91.6125 40.4176L91.6173 40.4271H91.4914C91.4909 40.4246 91.4909 40.4222 91.4914 40.4197V40.4115V40.3871V40.3267C91.5005 40.2598 91.4729 40.1932 91.4191 40.1523C91.3718 40.1323 91.3204 40.124 91.2692 40.1278H91.163V40.4273H91.0267V39.6662L91.2917 39.6661ZM91.4369 39.7855C91.3857 39.7633 91.3297 39.7537 91.2739 39.7578H91.1589V40.0333H91.2808C91.3243 40.0354 91.3674 40.0297 91.4089 40.0164C91.4523 39.9968 91.4825 39.9561 91.4882 39.9088C91.494 39.8615 91.4744 39.8148 91.4369 39.7855Z" fill="#0033A1"/>
</svg>
