<svg width="97" height="96" viewBox="0 0 97 96" fill="none" xmlns="http://www.w3.org/2000/svg">
<path d="M24.6032 22.9627C24.0876 23.2143 23.0464 23.5242 21.5023 23.5242C17.2262 23.5242 14.7723 20.5832 14.7723 16.8309C14.7723 12.3638 17.8992 10 21.7863 10C23.2932 10 24.0895 10.2884 24.6023 10.5609L24.1273 13.2324C23.5564 12.9795 22.9503 12.7492 21.9037 12.7492C20.0525 12.7492 18.0889 13.8501 18.0889 16.7815C18.0889 19.4039 19.6546 20.7909 21.9192 20.7909C22.8161 20.7909 23.4249 20.6149 24.1275 20.2925L24.6032 22.9627Z" fill="#0073BD"/>
<path d="M31.7034 13.3129C30.5515 13.3129 29.4368 13.8351 28.8692 14.674H28.8343V10.0469L25.9367 11.05V23.122H28.8343V17.4829C28.8343 16.6687 29.3636 15.7929 30.3789 15.7929C31.465 15.7929 31.8833 16.6478 31.8833 17.8915V23.1222H34.7834V17.4915C34.7834 14.6171 33.5506 13.3129 31.7034 13.3129Z" fill="#0073BD"/>
<path d="M39.1545 19.3135C39.2611 20.5363 40.2753 21.186 41.8425 21.2C42.7869 21.2073 43.8849 20.9327 44.6163 20.5018L45.0535 22.7569C43.9526 23.3099 42.6949 23.5241 41.4147 23.5241C37.9656 23.5241 36.1169 21.4497 36.1169 18.2717C36.1169 15.1975 38.1048 13.2139 41.0837 13.2139C44.1536 13.2139 45.5298 15.4742 45.5298 18.3064C45.5298 18.6048 45.493 19.0909 45.46 19.3135H39.1545ZM42.6358 17.2514C42.6358 16.5413 42.2893 15.2995 40.9478 15.2995C39.7717 15.2995 39.217 16.3121 39.1347 17.2514H42.6358Z" fill="#0073BD"/>
<path d="M48.9358 23.1219L45.7342 13.6173H48.931L50.6704 20.3405H50.7289L52.4685 13.6173H55.6666L52.4652 23.1219H48.9358Z" fill="#0073BD"/>
<path d="M56.4881 16.7431C56.4881 15.3448 56.4442 14.4325 56.3846 13.6171H59.1144L59.1971 15.3838H59.2705C59.7482 13.9855 60.665 13.4543 61.608 13.4008C62.0562 13.3747 62.2989 13.4064 62.5764 13.4601V16.2392C62.3108 16.1872 61.7837 16.1259 61.4132 16.16C60.298 16.2626 59.6232 17.0737 59.4339 18.0074C59.3959 18.2009 59.3762 18.4158 59.3762 18.6672V23.1217H56.4891V16.7431H56.4881Z" fill="#0073BD"/>
<path d="M72.7594 18.369C72.7594 21.4841 70.8825 23.524 67.8412 23.524C64.7992 23.524 62.9211 21.4841 62.9211 18.369C62.9211 15.2534 64.7992 13.2137 67.8412 13.2137C70.8825 13.2137 72.7594 15.2536 72.7594 18.369ZM69.7553 18.369C69.7553 16.8223 69.2236 15.476 67.8412 15.476C66.4569 15.476 65.9279 16.8221 65.9279 18.369C65.9279 19.9171 66.4569 21.2613 67.8412 21.2613C69.224 21.2613 69.7553 19.9171 69.7553 18.369Z" fill="#0073BD"/>
<path d="M74.048 16.6475C74.048 15.4613 74.0045 14.4486 73.9433 13.6172H76.6731L76.7355 14.947H76.7941C77.1721 14.3286 78.1725 13.3127 79.7334 13.3127C81.6437 13.3127 82.8907 14.617 82.8907 17.4149V23.122H79.9957V17.8517C79.9957 16.6287 79.576 15.7926 78.5284 15.7926C77.7251 15.7926 77.2262 16.3574 77.0411 16.8989C76.9725 17.0972 76.9445 17.3666 76.9445 17.6387V23.1218H74.048V16.6475Z" fill="#0073BD"/>
<path d="M14.8758 48.318V25.6495L48.8872 36.9844L14.8758 48.318Z" fill="#0073BD"/>
<path d="M14.8844 48.3198L48.8871 59.6534L82.888 48.3198V25.6523L48.8871 36.9845L14.8844 48.3198Z" fill="#00AEEF"/>
<path d="M14.8779 74.6676L14.875 51.9918L48.884 63.3261L14.8779 74.6676Z" fill="#98012E"/>
<path d="M82.8897 51.9918L48.8775 63.3225L14.8816 74.6635L48.884 86L82.8897 74.6599V51.9918Z" fill="#E51937"/>
</svg>
