<svg width="96" height="96" viewBox="0 0 96 96" fill="none" xmlns="http://www.w3.org/2000/svg">
<path fill-rule="evenodd" clip-rule="evenodd" d="M47.8189 35.4604C48.2508 35.051 45.6669 34.5128 43.6617 35.8777C42.1829 36.8849 42.1355 39.043 43.5512 40.2665C43.6933 40.3875 43.8098 40.4738 43.9188 40.5443C44.3317 40.35 44.8031 40.1538 45.3451 39.9781C46.2615 39.6818 47.0226 39.5277 47.6484 39.4461C47.948 39.112 48.2966 38.5241 48.2098 37.459C48.0914 36.0141 46.9942 36.243 47.8189 35.4604ZM61.3828 43.3053C61.1384 43.1702 59.9939 43.2238 59.1897 43.3191C57.6576 43.4995 56.0038 44.0299 55.6414 44.312C54.9824 44.8203 55.2817 45.7065 55.7689 46.0706C57.1341 47.0884 58.3307 47.7709 59.5936 47.6046C60.369 47.5026 61.0532 46.2775 61.5372 45.1655C61.8684 44.3999 61.8684 43.5732 61.3829 43.3053L61.3828 43.3053ZM56.1507 34.2605C56.0623 34.4611 55.9233 34.5927 56.1316 35.2472L56.145 35.2846L56.1779 35.3693L56.2647 35.5655C56.6398 36.3308 57.0516 37.0526 57.7401 37.4211C57.9186 37.3915 58.1029 37.3711 58.2936 37.3616C58.9402 37.3332 59.3485 37.4353 59.607 37.5748C59.6303 37.4463 59.6351 37.258 59.6204 36.9802C59.5698 36.0108 59.8126 34.3622 57.9461 33.4949C57.2414 33.1686 56.2528 33.2691 55.9231 33.6769C55.9835 33.6847 56.0369 33.697 56.0795 33.7112C56.5777 33.8838 56.2403 34.0548 56.1505 34.2605L56.1507 34.2605ZM75.3754 47.5467L73.7674 47.8525L70.6789 16L18.0471 22.091L24.5312 74.6084L30.6919 73.7159C30.2 73.0149 29.4341 72.1662 28.1254 71.081C26.3109 69.5766 26.9525 67.0212 28.023 65.4073C29.4388 62.6809 36.7345 59.2157 36.3216 54.8581C36.1732 53.2736 35.9209 51.2108 34.4471 49.7974C34.3919 50.3842 34.4914 50.9488 34.4914 50.9488C34.4914 50.9488 33.8858 50.1789 33.5846 49.128C33.2853 48.7245 33.0504 48.596 32.7318 48.0582C32.5048 48.6807 32.5348 49.4022 32.5348 49.4022C32.5348 49.4022 32.0398 48.2355 31.9596 47.25C31.6663 47.6909 31.5921 48.5286 31.5921 48.5286C31.5921 48.5286 30.949 46.6885 31.0954 45.6971C30.8025 44.8345 29.932 43.1232 30.1779 39.2329C31.7843 40.3559 35.3205 40.0895 36.6983 38.0626C37.1555 37.3915 37.4694 35.5593 36.4697 31.9483C35.8282 29.6329 34.2392 26.1851 33.6193 24.8769L33.5454 24.9301C33.8715 25.9841 34.5446 28.1927 34.8032 29.2641C35.5853 32.5129 35.7949 33.6438 35.4274 35.142C35.1155 36.4439 34.3666 37.2958 32.4684 38.2478C30.5707 39.2029 28.0511 36.8785 27.892 36.7496C26.0475 35.283 24.6207 32.8908 24.4616 31.7284C24.2963 30.4565 25.1963 29.6924 25.6504 28.6526C25.0009 28.8377 24.2773 29.1672 24.2773 29.1672C24.2773 29.1672 25.1411 28.2747 26.2066 27.5027C26.6484 27.2108 26.907 27.026 27.3717 26.6398C26.6985 26.6288 26.1517 26.6476 26.1517 26.6476C26.1517 26.6476 27.2741 26.0424 28.4376 25.6015C27.5864 25.5636 26.7712 25.5951 26.7712 25.5951C26.7712 25.5951 29.2761 24.4769 31.2548 23.6565C32.6153 23.0993 33.9442 23.2644 34.6915 24.3417C35.6718 25.7535 36.7014 26.5207 38.8834 26.9959C40.2233 26.4029 40.63 26.0987 42.3138 25.6405C43.7954 24.0139 44.9589 23.8038 44.9589 23.8038C44.9589 23.8038 44.3821 24.3323 44.2273 25.1621C45.0679 24.5017 45.9885 23.9496 45.9885 23.9496C45.9885 23.9496 45.632 24.389 45.2996 25.0868L45.3765 25.2015C46.3572 24.6148 47.5096 24.1522 47.5096 24.1522C47.5096 24.1522 47.1803 24.5679 46.7938 25.1057C47.5333 25.0994 49.0327 25.1373 49.6142 25.2031C53.0493 25.2783 53.7619 21.5417 55.0797 21.0728C56.7304 20.4845 57.4682 20.1286 60.2807 22.8861C62.6941 25.2531 64.5796 29.4902 63.6432 30.439C62.8583 31.2263 61.31 30.1317 59.5934 27.9968C58.6866 26.8659 58.0008 25.5293 57.6795 23.8306C57.4082 22.3967 56.3537 21.5653 56.3537 21.5653C56.3537 21.5653 56.9653 22.9271 56.9653 24.1269C56.9653 24.7826 57.0474 27.2328 58.1003 28.6083C57.9961 28.8093 57.9476 29.6029 57.8322 29.755C56.6076 28.2774 53.9763 27.2202 53.5476 26.9081C54.9996 28.0957 58.3368 30.8232 59.6187 33.4385C60.8311 35.9107 60.1165 38.1772 60.73 38.7639C60.9045 38.9318 63.3372 41.9576 63.8054 43.4774C64.6219 46.1269 63.8543 48.9112 62.7857 50.6382L59.8011 51.1024C59.3648 50.9818 59.0699 50.9208 58.6791 50.6946C58.8946 50.3135 59.3238 49.3631 59.3281 49.1669L59.1599 48.8722C58.231 50.1851 56.6751 51.4602 55.3825 52.1927C53.6908 53.1498 51.741 53.0021 50.4717 52.61C46.8696 51.5012 43.4629 49.0711 42.6414 48.4328C42.6414 48.4328 42.6162 48.9427 42.7708 49.0573C43.6789 50.0799 45.7598 51.9295 47.7713 53.2188L43.483 53.6893L45.5107 69.4429C44.6121 69.5714 44.4716 69.6344 43.4878 69.7739C42.6208 66.7166 40.9623 64.72 39.1494 63.5576C37.5509 62.5319 35.3456 62.301 33.2346 62.7183L33.0992 62.8751C34.5667 62.723 36.2994 62.9346 38.0791 64.0596C39.8261 65.1621 41.2335 68.0094 41.7523 69.7239C42.4159 71.9151 42.8747 74.2588 41.0887 76.7433C39.8182 78.5097 36.1087 79.4854 33.1119 77.3741C33.9125 78.6587 34.9939 79.7096 36.4506 79.9074C38.6137 80.2006 40.6662 79.8258 42.0788 78.3781C43.2845 77.1401 43.9248 74.552 43.7559 71.8261L45.6651 71.5498L46.354 76.4422L77.9528 72.6445L75.3754 47.5467ZM45.1181 54.7797L49.094 54.2335C49.7371 54.5223 50.1848 54.6323 50.9559 54.8281C52.1572 55.1402 53.5477 55.4401 55.6065 54.4045C56.0858 54.1677 57.0838 53.2563 57.4873 52.7374L73.7753 49.788L75.437 69.8603L47.5318 74.8799L45.1181 54.7797ZM68.2261 61.4413L62.8912 57.9292L58.4411 65.3489L53.2654 63.8386L48.7079 70.7811L48.9412 72.9661L73.72 68.4094L72.2806 52.9568L68.2261 61.4413Z" fill="#612BA6"/>
</svg>
