<svg width="96" height="96" viewBox="0 0 96 96" fill="none" xmlns="http://www.w3.org/2000/svg">
<path d="M44.413 57.3663V75.827C44.2897 80.3982 44.1928 80.4981 44.1194 80.6448C43.9462 80.8154 43.8728 81.0151 43.6262 81.2614C43.4294 81.432 43.1329 81.799 42.8158 81.8748C42.5692 82.042 42.3491 82.2185 42.1993 82.2185C42.1993 82.2934 42.1025 82.2934 41.9557 82.2934C41.9557 82.2934 41.8559 82.3682 41.7825 82.3682C41.7092 82.4648 41.7092 82.4648 41.7825 82.5389H55.8189V82.3682C55.7221 82.2933 55.7221 82.2934 55.5724 82.2934C55.4021 82.2185 55.3287 82.1202 55.0322 81.9729C54.7856 81.7998 54.4655 81.4329 54.2454 81.2623C53.9254 80.9394 53.852 80.6456 53.7551 80.4991C53.6785 80.326 53.6083 80.2528 53.6083 73.1711V37.6529L41.4156 49.7487C42.1995 49.4025 43.3327 49.5989 43.8729 50.2621C44.4131 50.8555 44.4131 52.1557 44.4131 57.3669" fill="black"/>
<path fill-rule="evenodd" clip-rule="evenodd" d="M13 48.3978C13 47.1823 13.0616 45.9815 13.185 44.7983L44.3376 13.6458C45.5237 13.5251 46.7245 13.461 47.9429 13.461C49.6281 13.461 51.2839 13.5816 52.9045 13.813L13.3523 53.3681C13.1204 51.7446 13 50.0859 13 48.3978Z" fill="#6FBE4A"/>
<path fill-rule="evenodd" clip-rule="evenodd" d="M25.095 74.8355C23.5331 73.485 22.0945 71.9965 20.791 70.3964L39.8624 51.325C40.6463 50.9871 42.0849 51.1669 42.6222 51.8301C43.0097 52.3619 43.0067 52.805 43.0596 56.8711L25.095 74.8355Z" fill="#6FBE4A"/>
<path fill-rule="evenodd" clip-rule="evenodd" d="M69.9344 21.2513C71.5374 22.5519 73.0259 23.9904 74.3764 25.5523L55.1346 44.7999V36.054L69.9344 21.2513Z" fill="#6FBE4A"/>
<path fill-rule="evenodd" clip-rule="evenodd" d="M63.171 16.9487C65.094 17.8822 66.9201 18.9832 68.6258 20.2398L19.7787 69.0841C18.525 67.3783 17.4212 65.5523 16.4876 63.6322L63.171 16.9487Z" fill="#6FBE4A"/>
<path fill-rule="evenodd" clip-rule="evenodd" d="M54.8871 14.1538C57.2064 14.6207 59.4465 15.3193 61.575 16.2236L15.7636 62.0351C14.8593 59.9066 14.1606 57.6694 13.6908 55.3501L54.8871 14.1538Z" fill="#6FBE4A"/>
<path fill-rule="evenodd" clip-rule="evenodd" d="M13.5669 42.0942C16.1593 27.8522 27.389 16.6254 41.631 14.0302L13.5669 42.0942Z" fill="#6FBE4A"/>
<path fill-rule="evenodd" clip-rule="evenodd" d="M75.2392 69.8557C73.9474 71.4734 72.5147 72.9765 70.9616 74.3447L55.0873 58.4704V49.7038L75.2392 69.8557Z" fill="#00954C"/>
<path fill-rule="evenodd" clip-rule="evenodd" d="M79.6157 63.3237C78.7027 65.2349 77.819 66.8907 76.5888 68.5936L55.1305 47.1352L59.273 42.9897L79.6157 63.3237Z" fill="#00954C"/>
<path fill-rule="evenodd" clip-rule="evenodd" d="M82.3561 55.0124C81.9039 57.3376 81.2199 59.5835 80.3332 61.7179L60.4338 41.8303L64.8054 37.4559L82.3561 55.0124Z" fill="#00954C"/>
<path fill-rule="evenodd" clip-rule="evenodd" d="M71.5003 30.7624L75.4432 26.8224C78.8078 31.1029 81.2915 36.0852 82.366 41.6398L71.5003 30.7624Z" fill="#00954C"/>
<path fill-rule="evenodd" clip-rule="evenodd" d="M70.3404 31.9241L82.7827 44.3781C82.9265 45.6669 82.9999 46.9764 82.9999 48.3064C82.9999 49.9035 82.8913 51.4771 82.6829 53.0185L65.9689 36.2956L70.3404 31.9241Z" fill="#00954C"/>
</svg>
