<svg width="96" height="96" viewBox="0 0 96 96" fill="none" xmlns="http://www.w3.org/2000/svg">
<path d="M37.2889 50.0167L37.1322 50.1734C37.0539 50.2517 35.0566 52.2491 34.3515 54.2464H30.8658C31.6492 51.2702 35.4871 48.2149 35.526 48.1761L35.7215 48.0194L35.526 47.8627C35.4864 47.8232 32.158 45.0432 30.9046 41.9096H34.4292C35.2514 44.377 37.0137 45.8259 37.0921 45.8654L37.2092 45.9826L37.3264 45.8654C37.4048 45.7871 39.2066 44.3381 40.0676 41.9096H43.5922C42.2605 45.0425 38.932 47.8232 38.8925 47.8627L38.697 48.0194L38.8925 48.1761C38.932 48.2156 42.77 51.2307 43.6311 54.2464H40.1453C39.4797 52.2879 37.4041 50.2517 37.3257 50.1734L37.2862 50.0167H37.2889ZM24.1299 54.4814C26.7539 54.4814 28.4379 53.3847 29.0251 52.9146C28.6334 52.7191 27.2628 52.0529 27.0666 51.9357C26.7928 52.2491 25.8915 52.5624 24.4038 52.5624C22.5631 52.5624 21.7797 51.779 21.7797 49.1162V48.9206H21.9752C24.991 48.9206 27.2621 48.3723 29.2206 47.1188C29.2601 46.9622 29.3773 46.4533 29.3773 46.0221C29.3773 43.9853 28.0067 41.6357 24.1687 41.6357C20.0958 41.6357 18.0984 43.7509 18.0984 48.0582C18.0984 52.5618 19.9002 54.4807 24.1299 54.4807V54.4814ZM21.7804 47.1583C21.7804 45.2782 22.0542 43.4376 24.2477 43.4376C25.3833 43.4376 26.1667 43.9859 26.1667 45.396C26.1667 45.8266 25.9317 46.2966 25.9317 46.3361L25.8922 46.4145L25.775 46.4928C24.6783 47.08 24.0911 47.3934 21.9759 47.3934H21.7804V47.1583ZM15.5139 47.9411C15.5139 43.5942 13.3204 41.4791 8.85638 41.4791H4V54.4814H8.85638C13.3211 54.4426 15.5139 52.3274 15.5139 47.9411ZM7.56411 43.4764H8.97422C9.28758 43.4764 9.60094 43.5152 9.95313 43.6331C11.0887 44.2203 11.6371 45.3565 11.6371 47.9799C11.6371 50.8778 10.9715 52.0529 9.56143 52.4834L8.97422 52.5223H7.56411V43.4757V43.4764ZM88.5932 54.2076V45.161C88.5932 43.8688 88.4366 43.4771 87.4965 43.4771C85.8514 43.4771 85.1858 44.6126 85.147 44.6521L85.1081 44.6917V54.2082H81.6224V45.1617C81.6224 43.8694 81.4657 43.4777 80.5256 43.4777C78.8805 43.4777 78.2149 44.6133 78.1761 44.6528L78.1373 44.6923V54.2089H74.691V44.4178C74.691 43.5956 73.8688 42.8122 72.9675 42.3421C73.6726 42.1466 75.6304 41.5587 75.7482 41.5199C76.1399 41.6766 77.08 42.1071 77.3539 42.4988L77.471 42.6555L77.6277 42.5383C77.6277 42.5383 79.1945 41.5594 81.2307 41.5594C82.7191 41.5594 83.7764 41.8333 84.4031 42.4211L84.5203 42.4995L84.6374 42.4607C85.9297 41.8734 87.1048 41.5601 88.162 41.5601C90.9816 41.5601 92 42.6957 92 43.7536V54.2102H88.5926L88.5932 54.2076ZM49.3907 48.0589C49.3907 51.3485 50.2913 52.5624 52.2102 52.5624C53.6592 52.5624 54.4031 52.2886 54.6776 51.9752C54.9126 52.0924 56.2832 52.7974 56.6749 52.9936C56.1661 53.4242 54.5993 54.5209 52.1319 54.5209C47.8627 54.5209 45.6311 52.2886 45.6311 48.0984C45.6311 43.8688 47.8634 41.6759 52.1319 41.6759C54.5993 41.6759 56.1661 42.7727 56.6749 43.2032C56.2832 43.3987 54.9126 44.1038 54.6776 44.2216C54.4038 43.9083 53.6987 43.6344 52.2498 43.6344C50.2913 43.5561 49.3907 44.7312 49.3907 48.0596V48.0589ZM64.547 41.5969C60.6696 41.5969 58.3201 43.9859 58.3201 48.0194C58.3201 52.0529 60.6307 54.4426 64.547 54.4426C68.4245 54.4426 70.6957 52.0536 70.6957 48.0201C70.7345 44.0254 68.4245 41.5976 64.547 41.5976V41.5969ZM64.547 52.4057C62.8631 52.4057 62.1192 51.3485 62.1192 48.0589C62.1192 44.7693 62.8631 43.7121 64.547 43.7121C66.1922 43.7121 66.8966 44.7305 66.8966 48.0589C66.9354 51.388 66.231 52.4057 64.547 52.4057Z" fill="#63A844"/>
</svg>
