<svg width="96" height="96" viewBox="0 0 96 96" fill="none" xmlns="http://www.w3.org/2000/svg">
<mask id="mask0_309_3403" style="mask-type:alpha" maskUnits="userSpaceOnUse" x="16" y="16" width="64" height="64">
<rect x="16" y="16" width="64" height="64" rx="32" fill="#CFE1FE"/>
</mask>
<g mask="url(#mask0_309_3403)">
<path fill-rule="evenodd" clip-rule="evenodd" d="M47.9999 80C30.355 80 16 65.6449 16 48.0001C16 30.3551 30.355 16 47.9999 16C65.6446 16 79.9999 30.3551 79.9999 48.0001C79.9999 65.6448 65.6447 80 47.9999 80ZM53.4162 35.6227H35.3314L32.5875 40.0323H50.6514L53.4162 35.6227ZM57.112 35.6648L46.0564 53.2688H33.7932L36.6224 48.8554H43.9725L46.7801 44.4441H29.7881L26.981 48.8554H31.0063L25.4213 57.6669H48.7294L57.3384 44.0902L60.4774 48.8554H57.647L54.9665 53.2688H63.3481L66.2585 57.6669H71.6051L57.112 35.6648Z" fill="#FF4747"/>
</g>
</svg>
