<svg width="97" height="96" viewBox="0 0 97 96" fill="none" xmlns="http://www.w3.org/2000/svg">
<path d="M48.0557 77.9441C36.5762 77.9441 26.1607 71.3503 21.2329 61.0126C20.3929 59.2244 21.1209 57.0451 22.9688 56.207C24.8167 55.3688 26.9446 56.0952 27.7846 57.9392C33.1044 69.1151 46.4878 73.9208 57.6873 68.6122C62.3911 66.377 66.199 62.6331 68.3829 57.9392C69.2229 56.1511 71.4068 55.3688 73.1987 56.207C74.9906 57.0451 75.7746 59.2244 74.9346 61.0126C70.2308 71.015 60.3192 77.553 49.2877 78H48.0557V77.9441Z" fill="#F37321"/>
<path d="M73.6466 51.3455H22.4647C20.4488 51.3455 18.8249 49.7249 18.8249 47.7133C18.8249 45.7016 20.4488 44.0811 22.4647 44.0811H69.7827C67.7668 31.8435 56.1753 23.6292 43.9118 25.6408C36.9681 26.8143 30.9764 31.117 27.7285 37.3197C26.7766 39.1078 24.5926 39.7784 22.8007 38.8284C21.0088 37.8785 20.3368 35.6992 21.2888 33.911C28.9045 19.3823 46.8797 13.7944 61.3831 21.394C71.1267 26.479 77.2864 36.5932 77.2864 47.6015C77.2304 49.7249 75.6625 51.3455 73.6466 51.3455Z" fill="#F37321"/>
</svg>
