<svg width="97" height="96" viewBox="0 0 97 96" fill="none" xmlns="http://www.w3.org/2000/svg">
<path d="M11.9506 58.9463C11.6813 59.077 11.479 59.1906 11.1724 59.3634C11.1724 59.3634 10.016 61.0008 8.73193 63.0397C7.54749 64.9229 6.26189 67.1471 5.44477 68.7424C5.33426 68.9572 5.05566 69.5004 5.05566 69.5004C7.20197 67.9486 9.82139 67.0832 13.3233 66.6615C17.6175 66.1447 22.6245 66.2319 27.7529 66.4513C32.2557 66.6443 37.051 66.9432 41.8603 67.1844C50.0051 67.5922 60.5451 63.449 66.2416 57.8054C66.2416 57.8054 65.9973 57.9486 65.9179 57.9969C55.3171 64.126 45.7218 62.7891 37.1257 61.2249C30.6463 60.0451 24.1187 57.6 18.3412 57.6C16.0798 57.6 13.935 57.9735 11.9506 58.9463Z" fill="url(#paint0_linear_309_3385)"/>
<path d="M12.0674 58.8902C19.1025 55.5346 28.1577 59.5937 37.1258 61.2249C45.7219 62.7891 55.3172 64.126 65.918 57.9968C65.9974 57.9486 66.2417 57.8054 66.2417 57.8054C66.2417 57.8054 64.0503 58.0093 60.8098 58.0529C57.5678 58.0949 50.8799 57.8225 46.8238 57.4786C38.2884 56.7564 31.8495 56.2723 26.6931 56.2708C20.4005 56.2708 16.0207 56.993 12.0674 58.8902V58.8902ZM11.9507 58.9463C11.9896 58.9276 12.0285 58.9073 12.0674 58.8902C12.0285 58.9073 11.9896 58.9276 11.9507 58.9463Z" fill="url(#paint1_linear_309_3385)"/>
<path d="M82.7864 29.3385C78.4938 29.8553 73.4853 29.7697 68.3584 29.5487C63.8557 29.3557 59.0604 29.0568 54.251 28.8171C46.1063 28.4094 35.5662 32.551 29.8697 38.1946C29.8697 38.1946 30.1125 38.0514 30.1934 38.0047C40.7927 31.8755 50.388 33.2109 58.9856 34.7751C68.002 36.4156 77.1086 40.5105 84.1607 37.0553C84.43 36.923 84.6323 36.8094 84.9389 36.6366C84.9389 36.6366 86.0953 34.9992 87.3809 32.9603C88.5638 31.0771 89.8479 28.8529 90.6666 27.2576C90.7755 27.0428 91.0557 26.4996 91.0557 26.4996C88.9078 28.0514 86.2899 28.9167 82.7864 29.3385" fill="url(#paint2_linear_309_3385)"/>
<path d="M30.1934 38.0047C30.1125 38.0513 29.8697 38.1945 29.8697 38.1945C29.8697 38.1945 32.0611 37.9922 35.3016 37.9502C38.5436 37.9066 45.23 38.1774 49.2876 38.5229C68.2417 40.1261 76.8518 40.5603 84.0456 37.1113C77.009 40.4654 67.9537 36.4078 58.9856 34.7751C55.2502 34.0965 51.3265 33.4599 47.216 33.4584C41.8619 33.4584 36.1888 34.5369 30.1934 38.0047V38.0047ZM84.0456 37.1113C84.0845 37.0926 84.1218 37.0739 84.1607 37.0552C84.1218 37.0724 84.0845 37.0926 84.0456 37.1113Z" fill="url(#paint3_linear_309_3385)"/>
<path d="M50.5625 43.4225C41.7936 42.7424 32.8053 42.0606 24.6854 43.2342C21.3158 46.6459 18.1749 50.1727 15.2862 53.8303C23.4932 50.8482 34.3197 51.7151 45.5025 52.5836C54.2823 53.2638 63.2799 53.9455 71.4076 52.7641C73.4216 50.8809 79.3422 44.154 80.7928 42.1727C72.5796 45.1595 61.7485 44.291 50.5625 43.4225" fill="url(#paint4_linear_309_3385)"/>
<defs>
<linearGradient id="paint0_linear_309_3385" x1="48.0216" y1="76.0262" x2="21.2661" y2="49.2707" gradientUnits="userSpaceOnUse">
<stop stop-color="#AECA24"/>
<stop offset="1" stop-color="#168E44"/>
</linearGradient>
<linearGradient id="paint1_linear_309_3385" x1="66.2419" y1="59.4065" x2="11.9507" y2="59.4065" gradientUnits="userSpaceOnUse">
<stop stop-color="#AECA24"/>
<stop offset="0.589571" stop-color="#168E44"/>
<stop offset="0.8" stop-color="#168E44"/>
<stop offset="1" stop-color="#168E44"/>
</linearGradient>
<linearGradient id="paint2_linear_309_3385" x1="51.2253" y1="23.1103" x2="71.1084" y2="42.9934" gradientUnits="userSpaceOnUse">
<stop stop-color="#3993D7"/>
<stop offset="1" stop-color="#27459C"/>
</linearGradient>
<linearGradient id="paint3_linear_309_3385" x1="29.8692" y1="36.5945" x2="84.1607" y2="36.5945" gradientUnits="userSpaceOnUse">
<stop stop-color="#3993D7"/>
<stop offset="0.8" stop-color="#27459C"/>
<stop offset="1" stop-color="#27459C"/>
</linearGradient>
<linearGradient id="paint4_linear_309_3385" x1="40.0832" y1="40.0451" x2="59.3757" y2="59.3377" gradientUnits="userSpaceOnUse">
<stop stop-color="#F0431E"/>
<stop offset="0.9" stop-color="#F78F1F"/>
<stop offset="1" stop-color="#F78F1F"/>
</linearGradient>
</defs>
</svg>
