<svg width="97" height="96" viewBox="0 0 97 96" fill="none" xmlns="http://www.w3.org/2000/svg">
<path d="M36.8467 78.245C37.0279 77.9861 37.1056 77.8307 37.2351 77.7013C40.5492 74.2576 43.8634 70.814 47.1776 67.3704C50.1552 64.2633 53.2104 61.234 56.0844 58.0752C57.7674 56.2109 59.3986 54.2949 60.1495 51.7575C61.5994 46.8381 60.7191 42.54 57.1201 38.7857C55.5148 37.1286 53.6765 35.9375 51.4756 35.3679C50.1034 35.0054 48.6534 34.8242 47.2294 34.7724C44.433 34.6688 41.6626 34.7465 38.8663 34.7465C38.3484 34.7465 37.8047 34.7465 37.2351 34.7465C42.8277 29.1797 48.2909 23.7165 53.9872 18.0203C54.6086 18.1239 55.5925 18.1498 56.4728 18.4863C58.829 19.3408 61.2628 20.014 63.5154 21.205C67.9688 23.5612 71.6455 26.7459 74.6231 30.8109C76.9533 33.9697 78.4551 37.4652 79.3872 41.2195C79.7756 42.773 79.8791 44.4042 80.0086 46.0354C80.1122 47.3041 80.0086 48.5728 80.0345 49.8415C80.0863 52.353 79.4908 54.7092 78.714 57.0654C78.0149 59.1885 77.2382 61.2599 75.9953 63.1241C74.9597 64.6776 73.9499 66.257 72.7071 67.6293C70.8428 69.7524 68.7974 71.772 66.3376 73.2479C64.7841 74.18 63.2047 75.0344 61.5476 75.7594C58.9066 76.9245 56.1621 77.779 53.2622 78.0897C51.9158 78.2191 50.5435 78.3486 49.1972 78.3486C45.5723 78.3745 41.9215 78.3745 38.2966 78.3486C37.8824 78.3227 37.4163 78.2709 36.8467 78.245Z" fill="#A96C13"/>
<path d="M46.3491 61.027C46.0643 61.4671 45.9348 61.7778 45.7018 62.0368C44.0188 63.8492 42.3099 65.6358 40.6011 67.4223C38.2967 69.8302 36.0182 72.2382 33.7138 74.6203C32.8076 75.5783 31.8496 76.4845 30.9175 77.4425C30.3996 77.9862 29.8041 78.3487 29.0273 78.3487C24.9882 78.3228 20.9232 78.3228 16.884 78.3228C16.7805 78.3228 16.651 78.2451 16.418 78.1416C16.3662 77.8309 16.2108 77.4425 16.2108 77.0282C16.1849 72.2382 16.1849 67.4741 16.2108 62.6841C16.2108 62.1662 16.3403 61.6225 16.418 61.027C26.3864 61.027 36.2512 61.027 46.3491 61.027Z" fill="black"/>
<path d="M46.4268 39.8215C40.8342 45.5954 35.4487 51.1104 29.9854 56.7549C25.5579 56.7549 21.0009 56.7549 16.4439 56.7549C16.0815 55.3308 16.0556 41.3492 16.3922 39.7439C17.6868 39.4073 40.0574 39.2001 45.1581 39.5108C45.4688 39.5108 45.8054 39.6662 46.4268 39.8215Z" fill="black"/>
<path d="M46.5821 17.7356C41.0413 23.4577 35.5522 29.1022 30.1149 34.7207C25.4802 34.7207 20.9491 34.7207 16.418 34.7207C16.0555 33.3484 15.9261 22.8104 16.2109 17.8909C16.2626 17.8392 16.2885 17.7874 16.3403 17.7615C16.3921 17.7356 16.4439 17.6838 16.4957 17.6838C26.2311 17.6579 35.9923 17.6579 45.7277 17.632C45.9866 17.6579 46.2197 17.7097 46.5821 17.7356Z" fill="black"/>
</svg>
