<svg width="96" height="96" viewBox="0 0 96 96" fill="none" xmlns="http://www.w3.org/2000/svg">
<path fill-rule="evenodd" clip-rule="evenodd" d="M84.5277 54.0324L87.566 43.4362H83.3763L79.9221 55.4765L79.8446 43.4362H74.7973L67.9352 55.2288L71.3173 43.4362H67.34L65.6269 50.8301H65.5545L64.4069 43.4362H60.0823L57.0421 54.0324H51.0614L51.8802 51.1777H57.1178L57.8738 48.5392H52.6361L53.3439 46.0746H58.7479L59.5056 43.4362H39.5845L39.2461 44.6176C38.6344 43.6931 37.3148 43.1329 35.2763 43.1329C32.0236 43.1329 29.6339 44.4013 28.9224 46.8844C28.5897 48.0474 28.8098 48.8555 29.3808 49.5247C29.9741 50.1941 30.924 50.7044 32.0587 51.2498C32.1546 51.2989 32.2521 51.3474 32.3497 51.3958C33.2324 51.8342 34.1209 52.2755 33.833 53.2744C33.6428 53.9419 33.0216 54.5946 32.0365 54.5946C30.7114 54.5946 30.5691 53.9234 30.7872 53.1653L31.0549 52.2298L27.172 52.235L26.9022 53.1743L26.8393 43.4359H21.7921L18.8979 48.4096L19.6778 45.688H12.7251L13.6215 42.5669H21.1766L22.1913 39.028H9.0584L4 56.667H9.57588L11.7105 49.2268H18.4211L14.0909 56.6688H18.3046L19.5374 54.1154H22.8233L22.6866 56.6688H26.9244L26.9192 55.3857C27.4441 56.3175 28.8042 56.9721 31.2715 56.9721C34.7515 56.9721 37.0617 55.5631 37.7881 53.0264C38.248 51.4252 37.9285 50.5451 37.145 49.8776C36.6211 49.4312 35.9007 49.0786 35.0749 48.6744C34.6625 48.4725 34.2238 48.2578 33.7702 48.0121C33.0383 47.5886 32.6022 47.1837 32.9478 46.3924C33.2124 45.8118 33.8164 45.4586 34.6666 45.5123C35.9461 45.5776 35.7309 46.4964 35.5548 47.2479C35.5417 47.304 35.5288 47.3592 35.5167 47.413H39.3756C39.5475 46.9376 39.636 46.4904 39.6454 46.0744H42.1164L39.0762 56.6688H43.2677L46.3061 46.0744H49.154L46.1158 56.6688H60.2761L62.0097 49.2934L62.0668 49.2567L63.233 56.6673H71.3128L72.5455 54.1139H75.8315L75.6927 56.6673H88.8903L89.648 54.0307L84.5277 54.0324ZM76.0928 51.786H73.6643L76.5862 45.8361H76.6334L76.0928 51.786ZM23.0881 51.786H20.6596L23.5797 45.8361H23.6269L23.0881 51.786Z" fill="#0146AE"/>
<path fill-rule="evenodd" clip-rule="evenodd" d="M91.0509 44.6994C91.2411 44.6732 91.3857 44.5757 91.3857 44.3425C91.3857 44.0873 91.2358 43.9746 90.9293 43.9746H90.4379V45.267H90.6338V44.7086H90.8591L91.2012 45.267H91.4192L91.0509 44.6994ZM90.6334 44.5422V44.1413H90.8995C91.0362 44.1413 91.1824 44.1727 91.1824 44.3315C91.1824 44.5312 91.0347 44.5422 90.8681 44.5422H90.6334Z" fill="#0146AE"/>
<path fill-rule="evenodd" clip-rule="evenodd" d="M89.7305 44.6201C89.7305 43.9751 90.2534 43.5034 90.8707 43.5034C91.4808 43.5034 92 43.9748 92 44.6201C92 45.267 91.4806 45.7388 90.8707 45.7388C90.2533 45.7388 89.7305 45.2673 89.7305 44.6201ZM89.9541 44.6201C89.9541 45.1581 90.3568 45.5538 90.8707 45.5538C91.3771 45.5538 91.7763 45.1582 91.7763 44.6201C91.7763 44.0876 91.3773 43.6883 90.8707 43.6883C90.3569 43.6883 89.9541 44.0876 89.9541 44.6201Z" fill="#0146AE"/>
</svg>
