<svg width="96" height="96" viewBox="0 0 96 96" fill="none" xmlns="http://www.w3.org/2000/svg">
<path d="M74.0979 13C30.3445 17.1577 24.8066 47.2789 39.1113 56.8983C36.639 67.7723 38.9046 67.5247 38.9046 67.5247C39.3552 64.2749 39.9836 61.0395 40.8167 57.8784C46.4001 36.6855 60.2169 18.2472 74.1496 13.4127V13.3612C74.2384 13.3546 74.3563 13.3055 74.3563 13.2065C74.3563 13.0744 74.2509 13.0002 74.1496 13.0002H74.098L74.0979 13ZM71.824 19.9123C71.7476 19.9123 71.6566 19.9886 71.6173 20.067C67.9998 27.1423 66.9765 37.2693 64.2272 45.0338C61.0665 53.8939 55.4563 59.9004 46.8114 59.3227V80.8849C46.8114 80.8849 23.711 70.4174 23.711 53.6484V22.2335L42.5738 20.4796H42.6253C42.7267 20.4796 42.7803 20.4321 42.7803 20.325C42.7803 20.2032 42.7246 20.129 42.6253 20.1186H21.6437V53.6485C21.6437 72.5077 46.8113 83 46.8113 83C46.8113 83 72.0306 72.3406 72.0306 53.6485V20.1186C72.0306 20.03 71.9251 19.9123 71.8239 19.9123H71.824Z" fill="#C6093B"/>
</svg>
