<svg width="96" height="96" viewBox="0 0 96 96" fill="none" xmlns="http://www.w3.org/2000/svg">
<path d="M8.00366 8.00122H87.9959V87.9935H8.00366V8.00122Z" fill="white"/>
<path d="M8.00377 8.00128H58.1933C62.2336 8.00128 66.2743 7.9928 70.3061 8.00941C69.1888 9.14328 68.0461 10.269 66.9211 11.4033C67.3657 11.8733 67.8362 12.3102 68.2815 12.7722C69.3065 12.0667 70.4655 11.504 71.7256 11.4114C72.8594 11.2937 74.0022 11.5878 75.0434 12.0416C75.4382 12.2095 75.8079 12.4781 76.2529 12.5202C76.6898 12.4951 77.0175 12.1087 77.1687 11.7221C77.2946 11.4538 77.1769 11.1343 76.9673 10.9409C75.9928 9.95834 75.0098 8.99236 74.0439 8.00941C78.6974 7.98431 83.351 8.00941 87.9964 8.00128C87.9964 12.5371 88.0045 17.0815 87.9964 21.6258C87.0389 20.6853 86.1061 19.7274 85.1567 18.7869C84.9047 18.526 84.4937 18.3917 84.1491 18.5515C83.9221 18.6607 83.7037 18.8371 83.603 19.0806C83.4768 19.568 83.6956 20.0466 83.8886 20.4831C84.4767 21.7265 84.7372 23.1294 84.5608 24.4987C84.4431 25.4311 84.107 26.3465 83.603 27.1446C83.4687 27.3376 83.3428 27.5391 83.2251 27.7412C83.7122 28.1608 84.124 28.6648 84.6195 29.0766C85.7283 27.9342 86.8706 26.817 87.9964 25.6827C87.9964 33.2678 88.0045 40.8532 87.9964 48.4383C87.7776 48.514 87.5341 48.6652 87.3072 48.5557C87.005 48.3627 86.778 48.0771 86.526 47.8336C83.8044 45.1286 81.108 42.3985 78.3782 39.7024C77.2946 40.7861 76.2282 41.8779 75.1272 42.9365C75.7072 43.5914 76.354 44.1711 76.9588 44.801C79.1428 46.9853 81.3264 49.1693 83.5192 51.3529C83.7037 51.5462 83.9221 51.7145 84.0229 51.9665C84.0565 52.2436 83.8635 52.4786 83.7878 52.7307C83.6786 53.0247 83.914 53.3775 84.2247 53.3856C84.5018 53.4365 84.7372 53.2513 84.9136 53.0668C85.9382 52.0333 86.9714 51.0086 87.9964 49.9836V87.9935H49.978C50.9525 87.0194 51.9269 86.0531 52.9014 85.0786C49.5848 81.7704 46.2724 78.4581 42.9641 75.1417C41.8808 76.1833 40.8391 77.267 39.7639 78.3167C39.537 78.5521 39.285 78.7787 39.1761 79.0978C39.1256 79.4085 39.4112 79.7026 39.7134 79.7196C39.9824 79.686 40.2089 79.5093 40.4779 79.4506C40.713 79.4343 40.8982 79.6188 41.0657 79.7701C43.0316 81.7523 45.0056 83.7182 46.9797 85.6922C47.4748 86.2125 48.0128 86.6829 48.4744 87.2209C48.6847 87.4559 48.5419 87.7581 48.4242 87.9935H25.6859L31.0531 82.626C31.3889 82.3068 31.7335 81.9375 31.7837 81.4501C31.8593 80.8874 31.2885 80.3243 30.7255 80.442C30.255 80.5343 29.869 80.904 29.3816 80.904C29.0709 80.8789 28.8355 80.652 28.6256 80.4505C24.3499 76.1833 20.083 71.9079 15.8158 67.6403C15.5302 67.3551 15.1859 67.078 15.0848 66.6659C15.0682 66.1792 15.4125 65.784 15.5387 65.339C15.6981 64.7763 15.169 64.1627 14.5974 64.2051C14.203 64.2302 13.8502 64.4568 13.5816 64.7343C11.7334 66.6075 9.85197 68.4554 8.00377 70.3287C7.99529 49.5552 8.00377 28.7744 8.00377 8.00128Z" fill="#F96302"/>
<path d="M65.7033 12.6128C65.7789 12.5291 65.9132 12.4531 65.9889 12.5793C71.845 18.427 77.697 24.2789 83.5448 30.1349C81.4903 32.188 79.4379 34.2432 77.3877 36.3005C77.1187 36.5525 76.7911 36.7625 76.4217 36.7876C75.9092 36.83 75.3967 36.3677 75.4388 35.8467C75.4557 35.3345 75.8922 34.9397 75.9007 34.4187C75.9177 34.0911 75.6657 33.8479 75.4557 33.6206C71.1128 29.2866 66.7785 24.9441 62.4356 20.6009C62.1921 20.3658 61.9234 20.0717 61.5537 20.0972C61.0077 20.1053 60.5962 20.6093 60.042 20.5507C59.7225 20.5588 59.462 20.3068 59.3026 20.0466C59.0842 19.5932 59.2856 19.0471 59.6136 18.7113C61.6463 16.6782 63.679 14.6455 65.7033 12.6128ZM74.137 14.3179C74.3049 14.0072 74.624 13.7216 75.0019 13.7718C75.4218 13.8057 75.7243 14.1497 76.0014 14.4271C77.6795 16.1119 79.3596 17.7947 81.0417 19.4755C81.3608 19.7865 81.7387 20.0887 81.8143 20.5507C81.8564 21.0292 81.4195 21.4576 80.9576 21.5082C80.5712 21.5167 80.2185 21.3067 79.8827 21.1219C79.1684 20.702 78.3622 20.3658 77.5135 20.4079C77.0767 20.3994 76.6571 20.5758 76.2619 20.7521C75.8 20.2566 75.2709 19.8116 74.834 19.2991C74.9683 18.9213 75.1447 18.56 75.1701 18.1564C75.2292 17.2413 74.8594 16.3676 74.3971 15.603C74.1621 15.2252 73.9772 14.7544 74.137 14.3179ZM37.1182 18.77C38.0258 17.8125 38.9833 16.9136 39.8903 15.9643C40.7555 16.8041 41.5953 17.6527 42.444 18.501C42.7211 18.77 42.4691 19.2235 42.1584 19.3327C41.8979 19.3663 41.671 19.1899 41.4359 19.1058C40.529 18.6608 39.4032 18.6106 38.4963 19.0976C38.2609 19.1984 38.0675 19.3998 37.8155 19.4419C37.5635 19.2404 37.3536 18.9884 37.1182 18.77ZM36.5473 19.3072C37.782 20.5001 38.9749 21.7351 40.1928 22.9361C42.0997 24.8345 43.9978 26.7499 45.9131 28.6483C44.8218 29.7521 43.7242 30.8497 42.6204 31.941C42.3934 32.1927 41.94 32.3023 41.7215 31.9912C41.4529 31.7056 41.7466 31.3529 41.8307 31.0588C41.9315 30.8404 41.7555 30.6474 41.6123 30.4965C39.4131 28.3052 37.2179 26.1099 35.0268 23.9106C34.8253 23.7257 34.6571 23.4992 34.4136 23.373C34.0778 23.2973 33.8173 23.5999 33.4896 23.6169C33.2376 23.5914 33.0026 23.3398 33.0361 23.0789C33.0528 22.8774 33.1705 22.7011 33.3133 22.5583C34.3885 21.4746 35.4806 20.4079 36.5473 19.3072ZM40.9319 20.6514C40.8231 20.3743 41.016 20.0385 41.3101 19.9965C41.5285 19.9629 41.7049 20.1304 41.8562 20.2736C42.7632 21.1805 43.6701 22.0963 44.5859 22.9951C44.7453 23.1715 44.9722 23.3309 44.9892 23.5914C45.0228 23.8519 44.7708 24.1039 44.5021 24.0785C44.149 24.0785 43.8804 23.8014 43.5612 23.6837C43.0908 23.4656 42.5196 23.4486 42.0577 23.7006C41.8141 23.4571 41.5703 23.2051 41.3182 22.9782C41.4278 22.6085 41.5285 22.214 41.4359 21.8273C41.3688 21.3908 41.0662 21.0547 40.9319 20.6514ZM57.0179 21.3067C57.2448 21.0798 57.53 20.9119 57.8496 20.8698C58.4119 20.7861 59 21.3318 58.8912 21.903C58.8155 22.407 58.3956 22.8099 58.4289 23.3398C58.513 23.7088 58.8155 23.9608 59.0587 24.2216C63.3514 28.5055 67.6437 32.7808 71.9191 37.0731C72.1545 37.2835 72.3895 37.5606 72.7257 37.5606C73.2297 37.5606 73.616 37.1827 74.0949 37.0982C74.6491 37.0063 75.1952 37.5521 75.1277 38.1066C75.0945 38.4845 74.8676 38.8121 74.6074 39.0723C72.4482 41.2227 70.2978 43.39 68.1393 45.5404C67.8622 45.8176 67.5094 46.0696 67.098 46.0696C66.6438 46.0947 66.2073 45.7087 66.1486 45.2633C66.0896 44.6752 66.6357 44.2383 66.6187 43.6502C66.5936 43.3731 66.4006 43.1465 66.2158 42.9447C62.4441 39.1818 58.6809 35.4102 54.9095 31.647C58.0259 37.4344 61.1674 43.2055 64.2838 48.993C64.334 49.0767 64.3761 49.1693 64.4181 49.2701C64.1916 49.4797 63.9731 49.7066 63.7547 49.9335C57.5134 46.8595 51.2806 43.7509 45.0479 40.6685C44.0653 40.1814 43.0908 39.6102 41.982 39.4759C41.6123 39.425 41.3603 39.7279 41.0917 39.9209C40.8142 40.1393 40.4445 40.2737 40.1006 40.1644C39.6888 39.9799 39.4032 39.4925 39.5294 39.0472C39.6132 38.745 39.8231 38.493 40.0416 38.2742C42.0577 36.2669 44.0653 34.2512 46.0814 32.2517C49.2225 33.7889 52.3725 35.2925 55.5228 36.83C55.6235 36.9053 55.7324 36.9809 55.825 37.0816C55.8755 37.0226 55.9176 36.9639 55.9678 36.9053L55.8501 36.9219C54.1956 33.7719 52.4569 30.664 50.8017 27.514C52.885 25.4478 54.9431 23.373 57.0179 21.3067ZM45.9888 22.7262C46.14 22.4491 46.5684 22.4155 46.7699 22.6505C47.6182 23.5073 48.4838 24.3641 49.3402 25.2212C48.3832 26.1876 47.4202 27.148 46.4511 28.1022C46.2326 27.8502 45.9382 27.6487 45.7703 27.3546C46.0474 26.8842 46.3415 26.4053 46.4171 25.851C46.5599 25.0865 46.4341 24.2803 46.1065 23.5748C46.0139 23.3058 45.8124 22.9951 45.9888 22.7262ZM31.8853 23.9862C32.0532 23.8099 32.2381 23.625 32.4816 23.5663C32.7255 23.5161 33.0277 23.6671 33.0612 23.9357C33.1203 24.2298 32.9018 24.4736 32.8432 24.7589C32.8092 24.9858 32.9941 25.1455 33.1284 25.2968C35.3714 27.5391 37.6056 29.7821 39.8486 32.0163C39.9999 32.1595 40.1593 32.3358 40.3777 32.386C40.6463 32.3609 40.8729 32.1845 41.1337 32.1259C41.4529 32.0919 41.7466 32.4366 41.6459 32.7388C41.6042 32.9657 41.4278 33.1339 41.2765 33.2933C40.1844 34.3855 39.0922 35.4773 38.0004 36.561C37.8074 36.7543 37.5554 36.9558 37.2694 36.8886C37.11 36.8211 36.9757 36.6953 36.9167 36.5359C36.8329 36.1662 37.2277 35.8636 37.1351 35.4939C37.0514 35.3515 36.9337 35.2419 36.8244 35.1246C35.7998 34.108 34.7833 33.0749 33.7501 32.0587C33.3902 32.4268 33.0261 32.7908 32.658 33.1505C32.4059 32.907 32.1539 32.6631 31.9189 32.403C32.2882 32.0418 32.6498 31.6724 33.0195 31.3108C32.1119 30.4208 31.213 29.5132 30.3146 28.6143C30.1212 28.4298 29.9533 28.2284 29.7264 28.094C29.315 27.9594 28.9202 28.539 28.5254 28.2199C28.2059 27.9933 28.307 27.5391 28.5674 27.3041C29.6677 26.1868 30.7847 25.095 31.8853 23.9862Z" fill="white"/>
<path d="M27.5845 28.3461C27.8369 28.1859 28.2147 28.287 28.332 28.5726C28.4497 28.9169 28.1391 29.211 28.1306 29.5471C28.1221 29.7235 28.2649 29.8493 28.3741 29.967C30.7009 32.2941 33.0195 34.6205 35.3463 36.9388C35.7659 37.3923 36.3038 36.6112 36.7573 36.9473C37.0514 37.1827 36.9506 37.6443 36.6986 37.8628C35.6064 38.9634 34.5062 40.0467 33.4225 41.147C33.2461 41.3153 33.0697 41.5167 32.8262 41.5924C32.5572 41.668 32.2296 41.4998 32.1963 41.2145C32.1458 40.8788 32.4484 40.6179 32.4314 40.2903C32.389 40.1475 32.2971 40.0301 32.1963 39.9209C29.9939 37.7272 27.7958 35.5292 25.602 33.3269C25.3924 33.1339 25.216 32.89 24.9386 32.7893C24.6364 32.7727 24.3843 32.9996 24.0903 33.0328C23.8383 33.0413 23.6198 32.8144 23.6113 32.5712C23.5862 32.3104 23.7711 32.1008 23.9475 31.9244C25.0393 30.8322 26.1311 29.7401 27.2151 28.6483C27.3325 28.539 27.4417 28.4298 27.5845 28.3461ZM21.5115 34.3519C22.0155 33.8645 22.5026 33.3605 23.0066 32.8649C23.8888 33.7221 24.7537 34.6121 25.6359 35.4773C25.7872 35.6452 25.9717 35.7965 26.0555 36.0149C26.1566 36.4267 25.6865 36.8802 25.2747 36.6953C24.8629 36.5105 24.5356 36.1828 24.1405 35.9644C23.477 35.5529 22.704 35.2925 21.9148 35.3851C21.6879 35.15 21.4358 34.9312 21.2344 34.6796C21.3012 34.5449 21.4107 34.4527 21.5115 34.3519ZM17.849 38.014C18.7899 37.0901 19.7138 36.1577 20.6462 35.2253C22.4116 36.9991 24.1811 38.7687 25.9547 40.5342C26.9292 41.4998 27.8786 42.4831 28.8612 43.4321C29.1386 43.7428 29.508 43.4826 29.8105 43.3731C30.1127 43.2388 30.4658 43.5077 30.4574 43.8266C30.4574 44.045 30.3312 44.2298 30.1887 44.3815C29.0464 45.5154 27.9206 46.6492 26.7868 47.7835C26.627 47.9429 26.4252 48.1023 26.1901 48.0857C25.9296 48.1111 25.6776 47.8591 25.7027 47.6067C25.7197 47.3381 25.9296 47.1197 25.9296 46.8507C25.9466 46.6238 25.7533 46.481 25.6189 46.3297C22.9394 43.6672 20.285 40.9795 17.597 38.3247C17.6811 38.2155 17.7568 38.1148 17.849 38.014ZM80.8904 37.1908C81.9319 38.2157 82.9652 39.2488 83.9902 40.2903C84.3175 40.6013 84.0824 41.2227 83.6456 41.2902C83.2423 41.3489 82.9316 41.0297 82.6209 40.8197C81.7892 40.2482 80.8063 39.711 79.765 39.8873C79.4875 39.6353 79.2189 39.3748 78.992 39.0811C79.6388 38.4594 80.2605 37.8207 80.8904 37.1908ZM16.9922 38.8959C17.3033 39.0136 17.4963 39.3663 17.7483 39.5848C17.614 40.5592 18.0756 41.4747 18.6217 42.2392C18.7814 42.4831 18.9744 42.7097 19.0751 42.9868C19.1847 43.3565 18.8235 43.7428 18.4538 43.7007C18.2438 43.7007 18.101 43.5244 17.9667 43.3985C17.0509 42.4743 16.1273 41.5673 15.2115 40.6434C15.8163 40.0718 16.3794 39.4589 16.9922 38.8959ZM35.6821 43.6339C37.3536 43.096 39.1678 43.0373 40.8899 43.39C43.8133 44.0118 46.4002 45.7253 48.4668 47.8503C50.491 49.8999 52.1038 52.4706 52.6499 55.3346C52.9521 56.9054 52.885 58.5517 52.4318 60.0889C51.9865 61.6094 51.1796 63.0123 50.1634 64.2218C49.7265 63.7599 49.2479 63.3315 48.8277 62.861C48.8277 62.6341 48.9705 62.4408 49.0129 62.2227C49.2395 61.4836 49.0129 60.6519 48.4498 60.114C44.3007 55.9563 40.1342 51.7983 35.9843 47.6403C35.6065 47.254 35.1279 46.9433 34.5818 46.9012C34.1364 46.8426 33.6996 47.002 33.2797 47.1529C33.1114 47.2455 33.0026 47.0359 32.8933 46.9514C32.5572 46.5906 32.1875 46.2629 31.8517 45.8932C31.8517 45.8681 31.8432 45.8176 31.8432 45.7925C32.9605 44.835 34.2711 44.0874 35.6821 43.6339ZM47.0053 43.1716C47.3916 43.2974 47.7444 43.4908 48.1056 43.6756C49.4582 44.3309 50.8017 45.0113 52.1629 45.6748C52.2802 45.7338 52.3894 45.826 52.4905 45.9183C53.6325 47.0776 54.7837 48.22 55.9342 49.3708C56.5606 50.0345 57.3306 50.5459 58.1853 50.8659C58.7816 51.0928 59.4539 51.0928 60.0501 50.8825C60.3527 50.7818 60.6804 50.6644 60.9995 50.7652C61.1592 50.831 61.2977 50.9395 61.3999 51.0788C61.502 51.218 61.5639 51.3827 61.5788 51.5548C61.5537 52.0168 61.2597 52.4031 60.949 52.7222C59.9214 53.7639 58.8854 54.7972 57.8411 55.822C57.564 56.074 57.2448 56.3342 56.8581 56.3762C56.3039 56.46 55.7578 55.8726 55.9257 55.3346C56.0855 54.7885 56.3039 54.2343 56.2117 53.6631C56.077 52.7053 55.5309 51.857 54.9262 51.1264C52.6499 48.8417 50.3652 46.5651 48.0805 44.2719C47.7274 43.9022 47.3411 43.5664 47.0053 43.1716ZM72.6246 45.4563C73.2551 44.8265 73.8931 44.1963 74.5233 43.5583C74.8004 43.7849 75.0439 44.0538 75.3044 44.3058C75.1952 45.1456 75.4812 45.977 75.9177 46.6828C76.1442 47.0861 76.4719 47.4304 76.6737 47.8503C76.7829 48.0521 76.7073 48.2786 76.6317 48.4801C77.6917 49.1962 78.6161 50.095 79.3617 51.1345C80.21 52.3359 80.8063 53.7639 80.7727 55.259C80.7812 56.6788 80.1679 58.0392 79.2691 59.1144C79.0256 58.8624 78.74 58.6359 78.5297 58.3503C78.5721 58.0392 78.723 57.737 78.6474 57.4263C78.5636 57.0231 78.2526 56.7375 77.9755 56.46C75.7583 54.2509 73.5488 52.0422 71.3398 49.8328C71.1213 49.6143 70.8608 49.4129 70.5498 49.3878C70.2561 49.3538 69.962 49.438 69.6934 49.5302C69.4329 49.287 69.1727 49.0262 68.9207 48.7742C70.0376 47.8167 71.4907 47.2034 72.9777 47.2791C73.5488 47.2625 74.1034 47.3968 74.6576 47.5226C73.9857 46.8256 73.2714 46.1703 72.6246 45.4563ZM28.6682 50.387C29.1301 49.1018 29.8607 47.9259 30.726 46.8758C31.1544 47.313 31.6082 47.7326 32.0281 48.1779C32.1119 48.4469 31.8938 48.6989 31.8517 48.9675C31.6333 49.69 31.9189 50.4796 32.4484 51.0002C36.5304 55.0911 40.6212 59.1735 44.7121 63.264C45.1069 63.6927 45.5855 64.0956 46.1902 64.1882C46.7278 64.2724 47.2573 64.0875 47.7528 63.9026C48.2063 64.3561 48.6601 64.8015 49.1136 65.255C48.1222 66.1202 46.9714 66.8006 45.7452 67.2795C43.897 67.9932 41.8307 68.1108 39.8903 67.6828C36.9418 67.0356 34.3464 65.2634 32.2716 63.1045C30.3566 61.0973 28.8106 58.6359 28.2649 55.8888C27.8955 54.0664 28.0132 52.1345 28.6682 50.387ZM66.8456 52.8148C66.9467 51.5382 67.5094 50.3202 68.3496 49.3623C68.5927 49.6143 68.8536 49.8663 69.1052 50.1184C69.013 50.4209 68.8698 50.7401 68.9543 51.0589C69.0045 51.3448 69.1975 51.5718 69.3993 51.7732C71.6169 53.9823 73.8175 56.1999 76.0354 58.4089C76.2955 58.661 76.5475 58.9635 76.9172 59.0642C77.2534 59.1568 77.5976 59.0388 77.9249 58.9381C78.1773 59.1904 78.4378 59.4424 78.6813 59.7111C77.6227 60.5844 76.304 61.198 74.9096 61.198C73.5573 61.2567 72.2301 60.7778 71.1047 60.0723C70.2897 59.5517 69.5421 58.9214 68.9207 58.1905C69.2145 59.1735 69.1477 60.2741 68.6853 61.198C68.2319 62.105 67.5264 62.8444 66.829 63.5584C66.577 63.3064 66.3165 63.0455 66.056 62.7939C66.2748 62.4408 66.4176 62.0209 66.2829 61.6094C66.1235 61.1892 65.7789 60.887 65.4767 60.5678C64.8517 59.9357 64.2244 59.3057 63.5949 58.6779C63.2256 58.3333 62.8304 57.9385 62.3013 57.9049C61.9906 57.8717 61.7135 58.0311 61.453 58.1824C61.1929 57.9304 60.9408 57.6699 60.6804 57.4182C61.688 56.4017 62.8389 55.3516 64.3174 55.1667C65.5269 54.9649 66.7449 55.4859 67.6017 56.3176C67.0641 55.2424 66.7283 54.0325 66.8456 52.8148ZM22.5697 55.7464C22.8217 55.5029 23.1494 55.318 23.5021 55.2929C24.0818 55.259 24.6113 55.8637 24.4511 56.4268C24.3253 56.8552 24.0146 57.233 23.9977 57.6953C24.0312 58.0982 24.3674 58.3838 24.6364 58.6528L37.572 71.5885C37.7738 71.7818 38.0004 71.9748 38.286 71.9999C38.773 71.9999 39.1512 71.639 39.6132 71.5298C40.1674 71.4206 40.722 71.9246 40.6969 72.4788C40.6799 72.857 40.47 73.2013 40.2095 73.4699L33.6996 79.9801C33.414 80.2572 33.0612 80.5008 32.6498 80.5008C32.1458 80.5177 31.6754 80.0392 31.7171 79.5263C31.768 79.0226 32.1875 78.6193 32.1963 78.0983C32.1794 77.7877 31.9355 77.5523 31.7425 77.3342C29.8105 75.3937 27.8701 73.4699 25.9466 71.5383C25.871 71.4796 25.7702 71.3114 25.661 71.4287C24.9891 72.0755 24.3423 72.7563 23.67 73.4027C23.2165 72.9493 22.7631 72.4958 22.3092 72.0338C22.9608 71.3528 23.6273 70.6862 24.3083 70.0347C24.3083 70.0008 24.3172 69.9255 24.3172 69.8915C22.4941 68.1027 20.7049 66.2881 18.8906 64.4823C18.6135 64.2218 18.3527 63.8945 17.9667 63.8019C17.4376 63.768 17.0258 64.1798 16.5303 64.2724C15.8919 64.3816 15.3123 63.6591 15.5307 63.0625C15.6399 62.6426 15.9757 62.34 16.2698 62.0548C18.3696 59.9465 20.478 57.8547 22.5697 55.7464ZM60.0752 58.0145C61.0833 58.955 62.0327 59.9631 63.0237 60.9291C64.9055 62.819 66.7954 64.7089 68.6853 66.5988C68.8197 66.7083 68.9455 66.8593 69.1219 66.8929C69.4834 66.9268 69.7687 66.5737 70.1303 66.6408C70.3487 66.7165 70.5498 66.9268 70.5251 67.17C70.5251 67.4976 70.2476 67.7245 70.0458 67.943C68.8617 69.1108 67.6939 70.2948 66.5098 71.4626C66.2493 71.7482 65.7619 71.6054 65.6025 71.2863C65.3675 70.8915 66.0058 70.4712 65.67 70.1103C63.2324 67.6814 60.7991 65.2481 58.3702 62.8105C58.1938 62.6511 58.0429 62.4496 57.8326 62.34C57.4714 62.2393 57.1858 62.5419 56.85 62.5839C56.5895 62.5588 56.3375 62.3319 56.3541 62.0629C56.329 61.7689 56.5474 61.5426 56.7319 61.3493C57.8496 60.2402 58.9668 59.1233 60.0752 58.0145ZM52.5828 65.4988C53.582 64.5159 54.5564 63.4997 55.573 62.5334C56.4718 63.4407 57.3791 64.3395 58.2779 65.2465C58.5801 65.5405 58.261 65.9859 57.9503 66.1202C57.7319 66.1453 57.53 66.011 57.3367 65.9272C56.5644 65.5487 55.6737 65.3642 54.8254 65.5826C54.2878 65.6918 53.8174 65.994 53.3469 66.2711C53.0949 66.011 52.8433 65.7508 52.5828 65.4988ZM48.5 69.5893C49.6597 68.4134 50.8356 67.2626 51.9946 66.0948C53.876 67.9514 55.7324 69.8414 57.6226 71.6977C59.0676 73.1341 60.4955 74.5875 61.9485 76.0154C60.8231 77.1744 59.6642 78.3002 58.5381 79.4507C58.3787 79.6274 58.1518 79.7281 57.9418 79.8204C57.7319 79.7451 57.4714 79.6694 57.4042 79.4344C57.2784 79.0392 57.6898 78.7285 57.6396 78.3422C57.4714 78.0146 57.1773 77.7792 56.9253 77.519L50.8017 71.3951C50.4408 71.0593 50.1383 70.6564 49.7099 70.4044C49.2815 70.3199 48.8952 70.866 48.4838 70.5719C48.131 70.3454 48.2318 69.8413 48.5 69.5893ZM56.6482 67.5064C56.5139 67.1618 56.833 66.7585 57.1943 66.8172C57.3621 66.8593 57.488 66.9685 57.6057 67.0862C58.4875 67.9769 59.3782 68.8503 60.252 69.7406C60.5372 70.0347 60.9069 70.2867 61.0246 70.7066C60.9154 70.8915 60.7977 71.1435 60.546 71.1686C60.1339 71.2106 59.8317 70.883 59.462 70.7483C59.2099 70.6232 58.9319 70.5589 58.6505 70.5604C58.369 70.562 58.0918 70.6293 57.8411 70.7571C57.5724 70.4882 57.312 70.2192 57.043 69.9591C57.2278 69.5642 57.312 69.1108 57.1773 68.6905C57.0766 68.2621 56.791 67.9094 56.6482 67.5064ZM62.0493 69.6986C62.2256 69.4299 62.654 69.3879 62.864 69.6399C63.7713 70.5557 64.6956 71.4626 65.594 72.3866C64.5609 73.3946 63.5698 74.4528 62.5112 75.4358C62.2681 75.1753 62.0072 74.9233 61.7552 74.6628C62.654 73.5544 62.7802 71.9497 62.1755 70.673C62.0659 70.3705 61.8308 70.0008 62.0493 69.6986Z" fill="white"/>
<path d="M8.00377 73.0417C8.33955 72.9074 8.65907 72.6971 9.02878 72.7056C9.47378 72.7897 9.75124 73.1845 10.0616 73.4782C14.2871 77.6868 18.4953 81.9035 22.712 86.1117C22.947 86.3725 23.2496 86.6327 23.2916 87.0024C23.2747 87.3632 23.0813 87.6828 22.9308 88.0019C17.9492 87.9934 12.9768 87.9934 8.00377 87.9934C8.00377 83.0122 7.99529 78.0226 8.00377 73.0417" fill="#F96302"/>
<path d="M47.1055 72.8149C48.6006 72.6891 50.0876 73.2264 51.3222 74.0414C52.2882 74.6882 53.187 75.4358 53.8755 76.3682C54.6991 77.4685 55.2027 78.8127 55.2116 80.1986C55.2363 81.7778 54.6149 83.3736 53.4896 84.4905C53.2303 84.2402 52.9754 83.9855 52.725 83.7264C52.876 83.4411 53.0523 83.1386 53.0021 82.8024C52.9184 82.2984 52.5738 81.8866 52.2291 81.5424L46.5594 75.8723C46.1731 75.4945 45.7362 75.0827 45.165 75.041C44.8544 75.0074 44.5769 75.1668 44.3168 75.3181C44.0729 75.0491 43.7371 74.8476 43.5858 74.5119C44.5097 73.5625 45.7698 72.8987 47.1055 72.8149V72.8149Z" fill="white"/>
</svg>
