<svg width="96" height="96" viewBox="0 0 96 96" fill="none" xmlns="http://www.w3.org/2000/svg">
<path d="M11.1282 44.6113H8.42442V39.6757H4V52.3831H8.42442V46.0822H11.1282V52.3831H15.5531V39.6757H11.1282V44.6113Z" fill="#EF3125"/>
<path d="M87.0841 52.3831H83.7409V39.6757H87.0841V52.3831Z" fill="#EF3125"/>
<path d="M92 52.3831V39.6757H88.6573V52.3831H92Z" fill="#EF3125"/>
<path d="M31.6288 43.5614L31.8994 44.4013C34.3087 42.1965 37.6757 43.4564 37.6757 46.6597V52.3831H34.0377V46.5546C34.0377 45.3992 33.3987 45.2943 32.9072 45.2943C32.3174 45.2943 31.6288 45.9241 31.6288 47.0795V52.3831H27.9908V43.5614H31.6288Z" fill="#EF3125"/>
<path d="M69.2628 48.6809L67.5668 43.5614H65.0841L63.3877 48.891L61.6178 43.5614H56.7511L55.0055 48.0505L52.5475 43.5614H48.3932L53.2848 52.4881L52.6459 54.1679C52.4244 54.6934 51.8948 54.7194 51.7911 54.2204C51.7911 53.3182 51.1061 52.5872 50.2614 52.5872C49.4166 52.5872 48.7317 53.3182 48.7317 54.2204C48.7377 55.1658 49.6225 56.3997 51.3675 56.3208C53.1131 56.2422 53.8502 54.6934 54.0961 54.0369L58.1388 43.5958L61.0528 52.3831H63.7074L65.3298 47.3155L67.0014 52.3831H69.5085L72.3353 43.5614H70.8851L69.2628 48.6809Z" fill="#EF3125"/>
<path fill-rule="evenodd" clip-rule="evenodd" d="M16.7809 48.0505C16.7809 45.3236 19.0372 43.1129 21.8208 43.1129C24.605 43.1129 26.8617 45.3236 26.8617 48.0505C26.8617 50.7783 24.605 52.989 21.8208 52.989C19.0372 52.989 16.7809 50.7783 16.7809 48.0505ZM21.8208 51.7002C22.5135 51.7002 23.0749 51.1006 23.0749 50.3607V45.7407C23.0749 45.0014 22.5135 44.4024 21.8208 44.4024C21.1291 44.4024 20.5677 45.0014 20.5677 45.7407V50.3607C20.5677 51.1006 21.1291 51.7002 21.8208 51.7002Z" fill="#EF3125"/>
<path fill-rule="evenodd" clip-rule="evenodd" d="M48.797 48.7595C48.8237 48.5529 48.8373 48.2644 48.8373 48.0505C48.8373 45.3236 46.5806 43.1129 43.797 43.1129C41.0128 43.1129 38.7561 45.3236 38.7561 48.0505C38.7561 50.7783 41.0128 52.989 43.797 52.989C45.7097 52.989 47.3735 51.945 48.2278 50.4069L47.1144 49.9669C46.4414 51.0652 45.2076 51.8008 43.797 51.8008C43.1043 51.8008 42.5429 51.1006 42.5429 50.3607V48.7599L48.797 48.7595ZM42.5429 45.7407C42.5429 45.0014 43.1043 44.4024 43.797 44.4024C44.4892 44.4024 45.0505 45.0014 45.0505 45.7407V47.4996H42.5429V45.7407Z" fill="#EF3125"/>
<path fill-rule="evenodd" clip-rule="evenodd" d="M82.5135 48.0505C82.5135 48.2644 82.4998 48.5529 82.4727 48.7595L76.2192 48.7599V50.3607C76.2192 51.1006 76.7804 51.8008 77.4727 51.8008C78.8838 51.8008 80.1176 51.0652 80.7905 49.9669L81.904 50.4069C81.0496 51.945 79.3858 52.989 77.4727 52.989C74.689 52.989 72.4323 50.7783 72.4323 48.0505C72.4323 45.3236 74.689 43.1129 77.4727 43.1129C80.2568 43.1129 82.5135 45.3236 82.5135 48.0505ZM77.4727 44.4024C76.7804 44.4024 76.2192 45.0014 76.2192 45.7407V47.4996H78.7267V45.7407C78.7267 45.0014 78.1654 44.4024 77.4727 44.4024Z" fill="#EF3125"/>
</svg>
