<svg width="96" height="96" viewBox="0 0 96 96" fill="none" xmlns="http://www.w3.org/2000/svg">
<path d="M47.4519 45.5736L47.824 44.053L53.5829 43.7942V45.2824L51.8843 46.706L47.4519 45.5736Z" fill="#C6211E"/>
<path d="M44.9554 50.9461C41.6315 51.8683 41.0359 49.9086 41.0935 48.8326C40.7093 50.0046 40.6516 52.4831 43.476 52.9827L44.9554 50.9461V50.9461Z" fill="#DADBDA"/>
<path d="M22.6662 27.5258C23.0889 25.9887 24.1456 25.835 24.6259 25.9503L26.8931 28.3519C27.1813 29.4855 27.7769 32.2714 27.8153 34.4233C27.8413 35.183 27.7077 35.9398 27.423 36.6447C27.1384 37.3496 26.7092 37.9869 26.163 38.5157C24.991 39.5148 22.1282 41.3976 20.1301 40.9942C17.6132 40.4562 18.2472 37.3437 19.7458 35.0957C21.2444 32.8478 22.109 29.4279 22.647 27.5258H22.6662Z" fill="url(#paint0_linear_314_4012)"/>
<path d="M67.2021 33.7125C71.4867 26.2962 70.6413 21.7235 68.8352 20.417C60.5736 14.4609 34.6359 18.4572 28.1995 29.255C26.5856 31.9833 31.1199 36.6329 33.118 38.1507C41.86 44.76 50.064 45.0482 53.0613 44.3565C56.0009 43.8954 62.9176 41.148 67.2021 33.7125Z" fill="url(#paint1_linear_314_4012)"/>
<path d="M68.3946 31.4839C67.9668 32.3694 67.4988 33.2348 66.992 34.0776C65.1668 35.0383 62.8996 35.6915 60.1714 35.6915C52.1018 35.6915 47.2217 31.5991 45.7615 29.4281C45.6623 29.2761 45.6249 29.092 45.657 28.9134C45.6892 28.7347 45.7884 28.5752 45.9344 28.4674C46.0092 28.4142 46.0941 28.3768 46.1838 28.3576C46.2736 28.3384 46.3663 28.3378 46.4563 28.3558C46.5463 28.3738 46.6316 28.4101 46.7071 28.4623C46.7826 28.5145 46.8465 28.5816 46.8951 28.6595C48.1055 30.4464 52.5437 34.289 60.1521 34.289C63.8026 34.289 66.4925 33.0593 68.3754 31.4839H68.3946Z" fill="#141414"/>
<path d="M24.4736 28.6777C25.2037 29.9074 28.1241 31.2715 29.4882 31.8095C29.9685 30.4646 29.4306 28.8891 29.104 28.2743C28.2586 27.7363 26.318 26.5835 25.4535 26.2377C24.6081 25.8918 24.2622 25.8918 24.1854 25.9495C23.9933 26.3337 23.7627 27.4289 24.4736 28.6777V28.6777Z" fill="url(#paint2_linear_314_4012)"/>
<path d="M46.7241 25.6114C47.555 25.6114 48.2286 24.9306 48.2286 24.0908C48.2286 23.251 47.555 22.5702 46.7241 22.5702C45.8933 22.5702 45.2197 23.251 45.2197 24.0908C45.2197 24.9306 45.8933 25.6114 46.7241 25.6114Z" fill="#141414"/>
<path d="M63.7329 22.5379C66.1275 22.4074 68.0251 21.5028 67.9714 20.5174C67.9177 19.5321 65.933 18.8391 63.5384 18.9696C61.1438 19.1001 59.2462 20.0047 59.2999 20.9901C59.3536 21.9755 61.3383 22.6685 63.7329 22.5379Z" fill="url(#paint3_linear_314_4012)"/>
<path d="M53.6387 45.0665C51.2947 46.5267 47.6057 45.2587 47.4905 45.3355L40.151 57.997H41.2846C44.0321 54.4041 45.7421 53.4435 46.2608 53.4242L46.1648 57.997H47.4713C47.625 56.2678 48.3358 52.8478 49.9113 52.8478C51.4868 52.8478 52.1208 56.287 52.2169 57.997H53.6387V45.0665V45.0665Z" fill="url(#paint4_linear_314_4012)"/>
<path fill-rule="evenodd" clip-rule="evenodd" d="M58.366 63.5476C57.3594 63.6682 56.5741 63.8965 55.7703 64.3022C53.5906 65.4023 52.0838 67.53 51.7681 69.9533C51.7377 70.1868 51.7156 70.6012 51.7158 70.9319C51.7164 71.6847 51.7703 72.1185 51.951 72.8233C52.4954 74.9465 54.033 76.7724 56.0448 77.6847C57.7949 78.4783 59.8354 78.548 61.6316 77.8757C63.8231 77.0554 65.536 75.1832 66.1575 72.9286C66.3322 72.2949 66.3923 71.8701 66.4115 71.1327C66.4455 69.8316 66.2336 68.8274 65.6856 67.6926C65.322 66.9396 64.9302 66.3776 64.3481 65.774C63.1506 64.5323 61.6716 63.7912 59.9582 63.5741C59.616 63.5308 58.6421 63.5145 58.366 63.5476ZM45.7057 63.5974C44.6569 63.7301 43.5046 64.1484 42.6404 64.71C41.5104 65.4444 40.5888 66.4889 40.0088 67.6926C39.664 68.4084 39.4886 68.959 39.3534 69.7509C39.253 70.3386 39.2454 71.443 39.3376 72.0285C39.6713 74.1471 40.8468 75.9819 42.6077 77.1325C44.2271 78.1907 46.19 78.5596 48.112 78.1668C48.9196 78.0018 49.9375 77.5734 50.6459 77.1005C50.9851 76.874 51.5309 76.4368 51.6658 76.2834L51.731 76.2092L50.9576 75.4301L50.1843 74.6509L49.9391 74.8635C49.2827 75.4326 48.4688 75.8266 47.5646 76.0129C47.0293 76.1232 46.2088 76.1252 45.6722 76.0176C43.5646 75.595 42.0093 74.0494 41.5642 71.9355C41.4538 71.4114 41.4529 70.489 41.5622 69.9445C41.6981 69.2677 41.9577 68.6368 42.3428 68.0469C42.6222 67.619 43.2815 66.9541 43.7113 66.6666C45.0793 65.7517 46.6788 65.5239 48.2124 66.0255C48.8106 66.2212 49.4364 66.5756 49.9378 67.0028L50.1843 67.2128L50.958 66.4333L51.7317 65.6538L51.6494 65.5645C51.5076 65.4108 50.9105 64.9388 50.5957 64.7316C50.24 64.4973 49.5396 64.1438 49.1388 63.9961C48.7182 63.8412 48.0211 63.6686 47.5805 63.6104C47.1569 63.5545 46.1028 63.5472 45.7057 63.5974ZM17.1001 63.6239C17.0924 63.6316 17.086 65.8029 17.0859 68.449C17.0857 71.4401 17.0729 73.3749 17.052 73.5637C16.9105 74.8426 16.6199 75.3044 15.6725 75.7566C15.1338 76.0137 14.2496 76.1787 13.4113 76.1787H13V77.2631V78.3475L13.6112 78.3243C14.6857 78.2835 15.5403 78.1568 16.2681 77.9304C16.7175 77.7906 17.4126 77.4458 17.7392 77.2008C18.5985 76.5563 19.1427 75.6006 19.3689 74.3392L19.4474 73.9012V68.7631V63.6249L18.2807 63.6174C17.639 63.6132 17.1078 63.6162 17.1001 63.6239ZM21.3552 63.6351C21.3464 63.6584 21.3432 66.9722 21.3479 70.9993L21.3565 78.3214L23.3493 78.3195C25.4615 78.3175 25.9198 78.2927 26.8158 78.1317C29.4534 77.6577 31.2335 76.3453 32.0616 74.2642C32.4537 73.2788 32.6307 72.2527 32.6307 70.9656C32.6307 68.6795 32.0293 66.9682 30.7862 65.7178C30.2697 65.1982 29.8847 64.9196 29.209 64.5767C28.1114 64.0197 26.8716 63.7206 25.2731 63.6271C24.4003 63.5761 21.3752 63.5823 21.3552 63.6351ZM68.3301 71.0162V78.103L69.427 78.0941L70.5239 78.0852L70.5407 73.3301L70.5574 68.5751L73.1029 73.2026C74.5029 75.7477 75.6559 77.8303 75.6651 77.8305C75.6743 77.8307 75.8794 77.4706 76.1209 77.0301C76.3625 76.5897 77.5079 74.506 78.6664 72.3997L80.7727 68.5701L80.7895 73.3276L80.8062 78.0852L81.9031 78.0941L83 78.103V71.0162V63.9295L81.8374 63.9384L80.6748 63.9473L79.7525 65.6885C79.2452 66.6462 78.1218 68.7679 77.256 70.4034C76.3902 72.0389 75.6743 73.377 75.6651 73.377C75.6559 73.3771 75.1482 72.4322 74.5369 71.2772C73.9257 70.1223 73.1275 68.6155 72.7632 67.9288C72.3989 67.2422 71.7752 66.0654 71.3771 65.3138L70.6533 63.9473L69.4917 63.9384L68.3301 63.9295V71.0162ZM26.0588 65.8354C27.6374 66.0597 28.815 66.6911 29.471 67.6648C29.8097 68.1675 30.0928 68.9155 30.216 69.6328C30.3068 70.1612 30.341 71.1999 30.2863 71.7641C30.1576 73.0895 29.7215 74.1205 28.9899 74.828C28.3594 75.4378 27.5596 75.821 26.4922 76.0245C25.8704 76.1431 25.4042 76.1785 24.4629 76.1786L23.6507 76.1787V70.9612V65.7436L24.6639 65.7624C25.315 65.7745 25.8134 65.8006 26.0588 65.8354ZM59.9418 65.8202C60.9484 65.9936 61.8868 66.469 62.6243 67.1793C63.2578 67.7895 63.6998 68.4961 63.9689 69.3291C64.162 69.9266 64.1938 70.1533 64.1938 70.9319C64.1938 71.5504 64.1839 71.6849 64.1159 71.9907C63.6574 74.0537 62.1446 75.5602 60.0742 76.0155C59.6153 76.1164 58.6603 76.1245 58.1651 76.0316C56.0747 75.6395 54.4946 74.0877 54.0204 71.961C53.9599 71.69 53.9488 71.531 53.9482 70.9319C53.9476 70.3242 53.9581 70.1743 54.0218 69.8795C54.2422 68.86 54.7625 67.91 55.491 67.1976C56.2039 66.5004 57.2822 65.9596 58.2655 65.806C58.7305 65.7335 59.4746 65.7397 59.9418 65.8202ZM35.6645 75.0348C35.4305 75.0902 35.1675 75.2403 34.9889 75.4201C34.2451 76.1695 34.5419 77.4256 35.543 77.7654C35.7154 77.8239 35.8135 77.8355 36.0426 77.8244C36.4628 77.8042 36.6717 77.7113 36.9673 77.4135C37.2898 77.0886 37.3635 76.9032 37.365 76.4132C37.366 76.0685 37.362 76.0489 37.2399 75.8001C37.1059 75.5269 36.8794 75.2865 36.6403 75.1636C36.354 75.0164 35.9608 74.9645 35.6645 75.0348Z" fill="#FF1E13"/>
<defs>
<linearGradient id="paint0_linear_314_4012" x1="19.2271" y1="32.502" x2="26.432" y2="34.5962" gradientUnits="userSpaceOnUse">
<stop offset="0.39" stop-color="#EEEDEF"/>
<stop offset="0.55" stop-color="#C2C0C0"/>
</linearGradient>
<linearGradient id="paint1_linear_314_4012" x1="59.2671" y1="19.1297" x2="36.0576" y2="38.3621" gradientUnits="userSpaceOnUse">
<stop stop-color="#F7F8FA"/>
<stop offset="1" stop-color="#D6D7D5"/>
</linearGradient>
<linearGradient id="paint2_linear_314_4012" x1="27.7014" y1="27.1407" x2="25.9722" y2="29.6384" gradientUnits="userSpaceOnUse">
<stop offset="0.2" stop-color="#F2F3F2"/>
<stop offset="1" stop-color="#BFBDBD"/>
</linearGradient>
<linearGradient id="paint3_linear_314_4012" x1="70.0559" y1="20.6347" x2="65.3625" y2="23.4882" gradientUnits="userSpaceOnUse">
<stop stop-color="#4B4847"/>
<stop offset="1" stop-color="#131313"/>
</linearGradient>
<linearGradient id="paint4_linear_314_4012" x1="43.9168" y1="56.0757" x2="49.8345" y2="46.2577" gradientUnits="userSpaceOnUse">
<stop stop-color="#DFE1E1"/>
<stop offset="1" stop-color="#EAECEB"/>
</linearGradient>
</defs>
</svg>
