<svg width="96" height="96" viewBox="0 0 96 96" fill="none" xmlns="http://www.w3.org/2000/svg">
<path d="M7.70109 38.9943V39.4389H9.34918V48.0815C9.34918 50.6787 8.63333 51.4101 7.03736 51.4101C6.0336 51.4101 5.86812 50.6428 5.86812 50.2457C5.86812 49.3008 5.81599 48.7226 4.96073 48.7226C4.10062 48.7226 4 49.5967 4 49.8638C4 51.0539 4.52613 51.9645 6.87613 51.9645C9.6771 51.9645 11.1743 51.013 11.1743 47.8528V39.4365L12.8763 39.4389V38.9943H7.70109ZM12.8514 50.2503C12.652 50.4504 12.5532 50.6876 12.5532 50.9755C12.5532 51.2616 12.652 51.4971 12.8538 51.6868C13.0544 51.885 13.2933 51.9808 13.5721 51.9808C13.8558 51.9808 14.0952 51.885 14.3001 51.6868C14.4971 51.4971 14.5971 51.2616 14.5971 50.9755C14.5971 50.6846 14.4971 50.4467 14.3001 50.2503C14.1025 50.0508 13.8642 49.9587 13.5721 49.9587C13.2836 49.9587 13.0454 50.0508 12.8514 50.2503ZM24.3445 50.2503C24.1475 50.4504 24.0524 50.6876 24.0524 50.9755C24.0524 51.2616 24.1475 51.4971 24.3445 51.6868C24.5542 51.885 24.7864 51.9808 25.0652 51.9808C25.3537 51.9808 25.5944 51.885 25.7974 51.6868C25.9975 51.4971 26.0963 51.2616 26.0963 50.9755C26.0963 50.6846 25.9975 50.4467 25.7986 50.2503C25.5974 50.0508 25.3562 49.9587 25.0652 49.9587C24.7803 49.9587 24.5409 50.0508 24.3445 50.2503ZM16.3913 38.9954V39.4388H17.88V49.2977C17.88 50.0729 17.8327 50.2742 17.7466 50.4987C17.6545 50.7494 17.4466 50.947 17.1387 51.0757C16.9096 51.1727 16.5622 51.2239 16.0991 51.2367V51.6442H21.5544V51.241C21.0919 51.2294 20.7391 51.1764 20.5082 51.0934C20.1827 50.9641 19.9718 50.7738 19.8687 50.5158C19.7784 50.2937 19.7317 50.0985 19.7317 49.7088V46.3326L21.0816 46.3271C25.0021 46.3271 26.1041 44.7705 26.1041 42.646C26.1041 40.4989 25.4276 38.9941 21.458 38.9941L16.3913 38.9954ZM19.7317 39.4955L20.6694 39.4827C23.6929 39.4827 24.3529 40.7344 24.3529 42.7625C24.3529 44.8034 23.1643 45.8447 20.7664 45.8447H19.7317V39.4955ZM40.2564 39.0239C40.2109 39.141 36.4147 48.6607 36.4147 48.6607L36.328 48.7175L36.2371 48.6607C36.2371 48.6607 32.1917 39.141 32.1444 39.0239H28.5749V39.4314H30.1242V49.2219L30.0908 50.1137C30.066 50.3491 29.9932 50.5589 29.8787 50.7261C29.7581 50.9085 29.5617 51.0463 29.3065 51.1372C29.138 51.1927 28.887 51.2299 28.5749 51.2372V51.6447H32.1178V51.2427C31.8165 51.2299 31.6856 51.2 31.5092 51.1409C31.2492 51.0548 31.054 50.9249 30.9249 50.7389C30.8097 50.5657 30.7352 50.3589 30.7091 50.1137L30.6697 49.2219V40.7654H30.8776C30.8776 40.7654 35.4588 51.5263 35.5067 51.6447H35.8892L40.2249 40.8849H40.334V49.6044C40.334 49.9776 40.2964 50.2656 40.2249 50.4888C40.1394 50.7499 39.9545 50.9469 39.6866 51.0799C39.4878 51.1689 39.1847 51.2214 38.7853 51.2372V51.6447H43.7284V51.2372C43.3338 51.2177 43.0283 51.164 42.821 51.0707C42.5337 50.9298 42.3476 50.7261 42.2657 50.4656C42.1942 50.2381 42.1597 49.96 42.1597 49.6044V39.4393L43.4738 39.4265V39.0239H40.2564ZM44.6228 47.2134C44.6228 51.718 48.1056 52.0157 48.8573 52.0157C50.3459 52.0157 53.1681 51.0812 53.1681 47.1286C53.1681 44.0532 51.363 42.3794 48.9167 42.3794C46.2781 42.3794 44.6228 44.1392 44.6228 47.2134ZM46.5927 47.2634C46.5927 44.7931 46.7455 42.9394 48.8815 42.9394C51.1897 42.9394 51.2006 44.8577 51.2006 47.1079C51.2006 50.3413 50.6514 51.4569 48.8815 51.4569C46.8982 51.4569 46.5927 50.4596 46.5927 47.2634ZM57.5648 44.4109L57.4412 44.4067C57.4278 44.4109 57.2139 43.0172 57.1332 42.6067C56.5174 42.6067 54.0789 42.6006 54.0789 42.6006V43.0721H55.7318C55.7318 43.0721 55.7221 44.4841 55.7221 44.9928V49.3175C55.7221 49.9366 55.6543 50.3685 55.5215 50.6301C55.3524 50.9388 54.9736 51.0937 54.3462 51.0937H54.0789V51.6445H59.1971V51.0937H58.9213C58.2497 51.0937 57.96 50.9467 57.78 50.6539C57.6169 50.3959 57.5442 49.9586 57.5442 49.3175V46.0743C57.5442 44.9806 58.3625 43.7357 59.3432 43.7357C60.3682 43.7357 60.344 45.3247 61.5059 44.6854C62.1375 44.3377 62.0308 42.517 60.0706 42.517C58.4922 42.517 58 43.4551 57.5648 44.4109ZM73.5449 43.0764C72.9606 43.5241 72.7333 43.9377 72.7333 44.5299C72.7333 44.805 72.8066 44.999 72.9606 45.1295C73.1145 45.2674 73.2958 45.3308 73.5176 45.3308C74.0262 45.3308 74.3123 45.0704 74.4177 44.397C74.4959 43.8974 74.6044 43.6125 74.8487 43.3521C75.1099 43.0764 75.5185 42.9385 76.0701 42.9385C76.712 42.9385 77.166 43.1124 77.4211 43.4601C77.6545 43.787 77.7782 44.2317 77.7782 44.7806V46.2976C76.1379 46.4464 72.2659 46.7593 72.4381 49.7274C72.5029 50.8888 73.5206 51.9081 74.8354 51.9081C76.2889 51.9081 77.209 51.0748 77.8333 50.4082C77.9333 51.0401 78.5164 51.7946 79.576 51.7946C80.7676 51.7946 81.4792 51.2066 81.5623 49.7366H81.2562C81.1756 50.3758 80.7828 50.7205 80.4597 50.7205C79.9118 50.7205 79.7378 50.4136 79.6972 49.9031L79.6651 48.7454V44.9569C79.6651 44.1389 79.5341 43.5894 79.0547 43.1075C78.5831 42.6256 77.6703 42.3792 76.3507 42.3792C75.0839 42.3792 74.1431 42.6146 73.5449 43.0764ZM74.2298 49.3798C74.2298 47.6956 76.5222 46.8533 77.7782 46.8533V49.7628L77.7472 49.8348L77.7091 49.8714C76.832 50.6717 76.1622 50.9571 75.6724 50.9571C74.4177 50.9571 74.2298 49.9055 74.2298 49.3798ZM85.1646 44.2397L85.0003 44.2329L84.6797 42.5897L81.8975 42.5848V43.0563C82.42 43.0783 83.291 43.088 83.291 43.088V49.3072C83.291 49.7903 83.2534 50.138 83.1825 50.3686C83.1085 50.6437 82.9309 50.8358 82.6685 50.9468C82.5 51.02 82.2351 51.0603 81.8975 51.0755V51.6446H86.3211V51.0713C85.8762 51.0353 85.5761 50.9139 85.4161 50.6851C85.2434 50.4406 85.1646 50.0203 85.1646 49.4061V47.0174C85.1646 46.0183 85.1591 45.0533 85.4979 44.4562C85.8635 43.8054 86.5326 43.4467 87.2818 43.4467C87.9552 43.4467 88.3098 43.6638 88.5323 44.0939C88.7135 44.444 88.8311 45.4858 88.8311 46.2025L88.8093 49.1627C88.8093 49.6555 88.8711 50.0203 88.8311 50.2539C88.7814 50.5266 88.6584 50.7388 88.4456 50.8797C88.291 50.9871 88.048 51.0426 87.7364 51.0664V51.6446H92V51.0755C91.4605 51.0401 91.1078 50.9084 90.9532 50.6546C90.778 50.396 90.6332 49.9605 90.6332 49.3115L90.6574 45.2138C90.6574 44.6215 90.5786 44.1146 90.3574 43.6986C90.1337 43.2942 89.8197 42.9874 89.4294 42.7855C89.0323 42.5848 88.5777 42.486 88.0783 42.486C86.2799 42.486 85.558 43.5906 85.1646 44.2397ZM70.9225 42.0141C70.6589 42.0989 70.4837 42.335 70.391 42.7339C70.3219 43.1017 70.183 43.3146 69.9982 43.3744C69.8127 43.4292 69.606 43.4134 69.3599 43.3292C68.9017 42.9004 68.0222 42.3795 66.4741 42.3795C63.9822 42.3795 62.8839 44.1661 62.8839 45.7959C62.8839 47.7039 63.6125 48.6274 65.2157 48.9671C65.3127 48.9879 65.3127 49.0958 65.2285 49.1153C63.861 49.3941 62.6493 49.7967 62.6493 51.1044C62.6493 51.8925 63.0991 52.3244 63.6743 52.5604C64.3096 52.8203 65.2024 52.9551 66.3232 52.9752C67.3033 52.9862 67.9979 53.0209 68.4501 53.0752C68.9392 53.1313 69.3266 53.2716 69.6127 53.4815C69.9073 53.7108 70.063 54.0487 70.063 54.491C70.063 55.096 69.7418 55.5828 69.1005 55.9433C68.504 56.2788 67.6888 56.4538 66.6747 56.4538C65.8049 56.4538 65.0933 56.3581 64.4508 55.9555C63.975 55.659 63.8822 55.0759 63.9822 54.6563C64.0707 54.2317 63.9198 53.784 63.4307 53.701C63.1615 53.6553 62.8227 53.8029 62.6663 54.0487C62.5196 54.2775 62.4681 54.5495 62.4681 54.874C62.4681 55.95 63.2937 56.4538 63.9247 56.6392C64.8872 56.9345 65.5255 57.0058 66.4104 57.0058C67.5839 57.0058 68.5368 56.8253 69.2181 56.4782C69.8994 56.1318 70.3746 55.7084 70.628 55.2217C70.8953 54.7313 71.0232 54.2311 71.0232 53.7492C71.0232 53.099 70.8813 52.569 70.6055 52.1786C69.7151 50.9464 68.4501 51.1044 65.6073 50.9678C64.2399 50.9678 63.9762 50.7195 63.9762 50.2962C63.9762 49.6759 64.4829 49.4313 66.4632 49.1257C68.4113 48.8207 70.2273 48.101 70.2273 45.7062C70.2273 45.0176 70.0673 44.4259 69.8739 44.0124C70.277 44.1026 70.6528 44.1026 70.9959 43.9886C71.3893 43.8666 71.6444 43.6684 71.7923 43.3902C71.9402 43.1115 71.9736 42.8492 71.8918 42.593C71.7614 42.1739 71.5384 41.9647 71.2165 41.9647C71.1262 41.9647 71.0286 41.9812 70.9225 42.0141ZM64.6914 45.7959C64.6914 44.1142 65.2745 42.8632 66.522 42.8632C67.9737 42.8632 68.398 44.0032 68.398 45.7611C68.398 48.2754 67.6112 48.6048 66.522 48.6048C65.3576 48.6048 64.6914 48.179 64.6914 45.7959Z" fill="#00477B"/>
</svg>
