<svg width="96" height="96" viewBox="0 0 96 96" fill="none" xmlns="http://www.w3.org/2000/svg">
<path d="M43.1244 47.5127C43.1226 46.6897 43.1226 45.8662 43.1244 45.0427C42.4165 45.0379 41.7105 45.0392 41.0026 45.041C41.0009 44.1432 40.9991 43.245 41.0062 42.349C40.0706 42.3539 39.1333 42.3521 38.1981 42.3508V45.0392H37.0339C37.0322 45.8631 37.0339 46.687 37.0339 47.5127H38.1964V47.5144H38.1981C38.2012 48.2662 38.1973 49.0189 38.1968 49.7711C38.1964 49.8336 38.1964 49.896 38.1964 49.9584C38.1964 50.0055 38.1959 50.053 38.1959 50.1C38.1959 50.5383 38.1977 50.9767 38.2034 51.415C38.2271 52.6003 38.6584 53.87 39.6564 54.5664C40.5349 55.1946 41.6291 55.312 42.6794 55.2979C41.8155 54.398 41.2972 53.083 41.0888 52.027L41.0827 51.9962L41.0787 51.965C41.0506 51.7333 41.0154 51.3609 41.0193 50.9679C41.0127 50.8839 41.0079 50.8004 41.0044 50.7181C41.0013 50.5045 41.0013 50.2908 41.0004 50.0776C40.9965 49.2225 41.0053 48.3682 41.0026 47.5144C41.7087 47.5162 42.4165 47.5162 43.1244 47.5127Z" fill="#1D3C6D"/>
<path d="M36.5092 43.1213C36.504 42.2961 36.504 41.4713 36.5092 40.6461C35.1239 40.4135 33.5284 40.5054 32.4183 41.463C31.4252 42.3554 31.23 43.7746 31.2656 45.0412C31.2563 45.0412 31.2467 45.0412 31.2374 45.0412H30.0521C30.0535 45.8656 30.0535 46.6904 30.0521 47.5151H31.077C31.142 47.5147 31.2071 47.5143 31.2722 47.5143L31.2779 47.5151V48.8671H31.2735C31.2757 50.8907 31.2766 52.9153 31.2722 54.939H32.5762C33.0914 54.939 33.6071 54.9395 34.1224 54.9377C34.1211 52.8837 34.1198 50.8301 34.1228 48.7769V47.5125H36.0239C36.0221 46.6873 36.0221 45.8634 36.0239 45.0395C36.0239 45.0395 34.1589 45.0395 34.1088 45.0395C34.1343 44.4829 34.0701 43.8173 34.5282 43.4049C35.0799 42.9415 35.8489 43.0923 36.5092 43.1213Z" fill="#1D3C6D"/>
<path d="M26.1766 54.9388H27.4428C27.6824 54.9388 27.922 54.9384 28.1621 54.9388H28.9622C28.9451 52.8189 28.9789 50.6989 28.9451 48.5785C28.9231 47.3343 28.4509 45.9542 27.2647 45.3704C25.5686 44.5267 23.5809 44.717 21.7714 45.0072C21.7648 45.9067 21.7696 46.808 21.7683 47.7097C22.9325 47.4569 24.2022 47.1936 25.3549 47.6249C25.8913 47.8095 26.0918 48.3749 26.1749 48.8858C25.3685 48.7842 24.5504 48.5921 23.737 48.757C22.7729 48.8757 21.8175 49.3478 21.2724 50.1744C20.3931 51.4898 20.6441 53.4792 21.9463 54.4302C23.1686 55.3618 24.9443 55.2615 26.1867 54.4183C26.185 54.548 26.1801 54.8069 26.1766 54.9388ZM26.0592 52.7969C25.3378 53.0193 24.4572 53.2655 23.795 52.7613C23.1905 52.3352 23.2688 51.3082 23.9239 50.9723C24.5926 50.6193 25.3734 50.7428 26.0834 50.884C26.1476 51.5206 26.1423 52.162 26.0592 52.7969Z" fill="#1D3C6D"/>
<path d="M11.6068 41.5155C12.7424 41.522 13.878 41.5172 15.0136 41.5172C13.35 43.7546 11.7237 46.0205 10.05 48.2495C11.5404 50.4768 13.007 52.7172 14.5093 54.9357C13.3315 54.9445 12.1532 54.9326 10.9768 54.9427C9.66485 52.9515 8.34943 50.9621 7.04367 48.9675C7.0406 50.9586 7.0406 52.9498 7.04543 54.9409C6.03029 54.9357 5.01514 54.9392 4 54.9392C4.00352 50.4662 4.00352 45.9933 4 41.5203C5.01514 41.5155 6.02897 41.5203 7.04367 41.5155C7.04192 43.6271 7.03884 45.7387 7.04543 47.8503C8.55958 45.7339 10.0891 43.6288 11.6068 41.5155Z" fill="#1D3C6D"/>
<path d="M15.2157 45.0717C16.1714 45.0668 17.1286 45.0717 18.0861 45.0668C18.0826 45.6982 18.0813 46.3295 18.0707 46.9595C18.5345 45.9136 19.5374 45.233 20.651 45.0532C20.6528 45.9901 20.6646 46.9287 20.6391 47.8656C19.4187 48.0116 18.1644 48.9217 18.12 50.2388C18.0861 51.804 18.1134 53.3726 18.1116 54.9395C17.1457 54.9395 16.1798 54.9395 15.2157 54.9373C15.2174 51.6479 15.2174 48.3598 15.2157 45.0717Z" fill="#1D3C6D"/>
<path d="M66.1742 52.9335C65.7737 53.0935 65.6937 53.1736 65.2136 53.3336C64.733 53.4941 64.1725 53.4941 63.6919 53.3336C62.1708 52.6935 63.1318 50.3712 63.1318 50.3712C69.377 48.8501 68.4964 45.4872 66.8148 45.3267C65.7737 45.3267 62.0107 45.4872 60.2491 49.8107C60.009 50.4513 58.3274 55.0152 62.0907 55.3353C62.8913 55.3353 63.7724 55.2553 64.573 54.8552C65.2936 54.4547 65.8541 53.9741 66.3342 53.3336C66.7347 52.613 66.1742 52.9335 66.1742 52.9335ZM65.2936 46.5279C65.7737 46.6879 64.573 49.0901 64.573 49.0901C64.0925 49.2501 63.6119 49.4106 63.2919 49.4106C63.4519 49.0901 64.3325 46.0478 65.2936 46.5279Z" fill="#E32726"/>
<path d="M80.7467 53.8142C80.6667 53.7341 80.5067 53.7341 80.4266 53.6541C79.9461 53.3336 80.3462 52.453 80.4266 51.9725L81.8678 46.8484C81.9478 46.5279 82.5084 44.8467 80.2662 45.1668C78.3445 45.4873 76.9833 46.6879 76.9833 46.6879C77.1438 46.2078 77.3038 45.4873 76.9833 45.3268C76.5833 45.1668 74.261 45.8873 73.7005 46.3679C73.5405 46.3679 73.3004 46.6079 73.5405 46.8484C73.7805 47.1685 73.861 47.4085 73.7005 47.9691C73.3804 48.9301 72.4198 52.293 72.1793 52.9335C71.9393 53.5741 71.6188 54.7752 72.1793 55.1753C72.5798 55.4958 74.261 54.7752 74.5015 54.6148C74.7416 54.5347 74.9816 54.3747 75.0616 54.2947C75.3821 53.9742 74.9016 53.8142 75.3821 52.1325C75.3821 52.0525 75.9427 50.3713 76.3428 48.9301C76.6633 47.729 77.7839 47.1685 78.1845 47.0884C78.825 47.0084 78.665 47.569 78.585 47.9691C78.0244 49.7307 77.3839 52.373 77.1438 53.0136C76.9033 53.6541 76.5032 54.9353 77.1438 55.1753C77.7039 55.5758 80.2662 54.4547 80.5067 54.2947C80.9868 53.9742 80.9868 53.8142 80.7467 53.8142Z" fill="#E32726"/>
<path d="M70.9784 53.8142C70.8184 53.7341 70.7383 53.7341 70.6579 53.6541C70.1778 53.3336 70.4979 52.453 70.6579 51.9725L72.1795 46.8484C72.2595 46.2879 72.5796 45.5673 72.1795 45.3268C71.699 45.1668 69.3768 45.8873 68.8166 46.3679C68.7362 46.3679 68.4961 46.6079 68.7362 46.8484C68.9767 47.1685 68.9767 47.4085 68.8166 47.9691C68.5762 48.9301 67.4551 52.373 67.215 53.0136C66.975 53.6541 66.6545 54.9353 67.375 55.1753C67.9356 55.5758 70.3378 54.5347 70.6579 54.2947C71.2184 54.0542 71.2184 53.8142 70.9784 53.8142Z" fill="#E32726"/>
<path d="M70.4979 44.1259C70.658 44.4459 72.0991 43.8058 72.8202 43.4053C72.9002 43.3253 73.2202 43.0848 73.3003 42.8448C73.4607 42.2842 73.5407 42.0442 73.6208 41.6436C73.7008 41.4836 73.7008 41.2436 73.4607 41.1631C73.1402 41.0831 71.2185 41.3236 70.738 42.1242C70.578 42.4442 70.0174 43.9659 70.4979 44.1259Z" fill="#E32726"/>
<path d="M91.9564 49.7308C91.7163 48.8502 90.2747 48.6097 89.7146 49.0902C89.3941 49.4103 89.2341 50.0508 89.3141 50.2113C90.6752 49.8108 90.9153 51.0119 90.6752 51.492C90.1947 52.213 90.0347 52.4531 89.3941 52.4531H85.1506C85.0706 52.373 84.9901 52.293 85.1506 52.1326C85.3907 51.8125 89.5541 46.1279 89.7146 45.8874C89.7946 45.7273 90.0347 45.3268 89.4741 45.3268H84.8301C84.35 45.3268 84.1095 45.4869 83.7095 45.8874C83.389 46.2879 82.9889 47.4886 82.7484 48.2896C82.7484 48.2896 82.7484 48.6097 83.2289 48.2096C83.3089 48.1291 83.469 47.8091 83.7095 47.8091H86.5118C87.3924 47.8091 82.7484 52.213 81.3072 54.5348C81.0672 54.9353 81.4673 54.9353 81.7077 54.9353H87.7929C89.3141 54.9353 89.074 55.1754 89.8746 54.0543C89.8746 54.0543 92.3564 50.8519 91.9564 49.7308Z" fill="#E32726"/>
<path d="M58.4876 52.4531L60.1693 45.9674C61.2899 42.044 61.9305 41.884 62.331 41.4834H59.6887C58.7281 41.4834 58.0071 42.8446 57.8471 43.7256L56.726 47.8091H54.3242C54.3242 47.8091 55.7653 42.6045 55.9254 42.044C56.0054 41.8039 56.0054 41.4834 55.5253 41.4834C55.4448 41.4834 50.4008 41.3234 48.7991 41.884C48.0785 42.124 47.0379 42.7646 46.7174 43.7256C46.4774 44.2862 46.1569 45.3268 46.8779 47.2485C46.9579 47.4886 47.1179 47.649 47.1979 47.7291C47.438 47.8891 49.5197 47.569 49.4397 47.569C49.6002 47.569 49.6802 47.4886 49.5197 47.1685C49.3597 46.768 48.8796 46.0474 48.7991 45.3268C48.4791 42.5245 50.4808 42.124 50.8008 42.044C51.2814 41.964 51.6819 41.964 52.162 42.044C52.3225 42.044 52.7225 42.124 52.8026 42.2845C52.963 42.6045 52.7225 43.1651 52.5625 43.8056C52.4025 44.2862 51.0413 49.2502 50.6408 50.6114C50.4008 51.6525 49.3597 53.8942 48.319 54.2147C48.0785 54.2947 47.7585 54.2947 47.438 54.2147C47.1179 54.1347 46.7974 53.9742 46.5574 53.8142C45.9168 53.1736 45.5163 51.8925 45.4363 50.9319C45.3563 49.7308 45.5967 48.8502 45.3563 48.8502C44.9386 48.8502 43.5432 49.4015 42.9773 49.8077L42.9747 49.8095C42.7452 49.9735 42.7302 50.0051 42.7302 50.0051C42.7188 50.0165 42.7096 50.028 42.7034 50.0385C42.5557 50.2904 42.5658 51.186 42.634 51.7325C42.8745 52.9336 43.515 54.2947 44.4756 54.9353C47.0379 56.6965 51.5219 53.4941 52.002 53.1736C52.7225 52.5331 53.2031 51.6525 53.3631 51.0119C53.6036 50.2113 54.0037 48.8502 54.0037 48.8502H56.4059C56.4059 48.8502 55.4448 52.4531 55.2048 53.3337C54.9647 54.0543 54.8043 55.2554 55.4448 55.1754C57.8471 55.1754 58.8081 54.2947 58.8881 54.2147C58.9682 54.1347 58.9682 53.9742 58.8881 53.8942C58.7281 53.8142 58.1676 53.2537 58.4876 52.4531Z" fill="#E32726"/>
</svg>
