<svg width="96" height="96" viewBox="0 0 96 96" fill="none" xmlns="http://www.w3.org/2000/svg">
<path d="M30.215 56.0792H43.4047V57.7364H30.215C30.2121 57.7364 30.2062 57.7364 30.2033 57.7364C29.0104 57.7334 28.0496 56.7638 28.0525 55.5709V38.2295H29.7155V55.5709C29.7155 55.5738 29.7155 55.5768 29.7155 55.5797C29.7185 55.8559 29.9418 56.0792 30.215 56.0792ZM22.4699 38.2295H20.3602L6.47416 55.9499C6.35957 56.1115 6.14802 56.1732 5.96585 56.0968C5.78074 56.0381 5.65734 55.8618 5.66321 55.6679V38.2295H4.00018V55.6679C3.98842 56.5758 4.56725 57.3838 5.42815 57.6659C5.6544 57.7422 5.89239 57.7834 6.13333 57.7834C6.77974 57.7834 7.39089 57.4866 7.78461 56.9724L14.4132 48.5074L21.6002 57.7334H23.7509L15.471 47.1646L22.4699 38.2295ZM65.7176 57.7364H67.5569L59.0185 39.4694C58.5219 38.3882 57.2408 37.918 56.1625 38.4146C55.6983 38.6291 55.3222 39.0022 55.1077 39.4694L46.5721 57.7393H48.4173L56.6238 40.1834C56.7031 40.013 56.8765 39.9043 57.0645 39.9102C57.2526 39.9013 57.4289 40.0101 57.5053 40.1834L65.7176 57.7364Z" fill="#41007F"/>
<path d="M72.4432 38.2295H92V57.7364H72.4432V38.2295Z" fill="#00A7E1"/>
<path d="M90.5339 47.0678H83.1413V39.6929H81.302V47.0678H73.9094V48.9013H81.302V56.2762H83.1413V48.9013H90.5339C90.5339 48.9013 90.5339 47.0678 90.5339 47.0678Z" fill="white"/>
</svg>
