<svg width="96" height="96" viewBox="0 0 96 96" fill="none" xmlns="http://www.w3.org/2000/svg">
<path fill-rule="evenodd" clip-rule="evenodd" d="M19.6946 49.8168H7.4757C6.38176 49.8168 5.89534 49.2364 5.89534 47.99V45.2084H4V47.99C4 49.7903 5.32303 50.7819 6.58568 50.7819H19.6946V49.8168ZM39.4173 45.2084V49.8168H28.247C27.1531 49.8168 26.6667 49.2364 26.6667 47.99V45.2084H24.7707V47.99C24.7707 49.7903 26.0938 50.7819 27.357 50.7819H41.3132V45.2084H39.4173ZM62.7691 49.8168H49.8878C48.7938 49.8168 48.3074 49.2364 48.3074 47.99C48.3074 46.7339 48.7938 46.1735 49.8878 46.1735H62.7691V45.2084H48.9977C47.7348 45.2084 46.4114 46.196 46.4114 47.99C46.4114 49.7903 47.7345 50.7819 48.9977 50.7819H62.7691V49.8168ZM89.414 45.2084C90.6764 45.2084 92 46.196 92 47.99C92 49.7903 90.6767 50.7819 89.414 50.7819H75.2703V45.2084H89.414ZM90.1044 47.99C90.1044 46.7339 89.6179 46.1735 88.524 46.1735H77.1659V49.8164H88.524C89.6179 49.8164 90.1044 49.2364 90.1044 47.99ZM68.0956 50.9333H69.9411V45.0667H68.0956V50.9333Z" fill="#1B1B1B"/>
</svg>
