<svg width="97" height="96" viewBox="0 0 97 96" fill="none" xmlns="http://www.w3.org/2000/svg">
<rect x="16.8315" y="16" width="64" height="64" rx="32" fill="#D41935"/>
<path d="M78.0447 47.7675C78.0447 64.0103 64.8625 77.1924 48.6198 77.1924C32.3665 77.1924 19.1844 64.0103 19.1844 47.7675C19.1844 31.5142 32.3665 18.3322 48.6198 18.3322C64.8625 18.3322 78.0447 31.5142 78.0447 47.7675Z" fill="white"/>
<path d="M70.8896 62.723C68.3144 66.5752 65.0321 68.6227 61.3698 68.6227C59.7656 68.6227 58.0769 68.2322 56.3461 67.4617C54.5096 66.6491 52.8949 65.161 51.7972 63.2718C50.7102 61.3826 50.2775 59.3457 50.5835 57.5092C50.9635 55.905 51.8078 53.7203 52.7893 51.1873C55.3329 44.6016 58.8263 35.5778 55.8078 31.1662C54.5413 29.3087 52.2511 28.401 48.8315 28.3905C45.4015 28.4013 43.1218 29.3087 41.8447 31.1662C38.8368 35.5778 42.3197 44.6016 44.8738 51.1979C45.8447 53.7203 46.6996 55.905 47.069 57.5303C47.3856 59.3457 46.9528 61.3826 45.8553 63.2718C44.7682 65.161 43.1535 66.6491 41.317 67.4617C39.5861 68.2322 37.887 68.6227 36.2933 68.6227C32.631 68.6227 29.3382 66.5752 26.784 62.7335L26.4885 62.2058C27.7128 62.8179 30.0452 63.8311 32.0611 63.8311C33.0637 63.8311 34.0136 63.5251 34.9529 62.9024C40.1244 59.4618 38.3619 55.3245 34.8262 48.9288C33.3275 46.2164 31.7866 43.4195 31.1006 40.5277C30.3618 37.4248 29.6863 32.8971 32.3882 29.4776C33.6441 27.8628 35.5755 26.628 38.1085 25.7942C40.7365 24.9182 44.1243 24.4538 48.1771 24.3905H49.4858C53.5386 24.4537 56.9265 24.9182 59.5545 25.7942C62.0875 26.628 64.0083 27.8628 65.2748 29.4776C67.9767 32.8971 67.3012 37.4248 66.5624 40.5277C65.8764 43.4195 64.3353 46.2164 62.8367 48.9288C59.301 55.3245 57.528 59.4618 62.71 62.9024C63.6493 63.5251 64.5886 63.8311 65.6018 63.8311C67.6176 63.8311 69.9396 62.8179 71.1744 62.2058L70.8896 62.723ZM48.8315 16C31.1534 16 16.8315 30.3219 16.8315 48C16.8315 65.6675 31.1534 80 48.8315 80C66.5096 80 80.8315 65.6675 80.8315 48C80.8315 30.3219 66.5096 16 48.8315 16" fill="#D41935"/>
</svg>
