<svg width="96" height="96" viewBox="0 0 96 96" fill="none" xmlns="http://www.w3.org/2000/svg">
<path d="M19.6588 61.9072V57.357H20.6567V61.9071L19.6588 61.9072ZM25.7584 61.9072L23.5556 59.0155V61.9086H22.5706V57.357H23.4908L25.6161 60.1592V57.357H26.601V61.9071L25.7584 61.9072ZM30.1901 58.28V61.9072H29.1922V58.28H27.8118V57.357H31.5705V58.28H30.1901ZM32.7783 61.9072V57.357H36.2005V58.2468H33.7647V59.1525H35.9029V60.0424H33.7647V61.0159H36.2279V61.9057L32.7783 61.9072ZM40.6379 61.9072L39.6601 60.452H38.8765V61.9086H37.8786V57.357H39.9477C41.0175 57.357 41.6588 57.9223 41.6588 58.8583V58.8713C41.6886 59.5074 41.2906 60.085 40.6868 60.2818L41.7954 61.9072H40.6379ZM40.658 58.9102C40.658 58.4776 40.3604 58.2598 39.8744 58.2598H38.8822V59.5665H39.8888C40.3748 59.5665 40.6537 59.3069 40.6537 58.9232L40.658 58.9102ZM46.4931 61.9072L44.296 59.0141V61.9072H43.311V57.357H44.2313L46.3565 60.1592V57.357H47.3414V61.9071L46.4931 61.9072ZM52.3166 61.9072L51.9025 60.8861H49.98L49.5659 61.9072H48.5479L50.4919 57.3238H51.4122L53.3562 61.9072H52.3166ZM50.9391 58.5281L50.3366 60.0034H51.5416L50.9391 58.5281ZM55.9718 58.2815V61.9086H54.9739V58.28H53.5935V57.357H57.3522V58.28L55.9718 58.2815ZM58.6664 61.9086V57.357H59.6643V61.9071L58.6664 61.9086ZM63.633 61.9865C62.2353 61.9894 61.2288 60.9394 61.2288 59.6458V59.6328C61.2288 58.3348 62.2468 57.2791 63.6459 57.2791C65.045 57.2791 66.0501 58.3262 66.0501 59.6198V59.6328C66.0515 60.9265 65.0349 61.9894 63.6344 61.9894L63.633 61.9865ZM65.0062 59.6328C65.0324 58.8694 64.4366 58.2292 63.6755 58.2029C63.6613 58.2024 63.6471 58.2022 63.6329 58.2021C62.8292 58.2021 62.2713 58.8396 62.2713 59.6198V59.6328C62.245 60.3962 62.8408 61.0364 63.6019 61.0626C63.6161 61.0631 63.6303 61.0634 63.6445 61.0635C64.4482 61.0635 65.0062 60.426 65.0062 59.6458V59.6328ZM70.8628 61.9072L68.6656 59.0141V61.9072H67.685V57.357H68.6052L70.7305 60.1592V57.357H71.7154V61.9071L70.8628 61.9072ZM76.6863 61.9072L76.2722 60.8861H74.3583L73.9442 61.9072H72.9262L74.8702 57.3238H75.7905L77.7345 61.9072H76.6863ZM75.3203 58.5281L74.7178 60.0034H75.9228L75.3203 58.5281ZM78.8618 61.9086V57.357H79.8598V60.9971H82.1216V61.9071L78.8618 61.9086Z" fill="black"/>
<path d="M50.9822 42.8254C50.4523 42.5469 49.8662 42.3931 49.2682 42.3754C48.0748 42.3754 47.399 43.2407 47.2221 43.5292V52.8054H43.6029V39.804H46.9187L47.1257 41.1654C47.2695 40.9289 48.1323 39.5242 49.8434 39.5242C50.231 39.5292 50.6154 39.5959 50.9822 39.7218L50.9822 42.8254ZM59.5709 39.7217C59.2041 39.5959 58.8197 39.5293 58.432 39.5242C56.7195 39.5242 55.8625 40.9289 55.7144 41.1654L55.5073 39.8039H52.1915V52.8068H55.8107V43.5292C55.9934 43.2335 56.662 42.3754 57.8569 42.3754C58.4549 42.3931 59.041 42.5469 59.5709 42.8254L59.5709 39.7217ZM41.3856 43.5364V52.8068H38.0641L37.857 51.4512C37.6284 51.6733 36.5629 53.0866 34.3672 53.0866C32.2966 53.0866 30.8673 51.5002 30.8673 49.3643C30.8673 44.7637 36.2767 44.1161 37.7693 43.9647V43.5955C37.7693 42.8427 37.1395 42.061 35.4686 42.061C33.7029 42.061 32.3426 43.0402 32.0982 43.2147V40.5337C33.509 39.8554 35.0559 39.51 36.6204 39.5242C39.9477 39.5213 41.3856 41.0457 41.3856 43.5364ZM37.7664 46.5059C36.6161 46.5059 34.5153 46.9025 34.5153 48.7225C34.5153 49.6455 35.1451 50.309 35.9345 50.309C36.9612 50.309 37.7664 49.5705 37.7664 47.9077L37.7664 46.5059ZM17.9046 35.9489L21.1586 42.9523L19.8817 45.6925L14.4536 34.0106L10.3182 35.9446L13.5693 42.9379C13.3148 43.483 12.9064 44.37 12.245 45.7819C10.7582 48.9706 9.60784 49.8633 7.57033 49.8633C7.00999 49.8532 6.45519 49.7504 5.92824 49.559L4 53.7039C4.97678 54.1119 6.02204 54.3297 7.08001 54.3457C9.49138 54.3457 11.2629 52.7737 12.8029 49.4595L14.7009 45.3781L18.1519 52.8112H23.1846L21.0047 48.124L22.2816 45.3838L25.7326 52.8169H30.7652L22.04 34.0106L17.9046 35.9489ZM90.1638 39.8054V35.5033L86.5446 37.1965V39.8054H85.3856V42.0668H86.546V52.8083H90.1652V42.0653H92V39.8039L90.1638 39.8054ZM60.9254 52.8083H64.5446V39.8039H60.9254V52.8083ZM82.4782 35.5019L78.859 37.195V39.8039H77.6986V42.0653H78.859V52.8069H82.4782V42.0653H84.3144V39.8039H82.4782V35.5019ZM76.8531 45.2353V47.3741C76.8531 50.4734 75.3433 53.0881 71.6349 53.0881C67.9265 53.0881 66.4167 50.4921 66.4167 47.3741V45.2367C66.4167 42.1244 67.9265 39.5227 71.6349 39.5227C75.3433 39.5227 76.8531 42.1374 76.8531 45.2367V45.2353ZM73.2051 44.7204C73.2051 43.1657 72.8284 42.0624 71.6349 42.0624C70.4414 42.0624 70.0647 43.1657 70.0647 44.7204V47.8933C70.0647 49.448 70.4343 50.5512 71.6349 50.5512C72.8356 50.5512 73.2051 49.448 73.2051 47.8933V44.7204Z" fill="black"/>
</svg>
