<svg width="96" height="96" viewBox="0 0 96 96" fill="none" xmlns="http://www.w3.org/2000/svg">
<path d="M84 46.6387C84 33.7059 67.8908 23.1177 48 23.1177C28.1092 23.1177 12 33.7059 12 46.6387C12 46.9412 12 47.9244 12 48.0001C12 61.7648 26.0672 72.8823 48 72.8823C70.0084 72.8823 84 61.7648 84 48.0001C84 47.5463 84 47.3193 84 46.6387Z" fill="#2D3277"/>
<path d="M82.7142 46.6387C82.7142 58.8152 67.2099 68.7227 48.1511 68.7227C29.0922 68.7227 13.588 58.8152 13.588 46.6387C13.588 34.4622 29.0922 24.5547 48.1511 24.5547C67.2099 24.5547 82.7142 34.4622 82.7142 46.6387Z" fill="#FFE600"/>
<path d="M36.6549 39.6805C36.6549 39.6805 36.2766 40.0586 36.5035 40.3611C37.0329 41.0418 38.6969 41.42 40.4364 41.0418C41.4196 40.8149 42.7809 39.7561 43.991 38.7729C45.3523 37.7141 46.7137 36.5796 48.075 36.2015C49.512 35.7477 50.4196 35.9746 51.0246 36.1258C51.7053 36.3527 52.4616 36.8065 53.7473 37.7141C56.0918 39.4536 65.6213 47.7729 67.2851 49.2099C68.5708 48.6049 74.47 46.1091 82.4868 44.294C81.8061 40.0587 79.2347 36.1259 75.3019 32.9494C69.8565 35.2183 63.1254 36.4284 56.5456 33.2519C56.5456 33.2519 52.991 31.588 49.4364 31.6636C44.2179 31.8149 42.0246 34.0082 39.6045 36.4284L36.6549 39.6805Z" fill="white"/>
<path d="M66.9071 50.1174C66.8315 50.0418 55.7139 40.3611 53.2181 38.4703C51.7811 37.4115 50.9491 37.109 50.1172 36.9577C49.6634 36.8821 49.0583 36.9578 48.6045 37.109C47.4701 37.4115 45.8819 38.4703 44.5206 39.5291C43.0836 40.6636 41.7978 41.7225 40.5878 41.9494C38.9995 42.3275 37.1088 41.8737 36.2769 41.2687C35.8987 41.0418 35.6718 40.7393 35.5206 40.4368C35.218 39.6805 35.8231 39.0754 35.8987 38.9998L38.9239 35.672C39.3021 35.2939 39.6046 34.9913 39.9828 34.6132C38.9996 34.7644 38.092 34.9914 37.1844 35.2183C36.0499 35.5208 34.9912 35.8232 33.9323 35.8232C33.4786 35.8232 31.0584 35.4451 30.6046 35.2939C27.8063 34.5376 25.386 33.7813 21.7558 32.1174C17.4449 35.3695 14.4953 39.3779 13.6634 43.8401C14.2684 43.9914 15.3272 44.2939 15.7054 44.3695C25.5373 46.5628 28.5626 48.8317 29.1676 49.2855C29.7726 48.6048 30.6045 48.2266 31.5877 48.2266C32.6466 48.2266 33.6298 48.7561 34.2348 49.588C34.7642 49.1342 35.5962 48.7561 36.5794 48.7561C37.0332 48.7561 37.4869 48.8317 38.0163 48.9829C39.1508 49.3611 39.6802 50.1174 39.9828 50.7981C40.3609 50.6468 40.8146 50.4955 41.3441 50.4955C41.8735 50.4955 42.4029 50.6468 43.008 50.8737C44.8231 51.63 45.1256 53.4452 44.9743 54.8065C45.1256 54.8065 45.2012 54.8065 45.3525 54.8065C47.5458 54.8065 49.2852 56.546 49.2852 58.7393C49.2852 59.4199 49.134 60.025 48.8315 60.5544C49.4365 60.8569 50.8735 61.6132 52.2348 61.4619C53.2937 61.3107 53.6718 61.0081 53.8231 60.7812C53.8987 60.63 54.0499 60.4787 53.8987 60.3275L51.1004 57.2267C51.1004 57.2267 50.6466 56.7728 50.7978 56.6216C50.9491 56.4703 51.2516 56.6972 51.4785 56.8485C52.9155 58.0586 54.5794 59.7981 54.5794 59.7981C54.5794 59.7981 54.7306 60.025 55.3357 60.1763C55.8651 60.2519 56.8483 60.1762 57.529 59.6468C57.6802 59.4955 57.9071 59.3443 57.9827 59.193C58.6634 58.2855 57.9071 57.3779 57.9071 57.3779L54.655 53.7477C54.655 53.7477 54.2013 53.2939 54.3525 53.1426C54.5038 52.9913 54.8062 53.2183 55.0331 53.3695C56.0919 54.2015 57.529 55.7141 58.8903 57.0754C59.1929 57.3023 60.4029 58.0585 61.9912 56.9997C62.9744 56.3191 63.2012 55.5628 63.1256 54.9577C63.05 54.2014 62.4449 53.5964 62.4449 53.5964L58.0583 49.1342C58.0583 49.1342 57.6046 48.7561 57.7559 48.5292C57.9071 48.3779 58.2096 48.6048 58.4365 48.7561C59.8735 49.9662 63.655 53.4451 63.655 53.4451C63.7306 53.4451 65.0163 54.4283 66.6802 53.3695C67.2852 52.9914 67.6634 52.462 67.6634 51.7813C67.7391 50.7981 66.9071 50.1174 66.9071 50.1174Z" fill="white"/>
<path d="M45.5037 55.7898C44.823 55.7898 44.0667 56.168 43.9911 56.168C43.9155 56.168 43.9911 55.8655 44.0667 55.7142C44.1424 55.563 45.0499 52.8403 42.8567 51.8571C41.1928 51.1008 40.134 51.9327 39.8314 52.3109C39.7558 52.3865 39.6802 52.3865 39.6802 52.3109C39.6802 51.8571 39.4533 50.4957 37.9407 50.0419C35.823 49.3613 34.5373 50.8739 34.1592 51.4033C34.0079 50.1932 33.0248 49.2856 31.739 49.2856C30.3777 49.2856 29.3188 50.3444 29.3188 51.7058C29.3188 53.0671 30.3777 54.126 31.739 54.126C32.4197 54.126 32.9491 53.8991 33.4029 53.4453C33.4029 53.4453 33.4029 53.4453 33.4029 53.5209C33.3272 54.126 33.1003 56.3193 35.3692 57.1512C36.2768 57.5294 37.0332 57.2268 37.7139 56.7731C37.9407 56.6218 37.9407 56.6974 37.9407 56.8487C37.8651 57.3781 37.9407 58.5881 39.6802 59.2688C40.9659 59.7982 41.7222 59.2688 42.176 58.815C42.4029 58.5882 42.4785 58.6638 42.4785 58.9664C42.5541 60.5546 43.9155 61.8403 45.5037 61.8403C47.1676 61.8403 48.5289 60.4789 48.5289 58.815C48.5289 57.1512 47.1676 55.7898 45.5037 55.7898Z" fill="white"/>
<path d="M67.3614 48.9832C63.9581 46.0336 56.0925 39.1513 53.8992 37.5631C52.6891 36.6555 51.8572 36.1261 51.1009 35.9749C50.7984 35.8992 50.3446 35.7479 49.7395 35.7479C49.2101 35.7479 48.6051 35.8236 48.0001 36.0505C46.6388 36.5042 45.2774 37.5631 43.916 38.6219L43.8404 38.6975C42.6303 39.6807 41.3447 40.6639 40.3615 40.8908C39.9077 40.9665 39.5295 41.042 39.0757 41.042C38.0169 41.042 37.0337 40.7395 36.6556 40.2857C36.5799 40.2101 36.6555 40.0589 36.8068 39.9076L39.832 36.6555C42.1765 34.311 44.3698 32.1177 49.5127 31.9664C49.5883 31.9664 49.6639 31.9664 49.7395 31.9664C52.916 31.9664 56.0925 33.4034 56.4707 33.5546C59.4959 34.9916 62.5211 35.7479 65.6219 35.7479C68.874 35.7479 72.2018 34.916 75.6808 33.3278C75.3026 33.0253 74.8489 32.6471 74.4707 32.3446C71.3699 33.7059 68.4959 34.3109 65.6219 34.3109C62.7479 34.3109 59.8741 33.6303 57.0757 32.269C56.9245 32.1933 53.4454 30.5294 49.7395 30.5294C49.6639 30.5294 49.5127 30.5294 49.4371 30.5294C45.1262 30.605 42.706 32.1177 41.1178 33.479C39.5295 33.479 38.1682 33.9328 36.9581 34.2353C35.8993 34.5378 34.9161 34.7648 34.0085 34.7648C33.6303 34.7648 32.9497 34.7648 32.874 34.7648C31.8152 34.7648 26.5211 33.4791 22.3614 31.8152C21.9076 32.1177 21.5295 32.4202 21.0757 32.7227C25.4623 34.5378 30.832 35.8992 32.4959 36.0505C32.9497 36.0505 33.4791 36.1261 34.0085 36.1261C35.1429 36.1261 36.2018 35.8236 37.3362 35.5211C38.0169 35.3698 38.6976 35.1429 39.3782 34.9916C39.1513 35.2185 39 35.3698 38.7731 35.5967L35.7479 38.9245C35.521 39.1513 34.9917 39.832 35.2942 40.5883C35.4454 40.8908 35.7479 41.1933 36.1261 41.4958C36.8824 41.9496 38.1681 42.3278 39.3782 42.3278C39.832 42.3278 40.2858 42.2521 40.6639 42.1765C41.9496 41.874 43.311 40.8152 44.6723 39.6808C45.8068 38.7732 47.395 37.6387 48.6051 37.2605C48.9832 37.1849 49.3614 37.1093 49.7395 37.1093C49.8152 37.1093 49.9664 37.1093 50.0421 37.1093C50.874 37.1849 51.6303 37.4875 53.0673 38.5463C55.5631 40.4371 66.6807 50.1177 66.7564 50.1933C66.7564 50.1933 67.437 50.7984 67.437 51.8572C67.437 52.3866 67.0589 52.9161 66.5295 53.2942C66.0757 53.5967 65.5463 53.748 65.0925 53.748C64.3362 53.748 63.8068 53.3698 63.8068 53.3698C63.8068 53.3698 59.9497 49.8908 58.5883 48.6807C58.3614 48.4538 58.1345 48.3025 57.9076 48.3025C57.7564 48.3025 57.6807 48.3782 57.6051 48.4539C57.3782 48.7564 57.6051 49.1345 57.9076 49.3614L62.3699 53.8236C62.3699 53.8236 62.8992 54.353 62.9748 55.0336C62.9748 55.79 62.6724 56.395 61.9161 56.8488C61.3867 57.2269 60.8572 57.3782 60.3278 57.3782C59.6471 57.3782 59.1934 57.0756 59.0421 57L58.3614 56.395C57.227 55.2606 56.0169 54.0505 55.1094 53.3698C54.8825 53.2186 54.6556 52.9917 54.4287 52.9917C54.353 52.9917 54.2018 52.9916 54.1261 53.1429C54.0505 53.2185 53.9749 53.4454 54.2017 53.8236C54.2774 53.9748 54.4287 54.0505 54.4287 54.0505L57.6807 57.6807C57.6807 57.6807 58.3615 58.5126 57.7564 59.1933L57.6051 59.3446C57.5295 59.4203 57.3782 59.5714 57.3026 59.6471C56.7732 60.1009 56.0169 60.1765 55.7144 60.1765C55.5631 60.1765 55.4118 60.1765 55.2606 60.1765C54.9581 60.1009 54.7312 60.0253 54.5799 59.874C54.4286 59.6471 52.7648 58.0589 51.4035 56.9244C51.2522 56.7731 51.0253 56.6219 50.7984 56.6219C50.7228 56.6219 50.5715 56.6976 50.4958 56.7732C50.269 57.0757 50.6471 57.5294 50.7984 57.6807L53.5968 60.7059C53.5968 60.7059 53.5967 60.7816 53.5211 60.9328C53.4454 61.0841 53.0673 61.3866 52.0842 61.5378C51.9329 61.5378 51.8573 61.5378 51.706 61.5378C50.6472 61.5378 49.5883 61.0084 48.9832 60.7059C49.2101 60.1765 49.3614 59.5715 49.3614 58.9665C49.3614 56.6976 47.5463 54.8824 45.2774 54.8824C45.2018 54.8824 45.2017 54.8824 45.1261 54.8824C45.2017 53.8236 45.0505 51.8572 43.0085 51.0253C42.4035 50.7984 41.874 50.6471 41.269 50.6471C40.8152 50.6471 40.4371 50.7227 39.9833 50.874C39.5295 50.0421 38.8488 49.4371 37.9412 49.1345C37.4118 48.9833 36.958 48.9076 36.4286 48.9076C35.5967 48.9076 34.8404 49.1345 34.1597 49.6639C33.479 48.832 32.4959 48.3782 31.437 48.3782C30.5295 48.3782 29.622 48.7563 29.0169 49.3614C28.185 48.6807 24.7816 46.5631 15.6303 44.4454C15.1765 44.3698 14.1934 44.0673 13.5883 43.8404C13.5127 44.2942 13.437 44.8236 13.3614 45.353C13.3614 45.353 15.0253 45.7312 15.4035 45.8068C24.706 47.8488 27.8068 50.0421 28.3362 50.4202C28.185 50.874 28.1093 51.3278 28.1093 51.7816C28.1093 53.748 29.6975 55.2606 31.5883 55.2606C31.8152 55.2606 32.0421 55.2606 32.269 55.185C32.5715 56.6219 33.479 57.6808 34.916 58.2102C35.3698 58.3614 35.7479 58.437 36.1261 58.437C36.353 58.437 36.6556 58.437 36.9581 58.3614C37.185 59.0421 37.79 59.874 39.1513 60.4034C39.6051 60.6303 40.0589 60.7059 40.5127 60.7059C40.8908 60.7059 41.269 60.6303 41.5715 60.4791C42.1766 61.9917 43.6892 63.0504 45.353 63.0504C46.4875 63.0504 47.5463 62.5967 48.3026 61.7648C48.9833 62.1429 50.3446 62.8236 51.7816 62.8236C52.0085 62.8236 52.1597 62.8236 52.311 62.8236C53.748 62.6723 54.353 62.0673 54.6555 61.6892C54.7311 61.6135 54.7312 61.5379 54.8068 61.4622C55.1093 61.5379 55.4875 61.6135 55.9413 61.6135C56.6976 61.6135 57.4539 61.3866 58.2102 60.7815C58.9665 60.2521 59.4959 59.4958 59.4959 58.8152C59.7228 58.8908 60.0253 58.8908 60.2522 58.8908C61.0085 58.8908 61.8404 58.6639 62.5967 58.1345C64.0337 57.2269 64.2606 55.9413 64.2606 55.185C64.4875 55.2606 64.79 55.2606 65.0169 55.2606C65.7732 55.2606 66.5295 55.0337 67.2102 54.5799C68.1178 53.9748 68.6472 53.1429 68.7228 52.1598C68.7984 51.4791 68.5715 50.7983 68.269 50.1933C70.6891 49.1345 76.1345 47.1681 82.6387 45.6555C82.6387 45.1261 82.5631 44.6723 82.4119 44.1429C74.622 45.8067 68.7984 48.3026 67.3614 48.9832ZM45.5043 61.6135C43.9917 61.6135 42.7816 60.4034 42.706 58.8908C42.706 58.7395 42.706 58.437 42.4034 58.437C42.2522 58.437 42.1765 58.5127 42.0253 58.5883C41.7228 58.8908 41.2689 59.1933 40.6639 59.1933C40.3614 59.1933 40.0589 59.1177 39.7564 58.9665C38.1681 58.2858 38.0925 57.227 38.1682 56.7732C38.1682 56.6219 38.1682 56.5463 38.0925 56.4706L38.0168 56.395H37.9412C37.8656 56.395 37.79 56.395 37.6387 56.5463C37.1849 56.8488 36.7312 57 36.2774 57C36.0505 57 35.748 56.9244 35.5211 56.8488C33.4035 56.0169 33.5547 54.0505 33.706 53.4454C33.706 53.2942 33.706 53.2185 33.6303 53.1429L33.479 52.9917L33.3278 53.1429C32.874 53.521 32.3446 53.748 31.8152 53.748C30.6051 53.748 29.6219 52.7648 29.6219 51.5547C29.6219 50.3446 30.6051 49.3614 31.8152 49.3614C32.874 49.3614 33.8572 50.1933 34.0085 51.2521L34.0841 51.8572L34.3866 51.3277C34.3866 51.2521 35.2942 49.8908 36.9581 49.9665C37.2606 49.9665 37.5631 50.0421 37.9412 50.1177C39.2269 50.4958 39.4538 51.706 39.4538 52.1598C39.4538 52.4623 39.6808 52.4622 39.6808 52.4622C39.7564 52.4622 39.9076 52.3866 39.9076 52.311C40.1345 52.0841 40.664 51.6303 41.4959 51.6303C41.8741 51.6303 42.2522 51.7059 42.706 51.9328C44.748 52.8404 43.8404 55.4118 43.8404 55.4874C43.6892 55.9412 43.6135 56.0925 43.8404 56.2437H43.916H43.9917C44.0673 56.2437 44.2185 56.2437 44.3698 56.1681C44.6723 56.0925 45.0505 55.9413 45.4287 55.9413C46.9413 55.9413 48.2269 57.2269 48.2269 58.7396C48.3026 60.4034 47.0169 61.6135 45.5043 61.6135Z" fill="#2D3277"/>
</svg>
