<svg width="96" height="96" viewBox="0 0 96 96" fill="none" xmlns="http://www.w3.org/2000/svg">
<path d="M28.9983 29.0008C28.9983 18.5067 37.5059 10.0009 47.9983 10.0009C58.4941 10.0009 66.9983 18.5067 66.9983 29.0008H28.9983ZM28.9983 66.9991C28.9983 56.5068 37.5059 47.9992 47.9983 47.9992C37.5059 47.9992 28.9983 39.4949 28.9983 29.0008C18.5059 29.0008 10 37.5068 10 47.9992C10 58.4949 18.5059 66.9991 28.9983 66.9991ZM28.9983 66.9991C28.9983 77.4949 37.5059 85.9992 47.9983 85.9992C58.4941 85.9992 66.9983 77.4949 66.9983 66.9991H28.9983ZM47.9983 47.9992C58.4941 47.9992 66.9983 56.5068 66.9983 66.9991C77.4924 66.9991 86 58.4949 86 47.9992C86 37.5068 77.4924 29.0008 66.9983 29.0008C66.9983 39.4949 58.4941 47.9992 47.9983 47.9992Z" fill="#007A73"/>
</svg>
