<svg width="97" height="96" viewBox="0 0 97 96" fill="none" xmlns="http://www.w3.org/2000/svg">
<path d="M40.9223 40.6889L47.6112 47.5333C47.7668 47.6889 47.9223 47.7778 48.0557 47.7778C48.189 47.7778 48.3446 47.6889 48.5001 47.5333L55.189 40.6889C55.3446 40.5333 55.4334 40.3778 55.4334 40.2444C55.4334 40.0222 55.3223 39.9333 55.0779 39.9333H41.0557C40.8112 39.9333 40.7001 40.0444 40.7001 40.2444C40.6779 40.3778 40.7668 40.5333 40.9223 40.6889ZM80.0557 16.3556C80.0557 16.1111 79.9446 16 79.7223 16C79.589 16 79.4557 16.0667 79.3223 16.2L73.8334 21.7556V74.2L79.3223 79.8C79.4557 79.9333 79.589 80 79.7223 80C79.9446 80 80.0557 79.8889 80.0557 79.6444V16.3556ZM16.0557 79.6444C16.0557 79.8889 16.1668 80 16.389 80C16.5223 80 16.6557 79.9333 16.789 79.8L22.2779 74.2V21.7556L16.789 16.2C16.6557 16.0667 16.5001 16 16.389 16C16.1668 16 16.0557 16.1111 16.0557 16.3556V79.6444ZM30.3223 29.9556H65.8112L70.789 24.8889C70.9223 24.7556 70.989 24.6222 70.989 24.4889C70.989 24.2667 70.8779 24.1556 70.6334 24.1556H25.4779C25.2334 24.1556 25.1223 24.2667 25.1223 24.4889C25.1223 24.6222 25.189 24.7556 25.3223 24.8889L30.3223 29.9556ZM25.3223 71.1111C25.189 71.2444 25.1223 71.3778 25.1223 71.5111C25.1223 71.7333 25.2334 71.8222 25.4779 71.8222H70.6112C70.8557 71.8222 70.9668 71.7111 70.9668 71.5111C70.9668 71.3778 70.9001 71.2444 70.7668 71.1111L65.789 66.0444H30.3223L25.3223 71.1111ZM63.1223 63.3333C63.2557 63.4667 63.389 63.5333 63.5223 63.5333C63.7446 63.5333 63.8334 63.4222 63.8334 63.1778V32.8222C63.8334 32.5778 63.7223 32.4667 63.5223 32.4667C63.389 32.4667 63.2557 32.5333 63.1223 32.6667L57.9223 37.9556V58.0667L63.1223 63.3333ZM38.189 58.0444V37.9556L32.989 32.6667C32.8557 32.5333 32.7223 32.4667 32.589 32.4667C32.3668 32.4667 32.2779 32.6 32.2779 32.8222V63.1778C32.2779 63.4222 32.389 63.5333 32.589 63.5333C32.7223 63.5333 32.8557 63.4667 32.989 63.3333L38.189 58.0444Z" fill="black"/>
</svg>
