<svg width="96" height="96" viewBox="0 0 96 96" fill="none" xmlns="http://www.w3.org/2000/svg">
<path d="M63.3698 54.1663L63.368 63.9965H72.2588V46.049C69.6831 48.7309 66.7125 51.4611 63.3698 54.1663Z" fill="#0090DA"/>
<path d="M72.2588 46.0491C82.0495 35.8542 86.1043 26.378 82.9476 21.817C79.6527 17.0539 69.4156 18.9831 56.1458 26.0598C55.5524 26.353 55.0262 26.6641 54.6383 26.9341C53.997 27.3829 54.3708 27.71 54.8438 27.5366C55.3292 27.3596 55.8818 27.1451 56.5054 26.8357C66.452 22.0744 74.2109 21.2198 77.2436 24.5436C81.8653 29.6053 72.4005 46.1939 56.0112 58.4646C53.8234 60.1024 50.4471 62.5 48.2487 63.832C48.0999 63.925 47.9529 64.0162 47.8094 64.1092C47.2284 64.4936 46.7111 64.8512 46.3037 65.173C45.9069 65.4841 45.9831 65.9794 46.6987 65.6683C47.1345 65.4805 47.6642 65.1963 48.2275 64.8476C48.355 64.7689 48.4808 64.6974 48.6136 64.6152C51.0848 63.1008 54.7534 60.544 57.26 58.7775C59.4159 57.2577 61.453 55.7147 63.3697 54.1664C66.7124 51.4612 69.6831 48.7292 72.2588 46.0491Z" fill="#0090DA"/>
<path d="M28.616 76.8H37.5068V67.5009C39.9372 66.0509 42.3977 64.4614 44.8157 62.7968C45.3596 62.4195 45.8414 62.0441 46.1904 61.7222C46.7661 61.1912 46.3498 60.9177 45.9052 61.1537C45.4481 61.3968 44.9078 61.7258 44.3233 62.1013C30.5893 70.9677 21.3176 73.6729 17.8935 68.9813C14.9192 64.9084 19.7942 57.0342 28.616 48.141V68.7829C31.119 67.9247 34.0773 66.5569 37.505 64.633L37.5032 45.4823L39.4589 49.6822C41.6024 54.3201 45.4924 57.0932 50.4383 57.0932C55.3824 57.0932 59.2724 54.3201 61.4159 49.6822L63.3715 45.4823L63.3698 50.3687C66.5513 47.2541 69.2669 44.1449 71.327 41.1376C71.5839 40.7657 71.5609 40.4528 71.4209 40.1095C70.0498 37.2219 67.1323 35.2319 63.7418 35.2319C60.3884 35.2319 57.4762 37.1951 56.0803 40.0344L52.3603 47.9997C51.9759 48.7757 51.2673 49.2066 50.4383 49.2066C49.611 49.2066 48.8989 48.7757 48.5145 47.9997L44.7945 40.0344C44.0859 38.5915 42.9841 37.3757 41.6325 36.5282C44.3534 34.3487 46.9981 32.4016 49.6022 30.8068C50.1938 30.4438 50.6792 30.0809 51.0884 29.7644C51.4905 29.4551 51.4161 28.9598 50.6987 29.2638C50.2629 29.4479 49.6978 29.7286 49.1327 30.0755C46.472 31.7025 43.7529 33.3671 41.1524 35.1604C40.8371 35.3768 40.5253 35.5949 40.2135 35.813C39.257 35.4376 38.2189 35.2319 37.133 35.2319C32.421 35.2319 28.616 39.0743 28.616 43.8302V45.0138C16.0565 56.3173 9.46319 67.5098 12.9086 72.4929C15.4382 76.1474 21.4363 75.3035 28.616 72.1549V76.8Z" fill="#0090DA"/>
<path d="M76.5223 47.5524H76.7871C77.0884 47.5524 77.3431 47.4438 77.3431 47.1627C77.3431 46.9628 77.1976 46.7628 76.7871 46.7628C76.6678 46.7628 76.5863 46.7715 76.5223 46.7802V47.5524ZM76.5223 48.8143H76.1569V46.5354C76.3491 46.5093 76.531 46.4818 76.8061 46.4818C77.1525 46.4818 77.3795 46.5542 77.5163 46.6542C77.6531 46.7541 77.7259 46.9077 77.7259 47.125C77.7259 47.4249 77.5251 47.606 77.2791 47.6799V47.6973C77.4799 47.7335 77.6168 47.916 77.6619 48.2507C77.7172 48.6042 77.771 48.7418 77.8074 48.8143H77.4246C77.3708 48.7418 77.3155 48.5332 77.2704 48.2333C77.2165 47.9421 77.0695 47.8335 76.777 47.8335H76.5223V48.8143ZM76.905 45.9008C76.0027 45.9008 75.2647 46.6716 75.2647 47.6248C75.2647 48.5955 76.0027 49.3575 76.9138 49.3575C77.8263 49.3677 78.5555 48.5955 78.5555 47.6335C78.5555 46.6716 77.8263 45.9008 76.9138 45.9008H76.905V45.9008ZM76.9138 45.5821C78.0359 45.5821 78.9296 46.4905 78.9296 47.6248C78.9296 48.778 78.0359 49.6763 76.905 49.6763C75.7843 49.6763 74.8732 48.778 74.8732 47.6248C74.8732 46.4905 75.7843 45.5821 76.905 45.5821H76.9138" fill="#0090DA"/>
</svg>
