<svg width="96" height="96" viewBox="0 0 96 96" fill="none" xmlns="http://www.w3.org/2000/svg">
<path fill-rule="evenodd" clip-rule="evenodd" d="M53.06 16.0421L53.0352 30.1859L53.0102 44.3297L51.8465 41.0463C51.8461 41.0452 51.8447 41.041 51.8443 41.0399L50.3406 72.5278C51.819 76.7028 52.6111 78.9316 52.62 78.9405C52.6316 78.9521 53.4742 79.0029 54.4923 79.0535C57.577 79.2065 61.3995 79.5345 64.2993 79.8948C64.9707 79.9783 65.5485 80.021 65.5833 79.9898C65.6181 79.9587 65.637 65.5577 65.6254 47.9876L65.6042 16.0421H59.3321H53.06V16.0421Z" fill="#B1060F" stroke="black" stroke-width="0.0820533"/>
<path fill-rule="evenodd" clip-rule="evenodd" d="M30.3711 16V47.9779C30.3711 65.5657 30.3883 79.9731 30.4094 79.9941C30.4304 80.0152 31.5196 79.9124 32.8298 79.7657C34.14 79.6189 35.9507 79.4365 36.8537 79.3602C38.2385 79.2433 42.3731 78.9775 42.8519 78.9745C42.9912 78.9737 43.0001 78.2551 43.0203 65.4301L43.0416 51.8865L44.042 54.717C44.1966 55.1544 44.2451 55.291 44.3957 55.7172L45.899 24.2371C45.5805 23.3366 45.7475 23.8093 45.3824 22.7772C44.1542 19.3044 43.1119 16.3589 43.0662 16.2315L42.983 16H36.6771H30.3711V16Z" fill="#B1060F" stroke="black" stroke-width="0.0820533"/>
<path fill-rule="evenodd" clip-rule="evenodd" d="M30.3711 16V33.9501L43.0161 67.4927C43.0174 66.724 43.0189 66.3087 43.0203 65.4301L43.0416 51.8865L44.042 54.717C49.6107 70.4743 52.6025 78.9229 52.6201 78.9405C52.6317 78.9521 53.4743 79.0029 54.4924 79.0535C57.5771 79.2065 61.3996 79.5345 64.2994 79.8948C64.9708 79.9782 65.5486 80.021 65.5834 79.9898C65.6073 79.9684 65.6229 72.9073 65.6271 62.9459L53.0413 26.7618L53.0353 30.1859L53.0103 44.3297L51.8466 41.0463C50.7096 37.8381 49.9504 35.6926 45.3824 22.7772C44.1542 19.3044 43.1119 16.3589 43.0662 16.2315L42.983 16H36.6771H30.3711H30.3711Z" fill="url(#paint0_radial_314_3861)"/>
<path fill-rule="evenodd" clip-rule="evenodd" d="M30.3716 16L43.0418 51.9028V51.8865L44.0422 54.717C49.6109 70.4743 52.6027 78.9229 52.6203 78.9405C52.632 78.9521 53.4745 79.0029 54.4926 79.0535C57.5773 79.2065 61.3998 79.5345 64.2996 79.8948C64.9676 79.9778 65.5424 80.0204 65.5826 79.9902L53.0105 44.3231V44.3297L51.8468 41.0463C50.7098 37.8381 49.9506 35.6926 45.3827 22.7772C44.1544 19.3044 43.1121 16.3589 43.0664 16.2315L42.9833 16H36.6774H30.3716V16Z" fill="#E50914"/>
<path fill-rule="evenodd" clip-rule="evenodd" d="M53.06 16.0421L53.0352 30.1859L53.0102 44.3297L51.8465 41.0463C51.8461 41.0452 51.8447 41.041 51.8443 41.0399L50.3406 72.5278C51.819 76.7028 52.6111 78.9316 52.62 78.9405C52.6316 78.9521 53.4742 79.0029 54.4923 79.0535C57.577 79.2065 61.3995 79.5345 64.2993 79.8948C64.9707 79.9783 65.5485 80.021 65.5833 79.9898C65.6181 79.9587 65.637 65.5577 65.6254 47.9876L65.6042 16.0421H59.3321H53.06V16.0421Z" fill="#B1060F" stroke="black" stroke-width="0.0820533"/>
<path fill-rule="evenodd" clip-rule="evenodd" d="M30.3711 16V47.9779C30.3711 65.5657 30.3883 79.9731 30.4094 79.9941C30.4304 80.0152 31.5196 79.9124 32.8298 79.7657C34.14 79.6189 35.9507 79.4365 36.8537 79.3602C38.2385 79.2433 42.3731 78.9775 42.8519 78.9745C42.9912 78.9737 43.0001 78.2551 43.0203 65.4301L43.0416 51.8865L44.042 54.717C44.1966 55.1544 44.2451 55.291 44.3957 55.7172L45.899 24.2371C45.5805 23.3366 45.7475 23.8093 45.3824 22.7772C44.1542 19.3044 43.1119 16.3589 43.0662 16.2315L42.983 16H36.6771H30.3711V16Z" fill="#B1060F" stroke="black" stroke-width="0.0820533"/>
<path fill-rule="evenodd" clip-rule="evenodd" d="M30.3711 16V33.9501L43.0161 67.4927C43.0174 66.724 43.0189 66.3087 43.0203 65.4301L43.0416 51.8865L44.042 54.717C49.6107 70.4743 52.6025 78.9229 52.6201 78.9405C52.6317 78.9521 53.4743 79.0029 54.4924 79.0535C57.5771 79.2065 61.3996 79.5345 64.2994 79.8948C64.9708 79.9782 65.5486 80.021 65.5834 79.9898C65.6073 79.9684 65.6229 72.9073 65.6271 62.9459L53.0413 26.7618L53.0353 30.1859L53.0103 44.3297L51.8466 41.0463C50.7096 37.8381 49.9504 35.6926 45.3824 22.7772C44.1542 19.3044 43.1119 16.3589 43.0662 16.2315L42.983 16H36.6771H30.3711H30.3711Z" fill="url(#paint1_radial_314_3861)"/>
<path fill-rule="evenodd" clip-rule="evenodd" d="M30.3716 16L43.0418 51.9028V51.8865L44.0422 54.717C49.6109 70.4743 52.6027 78.9229 52.6203 78.9405C52.632 78.9521 53.4745 79.0029 54.4926 79.0535C57.5773 79.2065 61.3998 79.5345 64.2996 79.8948C64.9676 79.9778 65.5424 80.0204 65.5826 79.9902L53.0105 44.3231V44.3297L51.8468 41.0463C50.7098 37.8381 49.9506 35.6926 45.3827 22.7772C44.1544 19.3044 43.1121 16.3589 43.0664 16.2315L42.9833 16H36.6774H30.3716V16Z" fill="#E50914"/>
<defs>
<radialGradient id="paint0_radial_314_3861" cx="0" cy="0" r="1" gradientUnits="userSpaceOnUse" gradientTransform="translate(47.4137 47.6279) rotate(-19.0982) scale(7.99095 292.702)">
<stop/>
<stop offset="1" stop-opacity="0"/>
</radialGradient>
<radialGradient id="paint1_radial_314_3861" cx="0" cy="0" r="1" gradientUnits="userSpaceOnUse" gradientTransform="translate(47.4137 47.6279) rotate(-19.0982) scale(7.99095 292.702)">
<stop/>
<stop offset="1" stop-opacity="0"/>
</radialGradient>
</defs>
</svg>
