<svg width="96" height="96" viewBox="0 0 96 96" fill="none" xmlns="http://www.w3.org/2000/svg">
<path d="M17.7649 44.5045C17.7649 44.5045 24.6364 34.3662 38.3565 33.3173V29.6391C23.1597 30.8596 10 43.7305 10 43.7305C10 43.7305 17.4535 65.2771 38.3565 67.25V63.3403C23.0168 61.4106 17.7649 44.5045 17.7649 44.5045ZM38.3565 55.565V59.1455C26.7631 57.0786 23.5451 45.0273 23.5451 45.0273C23.5451 45.0273 29.1115 38.8608 38.3565 37.8608V41.7897C38.3494 41.7897 38.3445 41.7876 38.3387 41.7876C33.4865 41.2053 29.696 45.7381 29.696 45.7381C29.696 45.7381 31.8205 53.369 38.3565 55.565ZM38.3565 22.855V29.6391C38.8026 29.6049 39.2487 29.5759 39.6972 29.5607C56.9742 28.9784 68.2314 43.7305 68.2314 43.7305C68.2314 43.7305 55.3022 59.4521 41.8322 59.4521C40.5977 59.4521 39.442 59.3376 38.3565 59.1452V63.3403C39.2847 63.4582 40.2471 63.5275 41.2514 63.5275C53.7861 63.5275 62.8509 57.126 71.6283 49.5494C73.0836 50.7149 79.0415 53.5504 80.2662 54.7916C71.9206 61.7788 52.4704 67.4112 41.4435 67.4112C40.3806 67.4112 39.3598 67.3468 38.3565 67.25V73.145H86V22.855H38.3565ZM38.3565 37.8608V33.3176C38.798 33.2868 39.2429 33.263 39.6972 33.2486C52.1211 32.8584 60.272 43.925 60.272 43.925C60.272 43.925 51.4683 56.1519 42.0288 56.1519C40.6704 56.1519 39.4523 55.9336 38.3561 55.565V41.7897C43.1928 42.3741 44.1662 44.5106 47.074 49.358L53.5413 43.9048C53.5413 43.9048 48.8203 37.7134 40.8621 37.7134C39.9971 37.7131 39.1693 37.7738 38.3565 37.8608Z" fill="#76B900"/>
</svg>
