<svg width="96" height="96" viewBox="0 0 96 96" fill="none" xmlns="http://www.w3.org/2000/svg">
<path d="M68.8051 48.9201C68.8051 68.4473 57.8659 80 41.5081 80C26.2749 80 15.3356 68.345 15.3356 49.5336C15.3356 31.8467 26.4793 18.1471 42.4282 18.1471C58.0703 18.2493 68.8051 30.7221 68.8051 48.9201ZM41.7125 24.6902C32.3068 24.6902 27.3994 32.5624 27.3994 47.4888C27.3994 58.4281 30.7732 73.4569 43.0416 73.4569C52.8563 73.4569 56.9457 64.4601 56.9457 49.9425C56.7413 34.8115 51.1183 24.6902 41.7125 24.6902Z" fill="#009D57"/>
<path d="M80.6644 21.623C80.6644 18.4537 78.2108 16 75.0414 16C71.8721 16 69.4184 18.4537 69.4184 21.623C69.4184 21.8275 69.4184 22.0319 69.4184 22.3386C69.4184 22.5431 69.4185 23.0543 69.8274 23.6677C69.8274 23.8722 70.0319 23.8722 70.0319 24.0767C70.0319 24.0767 70.0319 24.2811 70.2363 24.2811C70.6453 25.2013 71.5654 26.5303 73.099 28.0639L71.0542 29.5974L73.099 33.1757C73.099 33.1757 79.8465 28.8818 80.46 22.4409C80.6644 22.4409 80.6644 22.0319 80.6644 21.623Z" fill="#009D57"/>
<path d="M33.022 50.0445C33.022 50.0445 31.693 51.1691 32.1019 53.4183C32.1019 53.4183 32.8176 56.0765 36.3958 56.0765C37.9294 55.872 38.4406 54.5429 41.3032 54.2362H41.7121V57.0988C41.7121 57.0988 41.5076 58.6324 40.383 59.757C39.4629 61.086 40.5875 62.0062 40.5875 62.0062C40.5875 62.0062 41.9166 63.3353 43.4501 61.5972C44.9837 59.5525 45.2904 57.0988 45.2904 56.1787C45.2904 55.2586 45.2904 54.3385 45.2904 54.3385C45.2904 54.3385 49.9933 57.5078 52.8559 53.0094C53.776 50.9646 52.4469 49.4311 52.4469 49.4311C52.4469 49.4311 54.6961 46.9775 52.038 44.7283C49.7888 43.1947 47.7441 44.7283 47.7441 44.7283C47.7441 44.7283 49.9933 40.741 46.6195 38.9008C44.1658 37.7762 42.6322 39.6164 42.6322 39.6164C42.6322 39.6164 40.1786 37.1628 37.5204 39.6164C37.5204 39.6164 35.0668 42.0701 38.2361 45.035C38.2361 45.035 35.3735 42.5813 32.8176 45.4439C30.7728 48.2043 33.022 50.0445 33.022 50.0445Z" fill="#009D57"/>
</svg>
