<svg width="97" height="96" viewBox="0 0 97 96" fill="none" xmlns="http://www.w3.org/2000/svg">
<path fill-rule="evenodd" clip-rule="evenodd" d="M76.687 62.1817C77.5258 44.6376 62.3962 24.8806 41.7701 22.4385L41.8053 22.1987C62.1394 22.1987 77.7278 41.0233 77.7278 55.8741C77.7082 58.9656 77.4641 60.881 77.0287 62.2716L76.687 62.1817ZM75.4549 64.4117C74.102 66.0647 72.4006 67.7291 70.4071 69.3091C66.7399 48.2174 51.2409 29.7742 40.2832 24.391L40.0485 24.5546C51.0685 33.5988 64.2122 51.1642 69.3235 70.1366C66.7164 72.0518 63.9 73.6646 60.9288 74.944C50.5298 63.0853 40.835 40.2147 37.7108 25.7017L37.3931 25.7974C37.4635 39.885 47.4654 63.8001 59.6627 75.4695C56.8652 76.5765 53.957 77.38 50.9879 77.8662C39.2959 73.2344 30.9735 58.3993 30.9735 43.2023C30.9735 33.2816 33.9983 27.1446 34.5835 25.8886L34.3343 25.7898C33.6264 26.8608 29.1953 32.9947 29.1953 43.7051C29.1953 60.8829 37.6668 74.0128 48.9139 78.1475C44.892 78.5899 40.8255 78.399 36.8626 77.5818L36.7789 77.8436C37.982 78.2866 42.064 80 48.291 80C62.3754 80 71.8965 71.2491 75.7293 64.5973L75.4549 64.4117Z" fill="#28458E"/>
<path fill-rule="evenodd" clip-rule="evenodd" d="M46.8828 16C36.2057 16 23.6862 23.7057 23.6862 30.7495C23.6862 33.4742 26.1787 35.776 31.3372 35.776C43.3124 35.776 54.4381 27.5486 54.4381 21.151C54.4381 17.7845 51.205 16 46.8828 16V16ZM51.1453 20.9522C51.1453 26.3448 40.7898 32.9368 32.1332 32.9368C28.3087 32.9368 26.2422 31.4316 26.2422 28.948C26.2422 23.478 36.7154 16.998 44.8352 16.998C50.129 16.998 51.1453 19.6918 51.1453 20.9522V20.9522Z" fill="#0096D6"/>
<path fill-rule="evenodd" clip-rule="evenodd" d="M19.4324 34.0108C19.1323 34.53 17.9304 36.8833 17.9304 39.2946C17.9304 43.7667 22.449 47.9184 30.7601 47.9184C46.7486 47.9184 65.2208 36.1496 65.2208 25.2253C65.2208 20.3216 60.5788 17.6555 57.3558 17.1042L57.2954 17.2955C58.2978 17.6127 61.9701 19.3198 61.9701 23.6881C61.9701 32.3924 45.6607 44.2524 29.4148 44.2524C23.1953 44.2524 19.277 41.1824 19.277 36.7103C19.277 35.2958 19.5715 34.3638 19.6495 34.0939L19.4324 34.0108Z" fill="#EB7B30"/>
<path fill-rule="evenodd" clip-rule="evenodd" d="M71.8128 26.0422C72.2514 26.3751 74.8848 28.5699 74.8848 32.7204C74.8848 46.8722 52.7114 60.788 33.1085 60.788C21.4184 60.788 16.0893 55.0159 16.3252 49.8907H16.5348C16.9929 52.5524 20.7885 57.3151 31.02 57.3151C50.6475 57.3151 72.5622 42.9161 72.5622 30.3003C72.5622 28.1364 71.9745 26.7879 71.6423 26.1882L71.8128 26.0422Z" fill="#00984A"/>
<path fill-rule="evenodd" clip-rule="evenodd" d="M79.224 39.2538C79.3159 39.5552 79.7935 40.91 79.7935 43.0318C79.7935 58.7743 57.354 72.2515 37.8379 72.2515C27.7932 72.2515 22.5478 67.3723 21.4404 65.3908L21.6191 65.2586C24.3985 67.6894 29.8729 69.5363 36.2616 69.5363C53.4979 69.5363 79.2171 56.4228 78.9874 39.311L79.224 39.2538Z" fill="#DF002C"/>
</svg>
