<svg width="96" height="96" viewBox="0 0 96 96" fill="none" xmlns="http://www.w3.org/2000/svg">
<path d="M42.1393 43.2076C45.754 34.2994 38.9934 31.8795 34.5922 31.8795H20.0123C21.2223 32.7113 21.0257 33.8154 20.7837 34.496L12.2838 61.6442C11.951 62.7181 10.6806 63.8524 10 64.0188H21.797C21.1467 63.8978 20.2241 62.9752 20.5568 61.7199L23.6422 51.9041C23.6573 51.9041 37.844 53.8249 42.1393 43.2076V43.2076ZM30.675 34.375C32.2177 34.375 36.4979 34.5867 33.7301 42.6783C30.8414 51.1782 24.4287 49.4237 24.4287 49.4237L29.1475 34.375H30.675Z" fill="#0F579E"/>
<path d="M51.5769 64.0339H59.5172C56.9763 63.2172 53.2255 60.8124 51.7281 59.1034C52.9381 57.7875 54.4354 56.1239 54.7076 52.7511H50.5938C50.5938 52.7511 51.3803 53.2049 51.3803 54.1728C51.3803 55.0652 51.0173 56.3054 50.3216 57.1674C49.1116 55.3828 47.8261 53.341 47.3723 50.3464C48.9906 49.5448 51.2593 48.6675 53.0591 47.0946C54.7681 45.5973 55.1614 44.1756 55.1916 43.253V43.132C55.1916 42.1641 54.8135 41.2566 54.1178 40.576C52.923 39.3963 51.0475 38.9123 49.0663 39.2753C47.4782 39.5778 46.1321 40.4248 45.4515 41.0449C43.0619 43.2984 42.7594 47.0039 42.7594 48.6827C42.7594 49.091 42.7745 49.3935 42.7896 49.575C42.6535 49.6355 42.4115 49.7263 42.4115 49.7263C40.6571 50.3766 35.9837 51.6168 34.32 55.4584C34.1082 55.9424 33.8058 57.0011 33.8058 58.2262C33.8058 59.2849 34.0326 60.4646 34.7132 61.5384C35.8929 63.3836 37.8893 64.5481 41.0957 64.4876C44.5743 64.4272 48.0075 62.0526 48.6125 61.614C49.2024 62.1736 50.7602 63.6407 51.5769 64.0339V64.0339ZM51.5769 42.5573C51.1685 45.1436 47.8109 47.7601 46.9942 48.1079C46.843 46.656 46.9186 44.3571 48.1285 42.4817C48.9301 41.2415 50.004 40.697 50.8661 40.9995C51.5618 41.2415 51.6374 41.8767 51.5769 42.5573ZM46.9186 59.8596C46.4497 60.147 44.6046 61.0847 42.8804 61.251C41.2772 61.4023 38.6153 60.7822 38.6304 57.5758C38.6304 54.8383 41.6099 52.8268 43.2282 52.131C43.8786 54.7778 45.3457 57.7724 46.9186 59.8596V59.8596Z" fill="#0F579E"/>
<path d="M75.7003 34.4052C80.4191 33.2709 84.3061 36.9613 84.6539 37.2184L86 32.9382C84.1397 32.3786 70.6034 27.7959 61.0296 38.7157C55.1463 45.4309 53.7095 59.1941 61.1658 62.8844C69.1514 66.8319 77.969 62.2795 78.6193 61.9619L82.2643 50.3463C82.6575 48.9398 83.5498 48.0323 85.1228 47.4425H72.4486C74.2937 48.2138 74.1576 49.6052 74.0215 50.18L70.3765 61.7955C69.8925 61.8862 59.6987 64.4271 65.4006 46.5955C66.6559 42.769 70.0892 35.7513 75.7003 34.4052Z" fill="#0F579E"/>
</svg>
