<svg width="96" height="96" viewBox="0 0 96 96" fill="none" xmlns="http://www.w3.org/2000/svg">
<path d="M27.7516 44.5627C27.9874 44.5627 28.1896 44.7533 28.1896 45.0001V53.3548C28.1896 53.5903 27.9762 53.7809 27.7516 53.7809H26.6173C26.404 53.7809 26.1906 53.6127 26.1906 53.3772V52.6034C25.6179 53.4445 24.6296 54.0277 23.1922 54.0277C20.7889 54.0277 19.3066 52.4352 19.3066 50.069V44.9776C19.3066 44.7421 19.5199 44.5515 19.7445 44.5515H20.8788C21.1146 44.5515 21.3055 44.7421 21.3055 44.9776V49.7438C21.3055 51.2801 22.1141 52.3006 23.7088 52.3006C25.2697 52.3006 26.1906 51.2465 26.1906 49.7662V44.9776C26.1906 44.7421 26.404 44.5515 26.6173 44.5515H27.7516V44.5627ZM11.0188 39.9312C7.13319 39.9312 4 42.9478 4 46.9738C4 51.011 7.13319 54.0164 11.0188 54.0164C11.6814 54.0164 12.3215 53.9267 12.9279 53.7585L13.6915 55.721C13.7702 55.9341 13.9274 56.0687 14.2081 56.0687H15.421C15.713 56.0687 15.9263 55.878 15.7916 55.508L14.8033 52.9399C16.7461 51.7175 18.0376 49.5531 18.0376 46.9626C18.0376 42.9478 14.9044 39.9312 11.0188 39.9312ZM14.0734 51.0671L13.1862 48.7681C13.1076 48.5775 12.9504 48.398 12.6135 48.398H11.4568C11.1648 48.398 10.9402 48.5887 11.0749 48.9588L12.2429 51.9754C11.861 52.0764 11.4455 52.1212 11.0188 52.1212C8.17758 52.1212 6.15617 49.8895 6.15617 46.9738C6.15617 44.0581 8.17758 41.8264 11.0188 41.8264C13.86 41.8264 15.8814 44.0581 15.8814 46.9738C15.8814 48.6784 15.1964 50.1363 14.0734 51.0671V51.0671ZM91.9651 53.3099C92.0662 53.5454 91.9426 53.7697 91.6619 53.7697H90.3929C90.157 53.7697 89.9661 53.6576 89.8875 53.4221L87.5404 47.1196L85.1597 53.4221C85.0586 53.6688 84.8901 53.7697 84.6543 53.7697H83.5201C83.2842 53.7697 83.1158 53.6688 83.0147 53.4221L80.6115 47.0859L78.2419 53.4221C78.1409 53.6576 77.9724 53.7697 77.7366 53.7697H76.5462C76.3104 53.7697 76.1419 53.6576 76.0409 53.4221L73.6938 47.0859L71.2681 53.4221C71.167 53.6688 70.9986 53.7697 70.7627 53.7697H69.6285C69.3927 53.7697 69.2242 53.6688 69.1231 53.4221L66.7536 47.0859L64.384 53.4221C64.3054 53.6576 64.1145 53.7697 63.8787 53.7697H62.6434C62.3514 53.7697 62.2391 53.5342 62.3402 53.3099L65.552 44.9216C65.653 44.6748 65.8215 44.5515 66.0573 44.5515H67.4386C67.6745 44.5515 67.8429 44.6636 67.944 44.9216L70.2574 51.0446L72.5483 44.9216C72.6494 44.6748 72.8178 44.5515 73.0537 44.5515H74.4125C74.6483 44.5515 74.8168 44.6636 74.9178 44.9216L77.1863 51.0446L79.4548 44.9216C79.5559 44.6748 79.7243 44.5515 79.9601 44.5515H81.3302C81.566 44.5515 81.7345 44.6636 81.8356 44.9216L84.1377 51.0446L86.3837 44.9216C86.4848 44.6748 86.6533 44.5515 86.8891 44.5515H88.2704C88.5062 44.5515 88.6747 44.6636 88.7757 44.9216L91.9651 53.3099V53.3099ZM38.7458 44.5627H37.6116C37.3757 44.5627 37.1736 44.7533 37.1736 45.0001V45.7626C36.6009 44.8991 35.4779 44.2823 34.1527 44.2823C31.6484 44.2823 29.5035 46.2561 29.5035 49.1382C29.5035 52.0539 31.6596 54.0164 34.1415 54.0164C35.4891 54.0164 36.5784 53.3997 37.1848 52.5361V53.3436C37.1848 53.5791 37.3982 53.7697 37.6228 53.7697H38.757C38.9929 53.7697 39.1838 53.5791 39.1838 53.3436V45.0001C39.1726 44.7533 38.9816 44.5627 38.7458 44.5627V44.5627ZM34.3661 52.1773C32.7153 52.1773 31.5361 50.8316 31.5361 49.1606C31.5361 47.4672 32.704 46.1664 34.3661 46.1664C36.0057 46.1664 37.1961 47.4672 37.1961 49.1606C37.1848 50.8428 35.9944 52.1773 34.3661 52.1773ZM52.278 52.4689C52.5251 52.7717 52.3117 53.0072 52.177 53.1081C51.3909 53.7024 50.3465 54.0277 49.2122 54.0277C46.3486 54.0277 44.4395 51.9306 44.4395 49.1718C44.4395 46.4131 46.3486 44.2936 49.2122 44.2936C50.3465 44.2936 51.3796 44.6188 52.177 45.2131C52.3117 45.3141 52.5026 45.5159 52.278 45.8524L51.739 46.6037C51.5256 46.8953 51.2786 46.8168 51.0652 46.6822C50.5598 46.3794 49.9646 46.1215 49.2796 46.1215C47.6063 46.1215 46.4946 47.4672 46.4946 49.1718C46.4946 50.8764 47.6063 52.2109 49.2796 52.2109C49.9759 52.2109 50.5261 51.9418 51.0315 51.6502C51.2449 51.5381 51.4695 51.4371 51.7053 51.7511L52.278 52.4689V52.4689ZM57.6235 44.3048C54.9283 44.3048 52.7834 46.4131 52.7834 49.1606C52.7834 51.9306 54.9396 54.0164 57.6235 54.0164C60.3188 54.0164 62.4637 51.9194 62.4637 49.1606C62.4749 46.4243 60.3188 44.3048 57.6235 44.3048ZM57.6235 52.1661C55.9727 52.1661 54.7936 50.8428 54.7936 49.1718C54.7936 47.4784 55.9615 46.1776 57.6235 46.1776C59.2744 46.1776 60.4535 47.4784 60.4535 49.1718C60.4535 50.8428 59.2856 52.1661 57.6235 52.1661ZM42.7213 40.1779C42.9683 40.1779 43.148 40.3909 43.148 40.6152V53.3324C43.148 53.5679 42.9795 53.7697 42.7213 53.7697H41.587C41.3512 53.7697 41.149 53.5567 41.149 53.3324V40.6264C41.149 40.3909 41.3624 40.1891 41.587 40.1891H42.7213" fill="#3253DC"/>
</svg>
