<svg width="96" height="96" viewBox="0 0 96 96" fill="none" xmlns="http://www.w3.org/2000/svg">
<path d="M80 48C80 65.6849 65.658 80 48 80C30.3151 80 16 65.658 16 48C16 30.3151 30.3421 16 48 16C65.658 16 80 30.3151 80 48Z" fill="white"/>
<path d="M51.2081 29.8298C50.9385 29.7759 49.5905 29.5602 48 29.5602C46.4094 29.5602 45.0615 29.7759 44.7919 29.8298C44.6301 29.8568 44.5762 29.695 44.684 29.6142C44.7919 29.5333 48 27.08 48 27.08C48 27.08 51.2081 29.5333 51.3159 29.6142C51.4237 29.695 51.3698 29.8568 51.2081 29.8298ZM45.6546 45.6815C45.6546 45.6815 45.4928 45.7355 45.4389 45.8972C46.1129 46.4094 46.5712 47.5956 47.973 47.5956C49.3749 47.5956 49.8332 46.4094 50.5071 45.8972C50.4532 45.7355 50.2915 45.6815 50.2915 45.6815C50.2915 45.6815 49.4018 45.8972 47.973 45.8972C46.5442 45.8972 45.6546 45.6815 45.6546 45.6815ZM47.973 43.7136C47.5956 43.7136 47.4877 43.5788 47.2451 43.5788C47.0025 43.5788 46.4903 43.7944 46.3824 43.9562C46.3824 44.0371 46.4364 44.1179 46.4903 44.1988C47.0564 44.2797 47.326 44.6032 47.973 44.6032C48.62 44.6032 48.8896 44.2797 49.4557 44.1988C49.5366 44.1179 49.5636 44.0371 49.5636 43.9562C49.4557 43.7675 48.9705 43.5788 48.7009 43.5788C48.4583 43.5518 48.3774 43.7136 47.973 43.7136ZM79.946 49.7523C79.8921 50.5072 79.8382 51.289 79.7573 52.0169C76.1449 52.6099 74.8508 49.4019 71.1305 49.5366C71.3462 50.3184 71.5349 51.1272 71.6697 51.936C74.743 51.936 75.9562 54.7936 79.3799 54.3623C79.1912 55.2249 78.9755 56.0876 78.7329 56.9503C76.037 57.2199 75.0935 54.551 71.9663 54.6049C71.9932 55.0632 71.9932 55.4945 71.9932 55.9528C71.9932 56.1954 71.9932 56.465 71.9663 56.7077C74.6352 56.6807 75.4979 59.134 78.032 59.0261C77.7085 59.8888 77.358 60.7245 76.9806 61.5602C75.1474 61.4524 74.5273 59.1339 71.7776 59.3227C71.6967 59.9158 71.5888 60.5088 71.454 61.1019C73.8534 60.9402 74.3656 63.1508 76.0909 63.3126C75.6596 64.1213 75.1744 64.9031 74.6891 65.658C73.6647 65.1188 72.775 63.4743 70.861 63.3665C71.0497 62.7464 71.2384 62.1264 71.3732 61.5063C69.6478 61.5063 67.7068 60.8324 66.0623 59.3496C66.6015 56.3033 61.8837 53.23 61.8837 50.9924C61.8837 48.5931 63.0968 47.2452 63.0968 43.9832C63.0968 41.5569 61.9107 38.9419 60.1583 37.1626C59.8079 36.8121 59.4574 36.5425 59.053 36.273C60.6706 38.2949 61.9376 40.6672 61.9376 43.444C61.9376 46.5173 60.5088 48.1348 60.5088 50.9655C60.5088 53.7961 64.6605 56.2494 64.6605 59.1609C64.6605 60.3201 64.283 61.4254 63.0968 63.6361C64.957 65.4962 67.3833 66.4937 68.9469 66.4937C69.4591 66.4937 69.7287 66.3319 69.9174 65.9545C70.0792 65.604 70.2139 65.2536 70.3487 64.9031C72.0202 64.957 72.802 66.4937 73.7186 67.1137C73.2064 67.7877 72.6672 68.4617 72.1011 69.1087C71.481 68.4077 70.6453 67.2485 69.4052 66.925C69.1895 67.3564 68.9469 67.7607 68.7043 68.1921C69.7556 68.4886 70.4835 69.54 71.0497 70.2409C70.4566 70.861 69.8096 71.4541 69.1626 72.0472C68.7582 71.4271 68.1112 70.6184 67.4102 70.1601C67.1407 70.5105 66.8711 70.861 66.6015 71.2115C67.2215 71.6158 67.7337 72.3707 68.0842 72.9638C67.3294 73.5838 66.5476 74.15 65.7388 74.6891C65.3344 71.4271 60.9132 69.2165 62.0994 65.4423C61.695 66.1163 61.2367 66.952 61.2367 67.9495C61.2367 70.6723 64.1482 72.8559 64.3639 75.5518C63.7708 75.9023 63.1508 76.2527 62.5038 76.5762C62.3959 73.5838 59.3226 70.3218 59.3226 67.8955C59.3226 65.1727 62.9081 62.4229 62.9081 59.1879C62.9081 55.9528 58.7835 53.7152 58.7835 50.8846C58.7835 48.0539 60.5358 46.4364 60.5358 42.797C60.5358 40.1281 59.2687 37.4591 57.3277 35.7338C56.9772 35.4372 56.6537 35.1946 56.2224 34.9789C58.0556 37.1896 59.1339 39.1845 59.1339 42.2308C59.1339 45.6546 57.112 47.5417 57.112 50.8846C57.112 54.2275 61.1558 56.0876 61.1558 59.1879C61.1558 62.2881 57.3816 64.9301 57.3816 68.1382C57.3816 71.0497 60.6975 73.9612 60.7514 77.412C60.0236 77.7355 59.2957 78.032 58.5408 78.2746C58.9722 74.797 55.2249 71.1845 55.2249 68.3269C55.2249 65.2266 59.1339 62.5307 59.1339 59.1879C59.1339 55.845 55.171 54.2814 55.171 50.8307C55.171 47.3799 57.6242 45.4659 57.6242 41.6647C57.6242 38.6992 56.1685 36.0303 54.0118 34.3858C53.9578 34.3589 53.9309 34.305 53.877 34.278C53.6883 34.1163 53.4995 34.305 53.6613 34.4937C55.171 36.3808 55.9797 38.2949 55.9797 41.1255C55.9797 44.6032 53.176 47.4339 53.176 50.8037C53.176 54.7936 56.9503 55.9259 56.9503 59.1879C56.9503 62.4499 52.9064 65.0649 52.9064 68.5425C52.9064 71.7506 56.7346 75.3361 56.0606 79.0295C55.3058 79.2182 54.524 79.4069 53.7422 79.5417C54.4701 74.9318 50.7228 71.5889 50.7228 68.5695C50.7228 65.3075 54.9014 62.369 54.9014 59.1879C54.9014 56.1685 51.909 55.198 51.5046 52.0977C51.4507 51.6664 51.1002 51.3698 50.6419 51.4507C50.0219 51.5586 49.2401 51.9629 48.0269 51.9629C46.7868 51.9629 46.032 51.5586 45.4119 51.4507C44.9536 51.3698 44.6032 51.6933 44.5492 52.0977C44.1449 55.198 41.1524 56.1685 41.1524 59.1879C41.1524 62.396 45.3311 65.3075 45.3311 68.5695C45.3311 71.5889 41.5838 74.9048 42.3117 79.5417C41.5299 79.4069 40.7481 79.2182 39.9932 79.0295C39.3462 75.3092 43.1474 71.7506 43.1474 68.5425C43.1474 65.0649 39.1036 62.4499 39.1036 59.1879C39.1036 55.9259 42.8778 54.7936 42.8778 50.8037C42.8778 47.4339 40.0741 44.6032 40.0741 41.1255C40.0741 38.2949 40.8829 36.3808 42.3926 34.4937C42.5273 34.305 42.3656 34.1432 42.1769 34.278C42.123 34.305 42.096 34.3589 42.0421 34.3858C39.9123 36.0303 38.4296 38.6992 38.4296 41.6647C38.4296 45.4659 40.8829 47.3799 40.8829 50.8307C40.8829 54.2814 36.9199 55.845 36.9199 59.1879C36.9199 62.5307 40.8289 65.2266 40.8289 68.3269C40.8289 71.1845 37.0817 74.77 37.513 78.2746C36.7582 78.0051 36.0303 77.7355 35.3024 77.412C35.3563 73.9612 38.6722 71.0497 38.6722 68.1382C38.6722 64.9301 34.898 62.3151 34.898 59.1879C34.898 56.0607 38.9418 54.2275 38.9418 50.8846C38.9418 47.5417 36.9199 45.6546 36.9199 42.2308C36.9199 39.1845 37.9983 37.1896 39.8315 34.9789C39.4271 35.1946 39.0766 35.4372 38.7262 35.7338C36.7851 37.4591 35.5181 40.155 35.5181 42.797C35.5181 46.4364 37.2704 48.0539 37.2704 50.8846C37.2704 53.7152 33.1457 55.9528 33.1457 59.1879C33.1457 62.4229 36.7312 65.1457 36.7312 67.8955C36.7312 70.3488 33.6579 73.6108 33.5501 76.5762C32.93 76.2527 32.31 75.9292 31.6899 75.5518C31.9326 72.829 34.8441 70.6723 34.8441 67.9495C34.8441 66.952 34.3858 66.1163 33.9814 65.4423C35.1676 69.2165 30.7464 71.4541 30.342 74.6891C29.5332 74.15 28.7514 73.5838 27.9966 72.9638C28.3471 72.3707 28.8862 71.6158 29.4793 71.2115C29.2097 70.861 28.9132 70.5375 28.6706 70.1601C27.9427 70.5914 27.3226 71.4002 26.9182 72.0472C26.2712 71.481 25.6242 70.861 25.0311 70.2409C25.5973 69.54 26.3252 68.4617 27.3765 68.1921C27.1339 67.7877 26.8913 67.3564 26.6756 66.925C25.4355 67.2485 24.5998 68.4077 23.9797 69.1087C23.4136 68.4617 22.8744 67.8147 22.3622 67.1137C23.3058 66.4937 24.0606 64.984 25.759 64.9031C25.8938 65.2536 26.0556 65.604 26.1904 65.9545C26.3791 66.3589 26.6487 66.4937 27.1609 66.4937C28.7245 66.4937 31.1508 65.4692 33.0109 63.6361C31.7978 61.4254 31.4473 60.3201 31.4473 59.1609C31.4473 56.2494 35.599 53.7961 35.599 50.9655C35.599 48.1348 34.1701 46.5173 34.1701 43.444C34.1701 40.6672 35.4102 38.2949 37.0547 36.273C36.6503 36.5156 36.2999 36.8121 35.9494 37.1626C34.1701 38.9419 33.0109 41.5838 33.0109 43.9832C33.0109 47.2452 34.2241 48.5661 34.2241 50.9924C34.2241 53.23 29.5063 56.3033 30.0455 59.3496C28.401 60.8593 26.433 61.5063 24.7076 61.5063C24.8694 62.1264 25.0311 62.7464 25.2198 63.3665C23.2788 63.4743 22.3892 65.1188 21.3917 65.658C20.8795 64.9031 20.4212 64.1213 19.9899 63.3126C21.7152 63.1238 22.2274 60.9132 24.6268 61.1019C24.492 60.5088 24.3841 59.9158 24.3033 59.3227C21.5265 59.1339 20.9065 61.4794 19.1002 61.5602C18.7228 60.7245 18.3723 59.8888 18.0488 59.0261C20.5829 59.134 21.4456 56.6807 24.0876 56.7077C24.0876 56.465 24.0876 56.2224 24.0876 55.9528C24.0876 55.4945 24.1145 55.0632 24.1145 54.6049C20.9873 54.524 20.0438 57.2199 17.3479 56.9503C17.1053 56.1146 16.8896 55.2519 16.7009 54.3623C20.0977 54.7936 21.3378 51.909 24.4111 51.936C24.5459 51.1272 24.7346 50.3184 24.9503 49.5366C21.23 49.3749 19.9359 52.6099 16.3235 52.0169C16.2156 51.262 16.1617 50.5072 16.1078 49.7523C20.3134 50.2106 21.9039 46.7599 25.7321 47.1912C26.0825 46.2746 26.5139 45.385 26.9991 44.5223C22.2005 43.6866 20.556 47.7035 16.0808 47.0834C16.4583 29.8298 30.6116 16 47.973 16C65.3614 16 79.4877 29.8298 79.973 47.1104C75.4979 47.7304 73.8534 43.7136 69.0547 44.5493C69.54 45.412 69.9444 46.3016 70.3218 47.2182C74.1499 46.7599 75.7135 50.2376 79.946 49.7523ZM34.2241 36.3269C31.8786 35.3564 29.021 35.599 26.5678 37.1626C26.1904 34.8981 24.9503 32.8762 23.1979 31.663C22.9553 31.5013 22.7127 31.663 22.7127 31.9326C23.0901 36.7313 20.2864 40.8829 16.8357 44.5493C20.3942 45.6276 23.4136 41.0447 27.9966 42.6352C29.695 40.182 31.7978 38.0253 34.2241 36.3269ZM47.973 33.4423C45.0075 33.4423 42.5004 35.1137 41.8534 37.2974C41.7995 37.4591 41.8803 37.567 42.069 37.4861C42.6082 37.2435 43.2013 37.1356 43.8753 37.1356C45.0884 37.1356 46.1668 37.5939 46.7868 38.3488C47.0564 39.2654 47.0834 40.6133 46.7599 41.3682C46.2746 41.2603 46.0859 40.8829 45.6006 40.8829C45.1154 40.8829 44.738 41.2334 43.9022 41.2334C43.0665 41.2334 42.9856 40.829 42.4465 40.829C41.7995 40.829 41.6916 41.476 41.6916 42.2308C41.6916 45.5468 44.738 50.1028 47.973 50.1028C51.2081 50.1028 54.2544 45.5468 54.2544 42.2308C54.2544 41.476 54.0926 40.8559 53.4456 40.7751C53.1221 41.0177 52.7986 41.2334 52.0438 41.2334C51.2081 41.2334 50.9924 40.8829 50.5071 40.8829C49.914 40.8829 49.968 42.123 49.267 42.2039C48.8087 41.0986 48.7818 39.6428 49.1592 38.3757C49.7792 37.5939 50.8576 37.1626 52.0707 37.1626C52.7177 37.1626 53.3378 37.2704 53.877 37.5131C54.0657 37.5939 54.1466 37.4861 54.0926 37.3243C53.4456 35.1137 50.9385 33.4423 47.973 33.4423ZM52.7177 38.187C51.9899 38.187 51.1811 38.4027 50.6419 38.9958C50.588 39.1575 50.588 39.4002 50.6689 39.535C51.9629 39.1036 53.0952 39.0767 53.6613 39.6967C53.9578 39.4271 54.0387 39.1845 54.0387 38.9149C54.0387 38.4836 53.5804 38.187 52.7177 38.187ZM42.3117 39.6967C42.9317 39.0767 44.2527 39.1036 45.6006 39.5889C45.6546 38.9149 44.4414 38.1601 43.2283 38.1601C42.3386 38.1601 41.9073 38.4566 41.9073 38.888C41.9343 39.1845 42.0151 39.4271 42.3117 39.6967ZM62.8003 28.4819C60.4549 28.6436 58.406 29.4524 56.7615 30.8003C57.4625 28.8054 58.3521 27.08 59.4844 25.4086C56.492 25.7321 54.0118 26.8104 52.1786 28.6976L50.7498 24.9503L53.9039 22.1466L49.6714 21.85L47.973 17.9141L46.2746 21.85L42.0421 22.1466L45.1963 24.9503L43.7674 28.6976C41.9343 26.8374 39.4541 25.7321 36.4616 25.4086C37.5939 27.08 38.4835 28.8324 39.1845 30.8003C37.54 29.4524 35.4911 28.6436 33.1457 28.4819C34.5476 30.2881 35.7877 32.2291 36.7312 34.305C36.8391 34.5476 37.0547 34.6285 37.2974 34.4937C40.5054 32.9031 44.1179 31.9865 47.973 31.9865C51.8011 31.9865 55.4136 32.8762 58.6487 34.4937C58.8913 34.6285 59.107 34.5476 59.2148 34.305C60.1314 32.2291 61.3984 30.2881 62.8003 28.4819ZM67.9225 42.6352C72.5324 41.0447 75.5518 45.6007 79.1103 44.5493C75.6596 40.8829 72.8559 36.7313 73.2333 31.9326C73.2603 31.663 72.9907 31.5013 72.775 31.663C71.0227 32.8762 69.7826 34.8981 69.4052 37.1626C66.9789 35.599 64.1213 35.3833 61.7489 36.3269C64.1752 38.0253 66.251 40.182 67.9225 42.6352Z" fill="#00643C"/>
</svg>
