<svg width="96" height="96" viewBox="0 0 96 96" fill="none" xmlns="http://www.w3.org/2000/svg">
<path fill-rule="evenodd" clip-rule="evenodd" d="M43.5089 23.9124C41.4818 24.2516 36.5901 25.7741 35.4337 26.4263C34.6794 26.8511 34.7473 26.9914 38.8452 33.5007C41.1451 37.1535 43.2222 40.1188 43.4614 40.0909C43.7002 40.0625 44.8339 39.7873 45.9801 39.4789C55.5513 36.9035 65.8456 42.7659 68.9438 52.5557C69.8799 55.514 69.9513 60.2973 69.1022 63.221C67.7993 67.7095 64.3665 72.2694 60.6525 74.4458C54.681 77.9455 48.2363 78.2294 42.0784 75.2644C31.989 70.4059 28.2858 57.8698 34.0923 48.2297C34.7724 47.1006 35.3288 46.0904 35.3288 45.9848C35.3288 45.7956 33.301 43.6118 27.8686 37.9518C24.7204 34.6715 24.8156 34.6732 22.9507 37.8553C14.396 52.4518 19.8728 71.456 34.7473 78.7879C39.6089 81.1842 42.8743 81.9805 47.9174 81.9997C56.4472 82.0326 62.8027 79.3757 68.9113 73.2237C71.8067 70.3077 72.4875 69.381 74.0733 66.1933C76.7106 60.8918 77.1037 55.23 77.1033 52.5557C77.1029 49.8813 77.0432 46.9964 75.949 43.8136C73.353 36.2608 68.6578 30.6847 61.8526 27.0721C56.1356 24.0372 49.5473 22.9025 43.5089 23.9124Z" fill="black"/>
<path fill-rule="evenodd" clip-rule="evenodd" d="M22.8669 18.0291C22.8526 20.7433 22.6319 23.1848 22.2637 24.7063L21.6833 27.1048L27.3716 33.0987C30.4998 36.3952 36.7455 42.987 41.2505 47.7473C45.7554 52.5075 49.51 56.4019 49.5936 56.4019C49.6775 56.4019 49.4617 55.969 49.1145 55.4403C48.7669 54.9116 42.8258 45.4306 35.9119 34.3719C28.9979 23.3132 23.2393 14.1494 23.1152 14.0077C22.9914 13.8665 22.8795 15.6761 22.8669 18.0291Z" fill="#038443"/>
</svg>
