<svg width="96" height="96" viewBox="0 0 96 96" fill="none" xmlns="http://www.w3.org/2000/svg">
<path d="M66.9248 45.531H60.8712V58.0913H73.4258V45.531H66.9248Z" fill="#E20074"/>
<path d="M23.1959 17L22.5743 38.8847L25.8683 39.4657C26.4764 33.0171 28.167 28.2319 30.9401 25.1102C33.8449 21.8452 37.8768 20.1372 43.0415 19.9919V65.7541C43.0415 69.7569 42.4605 72.348 41.2986 73.5506C40.3052 74.5731 38.6262 75.1947 36.2617 75.4271C35.5645 75.4852 34.3697 75.5143 32.6772 75.5143V79H63.2937V75.5143C61.5973 75.5143 60.3889 75.5142 59.7034 75.4271C57.3389 75.1947 55.6367 74.5731 54.6723 73.5506C53.5104 72.348 52.9294 69.7569 52.9294 65.7541V19.9687C58.0941 20.1139 62.1202 21.822 65.0366 25.087C67.8097 28.2086 69.5023 32.9938 70.1142 39.4425L73.4024 38.8615L72.804 17H23.1959Z" fill="#E20074"/>
<path d="M35.1346 58.0913V45.531H28.9242H22.5743V58.0913H35.1346Z" fill="#E20074"/>
</svg>
