<svg width="96" height="96" viewBox="0 0 96 96" fill="none" xmlns="http://www.w3.org/2000/svg">
<path fill-rule="evenodd" clip-rule="evenodd" d="M8.37407 39.248C8.34059 39.2727 8.29256 39.2887 8.2387 39.2887C8.10916 39.2887 8 39.1752 8 39.0442C8 39.0034 8.00727 38.9685 8.02037 38.9379L8.03493 38.9205C14.7739 23.546 30.1381 12.8088 48 12.8088C65.8677 12.8088 81.2319 23.5533 87.9723 38.9423L87.9781 38.9554C87.9927 38.986 88 39.0194 88 39.0573C88 39.1897 87.8908 39.2989 87.754 39.2989C87.7147 39.2989 87.6725 39.2858 87.639 39.2683L87.6114 39.2552C84.5068 37.4315 80.1913 36.3035 75.4056 36.3035C69.8849 36.3035 64.9769 37.8114 61.8592 40.1504L61.8447 40.1606C61.8039 40.1911 61.7501 40.2144 61.6948 40.2144C61.6395 40.2144 61.5856 40.1911 61.5434 40.1635L61.5303 40.1504C58.4112 37.8128 53.5032 36.3035 47.9752 36.3035C42.4545 36.3035 37.5481 37.8114 34.4289 40.1504L34.4158 40.1606C34.3751 40.1911 34.3198 40.2144 34.2645 40.2144C34.2091 40.2144 34.1699 40.194 34.1277 40.1707L34.1 40.1533C30.9896 37.8157 26.0744 36.3035 20.5464 36.3035C15.7869 36.3035 11.4932 37.4199 8.39443 39.2276L8.37407 39.248Z" fill="#E31B23"/>
<path fill-rule="evenodd" clip-rule="evenodd" d="M50.2512 39.5408C50.2512 39.4346 50.1697 39.3472 50.0605 39.337H50.0532C49.3589 39.2512 48.637 39.2075 47.9093 39.2075C47.282 39.2075 46.6765 39.2381 46.0914 39.2963L46.071 39.2992C45.9691 39.3094 45.8934 39.3982 45.8934 39.5073L45.8861 39.5175L45.8934 75.1525C45.8934 77.1814 44.2385 78.832 42.211 78.832C40.6114 78.832 39.2505 77.8044 38.7455 76.3809L38.7396 76.3736C38.4471 75.5091 37.6364 74.8832 36.6699 74.8832C35.4648 74.8832 34.4911 75.8599 34.4911 77.0577C34.4911 77.263 34.5187 77.4624 34.574 77.6501L34.5798 77.6676C35.6365 80.8697 38.6582 83.1912 42.211 83.1912C46.643 83.1912 50.2497 79.5859 50.2497 75.1525L50.2512 39.5408Z" fill="#E31B23"/>
</svg>
