<svg width="96" height="96" viewBox="0 0 96 96" fill="none" xmlns="http://www.w3.org/2000/svg">
<path d="M48 80L57.6003 28.7987C66.1381 28.7987 68.1861 30.5396 68.5765 34.3797C68.5765 34.3797 74.2983 32.2356 77.1911 27.8771C65.9205 22.6354 54.4002 22.3986 54.4002 22.3986L48 30.3988L41.5999 22.3986C41.5999 22.3986 30.0796 22.6354 18.8153 27.8771C21.6954 32.2292 27.4235 34.3797 27.4235 34.3797C27.8139 30.5396 29.9196 28.8051 38.3998 28.7987L48 80Z" fill="#E82127"/>
<path d="M48 19.8913C58.322 19.7737 68.5505 21.8574 78.0039 26.0034C79.4247 23.4242 80.0008 22.4002 80.0008 22.4002C68.3333 17.7664 57.4082 16.0384 48 16C38.5918 16.0384 27.6667 17.7664 15.9992 22.4002C15.9992 22.4002 16.7288 23.6802 18.0025 26.0034C27.4534 21.8559 37.6797 19.77 48 19.8849V19.8913Z" fill="#E82127"/>
</svg>
