<svg width="96" height="96" viewBox="0 0 96 96" fill="none" xmlns="http://www.w3.org/2000/svg">
<path d="M60.1069 35.0397C54.4266 35.0397 49.3504 37.9839 49.3504 43.4235C49.3504 49.6618 58.3532 50.0927 58.3532 53.2266C58.3532 54.5462 56.841 55.7274 54.2582 55.7274C50.5927 55.7274 47.8531 54.0769 47.8531 54.0769L46.6808 59.5661C46.6808 59.5661 49.8368 60.9603 54.0269 60.9603C60.2373 60.9603 65.1241 57.8715 65.1241 52.3388C65.1241 45.747 56.0838 45.3289 56.0838 42.4201C56.0838 41.3864 57.3252 40.2538 59.9006 40.2538C62.8064 40.2538 65.1772 41.4542 65.1772 41.4542L66.3245 36.1525C66.3245 36.1525 63.7448 35.0397 60.1069 35.0397ZM8.13754 35.4398L8 36.24C8 36.24 10.3897 36.6774 12.542 37.5498C15.3133 38.5502 15.5108 39.1326 15.9775 40.9415L21.0635 60.5476H27.8812L38.3845 35.4398H31.5824L24.8334 52.5108L22.0794 38.0406C21.8268 36.3845 20.5475 35.4398 18.9816 35.4398H8.13754ZM41.1197 35.4398L35.7837 60.5476H42.2701L47.5874 35.4398H41.1197ZM77.2967 35.4398C75.7325 35.4398 74.9038 36.2772 74.2957 37.7405L64.7927 60.5476H71.5949L72.9109 56.7465H81.1979L81.9981 60.5476H88L82.764 35.4398H77.2967ZM78.1813 42.2232L80.1976 51.6449H74.7959L78.1813 42.2232Z" fill="#1434CB"/>
</svg>
