<svg width="96" height="96" viewBox="0 0 96 96" fill="none" xmlns="http://www.w3.org/2000/svg">
<path fill-rule="evenodd" clip-rule="evenodd" d="M44.4927 16.7436C44.2106 16.7934 43.1026 16.9822 42.0306 17.1627C40.9586 17.3433 38.9903 17.847 37.6567 18.2824C33.785 19.5458 28.7845 22.3378 28.9407 23.1485C29.0028 23.4721 30.3363 23.5 48.0125 23.5486C67.6916 23.6028 67.5851 23.6069 67.0941 22.8372C66.8237 22.4131 63.8827 20.6501 61.8564 19.697C57.4519 17.6256 53.9459 16.8345 48.6988 16.7278C46.6675 16.6863 44.7748 16.6935 44.4927 16.7436ZM21.1403 31.0875C20.502 31.6247 18.0252 36.2559 18.0252 36.9124C18.0252 37.4313 19.3925 37.5507 25.3343 37.5507C30.0755 37.5507 30.1239 37.5464 30.4243 37.0878C30.9832 36.2349 33.2132 30.9544 33.0952 30.7635C33.029 30.656 30.5583 30.5748 27.3643 30.5748H21.7497L21.1403 31.0875ZM51.68 44.755C50.4421 45.2489 49.8921 45.9286 48.8317 48.2744C48.2509 49.5598 47.7755 50.812 47.7755 51.0569V51.5026H63.7571C78.1411 51.5026 79.7513 51.4702 79.8633 51.178C80.1059 50.5463 80.001 45.0322 79.7417 44.7729C79.4263 44.4575 52.4684 44.4403 51.68 44.755ZM44.0957 58.9402C43.9958 59.1942 43.3603 60.64 42.6837 62.1534C42.0068 63.6666 41.5006 65.0285 41.5587 65.1797C41.6457 65.406 44.5284 65.4545 57.9378 65.4545H74.2116L74.821 64.9417C75.4632 64.4013 77.9361 59.7715 77.9361 59.1094C77.9361 58.8995 77.7901 58.6716 77.6116 58.6031C77.4331 58.5345 69.8599 58.4785 60.7821 58.4785H44.2773L44.0957 58.9402ZM37.74 73.301C37.5315 73.7813 37.1191 74.7167 36.8233 75.3796C35.9894 77.2491 35.9913 77.2524 38.2862 77.9557C41.8574 79.0503 43.5989 79.2943 47.8781 79.2992C52.4034 79.3046 54.4791 78.9954 58.3046 77.7469C62.1763 76.4834 67.1768 73.6914 67.0206 72.8808C66.9587 72.5584 65.9002 72.5291 52.5364 72.4803L38.1189 72.4275L37.74 73.301Z" fill="#00358F"/>
<path fill-rule="evenodd" clip-rule="evenodd" d="M41.9041 30.9674C41.4396 31.1783 40.8308 31.6611 40.5514 32.0401C40.2719 32.4192 37.7945 37.8781 35.0457 44.1712C32.297 50.4641 29.9535 55.5814 29.8378 55.5428C29.7221 55.5042 28.721 53.4041 27.6133 50.8759C26.5058 48.3475 25.3956 46.0572 25.1463 45.7861C24.1774 44.7321 23.3311 44.5362 19.7299 44.5313C17.2928 44.528 16.364 44.5951 16.2431 44.7832C16.0012 45.1599 15.9036 49.8441 16.12 50.682L16.3057 51.4001L18.0998 51.5027L19.8938 51.6053L23.7886 60.4278C28.0938 70.1795 28.2147 70.3788 29.8226 70.3788C30.5368 70.3788 30.8752 70.2542 31.3542 69.8145C31.827 69.381 33.4872 65.7888 38.5269 54.2959C42.8824 44.3639 45.2782 39.1383 45.6606 38.7357C46.8443 37.4903 45.9805 37.5508 62.5443 37.5508C76.3792 37.5508 77.7553 37.5209 77.8716 37.2178C77.949 37.0161 77.4403 35.7874 76.5827 34.1037C75.3964 31.775 75.0501 31.2622 74.4514 30.9489C73.7776 30.5964 72.8413 30.5751 58.2426 30.5794C43.5535 30.5837 42.7047 30.6038 41.9041 30.9674Z" fill="#2A7EE1"/>
</svg>
