<svg width="97" height="96" viewBox="0 0 97 96" fill="none" xmlns="http://www.w3.org/2000/svg">
<g opacity="0.999">
<path opacity="0.999" d="M73.6885 53.649C73.7865 51.7715 73.8355 49.8613 73.8355 48C73.8355 46.1388 73.7865 44.2286 73.6885 42.3511C75.6151 42.449 77.5089 42.5633 79.3538 42.6776C79.4681 44.4572 79.5334 46.2368 79.5334 48C79.5334 49.7633 79.4681 51.5429 79.3538 53.3225C77.5253 53.4368 75.6151 53.5511 73.6885 53.649ZM68.5947 76.7837C69.1824 75.0368 69.7375 73.1919 70.211 71.3143C67.4028 71.9837 64.4804 72.5062 61.4926 72.9143C61.2967 74.8082 61.0845 76.6694 60.8396 78.4653C63.5008 78.0245 66.0967 77.4694 68.5947 76.7837ZM58.6355 86.9715C59.0926 84.6041 59.5008 82.0898 59.86 79.4613C57.9987 79.7388 56.0885 79.9347 54.1783 80.0817C53.9987 82.8572 53.7865 85.5184 53.5579 88C55.2559 87.7715 56.9702 87.4286 58.6355 86.9715ZM22.2763 48C22.2763 46.1388 22.3253 44.2286 22.4232 42.3511C20.4967 42.449 18.6028 42.5633 16.7579 42.6776C16.6436 44.4572 16.5783 46.2368 16.5783 48C16.5783 49.7633 16.6436 51.5429 16.7579 53.3225C18.5865 53.4368 20.4967 53.5511 22.4232 53.649C22.3253 51.7715 22.2763 49.8613 22.2763 48V48ZM54.1457 61.747C54.1947 59.5592 54.2436 57.3225 54.2763 55.0694C52.2028 55.0857 50.113 55.1021 48.0559 55.1021C46.0151 55.1021 43.9253 55.0857 41.8355 55.0694C41.8681 57.3225 41.9008 59.5592 41.9661 61.747C43.9906 61.796 46.0314 61.8123 48.0559 61.8123C50.0804 61.8123 52.1212 61.796 54.1457 61.747V61.747ZM60.7253 23.8368C58.7171 23.5755 56.66 23.396 54.5865 23.2653C54.7498 26.547 54.864 29.9592 54.962 33.4204C57.1498 33.4694 59.3375 33.5674 61.4763 33.6653C61.2967 30.3347 61.0518 27.0204 60.7253 23.8368V23.8368ZM34.6028 23.0857C34.7987 21.1919 35.011 19.3306 35.2559 17.5347C32.611 17.9592 29.9987 18.5306 27.5171 19.2C26.9293 20.947 26.3742 22.7919 25.9008 24.6694C28.6926 24.0327 31.6151 23.4939 34.6028 23.0857ZM54.1457 34.2531C52.1212 34.2041 50.0804 34.1878 48.0559 34.1878C46.0314 34.1878 43.9906 34.2041 41.9661 34.2531C41.9171 36.4408 41.8681 38.6776 41.8355 40.9306C43.8926 40.9143 45.9824 40.898 48.0559 40.898C50.1294 40.898 52.2191 40.9143 54.2763 40.9306C54.2436 38.6776 54.1947 36.4408 54.1457 34.2531V34.2531ZM18.5702 69.1919C16.3171 68.4082 14.1783 67.5429 12.2028 66.5959C13.2477 68.5878 14.4559 70.5143 15.8273 72.3266C17.2314 73.0449 18.7008 73.7143 20.2355 74.3347C19.6314 72.6694 19.06 70.9388 18.5702 69.1919V69.1919ZM80.2845 23.6735C78.8804 22.9551 77.411 22.2857 75.8763 21.6653C76.4967 23.3306 77.0518 25.0449 77.5416 26.8082C79.7947 27.5919 81.9334 28.4572 83.9089 29.4041C82.864 27.4123 81.6396 25.4857 80.2845 23.6735Z" fill="#43BEAC"/>
<path opacity="0.999" d="M79.5169 59.8041C79.7944 57.9265 79.9904 56.0327 80.1373 54.1224C82.9128 53.9429 85.5577 53.7306 88.0557 53.502C87.8271 55.2163 87.4842 56.9143 87.0271 58.5796C84.6761 59.0204 82.1455 59.4449 79.5169 59.8041ZM76.8393 68.5388C77.525 66.0408 78.0802 63.4449 78.5046 60.8C76.7087 61.0286 74.8475 61.2571 72.9536 61.4531C72.5618 64.4408 72.023 67.3633 71.3536 70.1714C73.2475 69.6816 75.0924 69.1265 76.8393 68.5388ZM60.7251 72.1633C61.0353 68.9796 61.2965 65.6816 61.4761 62.3347C59.3373 62.449 57.1495 62.5306 54.9618 62.5796C54.8638 66.0571 54.7495 69.4694 54.5863 72.7347C56.6597 72.6041 58.7169 72.4082 60.7251 72.1633V72.1633ZM33.4761 54.9061C29.9822 54.8082 26.5699 54.6939 23.321 54.5306C23.4516 56.6041 23.6475 58.6612 23.8924 60.6694C27.0761 60.9796 30.374 61.2408 33.721 61.4204C33.623 59.298 33.5414 57.1102 33.4761 54.9061V54.9061ZM41.9332 80.0816C40.023 79.9347 38.1128 79.7388 36.2516 79.4612C36.6108 82.0898 37.0353 84.6041 37.4761 86.9714C39.1414 87.4286 40.8557 87.7714 42.5536 88C42.3251 85.5184 42.1291 82.8571 41.9332 80.0816V80.0816ZM76.8393 27.4612C75.0924 26.8735 73.2475 26.3184 71.3699 25.8449C72.0393 28.6531 72.5618 31.5755 72.9699 34.5633C74.8638 34.7592 76.7251 34.9714 78.521 35.2163C78.0802 32.5551 77.525 29.9592 76.8393 27.4612ZM58.6353 9.02857C56.9699 8.57143 55.2557 8.22857 53.5577 8C53.7863 10.4816 53.9985 13.1429 54.1781 15.9184C56.0883 16.0653 57.9985 16.2612 59.8597 16.5388C59.5006 13.9102 59.0761 11.3959 58.6353 9.02857V9.02857ZM15.974 41.8776C16.121 39.9673 16.3169 38.0571 16.5944 36.1959C13.9659 36.5551 11.4516 36.9796 9.08424 37.4204C8.62709 39.0857 8.28424 40.7837 8.05566 42.498C10.5373 42.2694 13.1985 42.0735 15.974 41.8776V41.8776ZM33.4761 41.0939C33.5251 38.9061 33.623 36.7184 33.721 34.5796C30.374 34.7592 27.0761 35.0204 23.8924 35.3306C23.6312 37.3388 23.4516 39.3959 23.321 41.4694C26.6026 41.3061 30.0148 41.1755 33.4761 41.0939V41.0939ZM53.3781 16.702C51.5985 16.5878 49.8189 16.5224 48.0557 16.5224C46.2924 16.5224 44.5128 16.5878 42.7332 16.702C42.6189 18.5306 42.5046 20.4408 42.4067 22.3673C44.2842 22.2694 46.1781 22.2204 48.0557 22.2204C49.9332 22.2204 51.8271 22.2694 53.7046 22.3673C53.6067 20.4408 53.4924 18.5306 53.3781 16.702ZM26.8638 77.4857C25.1169 76.9959 23.3863 76.4408 21.721 75.8204C22.3414 77.3551 23.0108 78.8245 23.7291 80.2286C25.5414 81.6 27.4679 82.8082 29.4597 83.8531C28.5128 81.8612 27.6475 79.7388 26.8638 77.4857V77.4857ZM72.3822 15.7714C70.5699 14.4 68.6434 13.1918 66.6516 12.1469C67.5985 14.1224 68.4802 16.2612 69.2475 18.5143C70.9944 19.0041 72.725 19.5592 74.3904 20.1796C73.7699 18.6612 73.0842 17.1755 72.3822 15.7714V15.7714Z" fill="#56AEE1"/>
<path opacity="0.999" d="M24.7416 70.1551C22.8477 69.6653 21.0191 69.1265 19.2722 68.5388C18.5865 66.0408 18.0314 63.4449 17.6069 60.8C19.4028 61.0286 21.264 61.2571 23.1579 61.4531C23.5498 64.4245 24.0885 67.3633 24.7416 70.1551V70.1551ZM40.9538 48C40.9538 45.9429 40.9702 43.8531 40.9865 41.7796C38.7498 41.8122 36.513 41.8449 34.3089 41.9102C34.26 43.9347 34.2436 45.9755 34.2436 48C34.2436 50.0245 34.26 52.0653 34.3089 54.0898C36.513 54.1388 38.7498 54.1878 40.9865 54.2204C40.9702 52.1469 40.9538 50.0571 40.9538 48V48ZM53.3783 79.298C53.4926 77.4694 53.6069 75.5592 53.7049 73.6327C51.8273 73.7306 49.9171 73.7796 48.0559 73.7796C46.1947 73.7796 44.3008 73.7306 42.4069 73.6327C42.5049 75.5592 42.6191 77.4531 42.7334 79.298C44.513 79.4122 46.2926 79.4775 48.0559 79.4775C49.8191 79.4775 51.5987 79.4122 53.3783 79.298ZM72.2191 35.3306C69.0355 35.0204 65.7375 34.7592 62.3906 34.5796C62.5049 36.7184 62.5865 38.9061 62.6355 41.0939C66.113 41.1918 69.5253 41.3061 72.7906 41.4694C72.66 39.3959 72.464 37.3388 72.2191 35.3306V35.3306ZM41.9334 15.9184C42.113 13.1429 42.3253 10.4816 42.5538 8C40.8396 8.22857 39.1416 8.57143 37.4763 9.02857C37.0191 11.3796 36.611 13.9102 36.2518 16.5388C38.113 16.2612 40.0232 16.049 41.9334 15.9184ZM80.2845 72.3265C81.6559 70.5143 82.864 68.6041 83.9089 66.5959C81.9334 67.5429 79.7947 68.4245 77.5416 69.1918C77.0518 70.9388 76.4967 72.6694 75.8763 74.3347C77.3947 73.7143 78.8804 73.0449 80.2845 72.3265V72.3265ZM18.5702 26.8082C19.06 25.0612 19.6151 23.3306 20.2355 21.6653C18.7008 22.2857 17.2314 22.9551 15.8273 23.6735C14.4559 25.4857 13.2477 27.3959 12.2028 29.4041C14.1947 28.4571 16.3171 27.5918 18.5702 26.8082Z" fill="#91AEDB"/>
<path opacity="0.999" d="M62.374 61.4367C62.4883 59.2979 62.57 57.1102 62.6189 54.9224C66.1128 54.8245 69.525 54.7102 72.774 54.5469C72.6434 56.6204 72.4475 58.6775 72.2026 60.6857C69.0353 60.9959 65.721 61.2408 62.374 61.4367V61.4367ZM61.8026 54.0898C61.8516 52.0653 61.8679 50.0245 61.8679 48C61.8679 45.9755 61.8516 43.9347 61.8026 41.9102C59.5985 41.8612 57.3618 41.8122 55.125 41.7796C55.1414 43.853 55.1577 45.9265 55.1577 48C55.1577 50.0571 55.1414 52.1469 55.125 54.2204C57.3618 54.1877 59.6148 54.1387 61.8026 54.0898V54.0898ZM15.974 54.1224C13.1985 53.9428 10.5536 53.7306 8.05566 53.502C8.28424 55.2163 8.62709 56.9143 9.08424 58.5796C11.4353 59.0367 13.9659 59.4449 16.5944 59.8041C16.3169 57.9428 16.1046 56.0326 15.974 54.1224ZM34.6026 72.9143C31.6148 72.5224 28.6924 71.9836 25.8842 71.3143C26.3577 73.2081 26.9128 75.0367 27.5006 76.7836C29.9985 77.4694 32.5944 78.0245 35.2393 78.449C35.0271 76.6694 34.7985 74.7918 34.6026 72.9143ZM41.1495 62.5796C38.9618 62.5306 36.774 62.4326 34.6353 62.3347C34.8148 65.6816 35.0761 68.9796 35.3863 72.1632C37.3944 72.4245 39.4516 72.6204 41.5251 72.7347C41.3618 69.453 41.2312 66.0408 41.1495 62.5796V62.5796ZM87.0271 37.4204C84.6597 36.9632 82.1455 36.5551 79.5169 36.1959C79.7944 38.0571 79.9904 39.9673 80.1373 41.8775C82.9128 42.0571 85.5577 42.2694 88.0557 42.4979C87.8271 40.8 87.4842 39.0857 87.0271 37.4204ZM68.5944 19.2163C66.0965 18.5306 63.5006 17.9755 60.8557 17.551C61.1006 19.3469 61.3128 21.2081 61.5087 23.102C64.4965 23.4938 67.4189 24.0326 70.2271 24.702C69.7373 22.8081 69.1822 20.9632 68.5944 19.2163V19.2163ZM23.1414 34.5469C23.5332 31.5592 24.072 28.6367 24.7414 25.8285C22.8638 26.302 21.0189 26.8571 19.272 27.4449C18.5863 29.9428 18.0312 32.5387 17.6067 35.1836C19.4026 34.9714 21.2638 34.7428 23.1414 34.5469ZM41.1495 33.4204C41.2475 29.9428 41.3618 26.5306 41.5251 23.2653C39.4516 23.3959 37.3944 23.5918 35.3863 23.8367C35.0761 27.0204 34.8148 30.3183 34.6353 33.6653C36.7577 33.5673 38.9455 33.4857 41.1495 33.4204V33.4204ZM72.3822 80.2285C73.1006 78.8245 73.7699 77.3551 74.3904 75.8204C72.725 76.4408 71.0108 76.9959 69.2475 77.4857C68.4638 79.7387 67.5985 81.8775 66.6516 83.853C68.6434 82.8081 70.5699 81.5836 72.3822 80.2285V80.2285ZM26.8638 18.5143C27.6475 16.2612 28.5128 14.1224 29.4597 12.1469C27.4679 13.1918 25.5414 14.4 23.7291 15.7714C23.0108 17.1755 22.3414 18.6449 21.721 20.1796C23.3863 19.5755 25.1169 19.0041 26.8638 18.5143V18.5143Z" fill="#8FC73E"/>
</g>
</svg>
