<svg width="96" height="96" viewBox="0 0 96 96" fill="none" xmlns="http://www.w3.org/2000/svg">
<path d="M82.9367 34.5508C82.4304 38.1584 80.7215 50.0571 71.9874 61.7027C63.1266 73.728 51.5443 79.5508 48 81.3229C44.519 79.5508 32.8734 73.728 24.0127 61.7027C15.3418 50.1204 13.6329 38.2216 13.1266 34.5508L18.3798 31.7027V27.7786L23.6329 24.9305V21.0065C30.8481 17.5254 38.8228 15.3103 48 14.0444C57.1772 15.247 65.1519 17.5254 72.3671 21.0065V24.9305L77.6203 27.7786V31.7027L82.9367 34.5508Z" fill="url(#paint0_linear_314_3649)"/>
<path d="M82.3671 28.9178V24.9938L77.1139 22.1457V18.0317L74.4557 16.7659C66.7975 13.1583 58.3798 10.7532 48.6329 9.42413L48 9.36084L47.3671 9.42413C37.6836 10.7532 29.2025 13.1583 21.6076 16.8292L18.9494 18.095V22.2089L13.6962 24.9938V28.9178L8.00002 31.9558L8.44305 35.1836C9.96204 46.0697 13.9494 55.9431 20.2785 64.4874C26.6709 73.1583 35.2785 80.2469 45.9114 85.5634L48 86.6393L50.0886 85.5634C60.7215 80.2469 69.3291 73.1583 75.7215 64.4874C82.0506 55.9431 86.038 46.0697 87.557 35.1836L88 31.9558L82.3671 28.9178ZM82.9367 34.5507C82.4304 38.1583 80.7215 50.057 71.9874 61.7026C63.1266 73.7279 51.5443 79.5507 48 81.3229C44.519 79.5507 32.8734 73.7279 24.0127 61.7026C15.3418 50.1203 13.6329 38.2216 13.1266 34.5507L18.3798 31.7026V27.7786L23.6329 24.9305V21.0064C30.8481 17.5254 38.8228 15.3102 48 14.0444C57.1772 15.2469 65.1519 17.5254 72.3671 21.0064V24.9305L77.6203 27.7786V31.7026L82.9367 34.5507Z" fill="#FFC200"/>
<path d="M40.2152 23.538L40.4684 55.5L40.2152 55.6266C36.8608 47.0823 34.8355 36.4494 34.2026 25.7532C32.557 26.5127 30.7848 27.3987 28.9494 28.538C29.7089 38.2215 31.3545 46.7025 34.3291 54.8038L32.6203 55.7532C28.1266 49.4874 25.2152 41.8924 23.2532 32.8418C21.8608 34.1076 20.5317 35.5 19.1393 37.019C21.7342 47.8418 25.9114 56.0696 31.9241 62.7152L36.5443 59.9304C38.8228 64.6772 41.9874 69.3608 45.5317 73.0949V22.5886C43.7595 22.7785 41.9874 23.095 40.2152 23.538Z" fill="#FFC200"/>
<path d="M70.0886 40.057C71.9873 37.9684 72.3671 36.4494 72.3671 34.614C72.3671 32.0191 70.2152 29.6773 67.0506 27.652C65.1519 26.4494 62.2405 24.9937 58 23.7912C55.5949 23.1583 53 22.7153 50.4051 22.652V73.2216C61.038 67.7786 73.6329 52.7786 73.6962 45.1203C73.8228 42.7786 72.6202 41.2596 70.0886 40.057ZM55.7215 28.6646C58.3165 28.6646 66.7975 31.3229 66.7975 34.7406C66.7975 35.9431 65.7215 37.7153 62.3671 39.4874L55.7215 43.0317V28.6646ZM62.3038 56.7026C60.7848 58.4115 58.3797 61.0697 55.7215 63.095V48.6013C55.7215 48.6013 65.3418 43.2216 65.6582 42.9684C68.5063 43.7279 68.3797 45.8165 68.3797 46.0064C68.3797 48.6646 65.6582 52.7786 62.3038 56.7026Z" fill="#FFC200"/>
<defs>
<linearGradient id="paint0_linear_314_3649" x1="13.1187" y1="47.748" x2="82.912" y2="47.748" gradientUnits="userSpaceOnUse">
<stop stop-color="#4047FF"/>
<stop offset="1" stop-color="#04006C"/>
</linearGradient>
</defs>
</svg>
