<svg width="96" height="96" viewBox="0 0 96 96" fill="none" xmlns="http://www.w3.org/2000/svg">
<path fill-rule="evenodd" clip-rule="evenodd" d="M67.9719 46.5205C67.4067 46.5495 67.1262 46.6581 66.766 46.9873C66.5742 47.1626 66.4256 47.3775 66.3397 47.6035C66.2819 47.7557 65.3994 51.72 63.4784 60.4582C62.9148 63.0219 62.2731 65.9235 62.0526 66.9062C61.2192 70.6192 60.8969 72.269 60.6232 74.2243C60.3712 76.0245 60.2137 77.1181 60.2007 77.1573C60.1891 77.1924 60.1758 77.1908 60.1293 77.1486C60.0275 77.0564 59.9767 76.8745 59.9246 76.415C59.7675 75.0286 59.4231 73.0626 59.0645 71.5052C58.9129 70.8464 52.7622 48.1358 52.6568 47.8454C52.481 47.3613 52.1365 46.9553 51.7355 46.7598C51.2534 46.5249 51.447 46.5368 48.1308 46.5368C45.3539 46.5368 45.1503 46.5405 44.9637 46.5934C44.3341 46.772 43.9152 47.1831 43.6842 47.8489C43.6247 48.0206 41.5996 55.591 40.0245 61.5303C39.6143 63.077 39.0742 65.0907 38.8242 66.005C37.3949 71.2335 36.9115 73.3698 36.5393 76.1021C36.5034 76.3658 36.4608 76.6063 36.4446 76.6365C36.4093 76.7025 36.2929 76.7879 36.2383 76.7879C36.169 76.7879 36.1118 76.5863 36.0916 76.2712C35.9923 74.7166 35.7282 72.7461 35.3864 71.008C35.2726 70.4292 34.3711 66.6609 32.3609 58.3607C30.5274 50.7902 29.817 47.8871 29.7453 47.671C29.551 47.0856 29.2535 46.7769 28.7092 46.5956C28.5506 46.5428 28.3662 46.5379 26.1503 46.5285C23.8338 46.5187 23.7548 46.5203 23.5123 46.5816C23.2285 46.6534 23.0375 46.7549 22.8685 46.9239C22.6237 47.1688 22.5041 47.5843 22.5579 48.003C22.5837 48.2036 31.0201 79.1886 31.1652 79.6157C31.3896 80.276 31.7144 80.589 32.2802 80.6903C32.65 80.7565 39.3746 80.751 39.7251 80.6842C40.2976 80.5752 40.6802 80.2842 40.9346 79.7645C41.057 79.5144 41.1652 79.1422 41.7461 76.9744C43.2174 71.4833 43.6426 69.8835 44.149 67.9317C44.7161 65.746 44.8948 65.0849 45.5051 62.9131C46.4501 59.5503 46.8288 58.0843 47.1949 56.3719C47.5433 54.7425 47.8104 53.0489 47.9154 51.804C47.9363 51.5561 47.963 51.3348 47.9747 51.3122C47.991 51.2808 48.0198 51.2909 48.0945 51.3538C48.1855 51.4303 48.193 51.4512 48.193 51.6285C48.193 51.9824 48.4141 53.6848 48.5991 54.756C48.9069 56.5372 49.1238 57.4131 50.8459 63.8298C51.2472 65.3253 51.9621 67.9961 52.4346 69.7651C54.1588 76.2207 55.0354 79.48 55.0965 79.6623C55.3064 80.2888 55.6676 80.6207 56.2257 80.6999C56.3621 80.7193 57.7589 80.7281 59.9702 80.7235C63.2651 80.7166 63.5095 80.7125 63.6836 80.6602C64.3128 80.4713 64.6972 80.0644 64.9208 79.3506C64.9638 79.2133 65.1342 78.5911 65.2996 77.9678C65.6246 76.7422 65.7571 76.2505 69.3856 62.8044C70.7208 57.8565 72.0421 52.9693 72.3219 51.9438C73.0461 49.2895 73.3263 48.2167 73.3625 47.9585C73.4411 47.3994 73.2181 46.8879 72.8037 46.6765C72.488 46.5154 72.4641 46.5138 70.3491 46.5066C69.2638 46.5029 68.1941 46.5091 67.9719 46.5205Z" fill="#005CB9"/>
<path fill-rule="evenodd" clip-rule="evenodd" d="M47.1032 15.2709C47.0958 15.2774 46.8731 15.2917 46.6082 15.3026C45.4212 15.3515 43.9778 15.5356 42.6462 15.8079C39.2483 16.5028 35.8416 17.9351 32.9085 19.9021C28.484 22.8692 25.1284 27.1038 22.8838 32.5531C22.5773 33.2972 22.5266 33.4778 22.5041 33.9049C22.4638 34.6704 22.7211 35.3373 23.2795 35.9144C23.7398 36.3903 24.2896 36.7151 24.9095 36.8776C25.283 36.9754 25.9265 37.0091 26.3212 36.9514C27.4111 36.792 28.4164 36.0693 28.8947 35.1012C28.9792 34.9303 29.1278 34.5947 29.2251 34.3555C30.1967 31.9651 31.7107 29.685 33.6175 27.7404C35.1881 26.1387 36.8637 24.9183 38.8736 23.9122C41.1166 22.7894 43.3913 22.1545 46.2353 21.8574C46.8933 21.7886 49.1623 21.7791 49.8088 21.8424C52.5738 22.113 54.9232 22.7936 57.3849 24.0369C59.2202 24.9639 60.7822 26.0871 62.2387 27.5272C64.1879 29.4544 65.5799 31.5244 66.8406 34.3708C67.2815 35.3661 67.5168 35.7304 68.0021 36.1686C68.4045 36.5321 68.8912 36.7795 69.4624 36.9109C69.7746 36.9828 70.6124 36.9816 70.9862 36.9088C71.9065 36.7296 72.5746 36.2966 73.0467 35.5734C73.3671 35.0827 73.5008 34.6087 73.5 33.967C73.4991 33.2453 73.3826 32.8708 72.7554 31.574C71.8753 29.7543 71.1891 28.5366 70.2468 27.1223C67.4045 22.8562 63.7118 19.6919 59.2866 17.7303C56.3035 16.408 53.1067 15.6405 49.3117 15.3356C48.7554 15.2909 47.1346 15.2434 47.1032 15.2709Z" fill="#FF8500"/>
</svg>
