<svg width="97" height="96" viewBox="0 0 97 96" fill="none" xmlns="http://www.w3.org/2000/svg">
<path d="M48.0578 36.2387C49.736 36.2387 51.1491 35.3627 51.3331 34.2366L52.9967 15.3933C52.9967 13.5273 50.7996 12 48.0578 12C45.3011 12 43.1186 13.5273 43.1186 15.3933L44.7968 34.2366C44.9736 35.3627 46.3793 36.2387 48.0578 36.2387Z" fill="#FCB61A"/>
<path d="M37.8509 42.1349C38.6824 40.6628 38.6346 39.0287 37.7368 38.3L22.2057 27.4393C20.5901 26.4972 18.172 27.6197 16.7883 29.9972C15.4081 32.371 15.6878 35.0356 17.2703 35.9593L34.4648 43.9309C35.5653 44.3431 37.0042 43.5776 37.8509 42.1202" fill="#FCB61A"/>
<path d="M58.2623 42.1193C59.1417 43.5768 60.5807 44.3423 61.6517 43.9522L78.8462 35.9585C80.4435 35.0163 80.6828 32.3775 79.3321 30.0037C77.9519 27.6262 75.5192 26.5111 73.9073 27.4348L58.3725 38.2844C57.5113 39.0242 57.4489 40.6656 58.2804 42.1341" fill="#FCB61A"/>
<path d="M48.0578 59.7761C49.736 59.7761 51.1491 60.652 51.3331 61.7782L52.9967 80.6215C52.9967 82.4874 50.7996 84 48.0578 84C45.3011 84 43.1186 82.4874 43.1186 80.6215L44.7968 61.7782C44.9736 60.652 46.3793 59.7761 48.0578 59.7761Z" fill="#FCB61A"/>
<path d="M58.2623 53.8964C59.1417 52.4353 60.5807 51.6551 61.6517 52.0783L78.8462 60.0573C80.4435 60.9811 80.6828 63.6419 79.3321 66.0194C77.9519 68.3785 75.5192 69.501 73.9073 68.5773L58.3725 57.7129C57.5113 56.9805 57.4489 55.3465 58.2804 53.8964" fill="#FCB61A"/>
<path d="M37.8509 53.8804C38.6824 55.3489 38.6346 56.9793 37.7368 57.7153L22.2057 68.5613C20.5901 69.5034 18.172 68.3773 16.7883 66.0182C15.4081 63.6444 15.6878 60.9798 17.2703 60.056L34.4648 52.0771C35.5653 51.6575 37.0042 52.4304 37.8509 53.8804Z" fill="#FCB61A"/>
</svg>
