<svg width="97" height="96" viewBox="0 0 97 96" fill="none" xmlns="http://www.w3.org/2000/svg">
<path fill-rule="evenodd" clip-rule="evenodd" d="M80.3748 62.2766C77.9305 65.3318 74.2637 68.3876 69.2217 71.7486C52.8737 82.7504 31.7889 82.7504 23.0796 71.7486C19.5652 67.1647 18.3428 61.6641 19.26 55.8577C20.7877 46.3862 28.1216 36.9125 39.8862 29.1205C43.553 26.6761 46.4559 26.6761 48.1364 27.1347C50.2755 27.7452 51.4984 29.1205 51.957 30.0387C52.7208 31.5648 54.7066 35.3844 47.2197 41.3436C32.0946 52.9558 26.8987 63.499 32.3999 70.9833C38.0533 78.6246 56.5404 78.3173 68.916 70.2195C72.7356 67.6233 76.0971 65.4847 79.3057 61.6636C79.6105 61.207 80.0696 61.207 80.2219 61.3589C80.5282 61.6641 80.681 62.1227 80.3748 62.2766Z" fill="#FF0016"/>
<path fill-rule="evenodd" clip-rule="evenodd" d="M15.7457 33.7051C18.1901 30.6494 21.8568 27.5931 26.7465 24.2315C43.2478 13.2308 64.3326 13.2308 73.0409 24.3844C76.5553 28.816 77.7782 34.3161 76.8615 40.2753C75.3339 49.594 67.9999 59.0676 56.2353 66.8597C52.5686 69.3036 49.6656 69.3036 47.9846 68.8465C45.8465 68.3884 44.6236 66.8597 44.165 66.0964C43.2488 64.4154 41.415 60.5958 48.9023 54.7894C64.0274 43.0244 69.2223 32.4832 63.7222 25.1492C58.0687 17.3567 39.5816 17.8152 27.2061 25.9131C23.3854 28.3574 20.0239 30.6499 16.8158 34.3156C16.3572 34.7742 16.052 34.7742 15.7457 34.6223C15.5934 34.3156 15.4405 34.0104 15.7457 33.7051Z" fill="#FF0016"/>
</svg>
