<svg width="96" height="96" viewBox="0 0 96 96" fill="none" xmlns="http://www.w3.org/2000/svg">
<path d="M84.8522 48.3947C86.0602 56.0277 79.6544 60.3333 73.2487 60.7904C69.9817 66.842 63.2557 71.7601 53.5373 71.7601C49.5602 71.9041 45.6143 71.0092 42.0893 69.1639C41.2288 69.3208 40.356 69.4003 39.4813 69.4016C36.0862 69.4016 33.771 68.6154 31.5107 65.937C36.0862 59.7848 50.0141 48.7238 66.9802 54.4371C76.0489 57.4812 78.4099 50.3235 76.1313 47.6451C67.5842 37.5256 48.2571 46.6304 47.5708 47.3983C55.1204 35.2951 82.2625 31.9128 84.8522 48.3947ZM58.8449 34.4998C58.8998 34.4998 52.6862 32.2053 43.9927 36.1178C43.6424 35.9718 43.3003 35.807 42.9678 35.6242C51.3227 29.8559 58.6527 27.3969 64.9304 28.3111C60.8856 24.7551 56.4565 24.2249 49.9958 24.2249C42.8305 24.2249 36.4797 27.0313 32.4532 31.3734C31.2063 31.0987 29.9325 30.9638 28.6555 30.9712C18.9463 30.9712 10.5181 40.1217 11.0214 50.5155C11.5248 60.9092 22.442 67.3905 28.6555 65.6445C28.8068 65.617 28.9618 65.617 29.1131 65.6445C30.4858 58.7701 36.0954 42.7819 58.8449 34.4998Z" fill="#2668E6"/>
</svg>
