<svg width="96" height="96" viewBox="0 0 96 96" fill="none" xmlns="http://www.w3.org/2000/svg">
<path d="M76.3036 36.5483H71.3099V41.5551H76.3036C77.4889 41.5551 78.4424 42.524 78.4424 43.7066C78.4424 44.8975 77.4889 45.8544 76.3036 45.8544H71.3099V50.8655H76.3036C80.2443 50.8655 83.4363 47.6586 83.4363 43.7066C83.4363 39.7536 80.2443 36.5483 76.3036 36.5483ZM47.8449 63.042C53.8225 63.042 58.9743 59.5284 61.3809 54.4433H67.7464V63.042H71.3099V54.4433H76.3036C82.2163 54.4433 87.0063 49.6356 87.0063 43.7066C87.0063 37.7761 82.2163 32.9667 76.3036 32.9667H67.7464V45.8544H62.6679C61.6322 38.571 55.3902 32.9667 47.8449 32.9667H30.2837L12.8152 63.042H16.9824L21.9751 54.4433H39.9267V63.042H47.8449ZM92 43.7066C92 52.4043 84.9715 59.4544 76.3036 59.4544V68.0445H62.7546V61.3434C59.0892 65.4563 53.7726 68.0445 47.8449 68.0445H34.933V59.4544H24.8414L19.8487 68.0445H4L27.2961 27.9556H47.8449C53.7726 27.9556 59.0892 30.5509 62.7546 34.6642V27.9556H76.3036C84.9715 27.9556 92 35.0112 92 43.7066ZM34.933 36.5483V45.8544H26.9678L24.0586 50.8655H39.9267V36.5483H34.933ZM59.2605 48C59.2605 54.3269 54.1475 59.4544 47.8449 59.4544H43.4924V54.4433H47.8449C51.3933 54.4433 54.2687 51.5626 54.2687 48C54.2687 44.445 51.3933 41.5551 47.8449 41.5551H43.4924V36.5483H47.8449C54.1475 36.5483 59.2605 41.6758 59.2605 48Z" fill="#D02A2A"/>
<path d="M76.3036 36.5483H71.3099V41.5551H76.3036C77.4889 41.5551 78.4424 42.524 78.4424 43.7066C78.4424 44.8975 77.4889 45.8544 76.3036 45.8544H71.3099V50.8655H76.3036C80.2443 50.8655 83.4363 47.6586 83.4363 43.7066C83.4363 39.7536 80.2443 36.5483 76.3036 36.5483ZM47.8449 63.042C53.8225 63.042 58.9743 59.5284 61.3809 54.4433H67.7464V63.042H71.3099V54.4433H76.3036C82.2163 54.4433 87.0063 49.6356 87.0063 43.7066C87.0063 37.7761 82.2163 32.9667 76.3036 32.9667H67.7464V45.8544H62.6679C61.6322 38.571 55.3902 32.9667 47.8449 32.9667H30.2837L12.8152 63.042H16.9824L21.9751 54.4433H39.9267V63.042H47.8449ZM92 43.7066C92 52.4043 84.9715 59.4544 76.3036 59.4544V68.0445H62.7546V61.3434C59.0892 65.4563 53.7726 68.0445 47.8449 68.0445H34.933V59.4544H24.8414L19.8487 68.0445H4L27.2961 27.9556H47.8449C53.7726 27.9556 59.0892 30.5509 62.7546 34.6642V27.9556H76.3036C84.9715 27.9556 92 35.0112 92 43.7066ZM34.933 36.5483V45.8544H26.9678L24.0586 50.8655H39.9267V36.5483H34.933ZM59.2605 48C59.2605 54.3269 54.1475 59.4544 47.8449 59.4544H43.4924V54.4433H47.8449C51.3933 54.4433 54.2687 51.5626 54.2687 48C54.2687 44.445 51.3933 41.5551 47.8449 41.5551H43.4924V36.5483H47.8449C54.1475 36.5483 59.2605 41.6758 59.2605 48Z" fill="#D02A2A"/>
<path d="M76.3036 36.5483H71.3099V41.5551H76.3036C77.4889 41.5551 78.4424 42.524 78.4424 43.7066C78.4424 44.8975 77.4889 45.8544 76.3036 45.8544H71.3099V50.8655H76.3036C80.2443 50.8655 83.4363 47.6586 83.4363 43.7066C83.4363 39.7536 80.2443 36.5483 76.3036 36.5483ZM47.8449 63.042C53.8225 63.042 58.9743 59.5284 61.3809 54.4433H67.7464V63.042H71.3099V54.4433H76.3036C82.2163 54.4433 87.0063 49.6356 87.0063 43.7066C87.0063 37.7761 82.2163 32.9667 76.3036 32.9667H67.7464V45.8544H62.6679C61.6322 38.571 55.3902 32.9667 47.8449 32.9667H30.2837L12.8152 63.042H16.9824L21.9751 54.4433H39.9267V63.042H47.8449ZM92 43.7066C92 52.4043 84.9715 59.4544 76.3036 59.4544V68.0445H62.7546V61.3434C59.0892 65.4563 53.7726 68.0445 47.8449 68.0445H34.933V59.4544H24.8414L19.8487 68.0445H4L27.2961 27.9556H47.8449C53.7726 27.9556 59.0892 30.5509 62.7546 34.6642V27.9556H76.3036C84.9715 27.9556 92 35.0112 92 43.7066ZM34.933 36.5483V45.8544H26.9678L24.0586 50.8655H39.9267V36.5483H34.933ZM59.2605 48C59.2605 54.3269 54.1475 59.4544 47.8449 59.4544H43.4924V54.4433H47.8449C51.3933 54.4433 54.2687 51.5626 54.2687 48C54.2687 44.445 51.3933 41.5551 47.8449 41.5551H43.4924V36.5483H47.8449C54.1475 36.5483 59.2605 41.6758 59.2605 48Z" fill="#D02A2A"/>
<path d="M80.7927 65.3078V64.5733H81.3289C81.6856 64.5733 81.7821 64.684 81.7821 64.8988C81.7821 65.1186 81.6856 65.2958 81.2654 65.3078H80.7927ZM81.1689 65.756C81.3229 65.7696 81.4712 65.756 81.5831 65.8735C81.711 66.0099 81.711 66.2382 81.7432 66.4853C81.7635 66.654 81.8084 66.8363 81.8406 66.9982H82.4098C82.3124 66.7392 82.2803 66.4393 82.2413 66.1666C82.1956 65.8547 82.1514 65.6793 81.7567 65.6009V65.5872C82.1388 65.5089 82.3387 65.2499 82.3387 64.9175C82.3387 64.2683 81.7948 64.1251 81.272 64.1251H80.3469V66.9982H80.7927V65.756H81.1689ZM81.3103 68.0445C82.6564 68.0445 83.7348 66.9539 83.7348 65.594C83.7348 64.2478 82.6564 63.1556 81.3103 63.1556C79.959 63.1556 78.8729 64.2478 78.8729 65.594C78.8729 66.9539 79.959 68.0445 81.3103 68.0445ZM81.3103 67.6168C80.1987 67.6168 79.3009 66.7119 79.3009 65.594C79.3009 64.4898 80.1987 63.585 81.3103 63.585C82.4167 63.585 83.3095 64.4898 83.3095 65.594C83.3095 66.7119 82.4167 67.6168 81.3103 67.6168Z" fill="#D02A2A"/>
</svg>
