<svg width="96" height="96" viewBox="0 0 96 96" fill="none" xmlns="http://www.w3.org/2000/svg">
<path d="M71.4219 68.6845C45.0063 81.2561 28.6126 70.7378 18.1184 64.3492C17.469 63.9466 16.3653 64.4434 17.3229 65.5433C20.8191 69.7824 32.2766 80 47.2321 80C62.1978 80 71.1011 71.834 72.2148 70.4095C73.3211 68.997 72.5397 68.2179 71.4216 68.6845H71.4219ZM78.8406 64.5874C78.1313 63.6637 74.5272 63.4915 72.259 63.7701C69.9873 64.0407 66.5776 65.4291 66.874 66.2627C67.0261 66.575 67.3366 66.4349 68.8972 66.2946C70.462 66.1385 74.8457 65.5852 75.7592 66.7793C76.6769 67.9817 74.361 73.7093 73.9381 74.6331C73.5294 75.5568 74.0942 75.795 74.8618 75.1798C75.6189 74.5648 76.9894 72.9721 77.9091 70.7182C78.8226 68.4521 79.3798 65.2908 78.8406 64.5874Z" fill="#FF9900"/>
<path fill-rule="evenodd" clip-rule="evenodd" d="M53.6603 43.0323C53.6603 46.3309 53.7437 49.0817 52.0764 52.0111C50.7307 54.393 48.5991 55.8576 46.2175 55.8576C42.9664 55.8576 41.0729 53.3806 41.0729 49.7249C41.0729 42.5082 47.5391 41.1984 53.6603 41.1984V43.0323ZM62.1986 63.6697C61.6388 64.1697 60.8291 64.2056 60.198 63.872C57.3877 61.5381 56.8874 60.4545 55.3394 58.2275C50.6951 62.9671 47.4083 64.3841 41.3827 64.3841C34.2614 64.3841 28.712 59.9899 28.712 51.1895C28.712 44.3185 32.4395 39.6383 37.7385 37.3521C42.3353 35.3274 48.754 34.9702 53.6603 34.4107V33.315C53.6603 31.3024 53.815 28.9207 52.6362 27.1822C51.6 25.6222 49.6233 24.9791 47.8845 24.9791C44.6574 24.9791 41.7755 26.6342 41.0729 30.0639C40.9299 30.8262 40.3704 31.5765 39.6083 31.6121L31.3913 30.7311C30.7008 30.5759 29.9387 30.0164 30.1292 28.9564C32.0226 19.0011 41.0132 16 49.0633 16C53.1837 16 58.5662 17.0957 61.8173 20.2158C65.9377 24.0621 65.5446 29.1946 65.5446 34.7797V47.9743C65.5446 51.9398 67.188 53.6783 68.736 55.822C69.2838 56.5841 69.403 57.5013 68.7122 58.0726C66.9855 59.5134 63.913 62.193 62.2222 63.6936L62.1984 63.6697" fill="black"/>
<path d="M71.4219 68.6845C45.0063 81.2561 28.6126 70.7378 18.1184 64.3492C17.469 63.9466 16.3653 64.4434 17.3229 65.5433C20.8191 69.7824 32.2766 80 47.2321 80C62.1978 80 71.1011 71.834 72.2148 70.4095C73.3211 68.997 72.5397 68.2179 71.4216 68.6845H71.4219ZM78.8406 64.5874C78.1313 63.6637 74.5272 63.4915 72.259 63.7701C69.9873 64.0407 66.5776 65.4291 66.874 66.2627C67.0261 66.575 67.3366 66.4349 68.8972 66.2946C70.462 66.1385 74.8457 65.5852 75.7592 66.7793C76.6769 67.9817 74.361 73.7093 73.9381 74.6331C73.5294 75.5568 74.0942 75.795 74.8618 75.1798C75.6189 74.5648 76.9894 72.9721 77.9091 70.7182C78.8226 68.4521 79.3798 65.2908 78.8406 64.5874Z" fill="#FF9900"/>
<path fill-rule="evenodd" clip-rule="evenodd" d="M53.6603 43.0323C53.6603 46.3309 53.7437 49.0817 52.0764 52.0111C50.7307 54.393 48.5991 55.8576 46.2175 55.8576C42.9664 55.8576 41.0729 53.3806 41.0729 49.7249C41.0729 42.5082 47.5391 41.1984 53.6603 41.1984V43.0323ZM62.1986 63.6697C61.6388 64.1697 60.8291 64.2056 60.198 63.872C57.3877 61.5381 56.8874 60.4545 55.3394 58.2275C50.6951 62.9671 47.4083 64.3841 41.3827 64.3841C34.2614 64.3841 28.712 59.9899 28.712 51.1895C28.712 44.3185 32.4395 39.6383 37.7385 37.3521C42.3353 35.3274 48.754 34.9702 53.6603 34.4107V33.315C53.6603 31.3024 53.815 28.9207 52.6362 27.1822C51.6 25.6222 49.6233 24.9791 47.8845 24.9791C44.6574 24.9791 41.7755 26.6342 41.0729 30.0639C40.9299 30.8262 40.3704 31.5765 39.6083 31.6121L31.3913 30.7311C30.7008 30.5759 29.9387 30.0164 30.1292 28.9564C32.0226 19.0011 41.0132 16 49.0633 16C53.1837 16 58.5662 17.0957 61.8173 20.2158C65.9377 24.0621 65.5446 29.1946 65.5446 34.7797V47.9743C65.5446 51.9398 67.188 53.6783 68.736 55.822C69.2838 56.5841 69.403 57.5013 68.7122 58.0726C66.9855 59.5134 63.913 62.193 62.2222 63.6936L62.1984 63.6697" fill="black"/>
</svg>
