<svg width="96" height="96" viewBox="0 0 96 96" fill="none" xmlns="http://www.w3.org/2000/svg">
<path d="M42.9545 42.9547C37.1238 37.8548 28.0252 39.9283 27.9359 44.5974C26.6129 35.9344 37.0889 34.1258 42.954 36.8534C43.0584 38.2443 43.1632 39.7419 42.9545 42.9547Z" fill="#0F238C"/>
<path fill-rule="evenodd" clip-rule="evenodd" d="M11.04 36.384H19.0187L26.0588 59.8507H19.0187L18.08 55.6267H11.9787L11.04 59.8507H4L11.04 36.384ZM17.1414 51.1679L15.0294 41.5466L12.9174 51.168L17.1414 51.1679Z" fill="#0F238C"/>
<path d="M62.9015 59.8507L65.9522 45.0667L67.1136 59.8507H73.6961L70.6455 36.384H63.6055L60.32 50.4639L57.0349 36.384H49.9948L46.944 59.8507H53.5148L54.6882 45.0667L57.7389 59.8507H62.9015Z" fill="#0F238C"/>
<path d="M83.3173 36.384H76.9814V59.8507H92V54.9227H83.3173V36.384Z" fill="#0F238C"/>
<path d="M37.5029 45.4894C37.715 45.5666 37.9218 45.6418 38.1169 45.7179C38.3085 45.7927 38.5123 45.8691 38.725 45.9489C41.1799 46.869 44.832 48.2379 44.8319 52.8106C44.8319 55.8643 41.8859 58.7261 38.4766 59.7747C34.2581 61.0721 30.05 59.7894 27.4665 58.6773V53.0452C29.6496 54.5987 31.564 55.4305 33.945 55.4805C35.3783 55.5108 37.5572 54.7939 37.5572 52.8106C37.5572 51.3407 36.3797 50.7502 35.4766 50.2972C35.3365 50.227 35.203 50.16 35.0816 50.0936C29.8907 47.256 31.4559 41.5468 36.1492 41.0775C34.787 41.5297 34.5063 42.2704 34.5076 42.9527C34.5102 44.4011 36.1179 44.9858 37.5029 45.4894Z" fill="#0F238C"/>
</svg>
