<svg width="96" height="96" viewBox="0 0 96 96" fill="none" xmlns="http://www.w3.org/2000/svg">
<path fill-rule="evenodd" clip-rule="evenodd" d="M47.7312 16.5423C45.3407 17.6097 41.9591 20.5411 37.7448 25.1985C36.4229 26.6595 35.2947 27.8957 35.2378 27.9454C34.8914 28.2477 28.3721 36.1399 27.1691 37.7132C24.0316 41.816 22.1398 44.9686 21.6877 46.8478C21.4314 47.9134 21.6805 48.7004 22.5283 49.5037C22.8101 49.7707 25.5232 51.2453 28.5575 52.7806C37.934 57.5251 43.6418 60.4704 45.6876 61.6203L46.6286 62.1492L47.3608 61.6646C47.7634 61.3981 48.093 61.1567 48.093 61.1281C48.093 61.0648 42.1705 57.7913 42.0558 57.7913C41.943 57.7913 31.736 52.1023 29.6958 50.9023C26.5002 49.0226 25.8474 48.3947 26.0887 47.4332C26.1954 47.0081 26.9869 46.1938 31.9598 41.3936L34.3672 39.0698L34.1639 38.4993C33.7238 37.2633 34.7523 35.4415 36.1217 35.0312C36.5112 34.9145 37.2103 34.819 37.6754 34.819H38.5212L42.086 31.2254C45.7737 27.5083 46.9603 26.4984 47.6399 26.4984C48.0813 26.4984 48.5309 26.9276 48.7115 27.5215C48.8312 27.9152 49.1892 30.5753 49.5471 33.7337C49.6542 34.6789 49.7801 35.7777 49.8266 36.1757L49.9114 36.8992L51.8511 37.4167C52.9179 37.7014 54.4017 38.1289 55.148 38.3664C55.8945 38.604 56.5716 38.7985 56.6526 38.7985C56.9905 38.7985 56.4146 28.71 55.8491 24.7214C55.1808 20.0064 53.7786 17.0929 51.7749 16.2558C50.7493 15.8273 49.0651 15.9467 47.7312 16.5423ZM36.0112 36.0169C35.1793 36.4385 35.0111 36.856 35.111 38.2508C35.1815 39.2357 35.3611 39.7778 36.1053 41.2511C37.6301 44.2701 39.9762 47.8499 42.3812 50.8273C46.4842 55.9069 49.1194 57.9722 51.4978 57.9722C53.2231 57.9722 54.4686 56.7554 55.2387 54.318C55.6726 52.9442 56.5569 47.5639 56.3782 47.3851C56.2375 47.2445 50.9267 44.9485 50.7421 44.9485C50.6417 44.9485 50.6211 45.7318 50.6909 46.8931C51.0275 52.495 51.0264 53.5103 50.6824 54.1736C50.0272 55.4369 48.4962 54.9456 46.5152 52.8365C44.2299 50.4033 40.6109 45.3832 39.1989 42.6875C38.1896 40.7607 37.5596 38.9843 37.8467 38.8741C38.0713 38.7878 39.8058 39.4077 41.9656 40.3461C42.5252 40.5892 43.0391 40.7882 43.1077 40.7882C43.1762 40.7882 43.6773 40.9917 44.221 41.2404C44.7647 41.4891 45.2682 41.6953 45.34 41.6988C45.4116 41.7022 45.7958 41.8621 46.1937 42.0544C46.5917 42.2467 46.9715 42.4066 47.0377 42.41C47.1846 42.4174 51.6356 44.2854 54.2431 45.4339C58.1596 47.1589 62.4796 49.3254 63.2321 49.942C64.0998 50.6531 64.2548 51.3281 63.6943 51.9555C62.5829 53.1992 59.7468 55.1298 53.5195 58.8815C44.9965 64.0163 40.6516 67.2175 37.8329 70.4391C36.0237 72.5071 35.2481 74.1232 35.2562 75.8083C35.2613 76.8612 35.3389 77.1682 35.7536 77.779C36.4048 78.7377 38.1314 79.6007 39.9532 79.8783C42.6985 80.2965 48.8204 79.6108 54.7857 78.2167C62.0005 76.5309 65.0131 75.4404 66.2558 74.0649C67.4406 72.7535 66.9795 71.7074 64.5535 70.2025C62.5223 68.9425 58.089 66.4737 57.8575 66.4737C57.6442 66.4737 56.4178 67.2449 56.4189 67.3782C56.4195 67.4279 57.3601 68.069 58.5094 68.803C60.9613 70.3685 62.7446 71.6809 62.7446 71.9194C62.7446 72.2783 61.8147 72.4344 58.5843 72.6177C56.7438 72.722 53.2909 72.9286 50.911 73.0767C48.5313 73.2247 46.5535 73.3151 46.5159 73.2777C46.2328 72.9944 52.0093 69.022 60.7549 63.4857C63.7601 61.5834 69.0866 57.9494 70.2978 56.9753C71.9478 55.6482 73.1938 54.2239 73.9249 52.8282C74.3263 52.0622 74.4051 51.6763 74.4082 50.4655C74.4111 49.2539 74.3407 48.9007 73.9763 48.2949C72.5825 45.9789 70.2115 44.4564 65.0057 42.5348C59.0606 40.3403 52.6457 38.4465 45.9224 36.9007C41.4444 35.8711 37.0687 35.4809 36.0112 36.0169Z" fill="#EFAB00"/>
</svg>
