<svg width="96" height="96" viewBox="0 0 96 96" fill="none" xmlns="http://www.w3.org/2000/svg">
<path d="M27.3538 42.0756C28.2701 42.0756 29.0129 41.3328 29.0129 40.4166C29.0129 39.5003 28.2701 38.7575 27.3538 38.7575C26.4376 38.7575 25.6948 39.5003 25.6948 40.4166C25.6948 41.3328 26.4376 42.0756 27.3538 42.0756Z" fill="#002E6D"/>
<path d="M27.3538 34.4841C28.2701 34.4841 29.0129 33.7414 29.0129 32.8251C29.0129 31.9088 28.2701 31.166 27.3538 31.166C26.4376 31.166 25.6948 31.9088 25.6948 32.8251C25.6948 33.7414 26.4376 34.4841 27.3538 34.4841Z" fill="#002E6D"/>
<path d="M33.2527 42.0756C34.169 42.0756 34.9118 41.3328 34.9118 40.4166C34.9118 39.5003 34.169 38.7575 33.2527 38.7575C32.3365 38.7575 31.5937 39.5003 31.5937 40.4166C31.5937 41.3328 32.3365 42.0756 33.2527 42.0756Z" fill="#002E6D"/>
<path d="M33.2527 34.4841C34.169 34.4841 34.9118 33.7414 34.9118 32.8251C34.9118 31.9088 34.169 31.166 33.2527 31.166C32.3365 31.166 31.5937 31.9088 31.5937 32.8251C31.5937 33.7414 32.3365 34.4841 33.2527 34.4841Z" fill="#002E6D"/>
<path d="M39.1516 42.0756C40.0679 42.0756 40.8107 41.3328 40.8107 40.4166C40.8107 39.5003 40.0679 38.7575 39.1516 38.7575C38.2354 38.7575 37.4926 39.5003 37.4926 40.4166C37.4926 41.3328 38.2354 42.0756 39.1516 42.0756Z" fill="#002E6D"/>
<path d="M39.1516 34.4841C40.0679 34.4841 40.8107 33.7414 40.8107 32.8251C40.8107 31.9088 40.0679 31.166 39.1516 31.166C38.2354 31.166 37.4926 31.9088 37.4926 32.8251C37.4926 33.7414 38.2354 34.4841 39.1516 34.4841Z" fill="#002E6D"/>
<path d="M45.0505 42.0756C45.9668 42.0756 46.7096 41.3328 46.7096 40.4166C46.7096 39.5003 45.9668 38.7575 45.0505 38.7575C44.1343 38.7575 43.3915 39.5003 43.3915 40.4166C43.3915 41.3328 44.1343 42.0756 45.0505 42.0756Z" fill="#002E6D"/>
<path d="M50.9494 42.0756C51.8657 42.0756 52.6085 41.3328 52.6085 40.4166C52.6085 39.5003 51.8657 38.7575 50.9494 38.7575C50.0332 38.7575 49.2904 39.5003 49.2904 40.4166C49.2904 41.3328 50.0332 42.0756 50.9494 42.0756Z" fill="#002E6D"/>
<path d="M50.9494 34.4841C51.8657 34.4841 52.6085 33.7414 52.6085 32.8251C52.6085 31.9088 51.8657 31.166 50.9494 31.166C50.0332 31.166 49.2904 31.9088 49.2904 32.8251C49.2904 33.7414 50.0332 34.4841 50.9494 34.4841Z" fill="#002E6D"/>
<path d="M56.8483 42.0756C57.7646 42.0756 58.5074 41.3328 58.5074 40.4166C58.5074 39.5003 57.7646 38.7575 56.8483 38.7575C55.9321 38.7575 55.1893 39.5003 55.1893 40.4166C55.1893 41.3328 55.9321 42.0756 56.8483 42.0756Z" fill="#002E6D"/>
<path d="M56.8483 34.4841C57.7646 34.4841 58.5074 33.7414 58.5074 32.8251C58.5074 31.9088 57.7646 31.166 56.8483 31.166C55.9321 31.166 55.1893 31.9088 55.1893 32.8251C55.1893 33.7414 55.9321 34.4841 56.8483 34.4841Z" fill="#002E6D"/>
<path d="M62.7472 42.0756C63.6635 42.0756 64.4063 41.3328 64.4063 40.4166C64.4063 39.5003 63.6635 38.7575 62.7472 38.7575C61.831 38.7575 61.0882 39.5003 61.0882 40.4166C61.0882 41.3328 61.831 42.0756 62.7472 42.0756Z" fill="#002E6D"/>
<path d="M62.7472 34.4841C63.6635 34.4841 64.4063 33.7414 64.4063 32.8251C64.4063 31.9088 63.6635 31.166 62.7472 31.166C61.831 31.166 61.0882 31.9088 61.0882 32.8251C61.0882 33.7414 61.831 34.4841 62.7472 34.4841Z" fill="#002E6D"/>
<path d="M68.6461 42.0756C69.5624 42.0756 70.3052 41.3328 70.3052 40.4166C70.3052 39.5003 69.5624 38.7575 68.6461 38.7575C67.7299 38.7575 66.9871 39.5003 66.9871 40.4166C66.9871 41.3328 67.7299 42.0756 68.6461 42.0756Z" fill="#002E6D"/>
<path d="M68.6461 34.4841C69.5624 34.4841 70.3052 33.7414 70.3052 32.8251C70.3052 31.9088 69.5624 31.166 68.6461 31.166C67.7299 31.166 66.9871 31.9088 66.9871 32.8251C66.9871 33.7414 67.7299 34.4841 68.6461 34.4841Z" fill="#002E6D"/>
<path d="M45.0505 34.4841C45.9668 34.4841 46.7096 33.7414 46.7096 32.8251C46.7096 31.9088 45.9668 31.166 45.0505 31.166C44.1343 31.166 43.3915 31.9088 43.3915 32.8251C43.3915 33.7414 44.1343 34.4841 45.0505 34.4841Z" fill="#002E6D"/>
<path d="M27.3538 26.9096C28.2701 26.9096 29.0129 26.1668 29.0129 25.2506C29.0129 24.3343 28.2701 23.5915 27.3538 23.5915C26.4376 23.5915 25.6948 24.3343 25.6948 25.2506C25.6948 26.1668 26.4376 26.9096 27.3538 26.9096Z" fill="black"/>
<path d="M33.2527 26.9096C34.169 26.9096 34.9118 26.1668 34.9118 25.2506C34.9118 24.3343 34.169 23.5915 33.2527 23.5915C32.3365 23.5915 31.5937 24.3343 31.5937 25.2506C31.5937 26.1668 32.3365 26.9096 33.2527 26.9096Z" fill="black"/>
<path d="M39.1516 26.9096C40.0679 26.9096 40.8107 26.1668 40.8107 25.2506C40.8107 24.3343 40.0679 23.5915 39.1516 23.5915C38.2354 23.5915 37.4926 24.3343 37.4926 25.2506C37.4926 26.1668 38.2354 26.9096 39.1516 26.9096Z" fill="black"/>
<path d="M50.9494 26.9096C51.8657 26.9096 52.6085 26.1668 52.6085 25.2506C52.6085 24.3343 51.8657 23.5915 50.9494 23.5915C50.0332 23.5915 49.2904 24.3343 49.2904 25.2506C49.2904 26.1668 50.0332 26.9096 50.9494 26.9096Z" fill="black"/>
<path d="M56.8483 26.9096C57.7646 26.9096 58.5074 26.1668 58.5074 25.2506C58.5074 24.3343 57.7646 23.5915 56.8483 23.5915C55.9321 23.5915 55.1893 24.3343 55.1893 25.2506C55.1893 26.1668 55.9321 26.9096 56.8483 26.9096Z" fill="black"/>
<path d="M62.7472 26.9096C63.6635 26.9096 64.4063 26.1668 64.4063 25.2506C64.4063 24.3343 63.6635 23.5915 62.7472 23.5915C61.831 23.5915 61.0882 24.3343 61.0882 25.2506C61.0882 26.1668 61.831 26.9096 62.7472 26.9096Z" fill="black"/>
<path d="M68.6461 26.9096C69.5624 26.9096 70.3052 26.1668 70.3052 25.2506C70.3052 24.3343 69.5624 23.5915 68.6461 23.5915C67.7299 23.5915 66.9871 24.3343 66.9871 25.2506C66.9871 26.1668 67.7299 26.9096 68.6461 26.9096Z" fill="black"/>
<path d="M45.0505 26.9096C45.9668 26.9096 46.7096 26.1668 46.7096 25.2506C46.7096 24.3343 45.9668 23.5915 45.0505 23.5915C44.1343 23.5915 43.3915 24.3343 43.3915 25.2506C43.3915 26.1668 44.1343 26.9096 45.0505 26.9096Z" fill="black"/>
<path d="M27.3538 19.3181C28.2701 19.3181 29.0129 18.5753 29.0129 17.6591C29.0129 16.7428 28.2701 16 27.3538 16C26.4376 16 25.6948 16.7428 25.6948 17.6591C25.6948 18.5753 26.4376 19.3181 27.3538 19.3181Z" fill="black"/>
<path d="M33.2527 19.3181C34.169 19.3181 34.9118 18.5753 34.9118 17.6591C34.9118 16.7428 34.169 16 33.2527 16C32.3365 16 31.5937 16.7428 31.5937 17.6591C31.5937 18.5753 32.3365 19.3181 33.2527 19.3181Z" fill="black"/>
<path d="M39.1516 19.3181C40.0679 19.3181 40.8107 18.5753 40.8107 17.6591C40.8107 16.7428 40.0679 16 39.1516 16C38.2354 16 37.4926 16.7428 37.4926 17.6591C37.4926 18.5753 38.2354 19.3181 39.1516 19.3181Z" fill="black"/>
<path d="M50.9494 19.3181C51.8657 19.3181 52.6085 18.5753 52.6085 17.6591C52.6085 16.7428 51.8657 16 50.9494 16C50.0332 16 49.2904 16.7428 49.2904 17.6591C49.2904 18.5753 50.0332 19.3181 50.9494 19.3181Z" fill="black"/>
<path d="M56.8483 19.3181C57.7646 19.3181 58.5074 18.5753 58.5074 17.6591C58.5074 16.7428 57.7646 16 56.8483 16C55.9321 16 55.1893 16.7428 55.1893 17.6591C55.1893 18.5753 55.9321 19.3181 56.8483 19.3181Z" fill="black"/>
<path d="M62.7472 19.3181C63.6635 19.3181 64.4063 18.5753 64.4063 17.6591C64.4063 16.7428 63.6635 16 62.7472 16C61.831 16 61.0882 16.7428 61.0882 17.6591C61.0882 18.5753 61.831 19.3181 62.7472 19.3181Z" fill="black"/>
<path d="M45.0505 19.3181C45.9668 19.3181 46.7096 18.5753 46.7096 17.6591C46.7096 16.7428 45.9668 16 45.0505 16C44.1343 16 43.3915 16.7428 43.3915 17.6591C43.3915 18.5753 44.1343 19.3181 45.0505 19.3181Z" fill="black"/>
<path d="M27.3538 49.6506C28.2701 49.6506 29.0129 48.9078 29.0129 47.9915C29.0129 47.0752 28.2701 46.3324 27.3538 46.3324C26.4376 46.3324 25.6948 47.0752 25.6948 47.9915C25.6948 48.9078 26.4376 49.6506 27.3538 49.6506Z" fill="#076AB1"/>
<path d="M27.3538 57.242C28.2701 57.242 29.0129 56.4993 29.0129 55.583C29.0129 54.6667 28.2701 53.9239 27.3538 53.9239C26.4376 53.9239 25.6948 54.6667 25.6948 55.583C25.6948 56.4993 26.4376 57.242 27.3538 57.242Z" fill="#076AB1"/>
<path d="M33.2527 49.6506C34.169 49.6506 34.9118 48.9078 34.9118 47.9915C34.9118 47.0752 34.169 46.3324 33.2527 46.3324C32.3365 46.3324 31.5937 47.0752 31.5937 47.9915C31.5937 48.9078 32.3365 49.6506 33.2527 49.6506Z" fill="#076AB1"/>
<path d="M33.2527 57.242C34.169 57.242 34.9118 56.4993 34.9118 55.583C34.9118 54.6667 34.169 53.9239 33.2527 53.9239C32.3365 53.9239 31.5937 54.6667 31.5937 55.583C31.5937 56.4993 32.3365 57.242 33.2527 57.242Z" fill="#076AB1"/>
<path d="M39.1516 49.6506C40.0679 49.6506 40.8107 48.9078 40.8107 47.9915C40.8107 47.0752 40.0679 46.3324 39.1516 46.3324C38.2354 46.3324 37.4926 47.0752 37.4926 47.9915C37.4926 48.9078 38.2354 49.6506 39.1516 49.6506Z" fill="#076AB1"/>
<path d="M39.1516 57.242C40.0679 57.242 40.8107 56.4993 40.8107 55.583C40.8107 54.6667 40.0679 53.9239 39.1516 53.9239C38.2354 53.9239 37.4926 54.6667 37.4926 55.583C37.4926 56.4993 38.2354 57.242 39.1516 57.242Z" fill="#076AB1"/>
<path d="M45.0505 49.6506C45.9668 49.6506 46.7096 48.9078 46.7096 47.9915C46.7096 47.0752 45.9668 46.3324 45.0505 46.3324C44.1343 46.3324 43.3915 47.0752 43.3915 47.9915C43.3915 48.9078 44.1343 49.6506 45.0505 49.6506Z" fill="#076AB1"/>
<path d="M45.0505 57.242C45.9668 57.242 46.7096 56.4993 46.7096 55.583C46.7096 54.6667 45.9668 53.9239 45.0505 53.9239C44.1343 53.9239 43.3915 54.6667 43.3915 55.583C43.3915 56.4993 44.1343 57.242 45.0505 57.242Z" fill="#076AB1"/>
<path d="M50.9494 57.242C51.8657 57.242 52.6085 56.4993 52.6085 55.583C52.6085 54.6667 51.8657 53.9239 50.9494 53.9239C50.0332 53.9239 49.2904 54.6667 49.2904 55.583C49.2904 56.4993 50.0332 57.242 50.9494 57.242Z" fill="#076AB1"/>
<path d="M56.8483 57.242C57.7646 57.242 58.5074 56.4993 58.5074 55.583C58.5074 54.6667 57.7646 53.9239 56.8483 53.9239C55.9321 53.9239 55.1893 54.6667 55.1893 55.583C55.1893 56.4993 55.9321 57.242 56.8483 57.242Z" fill="#076AB1"/>
<path d="M62.7472 57.242C63.6635 57.242 64.4063 56.4993 64.4063 55.583C64.4063 54.6667 63.6635 53.9239 62.7472 53.9239C61.831 53.9239 61.0882 54.6667 61.0882 55.583C61.0882 56.4993 61.831 57.242 62.7472 57.242Z" fill="#076AB1"/>
<path d="M68.6461 57.242C69.5624 57.242 70.3052 56.4993 70.3052 55.583C70.3052 54.6667 69.5624 53.9239 68.6461 53.9239C67.7299 53.9239 66.9871 54.6667 66.9871 55.583C66.9871 56.4993 67.7299 57.242 68.6461 57.242Z" fill="#076AB1"/>
<path d="M50.9494 49.6506C51.8657 49.6506 52.6085 48.9078 52.6085 47.9915C52.6085 47.0752 51.8657 46.3324 50.9494 46.3324C50.0332 46.3324 49.2904 47.0752 49.2904 47.9915C49.2904 48.9078 50.0332 49.6506 50.9494 49.6506Z" fill="#076AB1"/>
<path d="M56.8483 49.6506C57.7646 49.6506 58.5074 48.9078 58.5074 47.9915C58.5074 47.0752 57.7646 46.3324 56.8483 46.3324C55.9321 46.3324 55.1893 47.0752 55.1893 47.9915C55.1893 48.9078 55.9321 49.6506 56.8483 49.6506Z" fill="#076AB1"/>
<path d="M62.7472 49.6506C63.6635 49.6506 64.4063 48.9078 64.4063 47.9915C64.4063 47.0752 63.6635 46.3324 62.7472 46.3324C61.831 46.3324 61.0882 47.0752 61.0882 47.9915C61.0882 48.9078 61.831 49.6506 62.7472 49.6506Z" fill="#076AB1"/>
<path d="M27.3538 64.8338C28.2701 64.8338 29.0129 64.091 29.0129 63.1747C29.0129 62.2584 28.2701 61.5156 27.3538 61.5156C26.4376 61.5156 25.6948 62.2584 25.6948 63.1747C25.6948 64.091 26.4376 64.8338 27.3538 64.8338Z" fill="#00AEEF"/>
<path d="M27.3538 72.4085C28.2701 72.4085 29.0129 71.6657 29.0129 70.7494C29.0129 69.8331 28.2701 69.0904 27.3538 69.0904C26.4376 69.0904 25.6948 69.8331 25.6948 70.7494C25.6948 71.6657 26.4376 72.4085 27.3538 72.4085Z" fill="#00AEEF"/>
<path d="M27.3538 80C28.2701 80 29.0129 79.2572 29.0129 78.3409C29.0129 77.4246 28.2701 76.6818 27.3538 76.6818C26.4376 76.6818 25.6948 77.4246 25.6948 78.3409C25.6948 79.2572 26.4376 80 27.3538 80Z" fill="#00AEEF"/>
<path d="M33.2527 64.8338C34.169 64.8338 34.9118 64.091 34.9118 63.1747C34.9118 62.2584 34.169 61.5156 33.2527 61.5156C32.3365 61.5156 31.5937 62.2584 31.5937 63.1747C31.5937 64.091 32.3365 64.8338 33.2527 64.8338Z" fill="#00AEEF"/>
<path d="M33.2527 72.4085C34.169 72.4085 34.9118 71.6657 34.9118 70.7494C34.9118 69.8331 34.169 69.0904 33.2527 69.0904C32.3365 69.0904 31.5937 69.8331 31.5937 70.7494C31.5937 71.6657 32.3365 72.4085 33.2527 72.4085Z" fill="#00AEEF"/>
<path d="M33.2527 80C34.169 80 34.9118 79.2572 34.9118 78.3409C34.9118 77.4246 34.169 76.6818 33.2527 76.6818C32.3365 76.6818 31.5937 77.4246 31.5937 78.3409C31.5937 79.2572 32.3365 80 33.2527 80Z" fill="#00AEEF"/>
<path d="M39.1516 64.8338C40.0679 64.8338 40.8107 64.091 40.8107 63.1747C40.8107 62.2584 40.0679 61.5156 39.1516 61.5156C38.2354 61.5156 37.4926 62.2584 37.4926 63.1747C37.4926 64.091 38.2354 64.8338 39.1516 64.8338Z" fill="#00AEEF"/>
<path d="M39.1516 72.4085C40.0679 72.4085 40.8107 71.6657 40.8107 70.7494C40.8107 69.8331 40.0679 69.0904 39.1516 69.0904C38.2354 69.0904 37.4926 69.8331 37.4926 70.7494C37.4926 71.6657 38.2354 72.4085 39.1516 72.4085Z" fill="#00AEEF"/>
<path d="M39.1516 80C40.0679 80 40.8107 79.2572 40.8107 78.3409C40.8107 77.4246 40.0679 76.6818 39.1516 76.6818C38.2354 76.6818 37.4926 77.4246 37.4926 78.3409C37.4926 79.2572 38.2354 80 39.1516 80Z" fill="#00AEEF"/>
<path d="M50.9494 64.8338C51.8657 64.8338 52.6085 64.091 52.6085 63.1747C52.6085 62.2584 51.8657 61.5156 50.9494 61.5156C50.0332 61.5156 49.2904 62.2584 49.2904 63.1747C49.2904 64.091 50.0332 64.8338 50.9494 64.8338Z" fill="#00AEEF"/>
<path d="M50.9494 72.4085C51.8657 72.4085 52.6085 71.6657 52.6085 70.7494C52.6085 69.8331 51.8657 69.0904 50.9494 69.0904C50.0332 69.0904 49.2904 69.8331 49.2904 70.7494C49.2904 71.6657 50.0332 72.4085 50.9494 72.4085Z" fill="#00AEEF"/>
<path d="M50.9494 80C51.8657 80 52.6085 79.2572 52.6085 78.3409C52.6085 77.4246 51.8657 76.6818 50.9494 76.6818C50.0332 76.6818 49.2904 77.4246 49.2904 78.3409C49.2904 79.2572 50.0332 80 50.9494 80Z" fill="#00AEEF"/>
<path d="M56.8483 64.8338C57.7646 64.8338 58.5074 64.091 58.5074 63.1747C58.5074 62.2584 57.7646 61.5156 56.8483 61.5156C55.9321 61.5156 55.1893 62.2584 55.1893 63.1747C55.1893 64.091 55.9321 64.8338 56.8483 64.8338Z" fill="#00AEEF"/>
<path d="M56.8483 72.4085C57.7646 72.4085 58.5074 71.6657 58.5074 70.7494C58.5074 69.8331 57.7646 69.0904 56.8483 69.0904C55.9321 69.0904 55.1893 69.8331 55.1893 70.7494C55.1893 71.6657 55.9321 72.4085 56.8483 72.4085Z" fill="#00AEEF"/>
<path d="M56.8483 80C57.7646 80 58.5074 79.2572 58.5074 78.3409C58.5074 77.4246 57.7646 76.6818 56.8483 76.6818C55.9321 76.6818 55.1893 77.4246 55.1893 78.3409C55.1893 79.2572 55.9321 80 56.8483 80Z" fill="#00AEEF"/>
<path d="M62.7472 64.8338C63.6635 64.8338 64.4063 64.091 64.4063 63.1747C64.4063 62.2584 63.6635 61.5156 62.7472 61.5156C61.831 61.5156 61.0882 62.2584 61.0882 63.1747C61.0882 64.091 61.831 64.8338 62.7472 64.8338Z" fill="#00AEEF"/>
<path d="M62.7472 72.4085C63.6635 72.4085 64.4063 71.6657 64.4063 70.7494C64.4063 69.8331 63.6635 69.0904 62.7472 69.0904C61.831 69.0904 61.0882 69.8331 61.0882 70.7494C61.0882 71.6657 61.831 72.4085 62.7472 72.4085Z" fill="#00AEEF"/>
<path d="M62.7472 80C63.6635 80 64.4063 79.2572 64.4063 78.3409C64.4063 77.4246 63.6635 76.6818 62.7472 76.6818C61.831 76.6818 61.0882 77.4246 61.0882 78.3409C61.0882 79.2572 61.831 80 62.7472 80Z" fill="#00AEEF"/>
<path d="M68.6461 64.8338C69.5624 64.8338 70.3052 64.091 70.3052 63.1747C70.3052 62.2584 69.5624 61.5156 68.6461 61.5156C67.7299 61.5156 66.9871 62.2584 66.9871 63.1747C66.9871 64.091 67.7299 64.8338 68.6461 64.8338Z" fill="#00AEEF"/>
<path d="M68.6461 72.4085C69.5624 72.4085 70.3052 71.6657 70.3052 70.7494C70.3052 69.8331 69.5624 69.0904 68.6461 69.0904C67.7299 69.0904 66.9871 69.8331 66.9871 70.7494C66.9871 71.6657 67.7299 72.4085 68.6461 72.4085Z" fill="#00AEEF"/>
<path d="M45.0505 64.8338C45.9668 64.8338 46.7096 64.091 46.7096 63.1747C46.7096 62.2584 45.9668 61.5156 45.0505 61.5156C44.1343 61.5156 43.3915 62.2584 43.3915 63.1747C43.3915 64.091 44.1343 64.8338 45.0505 64.8338Z" fill="#00AEEF"/>
<path d="M45.0505 72.4085C45.9668 72.4085 46.7096 71.6657 46.7096 70.7494C46.7096 69.8331 45.9668 69.0904 45.0505 69.0904C44.1343 69.0904 43.3915 69.8331 43.3915 70.7494C43.3915 71.6657 44.1343 72.4085 45.0505 72.4085Z" fill="#00AEEF"/>
<path d="M45.0505 80C45.9668 80 46.7096 79.2572 46.7096 78.3409C46.7096 77.4246 45.9668 76.6818 45.0505 76.6818C44.1343 76.6818 43.3915 77.4246 43.3915 78.3409C43.3915 79.2572 44.1343 80 45.0505 80Z" fill="#00AEEF"/>
</svg>
