<svg width="96" height="96" viewBox="0 0 96 96" fill="none" xmlns="http://www.w3.org/2000/svg">
<path d="M16.0617 41.5338H22.7936V39.6814H16.0617V41.5338Z" fill="#D21C2E"/>
<path fill-rule="evenodd" clip-rule="evenodd" d="M90.5736 40.8915H89.8866V42.9352H90.1786V42.0311H90.4241L90.9251 42.9352H91.2332L90.7241 42.0311C91.0049 42.0311 91.1878 41.7957 91.1878 41.4663C91.1878 41.0794 90.9837 40.8915 90.5736 40.8915ZM90.5251 41.7704H90.1786V41.1522H90.5251C90.713 41.1522 90.8948 41.2199 90.8948 41.4522C90.8948 41.7179 90.7514 41.7704 90.5251 41.7704Z" fill="#231F20"/>
<path fill-rule="evenodd" clip-rule="evenodd" d="M92 41.9169C92 40.9542 91.3141 40.1712 90.4715 40.1712C89.627 40.1712 88.9441 40.9542 88.9441 41.9169C88.9441 42.8776 89.627 43.6605 90.4715 43.6605C91.3141 43.6605 92 42.8776 92 41.9169ZM91.708 41.9169C91.708 42.7524 91.1797 43.3999 90.4766 43.3999C89.7654 43.3999 89.236 42.7524 89.236 41.9169C89.236 41.0794 89.7654 40.4329 90.4766 40.4329C91.1797 40.4329 91.708 41.0794 91.708 41.9169Z" fill="#231F20"/>
<path fill-rule="evenodd" clip-rule="evenodd" d="M36.5277 53.3516L36.5227 40.8663H33.9911V45.5275H33.9426C33.5708 44.7254 32.8677 44.2657 31.91 44.2657C30.0341 44.2657 28.2834 46.2215 28.2834 50.2977C28.2834 53.7971 29.5441 56.1661 31.7908 56.1661L36.7066 56.1701C36.5843 55.3993 36.5277 54.2527 36.5277 53.3516ZM33.9911 54.2628H32.5081C31.4403 54.2628 30.822 52.6515 30.822 50.3321C30.822 48.2551 31.2827 46.4225 32.5707 46.4225C33.3223 46.4225 33.8446 47.2489 33.9537 48.1823C33.9911 48.4177 33.9911 48.6763 33.9911 48.8976V54.2628Z" fill="#231F20"/>
<path fill-rule="evenodd" clip-rule="evenodd" d="M22.9699 56.1739C22.8466 55.4041 22.7911 54.2555 22.7911 53.3544V48.7125C22.7911 46.2405 22.0253 44.2968 19.0351 44.2968C17.6198 44.2968 16.6439 44.7645 16.0731 45.1272V46.8648C16.7015 46.4627 17.6511 46.2203 18.4815 46.2203C19.7433 46.2203 20.217 47.0709 20.217 48.2811V48.4862C17.5895 48.5104 15.067 49.7702 15.067 52.7554C15.067 54.792 16.3237 56.1739 17.9885 56.1739H22.9699ZM20.2847 50.1843L20.2837 54.2798L18.7563 54.2788C18.1966 54.2788 17.4975 53.805 17.4975 52.4927C17.4975 50.4712 19.2947 50.1975 20.2847 50.1843Z" fill="#231F20"/>
<path d="M8.58942 56.3186C9.44912 56.3186 10.0906 56.1267 10.4492 55.9357V53.9537C10.0785 54.1375 9.52286 54.2295 9.05412 54.2295C7.49939 54.2295 6.53969 52.7828 6.53969 50.4078C6.53969 48.2712 7.39433 46.4669 9.0521 46.4669C9.61176 46.4669 10.1977 46.6235 10.4492 46.7266V44.7061C10.133 44.5354 9.68753 44.3687 9.00159 44.3687C5.92447 44.3687 4 46.9801 4 50.4583C4 54.2769 5.83254 56.3186 8.58942 56.3186Z" fill="#231F20"/>
<path fill-rule="evenodd" clip-rule="evenodd" d="M47.0718 54.3398C45.7161 54.3398 44.5109 53.6347 44.4837 51.0384L49.9368 51.0334C49.9772 50.7152 50.0035 50.3414 50.0035 49.6787C50.0035 46.5652 48.7731 44.3579 46.3303 44.3579C43.8503 44.3579 42.0086 46.6965 42.0086 50.5384C42.0086 54.1337 43.6159 56.3057 46.6102 56.3057C47.6719 56.3057 48.6114 56.1006 49.3357 55.7592V53.9276C48.8195 54.1489 47.9204 54.3398 47.0718 54.3398ZM46.1495 46.255C47.0527 46.255 47.6638 47.3622 47.6446 49.2261H44.4948C44.5453 47.8643 45.0433 46.255 46.1495 46.255Z" fill="#231F20"/>
<path d="M58.0452 46.5184V56.1801H55.4995V47.8388C55.4995 46.8661 55.4634 46.0499 55.4291 45.2738C55.4171 45.0029 55.4053 44.7368 55.3954 44.4707H60.4142C62.3487 44.4707 63.5014 45.8789 63.5014 48.5722V56.1801H60.9557V48.8146C60.9557 47.6539 60.7092 46.5204 59.601 46.5204L58.0452 46.5184Z" fill="#231F20"/>
<path d="M73.5024 56.3186C74.3611 56.3186 75.0036 56.1267 75.3623 55.9357V53.9537C74.9905 54.1375 74.4369 54.2295 73.9671 54.2295C72.4104 54.2295 71.4517 52.7828 71.4517 50.4078C71.4517 48.2712 72.3063 46.4669 73.9641 46.4669C74.5238 46.4669 75.1097 46.6235 75.3623 46.7266V44.7061C75.045 44.5354 74.6005 44.3687 73.9136 44.3687C70.8365 44.3687 68.911 46.9801 68.911 50.4583C68.911 54.2769 70.7456 56.3186 73.5024 56.3186Z" fill="#231F20"/>
<path fill-rule="evenodd" clip-rule="evenodd" d="M87.8727 49.6787C87.8727 46.5642 86.6432 44.3579 84.2005 44.3579C81.7215 44.3579 79.8778 46.6965 79.8778 50.5384C79.8778 54.1337 81.4851 56.3057 84.4793 56.3057C85.5431 56.3057 86.4826 56.1006 87.2059 55.7592V53.9276C86.6877 54.1489 85.7906 54.3398 84.942 54.3398C83.5853 54.3398 82.3821 53.6347 82.3549 51.0384L87.807 51.0334C87.8474 50.7152 87.8727 50.3414 87.8727 49.6787ZM82.365 49.2261C82.4165 47.8643 82.9145 46.255 84.0187 46.255C84.9238 46.255 85.535 47.3622 85.5148 49.2261H82.365Z" fill="#231F20"/>
</svg>
