<svg width="96" height="96" viewBox="0 0 96 96" fill="none" xmlns="http://www.w3.org/2000/svg">
<path fill-rule="evenodd" clip-rule="evenodd" d="M91.1041 47.9912C86.6882 57.065 67.1572 64.4521 47.628 64.4521C28.0792 64.4521 15.7507 57.065 20.1661 47.9912C24.564 38.9528 44.112 31.5479 63.6433 31.5479C83.1913 31.5479 95.5178 38.9528 91.1041 47.9912Z" fill="#032B76"/>
<path fill-rule="evenodd" clip-rule="evenodd" d="M63.2044 31.8987C82.1981 31.8987 94.1524 39.0755 89.8321 47.8504C85.5297 56.6437 66.5188 63.8212 47.5627 63.8212C28.5698 63.8212 16.6146 56.6437 20.9166 47.8504C23.7092 42.1933 32.554 37.2286 43.5599 34.3808C44.3413 34.1682 45.1425 33.9957 45.9431 33.8026C51.4171 32.5916 57.3204 31.8987 63.2044 31.8987Z" fill="#0A0A08"/>
<path fill-rule="evenodd" clip-rule="evenodd" d="M62.9193 32.3758C81.6734 32.3758 93.5016 39.3022 89.2657 47.7575C85.0295 56.2455 66.2917 63.1568 47.5549 63.1568C28.8002 63.1568 16.9722 56.2455 21.2089 47.7575C25.4281 39.3022 44.1819 32.3758 62.9193 32.3758Z" fill="#969998"/>
<path fill-rule="evenodd" clip-rule="evenodd" d="M59.9299 33.8208C76.8734 33.8208 87.5377 40.0161 83.6837 47.5913C79.8456 55.1824 62.8862 61.3782 45.9763 61.3782C29.0333 61.3782 18.3683 55.1824 22.206 47.5913C24.6973 42.7077 32.5874 38.4216 42.4054 35.9636C43.1026 35.78 43.8173 35.6311 44.5315 35.4647C49.4148 34.4188 54.6807 33.8208 59.9299 33.8208" fill="#0A0A08"/>
<path fill-rule="evenodd" clip-rule="evenodd" d="M80.9031 41.3776C81.7162 42.728 81.8664 44.248 81.2228 45.8414C80.6198 47.0475 79.9283 48.0185 78.8978 48.9738C73.5521 53.9128 61.5231 57.5965 49.51 57.5965C35.3456 57.5965 26.4135 52.478 29.6405 46.2027C31.8577 41.8829 39.3713 37.9557 48.3693 36.015C49.4278 35.7872 50.5033 35.6079 51.5952 35.4446C49.4783 35.6569 47.407 35.9662 45.3704 36.406C35.3947 38.6071 26.9353 42.1609 24.4732 47.083C20.9041 54.239 30.7975 60.074 46.5113 60.074C59.3864 60.074 72.2804 56.1625 78.4741 50.7991C79.1735 50.1971 79.9921 49.3467 80.6345 48.4406C80.8998 48.0739 81.1322 47.7028 81.3264 47.3281C82.435 45.1761 82.2233 43.1385 80.9031 41.3776" fill="#0D5DB8"/>
<path fill-rule="evenodd" clip-rule="evenodd" d="M13.8199 46.4643C13.5196 46.9362 13.2183 47.2847 12.9244 47.5004L12.9128 47.5099C12.5735 47.7766 12.1291 47.9121 11.592 47.9121C11.2431 47.9121 11.0036 47.8424 10.9367 47.724C10.9298 47.7074 10.7724 47.2725 11.2582 45.7074C11.5795 44.7161 11.954 44.008 12.3711 43.6025C12.8891 43.0841 13.4448 42.8427 14.1201 42.8427C14.3323 42.8427 14.5085 42.8756 14.6158 42.9348C14.6961 42.9802 14.7597 43.0158 14.7848 43.3077L14.8829 44.4503H20.2682C19.9302 44.8982 19.6409 45.3809 19.4088 45.8864H14.1878L13.8199 46.465V46.4643ZM26.8744 46.7965C26.6734 47.436 26.4145 47.9005 26.1257 48.1388C25.8303 48.3752 25.5822 48.4808 25.3208 48.4808C25.2666 48.4808 25.2321 48.4761 25.2118 48.4713C25.2004 48.4007 25.1832 48.15 25.3629 47.5771C25.5344 46.9936 25.7866 46.5507 26.0913 46.2962C26.3705 46.0729 26.6291 45.9733 26.9293 45.9733C26.9657 45.9733 26.9919 45.9753 27.0101 45.978C27.021 46.0572 27.0282 46.293 26.8744 46.7966L26.8744 46.7965ZM39.7343 46.7846C39.5689 47.3495 39.3468 47.7705 39.1086 47.9704C38.9145 48.134 38.7503 48.2135 38.6071 48.2135C38.5926 48.2135 38.5795 48.2131 38.5676 48.2127C38.5707 48.1142 38.5932 47.9164 38.6955 47.5864C38.9177 46.8626 39.1685 46.5521 39.3402 46.4187C39.5364 46.2586 39.705 46.1749 39.8822 46.1501C39.8718 46.2697 39.8375 46.4687 39.7383 46.7716L39.7343 46.7835L39.7343 46.7846ZM77.5745 41.1648L79.0026 36.5873L71.6623 39.6318L71.4747 39.7099L71.0215 41.1647H69.5663L69.5065 41.3555C68.8925 41.0807 68.2867 40.9471 67.6554 40.9471C67.1603 40.9471 66.6902 41.0203 66.2579 41.1647H60.5088L59.4208 44.6397C59.4223 44.4978 59.4185 44.3523 59.4087 44.2052C59.357 43.4508 59.0919 42.7824 58.6627 42.3246C58.128 41.7137 57.3738 41.3198 56.4213 41.1534C55.7153 41.0126 54.7578 40.947 53.4074 40.947C52.6174 40.947 51.8714 41.0005 51.1266 41.1111C50.2845 41.2412 49.6668 41.4117 49.1834 41.6474C48.4666 41.9585 47.8722 42.3366 47.4181 42.771C47.0177 43.136 46.6518 43.601 46.3005 44.1904C46.2285 43.8211 46.1181 43.4657 45.9718 43.1323C45.5062 42.1353 44.4579 40.9469 42.1067 40.9469C41.5261 40.9469 40.9779 41.02 40.4332 41.1702L40.435 41.1655H34.1557L33.2519 44.0531C33.147 43.7543 33.0091 43.4643 32.8413 43.1898C31.8953 41.702 30.1484 40.9478 27.6491 40.9478C25.599 40.9478 23.7744 41.497 22.2262 42.5805C21.9408 42.7812 21.6676 42.9964 21.4135 43.2204V43.2014C21.4135 41.0715 20.8351 39.5646 19.6457 38.5952C18.6093 37.7106 17.0812 37.2806 14.9742 37.2806C12.4603 37.2806 10.2476 37.9579 8.39704 39.2945C6.5567 40.6351 5.24757 42.5451 4.50645 44.9708C3.90656 46.8651 3.83931 48.491 4.30635 49.8043C4.8067 51.1757 5.63469 52.1531 6.76702 52.7083C7.78468 53.2172 9.17148 53.4749 10.8888 53.4749C12.3173 53.4749 13.5671 53.2745 14.603 52.8785C15.6484 52.499 16.6385 51.906 17.5462 51.1159C17.9603 50.7435 18.4157 50.2502 18.8325 49.7231C19.0542 50.7541 19.5948 51.4829 20.0132 51.9154C21.0364 52.939 22.5575 53.4582 24.5346 53.4582C26.612 53.4582 28.4585 52.9037 30.0223 51.8094C30.41 51.5379 30.7726 51.2397 31.1015 50.9217L29.238 56.8744H35.8066L36.9969 53.095C37.5699 53.3362 38.2294 53.4582 38.9583 53.4582C40.4877 53.4582 41.9189 52.9464 43.2119 51.9365C43.5812 51.6467 43.9287 51.3127 44.2457 50.9434C44.3624 51.4194 44.595 51.8529 44.9369 52.2325C45.6591 53.0572 46.7924 53.4582 48.4016 53.4582C49.463 53.4582 50.458 53.2993 51.3591 52.9859C51.5071 52.9335 51.6586 52.8736 51.8098 52.8077L51.9541 53.2398H63.2823L64.5614 49.1505C65.094 47.4579 65.5819 46.7818 65.8241 46.5306C66.0584 46.3214 66.2151 46.2925 66.3496 46.2925C66.3648 46.2925 66.5105 46.2972 66.8651 46.4535L67.7485 46.8439L68.1683 46.338L69.4032 46.3404L68.861 48.0732C68.4373 49.3638 68.2944 50.2841 68.4115 50.9693C68.5339 51.8073 68.9857 52.501 69.6835 52.9221C70.2793 53.2873 71.1408 53.4574 72.3943 53.4574C73.3092 53.4574 74.3301 53.3484 75.4295 53.1334L75.9634 53.029L76.2475 52.9729L77.3471 47.5792L75.3794 48.1564L75.9429 46.3416H78.1005L79.7174 41.1639H77.5744L77.5745 41.1648Z" fill="white"/>
<path fill-rule="evenodd" clip-rule="evenodd" d="M14.3703 46.2174L14.1001 46.6423C13.7775 47.1489 13.4483 47.5279 13.118 47.7701C12.719 48.0839 12.2054 48.2433 11.592 48.2433C11.0988 48.2433 10.7803 48.122 10.6454 47.8821C10.6009 47.8046 10.4061 47.3307 10.9406 45.6093C11.2799 44.5626 11.6831 43.807 12.1404 43.3626C12.7137 42.7887 13.3614 42.5097 14.1201 42.5097C14.3954 42.5097 14.6164 42.5546 14.776 42.6429C14.9657 42.7499 15.082 42.8879 15.1157 43.2785L15.1876 44.1173H20.9742C20.4031 44.7481 19.9516 45.4501 19.6248 46.2174L14.3703 46.2174ZM27.1922 46.8924C26.9679 47.6058 26.6802 48.1114 26.338 48.3939C25.9814 48.6794 25.6582 48.8127 25.3208 48.8127C25.0211 48.8127 24.9598 48.7078 24.9187 48.6374C24.9028 48.6111 24.7714 48.354 25.0461 47.4765C25.2378 46.8253 25.518 46.3423 25.8773 46.0422C26.2193 45.7686 26.5534 45.6411 26.9293 45.6411C27.2057 45.6411 27.2537 45.7231 27.3062 45.8123C27.3122 45.8218 27.4489 46.0533 27.1922 46.8925L27.1922 46.8924ZM38.3781 47.4866C38.5741 46.8489 38.8362 46.3886 39.1378 46.1541C39.4262 45.9187 39.6989 45.8088 39.9963 45.8088C40.1488 45.8088 40.159 45.8278 40.1941 45.8913C40.2244 45.9429 40.2632 46.2339 40.0531 46.8765C39.8667 47.5127 39.6141 47.9788 39.3222 48.2236C39.0659 48.4396 38.8319 48.5443 38.607 48.5443C38.3354 48.5443 38.29 48.4684 38.2602 48.4187C38.2592 48.4165 38.1555 48.2059 38.3781 47.4865L38.3781 47.4866ZM45.7683 47.3237C45.9018 46.8502 45.9921 46.3884 46.0379 45.9467L47.7809 46.1234C47.1471 46.3386 46.6317 46.6043 46.2147 46.9297C46.0569 47.052 45.9079 47.1838 45.7683 47.3236V47.3237ZM77.8566 46.0091L79.2658 41.4957H77.123L78.474 37.1648L71.7452 39.9558L71.2662 41.4957H69.8103L69.7077 41.8231C69.0226 41.4565 68.3499 41.278 67.6554 41.278C67.1759 41.278 66.7252 41.3513 66.3131 41.4956H60.7529L57.4564 52.0259L57.4258 51.8399C57.3522 51.3951 57.3448 51.1738 57.3514 51.0675C57.3592 50.956 57.3998 50.718 57.547 50.2207L58.8659 45.9994C59.0501 45.4437 59.1192 44.8636 59.0772 44.2257C59.0306 43.5447 58.7956 42.9476 58.4179 42.5476C57.9341 41.9925 57.2428 41.633 56.366 41.4799C55.6751 41.3422 54.7352 41.278 53.4074 41.278C52.6338 41.278 51.9037 41.3303 51.1753 41.4387C50.3642 41.5638 49.7746 41.726 49.3245 41.9471C48.6398 42.2433 48.0755 42.6009 47.6489 43.0087C47.1945 43.4234 46.7825 43.9785 46.389 44.706L46.071 45.2938C46.0716 44.5568 45.9365 43.8759 45.6669 43.2631C45.244 42.3575 44.283 41.2779 42.1068 41.2779C41.3483 41.2779 40.6315 41.4123 39.9251 41.6873L39.9844 41.4956H34.3998L33.1737 45.4124C33.1424 44.667 32.9362 43.9792 32.5572 43.3601C31.6787 41.9784 30.0275 41.278 27.6492 41.278C25.6686 41.278 23.9082 41.8069 22.4165 42.8507C21.9188 43.201 21.4735 43.5849 21.0814 44.0011V43.2001C21.0814 41.1762 20.5429 39.7536 19.4373 38.852C18.4589 38.0171 16.9989 37.6114 14.9742 37.6114C12.5317 37.6114 10.3842 38.2677 8.59128 39.5623C6.81123 40.8593 5.5438 42.7113 4.82434 45.0659C4.24612 46.8918 4.17703 48.4482 4.61954 49.6922C5.08883 50.9784 5.86061 51.8924 6.91261 52.4085C7.88592 52.8948 9.22367 53.1415 10.8888 53.1415C12.2765 53.1415 13.4865 52.9481 14.4837 52.5675C15.4948 52.2 16.4518 51.6269 17.3292 50.8633C17.9122 50.339 18.5562 49.5893 19.0625 48.8517C19.1003 50.2037 19.7171 51.1304 20.2528 51.6841C21.2084 52.6399 22.6491 53.1247 24.5346 53.1247C26.5428 53.1247 28.3251 52.5902 29.8321 51.5357C30.6735 50.9465 31.3707 50.2448 31.9124 49.4424L29.69 56.5409H35.563L36.7934 52.635C36.8674 52.6728 36.9431 52.7082 37.0185 52.7403C37.5744 52.9956 38.227 53.1248 38.9584 53.1248C40.412 53.1248 41.7743 52.6367 43.0078 51.6734C43.5666 51.2346 44.0657 50.6972 44.4957 50.0722C44.4526 50.9799 44.8307 51.6172 45.1831 52.0082C45.841 52.7595 46.8939 53.1248 48.4017 53.1248C49.4257 53.1248 50.384 52.9721 51.2505 52.6708C51.4957 52.584 51.7496 52.4761 52.0069 52.3489L52.1933 52.9065H63.0383L64.2442 49.0507C64.7746 47.3661 65.2723 46.618 65.5924 46.2914C65.8459 46.0617 66.0797 45.9592 66.3497 45.9592C66.4159 45.9592 66.6121 45.9782 66.9994 46.1485L67.6533 46.4378L68.0128 46.0046L69.855 46.0094L69.1785 48.1717C68.7699 49.4162 68.6307 50.289 68.7394 50.9162C68.8463 51.6567 69.2424 52.2683 69.8546 52.638C70.3977 52.9708 71.2048 53.1255 72.3944 53.1255C73.2874 53.1255 74.287 53.0187 75.3656 52.8076L75.9663 52.6902L76.9116 48.0534L75.4506 48.4821C75.2415 48.5433 75.0521 48.5928 74.8853 48.6287L75.6983 46.0098H77.8565L77.8566 46.0091Z" fill="#0A0A08"/>
<path fill-rule="evenodd" clip-rule="evenodd" d="M18.9925 47.135C18.5408 48.1727 17.5526 49.4284 16.7158 50.1816C15.945 50.8522 15.0911 51.371 14.1705 51.7058C13.2497 52.0569 12.1452 52.2248 10.889 52.2248C9.3483 52.2248 8.16018 52.0069 7.32299 51.5882C6.46924 51.1696 5.86608 50.4328 5.48162 49.3781C5.11208 48.3402 5.17953 46.9839 5.69889 45.3431C6.36889 43.151 7.5239 41.4752 9.13144 40.3042C10.7549 39.1322 12.6973 38.5289 14.9744 38.5289C16.7487 38.5289 18.038 38.864 18.8419 39.5504C19.9301 40.4372 20.1645 41.8944 20.1645 43.2004H16.0297C15.9792 42.6144 15.7613 42.1453 15.226 41.8441C14.9237 41.6764 14.5558 41.5927 14.1202 41.5927C13.1324 41.5927 12.2449 41.9608 11.4916 42.7146C10.9227 43.2675 10.4534 44.138 10.0682 45.3263C9.61626 46.7828 9.53307 47.7882 9.8507 48.3403C10.1524 48.8768 10.7386 49.1606 11.5921 49.1606C12.4295 49.1606 13.1324 48.926 13.6853 48.4913C14.1202 48.1727 14.5221 47.6879 14.874 47.135H18.9925Z" fill="white"/>
<path fill-rule="evenodd" clip-rule="evenodd" d="M28.0673 47.1684C27.783 48.0728 27.3977 48.709 26.9117 49.11C26.4095 49.5125 25.8909 49.7302 25.3209 49.7302C24.769 49.7302 24.367 49.5126 24.1328 49.11C23.8814 48.6925 23.8983 48.0727 24.1663 47.2176C24.4173 46.3644 24.8022 45.7452 25.3041 45.3264C25.8065 44.9239 26.3429 44.7242 26.9295 44.7242C27.4642 44.7242 27.8492 44.924 28.0843 45.3264C28.3353 45.7282 28.318 46.3483 28.0673 47.1684ZM31.7836 43.8529C31.0809 42.7477 29.7082 42.1955 27.6493 42.1955C25.8568 42.1955 24.2828 42.665 22.9444 43.6017C21.5877 44.5562 20.683 45.7619 20.2315 47.2176C19.7294 48.7922 19.9636 50.0652 20.9017 51.0361C21.6713 51.806 22.8766 52.208 24.5348 52.208C26.3754 52.208 27.9667 51.7222 29.3061 50.7848C30.6453 49.8473 31.5332 48.6416 32.0014 47.1684C32.42 45.8625 32.3366 44.7573 31.7836 43.8529Z" fill="white"/>
<path fill-rule="evenodd" clip-rule="evenodd" d="M40.9336 47.135C40.6832 47.9888 40.3316 48.5745 39.9128 48.9261C39.4944 49.2781 39.0595 49.4622 38.6072 49.4622C38.088 49.4622 37.7027 49.2782 37.4851 48.9089C37.2508 48.5415 37.2682 47.9722 37.5017 47.2176C37.7533 46.3986 38.1049 45.7952 38.5576 45.4443C39.0089 45.0756 39.4774 44.8918 39.9965 44.8918C40.4488 44.8918 40.784 45.0592 40.9851 45.4269C41.2016 45.7952 41.186 46.3645 40.9336 47.135ZM44.836 43.6518C44.3829 42.6815 43.4793 42.1955 42.107 42.1955C41.42 42.1955 40.7502 42.3291 40.0808 42.6145C39.595 42.8149 39.0088 43.2164 38.3061 43.8194L38.7408 42.4132H35.0741L30.9386 55.6242H34.8905L36.3307 51.0526C36.598 51.4379 36.9665 51.7222 37.4017 51.9067C37.837 52.1067 38.356 52.208 38.9585 52.208C40.1973 52.208 41.3701 51.7888 42.4413 50.9525C43.5295 50.0983 44.3164 48.8928 44.8184 47.3018C45.2712 45.8455 45.2711 44.64 44.836 43.6518Z" fill="white"/>
<path fill-rule="evenodd" clip-rule="evenodd" d="M53.4417 48.0225C53.2903 48.4746 53.1051 48.8592 52.8543 49.1442C52.6033 49.4285 52.2683 49.6628 51.8336 49.8641C51.398 50.0653 50.9637 50.1655 50.5103 50.1655C50.0927 50.1655 49.8072 50.0652 49.6576 49.8806C49.4898 49.6968 49.4555 49.4622 49.5562 49.1779C49.6241 48.9261 49.8072 48.709 50.0927 48.5077C50.3601 48.3067 50.9287 48.1226 51.7833 47.9213C52.4198 47.7708 53.0217 47.62 53.624 47.4361L53.4417 48.0225ZM58.1621 44.2887C58.129 43.8034 57.9782 43.4181 57.7258 43.151C57.3754 42.7477 56.8557 42.4968 56.1865 42.3801C55.5175 42.2462 54.5785 42.1955 53.4076 42.1955C52.6703 42.1955 51.9846 42.2462 51.3146 42.346C50.6612 42.4461 50.1083 42.581 49.7075 42.7818C49.1211 43.0328 48.6365 43.3341 48.2679 43.686C47.8831 44.0374 47.5313 44.5224 47.1961 45.1428L50.8275 45.5106C51.1139 45.0923 51.398 44.8077 51.6999 44.6567C52.0852 44.4724 52.5874 44.3722 53.24 44.3722C53.7418 44.3722 54.0604 44.4556 54.2104 44.6399C54.3457 44.824 54.3457 45.1428 54.2104 45.5947C53.6592 45.7619 53.1554 45.9125 52.6875 46.03C52.2021 46.1299 51.1969 46.3319 49.6404 46.6154C48.3344 46.8329 47.3799 47.1842 46.7777 47.6541C46.1754 48.1226 45.7564 48.7259 45.5385 49.4456C45.2877 50.2327 45.4054 50.8847 45.8733 51.4041C46.3428 51.9402 47.1794 52.208 48.4018 52.208C49.3214 52.208 50.1753 52.0734 50.9451 51.8059C51.5151 51.6047 52.1354 51.2704 52.7872 50.8183C52.7537 51.0858 52.7378 51.2866 52.7378 51.4208C52.7378 51.5554 52.7701 51.7377 52.8543 51.9897H56.5207C56.4544 51.5883 56.4205 51.2536 56.4369 51.003C56.4544 50.7512 56.5382 50.3993 56.6715 49.9478L57.9958 45.7117C58.145 45.2594 58.1953 44.7911 58.1621 44.2887Z" fill="white"/>
<path fill-rule="evenodd" clip-rule="evenodd" d="M61.4269 42.4132H65.0935L64.608 43.9699C65.1777 43.3005 65.6964 42.8319 66.1489 42.5809C66.6004 42.3128 67.1022 42.1955 67.6555 42.1955C68.2417 42.1955 68.8101 42.3631 69.3957 42.6979L67.3702 45.31C66.9522 45.125 66.6176 45.0425 66.3499 45.0425C65.8309 45.0425 65.3778 45.2422 64.959 45.6284C64.391 46.1975 63.854 47.2364 63.3698 48.7753L62.3642 51.9897H58.4289L61.4269 42.4132Z" fill="white"/>
<path fill-rule="evenodd" clip-rule="evenodd" d="M77.0146 38.7635L75.8763 42.4131H78.019L77.1822 45.0923H75.0228L73.9673 48.4913C73.8328 48.8927 73.7997 49.1607 73.8328 49.2946C73.8999 49.496 74.0844 49.6132 74.418 49.6132C74.704 49.6132 75.1383 49.5293 75.7088 49.3614L75.1898 51.9067C74.1687 52.1067 73.2305 52.208 72.3945 52.208C71.4069 52.208 70.7191 52.0914 70.3343 51.8556C69.9486 51.6223 69.7152 51.2536 69.6477 50.7848C69.5633 50.3 69.6985 49.5292 70.05 48.4574L71.1032 45.0923H69.6477L70.4847 42.4131H71.941L72.4939 40.6388L77.0146 38.7635Z" fill="white"/>
</svg>
