<svg width="97" height="96" viewBox="0 0 97 96" fill="none" xmlns="http://www.w3.org/2000/svg">
<path fill-rule="evenodd" clip-rule="evenodd" d="M22.8803 66.5386L16.0948 45.1922C15.9809 44.7282 16.1192 44.2438 16.465 43.9181L26.8669 35.6181C27.1883 35.3413 27.7009 35.4105 27.9531 35.7361C27.9531 35.7497 27.9613 35.7565 27.9775 35.7565L35.6905 46.6047C35.9427 47.024 35.9427 47.5084 35.7109 47.9277L23.6003 66.6322C23.344 67.0026 23.043 66.9579 22.8803 66.5386ZM56.9257 80.0083L34.9013 79.9839C34.4376 79.9594 34.0226 79.6826 33.8355 79.243L29.2956 66.6078C29.1369 66.1926 29.3688 65.7285 29.7837 65.5657L42.2889 61.4422C42.7526 61.3241 43.2164 61.4869 43.5174 61.8329L57.2267 79.357C57.5074 79.7071 57.3691 79.9839 56.9257 80.0083ZM80.0159 51.172L73.2101 72.5224C73.0473 72.962 72.6527 73.2633 72.1646 73.308L58.9882 73.8169C58.5244 73.8169 58.1787 73.4709 58.1542 73.0068L58.1787 59.6348C58.2031 59.1463 58.4797 58.727 58.919 58.5439L79.5074 50.6631C79.902 50.5247 80.1583 50.7568 80.0159 51.172ZM60.2412 19.8811L78.051 33.0943C78.4212 33.3955 78.5799 33.8596 78.4904 34.3196L74.878 47.2764C74.878 47.2764 74.878 47.2845 74.878 47.3008C74.7356 47.7201 74.2962 47.9521 73.8813 47.8096L61.3965 43.6617C60.9571 43.4988 60.6317 43.0836 60.6113 42.6196L59.6147 20.2271C59.6147 19.7874 59.8913 19.6246 60.2412 19.8811ZM24.9428 29.386L42.7526 16.1931C43.1472 15.9407 43.6557 15.9163 44.0503 16.1727L55.03 23.6586C55.3758 23.915 55.4693 24.4239 55.2131 24.7943L47.4797 35.6181C47.1787 35.9885 46.7149 36.1514 46.2512 36.0577L25.0607 30.078C24.6417 29.964 24.5726 29.6383 24.9428 29.386Z" fill="black"/>
</svg>
