<svg width="96" height="96" viewBox="0 0 96 96" fill="none" xmlns="http://www.w3.org/2000/svg">
<path d="M18.3446 38.9663C12.702 38.9663 8 41.3602 8 48.5824C8 54.304 11.1618 57.9071 18.4903 57.9071C27.1164 57.9071 27.6694 52.2249 27.6694 52.2249H23.4896C23.4896 52.2249 22.5934 55.2846 18.2353 55.2846C14.6858 55.2846 12.1328 52.8867 12.1328 49.5258H28.1064V47.4168C28.1064 44.0918 25.9957 38.9663 18.3446 38.9663V38.9663ZM18.1989 41.6617C21.5777 41.6617 23.8812 43.7316 23.8812 46.834H12.2253C12.2253 43.5405 15.2319 41.6617 18.1989 41.6617V41.6617Z" fill="#E53238"/>
<path d="M28.1034 31.9728V54.2802C28.1034 55.5464 28.013 57.3244 28.013 57.3244H31.9996C31.9996 57.3244 32.1427 56.0474 32.1427 54.8804C32.1427 54.8804 34.1123 57.9618 39.4679 57.9618C45.1075 57.9618 48.9383 54.0464 48.9383 48.4368C48.9383 43.2182 45.4196 39.021 39.477 39.021C33.9122 39.021 32.183 42.026 32.183 42.026V31.9728H28.1034ZM38.448 41.7801C42.2778 41.7801 44.7131 44.6225 44.7131 48.4368C44.7131 52.5269 41.9004 55.2026 38.4753 55.2026C34.3878 55.2026 32.183 52.0112 32.183 48.4732C32.183 45.1765 34.1615 41.7801 38.448 41.7801Z" fill="#0064D2"/>
<path d="M58.8459 38.9663C50.357 38.9663 49.8126 43.6144 49.8126 44.3571H54.0379C54.0379 44.3571 54.2594 41.6435 58.5545 41.6435C61.3455 41.6435 63.5083 42.921 63.5083 45.377V46.2512H58.5545C51.978 46.2512 48.5013 48.1751 48.5013 52.0792C48.5013 55.9214 51.7137 58.0119 56.0549 58.0119C61.9712 58.0119 63.8771 54.7427 63.8771 54.7427C63.8771 56.043 63.9773 57.3243 63.9773 57.3243H67.7336C67.7336 57.3243 67.5879 55.7361 67.5879 54.72V45.9371C67.5879 40.1782 62.9428 38.9663 58.8459 38.9663V38.9663ZM63.5083 48.8738V50.0394C63.5083 51.5596 62.5702 55.3392 57.0475 55.3392C54.0232 55.3392 52.7266 53.8299 52.7266 52.0792C52.7266 48.8943 57.0932 48.8738 63.5083 48.8738V48.8738Z" fill="#F5AF02"/>
<path d="M65.3126 39.6956H70.0661L76.8879 53.3626L83.6941 39.6956H88L75.6026 64.0273H71.0859L74.6634 57.2445L65.3126 39.6956Z" fill="#86B817"/>
</svg>
