<svg width="96" height="96" viewBox="0 0 96 96" fill="none" xmlns="http://www.w3.org/2000/svg">
<path d="M8 39.8841H10.6284V33.4946C10.6284 31.5191 10.9088 30.1324 11.8495 29.2387C12.7903 28.345 14.7677 27.9104 16.8204 27.9104H18.4911V31.6997H17.6595C16.8298 31.6997 16.2183 31.9029 15.8176 32.3319C15.4187 32.7646 15.2475 33.3968 15.2475 34.2228V39.8841H18.493V43.585H15.2475V67.7356H10.6284V43.585H8V39.8841Z" fill="#FF6600"/>
<path fill-rule="evenodd" clip-rule="evenodd" d="M84.5853 39.1137C84.7038 39.1137 84.8017 39.1758 84.8017 39.3132C84.8017 39.4185 84.7471 39.4825 84.6643 39.5088L84.7979 39.776H84.6643L84.5345 39.5201H84.4084V39.776H84.2955V39.1137H84.5853ZM84.5815 39.411C84.6436 39.411 84.6888 39.3809 84.6888 39.3169C84.6888 39.2548 84.6436 39.221 84.5815 39.221H84.4084V39.411H84.5815Z" fill="#FF6600"/>
<path fill-rule="evenodd" clip-rule="evenodd" d="M84.527 38.8503C84.8675 38.8503 85.1328 39.11 85.1328 39.4562C85.1328 39.8005 84.8675 40.062 84.527 40.062C84.1808 40.062 83.9192 39.8005 83.9192 39.4562C83.9192 39.11 84.1808 38.8503 84.527 38.8503ZM84.527 39.9642C84.8129 39.9642 85.035 39.744 85.035 39.4562C85.035 39.1664 84.8129 38.9482 84.527 38.9482C84.2372 38.9482 84.0171 39.1664 84.0171 39.4562C84.0171 39.744 84.2372 39.9642 84.527 39.9642Z" fill="#FF6600"/>
<path d="M82.8937 62.628H88V67.7362H82.8937V62.628Z" fill="#FF6600"/>
<path d="M72.5318 39.8842L75.5741 62.714L78.6108 39.8842H83.3503L78.9175 67.7356H72.1781L67.7923 39.8842H72.5318Z" fill="#FF6600"/>
<path d="M19.9355 67.7343H24.5659V39.8828H19.9355V67.7343Z" fill="#FF6600"/>
<path fill-rule="evenodd" clip-rule="evenodd" d="M55.5964 55.386H45.9444V61.3522C45.9444 63.228 46.6349 64.5432 48.5314 64.5432C50.4242 64.5432 51.1298 63.2393 51.1298 61.3541L51.1241 58.7106H55.5964V60.942C55.5851 66.0784 52.714 68.0822 48.4374 68.0822C44.1589 68.0822 41.3103 65.6476 41.2953 60.942V46.8366C41.2953 41.6625 43.5756 39.5628 48.4392 39.5628C53.1166 39.5628 55.5851 41.6682 55.5964 46.8027V55.386ZM48.5183 42.6804C46.3527 42.6804 45.9444 44.3079 45.9444 45.8789V51.6325H51.1203V45.877C51.1203 44.2834 50.682 42.6804 48.5183 42.6804Z" fill="#FF6600"/>
<path d="M34.9767 51.9013C31.4639 48.8515 31.1911 48.4093 31.1911 46.1365C31.1911 44.2005 31.3586 43.0227 33.099 43.0227C34.8374 43.0227 35.0632 44.1854 35.0632 46.1591V48.7311H39.5261V44.5354C39.511 41.2409 36.9767 39.5664 32.9955 39.5664C29.0801 39.5664 26.5269 40.8702 26.5044 46.1365C26.5008 46.9848 26.5057 47.0296 26.5046 46.7377C26.5125 48.3961 26.5618 51.0026 30.6116 54.4771L31.7857 55.4818C34.8017 58.0255 35.131 58.3322 35.1178 61.3576C35.1159 63.2222 35.0011 64.6352 33.0444 64.6352C31.0877 64.6352 30.9654 63.2109 30.9654 62.3322V58.7687H26.2805V62.4451C26.2805 66.9701 29.225 68.0896 33.0387 68.0896C36.8563 68.0896 39.8046 66.9588 39.8046 61.1375V60.654C39.7951 56.5862 39.0595 55.495 34.9767 51.9013Z" fill="#FF6600"/>
<path d="M61.7945 39.8836V42.751L61.8416 42.6494C63.0664 40.0905 64.1088 39.6145 66.5246 39.5637V44.4913C65.2621 44.5101 64.2706 44.6983 63.4653 45.2533C62.6149 45.8366 62.1257 46.8244 62.1276 48.3239V67.7332H57.5744V39.8836H61.7945Z" fill="#FF6600"/>
</svg>
