<svg width="96" height="96" viewBox="0 0 96 96" fill="none" xmlns="http://www.w3.org/2000/svg">
<path d="M75.3606 72.9645C79.2393 71.6468 82.258 67.1801 82.9831 61.5643V59.9412H63.0976V72.9659H75.3578L75.3606 72.9645ZM82.9859 36.0602V34.5916C82.2237 28.7314 78.9807 24.1134 74.8462 23.0285H63.1004V36.0588H82.9859V36.0602ZM13 59.9426V61.5517C13.7201 67.1731 16.7382 71.6477 20.6282 72.9659H32.8265V59.9412H13V59.9426ZM21.1369 23.0383C17.008 24.1238 13.7561 28.744 13 34.6127V36.0709H32.8265V23.0406H21.1369V23.0383ZM83 41.4933H63.1144V54.5236H83V41.4933ZM38.254 72.9729H57.7067V59.9482H38.254V72.9729ZM57.7067 23.0271H38.254V36.0574H57.7067V23.0271ZM13.0169 54.5067H32.8434V41.4764H13.0169V54.5067Z" fill="#EE2E24"/>
</svg>
