<svg width="96" height="96" viewBox="0 0 96 96" fill="none" xmlns="http://www.w3.org/2000/svg">
<path d="M34.7975 17.1188H35.8733C35.8733 30.3553 35.8733 43.5921 35.8733 56.8286C29.3553 56.9114 22.9628 53.4667 19.3685 48.0443C16.7543 44.1857 15.5961 39.3864 16.1255 34.7578C16.6143 30.1643 18.7931 25.7821 22.1468 22.6058C25.5278 19.3358 30.1075 17.3835 34.7975 17.1188Z" fill="#FF6012"/>
<path d="M57.0787 17.1188H57.9354C57.9354 31.9472 57.9354 46.776 57.9354 61.606C57.8857 65.9186 56.1376 70.1719 53.1791 73.3077C50.0923 76.6369 45.6782 78.6737 41.1423 78.8812H40.2617C40.2617 64.3598 40.2633 49.8363 40.2617 35.3149C40.26 34.0337 40.3317 32.7487 40.5744 31.4878C41.3262 27.3997 43.5987 23.6186 46.8418 21.0176C49.7244 18.6722 53.3684 17.299 57.0787 17.1188Z" fill="#FF6012"/>
<path d="M62.3242 17.1188H79.9979C79.9979 23.001 79.9979 28.8831 79.9979 34.7636C74.1071 34.7652 68.2146 34.7652 62.3242 34.7652C62.3259 28.8831 62.3242 23.001 62.3242 17.1188Z" fill="#FF6012"/>
<path d="M62.3242 39.1768C68.2167 39.1768 74.1071 39.1751 80 39.1785C79.9979 45.0589 79.9979 50.9411 80 56.8215C74.1071 56.8249 68.2146 56.8232 62.3242 56.8215C62.3242 50.9411 62.3242 45.0589 62.3242 39.1768Z" fill="#FF6012"/>
<path d="M18.1991 61.2348C24.0916 61.2365 29.9824 61.2331 35.8749 61.2365C35.8733 67.1169 35.8733 72.9991 35.8733 78.8812H35.0456C30.3631 78.6807 25.8107 76.5172 22.7035 73.0102C19.8155 69.8153 18.1991 65.5362 18.1991 61.2348Z" fill="#FF6012"/>
</svg>
