<svg width="96" height="96" viewBox="0 0 96 96" fill="none" xmlns="http://www.w3.org/2000/svg">
<path d="M79.3693 48.7109C79.3693 46.08 79.1555 44.1598 78.6936 42.1691H48.6402V54.0442H66.2807C65.9253 56.9955 64.0048 61.4401 59.7368 64.4264L59.6767 64.8242L69.1791 72.1834L69.8375 72.2491C75.8836 66.6665 79.3693 58.4534 79.3693 48.7109Z" fill="#4285F4"/>
<path d="M48.6402 80C57.2826 80 64.538 77.1557 69.8375 72.2492L59.7368 64.4265C57.0337 66.3112 53.4059 67.6267 48.6402 67.6267C40.1753 67.6267 32.9913 62.0445 30.4301 54.3291L30.0549 54.361L20.1742 62.0053L20.0451 62.3643C25.3086 72.8176 36.1208 80 48.6402 80Z" fill="#34A853"/>
<path d="M30.4301 54.3291C29.7544 52.3379 29.3635 50.2044 29.3635 48.0002C29.3635 45.7957 29.7544 43.6621 30.3946 41.6709L30.3769 41.247L20.3722 33.48L20.0451 33.6353C17.8756 37.9734 16.6307 42.8444 16.6307 48.0002C16.6307 53.1556 17.8756 58.0266 20.0451 62.3643L30.4301 54.3291Z" fill="#FBBC05"/>
<path d="M48.6402 28.3734C54.6508 28.3734 58.7053 30.9688 61.0172 33.1379L70.0509 24.32C64.5026 19.1646 57.2826 16 48.6402 16C36.1208 16 25.3086 23.1821 20.0451 33.6353L30.3946 41.6709C32.9913 33.9556 40.1753 28.3734 48.6402 28.3734Z" fill="#EB4335"/>
</svg>
