<svg width="97" height="96" viewBox="0 0 97 96" fill="none" xmlns="http://www.w3.org/2000/svg">
<path d="M9.15552 39.863H4.05566V56.1331H9.15552V39.863Z" fill="#F9423A"/>
<path d="M39.3888 52.2239V48.9359H34.4503V56.1344H52.0273V52.2239H39.3888Z" fill="#F9423A"/>
<path d="M24.085 51.9552H16.1183V49.155H11.1789V56.1349H24.8875C29.826 56.1349 32.7591 53.8892 32.7591 49.8678V49.155H27.8184C27.7587 51.3696 26.1609 51.9552 24.085 51.9552Z" fill="#F9423A"/>
<path d="M16.1183 43.9081H24.085C26.1536 43.9081 27.7493 44.4924 27.8184 46.689H32.7591V46.1336C32.7591 42.1092 29.826 39.863 24.8875 39.863H11.1789V46.689H16.1187L16.1183 43.9081Z" fill="#F9423A"/>
<path d="M34.4503 46.689H39.3888V43.6408H52.0307V39.863H34.4503V46.689Z" fill="#F9423A"/>
<path d="M51.8139 46.4665H41.0831V49.3719H51.8139V46.4665Z" fill="#F9423A"/>
<path d="M85.5851 49.155H76.8069L71.9661 54.4851L67.1254 49.155H58.3664L52.0273 56.1344H58.5209L62.7414 51.1032L66.9747 56.1344H76.9614L81.184 51.1032L85.4101 56.137H92.0557L85.5851 49.155Z" fill="#F9423A"/>
<path d="M71.9661 41.515L76.6669 46.689H85.7072L91.9028 39.863H85.4101L81.1866 44.8956L76.9623 39.8665L66.9768 39.863L62.7414 44.8956L58.5209 39.8665H52.0273L58.2238 46.689H67.2714L71.9661 41.515Z" fill="#F9423A"/>
</svg>
