<svg width="97" height="96" viewBox="0 0 97 96" fill="none" xmlns="http://www.w3.org/2000/svg">
<path d="M13.0321 38.0436H10.6801L10.7193 57.6428H13.0321V38.0436Z" fill="black"/>
<path d="M6.79952 45.3737H4.48679V57.6428H6.79952V45.3737Z" fill="black"/>
<path d="M17.0303 38.0436H19.3821V57.6428H17.0695L17.0303 38.0436Z" fill="black"/>
<path d="M31.2592 57.6428H33.611V45.3737H31.2592V51.6847C31.2592 54.5069 29.8088 55.7612 27.8489 55.7612C26.3986 55.7612 25.0658 54.8989 25.0658 52.5862V45.3345H22.714V53.2526C22.714 56.5452 24.7915 57.9563 27.1826 57.9563C29.0641 57.9563 30.632 57.0548 31.22 55.7612H31.2592V57.6428Z" fill="black"/>
<path d="M36.551 45.3737H38.7461V47.2944H38.7853C39.0205 46.5496 40.5101 45.0601 42.7052 45.0601C44.5083 45.0601 45.7626 45.8441 46.5466 47.3336C47.3697 45.8441 48.9769 45.0601 50.4272 45.0601C54.1902 45.0601 55.0918 47.7648 55.0918 50.5087V57.6428H52.7791V50.8223C52.7791 48.9407 52.3871 47.2552 50.1136 47.2552C47.8401 47.2552 46.9777 48.784 46.9777 50.9791V57.6819H44.6259V51.2535C44.6259 48.9408 44.2731 47.2552 42.0388 47.2552C40.3533 47.2552 38.8637 48.5096 38.8637 51.2927V57.6819H36.5902L36.551 45.3737Z" fill="black"/>
<path d="M60.6578 45.3737H58.3059V57.6428H60.6578V45.3737Z" fill="black"/>
<path d="M66.3808 45.3737V47.2552H66.4201C67.008 45.9617 68.5759 45.0601 70.4574 45.0601C72.8485 45.0601 74.9261 46.4712 74.9261 49.7639V57.6819H72.5742V50.4303C72.5742 48.1176 71.2414 47.2552 69.7911 47.2552C67.8312 47.2552 66.3809 48.5096 66.3809 51.3318V57.6428H64.029V45.3737H66.3808Z" fill="black"/>
<path fill-rule="evenodd" clip-rule="evenodd" d="M79.5278 48.2102C79.4833 48.2448 79.439 48.2793 79.3946 48.3136L77.9835 46.824C79.277 45.6089 81.1193 45.0209 82.8441 45.0209C86.4895 45.0209 87.979 46.9809 87.979 49.0976V55.3692C87.979 56.2316 88.0183 56.9372 88.0967 57.6036H86.0192L86.0186 57.5951C85.9797 56.9707 85.9408 56.3464 85.9408 55.722H85.9015C84.8432 57.3292 83.4712 57.9171 81.5897 57.9171C79.3162 57.9171 77.3563 56.6236 77.3563 54.2325C77.3563 51.0967 80.3746 49.9991 84.0984 49.9991H85.8231V49.4895C85.8231 48.2352 84.8824 46.9024 82.8833 46.9024C81.2101 46.9024 80.3481 47.5726 79.5278 48.2102ZM85.8623 52.5078V51.7238H84.6472C82.4521 51.7238 79.7474 52.1158 79.7474 54.0757C79.7474 55.4869 80.7665 56.0748 82.3737 56.0748C84.9608 56.0748 85.8623 54.1541 85.8623 52.5078Z" fill="black"/>
<path d="M5.62357 39.494C4.76122 39.494 4.05566 40.1996 4.05566 41.0619C4.05566 41.9243 4.76122 42.6299 5.62357 42.6299C6.48594 42.6299 7.19152 41.9243 7.19152 41.0619C7.19152 40.1996 6.48594 39.494 5.62357 39.494Z" fill="black"/>
<path fill-rule="evenodd" clip-rule="evenodd" d="M90.0565 45.7657H89.7038V43.845H90.4485C90.8797 43.845 91.1149 44.0802 91.1149 44.433C91.1149 44.7465 90.9189 44.9033 90.6445 44.9426L91.1541 45.7657H90.8013L90.3309 44.9818H90.0565V45.7657ZM90.3309 44.1194H90.0565V44.6682H90.3309C90.5661 44.6682 90.8013 44.629 90.8013 44.3938C90.8013 44.1194 90.5661 44.1194 90.3309 44.1194Z" fill="black"/>
<path fill-rule="evenodd" clip-rule="evenodd" d="M90.3701 46.5105C89.4294 46.5105 88.6846 45.7657 88.6846 44.825C88.6846 43.8842 89.4294 43.1394 90.3701 43.1394C91.3109 43.1394 92.0557 43.8842 92.0557 44.825C92.0557 45.7657 91.3109 46.5105 90.3701 46.5105ZM90.3309 43.453C89.5861 43.453 88.959 44.0802 88.959 44.825C88.959 45.5697 89.5861 46.1969 90.3309 46.1969C91.0757 46.1969 91.7029 45.5697 91.7029 44.825C91.7029 44.0802 91.0757 43.453 90.3309 43.453Z" fill="black"/>
</svg>
