<svg width="96" height="96" viewBox="0 0 96 96" fill="none" xmlns="http://www.w3.org/2000/svg">
<path fill-rule="evenodd" clip-rule="evenodd" d="M90.7129 60.2213C90.4259 60.2202 90.1511 60.1057 89.9482 59.9028C89.7453 59.6999 89.6308 59.425 89.6297 59.1381C89.6422 58.8592 89.7617 58.5959 89.9635 58.403C90.1653 58.21 90.4337 58.1024 90.7129 58.1024C90.992 58.1024 91.2605 58.21 91.4622 58.403C91.664 58.5959 91.7836 58.8592 91.7961 59.1381C91.7961 59.7315 91.3117 60.2213 90.7129 60.2213V60.2213ZM90.7129 57.8575C90.003 57.8575 89.4268 58.4271 89.4268 59.1381C89.4268 59.8502 90.003 60.4069 90.7129 60.4069C91.425 60.4069 92 59.8491 92 59.1381C92 58.4271 91.4239 57.8575 90.7129 57.8575ZM90.4703 59.0421V58.6311H90.7076C90.8434 58.6311 90.9955 58.6718 90.9955 58.8284C90.9955 59.0034 90.8262 59.0421 90.6794 59.0421H90.4703ZM91.2546 58.8329C91.2546 58.5242 90.9904 58.41 90.7195 58.41H90.2124V59.8536H90.4701V59.2505H90.6568L90.9957 59.8546H91.3117L90.9211 59.2224C91.1262 59.1784 91.2542 59.0422 91.2542 58.8342L91.2546 58.8329ZM83.1554 40.5295C83.5051 40.5365 83.8528 40.4737 84.178 40.3448C84.5033 40.2158 84.7995 40.0233 85.0494 39.7785C85.2993 39.5336 85.4978 39.2414 85.6334 38.9189C85.7689 38.5964 85.8388 38.25 85.8389 37.9002C85.8389 37.5503 85.7692 37.204 85.6338 36.8814C85.4983 36.5588 85.2999 36.2665 85.0501 36.0216C84.8003 35.7766 84.5042 35.584 84.179 35.4549C83.8538 35.3258 83.5062 35.2629 83.1564 35.2698C82.4681 35.2836 81.8125 35.5667 81.3306 36.0584C80.8487 36.5501 80.5787 37.2111 80.5787 37.8996C80.5787 38.5881 80.8487 39.2492 81.3306 39.7409C81.8125 40.2326 82.4681 40.5157 83.1564 40.5295H83.1554ZM76.0994 42.8005V46.6586H80.9781V60.2225H85.3315V46.6586H90.2113V42.8005H76.0994ZM38.119 40.5295C38.4644 40.5296 38.8064 40.4616 39.1256 40.3295C39.4447 40.1974 39.7347 40.0036 39.979 39.7594C40.2232 39.5152 40.417 39.2253 40.5492 38.9062C40.6814 38.5871 40.7495 38.245 40.7495 37.8996C40.7495 37.5542 40.6814 37.2122 40.5492 36.8931C40.417 36.574 40.2232 36.2841 39.979 36.0399C39.7347 35.7956 39.4447 35.6019 39.1256 35.4698C38.8064 35.3377 38.4644 35.2697 38.119 35.2698C37.4306 35.2836 36.7751 35.5667 36.2932 36.0584C35.8112 36.5501 35.5413 37.2111 35.5413 37.8996C35.5413 38.5881 35.8112 39.2492 36.2932 39.7409C36.7751 40.2326 37.4306 40.5157 38.119 40.5295ZM31.0619 46.6576H35.9418V60.2225H40.294V46.6586H45.175V42.8005H31.063V46.6586L31.0619 46.6576ZM68.6949 60.2225H73.0493V42.8113H68.696V60.2225H68.6949ZM59.8868 52.3875C59.8868 54.7094 58.5792 57.1023 55.8237 57.1023C53.0304 57.1023 52.5589 54.5281 52.5589 52.4598V42.8113H48.2056V53.6931C48.2056 57.2491 50.0915 60.7307 54.6272 60.7307C57.2014 60.7307 59.2696 59.1706 60.0314 57.4293H60.1035V60.2225H64.239V42.8113H59.8867L59.8868 52.3875ZM22.4243 42.3031C19.849 42.3031 17.7818 43.8632 17.0201 45.6046H16.9467V42.8113H12.8124V60.2225H17.1647V50.6462C17.1647 48.3245 18.4712 45.9304 21.2278 45.9304C24.02 45.9304 24.4925 48.5057 24.4925 50.574V60.2225H28.8447V49.3387C28.8447 45.7848 26.9599 42.3021 22.4243 42.3021L22.4243 42.3031ZM4 60.2225H8.35227V42.8113H4V60.2225Z" fill="#0077C9"/>
</svg>
