<svg width="96" height="96" viewBox="0 0 96 96" fill="none" xmlns="http://www.w3.org/2000/svg">
<path d="M47.9927 36.1917C49.7084 36.1917 51.1015 37.5834 51.1015 39.2976C51.1015 41.0117 49.7084 42.4035 47.9927 42.4035C46.277 42.4035 44.8839 41.0117 44.8839 39.2976C44.8985 37.5834 46.2916 36.1917 47.9927 36.1917ZM47.9927 40.8798C48.8725 40.8798 49.5911 40.1619 49.5911 39.2829C49.5911 38.4039 48.8725 37.686 47.9927 37.686C47.1128 37.686 46.3943 38.4039 46.3943 39.2829C46.4089 40.1766 47.1275 40.8798 47.9927 40.8798ZM47.2008 59.6032V45.4947H48.7992V59.6032H47.2008ZM4 59.6032V45.4947H5.5984V59.6032H4ZM17.5351 45.4947H18.9722V59.6032H17.1685L12.2853 47.8095V59.6032H10.8482V45.4947H12.7545L17.5351 56.9221V45.4947ZM65.7804 59.6032V45.4947H67.3788V59.6032C67.3641 59.6032 65.7804 59.6032 65.7804 59.6032ZM91.9853 46.9305H86.9408V51.4428H91.6041V52.8786H86.9408V58.1821H91.9853V59.6178H85.4158V45.5094H92C91.9853 45.4947 91.9853 46.9305 91.9853 46.9305ZM79.3155 45.4947H80.9578L77.2918 59.6032H75.4294L71.9833 45.4947H73.6257L76.3679 57.8597L79.3155 45.4947ZM53.2571 45.4947H61.1171V46.9305H57.979V59.6032H56.3806V46.9305H53.2425C53.2571 46.9305 53.2571 45.4947 53.2571 45.4947ZM22.6382 45.4947H30.4982V46.9305H27.3748V59.6032H25.7764V46.9305H22.6382V45.4947ZM40.6752 45.4947H42.215V55.9405C42.1563 58.0649 40.4846 59.8083 38.3436 59.8083C36.2026 59.8083 34.5162 58.0649 34.4723 55.9405V45.4947H36.0707V55.9552C36.1 57.2151 37.0971 58.2553 38.3729 58.2553C39.6487 58.2553 40.6459 57.2151 40.6752 55.9552C40.6752 55.9552 40.6752 45.4947 40.6752 45.4947Z" fill="#1D22BA"/>
</svg>
