<svg width="96" height="96" viewBox="0 0 96 96" fill="none" xmlns="http://www.w3.org/2000/svg">
<path d="M77.3611 17.6571H60.1252L42.642 47.8404L60.1425 78.022H77.3769L59.3487 47.8404L77.3611 17.6571Z" fill="#443738"/>
<path d="M29.6433 40.6735C29.7701 43.3002 27.7721 45.5327 25.1802 45.6611C22.5883 45.7896 20.3839 43.7653 20.2571 41.1387C20.1303 38.5137 22.1291 36.2804 24.721 36.1519C27.3129 36.0234 29.5165 38.0485 29.6433 40.6735" fill="#915040"/>
<path d="M37.1533 42.9096C37.2234 44.3681 36.1137 45.6088 34.6741 45.6799C33.2344 45.7517 32.0097 44.6266 31.9396 43.1681C31.8687 41.7096 32.9792 40.4689 34.4189 40.3978C35.8586 40.3268 37.0832 41.4511 37.1533 42.9096Z" fill="#3CC7F3"/>
<path d="M38.4383 28.6299C35.7795 35.9601 37.3759 38.4152 37.3759 38.4152C31.6495 37.5471 22.5806 31.0284 22.7224 24.5424C22.82 20.0487 25.9223 16.2348 30.3539 16.0145C39.229 15.5749 39.6748 25.2198 38.4383 28.6299" fill="#7BC142"/>
<path d="M40.6893 60.7184C37.1539 50.3866 38.4912 46.7179 38.4912 46.7179C30.3894 48.7812 17.5852 59.5367 18.6901 68.8297C19.4556 75.2695 24.4401 80.3033 30.8344 79.9858C43.6395 79.3515 42.3833 65.6701 40.6893 60.7184" fill="#CD0954"/>
</svg>
