<svg width="97" height="96" viewBox="0 0 97 96" fill="none" xmlns="http://www.w3.org/2000/svg">
<path d="M17.2855 47.5167L35.4374 62.0301L17.2855 50.2155L31.6588 62.0301L17.2855 52.9143L27.881 62.0301L17.2855 55.615L24.1024 62.0301H6.83154L23.0138 33.9961L39.196 62.0301L17.2855 47.5167Z" fill="#6A7885"/>
<path d="M52.4871 53.4663H40.6511V52.6015L40.8568 52.5722C41.4509 52.543 42.0908 52.4278 42.4107 51.6488C42.6849 50.986 42.6392 49.7171 42.6392 48.9665V38.3532C42.6392 36.4497 42.7991 34.922 40.9482 34.72L40.6511 34.6907V33.825H47.1408V34.6907L46.8429 34.72C46.2039 34.7776 45.5184 34.8352 45.1756 35.6424C44.8786 36.3345 44.9243 37.5751 44.9243 38.3532V49.5726C44.9243 50.1212 44.9243 51.1012 45.1519 51.5629C45.4499 52.2257 46.3639 52.3702 46.8886 52.3702C49.8821 52.3702 52.1215 49.9475 53.6753 46.9479L54.3152 47.3236L52.4871 53.4663Z" fill="#6A7885"/>
<path d="M61.9191 46.2846C60.1824 46.4866 56.4357 47.0918 56.4357 49.9479C56.4357 51.418 57.4183 52.2838 58.5152 52.2838C59.7482 52.2838 60.9822 51.3604 61.9191 50.3511V46.2846ZM66.7398 52.7162C66.1694 53.4083 65.1639 53.7255 64.4089 53.6972C63.2901 53.6679 62.2618 53.0334 61.9191 51.62C60.5709 52.9466 59.3369 53.6972 57.6231 53.6972C56.0244 53.6972 54.1278 52.601 54.1278 50.2935C54.1278 48.3325 55.0875 47.4091 56.3891 46.6887C57.6012 45.9966 58.9256 45.6794 60.2281 45.5056L61.9191 45.2753V43.199C61.8734 42.3049 61.7591 41.5543 61.1193 41.0067C60.5252 40.5167 59.7482 40.4015 59.0627 40.4015C58.3543 40.4015 56.869 40.8339 56.869 41.9301V42.3049C56.869 43.2557 56.5729 44.0346 55.7045 44.0346C55.1561 44.0346 54.6305 43.487 54.6305 42.7657C54.6305 41.5543 55.6817 40.4874 56.4814 40.055C57.4403 39.5357 58.6742 39.2477 59.7025 39.2185C60.6623 39.1902 61.9191 39.5933 62.7646 40.1702C63.9985 41.0067 64.1128 42.1029 64.1128 43.7174V49.371C64.1128 50.5824 64.2499 52.399 65.3696 52.399C65.7124 52.399 66.0323 52.1969 66.3056 51.9665L66.7398 52.7162Z" fill="#6A7885"/>
<path d="M70.8716 49.8037C70.8716 51.3899 71.0773 52.4568 72.494 52.6013H72.7454V53.4671H66.9193V52.6013C68.4722 52.4285 68.6788 51.4475 68.6788 49.8037V43.8055C68.6788 42.19 68.4494 41.1231 67.0098 41.007H66.6451V40.1421L70.1404 39.5076H70.8716V41.497C71.877 40.1421 73.4309 39.2187 75.1676 39.2187C76.6301 39.2187 77.6574 39.738 78.3201 41.497C79.4627 40.2281 81.0623 39.2773 82.5019 39.2187C83.4845 39.1904 84.5585 39.6228 85.1754 40.6614C85.6782 41.497 85.7239 42.478 85.7239 43.459V49.8037C85.7239 51.3616 85.9067 52.4285 87.4606 52.6013V53.4671H81.6564V52.6013H81.8392C83.3017 52.4568 83.5302 51.5051 83.5302 49.8037V44.0934C83.5302 43.459 83.5302 42.7669 83.3474 42.1324C83.0732 41.2666 82.4562 40.719 81.7259 40.719C80.5138 40.719 79.3027 41.6424 78.2973 42.6224V49.8037C78.2973 51.5051 78.5267 52.4568 79.9883 52.6013H80.1711V53.4671H74.2307V52.6013H74.4135C75.8751 52.4568 76.1045 51.5051 76.1045 49.8037V44.0066C76.1045 42.4204 76.0131 40.719 74.3907 40.719C73.0644 40.719 71.7628 41.6424 70.8716 42.6224V49.8037Z" fill="#6A7885"/>
<path d="M87.0648 40.6557C87.0648 41.165 87.2622 41.6367 87.6169 41.9887C87.977 42.3434 88.4422 42.5372 88.9468 42.5372C89.4532 42.5372 89.9257 42.3379 90.2703 41.9887C90.6259 41.6312 90.8315 41.143 90.8315 40.6557C90.8315 40.0907 90.5656 39.5376 90.1332 39.192C89.7959 38.9178 89.37 38.7624 88.9523 38.7624C88.3819 38.7624 87.8463 39.022 87.4862 39.4663C87.2129 39.8 87.0648 40.2224 87.0648 40.6557ZM88.9468 38.9562C89.8718 38.9562 90.6369 39.7122 90.6369 40.6557C90.6369 41.5663 89.8992 42.3434 88.9468 42.3434C88.0044 42.3434 87.2512 41.5937 87.2512 40.6557C87.2512 39.7122 88.0099 38.9562 88.9468 38.9562ZM88.1305 39.5267V41.7162H88.5291V40.9181H88.9194C89.3645 40.9181 89.5181 41.1595 89.5236 41.7162H89.9531V41.6047C89.9531 41.1211 89.817 40.8742 89.4139 40.76C89.7959 40.6667 89.9861 40.4528 89.9861 40.1621C89.9861 39.7561 89.6762 39.5267 89.04 39.5267H88.1305ZM88.5291 39.8768H88.9523C89.3426 39.8768 89.5464 39.9536 89.5464 40.1785C89.5464 40.4363 89.3371 40.5689 88.9139 40.5689H88.5291V39.8768Z" fill="#6A7885"/>
<path d="M51.5922 57.827L51.3628 57.9358C50.7815 57.0819 50.1864 56.6797 49.2395 56.6797C49.0384 56.6797 48.7011 56.6879 48.5366 56.8388C48.3574 56.9978 48.3501 57.241 48.3501 57.4842V58.7733H48.8309C49.5548 58.7733 49.691 58.5721 49.7769 57.7429H50.021V60.2479H49.7769C49.7559 59.9874 49.7203 59.7369 49.5914 59.5184C49.4049 59.1838 49.1316 59.1673 48.8163 59.1673H48.3501V60.834C48.3501 61.0013 48.3647 61.2774 48.458 61.42C48.6079 61.6549 48.9598 61.6714 49.1892 61.6714C50.2943 61.6714 50.946 61.1439 51.5922 60.1309L51.8217 60.2479L51.169 62.0316H46.9873V61.7802L47.0586 61.772C47.2524 61.7474 47.4608 61.7391 47.5613 61.5041C47.6472 61.3121 47.6326 60.9428 47.6326 60.7252V57.6342C47.6326 57.082 47.6829 56.6377 47.0951 56.5874L46.9873 56.5792V56.3278H51.0968L51.5922 57.827Z" fill="#6A7885"/>
<path d="M43.3726 58.9826C43.6953 58.9826 44.0179 58.9744 44.2976 58.7486C44.5709 58.5301 44.7071 58.1708 44.7071 57.785C44.7071 56.8388 43.9896 56.6459 43.3223 56.6459C43.1139 56.6459 42.6624 56.6715 42.4759 56.7967C42.3041 56.9137 42.2968 57.0563 42.2968 57.2657V58.9826H43.3726ZM45.2875 61.1521C45.5106 61.5123 45.718 61.7052 46.0983 61.7802V62.0316H44.9L43.3013 59.3346H42.2968V60.7169C42.2968 61.2947 42.2538 61.7299 42.8562 61.7802H43.007V62.0316H40.891V61.7802L40.9842 61.772C41.1853 61.7555 41.4001 61.7391 41.508 61.5041C41.5939 61.303 41.5792 60.9428 41.5792 60.717V57.6342C41.5792 57.0564 41.6295 56.6294 41.0272 56.5874L40.891 56.5792V56.3278H43.7455C44.5709 56.3278 45.4594 56.6212 45.4594 57.7933C45.4594 58.6646 44.8287 59.1838 44.1404 59.2597L45.2875 61.1521Z" fill="#6A7885"/>
<path d="M57.065 57.8435L56.8355 57.9441C56.427 57.1898 55.8529 56.6047 55.0422 56.6047C54.5907 56.6047 53.9947 56.8808 53.9947 57.4915C53.9947 58.1617 54.6409 58.329 55.0788 58.4551L55.81 58.6563C56.5915 58.8738 57.4096 59.1417 57.4096 60.29C57.4096 61.5041 56.405 62.1742 55.4654 62.1742C54.927 62.1742 54.3466 62.006 53.9298 61.6047L53.7945 62.0316H53.5285L53.0624 60.1135L53.3284 60.013C53.7013 60.9345 54.4609 61.7555 55.3868 61.7555C56.0175 61.7555 56.6994 61.3368 56.6994 60.5158C56.6994 59.778 56.1464 59.6528 55.6446 59.5019L54.8493 59.2761C54.5258 59.1755 54.0952 59.0329 53.8229 58.8245C53.5075 58.5977 53.2845 58.179 53.2845 57.7429C53.2845 57.2739 53.4856 56.847 53.8082 56.5617C54.1455 56.2774 54.5541 56.1851 54.9636 56.1851C55.4151 56.1851 55.9105 56.3103 56.2835 56.6294L56.3694 56.3277H56.6271L57.065 57.8435Z" fill="#6A7885"/>
<path d="M63.2118 57.827L62.9823 57.9358C62.401 57.0819 61.806 56.6797 60.859 56.6797C60.6579 56.6797 60.3206 56.6879 60.1561 56.8388C59.9761 56.9978 59.9697 57.241 59.9697 57.4842V58.7733H60.4495C61.1744 58.7733 61.3106 58.5721 61.3965 57.7429H61.6405V60.2479H61.3965C61.3754 59.9874 61.3389 59.7369 61.2109 59.5184C61.0235 59.1838 60.7512 59.1673 60.4358 59.1673H59.9697V60.834C59.9697 61.0013 59.9834 61.2774 60.0766 61.42C60.2274 61.6549 60.5793 61.6714 60.8087 61.6714C61.9129 61.6714 62.5655 61.1439 63.2118 60.1309L63.4403 60.2479L62.7886 62.0316H58.6059V61.7802L58.6781 61.772C58.8718 61.7474 59.0793 61.7391 59.1808 61.5041C59.2667 61.3121 59.2521 60.9428 59.2521 60.7252V57.6342C59.2521 57.082 59.3023 56.6377 58.7137 56.5874L58.6059 56.5792V56.3278H62.7163L63.2118 57.827Z" fill="#6A7885"/>
<path d="M72.8509 58.9826C73.1735 58.9826 73.4971 58.9744 73.7759 58.7486C74.0483 58.5301 74.1854 58.1708 74.1854 57.785C74.1854 56.8388 73.4678 56.6459 72.8006 56.6459C72.5931 56.6459 72.1416 56.6715 71.9542 56.7967C71.7823 56.9137 71.7759 57.0563 71.7759 57.2657V58.9826H72.8509ZM74.7667 61.1521C74.9888 61.5123 75.1972 61.7052 75.5765 61.7802V62.0316H74.3791L72.7796 59.3346H71.7759V60.7169C71.7759 61.2947 71.7321 61.7299 72.3344 61.7802H72.4852V62.0316H70.3692V61.7802L70.4634 61.772C70.6636 61.7555 70.8793 61.7391 70.9862 61.5041C71.0721 61.303 71.0575 60.9428 71.0575 60.717V57.6342C71.0575 57.0564 71.1087 56.6294 70.5054 56.5874L70.3692 56.5792V56.3278H73.2238C74.0483 56.3278 74.9385 56.6212 74.9385 57.7933C74.9385 58.6646 74.3069 59.1838 73.6187 59.2597L74.7667 61.1521Z" fill="#6A7885"/>
<path d="M67.4437 59.5356L66.6257 57.0479L65.8295 59.5356H67.4437ZM68.6055 60.725C68.7846 61.2443 68.8925 61.7471 69.4592 61.7809V62.0323H67.4437V61.7809C67.6796 61.7471 68.0031 61.6886 68.0031 61.3613C68.0031 61.2196 67.9382 61.0267 67.8953 60.9005L67.5726 59.9122H65.729L65.5279 60.5403C65.4703 60.7168 65.3634 61.0431 65.3634 61.237C65.3634 61.6548 65.6504 61.7389 65.9941 61.7809V62.0323H64.0718V61.7809L64.1514 61.7636C64.495 61.6712 64.6166 61.5716 64.7967 61.2022C64.9612 60.8594 65.1404 60.2981 65.2628 59.9214L66.4602 56.3276H67.1275L68.6055 60.725Z" fill="#6A7885"/>
<path d="M82.7713 57.6341C82.7713 57.0819 82.8216 56.6376 82.2403 56.5873L82.1333 56.5791V56.3277H84.1552V56.5791H84.0766C83.8764 56.5956 83.668 56.6203 83.5675 56.8552C83.4806 57.0563 83.4889 57.4166 83.4889 57.6424V58.7897H86.0637V57.6424C86.0637 57.0819 86.114 56.6376 85.5263 56.5873L85.4184 56.5792V56.3277H87.4265V56.5792H87.3544C87.1606 56.6048 86.9531 56.6294 86.8599 56.8552C86.7666 57.0564 86.7813 57.4166 86.7813 57.6342V60.7252C86.7813 61.2774 86.731 61.7217 87.3187 61.772L87.4266 61.7802V62.0316H85.4184V61.7802H85.4897C85.6835 61.7637 85.8846 61.7299 85.9851 61.5041C86.0711 61.303 86.0637 60.9427 86.0637 60.7252V59.1417H83.4889V60.7252C83.4889 61.2856 83.445 61.7217 84.0337 61.772L84.1552 61.7802V62.0316H82.1334V61.7802H82.2047C82.3984 61.7555 82.5986 61.7299 82.7001 61.5041C82.786 61.3029 82.7714 60.9427 82.7714 60.7251L82.7713 57.6341Z" fill="#6A7885"/>
<path d="M80.9851 58.4221H80.7557L80.7274 58.3553C80.5619 57.9869 80.3462 57.4923 80.1031 57.1823C79.7877 56.7892 79.3791 56.6045 78.9121 56.6045C78.36 56.6045 77.9285 56.8971 77.6425 57.4255C77.3628 57.953 77.2768 58.6149 77.2768 59.2348C77.2768 59.8126 77.3774 60.4909 77.6781 60.9682C77.9944 61.471 78.5181 61.7553 79.0556 61.7553C79.7877 61.7553 80.4687 61.2278 80.827 60.4992L81.135 60.7003C80.6625 61.6639 79.8873 62.175 78.9413 62.175C77.456 62.175 76.4158 60.9188 76.4158 59.1927C76.4158 57.5928 77.413 56.1858 78.8261 56.1858C79.349 56.1858 79.859 56.3696 80.2539 56.7892L80.4111 56.4034H80.6414L80.9851 58.4221Z" fill="#6A7885"/>
</svg>
