<svg width="96" height="96" viewBox="0 0 96 96" fill="none" xmlns="http://www.w3.org/2000/svg">
<path d="M57.7383 17.6034C54.6249 16.7091 51.3252 16.2247 47.9027 16.2247C29.2989 16.2247 14.2162 30.4428 14.2162 47.9835C14.2162 65.5232 29.2989 79.7412 47.9027 79.7412C64.9985 79.7412 79.1092 67.7325 81.2867 52.1775L57.7383 17.6034Z" fill="white"/>
<path d="M61.9217 19.1572C57.5864 17.1112 53.5776 16.0964 48.4182 16.0055C29.8199 15.6822 14.4917 29.7435 14.1827 47.4125C14.1301 50.4722 14.5301 53.4388 15.3257 56.2563L24.9399 42.778L31.4495 52.9664C31.4495 52.9664 33.4056 55.1845 31.9218 57.4278C31.8298 57.5681 23.0901 69.6403 23.0901 69.6403C29.1262 75.9647 37.6182 79.8255 47.3026 79.9943C56.6976 80.1597 65.0844 76.7329 71.2948 70.9455L50.8456 38.6673C50.8456 38.6673 54.0708 34.1413 56.5924 30.5544C59.3694 26.6071 61.8691 29.3632 62.7031 30.6684C68.6987 40.0689 79.949 57.8979 79.949 57.8979L79.9545 57.7949C81.1074 55.1439 81.6981 54.3407 81.8219 50.5226L61.9217 19.1572ZM57.0702 57.8081C57.0702 57.8081 51.6269 65.7466 51.0691 66.5039C47.7387 71.0288 45.2894 65.8047 45.2894 65.8047L27.9679 38.5763C27.9679 38.5763 31.192 34.0514 33.7158 30.4646C36.4917 26.5161 38.9914 29.2734 39.8253 30.5786C45.8209 39.978 57.0702 57.8081 57.0702 57.8081" fill="#EE2223"/>
<path d="M67.2397 20.8614C67.2397 19.3699 68.4485 18.274 69.8754 18.274C71.2901 18.274 72.4967 19.3699 72.4967 20.8614C72.4967 22.3627 71.2901 23.4608 69.8754 23.4608C68.4485 23.4608 67.2397 22.3627 67.2397 20.8614ZM69.8754 23.0279C71.049 23.0279 71.9751 22.1074 71.9751 20.8614C71.9751 19.6329 71.049 18.7058 69.8754 18.7058C68.6885 18.7058 67.7614 19.6329 67.7614 20.8614C67.7614 22.1074 68.6885 23.0279 69.8754 23.0279V23.0279ZM69.3274 22.3627H68.8737V19.3699H70.0123C70.7192 19.3699 71.071 19.6329 71.071 20.2225C71.071 20.7584 70.7334 20.9918 70.2951 21.0466L71.1455 22.3627H70.637L69.848 21.0652H69.3274V22.3627V22.3627ZM69.8699 20.6827C70.2534 20.6827 70.5954 20.6543 70.5954 20.194C70.5954 19.8258 70.26 19.7545 69.9433 19.7545H69.3274V20.6827H69.8699Z" fill="#231F20"/>
</svg>
