<svg width="96" height="96" viewBox="0 0 96 96" fill="none" xmlns="http://www.w3.org/2000/svg">
<path d="M12.0201 51.9836C12.3887 51.9365 12.9774 51.8132 13.385 51.4434C12.9206 52.1144 12.3666 52.6806 11.7732 53.1894C9.86758 54.8256 6.15461 55.2345 4.50354 52.8727C3.34841 51.22 4.27543 48.8376 6.31866 48.467C7.3523 48.2819 8.35572 48.8057 8.98344 49.6055C9.17506 49.8491 9.32283 50.1222 9.47013 50.3945C9.6283 50.6868 9.78591 50.9781 9.99667 51.2308C10.4923 51.8281 11.269 52.0774 12.0201 51.9836Z" fill="#E51636"/>
<path d="M83.9806 51.9833C83.6106 51.9368 83.0239 51.8135 82.6154 51.4429C83.0794 52.1143 83.6347 52.6808 84.2284 53.1897C86.133 54.8257 89.8455 55.2342 91.496 52.8728C92.6519 51.22 91.7247 48.8373 89.6824 48.4671C88.6491 48.2817 87.6458 48.8055 87.0172 49.6056C86.8261 49.8491 86.6783 50.1218 86.531 50.3937C86.3726 50.6861 86.2146 50.9777 86.0038 51.2309C85.5085 51.8287 84.7313 52.0777 83.9806 51.9833Z" fill="#E51636"/>
<path d="M75.8118 38.8465C75.7605 38.8447 70.8839 38.8447 70.8388 38.8463C70.3044 38.8624 69.8624 39.3574 69.8371 39.8665C69.8101 40.4074 70.2802 40.9438 70.8388 40.9707C70.8904 40.9725 75.7669 40.9725 75.8118 40.9707C76.3465 40.9544 76.7885 40.4597 76.8135 39.9505C76.8408 39.4092 76.3707 38.8737 75.8118 38.8465Z" fill="#472380"/>
<path d="M44.7542 49.4437C44.686 49.1615 44.6498 48.8839 44.6304 48.6037C44.627 48.1994 44.627 47.6318 44.627 47.1094C44.678 45.3052 45.0148 42.1314 42.5677 42.1314C40.915 42.1314 39.9358 43.522 39.6583 43.9767C39.6188 42.7089 38.6187 41.7892 37.0908 41.7892C36.116 41.7892 35.537 42.565 35.537 42.565C35.537 42.565 36.488 42.8947 36.488 44.1722C36.4982 45.0872 36.4865 49.5413 36.488 49.5602C36.5254 50.3495 37.0769 51.0896 38.0634 51.0896C39.0499 51.0896 39.6621 50.3313 39.6621 49.5587V45.6083C39.7996 44.9626 40.163 44.3035 40.7108 44.3035C41.4214 44.3035 41.4613 45.0937 41.4646 45.0937L41.4613 48.9177C41.4646 49.0422 41.4804 49.1615 41.5021 49.2786C41.5372 49.4779 41.5975 49.6633 41.684 49.8335C42.063 50.6038 42.9016 51.1059 44.0284 51.1059C45.0026 51.1059 45.5817 50.3307 45.5817 50.3307C45.5817 50.3307 45.01 50.1292 44.7542 49.4437" fill="#472380"/>
<path d="M68.277 49.4437C68.2082 49.1615 68.1713 48.8839 68.1531 48.6037L68.156 39.1391C68.156 38.2186 67.4098 37.4724 66.4893 37.4724C65.5686 37.4724 64.8225 38.2186 64.8225 39.1391L64.8247 47.5212C64.833 48.2763 64.7588 49.0478 65.115 49.7415C65.4926 50.512 66.4241 51.1059 67.5496 51.1059C68.5266 51.1059 69.1045 50.3307 69.1045 50.3307C69.1045 50.3307 68.5341 50.1292 68.277 49.4437" fill="#472380"/>
<path d="M31.0324 42.0488C28.531 42.0488 26.5038 44.0759 26.5038 46.5776C26.5038 49.0788 28.531 51.1059 31.0324 51.1059C33.5333 51.1059 35.5613 49.0788 35.5613 46.5776C35.5613 44.0759 33.5333 42.0488 31.0324 42.0488ZM31.0656 49.1824V49.1847C31.062 49.1847 31.059 49.1833 31.0556 49.1833C31.0521 49.1833 31.0491 49.1847 31.0463 49.1847V49.1824C30.1913 49.1669 29.7626 48.1844 29.7626 46.5776C29.7626 44.9732 30.3057 43.9894 31.0463 43.9718V43.9715C31.049 43.9715 31.0522 43.9715 31.0556 43.9718C31.0588 43.9715 31.0618 43.9715 31.0656 43.9715V43.9718C31.8053 43.9894 32.349 44.9732 32.349 46.5776C32.349 48.1844 31.9211 49.1669 31.0656 49.1824Z" fill="#472380"/>
<path d="M54.9404 49.4437C54.8713 49.1615 54.8346 48.8839 54.8164 48.6037L54.8186 39.1391C54.8186 38.2186 54.0726 37.4724 53.1519 37.4724C52.2313 37.4724 51.4851 38.2186 51.4851 39.1391L51.4785 43.6221C51.0776 43.0639 50.1946 42.1206 48.8033 42.1206C44.9755 42.1206 44.7336 48.9369 47.3585 50.6231C48.0985 51.0978 49.2146 51.2199 50.059 51.0005C50.6421 50.8485 51.5614 50.2757 51.7091 49.5917C51.7302 49.6418 51.7526 49.6918 51.7783 49.7415C52.156 50.512 53.0873 51.1059 54.213 51.1059C55.1897 51.1059 55.7679 50.3307 55.7679 50.3307C55.7679 50.3307 55.1975 50.1292 54.9404 49.4437H54.9404ZM49.9731 48.8928V48.8941C49.9696 48.8941 49.9669 48.8938 49.9639 48.8938C49.96 48.8938 49.9581 48.8941 49.9537 48.8941V48.8928C49.0985 48.8801 48.6705 48.0227 48.6705 46.6236C48.6705 45.2257 49.213 44.3694 49.9537 44.3537V44.3523C49.9581 44.3523 49.96 44.3537 49.9639 44.3537C49.9669 44.3537 49.9696 44.3523 49.9731 44.3523V44.3537C50.7146 44.3693 51.2572 45.2257 51.2572 46.6236C51.2572 48.0227 50.8283 48.8801 49.9731 48.8928Z" fill="#472380"/>
<path d="M63.6123 48.3038C63.6123 48.3038 63.1234 48.9735 61.2272 48.9735C59.3307 48.9735 58.9239 47.4993 58.9239 47.4993C61.6874 47.4993 64.0055 47.3142 64.0055 45.0766C64.0055 42.8394 61.4766 42.1014 59.9773 42.1014C57.5014 42.1014 55.6924 44.076 55.6924 46.6823C55.6924 49.6175 58.048 51.1058 60.0034 51.1058C63.4471 51.1058 63.6123 48.3038 63.6123 48.3038V48.3038ZM58.7446 46.0637C58.8416 45.3495 59.0128 44.4493 59.6552 44.0325C60.1888 43.6859 60.9359 44.0804 60.9473 44.7477C60.9595 45.4525 60.5038 45.9324 59.8694 46.0659C59.802 46.0803 58.7353 46.1336 58.7446 46.0637" fill="#472380"/>
<path d="M76.9463 48.3038C76.9463 48.3038 76.4575 48.9735 74.5613 48.9735C72.6648 48.9735 72.2579 47.4993 72.2579 47.4993C75.0214 47.4993 77.3396 47.3142 77.3396 45.0766C77.3396 42.8394 74.8107 42.1014 73.3114 42.1014C70.8355 42.1014 69.0265 44.076 69.0265 46.6823C69.0265 49.6175 71.382 51.1058 73.3375 51.1058C76.7812 51.1058 76.9463 48.3038 76.9463 48.3038V48.3038ZM72.0787 46.0637C72.1757 45.3495 72.3469 44.4493 72.9893 44.0325C73.5229 43.6859 74.27 44.0804 74.2814 44.7477C74.2936 45.4525 73.8378 45.9324 73.2035 46.0659C73.1361 46.0803 72.0694 46.1336 72.0787 46.0637" fill="#472380"/>
<path d="M83.2003 48.546H81.3011C81.4408 48.546 82.8457 47.3614 83.3116 46.9666C84.5316 45.9312 86.7254 44.4374 86.086 42.5023L86.0875 42.5159C85.9702 42.0551 85.6154 41.7892 85.6154 41.7892C85.6154 41.7892 85.4827 42.1654 85.0317 42.3337C84.8474 42.3783 84.6631 42.412 84.4793 42.4229C84.3276 42.4256 79.1711 42.4229 79.1711 42.4229C78.4737 42.422 77.8892 42.9829 77.8796 43.6445C77.8715 44.3118 78.4231 44.8469 79.1299 44.8564L82.1381 44.8756C80.7437 45.6532 79.0785 46.5742 78.233 47.9804C77.7502 48.7875 77.2333 50.0319 77.4297 50.9864C78.098 50.394 79.8519 49.8205 81.1871 50.0993C81.687 50.2037 82.2184 50.4589 82.6505 50.729C85.1546 52.2953 86.6595 49.2319 85.4623 47.8816C85.4623 47.8816 84.7797 48.546 83.2003 48.546" fill="#472380"/>
<path d="M26.7487 50.4513C25.2128 48.7671 24.7324 45.9665 24.6378 44.105C24.5563 42.4968 24.6433 39.7116 25.9106 38.9011C25.4863 38.3678 24.6495 38.153 24.0135 38.153C22.5847 38.153 21.8959 39.1047 21.4073 39.789C21.2459 40.0151 18.8433 43.3295 18.8433 43.3295C18.8433 43.3295 16.8223 40.2031 16.574 39.8276C16.2307 39.3094 15.5879 38.357 14.4583 38.1922C13.9718 38.1212 12.7099 38.0566 12.0231 38.9993C13.207 39.9466 13.1774 42.3589 12.9203 44.0058C12.1491 48.9494 10.0456 49.4047 10.0456 49.4047C11.1231 52.3146 13.898 51.1649 14.6821 48.8448C15.1899 47.3368 15.5179 45.4278 15.5935 43.8448L18.6387 48.5161C18.6387 48.5161 22.0869 43.8593 22.0869 43.8634C21.519 52.099 24.3473 54.4337 26.8207 54.4337C29.2961 54.4337 30.1385 52.1699 30.1385 52.1699C28.8 52.0891 27.6286 51.4159 26.7487 50.4513" fill="#472380"/>
<path d="M79.6377 57.8103C79.6082 57.6893 79.5925 57.5706 79.5846 57.4506C79.5845 57.4445 79.5846 57.3173 79.5846 57.1101L79.5849 56.4094C79.5854 55.1309 79.5862 53.1262 79.5851 53.0916C79.5742 52.7325 79.2421 52.4363 78.9006 52.4191C78.5377 52.401 78.1783 52.7166 78.1599 53.0916C78.1583 53.1404 78.1599 56.9876 78.1599 56.9876C78.1605 57.0392 78.1601 57.091 78.1598 57.1428C78.158 57.4151 78.1562 57.6881 78.2841 57.9378C78.4461 58.2677 78.8444 58.5217 79.3263 58.5217C79.7445 58.5217 79.9918 58.19 79.9918 58.19C79.9918 58.19 79.7477 58.1035 79.6377 57.8103Z" fill="#472380"/>
<path d="M34.4728 53.1298C34.5025 53.2509 34.5181 53.3698 34.526 53.4894C34.5261 53.4997 34.5259 53.8509 34.5257 54.3499C34.5252 55.6099 34.5243 57.8125 34.5258 57.8491C34.5366 58.208 34.8686 58.5042 35.21 58.5211C35.5731 58.5394 35.9325 58.2238 35.9507 57.8491C35.9522 57.8002 35.9507 53.9528 35.9507 53.9528C35.9501 53.9014 35.9505 53.8498 35.9508 53.7982C35.9527 53.5255 35.9546 53.2522 35.8265 53.0028C35.6647 52.6728 35.266 52.4184 34.7845 52.4184C34.3662 52.4184 34.1186 52.7505 34.1186 52.7505C34.1186 52.7505 34.3629 52.8365 34.4728 53.1298Z" fill="#472380"/>
<path d="M52.556 55.457C52.6801 55.2533 53.1187 54.6303 53.8595 54.6303C54.8029 54.626 54.794 55.6466 54.7858 56.598C54.785 56.6859 54.7843 56.7733 54.7843 56.8591L54.7861 57.8464C54.768 58.2206 54.4087 58.5358 54.0461 58.5178C53.7046 58.5009 53.3728 58.2047 53.3618 57.8464L53.3649 55.9573L53.3648 55.9566L53.3643 55.9529C53.3597 55.9122 53.3249 55.6031 53.0275 55.6031C52.7817 55.6031 52.6189 55.8986 52.5577 56.1878L52.5518 56.1918C52.5521 56.9447 52.5517 57.8189 52.5509 57.8465C52.5327 58.2207 52.1734 58.5359 51.8109 58.5179C51.4693 58.501 51.1376 58.2048 51.1265 57.8465C51.1254 57.8103 51.1254 55.1316 51.1265 55.0829C51.1445 54.7086 51.5043 54.421 51.8669 54.4393C52.2081 54.4559 52.54 54.7241 52.5509 55.0829L52.5509 55.1028C52.5511 55.1531 52.5516 55.2923 52.5517 55.4602L52.556 55.457Z" fill="#472380"/>
<path d="M72.0686 54.6303C71.3279 54.6303 70.8892 55.2533 70.765 55.457L70.7609 55.4602C70.7608 55.254 70.7601 55.0911 70.7601 55.0829C70.749 54.7241 70.4173 54.4559 70.0761 54.4393C69.7135 54.421 69.3536 54.7086 69.3357 55.0829C69.3345 55.1316 69.3345 57.8103 69.3357 57.8465C69.3466 58.2048 69.6785 58.501 70.0199 58.5179C70.3825 58.5359 70.7419 58.2207 70.7601 57.8465C70.7609 57.8189 70.7614 56.9447 70.7611 56.1918L70.7669 56.1878C70.828 55.8986 70.9909 55.6031 71.2367 55.6031C71.5349 55.6031 71.5692 55.9143 71.5735 55.9533C71.5738 55.9559 71.5739 55.9573 71.574 55.9573L71.571 57.8464C71.5819 58.2047 71.9138 58.5009 72.2552 58.5178C72.6178 58.5358 72.977 58.2206 72.9954 57.8464L72.9933 56.8591C72.9933 56.7732 72.9941 56.6857 72.9948 56.5977C73.0031 55.6463 73.012 54.626 72.0686 54.6303Z" fill="#472380"/>
<path d="M38.0929 55.457C38.2171 55.2533 38.6558 54.6303 39.3965 54.6303C40.3399 54.626 40.331 55.6463 40.3228 56.5977C40.322 56.6857 40.3212 56.7732 40.3212 56.8591L40.3233 57.8464C40.3051 58.2206 39.9459 58.5358 39.5831 58.5178C39.2417 58.5009 38.9098 58.2047 38.8991 57.8464L38.9021 55.9573C38.902 55.9573 38.9018 55.9557 38.9015 55.9529C38.8969 55.9122 38.862 55.6031 38.5647 55.6031C38.3188 55.6031 38.1559 55.8986 38.0948 56.1878L38.0888 56.1918C38.0891 56.9447 38.0888 57.8189 38.088 57.8465C38.0697 58.2207 37.7104 58.5359 37.348 58.5179C37.0066 58.501 36.6747 58.2048 36.6636 57.8465C36.6624 57.8103 36.6624 55.1316 36.6636 55.0829C36.6815 54.7086 37.0414 54.421 37.4038 54.4393C37.7454 54.4559 38.0771 54.7241 38.088 55.0829L38.0881 55.1133C38.0882 55.1708 38.0886 55.3029 38.0888 55.4602L38.0929 55.457Z" fill="#472380"/>
<path fill-rule="evenodd" clip-rule="evenodd" d="M66.9047 54.4514C65.784 54.4514 64.8755 55.3594 64.8755 56.4802C64.8755 57.6012 65.784 58.5089 66.9047 58.5089C68.025 58.5089 68.9337 57.6012 68.9337 56.4802C68.9337 55.3594 68.025 54.4514 66.9047 54.4514ZM66.9194 57.6472V57.6481C66.9184 57.6481 66.9176 57.648 66.9168 57.6479C66.9161 57.6479 66.9154 57.6478 66.9146 57.6478C66.9135 57.6478 66.9126 57.6479 66.912 57.648L66.911 57.6481V57.6472C66.5274 57.6398 66.3357 57.2002 66.3357 56.4802C66.3357 55.7614 66.5786 55.3208 66.911 55.3129L66.9117 55.3128C66.9122 55.3128 66.9129 55.3128 66.9137 55.3128L66.9146 55.3129C66.9162 55.3127 66.9175 55.3128 66.9194 55.3128C67.2508 55.3206 67.4939 55.7614 67.4939 56.4802C67.4939 57.2002 67.3024 57.6398 66.9194 57.6472Z" fill="#472380"/>
<path d="M64.4234 53.6395C64.4234 54.0292 64.1071 54.3449 63.7173 54.3449C63.3271 54.3449 63.0113 54.0292 63.0113 53.6395C63.0113 53.2491 63.3271 52.9329 63.7173 52.9329C64.1071 52.9329 64.4234 53.2491 64.4234 53.6395Z" fill="#472380"/>
<path fill-rule="evenodd" clip-rule="evenodd" d="M59.3279 55.0339C59.3162 54.6583 58.9628 54.3479 58.6056 54.3301C58.2253 54.3112 57.849 54.6415 57.8298 55.0339C57.8297 55.042 57.8294 55.0529 57.8289 55.0645L57.8275 55.0974C57.8268 55.1128 57.8262 55.1256 57.8262 55.13C57.6458 54.8798 57.2508 54.4573 56.6272 54.4573C54.9123 54.4573 54.8036 57.5113 55.9797 58.2667C56.3116 58.4795 56.8117 58.5339 57.1902 58.4358C57.404 58.38 57.7189 58.1976 57.8623 57.9647C57.9501 58.2647 58.2471 58.4931 58.5525 58.5083C58.9323 58.5271 59.3088 58.1973 59.3279 57.8048C59.3295 57.7537 59.329 55.0682 59.3279 55.0339ZM57.1513 57.4917V57.4922L57.1495 57.4921L57.1474 57.492C57.1455 57.492 57.1446 57.4922 57.1428 57.4922V57.4917C56.7595 57.4857 56.5679 57.1013 56.5679 56.4745C56.5679 55.8484 56.8107 55.4648 57.1428 55.4575V55.457C57.1437 55.457 57.1443 55.4572 57.145 55.4573C57.1457 55.4574 57.1464 55.4575 57.1474 55.4575C57.1486 55.4575 57.1503 55.457 57.1513 55.457V55.4575C57.4834 55.4648 57.727 55.8484 57.727 56.4745C57.727 57.1013 57.5345 57.4857 57.1513 57.4917Z" fill="#472380"/>
<path fill-rule="evenodd" clip-rule="evenodd" d="M76.7996 54.3301C77.1574 54.3479 77.5108 54.6583 77.5219 55.0339C77.5227 55.0682 77.5236 57.7537 77.5219 57.8048C77.5029 58.1973 77.1266 58.5271 76.7466 58.5083C76.4416 58.4931 76.1442 58.2647 76.0567 57.9647C75.9135 58.1976 75.5981 58.38 75.3841 58.4358C75.0061 58.5339 74.5059 58.4795 74.174 58.2667C72.9977 57.5113 73.1066 54.4573 74.8215 54.4573C75.4448 54.4573 75.8406 54.8798 76.02 55.13C76.02 55.1257 76.0206 55.1132 76.0214 55.0982L76.0217 55.093L76.0217 55.0915L76.0228 55.07C76.0235 55.0564 76.0241 55.0433 76.0243 55.0339C76.0434 54.6415 76.4196 54.3112 76.7996 54.3301ZM75.3459 57.4922V57.4917C75.7289 57.4857 75.9211 57.1013 75.9211 56.4745C75.9211 55.8484 75.678 55.4648 75.3459 55.4575V55.457C75.3442 55.457 75.3431 55.4575 75.3418 55.4575C75.3399 55.4575 75.3391 55.457 75.3369 55.457V55.4575C75.0052 55.4648 74.762 55.8484 74.762 56.4745C74.762 57.1013 74.9539 57.4857 75.3369 57.4917V57.4922C75.3383 57.4922 75.3391 57.4921 75.3399 57.4921L75.3418 57.492L75.3436 57.4921L75.3459 57.4922Z" fill="#472380"/>
<path d="M63.7832 54.7551C64.1338 54.7847 64.4117 55.0622 64.4286 55.416C64.4288 55.418 64.4286 55.4735 64.4283 55.5626L64.4283 55.5719C64.4272 55.8615 64.4251 56.4813 64.4286 56.7906H64.4272L64.4286 57.8882C64.4286 58.2348 64.0294 58.5091 63.7123 58.5091C63.6972 58.5091 63.683 58.507 63.668 58.5049C63.6626 58.5041 63.6571 58.5033 63.6514 58.5026C63.3015 58.4731 63.0234 58.1955 63.0063 57.8416C63.0063 57.8407 63.0063 57.8307 63.0063 57.813L63.0066 57.7358V57.733C63.0076 57.5107 63.0097 56.999 63.0063 56.6833H63.0081L63.0063 55.3697C63.0063 55.0229 63.4056 54.7486 63.7226 54.7486C63.736 54.7486 63.7489 54.7505 63.7622 54.7524C63.7691 54.7534 63.776 54.7544 63.7832 54.7551Z" fill="#472380"/>
<path d="M49.9925 54.5813C49.5886 54.5979 49.3797 54.886 49.1109 55.2566L49.0725 55.3096C49.0709 55.312 49.0719 55.2075 49.0724 55.1524C49.0726 55.1342 49.0727 55.1214 49.0726 55.1196C49.0616 54.7611 48.73 54.465 48.3891 54.4478C48.0259 54.4297 47.6666 54.745 47.6486 55.1196V57.8549H47.6473C47.6582 58.2137 47.9898 58.51 48.3314 58.5268C48.6908 58.5445 49.0462 58.2349 49.0704 57.8654H49.0736L49.0733 56.1327C49.0948 55.8786 49.2055 55.5613 49.4099 55.5629C49.5248 55.5639 49.5468 55.675 49.5733 55.8084C49.6135 56.0108 49.6638 56.2646 50.0634 56.2646C51.0145 56.2646 51.116 54.5349 49.9925 54.5813Z" fill="#472380"/>
<path fill-rule="evenodd" clip-rule="evenodd" d="M47.0875 57.2517C47.0875 57.2517 46.8683 57.552 46.0178 57.552C45.1671 57.552 44.984 56.8909 44.984 56.8909C46.2241 56.8909 47.2639 56.8077 47.2639 55.8039C47.2639 54.8004 46.1297 54.4694 45.457 54.4694C44.3463 54.4694 43.5346 55.355 43.5346 56.5241C43.5346 57.841 44.5914 58.5086 45.4687 58.5086C47.0135 58.5086 47.0875 57.2517 47.0875 57.2517ZM44.9037 56.2466C44.947 55.9262 45.024 55.5224 45.3126 55.3355C45.5518 55.18 45.887 55.3571 45.8922 55.6562C45.8976 55.9724 45.6932 56.1877 45.4086 56.2477C45.3784 56.254 44.8994 56.278 44.9037 56.2466Z" fill="#472380"/>
<path d="M43.4484 57.7591C43.4484 57.7591 43.0781 58.5091 42.3935 58.5091C41.83 58.5091 41.1364 58.0114 41.1075 57.291C41.107 57.2843 41.1035 56.2477 41.1008 55.3812H40.9096C40.8096 55.3812 40.6326 55.3216 40.6326 55.0612C40.6326 54.801 40.8318 54.7458 40.9302 54.7458H41.0993C41.0985 54.4428 41.0981 54.2347 41.0986 54.2217C41.1165 53.848 41.4753 53.5335 41.8371 53.5517C42.1777 53.5688 42.5173 53.8639 42.5281 54.2217V54.7455H43.1311C43.2146 54.7455 43.408 54.8001 43.408 55.0653C43.408 55.3305 43.2146 55.3812 43.1102 55.3812H42.5281V56.9724C42.5281 57.4887 42.9726 57.7567 43.4504 57.7583L43.4484 57.7591Z" fill="#472380"/>
<path d="M62.5065 57.7591C62.5065 57.7591 62.136 58.5091 61.4517 58.5091C60.888 58.5091 60.1945 58.0114 60.1657 57.291C60.1652 57.2852 60.1626 56.5012 60.1601 55.7272L60.1589 55.3812H59.9677C59.8675 55.3812 59.6908 55.3216 59.6908 55.0612C59.6908 54.801 59.8898 54.7458 59.9884 54.7458H60.1573C60.1564 54.4428 60.1562 54.2347 60.1567 54.2217C60.1748 53.848 60.5334 53.5335 60.8952 53.5517C61.2358 53.5688 61.5752 53.8639 61.5862 54.2217V54.7455H62.1892C62.2726 54.7455 62.466 54.8001 62.466 55.0653C62.466 55.3305 62.2726 55.3812 62.1682 55.3812H61.5862V56.9724C61.5862 57.4887 62.0307 57.7567 62.5084 57.7583L62.5065 57.7591Z" fill="#472380"/>
</svg>
