<svg width="96" height="96" viewBox="0 0 96 96" fill="none" xmlns="http://www.w3.org/2000/svg">
<path d="M19.7783 55.6312C19.7783 58.3849 20.3805 60.495 21.1712 61.7729C22.2056 63.4463 23.7456 64.1543 25.3178 64.1543C27.3498 64.1543 29.2024 63.6532 32.779 58.7021C35.643 54.7394 39.0172 49.1723 41.2882 45.6785L45.136 39.7666C47.8069 35.6613 50.8962 31.0964 54.4451 28.0026C57.3367 25.4741 60.4628 24.072 63.6026 24.072C68.8801 24.072 73.9047 27.1291 77.7479 32.8709C81.9589 39.1552 84 47.0668 84 55.2359C84 60.0904 83.0438 63.6578 81.4164 66.4804C79.8442 69.2065 76.7825 71.928 71.6246 71.928V64.1543C76.0378 64.1543 77.1411 60.095 77.1411 55.4519C77.1411 48.8321 75.5965 41.4859 72.1992 36.236C69.7903 32.5123 66.6643 30.2368 63.2256 30.2368C59.5112 30.2368 56.5184 33.0456 53.1534 38.0472C51.3651 40.7044 49.5308 43.9453 47.4713 47.6L45.2004 51.6225C40.6446 59.7088 39.4907 61.5523 37.2106 64.591C33.2203 69.9098 29.8092 71.928 25.3178 71.928C19.9944 71.928 16.6247 69.6202 14.5422 66.1448C12.8367 63.3084 12 59.5893 12 55.3554L19.7783 55.6312Z" fill="#0081FB"/>
<path d="M18.1326 33.418C21.6999 27.9198 26.8441 24.072 32.7468 24.072C36.1624 24.072 39.5597 25.0834 43.1087 27.9842C46.9886 31.1516 51.126 36.3739 56.2886 44.9751L58.1366 48.0598C62.605 55.5071 65.1472 59.3365 66.6321 61.1431C68.5445 63.4647 69.8869 64.1543 71.6246 64.1543C76.0378 64.1543 77.1411 60.095 77.1411 55.4519L84 55.2359C84 60.0904 83.0438 63.6578 81.4164 66.4804C79.8442 69.2065 76.7825 71.928 71.6246 71.928C68.4204 71.928 65.5794 71.2292 62.4395 68.2687C60.026 65.9931 57.2034 61.9522 55.0336 58.3159L48.5792 47.5219C45.3383 42.1065 42.3639 38.0702 40.6446 36.2406C38.7966 34.273 36.4153 31.8963 32.6227 31.8963C29.5472 31.8963 26.9406 34.0524 24.757 37.3531L18.1326 33.418Z" fill="url(#paint0_linear_314_3936)"/>
<path d="M32.6227 31.8963C29.5472 31.8963 26.9406 34.0524 24.757 37.3531C21.6677 42.0146 19.7783 48.9608 19.7783 55.6312C19.7783 58.3849 20.3805 60.495 21.1712 61.7729L14.5422 66.1448C12.8367 63.3084 12 59.5893 12 55.3554C12 47.6506 14.1147 39.6195 18.1325 33.418C21.6999 27.9198 26.8441 24.072 32.7468 24.072L32.6227 31.8963Z" fill="url(#paint1_linear_314_3936)"/>
<defs>
<linearGradient id="paint0_linear_314_3936" x1="27.2762" y1="53.3878" x2="76.8515" y2="55.8932" gradientUnits="userSpaceOnUse">
<stop stop-color="#0064E1"/>
<stop offset="0.4" stop-color="#0064E1"/>
<stop offset="0.8" stop-color="#0073EE"/>
<stop offset="1" stop-color="#0082FB"/>
</linearGradient>
<linearGradient id="paint1_linear_314_3936" x1="23.2675" y1="58.8998" x2="23.2675" y2="40.6078" gradientUnits="userSpaceOnUse">
<stop stop-color="#0082FB"/>
<stop offset="1" stop-color="#0064E0"/>
</linearGradient>
</defs>
</svg>
