<svg width="96" height="96" viewBox="0 0 96 96" fill="none" xmlns="http://www.w3.org/2000/svg">
<path fill-rule="evenodd" clip-rule="evenodd" d="M85.1049 56.7996H83.8499C83.5581 56.7996 83.4062 57.0154 83.4062 57.4251C83.4062 57.8128 83.5581 58.0287 83.8499 58.0287H88.6743C88.9821 58.0287 89.136 57.8128 89.136 57.4251C89.136 57.0154 88.9821 56.7996 88.6743 56.7996H85.1049Z" fill="#28ABE1"/>
<path fill-rule="evenodd" clip-rule="evenodd" d="M77.7463 56.7996H76.4932C76.2074 56.7996 76.0375 57.0154 76.0375 57.4251C76.0375 57.8128 76.2074 58.0287 76.4932 58.0287H81.3137C81.6155 58.0287 81.7673 57.8128 81.7673 57.4251C81.7673 57.0154 81.6155 56.7996 81.3137 56.7996H77.7463Z" fill="#3DB3E3"/>
<path fill-rule="evenodd" clip-rule="evenodd" d="M70.7794 56.7996H69.5243C69.2185 56.7996 69.0806 57.0154 69.0806 57.4251C69.0806 57.8128 69.2186 58.0287 69.5243 58.0287H74.3488C74.6565 58.0287 74.8104 57.8128 74.8104 57.4251C74.8104 57.0154 74.6565 56.7996 74.3488 56.7996H70.7794Z" fill="#4AB8E6"/>
<path fill-rule="evenodd" clip-rule="evenodd" d="M63.4207 56.7996H62.1737C61.8659 56.7996 61.712 57.0154 61.712 57.4251C61.712 57.8128 61.8659 58.0287 62.1737 58.0287H66.9822C67.2899 58.0287 67.4418 57.8128 67.4418 57.4251C67.4418 57.0154 67.2899 56.7996 66.9822 56.7996H63.4207Z" fill="#57BDE8"/>
<path fill-rule="evenodd" clip-rule="evenodd" d="M56.0541 56.7996H54.805C54.4992 56.7996 54.3454 57.0154 54.3454 57.4251C54.3454 57.8128 54.4992 58.0287 54.805 58.0287H59.6155C59.9213 58.0287 60.0752 57.8128 60.0752 57.4251C60.0752 57.0154 59.9213 56.7996 59.6155 56.7996H56.0541Z" fill="#63C2EB"/>
<path fill-rule="evenodd" clip-rule="evenodd" d="M49.0951 56.7996H47.848C47.5403 56.7996 47.3864 57.0154 47.3864 57.4251C47.3864 57.8128 47.5403 58.0287 47.848 58.0287H52.6565C52.9643 58.0287 53.1162 57.8128 53.1162 57.4251C53.1162 57.0154 52.9643 56.7996 52.6565 56.7996H49.0951Z" fill="#70C7EB"/>
<path fill-rule="evenodd" clip-rule="evenodd" d="M41.7286 56.7996H40.4795C40.1737 56.7996 40.0198 57.0154 40.0198 57.4251C40.0198 57.8128 40.1737 58.0287 40.4795 58.0287H45.29C45.6117 58.0287 45.7496 57.8128 45.7496 57.4251C45.7496 57.0154 45.6117 56.7996 45.29 56.7996H41.7286Z" fill="#7DCCEE"/>
<path fill-rule="evenodd" clip-rule="evenodd" d="M34.3599 56.7996H33.1128C32.8051 56.7996 32.6512 57.0154 32.6512 57.4251C32.6512 57.8128 32.8051 58.0287 33.1128 58.0287H37.9373C38.2291 58.0287 38.383 57.8128 38.383 57.4251C38.383 57.0154 38.2291 56.7996 37.9373 56.7996H34.3599Z" fill="#8AD1F0"/>
<path fill-rule="evenodd" clip-rule="evenodd" d="M27.405 56.7996H26.1519C25.8461 56.7996 25.6942 57.0154 25.6942 57.4251C25.6942 57.8128 25.8461 58.0287 26.1519 58.0287H30.9644C31.2701 58.0287 31.424 57.8128 31.424 57.4251C31.424 57.0154 31.2701 56.7996 30.9644 56.7996H27.405Z" fill="#97D7F0"/>
<path fill-rule="evenodd" clip-rule="evenodd" d="M20.0243 56.7996H18.7853C18.4795 56.7996 18.3256 57.0154 18.3256 57.4251C18.3256 57.8128 18.4795 58.0287 18.7853 58.0287H23.5977C23.9035 58.0287 24.0574 57.8128 24.0574 57.4251C24.0574 57.0154 23.9035 56.7996 23.5977 56.7996H20.0243Z" fill="#A3DCF3"/>
<path fill-rule="evenodd" clip-rule="evenodd" d="M12.6658 56.7996H11.4167C11.1109 56.7996 10.959 57.0154 10.959 57.4251C10.959 57.8128 11.1109 58.0287 11.4167 58.0287H16.2312C16.537 58.0287 16.6888 57.8128 16.6888 57.4251C16.6888 57.0154 16.537 56.7996 16.2312 56.7996H12.6658Z" fill="#B0E1F5"/>
<path fill-rule="evenodd" clip-rule="evenodd" d="M5.6988 56.7996H4.44571C4.13994 56.7996 4.00005 57.0154 4.00005 57.4251C4.00005 57.8128 4.13993 58.0287 4.44571 58.0287H9.2722C9.57797 58.0287 9.73186 57.8128 9.73186 57.4251C9.73186 57.0154 9.57797 56.7996 9.2722 56.7996H5.6988Z" fill="#BDE6F5"/>
<path fill-rule="evenodd" clip-rule="evenodd" d="M4.00005 41.9224H5.31109V43.7231C5.76076 43.0516 6.22442 42.576 6.70207 42.2702C7.35759 41.8665 8.05309 41.6566 8.77656 41.6566C9.2662 41.6566 9.73186 41.7526 10.1815 41.9484C10.6172 42.1463 10.9869 42.4081 11.2587 42.7458C11.5325 43.0676 11.7784 43.5392 11.9822 44.1428C12.4179 43.3334 12.9655 42.7158 13.605 42.2842C14.2606 41.8665 14.9561 41.6566 15.7075 41.6566C16.417 41.6566 17.0305 41.8345 17.5622 42.1982C18.0938 42.562 18.4895 43.0676 18.7633 43.7231C19.0231 44.3666 19.145 45.3439 19.145 46.629V52.2969H17.822V46.629C17.822 45.5238 17.74 44.7564 17.5901 44.3367C17.4263 43.917 17.1664 43.5852 16.7847 43.3334C16.417 43.0776 15.9653 42.9557 15.4477 42.9557C14.8202 42.9557 14.2466 43.1495 13.715 43.5293C13.1953 43.901 12.8156 44.4186 12.5698 45.0481C12.336 45.6917 12.2141 46.7509 12.2141 48.2358V52.2969H10.905V46.9927C10.905 45.7336 10.8371 44.8843 10.6872 44.4346C10.5233 43.9889 10.2635 43.6252 9.88176 43.3594C9.50003 43.0936 9.04836 42.9557 8.53074 42.9557C7.92918 42.9557 7.37158 43.1335 6.83797 43.5133C6.32035 43.877 5.93862 44.3786 5.67881 45.0062C5.43299 45.6357 5.31109 46.599 5.31109 47.8981V52.2969H4.00005V41.9224Z" fill="#E11735"/>
<path fill-rule="evenodd" clip-rule="evenodd" d="M26.9293 42.9857C25.8301 42.9857 24.8968 43.3953 24.1134 44.2288C23.332 45.0522 22.9323 46.0554 22.9323 47.2426C22.9323 47.994 23.1121 48.7015 23.4679 49.367C23.8256 50.0205 24.3053 50.5281 24.9248 50.8799C25.5284 51.2336 26.1879 51.4175 26.9293 51.4175C27.6428 51.4175 28.3163 51.2336 28.9199 50.8799C29.5354 50.5281 30.0171 50.0205 30.3748 49.367C30.7326 48.7015 30.9124 47.994 30.9124 47.2426C30.9124 46.0554 30.5127 45.0522 29.7313 44.2288C28.9479 43.3953 28.0146 42.9857 26.9293 42.9857V42.9857ZM26.9293 41.6566C28.4942 41.6566 29.7973 42.2502 30.8305 43.4113C31.7778 44.4846 32.2435 45.7436 32.2435 47.2166C32.2435 48.6755 31.7458 49.9586 30.7446 51.0498C29.7553 52.155 28.4802 52.7066 26.9293 52.7066C25.3625 52.7066 24.0854 52.155 23.0981 51.0498C22.0949 49.9586 21.6012 48.6755 21.6012 47.2166C21.6012 45.7596 22.0689 44.5005 23.0142 43.4253C24.0454 42.2502 25.3505 41.6566 26.9293 41.6566V41.6566Z" fill="#E11735"/>
<path fill-rule="evenodd" clip-rule="evenodd" d="M39.686 43.0116C38.9406 43.0116 38.2691 43.1955 37.6515 43.5592C37.026 43.937 36.5463 44.4446 36.1766 45.1201C35.8188 45.7856 35.625 46.4851 35.625 47.2166C35.625 47.964 35.8188 48.6695 36.1766 49.331C36.5463 50.0065 37.042 50.5282 37.6615 50.9059C38.295 51.2696 38.9546 51.4695 39.672 51.4695C40.3875 51.4695 41.079 51.2696 41.7225 50.9059C42.3581 50.5382 42.8537 50.0305 43.2115 49.401C43.5552 48.7674 43.7191 48.052 43.7191 47.2585C43.7191 46.0514 43.3354 45.0382 42.5459 44.2347C41.7785 43.4213 40.8132 43.0116 39.686 43.0116ZM44.9302 37.9713V52.4408H43.6371V50.6401C43.0835 51.3256 42.464 51.8312 41.7905 52.185C41.105 52.5227 40.3476 52.7066 39.5341 52.7066C38.0912 52.7066 36.8481 52.169 35.8288 51.0897C34.8116 50.0205 34.29 48.7275 34.29 47.1766C34.29 45.6817 34.8116 44.3886 35.8448 43.3194C36.8781 42.2502 38.1152 41.7166 39.5741 41.7166C40.4135 41.7166 41.1709 41.8965 41.8465 42.2642C42.5359 42.6279 43.1295 43.1795 43.6371 43.913V37.9713H44.9302Z" fill="#E11735"/>
<path fill-rule="evenodd" clip-rule="evenodd" d="M56.5697 46.1114C56.3918 45.3899 56.126 44.8283 55.7923 44.3886C55.4605 43.9629 55.0148 43.6112 54.4412 43.3554C53.8896 43.0836 53.3061 42.9557 52.6925 42.9557C51.6793 42.9557 50.8199 43.2834 50.0824 43.9469C49.5568 44.4286 49.1511 45.1501 48.8753 46.1114H56.5697ZM56.5697 48.9413L57.6809 49.5509C57.3231 50.2723 56.8875 50.8659 56.4178 51.3196C55.9302 51.7712 55.3885 52.113 54.791 52.3548C54.1974 52.5787 53.5119 52.7066 52.7485 52.7066C51.0697 52.7066 49.7507 52.139 48.8033 51.0238C47.858 49.8926 47.3864 48.6295 47.3864 47.2166C47.3864 45.8715 47.7761 44.6844 48.5835 43.6512C49.6068 42.3201 50.9738 41.6566 52.6825 41.6566C54.4313 41.6566 55.8342 42.3361 56.8875 43.6911C57.6389 44.6544 58.0126 45.8456 58.0286 47.2885H48.7474C48.7793 48.5056 49.1511 49.5089 49.8985 50.2863C50.636 51.0638 51.5573 51.4635 52.6366 51.4635C53.1682 51.4635 53.6638 51.3615 54.1654 51.1777C54.6671 50.9938 55.0808 50.742 55.4305 50.4402C55.7923 50.1344 56.166 49.6368 56.5697 48.9413V48.9413Z" fill="#E11735"/>
<path fill-rule="evenodd" clip-rule="evenodd" d="M60.0752 41.9224H61.4522V43.4413C61.8599 42.8437 62.3016 42.3981 62.7552 42.1003C63.2269 41.8085 63.6926 41.6566 64.1882 41.6566C64.5719 41.6566 64.9716 41.7845 65.3953 42.0044L64.6858 43.1335C64.404 43.0116 64.1622 42.9557 63.9784 42.9557C63.5227 42.9557 63.083 43.1335 62.6733 43.4973C62.2436 43.861 61.9318 44.4346 61.708 45.202C61.5381 45.7896 61.4522 46.9927 61.4522 48.7934V52.2969H60.0752V41.9224Z" fill="#E11735"/>
<path fill-rule="evenodd" clip-rule="evenodd" d="M67.0341 41.9224H68.2971V43.7791C68.7988 43.0676 69.3724 42.536 69.9799 42.1882C70.5935 41.8345 71.269 41.6566 71.9905 41.6566C72.7319 41.6566 73.3834 41.8505 73.955 42.2442C74.5226 42.6479 74.9523 43.1795 75.2201 43.835C75.4959 44.5065 75.6278 45.5398 75.6278 46.9607V52.2969H74.3647V47.3545C74.3647 46.1534 74.3128 45.3539 74.2209 44.9502C74.073 44.2647 73.7972 43.7491 73.3715 43.4014C72.9578 43.0676 72.4162 42.8837 71.7347 42.8837C70.9772 42.8837 70.2877 43.1495 69.6782 43.6811C69.0646 44.2247 68.6649 44.8843 68.481 45.6617C68.3631 46.1793 68.2972 47.1306 68.2972 48.4856V52.2969H67.0341L67.0341 41.9224Z" fill="#E11735"/>
<path fill-rule="evenodd" clip-rule="evenodd" d="M83.482 42.9557C82.7506 42.9557 82.0751 43.1395 81.4455 43.5073C80.822 43.891 80.3403 44.4026 79.9726 45.0781C79.6149 45.7436 79.419 46.4551 79.419 47.1866C79.419 47.9381 79.6149 48.6455 79.9726 49.309C80.3403 49.9905 80.836 50.5122 81.4555 50.8959C82.0911 51.2636 82.7506 51.4635 83.466 51.4635C84.1835 51.4635 84.873 51.2636 85.5186 50.8959C86.1521 50.5282 86.6497 50.0205 87.0075 49.381C87.3492 48.7475 87.5131 48.026 87.5131 47.2326C87.5131 46.0154 87.1294 44.9962 86.3579 44.1888C85.5745 43.3694 84.6072 42.9557 83.482 42.9557V42.9557ZM88.7262 41.9264V52.4368H87.4312V50.6241C86.8796 51.3196 86.26 51.8312 85.5845 52.185C84.899 52.5227 84.1416 52.7066 83.3282 52.7066C81.8852 52.7066 80.6421 52.169 79.6249 51.0797C78.6056 50.0065 78.084 48.7015 78.084 47.1446C78.084 45.6457 78.6056 44.3427 79.6388 43.2674C80.6741 42.1922 81.9112 41.6566 83.3701 41.6566C84.2095 41.6566 84.965 41.8405 85.6405 42.2082C86.332 42.576 86.9255 43.1296 87.4312 43.861V41.9264H88.7262Z" fill="#E11735"/>
<path fill-rule="evenodd" clip-rule="evenodd" d="M90.9667 42.8278H91.1306C91.2185 42.8278 91.2744 42.8278 91.3004 42.7959C91.3405 42.772 91.3564 42.74 91.3564 42.7001C91.3564 42.6741 91.3405 42.6441 91.3305 42.6281C91.3145 42.6022 91.3004 42.5883 91.2745 42.5722C91.2445 42.5722 91.1866 42.562 91.1206 42.562H90.9667L90.9667 42.8278ZM90.8249 43.3335V42.4441H91.1206C91.2326 42.4441 91.3005 42.4441 91.3565 42.4601C91.3964 42.4901 91.4423 42.5161 91.4684 42.562C91.5003 42.6021 91.5103 42.644 91.5103 42.684C91.5103 42.7559 91.4844 42.8119 91.4423 42.8539C91.3863 42.8999 91.3304 42.9238 91.2445 42.9397C91.2904 42.9557 91.3004 42.9718 91.3305 42.9817C91.3564 43.0276 91.3964 43.0836 91.4524 43.1655L91.5664 43.3334H91.3865L91.3146 43.1955C91.2447 43.0835 91.2027 43.0116 91.1627 42.9816C91.1308 42.9715 91.0908 42.9557 91.0489 42.9557H90.9669V43.3334L90.8249 43.3335ZM91.1766 42.1783C91.0646 42.1783 90.9528 42.2083 90.8388 42.2742C90.7269 42.3322 90.645 42.4181 90.589 42.53C90.5171 42.6438 90.4911 42.7558 90.4911 42.8838C90.4911 42.9957 90.5171 43.1096 90.589 43.2215C90.645 43.3335 90.7269 43.4214 90.8388 43.4773C90.9528 43.5493 91.0647 43.5752 91.1766 43.5752C91.3005 43.5752 91.4124 43.5493 91.5243 43.4773C91.6383 43.4213 91.7202 43.3335 91.7762 43.2215C91.8321 43.1095 91.872 42.9957 91.872 42.8838C91.872 42.7558 91.8321 42.6439 91.7762 42.53C91.7202 42.418 91.6223 42.3322 91.5243 42.2742C91.4124 42.2082 91.3005 42.1783 91.1766 42.1783ZM91.1766 42.0643C91.3145 42.0643 91.4524 42.0964 91.5803 42.1522C91.7202 42.2182 91.8161 42.3321 91.8881 42.46C91.976 42.5879 92 42.7298 92 42.8837C92 43.0276 91.9761 43.1655 91.9042 43.2934C91.8163 43.4213 91.7203 43.5332 91.5964 43.6052C91.4525 43.6712 91.3306 43.7031 91.1767 43.7031C91.0349 43.7031 90.8949 43.671 90.767 43.6052C90.645 43.5332 90.5472 43.4213 90.4612 43.2934C90.3893 43.1655 90.3633 43.0276 90.3633 42.8837C90.3633 42.7298 90.3893 42.5879 90.4612 42.46C90.5471 42.3321 90.6451 42.2182 90.767 42.1522C90.9109 42.0962 91.0488 42.0643 91.1767 42.0643H91.1766Z" fill="#E11735"/>
</svg>
