<svg width="96" height="96" viewBox="0 0 96 96" fill="none" xmlns="http://www.w3.org/2000/svg">
<path d="M55.9805 33.5156L54.3583 33.5154L48.3755 43.1445L42.3922 33.5154H40.7649L40.7652 62.4847H42.3921L48.3755 52.8557L54.3582 62.4847L55.9973 62.4844L55.9803 62.4605L55.9804 33.5156L55.9805 33.5156Z" fill="#6DACDE"/>
<path d="M40.7651 33.5154H31.8922L40.7539 47.9998L31.8922 62.4847H40.7656L40.7653 33.5154H40.7651Z" fill="#938647"/>
<path d="M64.8603 33.5155H55.9822L55.982 62.4603L55.999 62.4842L64.859 62.4827L55.9985 47.9993L64.8601 33.5149L64.8603 33.5155Z" fill="#6D9A45"/>
<path d="M77.5106 33.5154H64.8613L55.9997 47.9998L64.8608 62.4831H64.8645L64.8608 56.0844H79.8332C86.1184 56.0844 87.9999 51.1333 87.9999 46.8217V43.4177C87.9996 37.748 85.9574 33.5161 77.5106 33.5161V33.5154ZM79.7241 45.2036C79.7241 46.921 78.9238 48.897 76.8416 48.897H64.8723V40.7021H76.0805C78.7627 40.7021 79.7241 41.82 79.7241 43.7766V45.2035V45.2035L79.7241 45.2036Z" fill="#BFD730"/>
<path d="M40.7544 48.0003L31.8928 33.5159L31.889 33.5157L31.888 51.0214L16.8734 33.5157H8.00006V62.4851L16.8809 62.483L16.8777 44.9789L31.8928 62.4851L40.7544 48.0002V48.0003Z" fill="#FCB316"/>
</svg>
