<svg width="96" height="96" viewBox="0 0 96 96" fill="none" xmlns="http://www.w3.org/2000/svg">
<path d="M12.2663 48C12.2663 67.7041 28.2426 83.7337 48 83.7337C67.7042 83.7337 83.7337 67.7574 83.7337 48C83.7337 28.2958 67.7574 12.2662 48 12.2662C28.2426 12.2662 12.2663 28.2426 12.2663 48Z" fill="url(#paint0_radial_314_3825)"/>
<path d="M48.0532 16.42C30.5858 16.42 16.4733 30.5325 16.4733 47.9999C16.4733 65.4674 30.5858 79.5798 48.0532 79.5798C65.5207 79.5798 79.6331 65.4141 79.6331 47.9999C79.6331 30.5325 65.4674 16.42 48.0532 16.42ZM48.0532 77.2899C31.8639 77.2899 18.71 64.1893 18.71 47.9467C18.71 31.7573 31.8106 18.6035 48.0532 18.6035C64.2958 18.6035 77.3964 31.7041 77.3964 47.9467C77.3432 64.1893 64.2426 77.2899 48.0532 77.2899ZM65.0946 49.7041C64.8816 48.4792 64.9349 47.8934 63.9763 46.0295C63.0177 44.1656 62.4319 43.6331 61.5798 42.568C60.7278 41.5029 61.1538 39.9585 61.1538 39.9585C61.1538 39.9585 60.781 40.1183 59.9822 40.1183C59.6094 40.1183 59.1301 40.065 58.5976 39.9585C58.4911 39.5325 58.3313 39.0532 58.065 38.4141C57.2662 36.497 56.7337 36.1242 56.2544 35.0058C55.7751 33.7277 55.7219 32.2366 55.7219 32.2366C55.7219 32.2366 54.8698 33.0887 52.8461 33.0887C52.7929 33.0887 52.7929 33.0887 52.7396 33.0887C50.7159 33.0887 48.5325 31.9171 46.0295 31.8638C45.9763 31.8638 45.923 31.8638 45.923 31.8638C45.8698 31.8638 45.8165 31.8638 45.8165 31.8638C43.2603 31.9171 41.1301 33.0887 39.1065 33.0887C39.0532 33.0887 39.0532 33.0887 39 33.0887C36.8698 33.0887 35.9645 32.2366 35.9645 32.2366C35.9645 32.2366 35.9645 33.7277 35.4319 35.0058C34.9526 36.1774 34.4201 36.497 33.6745 38.4141C32.929 40.278 32.929 41.0236 32.5029 42.0354C32.0769 42.9408 31.3846 43.7396 31.0118 44.0591C31.3846 44.4319 32.0769 45.1774 32.5029 46.0828C32.9822 47.0946 32.929 47.8402 33.6745 49.7041C34.4201 51.6212 35.0059 51.9408 35.4319 53.1124C35.9112 54.3905 35.9645 55.8816 35.9645 55.8816C35.9645 55.8816 36.8165 55.0295 38.8402 55.0295C38.8934 55.0295 38.8934 55.0295 38.9467 55.0295C40.5443 55.0295 42.1952 55.7751 44.0591 56.0946V58.1715C44.0591 59.2366 43.3668 59.7159 42.6213 59.8757C42.355 59.9289 41.9822 59.9822 41.6627 59.9822C41.0769 59.9822 40.5976 59.9289 40.5976 59.9289V63.9763H43.6331C44.8047 63.9763 45.7633 63.284 45.7633 63.284L47.0414 64.1893C47.0414 64.1893 47.4142 63.9763 47.7337 63.7632C48.1597 63.497 48.3727 63.3372 48.3727 63.3372C48.3727 63.3372 49.0118 63.8698 49.8639 64.136C50.3964 64.2958 51.0355 64.349 51.6745 64.349C52.7396 64.349 53.8579 64.1893 54.8165 63.9763C56.3609 63.6567 57.5858 63.3372 58.3846 63.3372C58.4378 63.3372 58.4378 63.3372 58.4911 63.3372C59.0236 63.3372 59.8224 63.497 60.6745 64.136C60.6745 64.136 60.6745 62.5384 60.994 61.5798C61.3136 60.6745 62.6449 59.8224 63.8165 57.6922C64.9881 55.5621 64.9349 53.7514 65.1479 53.3786C65.3609 53.0058 66.5325 51.6745 66.5325 51.6745C66.1597 51.355 65.3076 50.9289 65.0946 49.7041ZM42.1952 54.8698C41.0769 54.5502 40.065 54.284 38.9467 54.284C38.8934 54.284 38.8934 54.284 38.8402 54.284C37.9349 54.284 37.1893 54.4437 36.6568 54.6567C36.5503 54.1242 36.4437 53.4851 36.2307 52.8993C36.0177 52.3135 35.7514 51.9408 35.4852 51.5147C35.1656 51.0354 34.8461 50.5029 34.4201 49.4911C34.0473 48.5325 33.8875 47.8934 33.7278 47.3076C33.568 46.7751 33.4615 46.349 33.2485 45.8165C32.929 45.1242 32.5029 44.5384 32.1301 44.1124C32.5029 43.6863 32.929 43.0473 33.2485 42.4082C33.5148 41.8757 33.6213 41.4496 33.7278 40.9171C33.8875 40.3313 34.0473 39.6922 34.4201 38.7337C34.8461 37.7218 35.1656 37.1893 35.4852 36.71C35.7514 36.284 36.0177 35.9112 36.2307 35.3254C36.4437 34.7396 36.6035 34.1005 36.6568 33.568C37.1893 33.781 37.9349 33.9408 38.8402 33.9408C38.8934 33.9408 38.8934 33.9408 38.9467 33.9408C40.0118 33.9408 41.0769 33.6212 42.1952 33.355C43.3136 33.0354 44.4852 32.7159 45.71 32.7159C45.7633 32.7159 45.7633 32.7159 45.8165 32.7159H45.8698H45.923C45.9763 32.7159 45.9763 32.7159 46.0295 32.7159C47.2544 32.7692 48.426 33.0354 49.5443 33.355C50.6627 33.6745 51.6745 33.9408 52.7929 33.9408C52.8461 33.9408 52.8461 33.9408 52.8994 33.9408C53.8047 33.9408 54.5503 33.781 55.0828 33.568C55.1893 34.1005 55.2958 34.7396 55.5088 35.3254C55.7218 35.9112 55.9881 36.284 56.2544 36.71C56.5739 37.1893 56.8934 37.7218 57.3195 38.7337C57.6923 39.6922 57.852 40.3313 58.0118 40.9171C58.1716 41.4496 58.2781 41.8757 58.4911 42.4082C58.8106 43.1005 59.2366 43.6863 59.6094 44.1124C59.2366 44.5384 58.8106 45.1774 58.4911 45.8165C58.2248 46.349 58.1183 46.7751 58.0118 47.3076C57.852 47.8934 57.6923 48.5325 57.3195 49.4911C56.8934 50.5029 56.5739 51.0354 56.2544 51.5147C55.9881 51.9408 55.7218 52.3135 55.5088 52.8993C55.2958 53.4851 55.1361 54.0709 55.0295 54.6035C54.497 54.3905 53.7514 54.2307 52.8461 54.2307C52.7929 54.2307 52.7929 54.2307 52.7396 54.2307C51.8875 54.2307 51.0355 54.4437 50.1301 54.6567C50.2899 53.6449 51.2485 53.2189 51.2485 53.2189C51.2485 53.2189 50.6094 52.7396 50.2899 51.994C51.7278 50.9289 52.6331 49.3845 52.6331 47.6271C52.6331 46.349 52.1538 45.1774 51.355 44.2189C52.1538 43.2603 52.6331 42.0887 52.6331 40.8106C52.6331 37.6153 49.5976 35.0591 45.8698 35.0591C42.142 35.0591 39.1065 37.6153 39.1065 40.8106C39.1065 42.0887 39.5858 43.2603 40.3846 44.2189C39.5858 45.1774 39.1065 46.349 39.1065 47.6271C39.1065 49.9703 40.7574 52.0473 43.1538 52.8993C42.994 53.1124 42.8343 53.2189 42.8343 53.2189C42.8343 53.2189 44.0059 53.7514 44.0059 54.923V55.2958C43.4733 55.1893 42.8343 55.0295 42.1952 54.8698ZM50.7692 44.7514C51.4615 45.6035 51.8875 46.5621 51.8875 47.6271C51.8875 49.0118 51.1952 50.2366 50.1301 51.0887V45.0177C50.1301 44.3786 50.1834 43.9526 50.7159 43.7928L50.2899 44.2721L50.7692 44.7514ZM50.1301 55.5621C51.0355 55.2958 51.8875 55.136 52.7396 55.0828C52.7929 55.0828 52.7929 55.0828 52.8461 55.0828C54.8698 55.0828 55.7219 55.9348 55.7219 55.9348C55.7219 55.9348 55.7219 54.4437 56.2544 53.1656C56.5207 52.5266 56.7869 52.1538 57.1597 51.568C57.3727 54.71 56.9467 57.1597 55.5621 58.7573C54.6035 59.8224 53.3254 60.1419 52.4201 60.1419C52.1006 60.1419 51.8343 60.0887 51.6745 60.0354C50.7159 59.7159 50.1834 59.3431 50.1834 57.5325V55.5621H50.1301ZM41.0769 43.6863C41.2899 43.6331 41.6094 43.6863 41.929 43.6863C42.142 43.6863 42.3017 43.6863 42.5148 43.6863C42.6213 43.6863 42.6745 43.6863 42.781 43.6863C43.4201 43.6863 44.0591 43.8993 44.0591 44.5384V51.1952C44.0591 51.568 43.9526 51.9408 43.7396 52.207C41.5562 51.4615 39.9585 49.7041 39.9585 47.6271C39.9585 46.6153 40.3313 45.6035 41.0769 44.7514L41.5562 44.2189L41.0769 43.6863ZM40.4378 42.0354C40.4911 42.355 40.4911 42.6212 40.5443 42.8875C40.1716 42.2484 40.0118 41.5561 40.0118 40.8638C40.0118 38.1479 42.6745 35.9112 45.923 35.9112C48.6923 35.9112 50.9822 37.4555 51.6745 39.5857C51.1952 39.6922 50.7159 39.7987 50.2366 39.9053C49.3846 40.1715 48.639 40.278 48.1065 40.278C46.4023 40.278 45.923 39.4792 45.923 39.4792C45.923 39.4792 45.4437 40.1183 44.2721 40.1183H44.2189C43.4201 40.1183 43.3136 39.9585 42.5148 39.9585C42.355 39.9585 42.1952 39.9585 42.0355 39.9585C40.7574 40.0118 40.2781 40.3313 40.2781 40.3313C40.2781 40.3313 40.2781 40.9171 40.4378 42.0354ZM64.4556 53.0591C64.3491 53.2721 64.2958 53.5384 64.2426 53.9644C64.1361 54.71 63.923 55.9881 63.1242 57.3727C62.5384 58.4911 61.8461 59.2366 61.3136 59.8224C60.8343 60.355 60.4082 60.8342 60.1952 61.42C60.0355 61.8461 59.9822 62.3786 59.929 62.8579C59.5029 62.6982 59.0236 62.5916 58.5443 62.5916C58.4911 62.5916 58.4911 62.5916 58.4378 62.5916C57.7988 62.5916 57 62.7514 55.9881 63.0177C55.6153 63.1242 55.1893 63.1774 54.7633 63.284C53.9645 63.4437 52.8461 63.6567 51.781 63.6567C51.1952 63.6567 50.6627 63.6035 50.1834 63.4437C49.4911 63.2307 49.0118 62.8047 48.9585 62.8047L48.4792 62.3786L47.9467 62.8047C47.9467 62.8047 47.7337 62.9644 47.3609 63.1774C47.3077 63.2307 47.2011 63.284 47.1479 63.3372L46.2958 62.7514L45.8165 62.4319L45.3372 62.7514C45.284 62.8047 44.5384 63.284 43.6863 63.284H41.4497V60.9408C41.5029 60.9408 41.6094 60.9408 41.7159 60.9408C42.1952 60.9408 42.568 60.8875 42.8875 60.8342C44.2189 60.5147 44.9645 59.6094 44.9645 58.3313V55.0295C44.9645 54.3372 44.6982 53.7514 44.2189 53.2189C44.5917 52.7396 44.9645 52.1005 44.9645 51.3017V44.5384C44.9645 43.7396 44.4319 42.8342 42.8343 42.8342C42.7278 42.8342 42.6213 42.8342 42.5148 42.8342C42.355 42.8342 42.1952 42.8342 41.9822 42.8342C41.7692 42.8342 41.5562 42.8342 41.3964 42.8342C41.3964 42.568 41.3432 42.2484 41.2899 41.8757C41.2366 41.4496 41.1834 41.1301 41.1301 40.8638C41.3432 40.8106 41.6627 40.7573 42.0355 40.7573C42.1952 40.7573 42.355 40.7573 42.4615 40.7573C42.781 40.7573 42.9408 40.8106 43.1538 40.8106C43.4201 40.8638 43.6863 40.9171 44.1656 40.9171C44.2189 40.9171 44.2189 40.9171 44.2721 40.9171C44.9645 40.9171 45.497 40.7041 45.8698 40.4911C46.2958 40.7573 47.0414 41.0769 48.0532 41.0769C48.7455 41.0769 49.5443 40.9703 50.4497 40.7041C50.8757 40.5976 51.355 40.4911 51.8343 40.3845C51.8343 40.5443 51.8343 40.6508 51.8343 40.8106C51.8343 41.5029 51.6745 42.1952 51.3017 42.8342C50.7692 42.8342 50.0769 42.8875 49.5976 43.4733C49.3313 43.9526 49.2781 44.4851 49.2781 45.0177V51.1419C49.2781 51.8342 49.5443 52.5266 50.0236 53.1656C49.5443 53.6982 49.2781 54.3372 49.2781 54.9763V57.5325C49.2781 58.5976 49.4378 59.2899 49.8106 59.8224C50.2366 60.4082 50.8224 60.6212 51.3017 60.8342C51.568 60.9408 51.9408 60.994 52.3668 60.994C52.7929 60.994 53.4852 60.9408 54.2307 60.6745C54.9763 60.4082 55.6153 59.9289 56.1479 59.3431C57 58.3845 57.5325 57.2129 57.7988 55.7751C58.065 54.4437 58.065 52.8993 57.9053 51.0887C57.9053 50.8224 57.852 50.6094 57.7988 50.3431C57.852 50.1834 57.9585 50.0236 58.0118 49.8106C58.7574 47.9467 58.7574 47.2011 59.1834 46.1893C59.6094 45.284 60.3017 44.4851 60.6745 44.1656C60.3017 43.7928 59.6094 43.0473 59.1834 42.1419C59.0236 41.7159 58.9171 41.3431 58.7574 40.9703C59.1301 41.0236 59.5029 41.0769 59.8757 41.0769C59.929 41.0769 60.0355 41.0769 60.0887 41.0769C60.0887 41.9289 60.355 42.6745 60.781 43.207C60.9408 43.42 61.1006 43.6331 61.2603 43.7928C61.8994 44.5384 62.3787 45.1242 63.071 46.5088C63.8165 47.9467 63.8698 48.5325 64.0295 49.3845C64.0828 49.5443 64.0828 49.7573 64.1361 49.9703C64.2958 50.9289 64.8284 51.5147 65.2544 51.8875C64.9881 52.2603 64.5621 52.7928 64.4556 53.0591Z" fill="#F57E20"/>
<path d="M48.0533 79.8462C30.4793 79.8462 16.2071 65.574 16.2071 48C16.2071 30.426 30.4793 16.1538 48.0533 16.1538C65.6272 16.1538 79.8994 30.426 79.8994 48C79.8994 65.574 65.574 79.8462 48.0533 79.8462ZM48.0533 16.6864C30.7456 16.6864 16.7396 30.7456 16.7396 48C16.7396 65.2544 30.7988 79.3136 48.0533 79.3136C65.3077 79.3136 79.3669 65.2544 79.3669 48C79.3669 30.7456 65.3077 16.6864 48.0533 16.6864ZM48.0533 77.5562C31.7574 77.5562 18.4438 64.2959 18.4438 47.9467C18.4438 31.5976 31.7041 18.3905 48.0533 18.3905C64.4024 18.3905 77.6627 31.6509 77.6627 48C77.6627 64.3491 64.3491 77.5562 48.0533 77.5562ZM48.0533 18.9231C32.0237 18.9231 18.9763 31.9704 18.9763 48C18.9763 64.0296 32.0237 77.0769 48.0533 77.0769C64.0828 77.0769 77.1302 64.0296 77.1302 48C77.0769 31.9704 64.0296 18.9231 48.0533 18.9231ZM48 84C28.1361 84 12 67.8107 12 48C12 28.1893 28.1361 12 48 12C67.8639 12 84 28.1361 84 48C84 67.8639 67.8107 84 48 84ZM48 12.5325C28.4556 12.5325 12.5325 28.4556 12.5325 48C12.5325 67.5444 28.4556 83.4675 48 83.4675C67.5444 83.4675 83.4675 67.5444 83.4675 48C83.4675 28.4556 67.5444 12.5325 48 12.5325ZM36.071 69.5148L35.8047 69.8876C35.6982 70.1006 35.5917 70.1538 35.432 70.0473C35.2722 69.9408 35.3254 69.7278 35.0592 69.5148L34.1006 68.8757L33.0888 70.3136C32.929 70.5266 32.9822 70.5799 33.1953 70.7396L33.8876 71.2189C34.2071 71.432 34.4201 71.5385 34.7929 71.4852C34.9527 71.4852 35.1657 71.2722 35.3254 71.432C35.432 71.5385 35.4852 71.645 35.3787 71.7515C34.9527 72.4438 34.7929 72.497 34.3669 72.284C33.9941 72.071 31.9704 70.7929 31.4911 70.4201C31.2781 70.2604 31.2781 70.1538 31.3846 70.0473C31.4911 69.9408 31.5444 69.9408 31.6509 69.9408C31.8107 69.9408 31.8639 69.8876 31.9172 69.7811L34.1538 66.5325C34.2604 66.426 34.2071 66.3728 34.2071 66.2663C34.1538 66.1598 34.1538 66.1065 34.2071 65.9467C34.2604 65.8935 34.3136 65.8402 34.3669 65.8402C34.4201 65.8402 34.4734 65.8935 34.5799 65.9467C35.4852 66.5858 36.284 67.1183 37.1361 67.5444C37.4024 67.7041 37.5621 67.9172 37.1361 68.5562C37.0296 68.716 36.9231 68.7692 36.8698 68.716C36.7101 68.6095 36.7633 68.3964 36.6568 68.1834C36.6035 67.9172 36.3905 67.7041 35.9645 67.4911L35.5917 67.2781C35.3254 67.1183 35.2189 67.1716 35.0059 67.4911L34.3669 68.3965L35.432 68.9822C35.5917 69.0888 35.6982 69.0888 35.7515 69.0888C35.858 69.0888 35.9645 69.0355 36.071 69.0888C36.1775 69.1953 36.1775 69.355 36.071 69.5148ZM44.0592 70.4734C43.7929 70.1006 43.2071 69.7278 42.5148 69.568C42.2485 69.5148 42.0355 69.4615 41.7692 69.4615C41.1302 69.4615 40.5444 69.6746 39.9586 70.1538C39.5325 70.5266 39.2663 71.0059 39.0533 71.6982C38.6272 73.3491 39.3728 74.6805 41.0237 75.1065C41.8225 75.3195 42.6746 75.213 43.1538 74.9467C43.2604 74.8935 43.2604 74.8402 43.3136 74.6805C43.3669 74.5207 43.3669 74.2544 43.4734 73.8817C43.5266 73.5621 43.6864 73.2959 43.7396 73.0296C43.7929 72.7633 43.7396 72.7101 43.4201 72.6568C43.4201 72.6568 42.4615 72.3905 41.9822 72.2308C41.716 72.1243 41.6627 72.284 41.6095 72.497C41.5562 72.7101 41.6627 72.8698 41.8757 72.9231L42.0355 72.9763C42.355 73.0828 42.4083 73.1893 42.3018 73.5089L42.1953 73.8817C42.0355 74.4675 41.6627 74.7337 41.0769 74.574C40.2781 74.3609 39.8521 73.3491 40.1716 72.1243C40.5444 70.7396 41.3964 69.9941 42.355 70.2604C42.9408 70.4201 43.2604 70.7396 43.3669 71.3787C43.4201 71.5917 43.4201 71.7515 43.5799 71.8047C43.7396 71.858 43.8462 71.7515 43.9527 71.432C44.2189 70.9527 44.2722 70.6864 44.0592 70.4734ZM39.213 69.6213C39.3195 69.4615 39.3728 69.3018 39.4793 69.3018C39.6391 69.2485 39.7456 69.2485 39.7988 69.142C39.8521 69.0355 39.8521 68.8757 39.6923 68.7692C39.5325 68.716 38.787 68.3432 38.5207 68.2367C38.4675 68.1834 38.4142 68.1834 38.3609 68.1834C38.2544 68.1834 38.1479 68.2899 38.1479 68.3965C38.0947 68.5562 38.1479 68.6095 38.2544 68.7692C38.3077 68.8225 38.2544 68.9822 38.1479 69.1953L36.6036 72.3905C36.497 72.5503 36.4438 72.7101 36.3373 72.7101C36.1775 72.7633 36.071 72.7633 36.0178 72.8698C35.9645 72.9763 36.0178 73.1361 36.1775 73.1893C36.3373 73.2426 37.1361 73.6154 37.3491 73.7219C37.5089 73.8284 37.6686 73.7751 37.7219 73.6686C37.7751 73.5089 37.7219 73.4024 37.6154 73.2959C37.5621 73.2426 37.6154 73.1361 37.7219 72.8698L39.213 69.6213ZM27.8166 63.3373C27.7633 63.497 27.7633 63.6035 27.8166 63.7101C27.8698 63.8166 28.0296 63.9231 28.2426 63.7101L28.7219 63.3373C28.8817 63.2308 28.9349 63.071 28.8817 62.9645C28.7751 62.858 28.6154 62.9112 28.5089 62.858C28.4024 62.8047 28.3491 62.7515 28.2959 62.645L27.7101 61.7929L28.7219 61.0473C29.0414 60.8343 29.1479 60.7811 29.3077 61.0473L29.5207 61.3669C29.787 61.7396 29.8935 62.0059 29.8402 62.3254C29.787 62.5385 29.6805 62.7515 29.787 62.858C29.8935 62.9645 30 62.9645 30.213 62.8047C30.7988 62.3787 30.8521 62.1657 30.6391 61.8994C29.787 60.8343 28.9349 59.3964 28.9349 59.3964C28.8284 59.2899 28.7751 59.2367 28.6686 59.2367C28.6154 59.2367 28.5621 59.2367 28.5621 59.2899C28.4024 59.3965 28.4556 59.503 28.4556 59.6095C28.4556 59.7692 28.4024 59.8225 28.2426 59.8757L25.1538 62.1124C25.0473 62.1657 24.9941 62.2189 24.9408 62.1657C24.7811 62.1124 24.6746 62.0059 24.568 62.1124C24.4615 62.1657 24.4083 62.2722 24.5148 62.4852C24.6213 62.7515 25.1538 63.497 25.3136 63.7101C25.4734 63.9231 25.5799 63.8698 25.7396 63.7633C25.8994 63.6568 25.8462 63.5503 25.7929 63.3905C25.7929 63.284 25.8462 63.2308 25.9527 63.1243L27.3373 62.1657L27.9231 63.0178C27.7633 63.1243 27.8166 63.2308 27.8166 63.3373ZM30.7988 69.0888C30.7988 69.1953 30.9586 69.4083 30.7988 69.568C30.6391 69.7278 30.6391 69.6746 30.426 69.5148C30.213 69.355 29.574 68.8225 29.4675 68.6627C29.3609 68.503 29.3077 68.3964 29.4142 68.2899C29.5207 68.1834 29.574 68.1834 29.6805 68.1834C29.787 68.1834 29.8402 68.2367 29.9467 68.1302C30.1065 67.9704 30.3728 67.3846 30.6391 66.3728C30.426 66.213 30.1598 66 29.9467 65.8402L28.7751 66.9586C28.6686 67.0651 28.6154 67.1716 28.6686 67.2781C28.7219 67.3846 28.7751 67.4379 28.6686 67.5444C28.5089 67.7041 28.4556 67.6509 28.2959 67.5444C28.1361 67.4379 27.497 66.7456 27.3373 66.5325C27.1775 66.3195 27.1775 66.3195 27.3373 66.213C27.4438 66.1065 27.5503 66.1065 27.6568 66.1598C27.8698 66.213 27.9231 66.1598 28.1361 65.9467L30.6923 63.497C30.8521 63.284 30.9053 63.2308 30.8521 63.071C30.7988 62.9645 30.7988 62.858 30.9053 62.7515C30.9586 62.6982 31.0118 62.645 31.0651 62.645C31.1716 62.645 31.2249 62.6982 31.3846 62.858C31.5976 63.071 32.3964 63.9231 33.142 64.6154C33.8876 65.3077 33.9941 66 33.4083 66.6391C32.9822 67.0651 32.4497 67.2249 31.8107 66.9586C31.2781 68.2367 30.7988 68.929 30.7988 69.0888ZM31.7041 66.0533C31.9704 66.0533 32.1834 65.9467 32.3432 65.7337C32.7692 65.3077 32.6627 64.8817 32.1834 64.4024C31.8107 64.0828 31.7041 63.9763 31.4379 64.2426L30.3728 65.3077C30.8521 65.787 31.3314 66.0533 31.7041 66.0533ZM61.4201 71.2722C61.3669 71.1124 61.2071 71.1124 61.1006 71.1657C60.9408 71.2189 60.9941 71.4852 60.8876 71.7515C60.7811 72.071 60.5148 72.2308 60.0888 72.4438C59.716 72.6568 59.503 72.6568 59.3964 72.3373L57.9053 69.0888C57.7988 68.8757 57.7988 68.8225 57.9053 68.6627C58.0118 68.5562 58.1183 68.503 58.0118 68.2899C57.9586 68.1834 57.9053 68.1302 57.8521 68.1302C57.7988 68.1302 57.6923 68.1834 57.6391 68.2367C57.426 68.3964 56.787 68.6095 56.4142 68.7692C56.0947 68.929 56.0947 69.0355 56.2012 69.1953C56.3077 69.355 56.3609 69.355 56.574 69.355C56.6272 69.355 56.6805 69.4083 56.7337 69.5148L58.3314 73.0296C58.4379 73.1893 58.4379 73.2426 58.3314 73.3491C58.2249 73.4556 58.1716 73.5621 58.2249 73.7219C58.2781 73.8817 58.2781 73.9349 58.5976 73.8284C58.9172 73.7219 60.9941 72.7101 61.3669 72.497C61.7396 72.284 61.6864 72.2308 61.6331 71.9645C61.5799 71.645 61.5266 71.432 61.4201 71.2722ZM71.1657 61.6331C71.0592 61.5266 70.8994 61.5799 70.8462 61.6864C70.7396 61.8462 70.8994 62.0592 70.8994 62.2189C70.9527 62.5917 70.7929 62.8047 70.5799 63.1243L70.1538 63.7101C69.9941 63.9231 69.8343 64.0828 69.6746 63.9231L68.2899 62.858C68.2899 62.858 68.7692 62.1657 68.929 61.8994C69.142 61.6331 69.4083 61.6331 69.4615 61.5266C69.568 61.3669 69.5148 61.2604 69.3018 61.1538L68.929 60.8876C68.7692 60.7811 68.6627 60.7811 68.5562 60.8876C68.4497 60.9941 68.503 61.1006 68.503 61.2071C68.503 61.2604 68.4497 61.3136 68.3432 61.4734C68.2367 61.6331 67.7041 62.432 67.7041 62.432L66.7988 61.7929C66.4793 61.5799 66.426 61.4734 66.5858 61.1538L66.8521 60.7811C67.1183 60.4083 67.3314 60.1953 67.5976 60.142C67.8107 60.0888 68.0237 60.142 68.1302 59.9822C68.1834 59.8757 68.1302 59.8225 67.9704 59.6627C67.7041 59.503 67.5444 59.3964 67.3846 59.3964C67.1716 59.3964 67.0651 59.5562 66.9586 59.716C66.7988 59.9822 65.8935 61.3669 65.4142 62.1124C65.2012 62.432 65.2544 62.4852 65.3609 62.5917C65.4675 62.6982 65.574 62.645 65.6272 62.5917C65.7337 62.5385 65.787 62.5385 65.8935 62.645L68.9822 64.9349C69.0888 65.0414 69.142 65.0414 69.142 65.2012C69.142 65.3609 69.142 65.4142 69.2485 65.5207C69.355 65.6272 69.5148 65.5207 69.6213 65.3609C69.7278 65.2012 71.2722 62.9645 71.4852 62.4852C71.6982 62.2722 71.8047 62.0592 71.1657 61.6331ZM49.2781 70.3669C49.1716 70.3669 49.0118 70.3669 48.7988 70.3669C48.5858 70.3669 48.3195 70.4201 48.1598 70.3669C47.787 70.3669 47.787 70.4201 47.787 70.5266C47.787 70.6864 47.8935 70.7396 48.0533 70.8462C48.1065 70.8994 48.1065 71.0059 48.0533 71.2189L48 72.497L45.9763 72.3905L46.0828 71.0592C46.0828 70.8462 46.1361 70.7396 46.1893 70.6864C46.2959 70.5799 46.4024 70.5799 46.4556 70.4201C46.4556 70.2604 46.4024 70.1538 46.2426 70.1538C46.0828 70.1538 45.3373 70.1006 45.0178 70.0473H44.9645C44.7515 70.0473 44.6982 70.1538 44.6982 70.2604C44.6982 70.4201 44.8047 70.4734 44.9112 70.5799C44.9645 70.6331 44.9645 70.7396 44.9112 71.0059L44.5385 74.574C44.5385 74.787 44.4852 74.8935 44.432 74.9467C44.3254 75.0533 44.2189 75.0533 44.1657 75.213C44.1657 75.3728 44.2722 75.426 44.432 75.426C44.5917 75.426 45.4438 75.4793 45.6568 75.4793C45.8698 75.4793 45.9763 75.3728 45.9763 75.2663C45.9763 75.1065 45.8698 75.0533 45.7633 74.9467C45.7101 74.8935 45.7101 74.787 45.7633 74.5207L45.9231 72.9231L48 73.0296V74.6805C48 74.8935 48 75.0533 47.8935 75.1065C47.787 75.213 47.6805 75.213 47.6805 75.3728C47.6805 75.5325 47.787 75.6391 47.9467 75.6391C48.1598 75.6391 48.9053 75.6391 49.1716 75.6391C49.4379 75.6391 49.4911 75.5325 49.4911 75.426C49.4911 75.2663 49.3846 75.213 49.2781 75.1065C49.2249 75.0533 49.2249 74.9467 49.2249 74.6805L49.2781 71.1124C49.2781 70.8994 49.2781 70.7929 49.3846 70.7396C49.4911 70.6331 49.5976 70.5799 49.5976 70.4201C49.5444 70.4734 49.4911 70.3669 49.2781 70.3669ZM65.4675 63.7101C65.3077 63.497 65.2012 63.3905 65.2012 63.2308C65.2544 63.071 65.3609 62.9645 65.2012 62.858C65.1479 62.8047 65.0414 62.7515 64.9882 62.7515C64.9349 62.7515 64.8817 62.8047 64.8284 62.858L64.0828 63.6036C63.9231 63.7633 63.9231 63.7633 64.0296 63.9231C64.1893 64.0828 64.2959 63.9763 64.5089 63.9763C64.6154 63.9763 64.7219 64.0296 64.8817 64.1893L66.7456 65.9467C65.2544 65.5207 63.9763 65.3077 63.071 65.1479C62.6982 65.0947 62.645 64.9882 62.3787 65.2012C62.1124 65.4142 61.8994 65.6272 61.5799 65.8402C61.3669 66 61.3669 66.1598 61.4734 66.2663C61.6331 66.426 61.7396 66.3195 61.8994 66.2663C62.0592 66.213 62.1124 66.2663 62.2722 66.426L64.5089 68.9822C64.7219 69.1953 64.8284 69.355 64.8284 69.5148C64.8284 69.6213 64.6154 69.7811 64.7751 69.9941C64.8817 70.1006 64.9349 70.0473 65.0947 69.9408C65.2544 69.8343 65.9467 69.2485 65.9467 69.2485C66.1065 69.0888 66.1065 69.0355 66 68.8757C65.8402 68.716 65.7337 68.8225 65.574 68.8757C65.3609 68.929 65.3077 68.8757 65.0947 68.6627L63.1243 66.3195C65.9467 66.9586 67.5444 67.3314 67.7574 67.3846C67.9704 67.4379 68.1834 67.3314 68.2899 67.1716C68.5562 66.8521 68.4497 66.7988 68.1834 66.4793L65.4675 63.7101ZM63.497 70.4201C63.4438 70.4201 63.3373 70.3136 63.2308 70.1006L61.2604 67.1183C61.1538 66.9586 61.1006 66.8521 61.1006 66.7456C61.1538 66.5858 61.2071 66.4793 61.1006 66.3728C61.0473 66.3195 60.9941 66.2663 60.9408 66.2663C60.8876 66.2663 60.7811 66.3195 60.7278 66.3728C60.568 66.4793 60.0355 66.9053 59.7692 67.0651C59.6095 67.1716 59.503 67.2249 59.5562 67.3846C59.6095 67.5444 59.716 67.5444 59.8225 67.5444C59.8757 67.5444 59.8757 67.5444 59.929 67.5444C59.9822 67.5444 60.0888 67.6509 60.2485 67.8639L62.2189 70.8462C62.3254 71.0059 62.3787 71.1124 62.3787 71.2189C62.3254 71.3787 62.2722 71.432 62.3787 71.5917C62.432 71.6982 62.645 71.6982 62.7515 71.645C62.9112 71.5385 63.5503 71.1124 63.7633 70.9527C63.9763 70.7929 63.9763 70.7396 63.9231 70.6331C63.7633 70.4201 63.6568 70.4734 63.497 70.4201ZM53.9645 69.9941C53.9112 69.7811 53.7515 69.6213 53.5385 69.6213C53.4852 69.6213 53.432 69.6213 53.3787 69.6213C52.8994 69.7811 51.142 70.0473 50.2899 70.2071C49.9172 70.2604 49.9704 70.4201 49.9704 70.6864V71.3254C49.9704 71.3787 49.9704 71.432 49.9704 71.4852C50.0237 71.645 50.0769 71.6982 50.1834 71.6982C50.3432 71.6982 50.3964 71.5385 50.4497 71.3787C50.6095 71.0592 50.7692 70.8462 51.0888 70.7929L51.355 70.7396L52.0473 74.574C52.1006 74.787 52.1006 74.8935 52.0473 75C51.9408 75.1065 51.8343 75.1598 51.8343 75.3195C51.8343 75.4793 51.8876 75.5325 52.1538 75.4793C52.4201 75.426 53.2189 75.3195 53.432 75.2663C53.645 75.213 53.7515 75.1598 53.6982 75C53.645 74.8402 53.5385 74.787 53.3787 74.7337C53.2722 74.6805 53.2722 74.574 53.2189 74.3077L52.5266 70.5266L52.7929 70.4734C53.1124 70.4201 53.3254 70.5266 53.5917 70.7929C53.7515 70.8994 53.8047 71.0059 53.9645 71.0059C54.071 71.0059 54.1243 70.8994 54.1243 70.7396C54.1243 70.6864 54.1243 70.6331 54.071 70.6331L53.9645 69.9941ZM32.929 25.3669C32.7692 25.3669 32.6095 25.3669 32.4497 25.4201C31.9172 25.5266 31.3314 25.8462 30.5325 26.432C29.6805 27.071 29.3609 27.3905 29.5207 27.6035C29.6272 27.7101 29.6805 27.7101 29.787 27.7101C29.8402 27.7101 29.8935 27.7101 29.8935 27.7101C30.0533 27.7101 30.1065 27.8166 30.213 27.9231L32.3432 30.7456C32.4497 30.9053 32.503 31.0118 32.4497 31.0651C32.3432 31.2249 32.2899 31.3314 32.3964 31.4911C32.503 31.5976 32.716 31.6509 32.929 31.4911L34.3136 30.3195C35.0059 29.787 35.432 29.3609 35.5385 28.6686C35.6982 27.9763 35.4852 27.1775 34.9527 26.4852C34.4201 25.7396 33.7278 25.3669 32.929 25.3669ZM33.8876 30.0533C33.7811 30.1065 33.7278 30.1598 33.6746 30.1598C33.568 30.1598 33.4615 30.1065 33.355 29.9467L31.2249 27.1243C31.0651 26.9112 31.0651 26.7515 31.2781 26.5917C32.0769 26.0059 33.142 26.2189 33.9408 27.3373C34.7396 28.3491 34.6864 29.4675 33.8876 30.0533ZM40.5976 21.5325C40.4911 21.5325 40.3846 21.5325 40.2781 21.5325C39.7988 21.5325 39.213 21.6923 38.4675 21.9053C37.4556 22.2781 37.0296 22.4379 37.1361 22.7041C37.1893 22.8639 37.3491 22.8639 37.5089 22.9172C37.6154 22.9704 37.6686 23.0769 37.7219 23.2367L38.787 26.5917C38.8402 26.7515 38.8402 26.858 38.787 26.9112C38.6805 27.0178 38.574 27.071 38.6272 27.284C38.6805 27.4438 38.8402 27.5503 39.0533 27.497L40.7574 26.858C41.6095 26.5917 42.142 26.3254 42.5148 25.7396C42.8876 25.1538 42.9408 24.3018 42.6746 23.503C42.355 22.3314 41.6095 21.6923 40.5976 21.5325ZM40.4911 26.432C40.4379 26.432 40.3846 26.4852 40.3314 26.4852C40.1716 26.4852 40.1183 26.3787 40.0118 26.1657L38.9467 22.8107C38.8402 22.5444 38.8935 22.3846 39.1598 22.3314C40.1183 22.0118 41.0237 22.5976 41.4497 23.8757C41.8757 25.1006 41.4497 26.1657 40.4911 26.432ZM73.2426 36.6036C73.0828 36.7101 72.9763 36.5503 72.8698 36.497C72.7101 36.3905 72.6036 36.497 72.3905 36.6036L68.9822 38.4142C68.6095 38.6272 68.3964 38.6805 68.1834 38.3609C68.0237 38.1479 68.0769 37.9882 68.1834 37.8284C68.2899 37.6154 69.0355 36.2308 70.3136 33.6213L67.6509 35.1657C67.3846 35.3254 67.3314 35.3787 67.3314 35.5917C67.3314 35.7515 67.4379 35.858 67.2249 35.9645C67.0651 36.071 67.0118 36.0178 66.9053 35.858C66.7456 35.5917 66.426 35.1657 66.2663 34.9527C66.1598 34.7929 66.213 34.6864 66.3195 34.5799C66.4793 34.4734 66.6923 34.6864 66.8521 34.7396C67.0651 34.7929 67.1716 34.7396 67.4379 34.5799L70.3136 32.929C70.5266 32.8225 70.5799 32.716 70.5799 32.5562C70.5799 32.3432 70.4734 32.2899 70.6864 32.1834C70.7396 32.1302 70.7929 32.1302 70.8462 32.1302C70.8994 32.1302 70.9527 32.1834 71.0059 32.2899C71.1124 32.4497 71.432 32.8757 71.5385 33.0888C71.645 33.3018 71.645 33.5148 71.432 33.9408C71.0592 34.7929 70.5266 35.9112 69.7278 37.2959L72.0177 36.1243C72.2308 36.0178 72.3373 35.9112 72.3373 35.8047C72.3373 35.5917 72.284 35.4852 72.4438 35.3787C72.6035 35.2722 72.7633 35.3787 72.8166 35.5385C72.9763 35.7515 73.2426 36.2308 73.2959 36.3905C73.4024 36.3373 73.4024 36.497 73.2426 36.6036ZM32.0237 31.8107C32.1302 31.9704 32.1834 32.1834 32.0769 32.2899C31.9172 32.4497 30.4793 34.0473 30.0533 34.6864C29.9467 34.8462 29.787 34.8462 29.6272 34.7396C29.4675 34.6331 29.5207 34.5266 29.574 34.3669C29.6272 34.2071 29.574 34.1538 29.4142 34.0473L26.4852 31.5444C26.432 31.4911 26.3254 31.4379 26.2722 31.4911C26.1124 31.5444 26.0059 31.5976 25.8462 31.4911C25.6864 31.3846 25.7396 31.2781 25.8462 31.0651C26.0592 30.7456 26.5917 30.1598 26.7515 29.9467C26.858 29.8402 26.9112 29.8402 26.9645 29.8402C27.0178 29.8402 27.071 29.8935 27.1775 29.9467C27.3373 30.1065 27.284 30.1598 27.2308 30.3195C27.1775 30.4793 27.2308 30.5325 27.3905 30.6923L30.1065 33.0355C30.3728 33.2485 30.4793 33.2485 30.7456 32.8757C31.0651 32.503 31.2249 32.2367 31.2249 31.9172C31.2249 31.6509 31.1183 31.4379 31.2249 31.2781C31.3314 31.1716 31.4379 31.1716 31.5976 31.2249C31.7574 31.4379 31.8639 31.5976 32.0237 31.8107ZM27.4438 33.4615C26.9112 33.142 26.432 33.0355 25.8994 33.0355C25.6331 33.0355 25.4201 33.0888 25.1538 33.142C24.5148 33.3018 23.9822 33.7278 23.6627 34.3669C23.3432 34.9527 23.2367 35.645 23.3964 36.284C23.6095 37.0828 24.0888 37.6686 24.8343 38.0947C25.6331 38.5207 26.3254 38.6272 27.1243 38.4142C27.8166 38.2012 28.2959 37.8284 28.6154 37.2426C28.9349 36.6568 29.0414 35.9645 28.8817 35.3254C28.7219 34.4734 28.2426 33.9408 27.4438 33.4615ZM28.1893 36.8698C27.9763 37.2426 27.6035 37.4556 27.1243 37.4556C26.6982 37.4556 26.1124 37.2959 25.4734 36.9231C24.142 36.1775 23.716 35.3787 24.142 34.5799C24.568 33.8343 25.4734 33.7811 26.7515 34.4734C28.1361 35.3254 28.6154 36.1243 28.1893 36.8698ZM62.9645 30.0533C62.8047 30.2663 62.7515 30.3728 62.7515 30.426C62.8047 30.5858 62.858 30.6923 62.7515 30.8521C62.645 30.9586 62.5385 30.9586 62.3787 30.8521L61.4201 30.1065C61.2604 30 61.2604 29.8935 61.3136 29.7337C61.3669 29.6272 61.4734 29.6272 61.5799 29.6272C61.5799 29.6272 61.6331 29.6272 61.6864 29.6272C61.7929 29.6272 61.8994 29.5207 62.0059 29.3609L64.1893 26.5385C64.3491 26.3254 64.4024 26.2189 64.4024 26.1657C64.3491 26.0059 64.2959 25.8994 64.4024 25.7396C64.4556 25.6864 64.5089 25.6331 64.5621 25.6331C64.6154 25.6331 64.7219 25.6864 64.7751 25.7396L65.787 26.4852C65.9467 26.5917 66 26.6982 65.8935 26.858C65.787 26.9645 65.7337 26.9645 65.6272 26.9645H65.574C65.4675 26.9645 65.4142 27.071 65.2544 27.2308L62.9645 30.0533ZM68.2899 32.9822C68.929 32.3965 69.2485 31.7041 69.3018 30.9053C69.355 30.213 69.0888 29.6272 68.6095 29.0947C68.1302 28.6154 67.5444 28.2959 66.8521 28.2959C66.7988 28.2959 66.7456 28.2959 66.6923 28.2959C65.9467 28.2959 65.3077 28.5621 64.6686 29.1479C64.0296 29.7337 63.7101 30.3728 63.6568 31.2249C63.6568 31.9172 63.8166 32.503 64.2959 33.0355C64.7751 33.5148 65.3609 33.8343 66.0533 33.8343C67.0118 33.8876 67.6509 33.6213 68.2899 32.9822ZM65.6805 33.0355C65.3609 33.0355 65.0947 32.929 64.8817 32.6627C64.2959 32.0237 64.5621 31.1183 65.6805 30.1065C66.7988 29.0947 67.7041 28.8817 68.2899 29.5207C68.8757 30.1598 68.6095 31.0651 67.5976 32.0237C66.7988 32.716 66.1598 33.0355 65.6805 33.0355ZM53.9645 25.2071C53.9112 25.5266 53.9112 25.6864 54.071 25.7929C54.1775 25.8994 54.284 26.0059 54.2308 26.1657C54.1243 26.3787 54.071 26.432 53.8047 26.3787L52.5266 26.0592C52.3136 26.0059 52.2071 25.8994 52.2071 25.7929C52.2604 25.5799 52.4201 25.5266 52.5799 25.5266C52.6864 25.5266 52.7396 25.3669 52.7396 25.1006L53.2722 22.1183L51.6213 24.8876C51.4615 25.1538 51.355 25.3136 51.1953 25.2604C51.0355 25.2071 50.929 25.0473 50.8757 24.7278L50.2367 21.5325L49.8107 24.3018C49.7574 24.7278 49.7574 24.9941 49.8107 25.0473C50.0237 25.2071 50.2367 25.2071 50.1834 25.4734C50.1302 25.6864 50.0237 25.7396 49.8107 25.6864L48.7456 25.6331C48.426 25.6331 48.426 25.4734 48.426 25.3136C48.4793 25.0473 48.6923 25.0473 48.7988 24.9941C48.9586 24.8876 49.0118 24.5148 49.1183 23.9822L49.5444 21.213C49.5976 20.9467 49.5976 20.8935 49.4379 20.787C49.2781 20.6805 49.1183 20.6805 49.1716 20.4142C49.2249 20.2012 49.3846 20.1479 49.5976 20.1479C49.5976 20.1479 49.5976 20.1479 49.6509 20.1479C49.9172 20.1479 50.3965 20.1479 50.7692 20.2544C51.0888 20.3077 51.142 20.4142 51.1953 20.8935L51.6746 23.3432L53.0592 21.1065C53.2189 20.8402 53.3254 20.6272 53.5917 20.6805C53.858 20.7337 54.3905 20.8935 54.6568 20.9467C54.9231 21 55.0296 21.1065 54.9763 21.3728C54.9231 21.5858 54.7633 21.5858 54.6035 21.6391C54.4438 21.6923 54.4438 21.7456 54.3905 21.9053L53.9645 25.2071ZM48.5325 22.8639C48.4793 21.9586 48.1598 21.3195 47.5207 20.787C47.0947 20.4142 46.5089 20.2012 45.9231 20.2012C45.8166 20.2012 45.7633 20.2012 45.6568 20.2012C44.9645 20.2544 44.3787 20.574 43.9527 21.0533C43.4201 21.6923 43.2071 22.3846 43.2604 23.2367C43.3136 24.142 43.6331 24.7811 44.2722 25.3136C44.8047 25.7396 45.3905 25.9527 46.0828 25.8994C46.7751 25.8462 47.3609 25.5266 47.787 24.9941C48.426 24.4615 48.6391 23.7692 48.5325 22.8639ZM46.1361 25.3669C46.0828 25.3669 46.0828 25.3669 46.0296 25.3669C45.2308 25.3669 44.6982 24.6213 44.5917 23.1834C44.4852 21.6923 44.9112 20.8402 45.7633 20.787C46.6154 20.7337 47.2012 21.4793 47.3077 22.9172C47.4142 24.4615 47.0414 25.3136 46.1361 25.3669ZM62.9112 25.7396L60.9941 29.0414C60.7811 29.4142 60.6213 29.5207 60.3018 29.3609C60.0888 29.2544 60.0355 29.1479 59.9822 28.9349C59.9822 28.7219 59.8757 27.1243 59.6095 24.2485L58.1183 26.9645C57.9586 27.2308 57.9053 27.3373 58.0651 27.497C58.1716 27.6568 58.2781 27.7101 58.1716 27.8698C58.0651 28.0296 58.0651 28.0296 57.8521 27.9231C57.5858 27.8166 57.0533 27.5503 56.8935 27.497C56.7337 27.3905 56.6272 27.284 56.7337 27.1243C56.8402 26.9645 57 26.9645 57.1065 26.9645C57.1598 26.9645 57.213 26.9645 57.2663 26.9645C57.4793 26.9112 57.5325 26.7515 57.6923 26.4852L59.2899 23.5562C59.3965 23.3432 59.4497 23.2899 59.3432 23.1302C59.2367 22.9704 59.1302 22.9172 59.2367 22.7041C59.2899 22.5976 59.3432 22.5444 59.4497 22.5444C59.503 22.5444 59.5562 22.5444 59.6627 22.5976C59.929 22.7041 60.355 22.9704 60.568 23.0769C60.7811 23.1834 60.8343 23.4497 60.8343 23.8225C60.9408 24.7278 61.0473 26.0059 61.1006 27.5503L62.432 25.3669C62.5385 25.1538 62.5917 25.0473 62.5385 24.9408C62.432 24.7278 62.3254 24.6746 62.432 24.4615C62.5385 24.3018 62.645 24.3018 62.858 24.4083C63.071 24.5148 63.4438 24.7811 63.6036 24.8876C63.7633 24.9941 63.8166 25.1006 63.7633 25.2604C63.6568 25.4201 63.5503 25.4201 63.3905 25.3669C63.1243 25.3669 63.071 25.5266 62.9112 25.7396ZM56.2012 26.645C56.3077 26.8047 56.3609 26.858 56.3077 27.0178C56.2544 27.1775 56.2544 27.1775 55.9882 27.071C55.7751 26.9645 54.9763 26.6982 54.7633 26.645C54.6036 26.5917 54.497 26.5385 54.5503 26.3787C54.6036 26.2189 54.7101 26.2189 54.8698 26.1657C54.9763 26.1124 55.0296 26.0059 55.0828 25.7929L56.2544 22.4379C56.3609 22.1716 56.3609 22.0651 56.3077 22.0118C56.2012 21.8521 56.1479 21.7988 56.2012 21.6391C56.2544 21.5325 56.3077 21.4793 56.4142 21.4793C56.4675 21.4793 56.5207 21.4793 56.574 21.4793C56.787 21.5325 57.4793 21.7988 57.6923 21.9053C57.9053 22.0118 57.9586 22.0651 57.9053 22.2249C57.8521 22.3846 57.7456 22.3846 57.5858 22.4379C57.4793 22.4911 57.426 22.5976 57.3728 22.7574L56.2012 26.1657C56.2012 26.432 56.1479 26.5917 56.2012 26.645ZM44.1124 55.2959C43.4734 55.1894 42.8343 55.0296 42.2485 54.8166C41.1302 54.497 40.1183 54.2308 39 54.2308C38.9467 54.2308 38.9467 54.2308 38.8935 54.2308C37.9882 54.2308 37.2426 54.3905 36.7101 54.6035C36.6036 54.071 36.497 53.432 36.284 52.8462C36.071 52.2604 35.8047 51.8876 35.5385 51.4615C35.2189 50.9822 34.8994 50.4497 34.4734 49.4379C34.1006 48.4793 33.9408 47.8402 33.7811 47.2544C33.6213 46.7219 33.5148 46.2959 33.3018 45.7633C32.9822 45.071 32.5562 44.4852 32.1834 44.0592C32.5562 43.6331 32.9822 42.9941 33.3018 42.355C33.568 41.8225 33.6746 41.3964 33.7811 40.8639C33.9408 40.2781 34.1006 39.6391 34.4734 38.6805C34.8994 37.6686 35.2189 37.1361 35.5385 36.6568C35.8047 36.2308 36.071 35.858 36.284 35.2722C36.497 34.6864 36.6568 34.0473 36.7101 33.5148C37.2426 33.7278 37.9882 33.8876 38.8935 33.8876C38.9467 33.8876 38.9467 33.8876 39 33.8876C40.0651 33.8876 41.1302 33.568 42.2485 33.3018C43.3669 32.9822 44.5385 32.6627 45.7633 32.6627C45.8166 32.6627 45.8166 32.6627 45.8698 32.6627H45.9231H45.9763C46.0296 32.6627 46.0296 32.6627 46.0828 32.6627C47.3077 32.716 48.4793 32.9822 49.5976 33.3018C50.716 33.6213 51.7278 33.8876 52.8462 33.8876C52.8994 33.8876 52.8994 33.8876 52.9527 33.8876C53.858 33.8876 54.6035 33.7278 55.1361 33.5148C55.2426 34.0473 55.3491 34.6864 55.5621 35.2722C55.7751 35.858 56.0414 36.2308 56.3077 36.6568C56.6272 37.1361 56.9467 37.6686 57.3728 38.6805C57.7456 39.6391 57.9053 40.2781 58.0651 40.8639C58.2249 41.3964 58.3314 41.8225 58.5444 42.355C58.8639 43.0473 59.2899 43.6331 59.6627 44.0592C59.2899 44.4852 58.8639 45.1243 58.5444 45.7633C58.2781 46.2959 58.1716 46.7219 58.0651 47.2544C57.9053 47.8402 57.7456 48.4793 57.3728 49.4379C56.9467 50.4497 56.6272 50.9822 56.3077 51.4615C56.0414 51.8876 55.7751 52.2604 55.5621 52.8462C55.2959 53.4852 55.1361 54.071 55.0296 54.6035C54.497 54.3905 53.7515 54.2308 52.8462 54.2308C52.7929 54.2308 52.7929 54.2308 52.7396 54.2308C51.8876 54.2308 51.0355 54.4438 50.1302 54.6568C50.2899 53.645 51.2485 53.2189 51.2485 53.2189C51.2485 53.2189 50.6095 52.7396 50.2899 51.9941C51.7278 50.929 52.6331 49.3846 52.6331 47.6272C52.6331 46.3491 52.1538 45.1775 51.355 44.2189C52.1538 43.2604 52.6331 42.0888 52.6331 40.8106C52.6331 37.6154 49.5976 35.0592 45.8698 35.0592C42.142 35.0592 39.1065 37.6154 39.1065 40.8106C39.1065 42.0888 39.5858 43.2604 40.3846 44.2189C39.5858 45.1775 39.1065 46.3491 39.1065 47.6272C39.1065 49.9704 40.7574 52.0473 43.1538 52.8994C42.9941 53.1124 42.8343 53.2189 42.8343 53.2189C42.8343 53.2189 44.0059 53.7515 44.0059 54.9231V55.2959H44.1124ZM64.2426 49.8639C64.2426 49.6509 64.1893 49.4911 64.1893 49.2781C64.0296 48.426 63.9763 47.8402 63.2308 46.4024C62.5385 45.0178 62.0059 44.432 61.4201 43.6864C61.2604 43.4734 61.1006 43.3136 60.9408 43.1006C60.4615 42.5148 60.2485 41.7692 60.2485 40.9704C60.1953 40.9704 60.0888 40.9704 60.0355 40.9704C59.6627 40.9704 59.2899 40.9172 58.9172 40.8639C59.0237 41.2899 59.1302 41.6627 59.3432 42.0355C59.7692 42.9408 60.4615 43.7396 60.8343 44.0592C60.4615 44.432 59.7692 45.1775 59.3432 46.0828C58.8639 47.0947 58.9172 47.8402 58.1716 49.7041C58.1183 49.9172 58.0118 50.0769 57.9586 50.2367C58.0118 50.503 58.0651 50.716 58.0651 50.9822C58.2249 52.8462 58.1716 54.3905 57.9586 55.6686C57.6923 57.1598 57.1598 58.3314 56.3077 59.2367C55.7751 59.8225 55.1361 60.2485 54.3905 60.568C53.645 60.8343 52.9527 60.8876 52.5266 60.8876C52.1006 60.8876 51.7811 60.8343 51.4615 60.7278C50.929 60.568 50.3432 60.3018 49.9704 59.716C49.5976 59.1834 49.4379 58.4911 49.4379 57.426V54.8698C49.4379 54.1775 49.7041 53.5385 50.1834 53.0592C49.7041 52.4201 49.4379 51.7278 49.4379 51.0355V45.0178C49.4379 44.5385 49.4911 44.0059 49.8107 43.5799C50.2367 42.9941 50.9822 42.9408 51.5148 42.9408C51.8343 42.3018 52.0473 41.6095 52.0473 40.9172C52.0473 40.7574 52.0473 40.5976 52.0473 40.4911C51.568 40.5976 51.0888 40.7041 50.6627 40.8106C49.8106 41.0769 49.0118 41.1834 48.2663 41.1834C47.2012 41.1834 46.5089 40.9172 46.0828 40.5976C45.7101 40.8107 45.1775 41.0237 44.4852 41.0237C44.432 41.0237 44.432 41.0237 44.3787 41.0237C43.8994 41.0237 43.6331 40.9704 43.3669 40.9172C43.1538 40.8639 42.9941 40.8639 42.6746 40.8639C42.568 40.8639 42.4083 40.8639 42.2485 40.8639C41.8757 40.8639 41.5562 40.9172 41.3432 40.9704C41.3964 41.2367 41.4497 41.5562 41.503 41.9822C41.5562 42.355 41.6095 42.6746 41.6095 42.9408C41.7692 42.9408 41.9822 42.9408 42.1953 42.9408C42.355 42.9408 42.568 42.9408 42.7278 42.9408C42.8343 42.9408 42.9408 42.9408 43.0473 42.9408C44.5917 42.9408 45.1775 43.8462 45.1775 44.645V51.3018C45.1775 52.0473 44.8047 52.7396 44.432 53.2189C44.9112 53.7515 45.1775 54.3373 45.1775 55.0296V58.3314C45.1775 59.6627 44.432 60.5148 43.1006 60.8343C42.7811 60.8876 42.4083 60.9408 41.929 60.9408C41.8225 60.9408 41.7692 60.9408 41.6627 60.9408V63.284H43.8994C44.7515 63.284 45.497 62.7515 45.5503 62.7515L46.0296 62.432L46.5089 62.7515L47.3609 63.3373C47.4142 63.284 47.5207 63.2308 47.574 63.1775C47.9467 62.9645 48.1598 62.8047 48.1598 62.8047L48.6923 62.3787L49.1716 62.8047C49.2249 62.8047 49.7041 63.2308 50.3964 63.4438C50.8225 63.5503 51.355 63.6568 51.9941 63.6568C53.0592 63.6568 54.2308 63.4438 54.9763 63.284C55.4024 63.1775 55.8284 63.1243 56.2012 63.0178C57.213 62.8047 58.0118 62.5917 58.6509 62.5917C58.7041 62.5917 58.7041 62.5917 58.7574 62.5917C59.2367 62.5917 59.716 62.6982 60.142 62.858C60.1953 62.3787 60.3018 61.8462 60.4083 61.4201C60.6213 60.8343 61.0473 60.4083 61.5266 59.8225C62.0592 59.2367 62.6982 58.4911 63.3373 57.3728C64.0828 55.9349 64.2959 54.7101 64.4556 53.9645C64.5089 53.5385 64.5621 53.2722 64.6686 53.0592C64.8284 52.7929 65.2544 52.2604 65.6272 51.7811C64.9349 51.4083 64.4556 50.8225 64.2426 49.8639Z" fill="white"/>
<defs>
<radialGradient id="paint0_radial_314_3825" cx="0" cy="0" r="1" gradientUnits="userSpaceOnUse" gradientTransform="translate(47.9888 47.9884) scale(35.7223)">
<stop stop-color="#099758"/>
<stop offset="0.184" stop-color="#099758"/>
<stop offset="0.2023" stop-color="#0F8E52"/>
<stop offset="0.2593" stop-color="#127743"/>
<stop offset="0.3183" stop-color="#106637"/>
<stop offset="0.3792" stop-color="#0D5A30"/>
<stop offset="0.4432" stop-color="#0B532B"/>
<stop offset="0.5153" stop-color="#0A512A"/>
<stop offset="0.586" stop-color="#0E4927"/>
<stop offset="0.681" stop-color="#104225"/>
<stop offset="0.7744" stop-color="#104326"/>
<stop offset="0.8353" stop-color="#114829"/>
<stop offset="0.8868" stop-color="#13502E"/>
<stop offset="0.9331" stop-color="#135C34"/>
<stop offset="0.9756" stop-color="#0F6B3D"/>
<stop offset="1" stop-color="#067742"/>
</radialGradient>
</defs>
</svg>
