<svg width="96" height="96" viewBox="0 0 96 96" fill="none" xmlns="http://www.w3.org/2000/svg">
<path fill-rule="evenodd" clip-rule="evenodd" d="M30.5483 18.1999C30.3208 19.1235 18.2943 77.8844 18.3224 77.9344C18.3427 77.9705 22.3724 78 27.2772 78C34.3318 78 36.2036 77.9772 36.2355 77.8907C36.2578 77.8306 37.0828 73.8459 38.069 69.0359C39.0552 64.2259 39.8816 60.2062 39.9055 60.1032L39.9489 59.9158L47.099 59.8716C51.3164 59.8455 54.6257 59.7881 55.1673 59.7317C58.1347 59.4223 60.7412 58.8098 63.2131 57.8408C66.8622 56.4102 70.6737 53.6421 72.975 50.7511C75.5249 47.5477 76.9357 44.2329 77.5688 39.9573C77.7333 38.8465 77.7062 35.3011 77.5215 33.7547C77.0812 30.0692 76.1138 27.1894 74.5123 24.7977C72.0427 21.1091 68.4192 19.0139 63.1216 18.2115C62.205 18.0726 60.7808 18.0572 46.3587 18.0298L30.5975 18L30.5483 18.1999ZM54.3365 33.6171C58.157 34.1866 59.8928 36.2628 59.4541 39.7387C59.0438 42.9897 56.9461 44.743 52.7422 45.3485C52.0337 45.4505 50.7113 45.4954 47.4057 45.5294C43.1587 45.5731 43.0112 45.5692 43.0109 45.4115C43.0108 45.3218 43.5693 42.6018 44.252 39.367L45.4934 33.4857L49.4776 33.4862C52.5563 33.4866 53.6607 33.5164 54.3365 33.6171Z" fill="#0059A3"/>
</svg>
