<svg width="97" height="96" viewBox="0 0 97 96" fill="none" xmlns="http://www.w3.org/2000/svg">
<path d="M9.45385 48.0537V43.8711H11.4198C12.5747 43.8711 13.5106 44.8079 13.5106 45.9619C13.5106 47.1177 12.5747 48.0537 11.4198 48.0537H9.45385ZM4.05566 39.8505V56.0894H9.45475V52.1557L12.9304 52.1528C16.3274 52.1528 19.0817 49.3985 19.0817 46.0015C19.0817 42.6037 16.3274 39.8503 12.9304 39.8503L4.05566 39.8505Z" fill="#2354B8"/>
<path d="M24.0203 39.8505L15.0613 56.0894H21.132L23.3251 52.1132H28.4147V56.0894H33.7305V39.8505H24.0203ZM28.4147 48.0537H25.5653L28.4147 42.8881V48.0537Z" fill="#2354B8"/>
<path d="M65.1974 39.8503L59.8373 49.5678C59.2761 50.6186 58.1682 51.3337 56.8947 51.3337C55.0537 51.3337 53.562 49.8411 53.562 48.0001C53.562 46.1599 55.0537 44.6674 56.8947 44.6674C58.3212 44.6674 59.5377 45.5644 60.0138 46.8243L62.8731 41.628C61.3108 40.1617 59.2073 39.262 56.8947 39.262C54.0951 39.262 51.6033 40.5789 50.0039 42.6263C49.717 42.9947 49.4582 43.3857 49.2319 43.7967L46.0558 49.5678C45.4946 50.6186 44.3876 51.3337 43.1141 51.3337C41.2731 51.3337 39.7805 49.8411 39.7805 48.0001C39.7805 46.1599 41.2731 44.6674 43.1141 44.6674C44.5406 44.6674 45.7571 45.5644 46.2323 46.8243L49.0925 41.6289C47.5293 40.1617 45.4267 39.262 43.1141 39.262C38.288 39.262 34.376 43.1739 34.376 48.0001C34.376 52.8262 38.288 56.7382 43.1141 56.7382C45.9128 56.7382 48.4046 55.4221 50.0039 53.3738C51.6033 55.4221 54.0951 56.7382 56.8947 56.7382C60.2337 56.7382 63.1346 54.8655 64.6055 52.113H69.5918V56.0892H74.9077V39.8503H65.1974ZM69.6443 48.0535H66.795L69.6443 42.8879V48.0535Z" fill="#2354B8"/>
<path d="M82.0277 48.0533V43.8707H83.9937C85.1486 43.8707 86.0845 44.8075 86.0845 45.9615C86.0845 47.1174 85.1486 48.0533 83.9937 48.0533H82.0277ZM92.0557 56.089L88.8959 50.3695C90.3585 49.315 91.3098 47.5971 91.3098 45.6565C91.3098 42.4496 88.7103 39.8501 85.5043 39.8501H76.6296V56.089H82.0287V52.1553L83.809 52.1539L85.9832 56.0894L92.0557 56.089Z" fill="#2354B8"/>
</svg>
