<svg width="97" height="96" viewBox="0 0 97 96" fill="none" xmlns="http://www.w3.org/2000/svg">
<path d="M33.9032 26.1509L35.2797 24.3188L34.9792 24.852C34.9501 24.9101 34.9598 24.9974 35.0179 25.0265C35.0761 25.0652 35.144 25.0459 35.1827 24.9877L35.7256 24.0086L36.2781 24.9974C36.3072 25.0555 36.3847 25.0749 36.4332 25.0362C36.4913 24.9974 36.501 24.9198 36.472 24.8617L36.1715 24.3285L37.5189 26.2381C37.5189 27.8376 36.8209 28.2835 36.0551 28.5937H35.3863C34.6884 28.1962 33.9517 27.7794 33.9032 26.1509ZM47.5128 28.1381L29.9483 39.9447V16.3799L47.5128 28.1381ZM32.3813 28.6809C32.7012 29.0008 33.3991 29.1365 34.2522 29.1365C35.1052 29.1365 35.4832 28.9717 35.4541 28.8457H35.997C35.9679 28.9717 36.7046 29.1656 37.3444 29.1656C37.9841 29.1656 38.779 28.9523 39.0117 28.7294C39.2443 28.4967 39.5545 27.0912 38.7402 26.2769C38.7305 26.2575 35.997 23.8632 35.997 23.8632C36.1618 23.8826 36.3169 23.902 36.4817 23.9117C36.5689 23.9117 36.6464 23.902 36.724 23.8729C36.9663 23.7663 37.0826 23.4755 36.9857 23.2041C36.8888 22.9424 36.6271 22.8067 36.3847 22.9133C36.1908 23.0005 35.8128 23.524 35.7353 23.6306L35.7256 23.65C35.7159 23.65 35.7159 23.65 35.7062 23.65L35.6965 23.6306C35.6189 23.524 35.2506 23.0005 35.047 22.9133C34.8047 22.8067 34.543 22.9424 34.446 23.2041V23.2138C34.3588 23.4755 34.4751 23.7663 34.7174 23.8729C34.795 23.902 34.8822 23.9117 34.9598 23.902C35.1149 23.902 35.27 23.8826 35.4251 23.8632C35.4251 23.8632 32.6915 26.2672 32.6818 26.2963C31.8579 27.1396 32.0614 28.3707 32.3813 28.6809ZM39.1086 30.0768H35.774H32.4395V30.5033C32.4395 30.5033 34.3588 30.5421 35.3281 33.1593H36.2199C37.1893 30.5421 39.1086 30.5033 39.1086 30.5033V30.0768ZM34.9792 23.1459C34.9501 23.1362 34.921 23.1265 34.8919 23.1265C34.7659 23.1265 34.6593 23.2332 34.6593 23.3786C34.6593 23.4173 34.669 23.4561 34.6787 23.4852C34.7077 23.5434 34.7465 23.5918 34.8047 23.6209C34.9985 23.65 35.2021 23.6403 35.396 23.6015C35.2797 23.427 35.1343 23.2719 34.9792 23.1459ZM36.6561 23.6306C36.7725 23.5821 36.8306 23.427 36.7822 23.301C36.7337 23.1653 36.598 23.1072 36.4817 23.1556C36.3266 23.2816 36.1812 23.4367 36.0648 23.6112C36.2587 23.65 36.4526 23.65 36.6561 23.6306ZM23.4052 27.9345L23.0077 27.1299L22.6103 27.9345L21.7282 28.0605L22.368 28.6809L22.2129 29.563L23.0077 29.1462L23.8026 29.563L23.6475 28.6809L24.2873 28.0605L23.4052 27.9345ZM28.7463 16.3799V39.9447L11.172 28.1381L28.7463 16.3799ZM28.0386 27.0524L24.8689 24.6775L24.8495 24.5321H24.675H24.5781C24.4133 25.1137 23.725 25.5499 22.9011 25.5499C22.1062 25.5499 21.4374 25.1428 21.2532 24.5806H21.0109L17.6375 27.1106L19.3242 28.9717L20.7491 28.1478L20.4099 32.7037H25.7607L25.276 28.2835L26.3617 28.9135L28.0386 27.0524ZM75.4785 30.0186C75.4785 30.0186 75.3719 30.0574 75.0617 29.9314C74.8387 29.8441 74.7709 29.7375 74.7709 29.6987C74.7806 29.6018 74.7127 29.5145 74.6255 29.5048C74.5285 29.4855 74.4316 29.5533 74.4219 29.6503C74.4122 29.689 74.3735 30.0574 74.9357 30.2706C75.1586 30.3579 75.3137 30.387 75.43 30.387C75.5754 30.387 75.6433 30.3482 75.6821 30.3191C75.7596 30.2609 75.7887 30.1349 75.7208 30.0574C75.653 29.9701 75.5561 29.9507 75.4785 30.0186ZM85.0557 28.1381L67.4911 39.9447V16.3799L85.0557 28.1381ZM70.5736 27.7988C70.5736 27.7988 71.6399 27.9539 72.5317 27.159C73.4235 26.3642 73.8112 24.9101 73.8112 24.9101C73.8112 24.9101 71.8822 25.1525 71.1843 25.8116C70.3119 26.6259 70.5736 27.7988 70.5736 27.7988ZM77.5238 30.6681C77.5238 29.9992 77.2039 29.4273 76.506 29.185C76.2831 29.1074 75.8953 29.185 75.6336 29.1947C75.6433 28.8554 75.6239 28.0896 75.3622 27.4789C75.2265 27.159 75.0714 26.907 74.9454 26.7034C74.7806 26.432 74.6546 26.2381 74.6546 26.0152V26.0055C74.6546 25.9473 74.6546 25.8989 74.6546 25.831C74.6546 25.0265 74.6933 24.6872 74.703 24.6775C74.7127 24.5806 74.6449 24.4836 74.5479 24.4739C74.451 24.4642 74.3541 24.5321 74.3444 24.629C74.3444 24.6484 74.2959 24.9974 74.2959 25.8213C74.2959 26.558 74.2959 26.8295 73.472 27.6534C73.2199 27.9054 73.0164 28.1284 72.7837 28.3707L72.5414 28.6324C72.2118 28.9814 71.8338 29.5145 71.7853 29.5921C71.5236 29.5727 71.1843 29.5436 71.0098 29.6212C70.4282 29.8538 70.2343 30.3579 70.2343 30.9298C70.2343 31.7343 71.068 32.7037 71.9695 32.7037C72.5995 32.7037 73.2587 32.1899 73.5398 31.6083C73.3847 31.2981 73.3072 30.9783 73.3072 30.6584C73.3072 30.3966 73.3459 30.1834 73.3944 29.9895C73.249 29.815 73.0551 29.6793 72.7934 29.5824C72.648 29.5339 72.4348 29.5533 72.2409 29.5727C72.3863 29.3691 72.6092 29.088 72.8031 28.8748L73.0454 28.613C73.2684 28.3707 73.472 28.1575 73.724 27.9054C74.2184 27.4111 74.451 27.0815 74.5576 26.7422C74.5867 26.7907 74.6158 26.8295 74.6449 26.8779C74.7709 27.0815 74.9066 27.3044 75.0423 27.6049C75.2749 28.1478 75.2846 28.8554 75.2846 29.1656C75.0132 29.1462 74.7127 29.1365 74.5382 29.2044C73.8985 29.4661 73.6852 30.0186 73.6852 30.6584C73.6852 31.5502 74.5479 32.6358 75.6142 32.6358C76.6805 32.6358 77.5238 31.5599 77.5238 30.6681ZM71.8628 30.3288C71.8628 30.3288 71.7659 30.3579 71.4945 30.2512C71.2715 30.164 71.2522 30.0671 71.2425 30.0574C71.2522 29.9604 71.1843 29.8732 71.0971 29.8635C71.0001 29.8441 70.9032 29.912 70.8935 30.0089C70.8838 30.0477 70.845 30.387 71.3685 30.5905C71.572 30.6681 71.7174 30.6971 71.8241 30.6971C71.9598 30.6971 72.0276 30.6584 72.0567 30.6293C72.1343 30.5711 72.1633 30.4451 72.1052 30.3676C72.0373 30.29 71.9404 30.2609 71.8628 30.3288ZM58.2532 28.1671C58.166 28.1671 58.0981 28.235 58.0981 28.3222V32.3063C58.0981 32.3935 58.166 32.4517 58.2532 32.4517C58.3404 32.4517 58.4083 32.3838 58.4083 32.3063V28.3222C58.3986 28.235 58.3308 28.1671 58.2532 28.1671ZM66.2794 16.3799V39.9447L48.7148 28.1381L66.2794 16.3799ZM64.1371 28.5452C64.1371 28.7488 64.3019 28.9232 64.5152 28.9232C64.7188 28.9232 64.8932 28.7584 64.8932 28.5452C64.8932 28.3319 64.7284 28.1671 64.5152 28.1671C64.3019 28.1671 64.1371 28.3416 64.1371 28.5452ZM63.4101 27.8279C63.4101 27.9539 63.5071 28.0508 63.6331 28.0508C63.7591 28.0508 63.856 27.9539 63.856 27.8279C63.856 27.7019 63.7591 27.6049 63.6331 27.6049C63.5071 27.6049 63.4101 27.7019 63.4101 27.8279ZM63.0321 28.6324C63.0321 28.7488 63.129 28.8457 63.2453 28.8457C63.3617 28.8457 63.4586 28.7488 63.4586 28.6324C63.4586 28.5161 63.3617 28.4192 63.2453 28.4192C63.129 28.4289 63.0321 28.5161 63.0321 28.6324ZM62.4214 27.1784C62.4214 27.3141 62.528 27.4208 62.6637 27.4208C62.7994 27.4208 62.9061 27.3141 62.9061 27.1784C62.9061 27.0427 62.7994 26.9361 62.6637 26.9361C62.528 26.9361 62.4214 27.0427 62.4214 27.1784ZM61.9852 28.6712C61.9852 28.7778 62.0724 28.8651 62.1791 28.8651C62.2857 28.8651 62.3729 28.7778 62.3729 28.6712C62.3729 28.5646 62.2857 28.4773 62.1791 28.4773C62.0724 28.4676 61.9852 28.5549 61.9852 28.6712ZM61.2679 30.8329C60.5602 30.4936 60.095 29.9314 60.095 29.3013H61.2679V28.836C61.2679 28.2059 59.9496 26.9555 59.9496 26.306C59.9496 25.8504 59.8914 24.629 59.8623 23.9311H60.1144V23.0296H58.6119V23.9311H58.8639C58.8251 24.629 58.7766 25.8601 58.7766 26.306C58.7766 26.9555 57.4583 28.1381 57.4583 28.836V32.7425C57.4583 32.946 57.6231 33.1011 57.817 33.1011H60.9189C61.1225 33.1011 61.2776 32.9363 61.2776 32.7425C61.2679 32.7425 61.2679 31.8022 61.2679 30.8329ZM65.3101 29.563H60.4245C60.4245 30.2125 61.4424 30.7456 62.7219 30.7844V32.7522C62.7219 32.8297 61.8204 32.8394 61.8204 32.8394C61.7235 32.8394 61.6459 32.917 61.6459 33.0139C61.6459 33.1108 61.7235 33.1884 61.8204 33.1884H63.9142C64.0111 33.1884 64.0887 33.1108 64.0887 33.0139C64.0887 32.917 64.0111 32.8394 63.9142 32.8394C63.9142 32.8394 63.0127 32.8297 63.0127 32.7522V30.7844C64.2922 30.7456 65.3101 30.2125 65.3101 29.563ZM29.9483 42.8237L47.5128 54.5819L29.9483 66.3885V42.8237ZM33.4961 52.2167C33.4961 52.3621 33.6318 52.4784 33.7966 52.4784H34.6302C34.795 52.4784 34.9307 52.3621 34.9307 52.2167V51.9646C34.9307 51.8192 34.795 51.7029 34.6302 51.7029H33.7966C33.6318 51.7029 33.4961 51.8192 33.4961 51.9646V52.2167ZM32.7691 57.7032C32.7691 57.868 32.9048 58.0037 33.0695 58.0037H39.981C40.1458 58.0037 40.2815 57.868 40.2815 57.7032V53.0212C40.2815 52.8564 40.1458 52.7207 39.981 52.7207H39.0601C38.8081 52.1488 38.5076 51.5187 38.4203 51.5187H35.9C35.8128 51.5187 35.5123 52.1488 35.2603 52.7207H33.0792C32.9145 52.7207 32.7787 52.8564 32.7787 53.0212L32.7691 57.7032ZM34.8144 55.2313C34.8144 53.9227 35.871 52.8661 37.1796 52.8661C38.4882 52.8661 39.5448 53.9227 39.5448 55.2313C39.5448 56.54 38.4882 57.5965 37.1796 57.5965C35.871 57.5965 34.8144 56.5303 34.8144 55.2313ZM35.5899 55.2313C35.5899 56.1134 36.2975 56.8211 37.1796 56.8211C38.0617 56.8211 38.7693 56.1134 38.7693 55.2313C38.7693 54.3492 38.0617 53.6416 37.1796 53.6416C36.2975 53.6416 35.5899 54.3492 35.5899 55.2313ZM36.6561 54.9114C36.8403 54.5334 36.976 54.1941 36.7434 54.0778C36.5107 53.9615 36.1618 54.1747 35.9776 54.5528C35.7934 54.9308 35.8322 55.3283 36.0648 55.4446C36.2975 55.5609 36.4623 55.2895 36.6561 54.9114ZM28.7463 42.8237V66.3885L11.172 54.5819L28.7463 42.8237ZM15.4565 55.367C16.1254 55.3574 17.812 55.338 19.9446 55.2216C20.3517 55.2023 20.8073 55.1732 21.2726 55.1344C21.2338 55.0569 21.195 54.9696 21.1466 54.8921C20.9042 54.4849 20.3032 53.9324 20.2935 53.9227L20.5359 53.6513C20.565 53.6707 21.1853 54.2426 21.4568 54.6982C21.544 54.8436 21.6022 54.9793 21.6603 55.0956C21.8445 55.0859 22.019 55.0665 22.2032 55.0569C22.1741 54.9987 22.145 54.9405 22.1062 54.8824C21.8639 54.4752 21.2629 53.9227 21.2532 53.913L21.4955 53.6416C21.5246 53.661 22.145 54.2329 22.4164 54.6885C22.4843 54.8048 22.5424 54.9115 22.5909 55.0181C22.7654 54.9987 22.9496 54.989 23.124 54.9696C23.1047 54.9405 23.0853 54.9018 23.0659 54.8727C22.8235 54.4656 22.2225 53.913 22.2129 53.9033L22.4552 53.6319C22.4843 53.6513 23.1047 54.2232 23.3761 54.6788C23.4245 54.7661 23.473 54.8436 23.5118 54.9211C23.6863 54.9018 23.8704 54.8921 24.0449 54.8727C24.0449 54.863 24.0352 54.863 24.0352 54.8533C23.7929 54.4462 23.1919 53.8936 23.1822 53.8839L23.4245 53.6125C23.4536 53.6319 24.0837 54.2038 24.3454 54.6594C24.3745 54.7176 24.4036 54.7661 24.4327 54.8242C25.4214 54.737 26.2744 54.6497 26.7979 54.5916L26.7688 54.5722C26.8173 54.514 27.0014 54.1747 26.7203 53.0503C26.6912 53.0503 26.3714 51.9937 26.129 51.4121C26.1096 51.3733 26.0902 51.3443 26.0515 51.3346C26.0515 51.3346 25.5765 51.0631 25.3051 51.4897C25.0337 51.9162 24.9464 52.5656 24.4036 52.6044C23.8511 52.6432 23.6378 52.4299 23.4827 52.2167C23.3276 52.0034 23.2791 51.9162 23.221 51.6738C23.1628 51.4412 23.1531 51.1116 22.9689 51.0438L22.7751 50.9759C22.5521 50.8984 22.3292 51.0341 22.1644 51.1795C22.0093 51.3249 21.7476 51.5963 21.3114 51.8095C20.8752 52.0228 20.4777 52.081 20.4777 52.081L20.3129 52.2554C20.3032 52.2554 20.3032 52.2748 20.3032 52.2748V52.2845L20.342 52.3524L20.1675 52.4881L20.0221 52.4299H20.0124L19.7798 52.5559C19.7701 52.5559 19.7701 52.585 19.7701 52.585L19.8283 52.6626L19.6344 52.7692L19.4793 52.7013H19.4696H19.4599L19.237 52.837V52.8467L19.3048 52.9534L19.1012 53.0503L18.9752 52.9728C18.9752 52.9728 18.9655 52.9631 18.9655 52.9728L18.7329 53.0794L18.7232 53.0988V53.1085L18.7717 53.2151L18.5972 53.3314L18.4712 53.2539H18.4615H18.4518L18.2288 53.3605L18.2191 53.3799V53.3896L18.2676 53.4962L18.035 53.6222L17.9283 53.5447C17.9283 53.5447 17.9186 53.535 17.8993 53.5447C17.8217 53.5931 17.7635 53.6513 17.7054 53.7095C17.6957 53.7192 17.6957 53.7192 17.7054 53.7385L17.7539 53.8064C17.7054 53.8743 17.4727 53.9518 17.0172 54.1941C16.5131 54.5237 15.7764 54.863 15.4565 55.367ZM26.9336 55.8517L26.8754 54.9405V54.9308C25.6443 55.0569 22.2032 55.3283 19.964 55.5124C17.308 55.7257 16.0381 55.6578 15.408 55.6578L15.3983 56.2879C15.3983 56.317 15.4177 56.3267 15.4371 56.3364L16.0866 56.4236C16.7651 56.5109 17.4534 56.5496 18.1416 56.5012L26.8948 55.9002C26.9142 55.9002 26.9336 55.8711 26.9336 55.8517ZM78.3478 53.7385C78.3478 53.5931 78.2993 53.4768 78.1927 53.3799C77.8728 53.0988 77.1846 53.0891 76.7677 53.1085C76.6708 54.039 76.3994 54.8921 76.0117 55.5803C77.204 54.9793 78.3478 54.2329 78.3478 53.7385ZM67.4911 42.8237L85.0557 54.5819L67.4911 66.3885V42.8237ZM72.8322 49.7448C72.7934 50.152 73.3847 50.4912 73.3363 51.005C73.2878 51.509 73.2296 51.8289 73.2296 51.8289C73.2296 51.8289 73.8888 51.2376 73.9469 50.7239C73.9954 50.2101 73.4041 49.8805 73.4429 49.4637C73.4817 49.0566 73.5495 48.6398 73.5495 48.6398C73.5495 48.6398 72.871 49.3377 72.8322 49.7448ZM70.1956 52.3524C70.1956 54.2232 70.8838 55.8614 71.9113 56.7047H75.1102C75.2071 56.6272 75.304 56.5303 75.3913 56.4333C76.4672 55.968 78.8615 54.8048 78.8615 53.7385C78.8615 53.4477 78.7452 53.1957 78.532 53.0018C78.0764 52.6044 77.2524 52.5753 76.8065 52.6044C76.8065 52.5172 76.8162 52.4396 76.8162 52.3524H71.2522C71.2328 52.6141 71.2425 52.9728 71.3394 53.3993C71.5236 54.262 71.8144 54.6788 71.8144 54.6885C71.8919 54.8048 71.8628 54.9599 71.7562 55.0375C71.7077 55.0665 71.6593 55.0859 71.6108 55.0859C71.5333 55.0859 71.4557 55.0472 71.4073 54.9793C71.3879 54.9599 71.0583 54.4849 70.845 53.5059C70.7481 53.0406 70.7384 52.6529 70.7481 52.3524H70.1956ZM69.1002 56.9665C69.1002 57.3251 70.0211 57.6353 71.3782 57.8001H75.6239C76.981 57.6353 77.9019 57.3251 77.9019 56.9665H69.1002ZM63.0515 54.1747C63.0902 54.3395 63.1193 54.514 63.1193 54.6885C63.1193 54.8533 63.0999 55.0084 63.0612 55.1635C62.9739 55.5512 62.7994 55.9002 62.5571 56.1813C62.4214 56.3364 62.2566 56.4818 62.0821 56.5981C61.7235 56.8308 61.297 56.9665 60.8317 56.9665C60.3664 56.9665 59.9399 56.8308 59.5812 56.5981C59.4067 56.4818 59.2419 56.3461 59.1062 56.1813C58.7573 55.7839 58.544 55.2604 58.544 54.6788C58.544 54.0972 58.7573 53.5834 59.1062 53.1763C59.2419 53.0212 59.4067 52.8758 59.5812 52.7595C59.9399 52.5269 60.3664 52.3911 60.8317 52.3911C61.297 52.3911 61.7235 52.5269 62.0821 52.7595C62.2566 52.8758 62.4214 53.0115 62.5571 53.1763C62.7994 53.4671 62.9642 53.8064 63.0515 54.1747ZM62.024 53.7095C61.9367 53.6125 61.7816 53.6028 61.6847 53.6901L61.0255 54.2717C60.9674 54.2426 60.8995 54.2232 60.8317 54.2232C60.7929 54.2232 60.7541 54.2329 60.7153 54.2426L59.7945 53.1182C59.7072 53.0115 59.5618 53.0018 59.4552 53.0891C59.3583 53.1763 59.3389 53.3217 59.4261 53.4283L60.3858 54.6013C60.3761 54.6303 60.3664 54.6594 60.3664 54.6982C60.3664 54.9599 60.5796 55.1635 60.8317 55.1635C61.0837 55.1635 61.297 54.9502 61.297 54.6982C61.297 54.6885 61.297 54.6788 61.2873 54.6691L61.9949 54.0487C62.1015 53.9518 62.1112 53.8064 62.024 53.7095ZM59.5909 57.2088V57.6644H62.0821V57.2088C61.7041 57.393 61.2873 57.4996 60.8317 57.4996C60.3858 57.5093 59.9689 57.4027 59.5909 57.2088ZM62.0821 52.1682V51.7126H59.5909V52.1682C59.9689 51.984 60.3858 51.8774 60.8414 51.8774C61.2873 51.8677 61.7041 51.9743 62.0821 52.1682ZM66.2794 42.8237V66.3885L48.7148 54.5819L66.2794 42.8237ZM64.0693 54.6691C64.0693 54.3783 64.1759 54.1457 63.5943 54.1263C63.4586 53.4574 63.0806 52.8661 62.5571 52.459V51.3346C62.5571 51.2764 62.5086 51.2279 62.4505 51.2279H61.8786V50.1616H59.7945V51.2279H59.2226C59.1644 51.2279 59.1159 51.2764 59.1159 51.3346V52.459C58.4471 52.9728 58.0206 53.7773 58.0206 54.6885C58.0206 55.59 58.4471 56.3946 59.1159 56.918V58.0424C59.1159 58.1006 59.1644 58.1491 59.2226 58.1491H59.7945V59.2154H61.8786V58.1491H62.4505C62.5086 58.1491 62.5571 58.1006 62.5571 58.0424V56.918C63.0902 56.5012 63.4683 55.9002 63.5943 55.212C64.1759 55.1926 64.0693 54.9599 64.0693 54.6691ZM48.7148 56.0553L66.2794 67.8135L48.7148 79.6201V56.0553ZM50.4596 65.836H58.6991V65.584C58.6991 65.3804 58.5343 65.2253 58.3404 65.2253H55.6844C54.6666 65.2253 54.3758 63.781 52.5922 63.781C51.1285 63.781 50.4596 64.9345 50.4596 65.584V65.836ZM49.6939 69.6165C49.7229 69.6649 49.7811 69.694 49.8393 69.694H50.5178V71.2547C50.5178 71.3516 50.5954 71.4388 50.702 71.4388C50.8086 71.4388 50.8862 71.3613 50.8862 71.2547V69.694H58.4665V71.2547C58.4665 71.3516 58.544 71.4388 58.6506 71.4388C58.7573 71.4388 58.8348 71.3613 58.8348 71.2547V69.694H59.3098C59.368 69.694 59.4261 69.6649 59.4552 69.6165C59.4843 69.568 59.494 69.5098 59.4746 69.4517L58.7379 67.4936C58.7282 67.4742 58.7185 67.4645 58.7088 67.4548V66.1656H50.4693V67.4257C50.45 67.4451 50.4209 67.4645 50.4112 67.4936L49.6745 69.4517C49.6551 69.5001 49.6648 69.568 49.6939 69.6165ZM58.4471 67.7456H57.7685L57.9721 68.6374H56.6053L56.5181 67.7456H55.9171L55.9849 68.6374H54.812L54.7732 67.7456H54.2304L54.1819 68.6374H52.9993L53.0672 67.7456H52.5244L52.3693 68.6374H51.08L51.2836 67.7456H50.6923L50.101 69.3256H59.0384L58.4471 67.7456ZM46.3496 72.2143H43.4803V68.1043H46.3496V72.2143ZM45.0895 72.0107C45.0895 71.9138 45.0119 71.8266 44.9053 71.8266C44.8084 71.8266 44.7211 71.9041 44.7211 72.0107C44.7211 72.1077 44.7987 72.1949 44.9053 72.1949C45.0119 72.1949 45.0895 72.1174 45.0895 72.0107ZM46.1364 68.3466H43.6936V71.8169H46.1364V68.3466ZM47.5128 56.0553V79.6201L29.9483 67.8135L47.5128 56.0553ZM43.1605 69.8297H41.2896H39.3509H36.3556V64.6437H44.2752V67.765H44.4885V64.4401H36.1424V70.0333H39.3509V71.1093H38.3137V71.8169H42.3268V71.1093H41.2896V70.0333H43.1605V69.8297ZM43.1605 67.765H44.0329V64.9248H36.6174V69.5389H43.1605V67.765ZM46.5629 67.9104H43.2671V72.4179H46.5629V67.9104ZM28.6202 41.3987L11.0557 53.2054V29.6406L28.6202 41.3987ZM13.0041 42.9982H21.0787L20.6037 40.6911C20.5844 40.5845 20.4874 40.4973 20.3711 40.4488C20.3808 40.4003 20.3711 40.3518 20.342 40.3131L17.4824 36.0964C17.4534 35.951 17.3661 35.8347 17.2498 35.7571L17.1626 35.6214C17.1335 35.573 17.0753 35.5439 17.0172 35.5439C16.959 35.5439 16.9008 35.573 16.8717 35.6214L16.833 35.6796C16.6003 35.7378 16.4162 35.951 16.4162 36.203C16.4162 36.2224 16.4162 36.2515 16.4258 36.2709L13.6729 40.3131C13.6341 40.3615 13.6341 40.4294 13.6632 40.4876C13.576 40.536 13.5178 40.6136 13.4984 40.7008L13.0041 42.9982ZM21.2144 43.6767L21.1466 43.3665H12.9265L12.8586 43.6767C12.7714 44.0838 13.1688 44.4425 13.6826 44.4425H20.3905C20.9139 44.4425 21.3017 44.0741 21.2144 43.6767ZM16.9493 36.7459C16.8233 36.7459 16.707 36.6974 16.61 36.6296L14.0316 40.41H19.9737L17.3564 36.552C17.2595 36.6683 17.1141 36.7459 16.9493 36.7459ZM72.3475 40.759C72.3378 40.6136 72.2215 40.4973 72.0664 40.4973C71.921 40.5069 71.8047 40.6233 71.8047 40.7784C71.8144 40.9238 71.9307 41.0401 72.0858 41.0401C72.2409 41.0304 72.3572 40.9044 72.3475 40.759ZM85.0557 29.6406V53.2054L67.4911 41.3987L85.0557 29.6406ZM72.1343 41.6895C72.8225 41.1467 74.2087 40.7784 74.8775 40.6233C75.4397 40.4876 76.0892 40.4197 76.758 40.4197C77.8825 40.4197 78.9779 40.6136 79.8309 40.9528C80.3349 41.1564 80.6645 41.3309 80.9069 41.4569C81.188 41.6023 81.314 41.6702 81.44 41.6702C81.4982 41.6702 81.5757 41.6605 81.6629 41.6314C81.7017 41.6217 81.7405 41.612 81.7793 41.6023C81.3431 41.4278 80.9262 41.2049 81.1686 41.0498C81.6145 40.7687 82.8359 41.0304 82.8359 41.0304C82.8359 41.0304 82.0895 40.1095 80.3059 40.4876C79.6467 40.633 79.6952 40.2161 78.3187 39.7218C77.9213 39.5764 77.4366 39.4794 76.9616 39.4019C76.7387 39.3728 76.5642 38.607 76.3315 38.5876C76.002 38.5682 75.4882 39.334 75.1586 39.3437C74.5382 39.3631 73.8209 39.4407 73.2781 39.5764C72.3184 39.8381 70.7287 40.4391 70.5639 40.9819C70.4864 41.263 71.3103 41.5248 72.1343 41.6895ZM82.4675 42.3196C82.9231 42.0482 84.1639 42.3196 84.1639 42.3196C84.1639 42.3196 83.3981 41.4375 81.7696 41.961C81.1298 42.1645 81.0523 41.8253 79.6952 41.2824C78.3381 40.7396 76.3994 40.633 74.9551 40.9625C73.9857 41.1855 72.27 41.7283 72.0858 42.2712C71.9016 42.814 75.1102 43.3762 75.1974 43.2405C75.2846 43.1048 75.2846 42.4069 75.2846 42.4069C75.2846 42.4069 75.304 43.0369 76.3025 43.7155C77.2912 44.394 79.259 43.919 78.6677 43.7833C78.0764 43.6476 77.5626 43.0854 77.5626 43.0854C77.5626 43.0854 77.9794 43.2502 78.057 43.2696C79.3753 43.5507 81.3818 42.5814 81.8277 42.9303C82.3027 43.289 83.8828 43.066 83.8828 43.066C83.8828 43.066 82.0119 42.591 82.4675 42.3196ZM73.598 41.8253C73.4526 41.8253 73.3266 41.9513 73.3266 42.0967C73.3266 42.2421 73.4526 42.3681 73.598 42.3681C73.7434 42.3681 73.8694 42.2518 73.8694 42.0967C73.8694 41.9416 73.7531 41.8253 73.598 41.8253ZM49.5 44.869L48.4143 49.076L46.7858 49.8612L46.844 48.1163L46.9603 44.9272L45.4578 44.9853L45.0216 43.5798L44.0523 44.4425L43.5288 50.278L40.5238 48.2326L42.0845 47.3311L41.9488 44.7333L40.708 45.344L39.8647 42.3972L41.8131 42.087L41.7355 39.6345L40.107 37.531L41.5513 37.2305L43.3543 33.8572L44.4982 36.6877L45.642 37.1045L45.5741 37.9285L47.571 37.8219L46.6113 33.7894L49.9847 35.2337L49.2189 37.7734L51.3708 37.3469L52.631 33.3725L55.5778 35.5342L52.9315 37.4632L55.3936 37.6474L56.237 39.935L54.2498 39.8769L54.0075 42.465L55.9946 42.5232L56.7119 44.869L54.1238 45.0532L53.5228 49.328L51.9621 50.3555L50.9443 44.8012L49.5 44.869ZM50.101 40.5942L49.9168 42.0967L50.0913 42.4359L51.8361 42.3972L51.5938 40.0514L50.0234 40.3906L50.101 40.5942ZM47.1542 40.0514L45.8262 40.1095L45.419 38.6458L44.3237 39.6927V41.6217L46.0103 41.738L45.6226 42.6201L47.1542 42.5813V40.0514Z" fill="#D3202A"/>
</svg>
