<svg width="96" height="96" viewBox="0 0 96 96" fill="none" xmlns="http://www.w3.org/2000/svg">
<path d="M36.2884 77.8303L37.3976 70.785L34.9269 70.7277H23.1287L31.3278 18.74C31.3533 18.5831 31.436 18.4367 31.5569 18.3328C31.6778 18.2289 31.8326 18.1716 31.9938 18.1716H51.8871C58.4913 18.1716 63.0489 19.5459 65.4285 22.2585C66.5441 23.5309 67.2545 24.8607 67.5981 26.3241C67.9586 27.8595 67.965 29.6941 67.6129 31.9315L67.5875 32.0948V33.5285L68.703 34.1605C69.6426 34.6589 70.3891 35.2294 70.9617 35.8826C71.9161 36.9706 72.5333 38.3534 72.7941 39.9928C73.0635 41.6788 72.9744 43.6851 72.5333 45.9565C72.0243 48.5694 71.2014 50.845 70.0901 52.7071C69.0678 54.4228 67.7656 55.8459 66.2196 56.9487C64.7435 57.9964 62.9896 58.7917 61.0066 59.3007C59.0851 59.8012 56.8943 60.0536 54.4914 60.0536H52.9432C51.8362 60.0536 50.7609 60.4523 49.9168 61.167C49.0706 61.8966 48.5107 62.8934 48.3389 63.9835L48.2223 64.6176L46.2626 77.035L46.1736 77.491C46.1502 77.6352 46.1099 77.7073 46.0506 77.7561C45.9975 77.8006 45.9212 77.8303 45.847 77.8303H36.2884Z" fill="#253B80"/>
<path d="M69.7594 32.2603C69.7 32.6399 69.6321 33.028 69.5558 33.4267C66.9323 46.896 57.957 51.5491 46.494 51.5491H40.6575C39.2556 51.5491 38.0743 52.5671 37.8559 53.9499L34.8676 72.9015L34.0214 78.2736C33.8793 79.1813 34.5792 79.9999 35.4954 79.9999H45.8471C47.073 79.9999 48.1143 79.1092 48.3073 77.9003L48.4091 77.3744L50.3581 65.0057L50.4832 64.3271C50.6741 63.114 51.7176 62.2232 52.9434 62.2232H54.4916C64.521 62.2232 72.3722 58.1512 74.667 46.368C75.6256 41.4455 75.1293 37.3354 72.5928 34.4447C71.8251 33.573 70.8728 32.8498 69.7594 32.2603Z" fill="#179BD7"/>
<path d="M67.0145 31.166C66.6136 31.0494 66.2001 30.9433 65.7759 30.8479C65.3496 30.7546 64.9127 30.6719 64.4631 30.5998C62.8895 30.3453 61.1652 30.2244 59.318 30.2244H43.7257C43.3418 30.2244 42.9771 30.3113 42.6505 30.4683C41.9315 30.814 41.3971 31.4947 41.2677 32.3282L37.9507 53.3371L37.8553 53.95C38.0737 52.5672 39.255 51.5492 40.6569 51.5492H46.4934C57.9564 51.5492 66.9317 46.894 69.5552 33.4268C69.6337 33.0281 69.6994 32.64 69.7588 32.2604C69.095 31.9083 68.376 31.6071 67.6019 31.3505C67.411 31.2869 67.2138 31.2254 67.0145 31.166Z" fill="#222D65"/>
<path d="M41.268 32.3282C41.3973 31.4947 41.9318 30.8139 42.6507 30.4704C42.9795 30.3134 43.3421 30.2265 43.726 30.2265H59.3183C61.1655 30.2265 62.8897 30.3474 64.4634 30.6019C64.913 30.674 65.3499 30.7567 65.7762 30.85C66.2003 30.9454 66.6139 31.0515 67.0147 31.1681C67.2141 31.2275 67.4113 31.289 67.6043 31.3505C68.3784 31.6071 69.0974 31.9104 69.7612 32.2603C70.5417 27.2828 69.7548 23.8937 67.0635 20.8249C64.0965 17.4464 58.7414 16 51.889 16H31.9957C30.596 16 29.402 17.018 29.1857 18.4029L20.8996 70.925C20.7363 71.9642 21.538 72.9016 22.5857 72.9016H34.8673L37.951 53.3371L41.268 32.3282Z" fill="#253B80"/>
</svg>
