<svg width="96" height="96" viewBox="0 0 96 96" fill="none" xmlns="http://www.w3.org/2000/svg">
<path fill-rule="evenodd" clip-rule="evenodd" d="M77.0432 42.9154C79.6547 42.9154 81.3562 44.3399 81.3562 47.0701C81.3562 50.2751 79.4569 53.0845 76.054 53.0845C73.3238 53.0845 71.741 51.5414 71.741 48.8111C71.741 45.6457 73.759 42.9154 77.0432 42.9154ZM76.054 51.3039C78.1511 51.3039 79.1799 49.0881 79.1799 47.2284C79.1799 45.8831 78.5864 44.696 77.0036 44.696C74.8274 44.696 73.8382 46.9119 73.8382 48.7716C73.8778 50.1169 74.5108 51.3039 76.054 51.3039Z" fill="#2A5CA4"/>
<path d="M27.7409 53.0845C28.6114 53.0845 29.5215 52.7285 30.1941 51.858V52.8471H31.579L32.6869 47.6241H28.5718L28.2157 49.2068H30.4711C30.115 50.4335 29.4028 51.304 27.7804 51.304C26.1977 51.304 25.5646 50.1565 25.5646 48.8112C25.5646 46.9515 26.5539 44.7356 28.7301 44.7356C29.9172 44.7356 30.6689 45.2104 30.7085 46.3975H32.8452C32.8452 44.0234 30.9855 42.955 28.7301 42.955C25.4459 42.955 23.4279 45.6853 23.4279 48.8112C23.4279 51.5414 25.0107 53.0845 27.7409 53.0845Z" fill="#2A5CA4"/>
<path fill-rule="evenodd" clip-rule="evenodd" d="M6.05743 43.1529H10.6869C12.428 43.1132 13.5754 43.8256 13.5754 45.6853C13.5754 46.991 12.6654 48.099 11.3596 48.2968V48.3364C12.151 48.5738 12.3488 49.286 12.3488 50.0378C12.3488 50.2351 12.3326 50.4731 12.3148 50.7333C12.2933 51.0471 12.2697 51.3932 12.2697 51.7393C12.2697 52.1746 12.3093 52.5703 12.3884 52.8472H10.2913C10.2856 52.8132 10.2799 52.7799 10.2744 52.7474C10.2412 52.553 10.2122 52.3836 10.2122 52.2141C10.2122 51.9024 10.241 51.581 10.2702 51.2548C10.3004 50.9186 10.331 50.5772 10.331 50.2357C10.331 49.2861 9.77699 49.0487 8.94606 49.0487H6.92806L6.13671 52.8472H4L6.05743 43.1529ZM7.28407 47.545H9.26248C10.3704 47.545 11.4783 47.1097 11.4783 46.0018C11.4783 44.973 10.7265 44.8148 9.89558 44.8148H7.87758L7.28407 47.545Z" fill="#2A5CA4"/>
<path d="M21.687 51.0665L21.2913 52.8471H13.8129L15.8705 43.1529H23.2697L22.8741 44.9334H17.6115L17.1762 47.0306H22.0431L21.687 48.6924H16.8201L16.3453 51.0665H21.687Z" fill="#2A5CA4"/>
<path d="M41.036 51.0665L40.6799 52.8471H33.2014L35.2194 43.1529H42.6187L42.2626 44.9334H37L36.5647 47.0306H41.4317L41.0755 48.6924H36.2086L35.6942 51.0665H41.036Z" fill="#2A5CA4"/>
<path d="M44.2409 52.8471L45.6258 46.0413H45.6654L48.3165 52.8471H50.4532L52.5107 43.1529H50.5323L49.1474 50.0378H49.1079L46.4963 43.1529H44.2805L42.2229 52.8471H44.2409Z" fill="#2A5CA4"/>
<path d="M60.187 51.0665L59.7913 52.8471H52.3129L54.3309 43.1529H61.7302L61.3741 44.9334H56.1115L55.6762 47.0306H60.5431L60.187 48.6924H55.3201L54.8057 51.0665H60.187Z" fill="#2A5CA4"/>
<path fill-rule="evenodd" clip-rule="evenodd" d="M68.0215 43.1529H63.392L61.3346 52.8472H63.4713L64.2627 49.0487H66.2807C67.1116 49.0487 67.6656 49.2861 67.6656 50.2357C67.6656 50.5772 67.635 50.9186 67.6048 51.2548C67.5756 51.581 67.5468 51.9024 67.5468 52.2141C67.5468 52.3836 67.5758 52.553 67.609 52.7473L67.614 52.777C67.618 52.8 67.6219 52.8234 67.6259 52.8472H69.7231C69.6439 52.5703 69.6043 52.1746 69.6043 51.7393C69.6043 51.3933 69.628 51.0472 69.6494 50.7335C69.6672 50.4733 69.6834 50.2351 69.6834 50.0378C69.6834 49.286 69.4856 48.5738 68.6942 48.3364V48.2968C70 48.099 70.91 46.991 70.91 45.6853C70.91 43.8256 69.7626 43.1132 68.0215 43.1529ZM66.5971 47.545H64.6187L65.2122 44.8148H67.2302C68.0611 44.8148 68.8129 44.973 68.8129 46.0018C68.8129 47.1097 67.7446 47.545 66.5971 47.545Z" fill="#2A5CA4"/>
<path d="M81.7518 52.8471H83.7302L85.1151 46.0413H85.1547L87.8057 52.8471H89.9424L92 43.1529H90.0216L88.6367 50.0378L85.9856 43.1529H83.7698L81.7518 52.8471Z" fill="#2A5CA4"/>
</svg>
