<svg width="96" height="96" viewBox="0 0 96 96" fill="none" xmlns="http://www.w3.org/2000/svg">
<path d="M79.4618 46.4696C77.6532 46.4696 73.4583 46.4759 70.9349 46.4759C70.0449 46.4759 69.7812 46.3203 69.2219 45.7191C68.6623 45.1184 65.8785 42.1305 65.8785 42.1305C62.3381 38.3154 53.7031 29.8854 50.5475 27.2245C49.3619 26.2263 48.0207 26.2582 48.0015 26.2582C47.9826 26.2582 46.6414 26.2263 45.4558 27.2245C42.3003 29.8821 33.6653 38.3125 30.1248 42.1305C30.1248 42.1305 27.3407 45.1184 26.7814 45.7191C26.2221 46.3203 25.9584 46.4759 25.0684 46.4759C22.5417 46.4759 18.3501 46.4696 16.5415 46.4696C16.0967 46.4696 15.8297 45.9355 16.1252 45.5955C19.7449 41.8601 39.3316 21.655 43.0025 18.74C44.2799 17.7133 45.9296 16.96 48.0015 16.96C50.0704 16.96 51.7201 17.7133 53.0008 18.74C56.6713 21.655 76.255 41.8601 79.8747 45.5955C80.1703 45.9355 79.9066 46.4729 79.4618 46.4696ZM16.5344 49.5308C18.343 49.5308 22.5379 49.5246 25.0617 49.5246C25.9513 49.5246 26.215 49.6801 26.7743 50.2809C27.3339 50.8816 30.1177 53.8699 30.1177 53.8699C33.6581 57.6846 42.2931 66.115 45.4491 68.7755C46.6343 69.7737 47.9755 69.7418 47.9947 69.7418C48.0136 69.7418 49.3547 69.7737 50.5403 68.7755C53.6964 66.1179 62.3309 57.6875 65.8714 53.8699C65.8714 53.8699 68.6555 50.8816 69.2148 50.2809C69.7741 49.6801 70.0378 49.5246 70.9278 49.5246C73.4545 49.5246 77.6465 49.5308 79.4546 49.5308C79.8995 49.5308 80.1665 50.0645 79.871 50.405C76.2513 54.1399 56.6679 74.345 52.9971 77.26C51.7192 78.2867 50.07 79.04 47.9977 79.04C45.9287 79.04 44.2795 78.2867 42.9987 77.26C39.3279 74.345 19.7445 54.1399 16.1248 50.405C15.8293 50.0645 16.0959 49.5308 16.5344 49.5308ZM46.4532 56.4449C46.4532 58.7846 46.4532 63.1426 46.4532 64.8086C46.4532 65.2057 46.0751 65.3805 45.7539 65.1009C42.1565 61.7663 34.1348 53.8159 31.4429 50.7357C30.1592 49.3686 30.2766 47.9826 30.2766 47.9826C30.2766 47.9826 30.1558 46.5933 31.4429 45.2295C34.1319 42.1494 42.1535 34.199 45.7539 30.8644C46.0591 30.5814 46.4532 30.7914 46.4532 31.1281C46.4532 32.7907 46.4532 37.1776 46.4532 39.5174C46.4532 40.2737 46.2943 40.6619 45.6332 41.2786C44.0187 42.7535 41.1746 45.5125 40.116 46.7492C39.6331 47.2959 39.6649 47.9793 39.6649 47.9793C39.6649 47.9793 39.6331 48.663 40.116 49.2097C41.1746 50.446 44.0187 53.2054 45.6332 54.6807C46.2943 55.2941 46.4532 55.6819 46.4532 56.4449ZM50.3685 54.687C51.9834 53.2122 54.8275 50.4527 55.886 49.216C56.369 48.6693 56.3371 47.986 56.3371 47.986C56.3371 47.986 56.369 47.3022 55.886 46.7555C54.8275 45.5192 51.9834 42.7598 50.3685 41.2849C49.7077 40.6682 49.5489 40.2804 49.5489 39.5237C49.5489 37.1839 49.5489 32.826 49.5489 31.1599C49.5489 30.7629 49.927 30.5881 50.2481 30.8677C53.8485 34.2023 61.8702 42.1527 64.5588 45.2328C65.8429 46.5966 65.7251 47.986 65.7251 47.986C65.7251 47.986 65.8429 49.372 64.5588 50.7387C61.8669 53.8192 53.8456 61.7696 50.2481 65.1042C49.927 65.3838 49.5489 65.209 49.5489 64.8116C49.5489 63.146 49.5489 58.7876 49.5489 56.4482C49.5518 55.6882 49.7077 55.3037 50.3685 54.687Z" fill="#151515"/>
</svg>
