<svg width="96" height="96" viewBox="0 0 96 96" fill="none" xmlns="http://www.w3.org/2000/svg">
<path d="M54.9191 47.6108C52.6711 46.7281 51.0875 44.5438 51.0875 41.991C51.0875 38.6555 53.7814 35.9616 57.1215 35.9616L67.9562 35.9522C69.285 35.9522 70.368 37.0307 70.368 38.3595C70.368 39.7246 69.285 40.7667 67.9562 40.7667H57.1215C56.4526 40.7667 55.9156 41.3082 55.9156 41.9726C55.9156 42.4595 56.2068 42.8827 56.6255 43.0692L66.1588 47.397C68.6206 48.3389 70.368 50.7188 70.368 53.5083C70.368 57.1169 67.4193 60.0474 63.8016 60.0474L53.4947 60.052C52.166 60.052 51.0875 58.9736 51.0875 57.6448C51.0875 56.3161 52.166 55.2376 53.4947 55.2376L63.8016 55.2283C64.7754 55.2283 65.5445 54.4593 65.5445 53.4854C65.5445 52.7255 65.0621 52.0884 64.3841 51.8427L54.9191 47.6108ZM75.551 47.6108C73.3076 46.7281 71.7195 44.5438 71.7195 41.991C71.7195 38.6555 74.4134 35.9616 77.7535 35.9616L88.5882 35.9522C89.917 35.9522 91 37.0307 91 38.3595C91 39.7246 89.917 40.7667 88.5882 40.7667H77.7535C77.0846 40.7667 76.5476 41.3082 76.5476 41.9726C76.5476 42.4595 76.8388 42.8827 77.2575 43.0692L86.7908 47.397C89.2526 48.3389 91 50.7188 91 53.5083C91 57.1169 88.0513 60.0474 84.4336 60.0474L74.1267 60.052C72.798 60.052 71.7195 58.9736 71.7195 57.6448C71.7195 56.3161 72.798 55.2376 74.1267 55.2376L84.4336 55.2283C85.4074 55.2283 86.181 54.4593 86.181 53.4854C86.181 52.7255 85.6941 52.0884 85.0206 51.8427L75.551 47.6108ZM19.1066 42.8237C19.325 42.6053 19.4615 42.305 19.4615 41.9728C19.4615 41.3084 18.92 40.7669 18.2556 40.7669H7.41178C6.07847 40.7669 5 39.6884 5 38.3597C5 37.0309 6.05117 35.957 7.38447 35.957L18.2556 35.9524C21.5957 35.9524 24.2805 38.6553 24.2805 41.9909C24.2805 43.7747 23.5024 45.381 22.2692 46.4868L16.5037 52.2523C16.1487 52.5753 15.9758 52.9667 15.9758 53.4854C15.9758 54.4593 16.7449 55.2328 17.7187 55.2328L21.8733 55.2282C23.202 55.2282 24.2805 56.3158 24.2805 57.6399C24.2805 58.9732 23.202 60.0517 21.8733 60.0517H17.7141C14.0965 60.0517 11.1523 57.062 11.1523 53.4489C11.1523 51.5605 12.0669 49.8722 13.1044 48.8302L19.1066 42.8237ZM9.81899 57.6493C9.81899 58.978 8.74052 60.0565 7.41178 60.0565C6.07847 60.0565 5 58.978 5 57.6493V45.5904C5 44.2617 6.07847 43.1832 7.41178 43.1832C8.74052 43.1832 9.81899 44.2617 9.81899 45.5904V57.6493ZM28.0483 40.7669C30.2508 37.8819 33.7728 35.9434 37.6863 35.9434C44.3437 35.9434 49.736 41.3494 49.736 47.9976C49.736 54.6459 44.3482 60.0474 37.6863 60.0474C31.0289 60.0474 25.6365 54.6459 25.6365 47.9976C25.6365 46.8327 25.7504 46.1956 26.0188 44.9807C26.2827 43.8521 27.3612 43.1741 28.3759 43.1741C29.7047 43.1741 31.0789 44.3663 30.6831 46.182C30.5374 46.7554 30.4555 47.3742 30.4555 47.9976C30.4555 52.0248 33.6818 55.2284 37.6863 55.2284C41.6907 55.2284 44.917 52.0248 44.917 47.9976C44.917 43.975 41.6907 40.7669 37.6863 40.7669H28.0483Z" fill="#0F7FCA"/>
</svg>
