<svg width="97" height="96" viewBox="0 0 97 96" fill="none" xmlns="http://www.w3.org/2000/svg">
<path d="M77.9587 54.1891C78.2137 54.3935 78.5395 54.4883 78.8644 54.4528C79.1893 54.4172 79.4868 54.2542 79.6917 53.9995C81.0654 52.2851 81.8147 50.1542 81.8166 47.9572C81.8166 45.7798 81.1099 43.725 79.7727 42.0156C79.6731 41.8879 79.5493 41.7811 79.4084 41.7013C79.2675 41.6216 79.1122 41.5704 78.9515 41.5507C78.7907 41.531 78.6277 41.5432 78.4717 41.5866C78.3157 41.63 78.1698 41.7038 78.0423 41.8037C77.9148 41.9033 77.8082 42.0272 77.7285 42.1681C77.6489 42.309 77.5979 42.4642 77.5784 42.6248C77.5589 42.7855 77.5712 42.9484 77.6148 43.1043C77.6583 43.2602 77.7322 43.4059 77.8321 43.5332C78.8246 44.7938 79.3616 46.3529 79.3559 47.9572C79.3559 49.6123 78.8072 51.1697 77.773 52.4557C77.6713 52.5817 77.5955 52.7266 77.5498 52.8819C77.5041 53.0373 77.4895 53.2002 77.5068 53.3612C77.524 53.5222 77.5729 53.6783 77.6505 53.8204C77.7281 53.9625 77.8326 54.0875 77.9587 54.1891ZM82.342 57.202C82.6035 57.3975 82.9319 57.4815 83.2552 57.4356C83.5785 57.3896 83.8704 57.2175 84.0671 56.9568C86.0138 54.3669 87.0419 51.2779 87.0419 48.029C87.0419 44.7509 85.9976 41.6421 84.0207 39.0413C83.8233 38.7812 83.5309 38.6101 83.2075 38.5653C82.8841 38.5206 82.5561 38.606 82.2956 38.8027C82.1666 38.9005 82.0582 39.0227 81.9764 39.1625C81.8947 39.3022 81.8413 39.4566 81.8193 39.617C81.7972 39.7773 81.807 39.9405 81.848 40.097C81.889 40.2536 81.9605 40.4006 82.0583 40.5296C83.7081 42.7013 84.5794 45.2942 84.5794 48.0299C84.5794 50.7402 83.7238 53.3169 82.099 55.4777C82.0016 55.6069 81.9307 55.754 81.8902 55.9105C81.8498 56.0671 81.8406 56.2302 81.8632 56.3903C81.8858 56.5505 81.9398 56.7046 82.022 56.8439C82.1042 56.9831 82.2127 57.1048 82.342 57.202ZM86.2437 37.1354C88.436 40.3373 89.5945 44.091 89.5945 47.9874C89.5945 51.8957 88.429 55.6586 86.2275 58.8636C86.1358 58.9968 86.0713 59.1468 86.0376 59.305C86.0039 59.4631 86.0018 59.6264 86.0313 59.7854C86.0607 59.9444 86.1213 60.096 86.2094 60.2316C86.2976 60.3672 86.4116 60.4841 86.5449 60.5756C86.6779 60.6675 86.8278 60.7323 86.9859 60.7663C87.144 60.8002 87.3073 60.8026 87.4663 60.7733C87.6254 60.744 87.7771 60.6836 87.9127 60.5956C88.0484 60.5076 88.1653 60.3937 88.2569 60.2603C90.7408 56.6393 92.0557 52.3966 92.0557 47.9874C92.0557 43.5914 90.7478 39.3561 88.2735 35.7417C88.0875 35.4756 87.8039 35.2938 87.4844 35.2359C87.165 35.1779 86.8356 35.2484 86.5679 35.4321C86.3002 35.6158 86.1159 35.8978 86.0551 36.2167C85.9943 36.5356 86.0623 36.8661 86.2437 37.1354Z" fill="#0000E7"/>
<path d="M61.1427 40.4799C59.1058 40.4799 57.8212 41.9178 57.1145 43.0041V40.8857H51.926V55.1185H57.5755V48.0822C57.5755 46.3724 57.6149 44.8947 59.1671 44.9341C60.6724 44.9735 60.7959 45.7748 60.7959 47.8664V55.1185H66.4442V48.0835C66.4442 46.3729 66.431 44.942 68.0204 44.9367C69.5143 44.9323 69.6514 45.7739 69.6514 47.8659V55.118H75.2996V46.6982C75.2996 42.8145 73.5373 40.4807 69.9557 40.4807C67.8956 40.4807 66.8251 41.3739 65.6022 43.0846C64.9226 41.5635 63.4983 40.4799 61.1427 40.4799Z" fill="#201D1E"/>
<path d="M41.6303 40.8854L43.4238 44.4442L45.3254 40.8854H51.5179L46.6555 47.6488L51.5726 55.1185H45.2706L43.26 51.0435L41.1964 55.1185H34.9483L40.0554 47.6751L35.356 40.8854H41.6303Z" fill="#201D1E"/>
<path d="M27.9767 40.4776C25.0168 40.4776 21.2417 41.5372 21.2417 45.1775C21.2417 50.69 29.9601 48.8712 29.9601 51.1533C29.9601 52.159 29.0363 52.4291 28.1676 52.4291C27.6246 52.4291 27.1351 52.2671 26.7813 51.9948C26.4017 51.6971 26.1846 51.2614 26.1846 50.69H20.8078C21.1055 54.5199 24.6902 55.5247 27.9491 55.5247C33.1652 55.5247 35.6092 53.5163 35.6092 50.5552C35.6092 45.23 26.6202 46.562 26.6202 44.5794C26.6202 43.8731 27.2437 43.5745 28.2214 43.5745C28.6549 43.5745 29.0621 43.6822 29.362 43.9266C29.6606 44.1709 29.8507 44.4971 29.9058 44.9599H35.0396C34.713 41.1834 31.074 40.4763 27.9771 40.4763L27.9767 40.4776Z" fill="#201D1E"/>
<path d="M16.4253 53.9996C16.6301 54.2541 16.9275 54.417 17.2522 54.4526C17.5769 54.4881 17.9025 54.3934 18.1575 54.1892C18.2835 54.0875 18.3884 53.9621 18.4659 53.8199C18.5435 53.6778 18.5924 53.5218 18.6096 53.3608C18.6269 53.1997 18.6123 53.0369 18.5667 52.8815C18.521 52.7262 18.4452 52.5813 18.3435 52.4553C17.3146 51.1827 16.7563 49.5941 16.7629 47.9577C16.7629 46.3363 17.2883 44.8065 18.2866 43.5332C18.4869 43.2756 18.5771 42.9491 18.5373 42.6252C18.4976 42.3013 18.3313 42.0062 18.0747 41.8046C17.9474 41.7045 17.8016 41.6306 17.6457 41.5871C17.4897 41.5435 17.3267 41.5313 17.166 41.5509C17.0053 41.5706 16.8501 41.6218 16.7092 41.7016C16.5683 41.7814 16.4446 41.8883 16.3452 42.0161C15.0054 43.7254 14.2996 45.7803 14.2996 47.9577C14.2996 50.15 15.0544 52.2955 16.4253 53.9996ZM13.8228 38.8031C13.5622 38.6064 13.2343 38.5211 12.9109 38.5658C12.5875 38.6105 12.295 38.7817 12.0976 39.0418C10.1203 41.6435 9.07385 44.7513 9.07385 48.0299C9.07385 51.2796 10.1028 54.3665 12.0495 56.9568C12.2458 57.2175 12.5376 57.3897 12.8607 57.4357C13.1838 57.4816 13.512 57.3976 13.7733 57.202C14.0341 57.0056 14.2063 56.7138 14.252 56.3906C14.2977 56.0673 14.2133 55.7392 14.0172 55.4782C12.3954 53.3178 11.5367 50.7424 11.5367 48.0304C11.5367 45.2947 12.4081 42.7017 14.0566 40.53C14.254 40.2698 14.3402 39.9418 14.2962 39.6181C14.2522 39.2943 14.0825 39.0013 13.8228 38.8031ZM6.52207 47.9879C6.52207 44.0902 7.67974 40.3369 9.87336 37.1345C10.058 36.8649 10.128 36.533 10.0679 36.2118C10.0079 35.8907 9.82266 35.6065 9.55307 35.4219C9.28349 35.2372 8.9516 35.1672 8.63042 35.2273C8.30924 35.2874 8.02507 35.4726 7.84043 35.7421C5.36483 39.357 4.05566 43.5906 4.05566 47.9888C4.05566 52.397 5.37052 56.6398 7.85969 60.2599C7.95121 60.3933 8.06814 60.5072 8.20377 60.5953C8.3394 60.6834 8.49107 60.7438 8.6501 60.7732C8.80913 60.8025 8.97239 60.8002 9.13053 60.7664C9.28867 60.7326 9.43858 60.6679 9.57168 60.576C9.70509 60.4846 9.81917 60.3678 9.90739 60.2322C9.9956 60.0967 10.0562 59.9451 10.0858 59.7861C10.1154 59.627 10.1133 59.4638 10.0797 59.3056C10.0461 59.1474 9.98163 58.9973 9.89 58.8641C7.68455 55.6577 6.52207 51.8961 6.52207 47.9879Z" fill="#0000E7"/>
</svg>
