<svg width="97" height="96" viewBox="0 0 97 96" fill="none" xmlns="http://www.w3.org/2000/svg">
<path d="M10.1797 40.6111C10.1797 40.0192 9.88575 39.5748 8.58688 39.5748C7.28489 39.5748 6.99209 40.0187 6.99209 40.6111V42.2147C6.99209 42.7006 7.15982 43.1863 7.62156 43.5873L12.0236 47.3881C12.6544 47.9158 13.0318 48.5703 13.0318 49.246V51.6529C13.0318 53.0903 11.3525 53.8916 8.58547 53.8916C5.52368 53.8916 4.05466 53.1951 4.05566 51.6529V49.5641H6.82467L6.82325 51.5688C6.82325 52.2877 7.36951 52.7094 8.58507 52.7094C9.71802 52.7094 10.2624 52.2878 10.2624 51.5688V49.4354C10.2624 48.9077 10.053 48.5057 9.46647 47.9797L5.3965 44.4119C4.64217 43.7558 4.22229 43.249 4.22229 42.469V40.6324C4.22229 39.1332 5.77482 38.3937 8.58607 38.3937C11.6901 38.3937 12.9468 39.1336 12.9468 40.527V42.47H10.1788L10.1797 40.6111Z" fill="#5A2A82"/>
<path d="M39.6606 51.2477C39.6606 52.0922 39.9947 52.6841 41.7575 52.6841C43.5193 52.6841 43.8553 52.0922 43.8553 51.2477V40.9859C43.8553 40.1428 43.5198 39.5505 41.7585 39.5505C39.9966 39.5505 39.6606 40.1424 39.6606 40.9859V51.2477ZM36.8926 40.9454C36.8926 39.4462 38.0235 38.3704 41.7585 38.3704C45.4914 38.3704 46.6243 39.4462 46.6243 40.9454L46.6233 51.2882C46.6233 52.7874 45.4924 53.8653 41.7575 53.8653C38.0245 53.8653 36.8916 52.7874 36.8916 51.2882L36.8926 40.9454Z" fill="#5A2A82"/>
<path d="M52.3384 45.6761C53.5971 45.6761 54.4775 45.5073 54.4775 44.7256V40.6087C54.4775 39.827 53.5971 39.6581 52.3384 39.6581H50.9972V45.6764L52.3384 45.6761ZM48.2282 38.4757H52.6332C56.1991 38.4757 57.2475 39.0662 57.2475 40.7985L57.2445 44.5355C57.2445 46.2667 56.1961 46.8583 52.6332 46.8583H50.9972V53.7204H48.2282V38.4757Z" fill="#5A2A82"/>
<path d="M64.1107 40.6111C64.1107 40.0192 63.8166 39.5758 62.5179 39.5758C61.2159 39.5758 60.9221 40.0197 60.9221 40.6111V42.2147C60.9221 42.7006 61.0898 43.1863 61.5515 43.5873L65.9566 47.3881C66.5846 47.9158 66.9618 48.5703 66.9618 49.246V51.6539C66.9618 53.0903 65.2856 53.8916 62.5166 53.8916C59.4548 53.8916 57.9858 53.1951 57.9858 51.6529V49.563H60.7547V51.5688C60.7547 52.2877 61.3011 52.7094 62.5166 52.7094C63.6495 52.7094 64.1939 52.2878 64.1939 51.5688V49.4354C64.1939 48.9077 63.9859 48.5071 63.3966 47.9797L59.3286 44.4099C58.5716 43.7552 58.1544 43.248 58.1544 42.468V40.6294C58.1544 39.1301 59.7059 38.3916 62.5182 38.3916C65.6212 38.3916 66.8789 39.1301 66.8789 40.526V42.468H64.1109L64.1107 40.6111Z" fill="#5A2A82"/>
<path d="M84.536 40.6111C84.536 40.0192 84.2421 39.5758 82.9432 39.5758C81.6422 39.5758 81.3484 40.0197 81.3484 40.6111V42.2167C81.3484 42.7011 81.5162 43.1869 81.9779 43.5873L86.3819 47.3902C87.0114 47.9178 87.3872 48.5713 87.3872 49.247V51.6549C87.3872 53.0913 85.7109 53.8926 82.9429 53.8926C79.8801 53.8926 78.4101 53.1961 78.4101 51.6549V49.5641H81.1801L81.1791 51.5698C81.1791 52.2887 81.7255 52.7104 82.9429 52.7104C84.0729 52.7104 84.6192 52.2888 84.6192 51.5698V49.4364C84.6192 48.9087 84.4098 48.5081 83.8219 47.9807L79.7539 44.4109C78.9983 43.7576 78.5798 43.251 78.5798 42.469V40.6304C78.5798 39.1342 80.1313 38.3927 82.9435 38.3927C86.0466 38.3927 87.3053 39.1339 87.3053 40.527V42.469H84.5363L84.536 40.6111Z" fill="#5A2A82"/>
<path d="M21.6501 38.4838H24.4231L18.3558 57.6195H15.5838L21.6501 38.4838Z" fill="#5A2A82"/>
<path d="M17.2229 50.4373L13.4719 38.5851H16.2439L18.6084 46.0581L17.2229 50.4373Z" fill="#5A2A82"/>
<path d="M75.4804 38.4838H78.2524L72.1852 57.6296H69.4132L75.4804 38.4838Z" fill="#5A2A82"/>
<path d="M71.1539 50.336L67.4028 38.4838H70.1749L72.5404 45.9578L71.1539 50.336Z" fill="#5A2A82"/>
<path d="M35.2473 53.7802V40.8644C35.2473 39.1321 34.1979 38.5405 30.634 38.5405H25.2942L25.2932 53.7863H28.0612L28.0622 53.7802V39.7197H30.3402C31.5979 39.7197 32.4783 39.89 32.4783 40.6703V53.7786L35.2473 53.7802Z" fill="#5A2A82"/>
<path d="M90.2712 40.3072C90.5319 40.3072 90.7648 40.2891 90.7648 39.975C90.7648 39.7195 90.5374 39.6748 90.3225 39.6748H89.9023V40.3071L90.2712 40.3072ZM89.9023 41.458H89.5931V39.4117H90.3682C90.8493 39.4117 91.0878 39.589 91.0878 39.9925C91.0878 40.361 90.8576 40.5202 90.5596 40.5578L91.1377 41.4582H90.7938L90.2558 40.5718H89.9022L89.9023 41.458ZM90.2767 41.9145C91.074 41.9145 91.7025 41.2849 91.7025 40.4294C91.7025 39.589 91.0743 38.9555 90.2767 38.9555C89.467 38.9555 88.8389 39.5892 88.8389 40.4294C88.8389 41.2851 89.467 41.9145 90.2767 41.9145ZM88.4837 40.4294C88.4837 39.4113 89.3046 38.6597 90.2767 38.6597C91.2362 38.6597 92.0557 39.4121 92.0557 40.4294C92.0557 41.4586 91.2362 42.2103 90.2767 42.2103C89.3048 42.2103 88.4837 41.4578 88.4837 40.4294Z" fill="#5A2A82"/>
</svg>
