<svg width="97" height="96" viewBox="0 0 97 96" fill="none" xmlns="http://www.w3.org/2000/svg">
<path d="M35.0292 45.5575C34.839 45.3086 34.5877 45.1129 34.2997 44.9894C34.0117 44.8659 33.6967 44.8189 33.3852 44.8527C33.0737 44.8865 32.7762 45.0002 32.5214 45.1826C32.2666 45.3651 32.0632 45.6101 31.9309 45.8942L16.2311 77.284C16.0881 77.57 16.0205 77.8879 16.0349 78.2074C16.0493 78.527 16.1451 78.8375 16.3132 79.1096C16.4814 79.3816 16.7163 79.6062 16.9956 79.762C17.275 79.9177 17.5895 79.9995 17.9093 79.9996H39.7705C40.1206 80.0077 40.4656 79.914 40.7635 79.7298C41.0614 79.5457 41.2994 79.279 41.4487 78.9622C46.1644 69.2177 43.3065 54.4011 35.0292 45.5575Z" fill="url(#paint0_linear_314_3700)"/>
<path d="M46.5443 17.007C42.6323 23.0262 40.3526 29.9591 39.9288 37.1254C39.5051 44.2916 40.9518 51.4449 44.127 57.8832L54.6665 78.9622C54.8224 79.2739 55.0619 79.536 55.3583 79.7192C55.6547 79.9024 55.9963 79.9995 56.3448 79.9995H78.202C78.5218 79.9995 78.8364 79.9177 79.1157 79.762C79.395 79.6062 79.6299 79.3816 79.7981 79.1095C79.9662 78.8375 80.062 78.5269 80.0764 78.2074C80.0908 77.8879 80.0233 77.57 79.8802 77.2839C79.8802 77.2839 50.4749 18.4664 49.7359 16.9952C49.5898 16.6958 49.3622 16.4435 49.0793 16.2675C48.7964 16.0915 48.4696 15.9988 48.1364 16C47.8032 16.0012 47.4771 16.0964 47.1955 16.2745C46.9139 16.4526 46.6882 16.7065 46.5443 17.007V17.007Z" fill="#2684FF"/>
<defs>
<linearGradient id="paint0_linear_314_3700" x1="43.6334" y1="50.4018" x2="27.065" y2="79.0996" gradientUnits="userSpaceOnUse">
<stop stop-color="#0052CC"/>
<stop offset="0.923" stop-color="#2684FF"/>
</linearGradient>
</defs>
</svg>
