<svg width="96" height="96" viewBox="0 0 96 96" fill="none" xmlns="http://www.w3.org/2000/svg">
<path fill-rule="evenodd" clip-rule="evenodd" d="M32.0103 26.7114V40.116H22.0052H12L12.0628 40.701C12.1474 41.4881 12.4925 42.7445 12.8248 43.4751C13.5083 44.9779 14.5544 46.2121 16.91 48.2948C18.7134 49.8892 19.725 50.9665 20.3484 51.9567C20.666 52.461 21.1498 53.508 21.7547 54.9999C22.8096 57.6019 23.3045 58.6474 23.9308 59.5972C24.5362 60.5154 25.0241 61.0477 25.7036 61.531C26.5377 62.1244 27.3732 62.3943 28.3856 62.3975C29.1157 62.3998 29.2609 62.3708 29.8198 62.1115C30.3665 61.8579 30.6202 61.6406 31.9206 60.3131C33.2384 58.9678 33.4718 58.7688 34.0612 58.4891C34.915 58.0841 35.5393 57.9597 36.4878 58.0058C37.5449 58.0572 38.2556 58.4076 39.1887 59.337C40.4989 60.6423 41.3263 62.0951 43.833 67.4923C46.7773 73.8318 48.2718 76.2263 50.7548 78.5822C52.8045 80.5269 54.9426 81.7818 57.3491 82.4524C58.1884 82.6863 58.3195 82.6975 60.1568 82.6921C62.2821 82.6859 62.895 82.5822 64.0816 82.0287L64.6449 81.7659L64.4278 81.3382C63.3239 79.1631 62.8246 75.3316 63.3329 72.937C63.6037 71.6613 64.2602 70.0948 65.0847 68.757C66.1314 67.0585 68.1268 64.8676 69.9273 63.4395C73.2279 60.822 77.9521 58.5655 82.8571 57.2641L83.9993 56.961L84 50.0161C84.0006 43.1941 83.9974 43.0696 83.8237 42.9769C83.4153 42.759 82.5219 41.9341 82.0414 41.3312C81.4586 40.6001 80.8033 39.3831 80.5084 38.4841C80.0597 37.1168 80.037 36.8086 79.9929 31.5147L79.9514 26.5327L72.9897 26.5331L66.0281 26.5333L65.1832 30.7108C64.7185 33.0084 64.3205 34.9586 64.2988 35.0446C64.2618 35.1908 64.4239 35.201 66.7795 35.201C68.1658 35.201 69.2999 35.2124 69.2999 35.2263C69.2999 35.2685 67.783 42.8266 67.7312 43.0426L67.683 43.2437H65.1765H62.67L62.6224 43.4448C62.5963 43.5553 62.1272 45.8576 61.58 48.5608C60.5011 53.8908 60.4148 54.5655 60.7403 55.1203C60.8384 55.2876 61.0631 55.4991 61.2396 55.5904C61.6074 55.7806 62.8898 55.9275 64.2129 55.931C64.6935 55.9323 65.0887 55.9635 65.0909 56.0004C65.093 56.0372 64.72 57.9503 64.2617 60.2515L63.4286 64.4357L57.7813 64.3996C51.7574 64.3612 51.2599 64.329 49.8035 63.8828C48.4068 63.4548 47.3825 62.6261 46.9678 61.5887C46.7862 61.1345 46.7613 60.92 46.7626 59.8207C46.764 58.676 46.7956 58.4327 47.1348 56.961C47.4722 55.4969 49.8483 43.5707 49.8483 43.3413C49.8483 43.2732 49.1304 43.2437 47.4729 43.2437C45.2688 43.2437 45.0978 43.2324 45.1015 43.0873C45.1038 43.0013 45.4568 41.2017 45.8859 39.0883L46.6662 35.2457L49.0879 35.2219L51.5096 35.1982L52.3517 30.9771C52.8148 28.6555 53.2117 26.7059 53.2338 26.6444C53.2651 26.5569 52.7852 26.5327 51.0232 26.5327H48.7727V19.9198V13.3069H40.3915H32.0103V26.7114ZM58.1415 17.2612C58.1209 17.3227 57.8374 18.7201 57.5115 20.3666C57.1857 22.0131 56.8986 23.4307 56.8736 23.5167C56.8308 23.6637 57.0323 23.6731 60.2272 23.6731H63.6263L64.2255 20.657C64.5551 18.9983 64.8466 17.5305 64.8733 17.3953L64.9218 17.1495H61.5504C58.9332 17.1495 58.1707 17.1745 58.1415 17.2612ZM56.2188 27.0019C55.8611 28.7464 50.4762 55.813 50.476 55.8674C50.4759 55.9048 51.9962 55.9249 53.8545 55.9121L57.2333 55.8887L58.6947 48.5608C59.4984 44.5305 60.815 37.9254 61.6202 33.8829L63.0842 26.5327H59.6997H56.315L56.2188 27.0019Z" fill="#F00000"/>
</svg>
