<svg width="96" height="96" viewBox="0 0 96 96" fill="none" xmlns="http://www.w3.org/2000/svg">
<path d="M61.1507 47.177L47.7019 24.842L34.253 47.177H61.1507Z" fill="#3F125F"/>
<path d="M22.4248 66.8211L19.8135 71.1572L75.5904 71.158L72.9783 66.8211H22.4248Z" fill="#3F125F"/>
<path d="M59.5929 53.3176C59.5929 51.7829 58.7166 51.367 56.3493 51.367C56.1536 51.367 55.9745 51.3848 55.7822 51.404L55.714 51.4107C55.6035 51.9586 55.6034 54.1724 55.6034 57.043C55.6034 61.6892 55.6034 63.5968 56.7215 63.6183V63.8155C55.8667 63.7495 54.9244 63.728 54.0036 63.728C53.0827 63.728 52.1412 63.7495 51.2864 63.8155V63.6183C52.4044 63.5968 52.4044 61.6892 52.4044 57.043C52.4044 54.1724 52.4044 51.9586 52.2947 51.4107L52.2234 51.4037C52.0318 51.3847 51.854 51.367 51.6586 51.367C49.0949 51.367 48.2393 52.528 47.9109 53.9752L47.363 53.8432C47.6477 52.8786 47.9109 51.4974 47.9109 50.0732C48.0429 50.1615 48.7657 50.2052 49.7088 50.2267C50.6511 50.2712 51.812 50.2712 52.7766 50.2712H55.1661C57.7958 50.2712 59.6151 50.249 60.5351 50.0732C60.5268 50.1135 60.5182 50.1548 60.5093 50.1974C60.3772 50.8295 60.1853 51.7475 60.1853 53.4925V53.9092H59.5929V53.3176Z" fill="#5A5C61"/>
<path fill-rule="evenodd" clip-rule="evenodd" d="M34.982 57.0432C34.982 61.6902 34.982 63.597 33.9077 63.6185V63.8157C34.7625 63.7497 35.7048 63.7282 36.6256 63.7282C37.4796 63.7282 38.4665 63.7497 39.3427 63.8157V63.6185C38.2255 63.6185 38.2255 61.4484 38.2255 57.8105C38.3132 57.7946 38.3457 57.7845 38.3664 57.778C38.3724 57.7761 38.3774 57.7746 38.3825 57.7733C38.4079 57.7668 38.435 57.7668 38.5977 57.7668C39.3136 57.7668 39.9525 58.7507 40.6953 59.8945L40.6958 59.8953C40.8397 60.1168 40.9876 60.3446 41.1406 60.5722C41.9032 61.716 42.5652 62.797 42.9565 63.4359L42.9569 63.4366C43.0828 63.6422 43.1806 63.8019 43.2447 63.9032C44.1432 63.772 45.0855 63.7282 45.9841 63.7282C46.2687 63.7282 46.5534 63.7282 46.8389 63.7497C46.915 63.7561 46.993 63.7626 47.0708 63.769C47.2611 63.7848 47.4505 63.8005 47.6062 63.8157V63.6185C46.9924 63.5748 46.4222 62.8734 45.173 61.295C44.3685 60.2798 43.6056 59.2089 43.0111 58.3742C42.5532 57.7314 42.195 57.2284 41.9947 56.9994C43.2224 56.7808 45.8306 55.9037 45.8306 53.3178C45.8306 50.0734 42.2587 50.0734 41.6448 50.0734C40.658 50.0734 39.6934 50.1394 38.8386 50.2054C37.9623 50.2929 37.195 50.3589 36.5374 50.3589C36.3739 50.3589 36.1865 50.3541 35.9865 50.3489C35.7575 50.343 35.512 50.3366 35.2667 50.3366L35.1507 50.3312C34.7261 50.3114 34.2895 50.2911 33.9077 50.2714V50.4678C34.982 50.5116 34.982 52.3969 34.982 57.0432ZM42.3239 54.1503C42.3239 56.5398 40.8114 56.9994 38.8609 56.9994C38.6559 56.9994 38.5331 56.9921 38.4313 56.986C38.3594 56.9816 38.298 56.978 38.2255 56.978C38.2255 56.2981 38.2255 52.8136 38.313 51.2352C38.7734 51.1477 39.2553 51.0602 39.7372 51.0602C41.1406 51.0602 42.3239 52.156 42.3239 54.1503Z" fill="#5A5C61"/>
<path d="M32.0338 60.4844C31.5074 61.6899 31.113 62.61 30.8943 64.0127C30.6963 63.86 30.0172 63.794 29.2292 63.7717C28.4388 63.728 27.541 63.728 26.8174 63.728H24.2315C22.4782 63.728 21.0755 63.794 20.856 63.8154V63.6182C21.9303 63.6182 21.9303 61.7559 21.9303 57.0429C21.9303 51.9808 21.908 50.5773 20.856 50.4676V50.2712C21.2522 50.2712 21.7132 50.2871 22.2531 50.3057L22.5219 50.3149C23.201 50.3364 23.9906 50.3587 24.9329 50.3587H26.8174C28.8777 50.3587 30.4116 50.2927 31.3325 50.074C31.179 50.6871 30.9595 51.5856 30.9595 53.0328V53.471H30.4999C30.4999 51.4544 28.8348 51.1483 26.5765 51.1483C26.1161 51.1483 25.6994 51.1912 25.3487 51.2787C25.1738 52.6814 25.1738 55.5965 25.1738 56.1452C25.2328 56.1496 25.2937 56.155 25.3586 56.1608C25.6079 56.1828 25.9184 56.2104 26.423 56.2104C28.8117 56.2104 29.0972 55.6848 29.1847 54.6105H29.6451C29.5576 55.443 29.4916 56.2764 29.4916 57.1312C29.4916 57.9049 29.4916 58.0076 29.4949 58.1103L29.4967 58.1598C29.4998 58.2445 29.5049 58.3819 29.5131 58.8185H29.0312C29.0312 57.6568 28.5708 57.0214 26.423 57.0214C25.8974 57.0214 25.4593 57.0214 25.1738 57.0429C25.1738 57.7451 25.1738 61.2073 25.2398 62.6537C25.428 62.6624 25.6162 62.6776 25.8057 62.693C26.1015 62.7169 26.4005 62.7412 26.7077 62.7412C30.193 62.7412 30.9158 61.6454 31.6394 60.2864L32.0338 60.4844Z" fill="#5A5C61"/>
<path d="M19.6054 50.4679C18.7242 50.4679 17.7903 52.6699 16.6018 55.4721C16.2533 56.2938 15.8829 57.1671 15.4856 58.0516C14.8409 59.4736 14.264 60.8618 13.8145 61.9436C13.4533 62.8126 13.1744 63.4839 13.0086 63.8158L12.9866 63.8136C12.5558 63.7706 12.1246 63.7275 11.6719 63.7275C11.1551 63.7275 10.6176 63.7705 10.0797 63.8134L10.0497 63.8158C9.72131 62.8958 8.73449 60.1556 7.61647 57.3939C7.38456 56.8236 7.15727 56.244 6.93425 55.6753C5.87182 52.9661 4.9063 50.5041 4 50.4679V50.2707L4.01179 50.2712C5.12651 50.3156 6.21763 50.359 7.30953 50.359C8.09914 50.359 8.88796 50.3153 9.65531 50.2707V50.4679C9.62996 50.4758 9.60444 50.4831 9.57899 50.4904C9.31788 50.5652 9.06369 50.6381 9.06369 51.2576C9.06369 52.5714 10.9952 57.2815 12.0797 59.9261C12.4241 60.766 12.6831 61.3975 12.7676 61.6458C12.8263 61.4991 12.919 61.2772 13.0367 60.9956C13.8857 58.9634 16.0326 53.8249 16.0326 51.4762C16.0326 50.7311 15.7265 50.5562 15.2661 50.4679V50.2707C16.0112 50.3153 16.7785 50.359 17.5451 50.359C18.2241 50.359 18.9255 50.3153 19.6054 50.2707V50.4679Z" fill="#5A5C61"/>
<path d="M72.1296 64.0127C72.3491 62.61 72.7443 61.6899 73.2699 60.4844L72.8747 60.2864C72.1519 61.6454 71.4282 62.7412 67.9438 62.7412C67.6367 62.7412 67.3379 62.717 67.0421 62.693C66.8523 62.6777 66.6638 62.6624 66.4751 62.6537C66.4099 61.2073 66.4099 57.7451 66.4099 57.0429C66.6946 57.0214 67.1327 57.0214 67.6591 57.0214C69.8069 57.0214 70.2665 57.6568 70.2665 58.8185H70.7492C70.7409 58.3821 70.7359 58.2446 70.7327 58.1599L70.731 58.1103C70.7277 58.0078 70.7277 57.9052 70.7277 57.1344V57.1312C70.7277 56.2764 70.7929 55.443 70.8812 54.6105H70.4208C70.3325 55.6848 70.0478 56.2104 67.6591 56.2104C67.1542 56.2104 66.8427 56.1828 66.5932 56.1606C66.5287 56.1549 66.4683 56.1496 66.4099 56.1452C66.4099 55.5965 66.4099 52.6814 66.5848 51.2787C66.9355 51.1912 67.3522 51.1483 67.8126 51.1483C70.0701 51.1483 71.736 51.4544 71.736 53.471H72.1956V53.0328C72.1956 51.5856 72.4151 50.6871 72.5685 50.074C71.6477 50.2927 70.1138 50.3587 68.0535 50.3587H66.1689C65.2259 50.3587 64.4362 50.3364 63.7572 50.3149L63.4919 50.3058C62.9509 50.2871 62.4884 50.2712 62.0921 50.2712V50.4676C63.1441 50.5773 63.1656 51.9808 63.1656 57.0429C63.1656 61.7559 63.1656 63.6182 62.0921 63.6182V63.8154C62.3107 63.794 63.7134 63.728 65.4668 63.728H68.0535C68.7771 63.728 69.6757 63.728 70.4637 63.7717C71.2533 63.794 71.9332 63.86 72.1296 64.0127Z" fill="#5A5C61"/>
<path d="M74.0381 63.6181C74.4359 63.6181 74.5991 63.4738 74.8883 63.2181C74.9176 63.1922 74.9481 63.1651 74.9804 63.137C75.5537 62.6169 78.7202 59.2551 79.9044 57.9978C80.1685 57.7174 80.3343 57.5414 80.3502 57.5254C80.1069 57.2311 79.4228 56.3465 78.4811 55.1289C77.8101 54.2613 77.0083 53.2246 76.1421 52.1119C74.9988 50.6563 74.8612 50.6213 74.3446 50.49C74.3165 50.4828 74.2873 50.4754 74.2568 50.4674V50.271L74.2616 50.2712C75.3788 50.3149 76.4944 50.3585 77.61 50.3585C78.5523 50.3585 79.5606 50.3148 80.4822 50.271V50.4674C80.2182 50.512 79.9113 50.5772 79.9113 50.9064C79.9113 51.6705 81.5595 53.8107 82.3819 54.8786C82.5497 55.0965 82.6832 55.2699 82.7612 55.3777C83.3973 54.6326 85.4568 51.7827 85.4568 51.1036C85.4568 50.5569 85.1201 50.5154 84.8098 50.4771C84.7843 50.4739 84.759 50.4708 84.734 50.4674V50.271C85.0435 50.2798 85.3533 50.2951 85.6644 50.3106C86.1456 50.3345 86.6302 50.3585 87.1227 50.3585C87.8456 50.3585 88.6129 50.3148 89.3142 50.271V50.4674C89.0948 50.4897 88.8316 50.5772 88.5254 50.7092C88.2445 50.8259 87.2958 51.8603 86.1991 53.0563C85.2406 54.1014 84.169 55.2698 83.3313 56.0567C83.4593 56.2103 83.7387 56.5565 84.1264 57.0368L84.1269 57.0374L84.1273 57.0379C85.0672 58.2025 86.6428 60.1547 88.24 62.0619C89.424 63.4877 89.5552 63.5529 90.1031 63.6181V63.8161C88.919 63.7278 87.7144 63.7278 86.5303 63.7278C85.6326 63.7278 84.7125 63.7716 83.8132 63.8161V63.6181C84.1194 63.6181 84.3833 63.5744 84.3833 63.203C84.3833 62.7288 83.0237 60.9954 81.9787 59.6632C81.4764 59.0228 81.0467 58.4751 80.8758 58.2045C80.3065 58.9067 77.9392 61.9307 77.9392 63.1147C77.9392 63.6181 78.3774 63.6181 78.662 63.6181V63.8161L78.638 63.8147C77.9014 63.7706 77.1854 63.7278 76.4491 63.7278C75.638 63.7278 74.8269 63.7716 74.0381 63.8161V63.6181Z" fill="#5A5C61"/>
<path fill-rule="evenodd" clip-rule="evenodd" d="M90.8629 51.401H91.0156V51.005H91.1587L91.3981 51.401H91.5706L91.3114 50.9939C91.4497 50.978 91.5523 50.9088 91.5523 50.741C91.5523 50.5525 91.4386 50.4746 91.2144 50.4746H90.8629V51.401ZM91.4004 50.7291C91.4004 50.8643 91.2994 50.8754 91.1857 50.8754H91.0156V50.6042H91.1993C91.2907 50.6042 91.4004 50.6178 91.4004 50.7291Z" fill="#5A5C61"/>
<path fill-rule="evenodd" clip-rule="evenodd" d="M90.358 50.9223C90.358 51.3986 90.6999 51.7588 91.181 51.7588C91.6199 51.7588 92 51.4257 92 50.9223C92 50.4182 91.6199 50.085 91.181 50.085C90.7381 50.085 90.358 50.4182 90.358 50.9223ZM90.5369 50.9223C90.5369 50.5144 90.8184 50.2305 91.181 50.2305C91.5388 50.2305 91.8211 50.5144 91.8211 50.9223C91.8211 51.3318 91.5388 51.6133 91.181 51.6133C90.7826 51.6133 90.5369 51.3024 90.5369 50.9223Z" fill="#5A5C61"/>
</svg>
