<svg width="97" height="96" viewBox="0 0 97 96" fill="none" xmlns="http://www.w3.org/2000/svg">
<path fill-rule="evenodd" clip-rule="evenodd" d="M75.704 44.0423C76.0404 44.6226 76.1504 45.2829 76.1868 46.0252L76.2345 47.0146V53.9332L76.2833 54.9237C76.3809 56.5412 77.5738 57.7372 79.2038 57.8389L80.189 57.8877V47.0146L80.2378 46.0252C80.2783 45.2912 80.3873 44.6185 80.7289 44.034C81.0769 43.4344 81.5766 42.937 82.1777 42.5917C82.7788 42.2463 83.4601 42.0652 84.1534 42.0665C84.8466 42.0677 85.5273 42.2513 86.1271 42.5989C86.7269 42.9464 87.2248 43.4456 87.5706 44.0464C87.907 44.6268 88.0119 45.2995 88.0524 46.0252L88.1012 47.0115V53.9332L88.1499 54.9237C88.2517 56.5495 89.4352 57.7455 91.0704 57.8389L92.0557 57.8877V46.0252C92.0557 43.9276 91.2226 41.9159 89.7397 40.4323C88.2567 38.9488 86.2453 38.115 84.1477 38.1141C83.025 38.113 81.915 38.3514 80.8918 38.8135C79.8686 39.2756 78.9558 39.9507 78.2144 40.7937C77.4726 39.951 76.5598 39.2761 75.5367 38.8138C74.5136 38.3516 73.4037 38.1127 72.281 38.1131C70.6386 38.1131 69.1145 38.6114 67.8521 39.4721C67.0817 38.6125 65.3583 38.1131 64.3689 38.1131V57.8877L65.3583 57.8389C67.0132 57.7299 68.2092 56.5661 68.2736 54.9237L68.3265 53.9332V47.0146L68.3753 46.0252C68.4169 45.2788 68.5207 44.6226 68.8581 44.0381C69.2064 43.439 69.7059 42.9417 70.3065 42.5959C70.9072 42.2501 71.588 42.068 72.281 42.0676C72.9746 42.0678 73.656 42.2503 74.2568 42.5969C74.8576 42.9435 75.3567 43.4419 75.704 44.0423V44.0423ZM8.01017 57.84L8.99958 57.8877H23.8303L23.7815 56.9014C23.6476 55.2756 22.4962 54.0879 20.8652 53.982L19.8758 53.9332H10.9784L22.8409 42.0666L22.7921 41.0813C22.7153 39.4389 21.5151 38.2522 19.8758 38.1619L18.8864 38.1173L4.05566 38.1131L4.10446 39.1025C4.23423 40.7128 5.40221 41.9254 7.01973 42.0188L8.01017 42.0676H16.9076L5.04507 53.9342L5.09387 54.9237C5.19146 56.5536 6.36774 57.7341 8.01017 57.8389V57.84ZM60.4871 41.0076C61.4054 41.9257 62.1338 43.0157 62.6308 44.2154C63.1278 45.415 63.3836 46.7008 63.3836 47.9994C63.3836 49.2979 63.1278 50.5837 62.6308 51.7834C62.1338 52.983 61.4054 54.073 60.4871 54.9911C58.6318 56.8449 56.1164 57.8862 53.4938 57.8862C50.8711 57.8862 48.3557 56.8449 46.5004 54.9911C42.6394 51.1301 42.6394 44.8687 46.5004 41.0076C47.4179 40.0898 48.5071 39.3617 49.706 38.8649C50.9048 38.3681 52.1898 38.1123 53.4875 38.1121C54.7874 38.1112 56.0746 38.3665 57.2757 38.8635C58.4767 39.3606 59.568 40.0895 60.4871 41.0086V41.0076ZM57.6891 43.8076C58.8013 44.9206 59.426 46.4296 59.426 48.003C59.426 49.5764 58.8013 51.0854 57.6891 52.1984C56.5762 53.3105 55.0671 53.9352 53.4938 53.9352C51.9204 53.9352 50.4114 53.3105 49.2984 52.1984C48.1863 51.0854 47.5615 49.5764 47.5615 48.003C47.5615 46.4296 48.1863 44.9206 49.2984 43.8076C50.4114 42.6955 51.9204 42.0708 53.4938 42.0708C55.0671 42.0708 56.5762 42.6955 57.6891 43.8076V43.8076ZM32.736 38.1121C34.0338 38.1124 35.3188 38.3684 36.5176 38.8654C37.7165 39.3624 38.8057 40.0907 39.7231 41.0086C43.5852 44.8687 43.5852 51.1311 39.7231 54.9911C37.8678 56.8449 35.3524 57.8862 32.7297 57.8862C30.1071 57.8862 27.5917 56.8449 25.7364 54.9911C21.8753 51.1301 21.8753 44.8687 25.7364 41.0076C26.6539 40.0898 27.7431 39.3617 28.942 38.8649C30.1408 38.3681 31.4258 38.1123 32.7235 38.1121H32.736ZM36.9251 43.8056C38.0376 44.9186 38.6625 46.4278 38.6625 48.0014C38.6625 49.5751 38.0376 51.0843 36.9251 52.1973C35.8121 53.3095 34.3031 53.9342 32.7297 53.9342C31.1564 53.9342 29.6473 53.3095 28.5344 52.1973C27.4222 51.0844 26.7975 49.5754 26.7975 48.002C26.7975 46.4286 27.4222 44.9196 28.5344 43.8066C29.6473 42.6945 31.1564 42.0697 32.7297 42.0697C34.3031 42.0697 35.8121 42.6945 36.9251 43.8066V43.8056Z" fill="#2D8CFF"/>
</svg>
