<svg width="12" height="16" viewBox="0 0 12 16" fill="none" xmlns="http://www.w3.org/2000/svg">
<path d="M0.709229 11C0.709229 11.7956 1.0253 12.5587 1.58791 13.1213C2.15052 13.6839 2.91358 14 3.70923 14H7.70923C8.50488 14 9.26794 13.6839 9.83055 13.1213C10.3932 12.5587 10.7092 11.7956 10.7092 11C10.7092 10.2044 10.3932 9.44129 9.83055 8.87868C9.26794 8.31607 8.50488 8 7.70923 8H3.70923C2.91358 8 2.15052 7.68393 1.58791 7.12132C1.0253 6.55871 0.709229 5.79565 0.709229 5C0.709229 4.20435 1.0253 3.44129 1.58791 2.87868C2.15052 2.31607 2.91358 2 3.70923 2H7.70923C8.50488 2 9.26794 2.31607 9.83055 2.87868C10.3932 3.44129 10.7092 4.20435 10.7092 5M5.70923 0.5V2M5.70923 15.5V14" stroke="#CAFB7C"/>
</svg>
