<svg width="16" height="16" viewBox="0 0 16 16" fill="none" xmlns="http://www.w3.org/2000/svg">
<g clip-path="url(#clip0_59_115)">
<path d="M6.23054 12.958C6.35705 12.9182 6.46258 12.8298 6.5239 12.7122C6.58522 12.5946 6.59733 12.4575 6.55754 12.331C6.51776 12.2045 6.42935 12.0989 6.31177 12.0376C6.19418 11.9763 6.05705 11.9642 5.93054 12.004L6.23054 12.958ZM2.58254 9.99796L2.09854 9.86996L1.84454 10.838L2.32854 10.965L2.58254 9.99696V9.99796ZM9.58054 14.981V15.481H10.5805V14.981H9.58054ZM9.64354 10.168L9.58954 9.67096C9.49557 9.68103 9.40638 9.71752 9.33231 9.77621C9.25823 9.83489 9.2023 9.91337 9.17101 10.0025C9.13972 10.0917 9.13433 10.1879 9.15549 10.28C9.17665 10.3722 9.22347 10.4564 9.29054 10.523L9.64254 10.169L9.64354 10.168ZM13.0805 6.39396H13.5805V6.39096L13.0805 6.39396ZM12.2475 4.38696L11.7815 4.20696C11.7467 4.29712 11.7387 4.39545 11.7586 4.49005C11.7785 4.58465 11.8254 4.67145 11.8935 4.73996L12.2475 4.38696ZM12.1975 2.36996L12.6535 2.16596C12.6237 2.09949 12.5797 2.04035 12.5246 1.99267C12.4695 1.945 12.4046 1.90994 12.3345 1.88996L12.1975 2.36996ZM10.0245 3.16196L9.89854 3.64596C9.96569 3.6635 10.0358 3.66687 10.1043 3.65585C10.1728 3.64483 10.2383 3.61967 10.2965 3.58196L10.0245 3.16196ZM6.13654 3.16196L5.86454 3.58196C5.92281 3.61967 5.98829 3.64483 6.05681 3.65585C6.12533 3.66687 6.19539 3.6635 6.26254 3.64596L6.13654 3.16196ZM3.96354 2.37096L3.82654 1.89096C3.75629 1.91081 3.69124 1.94581 3.63595 1.99349C3.58067 2.04118 3.5365 2.10038 3.50654 2.16696L3.96354 2.37096ZM3.91354 4.38796L4.26754 4.74096C4.33593 4.67237 4.38292 4.58538 4.4028 4.49058C4.42268 4.39579 4.4146 4.29725 4.37954 4.20696L3.91354 4.38796ZM3.08054 6.41096H3.58054V6.40896L3.08054 6.41096ZM6.51854 10.169L6.87054 10.524C6.93715 10.4577 6.98376 10.3741 7.00502 10.2826C7.02628 10.1911 7.02134 10.0954 6.99076 10.0066C6.96018 9.91781 6.9052 9.83941 6.83212 9.78039C6.75904 9.72138 6.67081 9.68415 6.57754 9.67296L6.51754 10.169H6.51854ZM6.08054 11.481H6.58054L6.57954 11.444L6.08054 11.481ZM5.58054 14.981V15.481H6.58054V14.981H5.58054ZM5.93054 12.004C5.32754 12.194 4.94454 12.173 4.69054 12.089C4.43954 12.006 4.24654 11.839 4.06154 11.599C3.96484 11.4696 3.87472 11.3354 3.79154 11.197C3.70654 11.058 3.60954 10.895 3.51154 10.75C3.32054 10.469 3.03854 10.117 2.58254 9.99696L2.32854 10.965C2.40854 10.985 2.51254 11.06 2.68354 11.311C2.76554 11.433 2.84354 11.563 2.94154 11.723C3.03554 11.875 3.14354 12.043 3.26854 12.207C3.52154 12.537 3.86654 12.87 4.37854 13.039C4.88854 13.207 5.49454 13.189 6.23054 12.958L5.93054 12.004ZM10.5805 11.419C10.5805 11.101 10.5665 10.811 10.4765 10.541C10.3805 10.253 10.2145 10.031 9.99554 9.81396L9.29054 10.524C9.44554 10.677 9.49854 10.769 9.52754 10.857C9.56254 10.962 9.58054 11.111 9.58054 11.419H10.5805ZM9.69654 10.666C10.5995 10.569 11.5845 10.341 12.3435 9.68396C13.1235 9.00896 13.5805 7.95496 13.5805 6.39396H12.5805C12.5805 7.75296 12.1905 8.49396 11.6885 8.92796C11.1645 9.38196 10.4305 9.58096 9.58954 9.67096L9.69654 10.666ZM13.5805 6.39096C13.5776 5.50649 13.2253 4.659 12.6005 4.03296L11.8935 4.73996C12.3315 5.17996 12.5785 5.77296 12.5805 6.39396L13.5805 6.39096ZM12.7135 4.56696C12.8635 4.18296 12.9335 3.77296 12.9235 3.35996L11.9235 3.38496C11.9309 3.66499 11.8826 3.94369 11.7815 4.20496L12.7135 4.56696ZM12.9235 3.35996C12.9134 2.9477 12.8217 2.54253 12.6535 2.16596L11.7405 2.57296C11.8555 2.82896 11.9165 3.10496 11.9235 3.38496L12.9235 3.35996ZM12.1975 2.36996C12.3345 1.88896 12.3345 1.88796 12.3335 1.88796H12.3305L12.3265 1.88596C12.3166 1.8833 12.3066 1.88096 12.2965 1.87896C12.2267 1.86499 12.1558 1.85696 12.0845 1.85496C11.913 1.85276 11.7418 1.87088 11.5745 1.90896C11.1495 1.99996 10.5505 2.22596 9.75454 2.74096L10.2965 3.58096C11.0155 3.11696 11.5025 2.94696 11.7845 2.88696C11.8848 2.86388 11.9877 2.8538 12.0905 2.85696L12.0825 2.85596C12.0792 2.85536 12.0759 2.85469 12.0725 2.85396L12.0665 2.85196H12.0635L12.0615 2.85096C12.0605 2.85096 12.0595 2.85096 12.1975 2.36896V2.36996ZM10.1505 2.67696C8.79321 2.32326 7.36788 2.32326 6.01054 2.67696L6.26254 3.64596C7.45464 3.33529 8.70645 3.33529 9.89854 3.64596L10.1505 2.67696ZM6.40754 2.74096C5.61054 2.22696 5.01054 2.00096 4.58554 1.91096C4.41824 1.8732 4.24704 1.85541 4.07554 1.85796C3.99443 1.86017 3.91372 1.87022 3.83454 1.88796L3.83054 1.88996H3.82754L3.96354 2.37096L4.10054 2.85196L4.09754 2.85296L4.09454 2.85396C4.08924 2.85543 4.08391 2.85676 4.07854 2.85796C4.17874 2.85537 4.27887 2.86645 4.37654 2.88896C4.65854 2.94896 5.14554 3.11796 5.86454 3.58196L6.40754 2.74296V2.74096ZM3.50754 2.16496C3.33945 2.54154 3.24768 2.9477 3.23754 3.35996L4.23754 3.38496C4.24348 3.10476 4.30572 2.82862 4.42054 2.57296L3.50754 2.16496ZM3.23754 3.35996C3.22754 3.77296 3.29754 4.18296 3.44754 4.56696L4.37954 4.20496C4.27816 3.94376 4.22955 3.66506 4.23654 3.38496L3.23654 3.35996H3.23754ZM3.55954 4.03296C3.24816 4.34535 3.00145 4.7161 2.83354 5.12396L3.75754 5.50396C3.87554 5.21896 4.04954 4.95896 4.26754 4.73896L3.55954 4.03296ZM2.83354 5.12396C2.66533 5.53213 2.57935 5.96949 2.58054 6.41096L3.58054 6.40896C3.58054 6.09896 3.64054 5.79196 3.75754 5.50596L2.83354 5.12596V5.12396ZM2.58054 6.41096C2.58054 7.96396 3.03854 9.00796 3.81954 9.67896C4.57654 10.329 5.55954 10.559 6.45954 10.666L6.57754 9.67296C5.73054 9.57096 4.99654 9.37096 4.47054 8.91896C3.96854 8.48796 3.58054 7.75696 3.58054 6.40896H2.58054V6.41096ZM6.16554 9.81496C5.66554 10.313 5.53654 10.905 5.58154 11.519L6.57954 11.444C6.54954 11.036 6.63254 10.761 6.87154 10.523L6.16654 9.81396L6.16554 9.81496ZM5.58054 11.481V14.981H6.58054V11.481H5.58054ZM10.5805 14.981V13.481H9.58054V14.981H10.5805ZM10.5805 13.481V11.419H9.58054V13.481H10.5805Z" fill="#CAFB7C"/>
</g>
<defs>
<clipPath id="clip0_59_115">
<rect width="15" height="15" fill="white" transform="translate(0.580566 0.480965)"/>
</clipPath>
</defs>
</svg>
