<svg width="15" height="15" viewBox="0 0 15 15" fill="none" xmlns="http://www.w3.org/2000/svg">
<path d="M1.66 11.362C3.01954 11.649 4.43528 11.4929 5.69956 10.9164C6.96384 10.3399 8.0101 9.37342 8.68488 8.15876C9.35966 6.94409 9.62743 5.54515 9.44892 4.16715C9.27041 2.78916 8.65501 1.50463 7.693 0.501999C8.89504 0.535189 10.0683 0.877475 11.0996 1.49586C12.1309 2.11425 12.9855 2.98788 13.581 4.03255C14.1766 5.07721 14.493 6.25768 14.4997 7.46015C14.5064 8.66263 14.2033 9.84656 13.6194 10.8978C13.0356 11.9491 12.1909 12.8322 11.1665 13.4621C10.1422 14.092 8.97291 14.4474 7.77132 14.4941C6.56973 14.5407 5.37638 14.277 4.30632 13.7284C3.23625 13.1798 2.32555 12.3648 1.662 11.362H1.66Z" stroke="white" stroke-linejoin="round"/>
</svg>
