<svg width="17" height="17" viewBox="0 0 17 17" fill="none" xmlns="http://www.w3.org/2000/svg">
<path fill-rule="evenodd" clip-rule="evenodd" d="M7.5 2.32776C6.84339 2.32776 6.19321 2.45709 5.58658 2.70836C4.97995 2.95963 4.42876 3.32793 3.96447 3.79222C3.50017 4.25652 3.13188 4.80771 2.8806 5.41434C2.62933 6.02097 2.5 6.67115 2.5 7.32776C2.5 7.98437 2.62933 8.63455 2.8806 9.24118C3.13188 9.8478 3.50017 10.399 3.96447 10.8633C4.42876 11.3276 4.97995 11.6959 5.58658 11.9472C6.19321 12.1984 6.84339 12.3278 7.5 12.3278C8.82608 12.3278 10.0979 11.801 11.0355 10.8633C11.9732 9.92561 12.5 8.65384 12.5 7.32776C12.5 6.00168 11.9732 4.72991 11.0355 3.79222C10.0979 2.85454 8.82608 2.32776 7.5 2.32776ZM4.82122 0.860602C5.67049 0.508819 6.58075 0.327759 7.5 0.327759C9.35652 0.327759 11.137 1.06526 12.4497 2.37801C13.7625 3.69077 14.5 5.47124 14.5 7.32776C14.5 8.84766 14.0057 10.3166 13.1061 11.5197L16.2071 14.6207L14.7929 16.0349L11.6919 12.9339C10.4888 13.8335 9.0199 14.3278 7.5 14.3278C6.58075 14.3278 5.67049 14.1467 4.82122 13.7949C3.97194 13.4431 3.20026 12.9275 2.55025 12.2775C1.90024 11.6275 1.38463 10.8558 1.03284 10.0065C0.68106 9.15726 0.5 8.24701 0.5 7.32776C0.5 6.40851 0.68106 5.49825 1.03284 4.64897C1.38463 3.7997 1.90024 3.02802 2.55025 2.37801C3.20026 1.728 3.97194 1.21238 4.82122 0.860602Z" fill="#1E141E"/>
</svg>
